<svg id="Layer_1" enable-background="new 0 0 512 512" viewBox="0 0 512 512" xmlns="http://www.w3.org/2000/svg"><path d="m98.45 65.09c0-25.62 18.45-46.4 41.22-46.4s41.22 20.78 41.22 46.4c0 25.63-18.45 46.4-41.22 46.4s-41.22-20.78-41.22-46.4zm35.66 96.26v22.08c26.05-8.59 54.94-14.51 85.61-17.15-5.67-23.9-27.27-41.84-52.84-41.84h-54.31c-14.15 0-27.07 5.47-36.77 14.4h35.8c12.42 0 22.51 10.1 22.51 22.51zm238.25-49.86c22.76 0 41.22-20.78 41.22-46.4s-18.45-46.4-41.22-46.4-41.22 20.78-41.22 46.4c.01 25.62 18.46 46.4 41.22 46.4zm5.56 49.86c0-12.42 10.09-22.51 22.51-22.51h35.86c-9.69-8.93-22.59-14.4-36.71-14.4h-54.34c-25.6 0-47.2 17.94-52.89 41.87 30.64 2.61 59.53 8.53 85.58 17.12v-22.08zm68.77 93.32-17.21 19.84c-5.36 6.15-13.89 8.33-21.51 5.5-7.63-2.86-12.64-10.09-12.64-18.23v-7.71c-9.98-2.32-17.4-11.28-17.4-21.91v-31.66c-35.57-12.22-77.3-19.25-121.92-19.25-44.59 0-86.31 7.03-121.89 19.25v31.66c0 10.63-7.46 19.59-17.4 21.91v7.71c0 8.14-5.02 15.36-12.64 18.23-7.65 2.83-16.19.65-21.52-5.5l-17.21-19.84h-19.82c-16.27 18.17-25.43 38.75-25.43 60.55 0 29.31 16.58 56.41 44.67 78.46 9.35-8.56 20.98-14.66 33.82-17.23-10.49-11.71-16.67-27.69-16.67-44.22 0-32.57 23.87-62.93 57.74-62.93s57.74 30.36 57.74 62.93c0 16.53-6.18 32.51-16.67 44.22 32.37 6.46 56.92 35.18 56.92 69.42v2.92c6.07.26 12.19.4 18.34.4 6.18 0 12.3-.14 18.34-.4v-2.83c0-34.24 24.55-62.99 56.95-69.51-10.52-11.71-16.67-27.69-16.67-44.22 0-32.57 23.87-62.93 57.74-62.93s57.74 30.36 57.74 62.93c0 16.53-6.18 32.51-16.67 44.22 12.87 2.58 24.49 8.65 33.85 17.21 28.09-22.05 44.65-49.12 44.65-78.43 0-21.8-9.18-42.38-25.46-60.55h-19.77zm-33.11 77.55c0-25.63-18.45-46.4-41.22-46.4s-41.22 20.78-41.22 46.4 18.45 46.37 41.22 46.37 41.22-20.74 41.22-46.37zm-14.01 59.36h-54.34c-29.91 0-54.37 24.46-54.37 54.37v40.25c0 3.91 3.2 7.11 7.11 7.11h148.76c3.91 0 7.11-3.2 7.11-7.11v-40.34c.02-29.84-24.42-54.28-54.27-54.28zm-218.69-59.36c0-25.63-18.45-46.4-41.22-46.4s-41.22 20.78-41.22 46.4 18.45 46.37 41.22 46.37 41.22-20.74 41.22-46.37zm-14 59.36h-54.31c-29.93 0-54.4 24.46-54.4 54.37v40.25c0 3.91 3.2 7.11 7.12 7.11h148.76c3.91 0 7.11-3.2 7.11-7.11v-40.34c0-29.84-24.43-54.28-54.28-54.28zm345.12-230.23v70.81c0 3.29-2.69 5.98-5.98 5.98h-65.51c-.91 0-1.64.34-2.24 1.02l-21.29 24.55c-.82.94-2.07 1.25-3.23.82-1.19-.45-1.93-1.5-1.93-2.75v-20.69c0-1.64-1.3-2.95-2.92-2.95h-8.48c-3.29 0-6.01-2.69-6.01-5.98v-70.81c0-3.29 2.72-5.98 6.01-5.98h105.59c3.29 0 5.99 2.69 5.99 5.98zm-50.52 47.96c0-4.56-3.71-8.28-8.28-8.28h-32.77c-4.56 0-8.28 3.71-8.28 8.28s3.71 8.25 8.28 8.25h32.77c4.57 0 8.28-3.68 8.28-8.25zm32.8-25.11c0-4.56-3.71-8.25-8.28-8.25h-65.57c-4.56 0-8.28 3.69-8.28 8.25s3.71 8.25 8.28 8.25h65.57c4.57 0 8.28-3.69 8.28-8.25zm-422.76 53.94h-65.51c-3.32 0-6.01-2.69-6.01-5.98v-70.81c0-3.29 2.69-5.98 6.01-5.98h105.59c3.29 0 5.98 2.69 5.98 5.98v70.81c0 3.29-2.69 5.98-5.98 5.98h-8.48c-1.62 0-2.95 1.3-2.95 2.95v20.69c0 1.25-.74 2.3-1.9 2.75-1.16.43-2.44.11-3.26-.82l-21.29-24.55c-.55-.68-1.32-1.02-2.2-1.02zm-45.52-45.69h65.59c4.56 0 8.25-3.69 8.25-8.25s-3.69-8.25-8.25-8.25h-65.59c-4.54 0-8.25 3.69-8.25 8.25s3.71 8.25 8.25 8.25zm32.79 25.11h32.8c4.56 0 8.25-3.69 8.25-8.25s-3.69-8.28-8.25-8.28h-32.8c-4.56 0-8.25 3.71-8.25 8.28s3.69 8.25 8.25 8.25z"/></svg>