<svg id="Layer_1" enable-background="new 0 0 500 500" viewBox="0 0 500 500" xmlns="http://www.w3.org/2000/svg"><path clip-rule="evenodd" d="m43.869 169.087c-45.159 45.159-45.159 118.377 0 163.536 39.658 39.658 100.953 44.484 145.884 14.487l9.286 9.286c1.455-2.619 3.292-5.08 5.512-7.3l19.328-19.328c2.22-2.22 4.681-4.057 7.3-5.512l-9.286-9.286c1.627-2.437 3.145-4.925 4.567-7.452-10.362-4.615-20.312-10.066-29.677-16.33-26.508 46.694-90.574 55.875-128.964 17.485-31.933-31.933-31.933-83.705 0-115.638 15.347-15.347 35.278-23.314 55.386-23.909-.705-11.36-.084-22.717 1.849-33.903-29.4.149-58.754 11.433-81.185 33.864zm270.592-159.087c96.948 0 175.539 67.188 175.539 150.069 0 60.879-42.404 113.291-103.34 136.827l-54.757 60.629c-5.451 6.036-15.46 1.347-14.312-6.704l5.827-40.876c-99.832 4.283-184.495-63.5-184.495-149.876 0-82.881 78.591-150.069 175.538-150.069zm0 82.607c55.605 0 104.358 29.308 131.678 73.313-27.32 44.005-76.072 73.314-131.678 73.314-55.605 0-104.358-29.308-131.677-73.314 27.319-44.005 76.072-73.313 131.677-73.313zm0 23.749c-27.373 0-49.563 22.19-49.563 49.563s22.19 49.564 49.563 49.564 49.564-22.19 49.564-49.564c0-27.372-22.19-49.563-49.564-49.563zm-8 23.875v31.838c0 4.418 3.582 8 8 8s8-3.582 8-8v-31.838c0-4.418-3.582-8-8-8s-8 3.582-8 8zm0 51.285c0 4.539 3.57 8.093 8 8.093 4.418 0 8-3.582 8-8 0-4.539-3.57-8.093-8-8.093-4.418 0-8 3.582-8 8zm-90.596 168.894 19.328-19.328c6.638-6.638 17.5-6.638 24.138 0l100.474 100.474c6.638 6.638 6.638 17.499 0 24.137l-19.328 19.328c-6.638 6.638-17.499 6.638-24.137 0l-100.475-100.473c-6.638-6.639-6.638-17.5 0-24.138z" fill-rule="evenodd"/></svg>