<?xml version="1.0"?>
<svg xmlns="http://www.w3.org/2000/svg" data-name="Layer 1" id="Layer_1" viewBox="0 0 128 128"><title/><path d="M103.36328,14.16113l-.89941,5.5166A1.99952,1.99952,0,0,0,105.40527,21.75L110,19.21l4.59473,2.54a1.99952,1.99952,0,0,0,2.94141-2.07227l-.89941-5.5166,3.79492-3.88965a1.99954,1.99954,0,0,0-1.12988-3.373l-5.16309-.78906-2.32812-4.959a2,2,0,0,0-3.62109,0l-2.32812,4.959-5.16309.78906a1.99954,1.99954,0,0,0-1.12988,3.373Z"/><path d="M11.36328,14.16113l-.89941,5.5166A1.99952,1.99952,0,0,0,13.40527,21.75L18,19.21l4.59473,2.54a1.99952,1.99952,0,0,0,2.94141-2.07227l-.89941-5.5166,3.79492-3.88965a1.99954,1.99954,0,0,0-1.12988-3.373l-5.16309-.78906-2.32812-4.959a2,2,0,0,0-3.62109,0l-2.32812,4.959-5.16309.78906a1.99954,1.99954,0,0,0-1.12988,3.373Z"/><path d="M56.86328,32.4375,55.8457,38.67773A1.99952,1.99952,0,0,0,58.78711,40.75L64,37.86914,69.21289,40.75a1.99952,1.99952,0,0,0,2.94141-2.07227L71.13672,32.4375l4.29492-4.40137a2.00043,2.00043,0,0,0-1.12988-3.374l-5.85449-.89355-2.63672-5.61816a2,2,0,0,0-3.62109,0l-2.63672,5.61816-5.85449.89355a2.00043,2.00043,0,0,0-1.12988,3.374Zm4.34863-4.876a2.00374,2.00374,0,0,0,1.50879-1.12793L64,23.708l1.2793,2.72559a2.00373,2.00373,0,0,0,1.50879,1.12793l3.06152.46777-2.28125,2.33789a1.998,1.998,0,0,0-.542,1.71875l.51758,3.17188L64.96777,33.834a1.99817,1.99817,0,0,0-1.93555,0l-2.57617,1.42383.51758-3.17187a1.998,1.998,0,0,0-.542-1.71875L58.15039,28.0293Z"/><path d="M74.30176,84.66211l-5.85449-.89355-2.63672-5.61816a2,2,0,0,0-3.62109,0l-2.63672,5.61816-5.85449.89355a2.00043,2.00043,0,0,0-1.12988,3.374l4.29492,4.40137L55.8457,98.67773A1.99952,1.99952,0,0,0,58.78711,100.75L64,97.86914,69.21289,100.75a1.99952,1.99952,0,0,0,2.94141-2.07227L71.13672,92.4375l4.29492-4.40137a2.00043,2.00043,0,0,0-1.12988-3.374Zm-6.7334,5.70508a1.998,1.998,0,0,0-.542,1.71875l.51758,3.17188L64.96777,93.834a1.99817,1.99817,0,0,0-1.93555,0l-2.57617,1.42383.51758-3.17187a1.998,1.998,0,0,0-.542-1.71875L58.15039,88.0293l3.06152-.46777a2.00374,2.00374,0,0,0,1.50879-1.12793L64,83.708l1.2793,2.72559a2.00373,2.00373,0,0,0,1.50879,1.12793l3.06152.46777Z"/><path d="M115.81976,32a5.19837,5.19837,0,0,0-2.11835.4549L66,53.66052l-.731.325a3.989,3.989,0,0,1-3.15686.0365L62,53.97516,14.18835,34.02887A5.17648,5.17648,0,0,0,7,38.77448v63.3031a5.14736,5.14736,0,0,0,3.24146,4.77271L62,127.61267l.25049.10046a3.98869,3.98869,0,0,0,2.9057.02539l52.51782-20.0108A5.14818,5.14818,0,0,0,121,102.92194V37.15308A5.17131,5.17131,0,0,0,115.81976,32ZM78.29395,90.83008l-2.88477,2.95605.69336,4.248a5.99965,5.99965,0,0,1-8.82422,6.2168L66,103.54462v19.59467l-2.26031.86139L62,123.3028V103.54462l-1.27832.70636a6.00006,6.00006,0,0,1-8.82422-6.2168l.69336-4.248-2.88477-2.95605A6.00052,6.00052,0,0,1,53.09375,80.708l3.74512-.57129,1.72949-3.68555A5.987,5.987,0,0,1,62,73.358V58.15479a7.87616,7.87616,0,0,0,4-.1839v15.387a5.98734,5.98734,0,0,1,3.43164,3.09326l1.72949,3.68555,3.74512.57129a6.00052,6.00052,0,0,1,3.3877,10.12207Z"/></svg>
