<svg width="146" height="150" viewBox="0 0 146 150" fill="none" xmlns="http://www.w3.org/2000/svg">
<path d="M25.1297 45.6137C24.1121 45.8409 23.3379 46.7273 23.3379 47.8409V54.4546C23.3379 55.7273 24.3555 56.7727 25.5942 56.7727H26.9215L27.6958 59.0909C28.1161 60.3182 29.2664 61.1591 30.5494 61.1591H37.9158C39.1988 61.1591 40.3491 60.3182 40.7694 59.0909L41.5658 56.7727H42.893C44.1318 56.7727 45.1494 55.7273 45.1494 54.4546V47.8409C45.1494 46.7273 44.3752 45.8409 43.3355 45.6137C43.977 42.3637 45.5918 39.2727 48.003 36.7727C49.9576 34.738 51.4616 32.2936 52.4123 29.6068C53.3629 26.9199 53.7377 24.0539 53.5112 21.2046C52.7591 11.4546 44.7291 3.45456 35.1948 2.97729C29.8636 2.70456 24.7758 4.63638 20.9045 8.43184C17.0333 12.2273 14.8876 17.3182 14.8876 22.8182C14.8876 28.0682 16.8564 33 20.4179 36.7273C22.8512 39.2727 24.4661 42.3637 25.1297 45.6137ZM37.6945 57.75H30.7485L30.4167 56.7727H38.0264L37.6945 57.75ZM41.8091 53.3637H26.6561V48.9318H41.8091V53.3637ZM23.183 10.9091C24.7536 9.36941 26.6129 8.17437 28.6476 7.39681C30.6822 6.61925 32.8497 6.27546 35.0179 6.38638C42.9152 6.77274 49.5736 13.4091 50.193 21.4773C50.5691 26.2727 48.8879 30.9773 45.6361 34.3864C42.6276 37.5 40.6588 41.4091 39.973 45.5227H28.5142C27.8285 41.4318 25.8376 37.5 22.807 34.3409C19.8574 31.2733 18.2109 27.1301 18.2279 22.8182C18.2058 18.2727 19.9755 14.0455 23.183 10.9091ZM104.125 129.386H99.3464V72.0682C99.3464 68.5227 96.537 65.6137 93.0639 65.6137H15.4848C12.0339 65.6137 9.20242 68.5 9.20242 72.0682V129.409H4.42424C3.51727 129.409 2.76515 130.182 2.76515 131.114C2.76515 139.909 9.73334 147.068 18.2942 147.068H90.2767C98.8376 147.068 105.784 139.909 105.784 131.114C105.784 130.159 105.032 129.386 104.125 129.386ZM12.5206 72.0682C12.5206 70.3864 13.8479 69.0227 15.4848 69.0227H93.0639C94.7009 69.0227 96.0282 70.3864 96.0282 72.0682V129.409H12.5206V72.0682ZM90.2767 143.636H18.2942C12.1224 143.636 7.01242 138.909 6.21606 132.795H102.377C101.536 138.909 96.4264 143.636 90.2767 143.636Z" fill="#E65402"/>
<path d="M88.4406 75.1137H20.1082C19.2012 75.1137 18.4491 75.8864 18.4491 76.8182V121.614C18.4491 122.545 19.2012 123.318 20.1082 123.318H88.4627C89.3697 123.318 90.1218 122.545 90.1218 121.614V76.8182C90.1172 76.3637 89.9378 75.9295 89.6229 75.6102C89.308 75.2909 88.883 75.1124 88.4406 75.1137ZM86.7815 119.909H21.7673V78.5227H86.8036V119.909H86.7815Z" fill="#E65402"/>
<path d="M38.9776 96.2727C40.9846 94.2039 43.3708 92.5643 45.9983 91.4486C48.6258 90.3329 51.4424 89.7633 54.2854 89.7727C60.0812 89.7727 65.5009 92.0909 69.5933 96.2727C69.9251 96.6136 70.3454 96.7727 70.7657 96.7727C71.186 96.7727 71.6064 96.6136 71.9382 96.2727C72.5797 95.6136 72.5797 94.5227 71.9382 93.8636C69.6252 91.4755 66.8739 89.5829 63.8436 88.2954C60.8134 87.008 57.5645 86.3514 54.2854 86.3636C51.0063 86.3514 47.7575 87.008 44.7272 88.2954C41.697 89.5829 38.9456 91.4755 36.6327 93.8636C35.9912 94.5227 35.9912 95.6136 36.6327 96.2727C37.2742 96.9318 38.3361 96.9318 38.9776 96.2727Z" fill="#E65402"/>
<path d="M41.2339 98.5909C40.5924 99.25 40.5924 100.341 41.2339 101C41.8755 101.659 42.9373 101.659 43.5788 101C46.4199 98.0855 50.2706 96.4486 54.2855 96.4486C58.3003 96.4486 62.151 98.0855 64.9921 101C65.3239 101.341 65.7442 101.5 66.1646 101.5C66.5849 101.5 67.0052 101.341 67.337 101C67.9785 100.341 67.9785 99.25 67.337 98.5909C60.1255 91.1818 48.4233 91.1818 41.2339 98.5909Z" fill="#E65402"/>
<path d="M137.152 24.0909H91.7588C88.3964 24.0909 85.6754 26.8863 85.6754 30.3409V60.5C85.6754 61.4318 86.4276 62.2045 87.3345 62.2045C88.2415 62.2045 88.9936 61.4318 88.9936 60.5V30.3409C88.9936 28.7727 90.2324 27.5 91.7588 27.5H137.152C138.678 27.5 139.917 28.7727 139.917 30.3409V111.318C139.917 112.886 138.678 114.159 137.152 114.159H104.324C103.417 114.159 102.665 114.932 102.665 115.864C102.665 116.795 103.417 117.568 104.324 117.568H137.152C140.514 117.568 143.235 114.773 143.235 111.318V30.3409C143.235 26.9091 140.514 24.0909 137.152 24.0909Z" fill="black"/>
<path d="M103.018 98.6591C102.443 99.3863 102.554 100.477 103.284 101.045C106.449 103.662 110.393 105.083 114.455 105.068C124.343 105.068 132.395 96.7954 132.395 86.6363C132.395 76.4773 124.343 68.2045 114.455 68.2045C110.363 68.2045 106.492 69.5909 103.284 72.2273C102.962 72.5145 102.76 72.9183 102.721 73.3546C102.682 73.7908 102.808 74.2258 103.073 74.5687C103.339 74.9117 103.723 75.1361 104.145 75.1953C104.568 75.2545 104.996 75.1438 105.341 74.8863C107.919 72.7427 111.139 71.5787 114.455 71.5909C122.507 71.5909 129.077 78.3182 129.077 86.6136C129.077 94.9091 122.529 101.636 114.455 101.636C111.115 101.636 107.974 100.5 105.341 98.3409C104.988 98.0785 104.55 97.9652 104.118 98.0244C103.686 98.0836 103.292 98.3108 103.018 98.6591Z" fill="black"/>
</svg>
