<svg xmlns="http://www.w3.org/2000/svg" id="_x33_0" enable-background="new 0 0 64 64" height="512" viewBox="0 0 64 64" width="512"><g><circle cx="28" cy="16" r="1"/><circle cx="36" cy="16" r="1"/><path d="m37 21h-2c0 1.103-.897 2-2 2h-4v2h4c2.206 0 4-1.794 4-4z"/><path d="m60 9h-4c-1.445 0-2.654 1.027-2.937 2.389-1.281.826-2.063 2.23-2.063 3.782 0 .696.165 1.394.476 2.018l1.524 3.047v10.764h-16.171l-.459-2.422c2.392-.865 4.178-2.993 4.55-5.578h.08c2.206 0 4-1.794 4-4 0-.849-.27-1.634-.724-2.283l.51-2.549c.142-.708.214-1.435.214-2.159 0-6.071-4.938-11.009-11.009-11.009h-3.606c-3.576 0-6.757 2.083-8.19 5.335-2.002 1.363-3.195 3.615-3.195 6.04 0 .48.048.962.142 1.433l.582 2.909c-.454.649-.724 1.434-.724 2.283 0 2.206 1.794 4 4 4h.08c.372 2.585 2.158 4.713 4.55 5.578l-.459 2.422h-16.171v-10.764l1.524-3.048c.311-.623.476-1.321.476-2.017 0-1.552-.782-2.956-2.063-3.782-.283-1.362-1.492-2.389-2.937-2.389h-4c-1.654 0-3 1.346-3 3v22c0 3.859 3.14 7 7 7h7v18h7.615l2.316 2.316 1.776-1.784c.387-.387.964-.503 1.467-.292.502.209.826.696.826 1.238v2.522h6v-2.525c0-.541.322-1.024.821-1.232.51-.211 1.087-.098 1.475.292l1.772 1.782 2.317-2.317h7.615v-18h7c3.86 0 7-3.141 7-7v-22c0-1.654-1.346-3-3-3zm-4 2h4c.551 0 1 .449 1 1s-.449 1-1 1h-4c-.551 0-1-.449-1-1s.449-1 1-1zm-2.485 2.678c.539.797 1.452 1.322 2.485 1.322h4c.352 0 .686-.072 1-.184v4.184h-6.382l-1.353-2.705c-.173-.348-.265-.736-.265-1.124 0-.557.196-1.068.515-1.493zm-17.547 19.456c-.013.452-.023.903-.059 1.352l-1.469-.588zm-7.877 1.352c-.036-.449-.046-.901-.059-1.352l1.529.764zm-1.737 2.221-2.502-.545-.632-3.162h2.807c.026 1.246.135 2.483.327 3.707zm2.646.293v2.471c-.275-.966-.493-1.944-.653-2.932l.67-.268.365.729zm2.618 0-.737-1.475 1.119-.448 1.119.448-.737 1.475zm3.365-.729.67.268c-.16.989-.378 1.967-.653 2.933v-2.472h-.382zm2.991-3.271h2.807l-.632 3.162-2.502.545c.191-1.224.3-2.461.327-3.707zm-11.93-23.6-.013-.017.028-.028c1.519-1.519 3.538-2.355 5.686-2.355 4.07 0 7.429 2.975 7.96 6.972-2.73-3.14-6.69-4.972-10.916-4.972h-.789c-.694 0-1.355.143-1.956.4zm14.956 11.6v-4c1.103 0 2 .897 2 2s-.897 2-2 2zm-10.615-18h3.606c4.967 0 9.009 4.042 9.009 9.009 0 .593-.059 1.187-.175 1.767l-.306 1.528c-.221-.091-.451-.164-.689-.214l-.087-.958c-.473-5.207-4.771-9.132-9.998-9.132-2.602 0-5.048.991-6.924 2.782l-.663-.877c1.162-2.382 3.543-3.905 6.227-3.905zm-7.598 5.408 1.615 2.136c-.864.899-1.402 2.114-1.402 3.456v1c-.538 0-1.05.11-1.52.304l-.377-1.888c-.068-.342-.103-.692-.103-1.041 0-1.532.659-2.968 1.787-3.967zm-1.787 10.592c0-1.103.897-2 2-2v4c-1.103 0-2-.897-2-2zm4 3v-8c0-1.654 1.346-3 3-3h.789c4.081 0 7.875 1.979 10.211 5.309v5.691c0 2.757-2.243 5-5 5h-4c-2.757 0-5-2.243-5-5zm5 7h4c.139 0 .274-.013.41-.021l.466 2.464-2.876 1.439-2.877-1.438.466-2.464c.137.007.272.02.411.02zm-19.265-12.706-1.353 2.706h-6.382v-4.184c.314.112.648.184 1 .184h4c1.033 0 1.946-.525 2.485-1.322.319.425.515.936.515 1.493 0 .388-.092.776-.265 1.123zm-6.735-5.294h4c.551 0 1 .449 1 1s-.449 1-1 1h-4c-.551 0-1-.449-1-1s.449-1 1-1zm11 26v2h-7c-2.757 0-5-2.243-5-5v-13h6v10h-2v2h14.18l.968 4.838 4.633 1.01c.158.661.342 1.315.549 1.966-.231-.058-.449-.17-.625-.347l-1.772-1.782-4.248 4.247 1.747 1.741c.41.407.531 1.017.309 1.55-.198.471-.657.777-1.168.777h-2.573v6h2.526c.541 0 1.024.322 1.232.821.211.508.097 1.086-.293 1.475l-1.711 1.704h-3.754v-20zm24.072 21.484-.359-.361c-.964-.967-2.399-1.251-3.662-.727-1.246.519-2.051 1.728-2.051 3.079v.525h-2v-.522c0-1.352-.806-2.562-2.055-3.083-1.259-.525-2.694-.24-3.655.728l-.361.362-1.413-1.413.36-.358c.968-.964 1.253-2.401.728-3.661-.519-1.247-1.728-2.053-3.078-2.053h-.526v-2h.573c1.321 0 2.504-.788 3.014-2.008.536-1.288.244-2.755-.744-3.737l-.327-.326 1.413-1.413.359.361c.963.968 2.4 1.252 3.662.727 1.245-.519 2.05-1.728 2.05-3.079v-.525h2v.476c0 1.381.824 2.617 2.098 3.147 1.232.514 2.637.234 3.58-.712l.394-.396 1.413 1.413-.327.325c-.988.983-1.28 2.45-.743 3.739.508 1.22 1.691 2.008 3.012 2.008h.573v2h-.573c-1.321 0-2.504.788-3.014 2.008-.536 1.288-.244 2.755.744 3.737l.327.326zm16.928-19.484h-7v-2h-2v20h-3.754l-1.677-1.672c-.41-.407-.531-1.017-.309-1.55.197-.472.656-.778 1.167-.778h2.573v-6h-2.573c-.512 0-.97-.306-1.167-.777-.223-.534-.102-1.144.308-1.552l1.747-1.74-4.248-4.247-1.808 1.817c-.168.168-.376.275-.596.329.209-.656.396-1.316.555-1.983l4.633-1.01.969-4.837h14.18v-2h-2v-10h6v13c0 2.757-2.243 5-5 5z"/><path d="m32 47c-1.654 0-3 1.346-3 3s1.346 3 3 3 3-1.346 3-3-1.346-3-3-3zm0 4c-.551 0-1-.448-1-1s.449-1 1-1 1 .448 1 1-.449 1-1 1z" style="&#10;    fill: #e65402;&#10;"/><path d="m32 43c-3.86 0-7 3.141-7 7s3.14 7 7 7 7-3.141 7-7-3.14-7-7-7zm0 12c-2.757 0-5-2.243-5-5s2.243-5 5-5 5 2.243 5 5-2.243 5-5 5z" style="&#10;    fill: #e65402;&#10;"/></g></svg>