<svg width="503" height="487" viewBox="0 0 503 487" fill="none" xmlns="http://www.w3.org/2000/svg">
<path d="M216 335C216 342.911 218.346 350.645 222.741 357.223C227.136 363.801 233.384 368.928 240.693 371.955C248.002 374.983 256.044 375.775 263.804 374.231C271.563 372.688 278.69 368.878 284.284 363.284C289.878 357.69 293.688 350.563 295.231 342.804C296.775 335.044 295.983 327.002 292.955 319.693C289.928 312.384 284.801 306.136 278.223 301.741C271.645 297.346 263.911 295 256 295C245.391 295 235.217 299.214 227.716 306.716C220.214 314.217 216 324.391 216 335ZM280 335C280 339.747 278.592 344.387 275.955 348.334C273.318 352.28 269.57 355.357 265.184 357.173C260.799 358.99 255.973 359.465 251.318 358.539C246.662 357.613 242.386 355.327 239.029 351.971C235.673 348.614 233.387 344.338 232.461 339.682C231.535 335.027 232.01 330.201 233.827 325.816C235.643 321.43 238.72 317.682 242.666 315.045C246.613 312.408 251.253 311 256 311C262.365 311 268.47 313.529 272.971 318.029C277.471 322.53 280 328.635 280 335Z" fill="black"/>
<path d="M128 335C128 342.911 130.346 350.645 134.741 357.223C139.136 363.801 145.384 368.928 152.693 371.955C160.002 374.983 168.044 375.775 175.804 374.231C183.563 372.688 190.69 368.878 196.284 363.284C201.878 357.69 205.688 350.563 207.231 342.804C208.775 335.044 207.983 327.002 204.955 319.693C201.928 312.384 196.801 306.136 190.223 301.741C183.645 297.346 175.911 295 168 295C157.391 295 147.217 299.214 139.716 306.716C132.214 314.217 128 324.391 128 335ZM192 335C192 339.747 190.592 344.387 187.955 348.334C185.318 352.28 181.57 355.357 177.184 357.173C172.799 358.99 167.973 359.465 163.318 358.539C158.662 357.613 154.386 355.327 151.029 351.971C147.673 348.614 145.387 344.338 144.461 339.682C143.535 335.027 144.01 330.201 145.827 325.816C147.643 321.43 150.72 317.682 154.666 315.045C158.613 312.408 163.253 311 168 311C174.365 311 180.47 313.529 184.971 318.029C189.471 322.53 192 328.635 192 335Z" fill="black"/>
<path d="M304 335C304 342.911 306.346 350.645 310.741 357.223C315.136 363.801 321.384 368.928 328.693 371.955C336.002 374.983 344.044 375.775 351.804 374.231C359.563 372.688 366.69 368.878 372.284 363.284C377.878 357.69 381.688 350.563 383.231 342.804C384.775 335.044 383.983 327.002 380.955 319.693C377.928 312.384 372.801 306.136 366.223 301.741C359.645 297.346 351.911 295 344 295C333.391 295 323.217 299.214 315.716 306.716C308.214 314.217 304 324.391 304 335ZM368 335C368 339.747 366.592 344.387 363.955 348.334C361.318 352.28 357.57 355.357 353.184 357.173C348.799 358.99 343.973 359.465 339.318 358.539C334.662 357.613 330.386 355.327 327.029 351.971C323.673 348.614 321.387 344.338 320.461 339.682C319.535 335.027 320.01 330.201 321.827 325.816C323.643 321.43 326.72 317.682 330.666 315.045C334.613 312.408 339.253 311 344 311C350.365 311 356.47 313.529 360.971 318.029C365.471 322.53 368 328.635 368 335Z" fill="black"/>
<path d="M392 335C392 342.911 394.346 350.645 398.741 357.223C403.136 363.801 409.384 368.928 416.693 371.955C424.002 374.983 432.044 375.775 439.804 374.231C447.563 372.688 454.69 368.878 460.284 363.284C465.878 357.69 469.688 350.563 471.231 342.804C472.775 335.044 471.983 327.002 468.955 319.693C465.928 312.384 460.801 306.136 454.223 301.741C447.645 297.346 439.911 295 432 295C421.391 295 411.217 299.214 403.716 306.716C396.214 314.217 392 324.391 392 335ZM432 311C436.747 311 441.387 312.408 445.334 315.045C449.28 317.682 452.357 321.43 454.173 325.816C455.99 330.201 456.465 335.027 455.539 339.682C454.613 344.338 452.327 348.614 448.971 351.971C445.614 355.327 441.338 357.613 436.682 358.539C432.027 359.465 427.201 358.99 422.816 357.173C418.43 355.357 414.682 352.28 412.045 348.334C409.408 344.387 408 339.747 408 335C408 328.635 410.529 322.53 415.029 318.029C419.53 313.529 425.635 311 432 311Z" fill="black"/>
<path d="M40 335C40 342.911 42.346 350.645 46.7412 357.223C51.1365 363.801 57.3836 368.928 64.6927 371.955C72.0017 374.983 80.0444 375.775 87.8036 374.231C95.5629 372.688 102.69 368.878 108.284 363.284C113.878 357.69 117.688 350.563 119.231 342.804C120.775 335.044 119.983 327.002 116.955 319.693C113.928 312.384 108.801 306.136 102.223 301.741C95.6448 297.346 87.9113 295 80 295C69.3913 295 59.2172 299.214 51.7157 306.716C44.2143 314.217 40 324.391 40 335ZM104 335C104 339.747 102.592 344.387 99.9553 348.334C97.3181 352.28 93.5698 355.357 89.1844 357.173C84.799 358.99 79.9734 359.465 75.3178 358.539C70.6623 357.613 66.3859 355.327 63.0294 351.971C59.673 348.614 57.3872 344.338 56.4612 339.682C55.5351 335.027 56.0104 330.201 57.8269 325.816C59.6434 321.43 62.7195 317.682 66.6663 315.045C70.6131 312.408 75.2532 311 80 311C86.3652 311 92.4697 313.529 96.9706 318.029C101.471 322.53 104 328.635 104 335Z" fill="black"/>
<path d="M488 471V423C488 412.391 483.786 402.217 476.284 394.716C468.783 387.214 458.609 383 448 383H416C405.518 383.023 395.463 387.16 388 394.52C380.537 387.16 370.482 383.023 360 383H328C317.518 383.023 307.463 387.16 300 394.52C292.537 387.16 282.482 383.023 272 383H240C229.518 383.023 219.463 387.16 212 394.52C204.537 387.16 194.482 383.023 184 383H152C141.518 383.023 131.463 387.16 124 394.52C116.537 387.16 106.482 383.023 96 383H64C53.3913 383 43.2172 387.214 35.7157 394.716C28.2143 402.217 24 412.391 24 423V471C24 473.122 24.8429 475.157 26.3431 476.657C27.8434 478.157 29.8783 479 32 479H480C482.122 479 484.157 478.157 485.657 476.657C487.157 475.157 488 473.122 488 471ZM112 423V463H40V423C40 416.635 42.5286 410.53 47.0294 406.029C51.5303 401.529 57.6348 399 64 399H96C99.6514 399.052 103.243 399.937 106.501 401.586C109.759 403.236 112.597 405.607 114.8 408.52C112.966 413.128 112.016 418.04 112 423ZM200 423V463H128V423C128 416.635 130.529 410.53 135.029 406.029C139.53 401.529 145.635 399 152 399H184C187.651 399.052 191.243 399.937 194.501 401.586C197.759 403.236 200.597 405.607 202.8 408.52C200.966 413.128 200.016 418.04 200 423ZM296 463H216V423C216 416.635 218.529 410.53 223.029 406.029C227.53 401.529 233.635 399 240 399H253.36L248 415L256 447L264 415L258.64 399H272C278.365 399 284.47 401.529 288.971 406.029C293.471 410.53 296 416.635 296 423V463ZM384 463H312V423C311.984 418.04 311.034 413.128 309.2 408.52C311.403 405.607 314.241 403.236 317.499 401.586C320.757 399.937 324.349 399.052 328 399H360C366.365 399 372.47 401.529 376.971 406.029C381.471 410.53 384 416.635 384 423V463ZM472 463H400V423C400.007 418.012 399.057 413.069 397.2 408.44C399.411 405.542 402.253 403.186 405.511 401.55C408.768 399.915 412.355 399.043 416 399H448C454.365 399 460.47 401.529 464.971 406.029C469.471 410.53 472 416.635 472 423V463Z" fill="black"/>
<path d="M152 143H168V159H152V143Z" fill="#E65402"/>
<path d="M152 175H168V191H152V175Z" fill="#E65402"/>
<path d="M152 207H168V223H152V207Z" fill="#E65402"/>
<path d="M216 103H232V119H216V103Z" fill="#E65402"/>
<path d="M216 135H232V151H216V135Z" fill="#E65402"/>
<path d="M216 167H232V183H216V167Z" fill="#E65402"/>
<path d="M248 103H264V119H248V103Z" fill="#E65402"/>
<path d="M232 47H248V63H232V47Z" fill="#E65402"/>
<path d="M264 47H280V63H264V47Z" fill="#E65402"/>
<path d="M248 135H264V151H248V135Z" fill="#E65402"/>
<path d="M248 167H264V183H248V167Z" fill="#E65402"/>
<path d="M280 103H296V119H280V103Z" fill="#E65402"/>
<path d="M280 135H296V151H280V135Z" fill="#E65402"/>
<path d="M280 167H296V183H280V167Z" fill="#E65402"/>
<path d="M344 143H360V159H344V143Z" fill="#E65402"/>
<path d="M344 175H360V191H344V175Z" fill="#E65402"/>
<path d="M344 207H360V223H344V207Z" fill="#E65402"/>
<path d="M304 23H208C205.878 23 203.843 23.8429 202.343 25.3431C200.843 26.8434 200 28.8783 200 31V71H192C189.878 71 187.843 71.8429 186.343 73.3431C184.843 74.8434 184 76.8783 184 79V104.68L126.16 118.44C124.37 118.862 122.78 119.888 121.659 121.345C120.537 122.803 119.951 124.602 120 126.44V263H96V279H416V263H392V126.2C392.049 124.362 391.463 122.563 390.341 121.105C389.22 119.648 387.63 118.622 385.84 118.2L328 104.68V79C328 76.8783 327.157 74.8434 325.657 73.3431C324.157 71.8429 322.122 71 320 71H312V31C312 28.8783 311.157 26.8434 309.657 25.3431C308.157 23.8429 306.122 23 304 23ZM184 263H168V239H152V263H136V132.52L184 121.16V263ZM328 121.16L376 132.52V263H360V239H344V263H328V121.16ZM216 39H296V71H216V39ZM272 263H240V215H272V263ZM312 263H288V207C288 204.878 287.157 202.843 285.657 201.343C284.157 199.843 282.122 199 280 199H232C229.878 199 227.843 199.843 226.343 201.343C224.843 202.843 224 204.878 224 207V263H200V87H312V263Z" fill="#E65402"/>
</svg>
