<svg id="Layer_1" enable-background="new 0 0 500 500" viewBox="0 0 500 500" xmlns="http://www.w3.org/2000/svg"><path clip-rule="evenodd" d="m110.016 78.683c-3.485-.013-6.299-2.85-6.285-6.335s2.85-6.299 6.335-6.285l64.081.265c.411.002.762-.237.911-.619.15-.382.054-.796-.249-1.073l-41.643-38.173c-2.569-2.35-2.747-6.339-.396-8.909 2.351-2.569 6.339-2.747 8.909-.396l52.703 48.311c.187.171.405.256.658.256h11.472c.329 0 .612.148.8.418s.228.587.114.895c-1.853 4.997-6.303 16.928-7.465 18.913-.085.144-.188.25-.33.338l-4.373 2.692c-.007.004-.012.007-.019.012-2.422 1.565-4.839 3.288-7.233 5.149-.301.234-.684.273-1.026.106s-.546-.494-.546-.875v-13.404c0-.535-.435-.972-.97-.974zm147.097 329.378c2.056.4 4.051.97 5.97 1.694.45.17.947-.008 1.188-.425l24.785-42.929c.141-.245.17-.508.086-.777s-.258-.47-.513-.59c-9.604-4.55-20.143-7.457-31.252-8.355-.281-.023-.532.064-.739.255s-.314.434-.314.716v49.455c.001.47.327.866.789.956zm18.048 9.158c-.339-.312-.413-.804-.183-1.203l24.998-43.298c.141-.244.355-.402.63-.464.276-.062.536-.011.768.15 8.932 6.189 16.695 13.95 22.893 22.892.161.232.212.493.15.768-.062.276-.219.49-.464.631l-43.512 25.122c-.422.244-.952.142-1.253-.242-1.225-1.557-2.573-3.014-4.027-4.356zm10.504 17.004c-.126-.436.055-.888.449-1.115l44.159-25.495c.244-.141.508-.17.777-.086s.47.258.59.513c2.421 5.109 4.376 10.481 5.811 16.061.133.516-.176 1.046-.691 1.184l-48.895 13.101c-.512.137-1.041-.161-1.188-.67zm-71.284-.296c.042-.144.084-.289.129-.433l-44.808-25.87c-.244-.141-.508-.17-.777-.086s-.47.258-.59.513c-2.418 5.105-4.372 10.473-5.806 16.049-.133.517.176 1.046.692 1.184l48.843 13.087c.263.07.514.036.749-.103.234-.139.385-.343.45-.607.306-1.253.675-2.482 1.103-3.683.004-.017.009-.033.015-.051zm6.407-12.367c-.302.383-.83.484-1.253.241l-43.502-25.116c-.245-.141-.402-.355-.464-.631s-.011-.536.15-.768c6.196-8.937 13.958-16.696 22.886-22.882.232-.161.493-.212.768-.15s.489.219.63.463l24.992 43.288c.231.399.156.891-.183 1.204-1.453 1.341-2.8 2.795-4.024 4.351zm16.105-11.81c-.45.17-.947-.008-1.187-.425l-24.782-42.924c-.141-.244-.17-.508-.086-.777s.258-.47.513-.59c9.604-4.55 20.143-7.457 31.252-8.355.281-.023.532.064.739.255s.314.434.314.716v49.452c0 .471-.326.867-.789.957-2.057.398-4.054.967-5.974 1.691zm1.268-266.18c-25.937 10.903-35.045-13.331-41.479 15.959-1.634 7.438-1.768 12.923-.029 20.254 3.232 13.624 11.421 33.013 21.792 42.201 18.996 16.828 44.093 16.829 63.089 0 10.383-9.198 18.555-28.567 21.792-42.201 1.74-7.326 1.603-12.821-.03-20.254-6.432-29.289-15.544-5.056-41.479-15.959-4.301-1.808-8.08-4.428-11.088-7.945-.192-.224-.446-.341-.74-.341-.295 0-.549.117-.741.341-3.006 3.517-6.786 6.136-11.087 7.945zm5.494-37.313v-21.49c0-.299-.121-.557-.351-.748s-.505-.264-.799-.21c-21.353 3.898-40.447 13.085-56.072 28.428-19.466 19.115-37.299 51.074-27.886 78.157 5.163 14.853 18.35 24.955 34.263 24.26.015-.001.027-.001.042-.003l2.604-.227c.34-.03.619-.215.778-.518s.153-.637-.015-.934c-6.801-11.966-13.544-29.51-13.431-43.328.07-8.637 2.692-21.844 7.955-29.305 2.603-3.689 6.02-6.471 10.541-7.811 11.335-3.36 18.742 4.976 31.978-.588 6.406-2.693 9.409-7.483 10.384-14.487.007-.047.009-.087.009-.134zm46.082-11.454c.011.006.021.011.031.017l6.683 3.837c.011.006.02.012.031.018 27.977 17.458 56.371 58.858 44.95 91.718-2.649 7.621-7.392 13.952-13.487 18.237-7.034 4.946-14.816 6.672-23.451 5.83-.339-.033-.614-.22-.771-.522-.156-.302-.149-.635.019-.931 5.377-9.415 9.378-19.641 11.908-30.306 2.134-8.996 1.984-16.905.02-25.847-1.986-9.045-5.564-19.793-15.211-23.711-12.053-4.895-19.853 4.632-33.741-1.205-6.403-2.692-9.412-7.484-10.384-14.487-.006-.047-.009-.087-.009-.134v-32.55c0-.299.12-.557.35-.748.23-.192.505-.264.799-.21 11.309 2.065 22.104 5.648 32.263 10.994zm3.411-26.149c2.136 5.809 4.327 11.767 6.906 17.265.084.18.203.312.372.416l4.297 2.645c.007.004.012.007.018.012 2.421 1.565 4.839 3.288 7.233 5.149.301.234.684.273 1.026.106s.546-.494.546-.875v-12.869c0-.269.096-.501.287-.69.191-.19.423-.285.692-.284l75.389.312c3.485.014 6.322-2.801 6.335-6.285.014-3.485-2.801-6.322-6.285-6.335l-64.82-.268c-.409-.002-.758-.242-.905-.623-.147-.382-.051-.793.25-1.069l42.324-38.797c2.569-2.35 2.747-6.339.396-8.909-2.35-2.569-6.339-2.747-8.909-.396l-52.703 48.311c-.187.171-.405.256-.658.256h-11.474c-.329 0-.611.148-.799.417-.188.27-.228.586-.115.894zm-43.158-29.79c-20.234 0-26.057 19.874-32.368 37.087-.134.365-.049.75.226 1.025.275.274.66.359 1.025.225l2.231-.819c.006-.002.011-.004.017-.006 8.855-3.067 18.102-5.152 27.713-6.312.041-.005.076-.007.117-.007l2.083.001c.041 0 .076.002.116.007 9.61 1.16 18.854 3.245 27.709 6.311.006.002.011.004.017.006l2.229.819c.366.134.752.049 1.026-.227.275-.276.359-.662.223-1.027l-3.487-9.378c-5.812-15.142-12.439-27.705-28.877-27.705zm0 445.632c-19.003 0-34.731-14.018-37.411-32.277-.058-.393-.328-.697-.711-.8l-148.099-39.683c-3.412-.913-5.36-4.244-4.423-7.938.002-.009.004-.017.006-.026 7.864-35.079 25.148-66.587 49.052-91.726.188-.198.421-.299.694-.303s.509.093.701.285l34.112 34.112c4.082 4.082 10.284-2.119 6.202-6.202l-34.095-34.096c-.193-.193-.289-.43-.285-.704.004-.273.107-.507.306-.695 22.059-20.788 48.824-36.38 78.348-45.135.262-.078.515-.049.753.084s.395.335.466.598l12.455 46.484c1.491 5.573 9.953 3.306 8.463-2.262l-12.453-46.479c-.071-.264-.036-.517.105-.752.14-.234.346-.386.612-.449 29.596-7.016 60.795-7.018 90.393-.004.266.063.472.214.612.449.14.234.175.488.105.752l-12.454 46.478c-1.49 5.568 6.972 7.834 8.463 2.262l12.456-46.484c.071-.264.227-.465.466-.598.238-.133.491-.162.753-.084 29.514 8.75 56.3 24.346 78.352 45.128.199.188.302.421.306.695s-.092.51-.285.704l-34.096 34.095c-4.082 4.082 2.119 10.284 6.202 6.202l34.112-34.112c.193-.193.429-.289.702-.285.273.003.506.105.694.303 24.022 25.258 41.361 56.947 49.174 92.229.732 3.312-1.286 6.592-4.533 7.457l.004.016-148.099 39.683c-.384.103-.653.407-.711.8-2.683 18.26-18.411 32.278-37.414 32.278z" fill-rule="evenodd"/></svg>