<svg width="268" height="268" viewBox="0 0 268 268" fill="none" xmlns="http://www.w3.org/2000/svg">
<g filter="url(#filter0_d_12_160)">
<path d="M242.286 136.282C237.397 131.827 231.023 129.726 224.432 130.342C218.637 130.885 213.458 133.746 209.692 137.948C202.666 138.237 185.174 137.259 179.234 129.147C173.621 121.469 161.923 105.498 134.072 105.498C106.222 105.498 94.5243 121.469 88.9108 129.147C82.5005 137.911 63.1611 138.092 58.3443 137.984C54.5778 133.746 49.3989 130.885 43.6043 130.342C36.9768 129.726 30.6389 131.827 25.7497 136.282C20.8968 140.664 18.1081 146.929 18.1081 153.484C18.1081 165.399 27.0897 175.25 38.6427 176.626V225.229C38.6427 230.045 42.0832 234.065 46.6465 234.971V244.459C46.6465 247.936 49.5076 250.797 52.9843 250.797H58.2719C61.7486 250.797 64.6097 247.936 64.6097 244.459V235.188H203.426V244.459C203.426 247.936 206.288 250.797 209.764 250.797H215.052C218.529 250.797 221.39 247.936 221.39 244.459V234.971C225.953 234.065 229.394 230.009 229.394 225.229V176.626C240.91 175.286 249.892 165.399 249.892 153.484C249.892 146.929 247.103 140.664 242.286 136.282ZM203.426 154.39V213.314H64.5735V154.39C64.5735 154.281 64.5735 154.172 64.5735 154.1C65.1168 154.1 65.6962 154.136 66.3481 154.136C74.4968 154.136 92.0616 152.434 102.057 138.781C107.019 132.044 114.479 121.831 134.072 121.831C153.665 121.831 161.126 132.044 166.088 138.781C176.844 153.448 196.328 154.317 203.426 154.1C203.426 154.172 203.426 154.281 203.426 154.39ZM64.5735 218.746H203.39V229.756H64.5735V218.746ZM93.293 132.334C98.3632 125.381 108.975 110.93 134.072 110.93C159.17 110.93 169.745 125.381 174.852 132.334C181.733 141.75 197.994 143.271 205.998 143.416C205.853 143.742 204.441 147.4 204.151 148.595C198.899 148.812 180.067 148.631 170.47 135.557C165.218 128.386 156.418 116.363 134.072 116.363C111.727 116.363 102.926 128.386 97.6751 135.557C88.0054 148.776 68.9195 148.812 63.8492 148.595C63.4146 146.784 62.7989 145.046 62.0022 143.416C70.4043 143.235 86.4843 141.642 93.293 132.334ZM44.0751 225.229V174.055C44.0751 172.57 42.8076 171.339 41.3227 171.339C31.5081 171.339 23.5405 163.335 23.5405 153.484C23.5405 148.486 25.6773 143.67 29.3714 140.302C32.667 137.296 36.8681 135.666 41.2865 135.666C41.8659 135.666 42.4454 135.702 43.0611 135.738C52.0789 136.608 59.1411 144.756 59.1411 154.354V229.719H48.6022C46.1032 229.756 44.0751 227.728 44.0751 225.229ZM58.2357 245.365H52.9481C52.4411 245.365 52.0427 244.966 52.0427 244.459V235.188H59.1411V244.459C59.1411 244.966 58.7427 245.365 58.2357 245.365ZM215.016 245.365H209.728C209.221 245.365 208.823 244.966 208.823 244.459V235.188H215.921V244.459C215.921 244.966 215.523 245.365 215.016 245.365ZM226.641 171.339C225.156 171.339 223.925 172.57 223.925 174.055V225.229C223.925 227.728 221.897 229.756 219.398 229.756H208.859V216.066V154.39C208.859 152.325 209.257 150.37 209.837 148.486C209.982 148.052 210.09 147.617 210.271 147.183C212.77 140.99 218.311 136.39 224.903 135.775C229.973 135.304 234.862 136.897 238.592 140.302C242.286 143.67 244.423 148.486 244.423 153.484C244.459 163.335 236.456 171.339 226.641 171.339Z" fill="black"/>
<path d="M41.3589 144.43C36.3611 144.43 32.3049 148.486 32.3049 153.484C32.3049 158.482 36.3611 162.538 41.3589 162.538C46.3568 162.538 50.413 158.482 50.413 153.484C50.413 148.523 46.3568 144.43 41.3589 144.43ZM41.3589 157.142C39.367 157.142 37.7373 155.512 37.7373 153.521C37.7373 151.529 39.367 149.899 41.3589 149.899C43.3508 149.899 44.9805 151.529 44.9805 153.521C44.9805 155.512 43.387 157.142 41.3589 157.142ZM226.641 144.43C221.643 144.43 217.587 148.486 217.587 153.484C217.587 158.482 221.643 162.538 226.641 162.538C231.639 162.538 235.695 158.482 235.695 153.484C235.695 148.523 231.639 144.43 226.641 144.43ZM226.641 157.142C224.649 157.142 223.019 155.512 223.019 153.521C223.019 151.529 224.649 149.899 226.641 149.899C228.633 149.899 230.263 151.529 230.263 153.521C230.263 155.512 228.669 157.142 226.641 157.142Z" fill="black"/>
<path d="M191.692 204.259C193.193 204.259 194.409 203.043 194.409 201.543C194.409 200.043 193.193 198.827 191.692 198.827C190.192 198.827 188.976 200.043 188.976 201.543C188.976 203.043 190.192 204.259 191.692 204.259Z" fill="black"/>
<path d="M175.214 198.827C173.729 198.827 172.462 200.058 172.462 201.543C172.462 203.028 173.693 204.259 175.214 204.259C176.735 204.259 177.93 203.028 177.93 201.543C177.93 200.058 176.735 198.827 175.214 198.827Z" fill="black"/>
<path d="M158.736 204.259C160.236 204.259 161.452 203.043 161.452 201.543C161.452 200.043 160.236 198.827 158.736 198.827C157.236 198.827 156.019 200.043 156.019 201.543C156.019 203.043 157.236 204.259 158.736 204.259Z" fill="black"/>
<path d="M142.294 204.259C143.794 204.259 145.01 203.043 145.01 201.543C145.01 200.043 143.794 198.827 142.294 198.827C140.793 198.827 139.577 200.043 139.577 201.543C139.577 203.043 140.793 204.259 142.294 204.259Z" fill="black"/>
<path d="M125.815 204.259C127.315 204.259 128.531 203.043 128.531 201.543C128.531 200.043 127.315 198.827 125.815 198.827C124.315 198.827 123.099 200.043 123.099 201.543C123.099 203.043 124.315 204.259 125.815 204.259Z" fill="black"/>
<path d="M109.373 204.259C110.873 204.259 112.089 203.043 112.089 201.543C112.089 200.043 110.873 198.827 109.373 198.827C107.873 198.827 106.657 200.043 106.657 201.543C106.657 203.043 107.873 204.259 109.373 204.259Z" fill="black"/>
<path d="M92.8946 198.827C91.4097 198.827 90.1422 200.058 90.1422 201.543C90.1422 203.028 91.3735 204.259 92.8946 204.259C94.4157 204.259 95.6108 203.028 95.6108 201.543C95.6108 200.058 94.3794 198.827 92.8946 198.827Z" fill="black"/>
<path d="M76.4162 204.259C77.9164 204.259 79.1324 203.043 79.1324 201.543C79.1324 200.043 77.9164 198.827 76.4162 198.827C74.9161 198.827 73.7 200.043 73.7 201.543C73.7 203.043 74.9161 204.259 76.4162 204.259Z" fill="black"/>
<path d="M191.692 184.268C190.208 184.268 188.976 185.499 188.976 186.984C188.976 188.469 190.208 189.737 191.692 189.737C193.177 189.737 194.409 188.505 194.409 186.984C194.409 185.463 193.177 184.268 191.692 184.268ZM175.214 184.268C173.729 184.268 172.462 185.499 172.462 186.984C172.462 188.469 173.693 189.737 175.214 189.737C176.735 189.737 177.93 188.505 177.93 186.984C177.93 185.463 176.735 184.268 175.214 184.268ZM158.736 184.268C157.251 184.268 156.019 185.499 156.019 186.984C156.019 188.469 157.251 189.737 158.736 189.737C160.221 189.737 161.452 188.505 161.452 186.984C161.452 185.463 160.257 184.268 158.736 184.268ZM142.294 184.268C140.809 184.268 139.577 185.499 139.577 186.984C139.577 188.469 140.809 189.737 142.294 189.737C143.778 189.737 145.01 188.505 145.01 186.984C145.01 185.463 143.778 184.268 142.294 184.268ZM125.815 184.268C124.33 184.268 123.099 185.499 123.099 186.984C123.099 188.469 124.33 189.737 125.815 189.737C127.3 189.737 128.531 188.505 128.531 186.984C128.531 185.463 127.336 184.268 125.815 184.268ZM109.373 184.268C107.888 184.268 106.657 185.499 106.657 186.984C106.657 188.469 107.888 189.737 109.373 189.737C110.858 189.737 112.089 188.505 112.089 186.984C112.089 185.463 110.858 184.268 109.373 184.268ZM92.8946 184.268C91.4097 184.268 90.1422 185.499 90.1422 186.984C90.1422 188.469 91.3735 189.737 92.8946 189.737C94.4157 189.737 95.6108 188.505 95.6108 186.984C95.6108 185.463 94.3795 184.268 92.8946 184.268ZM76.4162 184.268C74.9314 184.268 73.7 185.499 73.7 186.984C73.7 188.469 74.9314 189.737 76.4162 189.737C77.9011 189.737 79.1324 188.505 79.1324 186.984C79.1324 185.463 77.9373 184.268 76.4162 184.268ZM191.692 169.673C190.208 169.673 188.976 170.904 188.976 172.425C188.976 173.946 190.208 175.142 191.692 175.142C193.177 175.142 194.409 173.91 194.409 172.425C194.409 170.941 193.177 169.673 191.692 169.673ZM175.214 169.673C173.729 169.673 172.462 170.904 172.462 172.425C172.462 173.946 173.693 175.142 175.214 175.142C176.735 175.142 177.93 173.91 177.93 172.425C177.93 170.941 176.735 169.673 175.214 169.673ZM158.736 169.673C157.251 169.673 156.019 170.904 156.019 172.425C156.019 173.946 157.251 175.142 158.736 175.142C160.221 175.142 161.452 173.91 161.452 172.425C161.452 170.941 160.257 169.673 158.736 169.673ZM142.294 169.673C140.809 169.673 139.577 170.904 139.577 172.425C139.577 173.946 140.809 175.142 142.294 175.142C143.778 175.142 145.01 173.91 145.01 172.425C145.01 170.941 143.778 169.673 142.294 169.673ZM125.815 169.673C124.33 169.673 123.099 170.904 123.099 172.425C123.099 173.946 124.33 175.142 125.815 175.142C127.3 175.142 128.531 173.91 128.531 172.425C128.531 170.941 127.336 169.673 125.815 169.673ZM109.373 169.673C107.888 169.673 106.657 170.904 106.657 172.425C106.657 173.946 107.888 175.142 109.373 175.142C110.858 175.142 112.089 173.91 112.089 172.425C112.089 170.941 110.858 169.673 109.373 169.673ZM92.8946 169.673C91.4097 169.673 90.1422 170.904 90.1422 172.425C90.1422 173.946 91.3735 175.142 92.8946 175.142C94.4157 175.142 95.6108 173.91 95.6108 172.425C95.6108 170.941 94.3795 169.673 92.8946 169.673ZM76.4162 169.673C74.9314 169.673 73.7 170.904 73.7 172.425C73.7 173.946 74.9314 175.142 76.4162 175.142C77.9011 175.142 79.1324 173.91 79.1324 172.425C79.1324 170.941 77.9373 169.673 76.4162 169.673Z" fill="black"/>
<path d="M191.692 160.583C193.193 160.583 194.409 159.367 194.409 157.866C194.409 156.366 193.193 155.15 191.692 155.15C190.192 155.15 188.976 156.366 188.976 157.866C188.976 159.367 190.192 160.583 191.692 160.583Z" fill="black"/>
<path d="M175.214 155.15C173.729 155.15 172.462 156.382 172.462 157.866C172.462 159.351 173.693 160.583 175.214 160.583C176.735 160.583 177.93 159.351 177.93 157.866C177.93 156.382 176.735 155.15 175.214 155.15Z" fill="black"/>
<path d="M158.736 160.583C160.236 160.583 161.452 159.367 161.452 157.866C161.452 156.366 160.236 155.15 158.736 155.15C157.236 155.15 156.019 156.366 156.019 157.866C156.019 159.367 157.236 160.583 158.736 160.583Z" fill="black"/>
<path d="M142.294 160.583C143.794 160.583 145.01 159.367 145.01 157.866C145.01 156.366 143.794 155.15 142.294 155.15C140.793 155.15 139.577 156.366 139.577 157.866C139.577 159.367 140.793 160.583 142.294 160.583Z" fill="black"/>
<path d="M125.815 160.583C127.315 160.583 128.531 159.367 128.531 157.866C128.531 156.366 127.315 155.15 125.815 155.15C124.315 155.15 123.099 156.366 123.099 157.866C123.099 159.367 124.315 160.583 125.815 160.583Z" fill="black"/>
<path d="M109.373 160.583C110.873 160.583 112.089 159.367 112.089 157.866C112.089 156.366 110.873 155.15 109.373 155.15C107.873 155.15 106.657 156.366 106.657 157.866C106.657 159.367 107.873 160.583 109.373 160.583Z" fill="black"/>
<path d="M92.8946 155.15C91.4097 155.15 90.1422 156.382 90.1422 157.866C90.1422 159.351 91.3735 160.583 92.8946 160.583C94.4157 160.583 95.6108 159.351 95.6108 157.866C95.6108 156.382 94.3794 155.15 92.8946 155.15Z" fill="black"/>
<path d="M76.4162 160.583C77.9164 160.583 79.1324 159.367 79.1324 157.866C79.1324 156.366 77.9164 155.15 76.4162 155.15C74.9161 155.15 73.7 156.366 73.7 157.866C73.7 159.367 74.9161 160.583 76.4162 160.583Z" fill="black"/>
<path d="M158.736 146.024C160.236 146.024 161.452 144.808 161.452 143.308C161.452 141.807 160.236 140.591 158.736 140.591C157.236 140.591 156.019 141.807 156.019 143.308C156.019 144.808 157.236 146.024 158.736 146.024Z" fill="black"/>
<path d="M142.294 146.024C143.794 146.024 145.01 144.808 145.01 143.308C145.01 141.807 143.794 140.591 142.294 140.591C140.793 140.591 139.577 141.807 139.577 143.308C139.577 144.808 140.793 146.024 142.294 146.024Z" fill="black"/>
<path d="M125.815 146.024C127.315 146.024 128.531 144.808 128.531 143.308C128.531 141.807 127.315 140.591 125.815 140.591C124.315 140.591 123.099 141.807 123.099 143.308C123.099 144.808 124.315 146.024 125.815 146.024Z" fill="black"/>
<path d="M109.373 146.024C110.873 146.024 112.089 144.808 112.089 143.308C112.089 141.807 110.873 140.591 109.373 140.591C107.873 140.591 106.657 141.807 106.657 143.308C106.657 144.808 107.873 146.024 109.373 146.024Z" fill="black"/>
<path d="M125.706 131.501C127.191 131.501 128.423 130.27 128.423 128.749C128.423 127.228 127.191 126.032 125.706 126.032C124.222 126.032 122.99 127.264 122.99 128.749C122.99 130.234 124.222 131.501 125.706 131.501ZM142.185 131.501C143.67 131.501 144.901 130.27 144.901 128.749C144.901 127.228 143.67 126.032 142.185 126.032C140.7 126.032 139.469 127.264 139.469 128.749C139.469 130.234 140.664 131.501 142.185 131.501ZM113.719 83.9492C114.552 86.8465 117.413 89.6351 122.773 88.5849C121.723 93.9449 124.511 96.8059 127.409 97.6389C128.061 97.82 128.712 97.9287 129.364 97.9287C130.415 97.9287 131.465 97.6751 132.406 97.1319C132.986 96.8059 133.493 96.4076 133.964 95.9368C134.435 96.4076 134.978 96.8059 135.521 97.1319C137.042 97.9649 138.744 98.1459 140.519 97.6389C143.416 96.8059 146.205 93.9449 145.155 88.5849C150.551 89.6351 153.376 86.8465 154.209 83.9492C154.716 82.2108 154.535 80.4724 153.702 78.9514C153.376 78.3719 152.977 77.8649 152.506 77.3941C152.977 76.9232 153.376 76.38 153.702 75.8368C154.535 74.3157 154.716 72.5773 154.209 70.8389C153.376 67.9416 150.478 65.153 145.155 66.2032C145.698 63.3422 145.155 61.2054 144.104 59.7205V58.6703C144.104 57.1854 142.873 55.9541 141.388 55.9541C140.591 55.9541 139.867 56.3162 139.36 56.8957C137.984 56.7146 136.68 56.9681 135.485 57.62C134.905 57.9459 134.398 58.3443 133.928 58.8151C133.457 58.3443 132.914 57.9459 132.37 57.62C131.211 56.9681 129.944 56.7146 128.64 56.8595C128.133 56.3162 127.445 55.9541 126.648 55.9541C125.163 55.9541 123.932 57.1854 123.932 58.6703V59.5032C122.773 61.0243 122.157 63.1973 122.737 66.2032C117.413 65.153 114.516 67.9416 113.683 70.8389C113.176 72.5773 113.357 74.3157 114.19 75.8368C114.516 76.4162 114.914 76.9232 115.385 77.3941C114.914 77.8649 114.516 78.4081 114.19 78.9514C113.357 80.4362 113.212 82.1746 113.719 83.9492ZM123.715 76.7059C123.461 75.6195 122.556 74.8589 121.505 74.6778C120.202 74.2795 119.26 73.7362 118.97 73.193C118.898 73.0481 118.789 72.7946 118.934 72.3238C119.224 71.3097 120.455 71.0924 122.519 71.7081C123.715 72.0341 125.055 72.6497 126.25 73.3741C127.336 74.0259 128.712 73.8449 129.618 72.9395C130.487 72.0341 130.632 70.6578 129.98 69.5714C129.219 68.4124 128.64 67.1087 128.314 65.8773C127.735 63.7768 127.916 62.5816 128.966 62.2919C129.437 62.147 129.654 62.2557 129.835 62.3281C130.415 62.6541 130.994 63.6319 131.356 65.0081C131.356 65.0443 131.392 65.1168 131.392 65.153C131.429 65.3341 131.501 65.5151 131.574 65.66C132.117 66.7827 133.384 67.3984 134.616 67.1087C135.702 66.8551 136.499 65.9859 136.68 64.8995C137.078 63.5957 137.622 62.6541 138.201 62.3281C138.382 62.2557 138.599 62.147 139.07 62.2919C140.084 62.5816 140.302 63.7768 139.686 65.8773C139.36 67.0724 138.744 68.4124 138.02 69.6076C137.368 70.6941 137.549 72.0703 138.455 72.9757C139.36 73.8449 140.736 73.9897 141.823 73.3378C142.982 72.5773 144.285 71.9978 145.517 71.6719C147.617 71.0562 148.812 71.2735 149.102 72.2876C149.247 72.7584 149.138 72.9757 149.066 73.1568C148.74 73.7362 147.762 74.3157 146.386 74.6778C146.35 74.6778 146.277 74.7141 146.241 74.7141C146.06 74.7865 145.879 74.8589 145.734 74.9314C144.611 75.5108 144.032 76.7422 144.322 77.9735C144.575 79.06 145.444 79.8568 146.531 80.0378C147.835 80.4362 148.776 80.9795 149.102 81.5589C149.175 81.7038 149.283 81.9573 149.138 82.4281C148.849 83.4422 147.654 83.6595 145.553 83.0438C144.358 82.7178 142.982 82.1022 141.823 81.3778C140.736 80.7259 139.36 80.907 138.491 81.7762C137.585 82.6816 137.441 84.0578 138.129 85.1443C138.889 86.3395 139.469 87.6432 139.795 88.8384C140.374 90.9389 140.193 92.1341 139.179 92.4238C138.744 92.5687 138.491 92.46 138.31 92.3876C137.73 92.0616 137.151 91.0838 136.789 89.7076C136.789 89.6351 136.752 89.5627 136.716 89.4903C136.68 89.3454 136.608 89.1643 136.535 89.0557C135.992 87.933 134.724 87.3173 133.493 87.607C132.406 87.8605 131.574 88.7659 131.429 89.8162C131.03 91.12 130.487 92.0616 129.944 92.3514C129.799 92.4238 129.545 92.5324 129.075 92.3876C128.061 92.0978 127.843 90.9027 128.459 88.8022C128.785 87.607 129.401 86.267 130.125 85.0719C130.777 83.9854 130.596 82.6092 129.726 81.7038C128.821 80.7984 127.445 80.6535 126.358 81.3416C125.163 82.1022 123.859 82.6816 122.664 83.0076C120.564 83.6232 119.369 83.3697 119.079 82.3919C118.934 81.9211 119.043 81.7038 119.115 81.5227C119.441 80.9432 120.419 80.3638 121.795 80.0016C121.868 79.9654 121.94 79.9654 121.976 79.9292C122.157 79.8568 122.338 79.7843 122.483 79.7119C123.461 79.1687 124.004 77.9011 123.715 76.7059Z" fill="black"/>
<path d="M133.964 80.0741C135.464 80.0741 136.68 78.858 136.68 77.3578C136.68 75.8577 135.464 74.6416 133.964 74.6416C132.464 74.6416 131.248 75.8577 131.248 77.3578C131.248 78.858 132.464 80.0741 133.964 80.0741Z" fill="black"/>
<path d="M161.271 99.8119C162.104 102.709 165.001 105.498 170.325 104.448C169.275 109.808 172.063 112.669 174.961 113.502C176.699 114.009 178.437 113.828 179.958 112.995C180.538 112.669 181.045 112.27 181.516 111.799C181.986 112.27 182.53 112.669 183.073 112.995C184.015 113.538 185.065 113.791 186.115 113.791C186.767 113.791 187.419 113.683 188.071 113.502C190.968 112.669 193.757 109.808 192.707 104.448C198.067 105.498 200.928 102.709 201.761 99.8119C202.268 98.0735 202.087 96.3351 201.254 94.814C200.928 94.2346 200.529 93.7276 200.058 93.2567C200.529 92.7859 200.928 92.2427 201.254 91.6995C202.087 90.1784 202.268 88.44 201.761 86.7016C200.928 83.8043 198.03 81.0157 192.707 82.0659C193.25 79.2049 192.706 77.0681 191.656 75.5832V74.5692C191.656 73.0843 190.425 71.853 188.94 71.853C188.143 71.853 187.419 72.2151 186.912 72.7946C185.572 72.6135 184.232 72.867 183.037 73.5189C182.457 73.8449 181.95 74.2432 181.479 74.714C181.009 74.2432 180.465 73.8449 179.922 73.5189C178.763 72.867 177.496 72.6497 176.192 72.7584C175.685 72.2151 174.997 71.853 174.2 71.853C172.715 71.853 171.484 73.0843 171.484 74.5692V75.4022C170.325 76.9232 169.709 79.0962 170.289 82.1022C164.965 81.0519 162.068 83.8405 161.235 86.7378C160.728 88.4762 160.909 90.2146 161.742 91.7357C162.068 92.3151 162.466 92.8222 162.937 93.293C162.466 93.7638 162.068 94.307 161.742 94.8503C160.945 96.3351 160.764 98.0735 161.271 99.8119ZM171.303 92.6411C171.049 91.5546 170.144 90.7578 169.094 90.5768C167.79 90.1784 166.848 89.6351 166.558 89.0919C166.486 88.947 166.377 88.6935 166.522 88.2227C166.812 87.2086 168.007 86.9913 170.108 87.607C171.303 87.933 172.643 88.5486 173.838 89.273C174.924 89.9249 176.301 89.7438 177.17 88.8746C178.075 87.9692 178.22 86.593 177.532 85.5065C176.771 84.3113 176.192 83.0076 175.866 81.8124C175.287 79.7119 175.468 78.5168 176.482 78.227C176.916 78.0822 177.17 78.1908 177.351 78.2632C177.93 78.5892 178.51 79.567 178.872 80.9432C178.908 81.0157 178.908 81.0881 178.944 81.1605C178.981 81.3054 179.053 81.4865 179.125 81.5951C179.669 82.7178 180.972 83.3335 182.168 83.0438C183.254 82.7903 184.087 81.8849 184.232 80.8346C184.63 79.5308 185.174 78.5892 185.717 78.2995C185.862 78.227 186.115 78.1184 186.586 78.2632C187.6 78.553 187.817 79.7481 187.202 81.8486C186.876 83.0438 186.26 84.3838 185.536 85.5789C184.884 86.6654 185.065 88.0416 185.97 88.947C186.876 89.8162 188.252 89.9611 189.338 89.3092C190.497 88.5486 191.801 87.9692 192.996 87.6432C195.097 87.0276 196.292 87.2449 196.582 88.2951C196.726 88.7659 196.618 88.9832 196.545 89.1643C196.219 89.7438 195.242 90.3232 193.865 90.6854C193.793 90.6854 193.757 90.7216 193.684 90.7216C193.503 90.794 193.286 90.8665 193.141 90.9389C192.055 91.5184 191.475 92.7859 191.765 93.9811C192.018 95.0676 192.924 95.8281 193.974 96.0092C195.278 96.4076 196.219 96.9508 196.545 97.494C196.618 97.6389 196.726 97.8924 196.582 98.3632C196.292 99.3773 195.097 99.5946 192.996 98.9789C191.801 98.653 190.461 98.0373 189.266 97.313C188.179 96.6611 186.803 96.8422 185.898 97.7476C184.992 98.653 184.848 100.029 185.536 101.116C186.296 102.275 186.876 103.578 187.202 104.81C187.781 106.91 187.6 108.105 186.55 108.395C186.115 108.54 185.862 108.431 185.681 108.359C185.101 108.033 184.522 107.055 184.159 105.679C184.159 105.643 184.123 105.57 184.123 105.534C184.087 105.353 183.978 105.136 183.906 105.027C183.326 103.904 182.095 103.325 180.864 103.615C179.777 103.868 178.981 104.737 178.799 105.824C178.401 107.128 177.858 108.069 177.278 108.395C177.134 108.468 176.88 108.576 176.409 108.431C175.395 108.142 175.178 106.946 175.794 104.846C176.119 103.651 176.735 102.311 177.459 101.116C178.111 100.029 177.93 98.653 177.025 97.7476C176.518 97.2405 175.83 96.987 175.105 96.987C174.598 96.987 174.091 97.1319 173.657 97.4216C172.498 98.1822 171.194 98.7616 169.963 99.0876C167.898 99.667 166.667 99.4859 166.377 98.4719C166.232 98.0011 166.341 97.7838 166.414 97.6027C166.739 97.0232 167.717 96.4438 169.094 96.0816C169.13 96.0816 169.202 96.0454 169.238 96.0454C169.419 95.973 169.601 95.9005 169.745 95.8281C170.977 95.1038 171.592 93.8362 171.303 92.6411Z" fill="black"/>
<path d="M181.516 96.0092C183.001 96.0092 184.232 94.7778 184.232 93.293C184.232 91.8081 183.037 90.5405 181.516 90.5405C179.995 90.5405 178.799 91.7719 178.799 93.2568C178.799 94.7416 180.031 96.0092 181.516 96.0092ZM208.823 111.655C209.656 114.552 212.517 117.341 217.877 116.29C216.826 121.65 219.615 124.511 222.512 125.344C224.287 125.851 225.989 125.67 227.51 124.837C228.09 124.511 228.597 124.113 229.068 123.642C229.538 124.113 230.082 124.511 230.625 124.837C231.566 125.381 232.617 125.634 233.667 125.634C234.319 125.634 234.971 125.525 235.623 125.344C238.52 124.511 241.309 121.65 240.258 116.29C245.618 117.341 248.479 114.552 249.312 111.655C249.819 109.916 249.638 108.178 248.805 106.657C248.479 106.077 248.081 105.57 247.61 105.099C248.081 104.629 248.479 104.085 248.805 103.542C249.638 102.021 249.819 100.283 249.312 98.5443C248.479 95.647 245.582 92.8584 240.258 93.9086C240.802 91.0476 240.258 88.9108 239.208 87.4259V86.5205C239.208 85.0357 237.977 83.8043 236.492 83.8043C235.731 83.8043 235.007 84.1303 234.536 84.6735C233.16 84.4924 231.82 84.7097 230.625 85.3978C230.045 85.7238 229.538 86.1222 229.068 86.593C228.597 86.1222 228.053 85.7238 227.51 85.3978C226.351 84.7459 225.048 84.4924 223.744 84.6373C223.237 84.1303 222.549 83.8043 221.788 83.8043C220.303 83.8043 219.072 85.0357 219.072 86.5205V87.2449C217.913 88.7659 217.297 90.9389 217.877 93.9449C212.517 92.8946 209.656 95.6832 208.823 98.5805C208.316 100.319 208.497 102.057 209.33 103.578C209.656 104.158 210.054 104.665 210.525 105.136C210.054 105.606 209.656 106.15 209.33 106.693C208.497 108.178 208.316 109.916 208.823 111.655ZM218.855 104.484C218.601 103.397 217.696 102.601 216.645 102.419C215.342 102.021 214.4 101.478 214.11 100.935C214.038 100.79 213.929 100.536 214.074 100.065C214.364 99.0513 215.559 98.834 217.659 99.4497C218.855 99.7757 220.195 100.391 221.39 101.116C222.476 101.768 223.852 101.586 224.758 100.681C225.663 99.7757 225.808 98.3995 225.12 97.313C224.396 96.1541 223.78 94.8503 223.454 93.6189C222.838 91.5184 223.056 90.3232 224.07 90.0335C224.504 89.8887 224.758 89.9973 224.939 90.0697C225.518 90.3957 226.098 91.3735 226.46 92.7497C226.46 92.8222 226.496 92.8584 226.496 92.9308C226.569 93.1119 226.641 93.3654 226.713 93.5103C227.293 94.5968 228.561 95.14 229.756 94.8503C230.806 94.5968 231.603 93.6914 231.784 92.6411C232.182 91.3373 232.725 90.3957 233.269 90.1059C233.414 90.0335 233.667 89.9249 234.138 90.0697C235.152 90.3595 235.369 91.5546 234.753 93.6551C234.391 94.8865 233.812 96.1903 233.088 97.3854C232.436 98.4719 232.617 99.8481 233.486 100.754C234.391 101.623 235.768 101.768 236.854 101.116C238.013 100.355 239.317 99.7757 240.548 99.4497C242.649 98.834 243.844 99.0513 244.134 100.065C244.278 100.536 244.17 100.754 244.097 100.935C243.771 101.514 242.794 102.094 241.417 102.456C241.381 102.456 241.309 102.492 241.272 102.492C241.128 102.528 240.946 102.601 240.802 102.673C239.643 103.216 239.027 104.484 239.317 105.715C239.57 106.802 240.439 107.635 241.526 107.816C242.83 108.214 243.771 108.757 244.097 109.337C244.17 109.482 244.278 109.735 244.134 110.206C243.844 111.22 242.649 111.437 240.548 110.822C239.353 110.496 237.977 109.88 236.818 109.156C235.731 108.504 234.355 108.649 233.45 109.554C232.581 110.459 232.399 111.836 233.088 112.922C233.812 114.081 234.428 115.385 234.753 116.616C235.369 118.717 235.152 119.912 234.138 120.202C233.667 120.346 233.45 120.238 233.269 120.165C232.689 119.839 232.11 118.862 231.748 117.485C231.748 117.413 231.711 117.377 231.711 117.304C231.639 117.087 231.566 116.87 231.458 116.725C230.842 115.638 229.611 115.095 228.416 115.421C227.365 115.711 226.569 116.58 226.424 117.63C226.025 118.934 225.482 119.876 224.939 120.165C224.794 120.238 224.541 120.346 224.07 120.202C223.056 119.912 222.838 118.717 223.454 116.616C223.816 115.385 224.396 114.081 225.12 112.886C225.772 111.799 225.591 110.423 224.722 109.518C223.816 108.612 222.404 108.468 221.353 109.156C220.195 109.916 218.891 110.496 217.659 110.822C215.559 111.437 214.364 111.184 214.074 110.206C213.929 109.735 214.038 109.518 214.11 109.337C214.436 108.757 215.414 108.178 216.79 107.816C216.863 107.816 216.899 107.779 216.971 107.743C217.152 107.707 217.333 107.635 217.442 107.562C218.565 106.946 219.144 105.679 218.855 104.484Z" fill="black"/>
<path d="M229.104 107.852C230.589 107.852 231.82 106.621 231.82 105.136C231.82 103.651 230.589 102.419 229.104 102.419C227.619 102.419 226.388 103.651 226.388 105.136C226.388 106.621 227.583 107.852 229.104 107.852ZM66.2032 99.8481C67.0362 102.745 69.9335 105.534 75.2573 104.484C74.207 109.844 76.9957 112.705 79.893 113.538C80.5448 113.719 81.1967 113.828 81.8486 113.828C82.8989 113.828 83.9492 113.574 84.8908 113.031C85.4703 112.705 85.9773 112.306 86.4481 111.836C86.9189 112.306 87.4621 112.705 88.0054 113.031C89.5265 113.864 91.2648 114.045 93.0032 113.538C95.9005 112.705 98.6892 109.844 97.6389 104.484C102.999 105.534 105.86 102.745 106.693 99.8481C107.2 98.1097 107.019 96.3714 106.186 94.8503C105.86 94.2708 105.462 93.7638 104.991 93.293C105.462 92.8222 105.86 92.2789 106.186 91.7357C107.019 90.2146 107.2 88.4762 106.693 86.7378C105.86 83.8405 102.963 81.0519 97.6389 82.1022C98.2184 79.2049 97.6389 77.0319 96.5162 75.547V74.714C96.5162 73.2292 95.2848 71.9978 93.8 71.9978C93.0394 71.9978 92.3513 72.3238 91.8443 72.867C90.4681 72.6859 89.1643 72.9395 87.9692 73.5913C87.3897 73.9173 86.8827 74.3157 86.4119 74.7865C85.9411 74.3157 85.3978 73.9173 84.8546 73.5913C83.6594 72.9395 82.3557 72.6859 81.0157 72.867C80.5086 72.36 79.8205 72.0341 79.06 72.0341C77.5751 72.0341 76.3438 73.2654 76.3438 74.7503V75.547C75.2211 77.0681 74.6416 79.2411 75.1848 82.1746C69.8248 81.1243 66.9638 83.913 66.1308 86.8103C65.6238 88.5486 65.8048 90.287 66.6378 91.8081C66.9638 92.3876 67.3621 92.8946 67.833 93.3654C67.3621 93.8362 66.9638 94.3795 66.6378 94.9227C65.8773 96.3351 65.6962 98.0735 66.2032 99.8481ZM74.8589 90.8665C74.714 90.7941 72.034 90.5043 71.4546 89.0557C71.3821 88.8746 71.2735 88.6573 71.4184 88.1865C71.7081 87.1724 72.9032 86.9551 75.0038 87.5708C76.1989 87.8968 77.5027 88.5124 78.6616 89.2368C79.7481 89.9249 81.1243 89.78 82.0297 88.8746C82.9351 88.0054 83.1162 86.593 82.4643 85.5065C81.74 84.3114 81.1243 82.9713 80.7984 81.74C80.2189 79.6395 80.4362 78.4443 81.4503 78.1546C81.9211 78.0459 82.1384 78.1184 82.3194 78.1908C82.8627 78.4805 83.4421 79.4222 83.8043 80.7259C83.9492 81.8124 84.7821 82.7178 85.8686 82.9713C87.1 83.2611 88.3675 82.6454 88.9108 81.5227C88.947 81.4141 89.0194 81.233 89.0557 81.0881C89.0919 81.0157 89.0919 80.9432 89.1281 80.8708C89.5265 79.4946 90.1059 78.5168 90.6492 78.1908C90.8303 78.1184 91.0476 78.0097 91.5184 78.1546C92.5324 78.4443 92.7497 79.6395 92.134 81.74C91.8081 82.9351 91.1924 84.2389 90.4681 85.3978C89.78 86.4481 89.9248 87.8605 90.8303 88.7659C91.6994 89.6714 93.1119 89.8162 94.1621 89.1643C95.3573 88.44 96.6973 87.8243 97.9286 87.4984C99.993 86.9189 101.224 87.1 101.514 88.1141C101.659 88.5849 101.55 88.8022 101.478 88.9832C101.188 89.5265 100.246 90.1059 98.9427 90.4681C97.8562 90.613 96.9508 91.4459 96.6973 92.5324C96.4076 93.7638 96.987 95.0313 98.1097 95.5746C98.2546 95.647 98.4357 95.7195 98.6167 95.7557C98.653 95.7557 98.7254 95.7919 98.7616 95.7919C100.138 96.1903 101.116 96.7697 101.442 97.313C101.514 97.4578 101.623 97.7114 101.478 98.1822C101.188 99.1962 99.993 99.4135 97.8924 98.7978C96.6973 98.4719 95.3935 97.8562 94.2346 97.1319C93.1843 96.4438 91.7719 96.5886 90.8665 97.4941C89.9611 98.3632 89.78 99.7757 90.4319 100.862C91.1562 102.057 91.7719 103.397 92.0978 104.629C92.6773 106.729 92.4962 107.924 91.4821 108.214C91.0476 108.359 90.794 108.25 90.613 108.178C90.0697 107.888 89.4903 106.91 89.0919 105.606C88.9108 104.52 88.114 103.651 87.0276 103.397C85.8324 103.108 84.5286 103.687 83.9854 104.81C83.913 104.955 83.8405 105.136 83.8043 105.317C83.8043 105.353 83.7681 105.425 83.7681 105.462C83.3697 106.838 82.7902 107.816 82.247 108.142C82.1021 108.214 81.8486 108.323 81.3778 108.178C80.3638 107.888 80.1465 106.693 80.7621 104.592C81.0881 103.397 81.7038 102.094 82.4281 100.935C83.1162 99.8843 82.9713 98.4719 82.0659 97.5665C81.1605 96.6611 79.7843 96.48 78.6978 97.1319C77.5027 97.8562 76.1627 98.4719 74.9313 98.7978C72.8308 99.3773 71.6357 99.16 71.3459 98.1822C71.2011 97.7114 71.3097 97.4941 71.3821 97.313C71.6719 96.7697 72.6135 96.1903 73.9173 95.8281C75.0038 95.6832 75.873 94.8865 76.1265 93.8C76.5248 92.7135 75.9454 91.4459 74.8589 90.8665Z" fill="black"/>
<path d="M86.4843 96.0092C87.9692 96.0092 89.2005 94.7778 89.2005 93.293C89.2005 91.8081 87.9692 90.5405 86.4843 90.5405C84.9994 90.5405 83.7681 91.7719 83.7681 93.2568C83.7681 94.7416 84.9632 96.0092 86.4843 96.0092ZM18.6513 111.655C19.4843 114.552 22.3454 117.341 27.7054 116.29C26.6551 121.65 29.4438 124.511 32.3411 125.344C34.1157 125.851 35.8178 125.67 37.3389 124.837C37.9184 124.511 38.4254 124.113 38.8962 123.642C39.367 124.113 39.9103 124.511 40.4535 124.837C41.3951 125.381 42.4454 125.634 43.4957 125.634C44.1476 125.634 44.7995 125.525 45.4513 125.344C48.3486 124.511 51.1373 121.65 50.087 116.29C55.447 117.341 58.3081 114.552 59.1411 111.655C59.6481 109.916 59.467 108.178 58.634 106.657C58.3081 106.077 57.9097 105.57 57.4389 105.099C57.9097 104.629 58.3081 104.085 58.634 103.542C59.467 102.021 59.6481 100.283 59.1411 98.5443C58.3081 95.647 55.4108 92.8584 50.087 93.9086C50.6665 91.0114 50.087 88.8384 48.9643 87.3535V86.5205C48.9643 85.0357 47.733 83.8043 46.2481 83.8043C45.4876 83.8043 44.7995 84.1303 44.2924 84.6373C42.9162 84.4562 41.6124 84.7097 40.4173 85.3616C39.8378 85.6876 39.3308 86.0859 38.86 86.5568C38.3892 86.0859 37.8459 85.6876 37.3027 85.3616C36.1076 84.7097 34.8038 84.4562 33.4638 84.6373C32.9567 84.1303 32.2686 83.8043 31.5081 83.8043C30.0232 83.8043 28.7919 85.0357 28.7919 86.5205V87.3173C27.6692 88.8384 27.0897 91.0114 27.633 93.9449C22.273 92.8946 19.4119 95.6832 18.5789 98.5805C18.0719 100.319 18.253 102.057 19.0859 103.578C19.4119 104.158 19.8103 104.665 20.2811 105.136C19.8103 105.606 19.4119 106.15 19.0859 106.693C18.2892 108.178 18.1443 109.916 18.6513 111.655ZM27.1984 102.673C27.0897 102.601 26.9086 102.564 26.7276 102.492C26.6913 102.492 26.6189 102.456 26.5827 102.456C25.2065 102.057 24.2286 101.478 23.9027 100.935C23.8303 100.79 23.7216 100.536 23.8665 100.065C24.1562 99.0513 25.3513 98.834 27.4519 99.4497C28.647 99.7757 29.9508 100.391 31.1097 101.116C32.1962 101.804 33.5724 101.659 34.4778 100.754C35.3832 99.8843 35.5281 98.4719 34.8762 97.3854C34.1519 96.1903 33.5362 94.8503 33.2103 93.6189C32.5946 91.5184 32.8119 90.3232 33.8259 90.0335C34.2605 89.8887 34.514 89.9973 34.6951 90.0697C35.2384 90.3595 35.7816 91.3011 36.18 92.6049C36.3249 93.6551 37.1216 94.5605 38.2081 94.8503C39.4032 95.1762 40.6708 94.5968 41.2503 93.5103C41.3227 93.3654 41.4313 93.1481 41.4676 92.9308C41.5038 92.8584 41.5038 92.8222 41.54 92.7497C41.9384 91.3735 42.5178 90.3957 43.0611 90.0697C43.2059 89.9973 43.4595 89.8887 43.9303 90.0335C44.9443 90.3232 45.1616 91.5184 44.5459 93.6189C44.22 94.8141 43.6043 96.1178 42.88 97.2768C42.1919 98.327 42.3367 99.7395 43.2422 100.645C44.1113 101.55 45.5238 101.731 46.6103 101.079C47.8054 100.355 49.1454 99.7395 50.3767 99.4135C52.4773 98.7978 53.6724 99.0151 53.9622 100.029C54.107 100.5 53.9984 100.717 53.9259 100.898C53.6362 101.442 52.6946 102.021 51.3908 102.383C50.3043 102.564 49.3989 103.361 49.1454 104.448C48.8557 105.679 49.4351 106.946 50.5578 107.49C50.6665 107.562 50.8476 107.635 51.0286 107.671C51.1011 107.707 51.1735 107.707 51.2097 107.743C52.5859 108.142 53.5638 108.721 53.8897 109.264C53.9622 109.409 54.0708 109.663 53.9259 110.134C53.6362 111.148 52.4411 111.365 50.3405 110.749C49.1454 110.423 47.8416 109.808 46.6827 109.083C45.6324 108.395 44.22 108.54 43.3146 109.445C42.4092 110.315 42.2281 111.727 42.9162 112.814C43.6405 114.009 44.2562 115.349 44.5822 116.58C45.1978 118.681 44.9805 119.876 43.9665 120.165C43.4957 120.31 43.2784 120.202 43.0973 120.129C42.554 119.839 41.9746 118.898 41.6124 117.594C41.4676 116.544 40.6708 115.638 39.6205 115.385C38.4254 115.095 37.1578 115.602 36.5784 116.689C36.5059 116.834 36.3973 117.087 36.3249 117.268C36.2886 117.341 36.2886 117.377 36.2524 117.449C35.854 118.825 35.2746 119.803 34.7313 120.129C34.5865 120.202 34.333 120.31 33.8622 120.165C32.8481 119.876 32.6308 118.681 33.2465 116.58C33.5724 115.385 34.1881 114.081 34.9124 112.922C35.6005 111.872 35.4557 110.459 34.5503 109.554C33.6449 108.649 32.2686 108.468 31.1822 109.156C29.987 109.88 28.647 110.496 27.4157 110.822C25.3513 111.401 24.1562 111.184 23.8665 110.17C23.7216 109.699 23.8303 109.482 23.9027 109.301C24.1924 108.757 25.1703 108.178 26.4378 107.816C27.5243 107.635 28.4297 106.838 28.6832 105.715C28.9367 104.484 28.3211 103.216 27.1984 102.673Z" fill="black"/>
<path d="M38.8962 107.852C40.3811 107.852 41.6124 106.621 41.6124 105.136C41.6124 103.651 40.3811 102.419 38.8962 102.419C37.4113 102.419 36.18 103.651 36.18 105.136C36.18 106.621 37.4113 107.852 38.8962 107.852ZM31.5443 78.9876C33.0292 78.9876 34.2605 77.7562 34.2605 76.2713V72.867C34.2605 71.3822 33.0292 70.1508 31.5443 70.1508C30.0594 70.1508 28.8281 71.3822 28.8281 72.867V76.2713C28.8281 77.7562 30.0594 78.9876 31.5443 78.9876ZM31.5443 38.0632C33.0292 38.0632 34.2605 36.8319 34.2605 35.347V31.9427C34.2605 30.4578 33.0292 29.2265 31.5443 29.2265C30.0594 29.2265 28.8281 30.4578 28.8281 31.9427V35.347C28.8281 36.8681 30.0594 38.0632 31.5443 38.0632ZM31.5443 51.7168C33.0292 51.7168 34.2605 50.4854 34.2605 49.0005V45.5962C34.2605 44.1113 33.0292 42.88 31.5443 42.88C30.0594 42.88 28.8281 44.1113 28.8281 45.5962V49.0005C28.8281 50.4854 30.0594 51.7168 31.5443 51.7168ZM31.5443 65.3341C33.0292 65.3341 34.2605 64.1027 34.2605 62.6178V59.2135C34.2605 57.7286 33.0292 56.4973 31.5443 56.4973C30.0594 56.4973 28.8281 57.7286 28.8281 59.2135V62.6178C28.8281 64.1389 30.0594 65.3341 31.5443 65.3341ZM31.5443 24.4459C33.0292 24.4459 34.2605 23.2146 34.2605 21.7297V19.9189C34.2605 18.434 33.0292 17.2027 31.5443 17.2027C30.0594 17.2027 28.8281 18.434 28.8281 19.9189V21.7297C28.8281 23.2146 30.0594 24.4459 31.5443 24.4459ZM46.2843 24.4459C47.7692 24.4459 49.0005 23.2146 49.0005 21.7297V19.9189C49.0005 18.434 47.7692 17.2027 46.2843 17.2027C44.7994 17.2027 43.5681 18.434 43.5681 19.9189V21.7297C43.5681 23.2146 44.7994 24.4459 46.2843 24.4459ZM46.2843 78.9876C47.7692 78.9876 49.0005 77.7562 49.0005 76.2713V72.867C49.0005 71.3822 47.7692 70.1508 46.2843 70.1508C44.7994 70.1508 43.5681 71.3822 43.5681 72.867V76.2713C43.5681 77.7562 44.7994 78.9876 46.2843 78.9876ZM46.2843 65.3341C47.7692 65.3341 49.0005 64.1027 49.0005 62.6178V59.2135C49.0005 57.7286 47.7692 56.4973 46.2843 56.4973C44.7994 56.4973 43.5681 57.7286 43.5681 59.2135V62.6178C43.5681 64.1389 44.7994 65.3341 46.2843 65.3341ZM46.2843 51.7168C47.7692 51.7168 49.0005 50.4854 49.0005 49.0005V45.5962C49.0005 44.1113 47.7692 42.88 46.2843 42.88C44.7994 42.88 43.5681 44.1113 43.5681 45.5962V49.0005C43.5681 50.4854 44.7994 51.7168 46.2843 51.7168ZM46.2843 38.0632C47.7692 38.0632 49.0005 36.8319 49.0005 35.347V31.9427C49.0005 30.4578 47.7692 29.2265 46.2843 29.2265C44.7994 29.2265 43.5681 30.4578 43.5681 31.9427V35.347C43.5681 36.8681 44.7994 38.0632 46.2843 38.0632ZM79.1324 66.7827C80.6173 66.7827 81.8486 65.5513 81.8486 64.0665V60.5535C81.8486 59.0686 80.6173 57.8373 79.1324 57.8373C77.6476 57.8373 76.4162 59.0686 76.4162 60.5535V64.0665C76.4162 65.5513 77.6113 66.7827 79.1324 66.7827ZM79.1324 52.6584C80.6173 52.6584 81.8486 51.427 81.8486 49.9422V46.4292C81.8486 44.9443 80.6173 43.713 79.1324 43.713C77.6476 43.713 76.4162 44.9443 76.4162 46.4292V49.9422C76.4162 51.4632 77.6113 52.6584 79.1324 52.6584ZM79.1324 38.5703C80.6173 38.5703 81.8486 37.3389 81.8486 35.854V32.3049C81.8486 30.82 80.6173 29.5886 79.1324 29.5886C77.6476 29.5886 76.4162 30.82 76.4162 32.3049V35.854C76.4162 37.3389 77.6113 38.5703 79.1324 38.5703ZM79.1324 24.4459C80.6173 24.4459 81.8486 23.2146 81.8486 21.7297V19.9189C81.8486 18.434 80.6173 17.2027 79.1324 17.2027C77.6476 17.2027 76.4162 18.434 76.4162 19.9189V21.7297C76.4162 23.2146 77.6113 24.4459 79.1324 24.4459ZM93.8362 24.4459C95.3211 24.4459 96.5524 23.2146 96.5524 21.7297V19.9189C96.5524 18.434 95.3211 17.2027 93.8362 17.2027C92.3513 17.2027 91.12 18.434 91.12 19.9189V21.7297C91.12 23.2146 92.3513 24.4459 93.8362 24.4459ZM93.8362 52.6584C95.3211 52.6584 96.5524 51.427 96.5524 49.9422V46.4292C96.5524 44.9443 95.3211 43.713 93.8362 43.713C92.3513 43.713 91.12 44.9443 91.12 46.4292V49.9422C91.12 51.427 92.3513 52.6584 93.8362 52.6584ZM93.8362 66.7827C95.3211 66.7827 96.5524 65.5513 96.5524 64.0665V60.5535C96.5524 59.0686 95.3211 57.8373 93.8362 57.8373C92.3513 57.8373 91.12 59.0686 91.12 60.5535V64.0665C91.12 65.5513 92.3513 66.7827 93.8362 66.7827ZM93.8362 38.5703C95.3211 38.5703 96.5524 37.3389 96.5524 35.854V32.3049C96.5524 30.82 95.3211 29.5886 93.8362 29.5886C92.3513 29.5886 91.12 30.82 91.12 32.3049V35.854C91.12 37.3389 92.3513 38.5703 93.8362 38.5703ZM126.684 51.3184C128.169 51.3184 129.401 50.087 129.401 48.6022V45.234C129.401 43.7492 128.169 42.5178 126.684 42.5178C125.199 42.5178 123.968 43.7492 123.968 45.234V48.6022C123.968 50.087 125.163 51.3184 126.684 51.3184ZM126.684 37.8822C128.169 37.8822 129.401 36.6508 129.401 35.1659V31.7978C129.401 30.313 128.169 29.0816 126.684 29.0816C125.199 29.0816 123.968 30.313 123.968 31.7978V35.1659C123.968 36.6508 125.163 37.8822 126.684 37.8822ZM126.684 24.4459C128.169 24.4459 129.401 23.2146 129.401 21.7297V19.9189C129.401 18.434 128.169 17.2027 126.684 17.2027C125.199 17.2027 123.968 18.434 123.968 19.9189V21.7297C123.968 23.2146 125.163 24.4459 126.684 24.4459ZM141.424 24.4459C142.909 24.4459 144.141 23.2146 144.141 21.7297V19.9189C144.141 18.434 142.909 17.2027 141.424 17.2027C139.939 17.2027 138.708 18.434 138.708 19.9189V21.7297C138.708 23.2146 139.903 24.4459 141.424 24.4459ZM141.424 37.8822C142.909 37.8822 144.141 36.6508 144.141 35.1659V31.7978C144.141 30.313 142.909 29.0816 141.424 29.0816C139.939 29.0816 138.708 30.313 138.708 31.7978V35.1659C138.708 36.6508 139.903 37.8822 141.424 37.8822ZM141.424 51.3184C142.909 51.3184 144.141 50.087 144.141 48.6022V45.234C144.141 43.7492 142.909 42.5178 141.424 42.5178C139.939 42.5178 138.708 43.7492 138.708 45.234V48.6022C138.708 50.087 139.903 51.3184 141.424 51.3184ZM174.236 66.7103C175.721 66.7103 176.952 65.4789 176.952 63.994V60.4811C176.952 58.9962 175.721 57.7649 174.236 57.7649C172.751 57.7649 171.52 58.9962 171.52 60.4811V63.994C171.52 65.4789 172.751 66.7103 174.236 66.7103ZM174.236 38.5341C175.721 38.5341 176.952 37.3027 176.952 35.8178V32.3049C176.952 30.82 175.721 29.5886 174.236 29.5886C172.751 29.5886 171.52 30.82 171.52 32.3049V35.8178C171.52 37.3027 172.751 38.5341 174.236 38.5341ZM174.236 52.6222C175.721 52.6222 176.952 51.3908 176.952 49.9059V46.393C176.952 44.9081 175.721 43.6768 174.236 43.6768C172.751 43.6768 171.52 44.9081 171.52 46.393V49.9059C171.52 51.3908 172.751 52.6222 174.236 52.6222ZM174.236 24.4459C175.721 24.4459 176.952 23.2146 176.952 21.7297V19.9189C176.952 18.434 175.721 17.2027 174.236 17.2027C172.751 17.2027 171.52 18.434 171.52 19.9189V21.7297C171.52 23.2146 172.751 24.4459 174.236 24.4459ZM188.976 24.4459C190.461 24.4459 191.692 23.2146 191.692 21.7297V19.9189C191.692 18.434 190.461 17.2027 188.976 17.2027C187.491 17.2027 186.26 18.434 186.26 19.9189V21.7297C186.26 23.2146 187.491 24.4459 188.976 24.4459ZM188.976 52.6222C190.461 52.6222 191.692 51.3908 191.692 49.9059V46.393C191.692 44.9081 190.461 43.6768 188.976 43.6768C187.491 43.6768 186.26 44.9081 186.26 46.393V49.9059C186.26 51.3908 187.491 52.6222 188.976 52.6222ZM188.976 66.7103C190.461 66.7103 191.692 65.4789 191.692 63.994V60.4811C191.692 58.9962 190.461 57.7649 188.976 57.7649C187.491 57.7649 186.26 58.9962 186.26 60.4811V63.994C186.26 65.4789 187.491 66.7103 188.976 66.7103ZM188.976 38.5341C190.461 38.5341 191.692 37.3027 191.692 35.8178V32.3049C191.692 30.82 190.461 29.5886 188.976 29.5886C187.491 29.5886 186.26 30.82 186.26 32.3049V35.8178C186.26 37.3027 187.491 38.5341 188.976 38.5341ZM221.788 51.7168C223.273 51.7168 224.504 50.4854 224.504 49.0005V45.5962C224.504 44.1113 223.273 42.88 221.788 42.88C220.303 42.88 219.072 44.1113 219.072 45.5962V49.0005C219.072 50.4854 220.303 51.7168 221.788 51.7168ZM221.788 38.0632C223.273 38.0632 224.504 36.8319 224.504 35.347V31.9427C224.504 30.4578 223.273 29.2265 221.788 29.2265C220.303 29.2265 219.072 30.4578 219.072 31.9427V35.347C219.072 36.8681 220.303 38.0632 221.788 38.0632ZM221.788 65.3341C223.273 65.3341 224.504 64.1027 224.504 62.6178V59.2135C224.504 57.7286 223.273 56.4973 221.788 56.4973C220.303 56.4973 219.072 57.7286 219.072 59.2135V62.6178C219.072 64.1389 220.303 65.3341 221.788 65.3341ZM221.788 78.9876C223.273 78.9876 224.504 77.7562 224.504 76.2713V72.867C224.504 71.3822 223.273 70.1508 221.788 70.1508C220.303 70.1508 219.072 71.3822 219.072 72.867V76.2713C219.072 77.7562 220.303 78.9876 221.788 78.9876ZM221.788 24.4459C223.273 24.4459 224.504 23.2146 224.504 21.7297V19.9189C224.504 18.434 223.273 17.2027 221.788 17.2027C220.303 17.2027 219.072 18.434 219.072 19.9189V21.7297C219.072 23.2146 220.303 24.4459 221.788 24.4459ZM236.528 24.4459C238.013 24.4459 239.244 23.2146 239.244 21.7297V19.9189C239.244 18.434 238.013 17.2027 236.528 17.2027C235.043 17.2027 233.812 18.434 233.812 19.9189V21.7297C233.812 23.2146 235.043 24.4459 236.528 24.4459ZM236.528 51.7168C238.013 51.7168 239.244 50.4854 239.244 49.0005V45.5962C239.244 44.1113 238.013 42.88 236.528 42.88C235.043 42.88 233.812 44.1113 233.812 45.5962V49.0005C233.812 50.4854 235.043 51.7168 236.528 51.7168ZM236.528 38.0632C238.013 38.0632 239.244 36.8319 239.244 35.347V31.9427C239.244 30.4578 238.013 29.2265 236.528 29.2265C235.043 29.2265 233.812 30.4578 233.812 31.9427V35.347C233.812 36.8681 235.043 38.0632 236.528 38.0632ZM236.528 65.3341C238.013 65.3341 239.244 64.1027 239.244 62.6178V59.2135C239.244 57.7286 238.013 56.4973 236.528 56.4973C235.043 56.4973 233.812 57.7286 233.812 59.2135V62.6178C233.812 64.1389 235.043 65.3341 236.528 65.3341ZM236.528 78.9876C238.013 78.9876 239.244 77.7562 239.244 76.2713V72.867C239.244 71.3822 238.013 70.1508 236.528 70.1508C235.043 70.1508 233.812 71.3822 233.812 72.867V76.2713C233.812 77.7562 235.043 78.9876 236.528 78.9876Z" fill="#E65402"/>
</g>
<defs>
<filter id="filter0_d_12_160" x="-4" y="0" width="276" height="276" filterUnits="userSpaceOnUse" color-interpolation-filters="sRGB">
<feFlood flood-opacity="0" result="BackgroundImageFix"/>
<feColorMatrix in="SourceAlpha" type="matrix" values="0 0 0 0 0 0 0 0 0 0 0 0 0 0 0 0 0 0 127 0" result="hardAlpha"/>
<feOffset dy="4"/>
<feGaussianBlur stdDeviation="2"/>
<feComposite in2="hardAlpha" operator="out"/>
<feColorMatrix type="matrix" values="0 0 0 0 0 0 0 0 0 0 0 0 0 0 0 0 0 0 0.25 0"/>
<feBlend mode="normal" in2="BackgroundImageFix" result="effect1_dropShadow_12_160"/>
<feBlend mode="normal" in="SourceGraphic" in2="effect1_dropShadow_12_160" result="shape"/>
</filter>
</defs>
</svg>
