<svg width="500" height="500" viewBox="0 0 500 500" fill="none" xmlns="http://www.w3.org/2000/svg">
<path d="M478.281 93.75L267.344 46.875C266.21 46.6413 265.04 46.6413 263.906 46.875L52.9688 93.75C51.2064 94.1469 49.636 95.1422 48.525 96.5666C47.4139 97.9911 46.8309 99.7565 46.875 101.562V268.594L35.5469 274.297C34.2585 274.946 33.175 275.939 32.4166 277.167C31.6582 278.394 31.2544 279.807 31.25 281.25V320.312C31.25 322.384 32.0731 324.372 33.5382 325.837C35.0034 327.302 36.9905 328.125 39.0625 328.125H70.3125C72.3845 328.125 74.3716 327.302 75.8368 325.837C77.3019 324.372 78.125 322.384 78.125 320.312V281.25C78.1206 279.807 77.7168 278.394 76.9584 277.167C76.2 275.939 75.1165 274.946 73.8281 274.297L62.5 268.594V111.328L154.922 131.797L140.625 209.531C140.587 209.999 140.587 210.469 140.625 210.937V257.812C140.625 259.884 141.448 261.872 142.913 263.337C144.378 264.802 146.365 265.625 148.437 265.625H382.812C384.884 265.625 386.872 264.802 388.337 263.337C389.802 261.872 390.625 259.884 390.625 257.812V210.937C390.663 210.469 390.663 209.999 390.625 209.531L376.484 131.797L478.047 109.219C480.119 109.219 482.106 108.396 483.571 106.93C485.036 105.465 485.859 103.478 485.859 101.406C485.859 99.3342 485.036 97.3471 483.571 95.8819C482.106 94.4168 480.119 93.5937 478.047 93.5937L478.281 93.75ZM62.5 312.5H46.875V286.094L54.6875 282.187L62.5 286.094V312.5ZM156.25 250V218.75H375V250H156.25ZM373.437 203.125H157.812L170.156 135.234L263.906 156.094L265.625 156.25H267.344L361.094 135.391L373.437 203.125ZM265.625 140.625L90.7031 101.562L265.625 62.5L440.547 101.562L265.625 140.625Z" fill="#E65402"/>
<path d="M171.875 421.875H359.375V437.5H171.875V421.875Z" fill="#333333"/>
<path d="M437.5 421.875H453.125V437.5H437.5V421.875Z" fill="#333333"/>
<path d="M476.562 281.25H148.438C137.58 281.264 126.972 284.51 117.965 290.573C108.959 296.637 101.961 305.245 97.8636 315.3C93.7662 325.355 92.7546 336.402 94.9577 347.034C97.1608 357.666 102.479 367.401 110.234 375H70.3125C55.8085 375 41.8985 380.762 31.6426 391.018C21.3867 401.273 15.625 415.183 15.625 429.688C15.625 444.192 21.3867 458.102 31.6426 468.357C41.8985 478.613 55.8085 484.375 70.3125 484.375H476.562C478.635 484.375 480.622 483.552 482.087 482.087C483.552 480.622 484.375 478.635 484.375 476.562V289.062C484.375 286.99 483.552 285.003 482.087 283.538C480.622 282.073 478.635 281.25 476.562 281.25ZM468.75 296.875V375H226.562C216.202 375 206.267 370.884 198.941 363.559C191.616 356.233 187.5 346.298 187.5 335.938C187.5 325.577 191.616 315.642 198.941 308.316C206.267 300.991 216.202 296.875 226.562 296.875H468.75ZM109.375 335.938C109.375 325.577 113.491 315.642 120.816 308.316C128.142 300.991 138.077 296.875 148.438 296.875H188.359C183.163 301.967 179.034 308.045 176.215 314.752C173.397 321.459 171.945 328.662 171.945 335.938C171.945 343.213 173.397 350.416 176.215 357.123C179.034 363.83 183.163 369.908 188.359 375H148.438C143.308 375 138.228 373.99 133.489 372.027C128.75 370.063 124.443 367.186 120.816 363.559C117.189 359.932 114.312 355.625 112.348 350.886C110.385 346.147 109.375 341.067 109.375 335.938ZM70.3125 468.75C59.9525 468.75 50.0168 464.634 42.6911 457.309C35.3655 449.983 31.25 440.048 31.25 429.688C31.25 419.327 35.3655 409.392 42.6911 402.066C50.0168 394.741 59.9525 390.625 70.3125 390.625H141.484C136.288 395.717 132.159 401.795 129.34 408.502C126.522 415.209 125.07 422.412 125.07 429.688C125.07 436.963 126.522 444.166 129.34 450.873C132.159 457.58 136.288 463.658 141.484 468.75H70.3125ZM468.75 468.75H179.688C169.327 468.75 159.392 464.634 152.066 457.309C144.741 449.983 140.625 440.048 140.625 429.688C140.625 419.327 144.741 409.392 152.066 402.066C159.392 394.741 169.327 390.625 179.688 390.625H468.75V468.75Z" fill="#333333"/>
<path d="M218.75 328.125H421.875V343.75H218.75V328.125Z" fill="#333333"/>
<path d="M406.25 421.875H421.875V437.5H406.25V421.875Z" fill="#333333"/>
<path d="M375 421.875H390.625V437.5H375V421.875Z" fill="#333333"/>
<path d="M437.5 328.125H453.125V343.75H437.5V328.125Z" fill="#333333"/>
<path d="M257.812 171.875H273.438V187.5H257.812V171.875Z" fill="#E65402"/>
<path d="M289.062 171.875H304.688V187.5H289.062V171.875Z" fill="#E65402"/>
<path d="M226.562 171.875H242.188V187.5H226.562V171.875Z" fill="#E65402"/>
</svg>
