<svg xmlns="http://www.w3.org/2000/svg" enable-background="new 0 0 73 73" viewBox="0 0 73 73" id="event-budget">
  <path d="M55.3999023,58.1044922v-0.4199219c1.4499512-0.1699219,2.1101074-1.109375,2.1101074-2
			c0-1.3398438-1.0200195-1.7597656-2.1101074-2.0292969v-1.7109375c0.3500977,0.0302734,0.6801758,0.1005859,0.9899902,0.2109375
			c0.4200172,0.1661606,0.8500977-0.1143913,0.8500977-0.5800781c0-0.2900391-0.1501465-0.5107422-0.420166-0.6005859
			c-0.4199219-0.1601563-0.8999023-0.2597656-1.4199219-0.2998047v-0.4003906c0-0.2998047-0.2399902-0.5292969-0.5400391-0.5292969
			c-0.2885513,0-0.5200195,0.2289963-0.5200195,0.5292969v0.4199219c-1.1030846,0.1578598-2.0400391,0.9354706-2.0400391,2.0800781
			c0,1.2399788,0.9572182,1.6564331,2.0400391,1.9902344v1.640625c-0.540863-0.0630341-0.9152603-0.208847-1.1999512-0.3300781
			c-0.3573723-0.1506653-0.687191,0.0018959-0.8312454,0.2844429c-0.1508026,0.2957954-0.0489693,0.6423302,0.2013626,0.8151665
			c0.1561852,0.1188164,0.8856812,0.4175034,1.829834,0.5097656c0,0.1001625,0,0.5200844,0,0.4199219
			c0,0.3007813,0.2202148,0.5205078,0.5200195,0.5205078C55.1699219,58.625,55.3999023,58.4052734,55.3999023,58.1044922z
			 M56.1799316,55.625c0,0.2998047-0.0900879,0.6494141-0.7800293,0.7597656v-1.3496094
			C55.8498535,55.1748047,56.1799316,55.3349609,56.1799316,55.625z M54.3398438,52.0048828V53.375
			c-0.5200195-0.1699219-0.7099609-0.3603516-0.7099609-0.6601563
			C53.6298828,52.2851563,54.0200195,52.0947266,54.3398438,52.0048828z"></path>
  <path d="M60.6599121,36.7646484c0.6899414-1.75,1.1599121-3.6201172,1.2800293-5.1201172
			C62,30.9150391,61.7099609,30.2148438,61.1499023,29.7646484c-3.1499023-2.5400391-5-1.7802734-6.5698242-0.8701172
			c0-1.4027729,0-9.767828,0-10.8798828c0-3.25-2.6501465-5.8994141-5.9001465-5.8994141h-2.8200684v-1.5
			c0-2.0400391-1.6599121-3.7001953-3.6999512-3.7001953h-0.1101074c-2.0397949,0-3.6999512,1.6601563-3.6999512,3.7001953v1.5
			H19.0600586v-1.5c0-2.0400391-1.6601563-3.7001953-3.7001953-3.7001953h-0.119873
			c-2.0300293,0-3.6901855,1.6601563-3.6901855,3.7001953v1.5H8.7299805c-3.25,0-5.8999023,2.6494141-5.8999023,5.8994141
			c0,9.7503242,0,28.6611748,0,38.4296875c0,3.25,2.6499023,5.9003906,5.8999023,5.9003906h32.9099121
			C43.6699219,64.6044922,47,66.0849609,50.7399902,66.0849609H59c6.1098633,0,11.119873-3.9404297,11.1699219-8.7802734
			c0,0,0-0.0996094,0-0.1103516c0-4.4697266-4.0800781-11.8496094-8.1098633-16.4296875
			C63.5646896,39.4195518,62.6981392,36.884079,60.6599121,36.7646484z M48.5200195,54.1845703
			c0-3.4693871,2.8222923-6.359375,6.3498535-6.359375c3.5100098,0,6.3601074,2.859375,6.3601074,6.359375
			c0,3.5097656-2.8500977,6.3603516-6.3601074,6.3603516C51.2031517,60.5449219,48.5200195,57.5385437,48.5200195,54.1845703z
			 M55.2099609,30.8447266c1.5200195-0.9101563,2.3500977-1.4101563,4.6899414,0.4804688
			c0.0400391,0.0292969,0.0600586,0.0898438,0.0500488,0.1494141c-0.119873,1.5097656-0.6799316,3.5205078-1.4399414,5.2802734
			c-0.230648,0-6.3016396,0-5.9299316,0h-1.3500977c-0.6000977-1.3896484-1.0800781-2.9599609-1.3100586-4.3300781
			c-0.0435982-0.0850716,0.0575752-0.2258415,0.2199707-0.2099609
			C52.1759796,32.4094124,53.5054817,31.8686619,55.2099609,30.8447266z M40.3498535,10.6152344
			c0-0.9306641,0.7600098-1.7001953,1.6999512-1.7001953h0.1101074c0.9399414,0,1.6999512,0.7695313,1.6999512,1.7001953
			c0,1.5539474,0,3.4435291,0,5c0,0.9296875-0.7600098,1.6894531-1.6999512,1.6894531h-0.1101074
			c-0.9399414,0-1.6999512-0.7597656-1.6999512-1.6894531C40.3498535,13.9940453,40.3498535,12.5272322,40.3498535,10.6152344z
			 M13.5498047,10.6152344c0-0.9306641,0.7602539-1.7001953,1.6901855-1.7001953h0.119873
			c0.9399414,0,1.7001953,0.7695313,1.7001953,1.7001953c0,0.3794231,0,5.1026859,0,5
			c0,0.9296875-0.7602539,1.6894531-1.7001953,1.6894531h-0.119873c-0.9299316,0-1.6901855-0.7597656-1.6901855-1.6894531
			C13.5498047,15.2038641,13.5498047,10.4790621,13.5498047,10.6152344z M8.7299805,60.3447266
			c-2.1499023,0-3.8999023-1.75-3.8999023-3.9003906V24.1044922h47.75v5.8505859
			c-0.630127,0.2392578-1.3300781,0.359375-2.2302246,0.2695313c-1.4656258-0.1451817-2.6533813,1.1234531-2.3999023,2.5400391
			c0.2199707,1.2802734,0.619873,2.6796875,1.119873,4c-2.0161057,0.1345444-2.89888,2.6203537-1.3898926,4
			c-4.0200195,4.5800781-8.0998535,11.9599609-8.0998535,16.4296875c0.0117531,0.1000252-0.0819473,1.5130005,0.7197266,3.1503906
			H8.7299805z"></path>
  <path d="M36.2199707,44.6650391l4.4799805-4.3798828c1.2438431-1.1815224,0.5560913-3.3124542-1.1501465-3.5507813
			l-6.1999512-0.8994141l-2.7800293-5.6201172c-0.7517204-1.5464573-2.9773235-1.5473022-3.7299805,0l-2.7797852,5.6201172
			l-6.2001953,0.8994141c-1.7053623,0.2382011-2.3883257,2.3639297-1.1599121,3.5507813l4.4899902,4.3798828l-1.0600586,6.1796875
			c-0.2874222,1.7483101,1.5562706,2.9980965,3.0300293,2.1904297L28.6999512,50.125L34.25,53.0351563
			c1.5224762,0.81464,3.3122368-0.4755821,3.0297852-2.1904297L36.2199707,44.6650391z"></path>
</svg>
