<svg width="512" height="512" viewBox="0 0 512 512" fill="none" xmlns="http://www.w3.org/2000/svg">
<path d="M108.012 174.836C88.834 174.836 73.231 190.786 73.231 210.39C73.231 229.994 88.831 245.943 108.012 245.943C127.193 245.943 142.792 229.994 142.792 210.39C142.792 190.786 127.189 174.836 108.012 174.836ZM108.012 233.943C95.451 233.943 85.231 223.377 85.231 210.39C85.231 197.403 95.451 186.836 108.012 186.836C120.573 186.836 130.792 197.402 130.792 210.39C130.792 223.378 120.573 233.943 108.012 233.943Z" fill="#E65402"/>
<path d="M176.661 240.489C180.177 231.005 181.659 220.889 181.012 210.795C179.8 192.392 171.968 175.049 158.963 161.971C152.279 155.267 144.339 149.948 135.596 146.319C126.853 142.69 117.479 140.821 108.013 140.821C98.5467 140.821 89.1734 142.69 80.4304 146.319C71.6874 149.948 63.7465 155.267 57.063 161.971C44.0558 175.049 36.2228 192.394 35.012 210.8C34.3648 220.894 35.8472 231.01 39.363 240.494C43.0532 250.327 48.7055 259.307 55.976 266.886L103.637 317.653C104.198 318.251 104.876 318.727 105.628 319.053C106.381 319.378 107.192 319.546 108.011 319.546C108.831 319.546 109.642 319.378 110.395 319.053C111.147 318.727 111.825 318.251 112.386 317.653L160.048 266.886C167.319 259.305 172.971 250.324 176.661 240.489ZM108.012 304.775L64.724 258.667C58.5658 252.268 53.7728 244.684 50.636 236.376C47.6956 228.463 46.4517 220.021 46.985 211.596C48.0032 196.084 54.6016 181.466 65.561 170.441C71.1297 164.856 77.7458 160.424 85.0302 157.401C92.3146 154.377 100.124 152.821 108.011 152.821C115.898 152.821 123.707 154.377 130.992 157.401C138.276 160.424 144.892 164.856 150.461 170.441C161.422 181.466 168.021 196.087 169.038 211.6C169.572 220.025 168.328 228.467 165.387 236.38C162.251 244.687 157.458 252.27 151.3 258.667L108.012 304.775ZM403.988 174.836C384.811 174.836 369.208 190.786 369.208 210.39C369.208 229.994 384.808 245.943 403.988 245.943C423.168 245.943 438.769 229.994 438.769 210.39C438.769 190.786 423.166 174.836 403.988 174.836ZM403.988 233.943C391.427 233.943 381.208 223.377 381.208 210.39C381.208 197.403 391.427 186.836 403.988 186.836C416.549 186.836 426.769 197.402 426.769 210.39C426.769 223.378 416.549 233.943 403.988 233.943Z" fill="#E65402"/>
<path d="M472.637 240.489C476.153 231.005 477.635 220.889 476.988 210.795C475.777 192.392 467.945 175.049 454.94 161.971C448.256 155.267 440.316 149.948 431.573 146.319C422.83 142.69 413.456 140.821 403.99 140.821C394.524 140.821 385.15 142.69 376.407 146.319C367.664 149.948 359.724 155.267 353.04 161.971C340.033 175.05 332.2 192.394 330.988 210.8C330.341 220.894 331.823 231.01 335.339 240.494C339.03 250.327 344.682 259.306 351.952 266.886L399.614 317.653C400.175 318.251 400.853 318.727 401.605 319.053C402.358 319.378 403.169 319.546 403.988 319.546C404.808 319.546 405.619 319.378 406.372 319.053C407.124 318.727 407.802 318.251 408.363 317.653L456.025 266.886C463.295 259.305 468.947 250.324 472.637 240.489ZM403.988 304.775L360.7 258.667C354.541 252.269 349.748 244.685 346.612 236.376C343.671 228.463 342.427 220.021 342.961 211.596C343.978 196.084 350.577 181.465 361.536 170.441C367.105 164.856 373.721 160.424 381.005 157.401C388.29 154.377 396.099 152.821 403.986 152.821C411.873 152.821 419.682 154.377 426.967 157.401C434.251 160.424 440.867 164.856 446.436 170.441C457.397 181.466 463.997 196.087 465.015 211.6C465.548 220.025 464.304 228.467 461.364 236.38C458.228 244.689 453.435 252.273 447.276 258.671L403.988 304.775ZM90 350.18C90 354.333 91.2316 358.394 93.5391 361.847C95.8466 365.3 99.1264 367.992 102.964 369.581C106.801 371.171 111.023 371.587 115.097 370.776C119.17 369.966 122.912 367.966 125.849 365.029C128.786 362.092 130.786 358.35 131.596 354.277C132.407 350.203 131.991 345.981 130.401 342.144C128.812 338.306 126.12 335.027 122.667 332.719C119.214 330.412 115.153 329.18 111 329.18C105.432 329.186 100.094 331.401 96.1575 335.337C92.2205 339.274 90.0061 344.612 90 350.18ZM120 350.18C120 351.96 119.472 353.7 118.483 355.18C117.494 356.66 116.089 357.814 114.444 358.495C112.8 359.176 110.99 359.354 109.244 359.007C107.498 358.66 105.895 357.803 104.636 356.544C103.377 355.285 102.52 353.682 102.173 351.936C101.826 350.19 102.004 348.38 102.685 346.736C103.366 345.091 104.52 343.686 106 342.697C107.48 341.708 109.22 341.18 111 341.18C113.386 341.183 115.674 342.132 117.361 343.819C119.048 345.506 119.997 347.794 120 350.18ZM169 371.18C173.153 371.18 177.214 369.948 180.667 367.641C184.12 365.333 186.812 362.054 188.401 358.216C189.991 354.379 190.407 350.157 189.596 346.083C188.786 342.009 186.786 338.268 183.849 335.331C180.912 332.394 177.17 330.394 173.097 329.583C169.023 328.773 164.801 329.189 160.964 330.779C157.126 332.368 153.847 335.06 151.539 338.513C149.232 341.966 148 346.027 148 350.18C148.006 355.748 150.221 361.086 154.157 365.023C158.094 368.959 163.432 371.174 169 371.18ZM169 341.18C170.78 341.18 172.52 341.708 174 342.697C175.48 343.686 176.634 345.091 177.315 346.736C177.996 348.38 178.174 350.19 177.827 351.936C177.48 353.682 176.623 355.285 175.364 356.544C174.105 357.803 172.502 358.66 170.756 359.007C169.01 359.354 167.2 359.176 165.556 358.495C163.911 357.814 162.506 356.66 161.517 355.18C160.528 353.7 160 351.96 160 350.18C160.003 347.794 160.952 345.506 162.639 343.819C164.326 342.132 166.614 341.183 169 341.18ZM206 350.18C206 354.333 207.232 358.394 209.539 361.847C211.847 365.3 215.126 367.992 218.964 369.581C222.801 371.171 227.023 371.587 231.097 370.776C235.17 369.966 238.912 367.966 241.849 365.029C244.786 362.092 246.786 358.35 247.596 354.277C248.407 350.203 247.991 345.981 246.401 342.144C244.812 338.306 242.12 335.027 238.667 332.719C235.214 330.412 231.153 329.18 227 329.18C221.432 329.186 216.094 331.401 212.157 335.337C208.221 339.274 206.006 344.612 206 350.18ZM236 350.18C236 351.96 235.472 353.7 234.483 355.18C233.494 356.66 232.089 357.814 230.444 358.495C228.8 359.176 226.99 359.354 225.244 359.007C223.498 358.66 221.895 357.803 220.636 356.544C219.377 355.285 218.52 353.682 218.173 351.936C217.826 350.19 218.004 348.38 218.685 346.736C219.366 345.091 220.52 343.686 222 342.697C223.48 341.708 225.22 341.18 227 341.18C229.386 341.183 231.674 342.132 233.361 343.819C235.048 345.506 235.997 347.794 236 350.18ZM264 350.18C264 354.333 265.232 358.394 267.539 361.847C269.847 365.3 273.126 367.992 276.964 369.581C280.801 371.171 285.023 371.587 289.097 370.776C293.17 369.966 296.912 367.966 299.849 365.029C302.786 362.092 304.786 358.35 305.596 354.277C306.407 350.203 305.991 345.981 304.401 342.144C302.812 338.306 300.12 335.027 296.667 332.719C293.214 330.412 289.153 329.18 285 329.18C279.432 329.186 274.094 331.401 270.157 335.337C266.221 339.274 264.006 344.612 264 350.18ZM294 350.18C294 351.96 293.472 353.7 292.483 355.18C291.494 356.66 290.089 357.814 288.444 358.495C286.8 359.176 284.99 359.354 283.244 359.007C281.498 358.66 279.895 357.803 278.636 356.544C277.377 355.285 276.52 353.682 276.173 351.936C275.826 350.19 276.004 348.38 276.685 346.736C277.366 345.091 278.52 343.686 280 342.697C281.48 341.708 283.22 341.18 285 341.18C287.386 341.183 289.674 342.132 291.361 343.819C293.048 345.506 293.997 347.794 294 350.18ZM322 350.18C322 354.333 323.232 358.394 325.539 361.847C327.847 365.3 331.126 367.992 334.964 369.581C338.801 371.171 343.023 371.587 347.097 370.776C351.17 369.966 354.912 367.966 357.849 365.029C360.786 362.092 362.786 358.35 363.596 354.277C364.407 350.203 363.991 345.981 362.401 342.144C360.812 338.306 358.12 335.027 354.667 332.719C351.214 330.412 347.153 329.18 343 329.18C337.432 329.186 332.094 331.401 328.157 335.337C324.221 339.274 322.006 344.612 322 350.18ZM352 350.18C352 351.96 351.472 353.7 350.483 355.18C349.494 356.66 348.089 357.814 346.444 358.495C344.8 359.176 342.99 359.354 341.244 359.007C339.498 358.66 337.895 357.803 336.636 356.544C335.377 355.285 334.52 353.682 334.173 351.936C333.826 350.19 334.004 348.38 334.685 346.736C335.366 345.091 336.52 343.686 338 342.697C339.48 341.708 341.22 341.18 343 341.18C345.386 341.183 347.674 342.132 349.361 343.819C351.048 345.506 351.997 347.794 352 350.18ZM380 350.18C380 354.333 381.232 358.394 383.539 361.847C385.847 365.3 389.126 367.992 392.964 369.581C396.801 371.171 401.023 371.587 405.097 370.776C409.17 369.966 412.912 367.966 415.849 365.029C418.786 362.092 420.786 358.35 421.596 354.277C422.407 350.203 421.991 345.981 420.401 342.144C418.812 338.306 416.12 335.027 412.667 332.719C409.214 330.412 405.153 329.18 401 329.18C395.432 329.186 390.094 331.401 386.157 335.337C382.221 339.274 380.006 344.612 380 350.18ZM410 350.18C410 351.96 409.472 353.7 408.483 355.18C407.494 356.66 406.089 357.814 404.444 358.495C402.8 359.176 400.99 359.354 399.244 359.007C397.498 358.66 395.895 357.803 394.636 356.544C393.377 355.285 392.52 353.682 392.173 351.936C391.826 350.19 392.004 348.38 392.685 346.736C393.366 345.091 394.52 343.686 396 342.697C397.48 341.708 399.22 341.18 401 341.18C403.386 341.183 405.674 342.132 407.361 343.819C409.048 345.506 409.997 347.794 410 350.18Z" fill="black"/>
</svg>
