<svg xmlns="http://www.w3.org/2000/svg" viewBox="0 0 53 53" id="end-to-end-location">
  <path d="m38.406 47.018-3.78-1.82c.18-.28.32-.58.43-.9l2.04.98c.44.63.89 1.22 1.31 1.74m-13.42-23.98c.12-.25.41-.37.67-.25l.45.2c-.11.32-.27.61-.47.88l-.39-.17a.507.507 0 0 1-.26-.66m11.15 5.3c.03.55-.24 1.06-.71 1.34l-13.01 7.74c-.21.12-.23.33-.22.41 0 .08.03.29.26.4l4.67 2.24c-.18.28-.33.58-.44.9l-4.67-2.24c-.48-.24-.8-.72-.82-1.25-.03-.54.25-1.05.71-1.32l13.01-7.74c.21-.13.23-.34.22-.42 0-.08-.04-.29-.27-.39l-8.3-3.72c.19-.28.34-.57.45-.89l8.26 3.69c.5.23.83.71.86 1.25m-17.2-8.55c-.16.29-.28.6-.36.93l-3.94-1.76c.08-.14.16-.28.22-.43.07-.16.13-.32.18-.49l3.9 1.75zm1.54 1.23a.51.51 0 0 1-.66.26l-.31-.14c.07-.34.18-.65.35-.94l.36.16c.26.12.37.41.26.66m-6.37-4.83c-.61.74-1.11 1.3-1.36 1.57-.29.31-.69.48-1.11.48s-.82-.17-1.1-.48c-.32-.35-1.05-1.17-1.89-2.23-.23.42-.35.89-.35 1.39 0 1.63 1.33 2.95 2.96 2.95 1.17 0 2.23-.69 2.69-1.76.17-.37.26-.77.26-1.19 0-.25-.03-.5-.1-.73m30.09 30.99c-.77.96-1.43 1.69-1.73 2.01-.28.31-.68.49-1.1.49s-.82-.18-1.11-.49c-.25-.27-.77-.84-1.4-1.6-.05.2-.07.4-.07.61 0 1.54 1.26 2.8 2.8 2.8 1.54 0 2.8-1.26 2.8-2.8 0-.35-.07-.7-.19-1.02"></path>
  <path d="M41.366 33.437c-3.25 0-5.9 2.64-5.9 5.89 0 3.14 5.31 8.94 5.53 9.19.1.1.23.16.37.16s.27-.06.37-.16c.22-.25 5.52-6.05 5.52-9.19 0-3.25-2.64-5.89-5.89-5.89m2.17 6.15a2.178 2.178 0 0 1-2.17 1.93h-.02c-1.12 0-2.04-.84-2.17-1.93l.02-.02a1.94 1.94 0 0 1-.02-.24c0-.6.24-1.14.64-1.54.39-.4.93-.64 1.53-.65h.02c1.2.01 2.17.99 2.17 2.19 0 .08-.01.16-.02.24l.02.02zM17.482 7.16a5.825 5.825 0 0 0-.149-.762c-.012-.045-.017-.092-.029-.137-.003-.01-.01-.015-.013-.024a5.905 5.905 0 0 0-2.236-3.134c-.01-.008-.016-.02-.027-.028-.017-.012-.036-.02-.054-.032a5.925 5.925 0 0 0-1.473-.733c-.035-.012-.07-.028-.105-.04a5.867 5.867 0 0 0-.957-.205 5.708 5.708 0 0 0-.8-.061c-.272 0-.538.024-.8.06a5.827 5.827 0 0 0-.957.206c-.036.012-.07.028-.107.04a5.59 5.59 0 0 0-.625.253 5.917 5.917 0 0 0-.846.48c-.018.01-.037.02-.054.032-.01.008-.017.02-.027.028a5.907 5.907 0 0 0-2.237 3.136c-.003.008-.009.014-.01.022-.013.04-.017.085-.028.126a6.196 6.196 0 0 0-.12.564c-.01.069-.023.137-.032.205-.03.244-.052.49-.052.742 0 3.138 5.301 8.939 5.527 9.184a.5.5 0 0 0 .736 0c.226-.245 5.527-6.046 5.527-9.184a5.8 5.8 0 0 0-.052-.738m-5.843 2.93a2.192 2.192 0 1 1 0-4.384 2.192 2.192 0 0 1 0 4.384m14.667 11.758c0 .4-.07.78-.2 1.14-.11.32-.27.61-.47.881a3.402 3.402 0 0 1-2.77 1.41c-1.89 0-3.44-1.54-3.44-3.43 0-.24.03-.48.08-.71.07-.34.18-.65.35-.94a3.415 3.415 0 0 1 3.01-1.79c1.9 0 3.44 1.54 3.44 3.44"></path>
  <path d="M22.866 18.407c-1.3 0-2.43.72-3.01 1.79-.17.29-.28.6-.35.94-.05.23-.08.47-.08.71 0 1.89 1.55 3.43 3.44 3.43a3.4 3.4 0 0 0 2.77-1.41c.2-.27.36-.56.47-.88.13-.36.2-.74.2-1.14 0-1.9-1.54-3.44-3.44-3.44m8 27.874c-1.894 0-3.436-1.542-3.436-3.437s1.542-3.437 3.437-3.437c1.895 0 3.437 1.542 3.437 3.437s-1.542 3.437-3.437 3.437"></path>
</svg>
