<svg width="170" height="170" viewBox="0 0 170 170" fill="none" xmlns="http://www.w3.org/2000/svg">
<g clip-path="url(#clip0_8_43)">
<path d="M77.5293 82.0585H82.5098V87.039H77.5293V82.0585Z" fill="#E65402"/>
<path d="M87.4902 82.0585H92.4707V87.039H87.4902V82.0585Z" fill="#E65402"/>
<path d="M162.529 106.58H139.287C135.168 106.58 131.816 109.931 131.816 114.05V124.011C131.816 128.131 135.168 131.482 139.287 131.482H148.418V139.324H139.287C135.168 139.324 131.816 142.675 131.816 146.794V156.257H135.957V169.998H140.938V156.257H160.879V169.998H165.86V156.257H170V146.794C170 142.675 166.648 139.324 162.529 139.324H153.398V131.482H162.529C166.648 131.482 170 128.131 170 124.011V114.05C170 109.931 166.648 106.58 162.529 106.58ZM148.418 151.277H136.797V146.794C136.797 145.421 137.914 144.304 139.287 144.304H148.418V151.277ZM162.529 144.304C163.903 144.304 165.02 145.421 165.02 146.794V151.277H153.398V144.304H162.529ZM165.02 124.011C165.02 125.385 163.903 126.502 162.529 126.502H153.398V119.031H148.418V126.502H139.287C137.914 126.502 136.797 125.385 136.797 124.011V114.05C136.797 112.677 137.914 111.56 139.287 111.56H162.529C163.903 111.56 165.02 112.677 165.02 114.05V124.011Z" fill="black"/>
<path d="M118.591 106.58H95.3484C91.2292 106.58 87.8777 109.931 87.8777 114.05V124.011C87.8777 128.131 91.2292 131.482 95.3484 131.482H104.479V139.324H95.3484C91.2292 139.324 87.8777 142.675 87.8777 146.794V156.257H92.0185V169.998H96.9989V156.257H116.94V169.998H121.921V156.257H126.062V146.794C126.062 142.675 122.71 139.324 118.591 139.324H109.46V131.482H118.591C122.71 131.482 126.062 128.131 126.062 124.011V114.05C126.061 109.931 122.71 106.58 118.591 106.58ZM104.479 151.277H92.8582V146.794C92.8582 145.421 93.9751 144.304 95.3484 144.304H104.479V151.277ZM118.591 144.304C119.964 144.304 121.081 145.421 121.081 146.794V151.277H109.46V144.304H118.591ZM121.081 124.011C121.081 125.385 119.964 126.502 118.591 126.502H109.46V119.031H104.479V126.502H95.3484C93.9751 126.502 92.8582 125.385 92.8582 124.011V114.05C92.8582 112.677 93.9751 111.56 95.3484 111.56H118.591C119.964 111.56 121.081 112.677 121.081 114.05V124.011Z" fill="black"/>
<path d="M74.6516 106.58H51.4094C47.2899 106.58 43.9387 109.931 43.9387 114.05V124.011C43.9387 128.131 47.2899 131.482 51.4094 131.482H60.5403V139.324H51.4094C47.2899 139.324 43.9387 142.675 43.9387 146.794V156.257H48.0791V169.998H53.0596V156.257H73.0011V169.998H77.9815V156.257H82.1223V146.794C82.1223 142.675 78.7711 139.324 74.6516 139.324H65.5207V131.482H74.6516C78.7711 131.482 82.1223 128.131 82.1223 124.011V114.05C82.1223 109.931 78.7711 106.58 74.6516 106.58ZM60.5403 151.277H48.9192V146.794C48.9192 145.421 50.0361 144.304 51.4094 144.304H60.5403V151.277ZM74.6516 144.304C76.0249 144.304 77.1418 145.421 77.1418 146.794V151.277H65.5207V144.304H74.6516ZM77.1418 124.011C77.1418 125.385 76.0249 126.502 74.6516 126.502H65.5207V119.031H60.5403V126.502H51.4094C50.0361 126.502 48.9192 125.385 48.9192 124.011V114.05C48.9192 112.677 50.0361 111.56 51.4094 111.56H74.6516C76.0249 111.56 77.1418 112.677 77.1418 114.05V124.011Z" fill="black"/>
<path d="M30.7129 106.58H7.4707C3.35119 106.58 0 109.931 0 114.05V124.011C0 128.131 3.35119 131.482 7.4707 131.482H16.6016V139.324H7.4707C3.35119 139.324 0 142.675 0 146.794V156.257H4.14076V169.998H9.12123V156.257H29.0627V169.998H34.0432V156.257H38.1836V146.794C38.1836 142.675 34.8324 139.324 30.7129 139.324H21.582V131.482H30.7129C34.8324 131.482 38.1836 128.131 38.1836 124.011V114.05C38.1836 109.931 34.8324 106.58 30.7129 106.58ZM16.6016 151.277H4.98047V146.794C4.98047 145.421 6.09742 144.304 7.4707 144.304H16.6016V151.277ZM30.7129 144.304C32.0862 144.304 33.2031 145.421 33.2031 146.794V151.277H21.582V144.304H30.7129ZM33.2031 124.011C33.2031 125.385 32.0862 126.502 30.7129 126.502H21.582V119.031H16.6016V126.502H7.4707C6.09742 126.502 4.98047 125.385 4.98047 124.011V114.05C4.98047 112.677 6.09742 111.56 7.4707 111.56H30.7129C32.0862 111.56 33.2031 112.677 33.2031 114.05V124.011Z" fill="black"/>
<path d="M132.404 96.1208L136.156 84.2626L137.576 86.8588L143.519 75.9917L154.386 70.0481L143.519 64.1047L142.897 62.9675L153.925 28.1185L154.849 29.0425L167.123 16.769C170.953 12.9383 170.953 6.70579 167.123 2.87515C163.292 -0.954503 157.059 -0.955831 153.229 2.87515L140.955 15.1487L143.33 17.5237L100.029 50.5077L103.047 54.4695L146.884 21.0774L149.957 24.15L139.588 56.9166L137.576 53.2366L131.632 64.104L120.765 70.0474L131.632 75.9911L132.847 78.2114L127.698 94.4849L89.1082 65.0892L98.9307 57.6065L95.9125 53.6447L84.999 61.9588L52.3866 37.1162L49.3684 41.078L80.8898 65.0895L42.3028 94.4849L34.3446 69.3392L35.1332 67.8972L46.0006 61.9535L35.1332 56.0101L29.1899 45.1427L27.6051 48.0407L20.0431 24.15C20.7211 23.472 22.4609 21.7322 23.1157 21.0774L45.3704 38.0306L48.3886 34.0688L26.6694 17.5237L29.0444 15.1483L16.7709 2.87515C12.9406 -0.955167 6.7077 -0.954503 2.87738 2.87515C-0.953261 6.70579 -0.953261 12.9383 2.87738 16.769L15.1509 29.0425L16.075 28.1185L24.2954 54.0913L23.2458 56.0104L12.3788 61.9538L23.2458 67.8975L29.1892 78.7645L31.035 75.3898L37.5956 96.1208H0V101.101H170V96.1208H132.404ZM147.999 15.1487L156.751 6.39733C158.639 4.50841 161.712 4.50874 163.6 6.39733C165.489 8.28593 165.489 11.3585 163.6 13.2471L154.849 21.9991L147.999 15.1487ZM131.144 70.0481L135.302 67.7743L137.576 63.6169L139.85 67.7743L144.007 70.0481L139.85 72.3221L137.576 76.4795L135.302 72.3221L131.144 70.0481ZM15.1509 21.9988L6.39891 13.2468C4.51994 11.4442 4.51994 8.1996 6.39924 6.397C8.28783 4.50808 11.3608 4.50808 13.2494 6.397L22.0011 15.1483C20.2938 16.856 16.8579 20.2922 15.1509 21.9988ZM29.1895 68.3856L26.9155 64.2282L22.7581 61.9541L26.9155 59.6804L29.1895 55.523L31.4633 59.6804L35.621 61.9541L31.4633 64.2282L29.1895 68.3856ZM48.374 96.1208L84.9987 68.2202L121.626 96.1208H48.374Z" fill="black"/>
<path d="M108.945 34.2763L114.889 23.4092L125.756 17.4655L114.889 11.5222L108.945 0.655106L103.002 11.5222L92.1347 17.4655L103.002 23.4092L108.945 34.2763ZM106.672 15.1921L108.945 11.0344L111.22 15.1921L115.377 17.4658L111.22 19.7399L108.945 23.8973L106.672 19.7399L102.514 17.4658L106.672 15.1921Z" fill="#E65402"/>
</g>
<defs>
<clipPath id="clip0_8_43">
<rect width="170" height="170" fill="white"/>
</clipPath>
</defs>
</svg>
