<svg xmlns="http://www.w3.org/2000/svg" id="Capa_1" enable-background="new 0 0 512 512" height="512" viewBox="0 0 512 512" width="512"><g><g><path d="m504.5 214.836c-4.143 0-7.5 3.358-7.5 7.5v197.164c0 6.893-5.607 12.5-12.5 12.5h-71.027v-198.998c0-14.062-11.44-25.502-25.502-25.502s-25.502 11.44-25.502 25.502v13.402c-3.179 7.021-23.737 46.323-93.248 68.732-.109-10.022-8.287-18.143-18.334-18.143h-48.229c-17.747 0-32.185 14.438-32.185 32.185v36.645c0 17.593 14.19 31.925 31.726 32.173v34.004h-114.566c-4.143 0-7.5 3.358-7.5 7.5s3.357 7.5 7.5 7.5h114.565v6.103c0 15.532 12.637 28.169 28.169 28.169s28.169-12.637 28.169-28.169v-6.103h103.064c.366.682.654 1.25.869 1.693v13.304c0 14.062 11.44 25.502 25.502 25.502s25.502-11.44 25.502-25.502v-14.997h71.027c15.163 0 27.5-12.336 27.5-27.5v-197.164c0-4.142-3.357-7.5-7.5-7.5zm-142.031 58.897v148.359c-14.648-17.28-42.588-41.015-93.237-57.794v-33.441c50.636-15.346 78.572-39.336 93.237-57.124zm-176.996 92.09v-36.645c0-9.476 7.709-17.185 17.185-17.185h48.229c1.845 0 3.345 1.5 3.345 3.345v64.325c0 1.844-1.5 3.345-3.345 3.345h-48.229c-9.476-.001-17.185-7.71-17.185-17.185zm58.063 87.28c0 7.261-5.907 13.169-13.169 13.169s-13.169-5.908-13.169-13.169v-55.095h26.338zm15-21.103v-35.686c6.162-2.843 10.482-8.992 10.671-16.167 38.026 13.355 61.057 30.645 73.931 43.249 3.087 3.023 5.736 5.913 8.007 8.603h-92.609zm139.937 29.998c0 5.791-4.711 10.502-10.502 10.502s-10.502-4.711-10.502-10.502v-228.996c0-5.791 4.711-10.502 10.502-10.502s10.502 4.711 10.502 10.502z" style="&#10;"/><path d="m484.5 82h-20v-34c0-12.958-10.542-23.5-23.5-23.5s-23.5 10.542-23.5 23.5v34h-45.5v-34c0-12.958-10.542-23.5-23.5-23.5s-23.5 10.542-23.5 23.5v34h-45.5v-34c0-12.958-10.542-23.5-23.5-23.5s-23.5 10.542-23.5 23.5v34h-45.5v-34c0-12.958-10.542-23.5-23.5-23.5s-23.5 10.542-23.5 23.5v34h-45.5v-34c0-12.958-10.542-23.5-23.5-23.5s-23.5 10.542-23.5 23.5v34h-20c-15.163 0-27.5 12.336-27.5 27.5v310c0 15.164 12.337 27.5 27.5 27.5h24.412c4.143 0 7.5-3.358 7.5-7.5s-3.357-7.5-7.5-7.5h-24.412c-6.893 0-12.5-5.607-12.5-12.5v-242.497h482v11.101c0 4.142 3.357 7.5 7.5 7.5s7.5-3.358 7.5-7.5v-78.604c0-15.164-12.337-27.5-27.5-27.5zm-52-34c0-4.687 3.813-8.5 8.5-8.5s8.5 3.813 8.5 8.5v64c0 4.687-3.813 8.5-8.5 8.5s-8.5-3.813-8.5-8.5zm-92.5 0c0-4.687 3.813-8.5 8.5-8.5s8.5 3.813 8.5 8.5v64c0 4.687-3.813 8.5-8.5 8.5s-8.5-3.813-8.5-8.5zm-92.5 0c0-4.687 3.813-8.5 8.5-8.5s8.5 3.813 8.5 8.5v64c0 4.687-3.813 8.5-8.5 8.5s-8.5-3.813-8.5-8.5zm-92.5 0c0-4.687 3.813-8.5 8.5-8.5s8.5 3.813 8.5 8.5v64c0 4.687-3.813 8.5-8.5 8.5s-8.5-3.813-8.5-8.5zm-92.5 0c0-4.687 3.813-8.5 8.5-8.5s8.5 3.813 8.5 8.5v64c0 4.687-3.813 8.5-8.5 8.5s-8.5-3.813-8.5-8.5zm-47.5 114.003v-52.503c0-6.893 5.607-12.5 12.5-12.5h20v15c0 12.958 10.542 23.5 23.5 23.5s23.5-10.542 23.5-23.5v-15h45.5v15c0 12.958 10.542 23.5 23.5 23.5s23.5-10.542 23.5-23.5v-15h45.5v15c0 12.958 10.542 23.5 23.5 23.5s23.5-10.542 23.5-23.5v-15h45.5v15c0 12.958 10.542 23.5 23.5 23.5s23.5-10.542 23.5-23.5v-15h45.5v15c0 12.958 10.542 23.5 23.5 23.5s23.5-10.542 23.5-23.5v-15h20c6.893 0 12.5 5.607 12.5 12.5v52.503z"/><path d="m424.592 398.983 5.927 10.267c1.389 2.407 3.91 3.752 6.502 3.752 1.272 0 2.562-.324 3.743-1.006 3.587-2.071 4.816-6.658 2.745-10.245l-5.927-10.267c-2.07-3.588-6.656-4.816-10.245-2.746-3.587 2.071-4.816 6.658-2.745 10.245z"/><path d="m454.905 368.67c-3.587-2.071-8.174-.843-10.245 2.745-2.071 3.587-.842 8.174 2.745 10.245l10.267 5.928c1.181.682 2.471 1.006 3.743 1.006 2.592 0 5.112-1.345 6.502-3.751 2.071-3.587.842-8.174-2.745-10.245z"/><path d="m477.856 347.75c0-4.142-3.357-7.5-7.5-7.5h-11.855c-4.143 0-7.5 3.358-7.5 7.5s3.357 7.5 7.5 7.5h11.855c4.143 0 7.5-3.357 7.5-7.5z"/><path d="m457.672 307.913-10.267 5.927c-3.587 2.071-4.816 6.658-2.745 10.245 1.389 2.406 3.91 3.751 6.502 3.751 1.272 0 2.562-.324 3.743-1.006l10.267-5.927c3.587-2.071 4.816-6.658 2.745-10.245-2.07-3.587-6.66-4.816-10.245-2.745z"/><path d="m440.764 283.504c-3.59-2.071-8.175-.841-10.245 2.746l-5.927 10.267c-2.071 3.587-.842 8.174 2.745 10.245 1.182.682 2.471 1.006 3.743 1.006 2.592 0 5.113-1.346 6.502-3.752l5.927-10.267c2.071-3.586.842-8.173-2.745-10.245z"/><path d="m131.372 211.085c-9.813-10.14-22.909-15.781-36.874-15.886-.137-.001-.271-.001-.406-.001-13.949 0-27.068 5.402-36.977 15.237-10.007 9.932-15.518 23.166-15.518 37.263 0 43.73 29.401 67.855 42.043 76.198 3.19 2.105 6.854 3.159 10.521 3.159 3.614 0 7.23-1.025 10.392-3.076 12.274-7.964 40.938-31.099 42.014-73.807.364-14.487-5.173-28.733-15.195-39.087zm-34.983 100.311c-1.366.886-3.126.878-4.486-.019-10.615-7.005-35.305-27.234-35.305-63.678 0-10.07 3.937-19.522 11.084-26.617 7.078-7.025 16.448-10.883 26.414-10.883.097 0 .193 0 .29.001 9.908.074 19.216 4.093 26.208 11.318 7.24 7.48 11.241 17.787 10.977 28.276-.897 35.576-24.903 54.931-35.182 61.602z" style="&#10;    fill: #e65402;&#10;"/><path d="m94.098 225.198c-12.406 0-22.5 10.093-22.5 22.5s10.094 22.5 22.5 22.5 22.5-10.093 22.5-22.5-10.094-22.5-22.5-22.5zm0 30c-4.136 0-7.5-3.364-7.5-7.5s3.364-7.5 7.5-7.5 7.5 3.364 7.5 7.5-3.365 7.5-7.5 7.5z" style="&#10;    fill: #e65402;&#10;"/><path d="m68.825 352.697c-4.143 0-7.5 3.358-7.5 7.5s3.357 7.5 7.5 7.5h50.53c4.143 0 7.5-3.358 7.5-7.5s-3.357-7.5-7.5-7.5z" style="&#10;    fill: #e65402;&#10;"/><path d="m49.097 397.697h89.986c4.143 0 7.5-3.358 7.5-7.5s-3.357-7.5-7.5-7.5h-89.986c-4.143 0-7.5 3.358-7.5 7.5s3.357 7.5 7.5 7.5z" style="&#10;    fill: #e65402;&#10;"/><path d="m220.888 363.5c4.143 0 7.5-3.358 7.5-7.5v-17c0-4.142-3.357-7.5-7.5-7.5s-7.5 3.358-7.5 7.5v17c0 4.142 3.357 7.5 7.5 7.5z"/></g></g></svg>