<svg id="Layer_1" enable-background="new 0 0 74 74" height="512" viewBox="0 0 74 74" width="512" xmlns="http://www.w3.org/2000/svg"><g><path d="m11.5 43.94h51c1.52 0 2.75-1.23 2.75-2.75v-33.44c0-1.52-1.23-2.75-2.75-2.75h-51c-1.51 0-2.75 1.23-2.75 2.75v33.44c0 1.52 1.24 2.75 2.75 2.75zm-1.25-36.19c0-.69.56-1.25 1.25-1.25h51c.69 0 1.25.56 1.25 1.25v33.44c0 .69-.56 1.25-1.25 1.25h-51c-.69 0-1.25-.56-1.25-1.25z"/><path d="m37.25 12.3c-2.64-.07-5.12.91-7 2.74-2.75 2.69-3.68 6.72-2.23 10.69.45 1.24 1.29 2.28 2.25 3.19 1.24 1.17 2.07 2.55 2.42 4.02-.6.26-1.03.86-1.03 1.56v.03c0 2.59 1.69 4.85 4 5.56.65.2 1.36.23 2.04.15 5.01-.61 5.14-5.74 5.14-5.74 0-.71-.45-1.33-1.08-1.58.22-1.51.95-2.95 2.15-4.18 1.84-1.88 2.82-4.36 2.76-6.99-.12-5.09-4.35-9.32-9.42-9.45zm5.59 15.38c-1.45 1.48-2.34 3.24-2.59 5.11h-6.05c-.39-1.81-1.36-3.5-2.84-4.91-1.63-1.56-2.52-3.65-2.52-5.9 0-2.23.87-4.31 2.46-5.86s3.65-2.39 5.91-2.32c4.29.11 7.86 3.69 7.96 7.98.05 2.22-.78 4.32-2.33 5.9z"/><path d="m41.35 17.57-.88.27c-.48-.4-1.03-.72-1.62-.93l-.21-.91c-.08-.34-.38-.58-.73-.58h-1.81c-.35 0-.65.24-.73.58l-.21.91c-.59.21-1.14.53-1.62.93l-.88-.27c-.33-.1-.7.04-.87.34l-.91 1.57c-.17.3-.11.69.14.93l.68.61c-.06.32-.09.63-.09.95s.03.63.08.94l-.67.62c-.25.24-.31.62-.14.92l.91 1.57c.17.3.53.45.86.34l.89-.27c.48.41 1.03.72 1.61.93l.21.91c.08.34.38.58.73.58h1.81c.35 0 .65-.24.73-.58l.21-.91c.6-.21 1.14-.53 1.62-.93l.89.27c.34.11.69-.04.87-.34l.9-1.57c.18-.3.12-.68-.14-.92l-.67-.62c.06-.31.09-.62.09-.94s-.03-.63-.09-.95l.67-.61c.26-.24.32-.63.14-.93l-.9-1.57c-.18-.3-.54-.45-.87-.34zm-4.35 6.83c-1.34 0-2.43-1.09-2.43-2.44 0-1.34 1.09-2.43 2.43-2.43s2.44 1.09 2.44 2.43c0 1.35-1.1 2.44-2.44 2.44z"/><path d="m37 10.9c.41 0 .75-.34.75-.75v-1.38c0-.41-.34-.75-.75-.75s-.75.34-.75.75v1.38c0 .41.34.75.75.75z"/><path d="m42.54 12.38c.12.07.25.1.37.1.26 0 .51-.13.65-.37l.69-1.2c.21-.36.08-.82-.27-1.02-.36-.21-.82-.08-1.02.27l-.69 1.2c-.22.36-.09.82.27 1.02z"/><path d="m47.24 16.81c.13 0 .26-.03.37-.1l1.2-.69c.36-.21.48-.67.27-1.02-.21-.36-.66-.48-1.02-.27l-1.2.69c-.36.21-.48.67-.27 1.02.13.23.39.37.65.37z"/><path d="m48.07 21.97c0 .41.34.75.75.75h1.38c.41 0 .75-.34.75-.75s-.34-.75-.75-.75h-1.38c-.42 0-.75.33-.75.75z"/><path d="m30.45 12.11c.14.24.39.38.65.38.13 0 .26-.03.37-.1.36-.21.48-.67.27-1.02l-.69-1.2c-.21-.36-.67-.48-1.02-.27-.36.21-.48.67-.27 1.02z"/><path d="m25.2 16.02 1.2.69c.12.07.25.1.37.1.26 0 .51-.13.65-.38.21-.36.08-.82-.27-1.02l-1.2-.69c-.36-.21-.82-.08-1.02.27-.22.36-.09.82.27 1.03z"/><path d="m23.8 22.72h1.38c.41 0 .75-.34.75-.75s-.34-.75-.75-.75h-1.38c-.41 0-.75.34-.75.75s.34.75.75.75z"/><path d="m47.08 32.56c0 3.79 3.09 6.88 6.87 6.88 1.89 0 3.61-.77 4.85-2.01h.01c.01-.01.01-.01.01-.01 1.24-1.25 2.01-2.96 2.01-4.85 0 0 0 0 0-.01 0-1.9-.77-3.61-2.01-4.86-1.25-1.24-2.97-2.01-4.87-2.01-3.78 0-6.87 3.08-6.87 6.87zm11.15 3.22-2.47-2.47h3.5c-.13.92-.49 1.76-1.03 2.47zm-3.53-8.51c2.37.33 4.22 2.19 4.56 4.54h-4.56z"/><path d="m25 37.94h-11.08c-.41 0-.75.34-.75.75s.34.75.75.75h11.08c.41 0 .75-.34.75-.75s-.33-.75-.75-.75z"/><path d="m14.92 18.94h6.13c.97 0 1.75-.79 1.75-1.75v-4.94c0-.96-.78-1.75-1.75-1.75h-6.13c-.96 0-1.75.79-1.75 1.75v4.94c0 .96.79 1.75 1.75 1.75z"/><path d="m25 34.19h-11.08c-.41 0-.75.34-.75.75s.34.75.75.75h11.08c.41 0 .75-.34.75-.75s-.33-.75-.75-.75z"/><path d="m13.92 31.94h7.16c.41 0 .75-.34.75-.75s-.34-.75-.75-.75h-7.16c-.41 0-.75.34-.75.75s.34.75.75.75z"/><path d="m62.57 59.36h-.7c-.15 0-.29.04-.42.13-2.22 1.5-5.01 1.5-7.23 0-.13-.09-.27-.13-.42-.13h-.7c-2.46 0-4.6 1.39-5.68 3.43-1.08-2.04-3.22-3.43-5.69-3.43h-.69c-.15 0-.3.04-.42.13-2.23 1.5-5.01 1.5-7.24 0-.12-.09-.27-.13-.42-.13h-.69c-2.46 0-4.6 1.39-5.69 3.43-1.08-2.04-3.22-3.43-5.68-3.43h-.69c-.15 0-.3.04-.42.13-2.23 1.5-5.01 1.5-7.24 0-.12-.09-.27-.13-.42-.13h-.69c-3.55 0-6.44 2.89-6.44 6.43v2.46c0 .41.34.75.75.75h62.5c.42 0 .75-.34.75-.75v-2.46c0-3.54-2.89-6.43-6.43-6.43z"/><path d="m31.57 51.18c0 2.8 2.28 6.96 5.43 6.96s5.43-4.16 5.43-6.96c0-2.98-2.44-5.41-5.43-5.41s-5.43 2.43-5.43 5.41z"/><path d="m57.83 45.77c-2.99 0-5.42 2.43-5.42 5.41 0 2.8 2.28 6.96 5.42 6.96 3.15 0 5.43-4.16 5.43-6.96 0-2.98-2.43-5.41-5.43-5.41z"/><path d="m10.74 51.18c0 2.8 2.28 6.96 5.43 6.96s5.43-4.16 5.43-6.96c0-2.98-2.44-5.41-5.43-5.41s-5.43 2.43-5.43 5.41z"/></g></svg>