<svg id="Layer_1" enable-background="new 0 0 300.832 237.183" height="512" viewBox="0 0 300.832 237.183" width="512" xmlns="http://www.w3.org/2000/svg"><g><path d="m120.3 140.487h31.016v-11.334h-30.432c-.1 3.267-.25 6.636-.45 10.086-.025.422-.074.838-.134 1.248z"/><path d="m106.463 152.426c-.285 0-.576-.008-.867-.028-2.82-.163-5.406-1.167-7.521-2.755v45.177h189.24v-4.666h-15.666v-45.834h-152.498c-2.234 4.801-7.097 8.106-12.688 8.106z"/><path d="m93.529 22.499c0 8.032-3.345 15.292-8.707 20.478.136.586.281 1.171.42 1.757 1.35.046 3.048.241 4.983.733 6.086-6.603 11.897-13.358 17.414-20.259.934.199 1.871.372 2.805.562 2.781 10.314 6.006 20.607 9.699 30.848 6.618-8.634 12.799-17.462 18.556-26.444.945.102 1.892.185 2.837.278 3.141 8.227 6.598 16.405 10.352 24.523 1.894-.178 3.846-.375 5.855-.593 4.371-7.406 8.467-14.897 12.28-22.462.949.004 1.898.004 2.848 0 3.203 6.356 6.61 12.659 10.208 18.905 3.453-.6 7.028-1.269 10.712-2.019 2.69-6.089 5.22-12.208 7.566-18.354.946-.093 1.894-.176 2.839-.278 3.02 4.713 6.162 9.382 9.421 14.003 4.831-1.276 9.754-2.689 14.734-4.258 1.464-4.709 2.827-9.426 4.1-14.148.935-.19 1.872-.363 2.806-.562 2.584 3.233 5.239 6.431 7.949 9.601 6.064-2.269 12.145-4.788 18.179-7.572.591-3.122 1.149-6.242 1.661-9.361.914-.287 1.83-.564 2.742-.859 1.797 1.815 3.612 3.619 5.455 5.405 7.331-3.801 14.52-8.042 21.447-12.755.067-.965.142-1.932.202-2.897 1.482-.642 2.97-1.269 4.444-1.935-.211-.468-.422-.936-.634-1.404-64.265 29.016-136.089 34.6-203.272 16.783.059.755.099 1.514.099 2.284z"/><path d="m177.736 54.754c-18.683 2.948-35.002 4.169-46.646 4.653-11.645.482-18.571.225-18.59.227l-.072 2c.023-.006 7.927.283 20.947-.329l16.367 23.87 12.568-26.273c1.576-.188 3.174-.385 4.801-.597l18.379 22.255 10.068-27c2.09-.43 4.203-.883 6.33-1.357l20.141 20.519 7.779-27.982c1.932-.608 3.865-1.232 5.801-1.885l22.674 18.101 4.35-28.751c1.902-.871 3.795-1.773 5.684-2.697l25.51 14.248-.406-28.547c2.504-1.658 4.975-3.374 7.412-5.152l-1.18-1.615c-37.747 27.591-84.551 40.418-121.917 46.312z"/><path d="m112.428 61.636v-.002z"/><path d="m37.982 224.819c0 6.83 5.537 12.363 12.363 12.363 6.828 0 12.365-5.533 12.365-12.363v-90.271h4.635v90.271c0 6.83 5.537 12.363 12.363 12.363 6.828 0 12.365-5.533 12.365-12.363v-98-18.939-33.019c.592 1.216 1.189 2.61 1.779 4.237 2.818 7.813 5.189 20.63 5.18 40.638.002 5.515-.176 11.573-.564 18.224-.258 4.41 3.111 8.195 7.521 8.451.158.01.316.015.473.015 4.205 0 7.732-3.281 7.98-7.534.402-6.932.592-13.299.592-19.155-.041-30.181-4.863-46.887-11.436-56.931-3.285-4.987-7.129-8.185-10.678-9.956-3.42-1.723-6.424-2.111-8.227-2.134-.117-.005-.232-.018-.35-.018h-38.632c-.116 0-.23.012-.345.018-1.583.019-4.086.315-7.001 1.56-1.987.832-4.099 2.115-6.185 3.919-2.725 2.356-5.402 5.602-7.695 9.901-4.087 7.607-7.255 18.428-8.682 34.412-.002.021 0 .042-.002.063-.218 2.456-.391 5.042-.519 7.751-.17 3.576-.264 7.37-.265 11.417.002 5.854.189 12.221.596 19.155.248 4.251 3.775 7.532 7.98 7.532.156 0 .314-.005.473-.014 4.412-.26 7.777-4.047 7.52-8.455-.391-6.65-.568-12.705-.568-18.219 0-4.497.12-8.623.336-12.42.106-1.873.234-3.672.386-5.383 0-.005.002-.01.002-.016.074-.85.156-1.672.241-2.483 1.265-12.052 3.655-19.788 6-24.602v30.448l-4.685 3.172c-.063 1.221-.114 2.464-.156 3.729l4.558-3.086 17.945 26.494-33.533 22.711-17.944-26.491 8.922-6.043c-.024-1.212-.041-2.406-.052-3.588l-13.038 8.83 21.311 31.463 10.672-7.229 6-4.064v73.639zm23.245-165.937h3.801 3.799l1.9 7.5-.289.456c-1.565 1.306-3.483 1.96-5.412 1.962-1.928-.002-3.843-.655-5.407-1.958l-.292-.46zm-.228 12.179c1.297.486 2.662.74 4.026.739h.002.006c1.363 0 2.726-.254 4.021-.74l5.474 40.322-9.5 12-9.5-12z"/><circle cx="65.027" cy="22.5" r="22.5"/><path d="m39.153 117.556h2.001v19.21h-2.001z" transform="matrix(.82 -.573 .573 .82 -65.568 45.888)"/><path d="m33.227 130.268c.045 1.227.095 2.46.154 3.714l4.453 6.376 1.641-1.145z"/><path d="m213.648 129.153h44.666v11.334h-44.666z"/></g></svg>