<?xml version="1.0"?>
<svg xmlns="http://www.w3.org/2000/svg" id="Layer_1" data-name="Layer 1" viewBox="0 0 512 512"><path d="M236.328,232.491H203.507V199.67h32.821ZM60.813,126.929H325.651v2.788h9.513a34.077,34.077,0,0,1,4.685-3.707V87.153a29.878,29.878,0,0,0-29.832-29.831h-5.346V85.257a26.944,26.944,0,0,1-53.887,0V57.322H220.176V85.257a26.93,26.93,0,0,1-53.859,0V57.322H135.709V85.257a26.944,26.944,0,0,1-53.887,0V57.322H76.477A29.878,29.878,0,0,0,46.645,87.153V237.175a80.716,80.716,0,0,1,14.168-2.126ZM236.328,144.92H203.507v32.85h32.821Zm-57.164,54.75H146.343v32.821h32.821Zm24.343,87.57h32.821V254.391H203.507ZM277.742,98.017a12.781,12.781,0,0,0,12.732-12.76V43.7a12.747,12.747,0,0,0-25.493,0V85.257A12.805,12.805,0,0,0,277.742,98.017Zm-168.99,0a12.805,12.805,0,0,0,12.76-12.76V43.7a12.761,12.761,0,0,0-25.521,0V85.257A12.805,12.805,0,0,0,108.752,98.017Zm84.5,0a12.805,12.805,0,0,0,12.76-12.76V43.7a12.761,12.761,0,0,0-25.521,0V85.257A12.805,12.805,0,0,0,193.247,98.017Zm-71.218,46.9H89.18v32.85h32.849ZM89.18,232.491h32.849V199.67H89.18Zm55.813,82.023c0,1.638-.058,3.277-.144,4.915H252.077v-14.2H144.447A77.128,77.128,0,0,1,144.993,314.514Zm1.35-27.274h32.821V254.391H146.343Zm32.821-142.32H146.343v32.85h32.821ZM465.585,333.167H392.356a7.1,7.1,0,1,0,0,14.2h73.229a7.1,7.1,0,1,0,0-14.2Zm-73.229-30.321h38.828a7.1,7.1,0,0,0,0-14.2H392.356a7.1,7.1,0,0,0,0,14.2Zm73.229,8.076H392.356a7.1,7.1,0,1,0,0,14.2h73.229a7.1,7.1,0,1,0,0-14.2Zm-73.229,71.131h38.828a7.085,7.085,0,1,0,0-14.169H392.356a7.085,7.085,0,1,0,0,14.169Zm73.229,8.076H392.356a7.1,7.1,0,1,0,0,14.2h73.229a7.1,7.1,0,1,0,0-14.2Zm0-136.17H392.356a7.1,7.1,0,0,0,0,14.2h73.229a7.1,7.1,0,1,0,0-14.2Zm0,158.414H392.356a7.1,7.1,0,1,0,0,14.2h73.229a7.1,7.1,0,1,0,0-14.2ZM337.952,172.079a5.384,5.384,0,0,0,5.374,5.375h91.622a5.385,5.385,0,0,0,5.375-5.375V155.842a21.649,21.649,0,0,0-21.584-21.584H409.4a20.262,20.262,0,1,0-40.523,0h-9.341a21.649,21.649,0,0,0-21.583,21.584Zm156.172-28.164H452.451a35.741,35.741,0,0,1,2.07,11.927v9.8h35.752V459.306H288V165.642h35.752v-9.8a35.74,35.74,0,0,1,2.069-11.927H284.151a17.932,17.932,0,0,0-17.876,17.876V463.157a17.932,17.932,0,0,0,17.876,17.876H494.124A17.932,17.932,0,0,0,512,463.157V161.791A17.932,17.932,0,0,0,494.124,143.915Zm-409.14,163.5H72.511V285.142a7.1,7.1,0,1,0-14.2,0v29.372a7.1,7.1,0,0,0,7.1,7.1H84.984a7.1,7.1,0,1,0,0-14.2Zm26.67-39.144a65.465,65.465,0,1,1-46.242-19.14A65.3,65.3,0,0,1,111.654,268.271Zm4.944,46.243a51.222,51.222,0,1,0-15,36.212A51.023,51.023,0,0,0,116.6,314.514ZM372.1,216.08a7.061,7.061,0,0,0-10.031,0l-30.406,30.378L321.4,236.2a7.093,7.093,0,0,0-10.03,10.031l15.29,15.289a7.059,7.059,0,0,0,10.03,0L372.1,226.11A7.112,7.112,0,0,0,372.1,216.08Zm93.49,15.635H392.356a7.085,7.085,0,1,0,0,14.169h73.229a7.085,7.085,0,1,0,0-14.169Zm-73.229-8.076h38.828a7.1,7.1,0,0,0,0-14.2H392.356a7.1,7.1,0,1,0,0,14.2ZM372.1,295.287a7.062,7.062,0,0,0-10.031,0l-30.406,30.407L321.4,315.4a7.092,7.092,0,1,0-10.03,10.03l15.29,15.29a7.059,7.059,0,0,0,10.03,0L372.1,305.318A7.113,7.113,0,0,0,372.1,295.287Zm-10.031,79.207L331.658,404.9,321.4,394.612a7.1,7.1,0,0,0-10.03,10.059l15.29,15.261a7.061,7.061,0,0,0,10.03,0L372.1,384.524a7.093,7.093,0,1,0-10.031-10.03Z"/></svg>
