<svg width="212" height="208" viewBox="0 0 212 208" fill="none" xmlns="http://www.w3.org/2000/svg">
<mask id="path-1-inside-1_48_168" fill="white">
<path d="M194.594 83.375H198.812C201.133 83.375 203.031 81.5187 203.031 79.25V66.875H207.25C209.57 66.875 211.469 65.0187 211.469 62.75V46.25C211.469 44.5999 210.456 43.0736 208.853 42.4548L107.603 1.20478C106.591 0.751075 105.409 0.751075 104.397 1.20478L3.14687 42.4548C1.54375 43.0736 0.53125 44.5999 0.53125 46.25V62.75C0.53125 65.0187 2.42973 66.875 4.75 66.875H8.96875V79.25C8.96875 81.5187 10.8672 83.375 13.1875 83.375H17.4062V157.625H4.75C2.42973 157.625 0.53125 159.481 0.53125 161.75V178.25C0.53125 180.519 2.42973 182.375 4.75 182.375H84.0625C92.4577 195.451 102.287 205.227 103.005 205.929C103.848 206.712 104.903 207.125 106 207.125C107.097 207.125 108.152 206.712 108.995 205.929C109.712 205.227 119.542 195.451 127.938 182.375H207.25C209.57 182.375 211.469 180.519 211.469 178.25V161.75C211.469 159.481 209.57 157.625 207.25 157.625H194.594V83.375ZM8.96875 58.625V49.0136L106 9.45474L203.031 49.0136V58.625H142.745C143.505 56.0675 143.969 53.4687 143.969 50.9112C143.969 36.9687 133.211 25.6249 119.964 25.6249C114.902 25.6249 110.05 27.2748 106 30.3275C101.95 27.2748 97.0985 25.6249 92.0359 25.6249C78.789 25.6249 68.0312 36.9687 68.0312 50.9112C68.0312 53.4687 68.4953 56.0675 69.2546 58.625H8.96875ZM165.147 119.51C162.531 121.779 160.844 125.079 160.844 128.75C160.844 133.411 163.544 137.454 167.467 139.557L158.228 157.625H138.78C139.37 154.861 139.75 152.097 139.75 149.375C139.75 131.184 124.605 116.375 106 116.375C87.3954 116.375 72.25 131.184 72.25 149.375C72.25 152.097 72.6298 154.861 73.2202 157.625H53.7718L44.5328 139.557C48.4562 137.454 51.1562 133.411 51.1562 128.75C51.1562 125.079 49.4687 121.779 46.853 119.51C57.0626 110.641 62.2938 97.3175 60.3108 83.7461L60.2267 83.375H85.3702C94.0186 92.3674 102.836 98.5962 103.553 99.0912C104.27 99.6275 105.156 99.875 106 99.875C106.844 99.875 107.73 99.6275 108.447 99.0912C109.164 98.5962 117.981 92.3675 126.63 83.375H151.773L151.689 83.7461C149.706 97.3175 154.937 110.641 165.147 119.51ZM173.5 132.875C171.18 132.875 169.281 131.019 169.281 128.75C169.281 126.481 171.18 124.625 173.5 124.625H186.156V132.875H173.5ZM186.156 141.125V157.625H167.678L176.116 141.125H186.156ZM174.808 116.375C164.05 109.569 158.228 97.3587 160.042 84.9012L160.295 83.375H186.156V116.375H174.808ZM17.4062 75.125V66.875H72.7984C74.3594 69.7212 76.2156 72.4849 78.2405 75.125H17.4062ZM25.8438 124.625H38.5C40.8203 124.625 42.7188 126.481 42.7188 128.75C42.7188 131.019 40.8203 132.875 38.5 132.875H25.8438V124.625ZM25.8438 141.125H35.8844L44.3219 157.625H25.8438V141.125ZM37.1922 116.375H25.8438V83.375H51.7047L51.9578 84.9012C53.7718 97.3588 47.95 109.569 37.1922 116.375ZM106 90.5937C95.9171 82.9212 76.4688 65.1836 76.4688 50.9112C76.4688 41.5061 83.4298 33.875 92.0359 33.875C96.086 33.875 99.9672 35.6074 102.878 38.7424C104.481 40.4335 107.519 40.4335 109.122 38.7424C112.033 35.6074 115.914 33.875 119.964 33.875C128.57 33.875 135.531 41.5061 135.531 50.9112C135.531 65.1835 116.083 82.9212 106 90.5937ZM8.96875 174.125V165.875H75.625C76.6796 168.68 77.9033 171.444 79.2953 174.125H8.96875ZM106 196.977C98.7439 189.057 80.6875 167.607 80.6875 149.375C80.6875 135.721 92.0359 124.625 106 124.625C119.964 124.625 131.312 135.721 131.312 149.375C131.312 167.607 113.256 189.057 106 196.977ZM203.031 165.875V174.125H132.705C134.097 171.444 135.32 168.68 136.375 165.875H203.031ZM133.759 75.125C135.784 72.4849 137.641 69.7212 139.202 66.875H194.594V75.125H133.759Z"/>
</mask>
<path d="M194.594 83.375H198.812C201.133 83.375 203.031 81.5187 203.031 79.25V66.875H207.25C209.57 66.875 211.469 65.0187 211.469 62.75V46.25C211.469 44.5999 210.456 43.0736 208.853 42.4548L107.603 1.20478C106.591 0.751075 105.409 0.751075 104.397 1.20478L3.14687 42.4548C1.54375 43.0736 0.53125 44.5999 0.53125 46.25V62.75C0.53125 65.0187 2.42973 66.875 4.75 66.875H8.96875V79.25C8.96875 81.5187 10.8672 83.375 13.1875 83.375H17.4062V157.625H4.75C2.42973 157.625 0.53125 159.481 0.53125 161.75V178.25C0.53125 180.519 2.42973 182.375 4.75 182.375H84.0625C92.4577 195.451 102.287 205.227 103.005 205.929C103.848 206.712 104.903 207.125 106 207.125C107.097 207.125 108.152 206.712 108.995 205.929C109.712 205.227 119.542 195.451 127.938 182.375H207.25C209.57 182.375 211.469 180.519 211.469 178.25V161.75C211.469 159.481 209.57 157.625 207.25 157.625H194.594V83.375ZM8.96875 58.625V49.0136L106 9.45474L203.031 49.0136V58.625H142.745C143.505 56.0675 143.969 53.4687 143.969 50.9112C143.969 36.9687 133.211 25.6249 119.964 25.6249C114.902 25.6249 110.05 27.2748 106 30.3275C101.95 27.2748 97.0985 25.6249 92.0359 25.6249C78.789 25.6249 68.0312 36.9687 68.0312 50.9112C68.0312 53.4687 68.4953 56.0675 69.2546 58.625H8.96875ZM165.147 119.51C162.531 121.779 160.844 125.079 160.844 128.75C160.844 133.411 163.544 137.454 167.467 139.557L158.228 157.625H138.78C139.37 154.861 139.75 152.097 139.75 149.375C139.75 131.184 124.605 116.375 106 116.375C87.3954 116.375 72.25 131.184 72.25 149.375C72.25 152.097 72.6298 154.861 73.2202 157.625H53.7718L44.5328 139.557C48.4562 137.454 51.1562 133.411 51.1562 128.75C51.1562 125.079 49.4687 121.779 46.853 119.51C57.0626 110.641 62.2938 97.3175 60.3108 83.7461L60.2267 83.375H85.3702C94.0186 92.3674 102.836 98.5962 103.553 99.0912C104.27 99.6275 105.156 99.875 106 99.875C106.844 99.875 107.73 99.6275 108.447 99.0912C109.164 98.5962 117.981 92.3675 126.63 83.375H151.773L151.689 83.7461C149.706 97.3175 154.937 110.641 165.147 119.51ZM173.5 132.875C171.18 132.875 169.281 131.019 169.281 128.75C169.281 126.481 171.18 124.625 173.5 124.625H186.156V132.875H173.5ZM186.156 141.125V157.625H167.678L176.116 141.125H186.156ZM174.808 116.375C164.05 109.569 158.228 97.3587 160.042 84.9012L160.295 83.375H186.156V116.375H174.808ZM17.4062 75.125V66.875H72.7984C74.3594 69.7212 76.2156 72.4849 78.2405 75.125H17.4062ZM25.8438 124.625H38.5C40.8203 124.625 42.7188 126.481 42.7188 128.75C42.7188 131.019 40.8203 132.875 38.5 132.875H25.8438V124.625ZM25.8438 141.125H35.8844L44.3219 157.625H25.8438V141.125ZM37.1922 116.375H25.8438V83.375H51.7047L51.9578 84.9012C53.7718 97.3588 47.95 109.569 37.1922 116.375ZM106 90.5937C95.9171 82.9212 76.4688 65.1836 76.4688 50.9112C76.4688 41.5061 83.4298 33.875 92.0359 33.875C96.086 33.875 99.9672 35.6074 102.878 38.7424C104.481 40.4335 107.519 40.4335 109.122 38.7424C112.033 35.6074 115.914 33.875 119.964 33.875C128.57 33.875 135.531 41.5061 135.531 50.9112C135.531 65.1835 116.083 82.9212 106 90.5937ZM8.96875 174.125V165.875H75.625C76.6796 168.68 77.9033 171.444 79.2953 174.125H8.96875ZM106 196.977C98.7439 189.057 80.6875 167.607 80.6875 149.375C80.6875 135.721 92.0359 124.625 106 124.625C119.964 124.625 131.312 135.721 131.312 149.375C131.312 167.607 113.256 189.057 106 196.977ZM203.031 165.875V174.125H132.705C134.097 171.444 135.32 168.68 136.375 165.875H203.031ZM133.759 75.125C135.784 72.4849 137.641 69.7212 139.202 66.875H194.594V75.125H133.759Z" fill="black" stroke="black" stroke-width="2" mask="url(#path-1-inside-1_48_168)"/>
<path d="M106 132.875C96.6953 132.875 89.125 140.275 89.125 149.375C89.125 158.475 96.6953 165.875 106 165.875C115.305 165.875 122.875 158.475 122.875 149.375C122.875 140.275 115.305 132.875 106 132.875ZM106 157.625C101.347 157.625 97.5625 153.923 97.5625 149.375C97.5625 144.827 101.347 141.125 106 141.125C110.653 141.125 114.438 144.827 114.438 149.375C114.438 153.923 110.653 157.625 106 157.625Z" fill="#E65402"/>
</svg>
