<svg id="Layer_1" enable-background="new 0 0 512 512" viewBox="0 0 512 512" xmlns="http://www.w3.org/2000/svg"><path d="m481.006 434.003c.354 4.404-2.931 8.261-7.335 8.614l-50.408 4.045c-.214.017-.428.025-.641.025-2.112 0-4.149-.837-5.656-2.343-1.657-1.658-2.505-3.96-2.317-6.297l4.044-50.408c.354-4.405 4.216-7.69 8.614-7.335 4.404.354 7.688 4.21 7.335 8.614l-2.275 28.354c40.436-44.161 62.633-101.179 62.633-161.272 0-48.986-14.728-96.078-42.592-136.186-2.521-3.629-1.623-8.613 2.006-11.135 3.628-2.518 8.613-1.623 11.135 2.006 29.734 42.8 45.451 93.049 45.451 145.315 0 64.54-24 125.754-67.687 173.002l29.079-2.334c4.388-.349 8.26 2.931 8.614 7.335zm-88.82 18.406c-40.108 27.863-87.201 42.591-136.186 42.591-60.095 0-117.112-22.198-161.274-62.633l28.355 2.275c4.4.362 8.262-2.931 8.614-7.335s-2.931-8.261-7.335-8.614l-50.408-4.044c-2.336-.181-4.639.66-6.297 2.318-1.657 1.657-2.505 3.959-2.317 6.296l4.046 50.408c.336 4.187 3.838 7.36 7.966 7.36.215 0 .432-.008.648-.025 4.404-.354 7.688-4.211 7.335-8.614l-2.334-29.077c47.247 43.686 108.46 67.685 173.001 67.685 52.265 0 102.514-15.717 145.314-45.45 3.629-2.521 4.526-7.506 2.006-11.135-2.521-3.629-7.506-4.527-11.134-2.006zm-375.186-196.409c0-60.094 22.198-117.112 62.633-161.273l-2.275 28.355c-.353 4.404 2.931 8.261 7.335 8.614.218.018.434.025.648.025 4.128 0 7.63-3.174 7.966-7.36l4.044-50.409c.188-2.337-.66-4.639-2.318-6.297-1.657-1.657-3.96-2.498-6.296-2.317l-50.408 4.046c-4.404.354-7.688 4.211-7.335 8.614.354 4.406 4.225 7.69 8.614 7.335l29.078-2.334c-43.687 47.247-67.686 108.46-67.686 173.001 0 52.266 15.717 102.515 45.45 145.314 1.555 2.237 4.045 3.437 6.577 3.437 1.575 0 3.166-.464 4.558-1.431 3.629-2.521 4.526-7.506 2.006-11.135-27.863-40.106-42.591-87.199-42.591-136.185zm102.814-196.408c40.107-27.864 87.199-42.592 136.186-42.592 60.093 0 117.11 22.198 161.273 62.634l-28.354-2.275c-4.404-.358-8.261 2.931-8.614 7.335s2.931 8.261 7.335 8.614l50.408 4.044c.214.017.428.025.641.025 2.112 0 4.149-.837 5.656-2.344 1.657-1.657 2.505-3.959 2.317-6.296l-4.046-50.408c-.354-4.404-4.23-7.696-8.614-7.335-4.404.354-7.688 4.211-7.335 8.614l2.334 29.078c-47.248-43.686-108.461-67.686-173.001-67.686-52.267 0-102.516 15.717-145.314 45.451-3.629 2.521-4.526 7.506-2.006 11.135 2.521 3.629 7.506 4.527 11.134 2.006zm290.362 296.792c1.5 1.5 2.343 3.535 2.343 5.656 0 2.122-.843 4.156-2.344 5.657l-42.48 42.479c-3.123 3.125-8.188 3.123-11.313 0l-16.777-16.778c-14.174 8.652-29.451 14.984-45.566 18.887v23.715c0 4.418-3.582 8-8 8h-60.074c-4.418 0-8-3.582-8-8v-23.715c-16.107-3.899-31.386-10.231-45.566-18.888l-16.779 16.78c-1.501 1.5-3.535 2.343-5.657 2.343s-4.156-.843-5.657-2.343l-42.479-42.48c-1.5-1.501-2.343-3.535-2.343-5.657s.843-4.156 2.344-5.657l16.778-16.778c-8.652-14.173-14.985-29.453-18.888-45.567h-23.718c-4.418 0-8-3.582-8-8v-60.074c0-4.418 3.582-8 8-8h23.716c3.899-16.108 10.232-31.386 18.888-45.565l-16.781-16.78c-1.5-1.501-2.343-3.535-2.343-5.657s.843-4.156 2.344-5.657l42.48-42.479c3.123-3.123 8.189-3.123 11.312 0l16.78 16.779c14.174-8.651 29.451-14.983 45.566-18.886v-23.719c0-4.418 3.582-8 8-8h60.074c4.418 0 8 3.582 8 8v23.718c16.106 3.899 31.384 10.231 45.564 18.888l16.782-16.781c3.125-3.123 8.19-3.122 11.313.001l42.479 42.479c3.124 3.125 3.124 8.189 0 11.313l-16.78 16.781c8.652 14.175 14.984 29.451 18.887 45.564h23.719c4.418 0 8 3.582 8 8v60.074c0 4.418-3.582 8-8 8h-23.718c-3.899 16.108-10.231 31.386-18.887 45.565zm-16.971 5.656-15.667-15.668c-2.697-2.697-3.114-6.924-.997-10.097 10.545-15.803 17.769-33.231 21.47-51.802.746-3.742 4.03-6.437 7.846-6.437h22.143v-44.074h-22.144c-3.815 0-7.1-2.694-7.846-6.436-3.705-18.579-10.929-36.007-21.471-51.8-2.117-3.173-1.7-7.4.997-10.098l15.668-15.669-31.165-31.166-15.669 15.668c-2.697 2.696-6.923 3.116-10.097.997-15.805-10.546-33.233-17.77-51.801-21.471-3.742-.746-6.437-4.03-6.437-7.846v-22.141h-44.074v22.144c0 3.815-2.694 7.1-6.436 7.846-18.582 3.706-36.011 10.929-51.802 21.47-3.174 2.116-7.401 1.699-10.098-.997l-15.668-15.667-31.167 31.165 15.668 15.667c2.697 2.698 3.114 6.925.997 10.098-10.545 15.803-17.769 33.231-21.471 51.802-.746 3.742-4.03 6.437-7.846 6.437h-22.138v44.074h22.141c3.815 0 7.1 2.694 7.846 6.436 3.705 18.581 10.93 36.011 21.472 51.804 2.117 3.173 1.7 7.4-.998 10.099l-15.666 15.665 31.166 31.167 15.666-15.667c2.699-2.697 6.924-3.116 10.098-.997 15.805 10.546 33.233 17.77 51.803 21.471 3.742.746 6.437 4.03 6.437 7.846v22.137h44.074v-22.141c0-3.814 2.693-7.099 6.435-7.846 18.582-3.706 36.011-10.931 51.803-21.472 3.175-2.116 7.4-1.699 10.099.997l15.665 15.666zm-35.604-106.039c0 56.022-45.578 101.601-101.601 101.601s-101.601-45.578-101.601-101.601 45.578-101.602 101.601-101.602 101.601 45.579 101.601 101.602zm-16 0c0-47.201-38.4-85.602-85.601-85.602s-85.601 38.4-85.601 85.602c0 47.2 38.4 85.601 85.601 85.601s85.601-38.401 85.601-85.601zm-28.632-45.026c8.409 8.41 8.409 22.093.001 30.502l-62.866 62.867c-4.07 4.069-9.535 6.315-15.228 6.315-.633 0-1.27-.027-1.907-.084-6.291-.555-11.98-3.803-15.653-8.924l-27.708-34.869c-3.579-4.502-5.192-10.131-4.539-15.849.652-5.717 3.493-10.838 7.997-14.418 4.506-3.582 10.132-5.197 15.852-4.541 5.717.652 10.838 3.493 14.418 7.998l13.344 16.791 45.789-45.789c8.409-8.407 22.09-8.408 30.5.001zm-11.314 11.313c-2.17-2.17-5.703-2.171-7.873.001l-52.13 52.13c-1.614 1.611-3.846 2.458-6.112 2.33-2.276-.13-4.39-1.225-5.808-3.01l-18.923-23.812c-.921-1.158-2.238-1.889-3.708-2.057-.215-.024-.428-.037-.641-.037-1.246 0-2.448.418-3.438 1.205-1.159.922-1.89 2.239-2.058 3.71s.247 2.919 1.168 4.077l27.846 35.043c.103.129.201.262.296.396 1.301 1.863 3.127 2.286 4.101 2.371.966.095 2.818-.01 4.415-1.607l62.865-62.866c2.171-2.17 2.171-5.702 0-7.874z"/></svg>