<svg id="Capa_1" enable-background="new 0 0 512 512" viewBox="0 0 512 512" xmlns="http://www.w3.org/2000/svg"><g><path d="m445.461 145.665h-11.264c7.409-25.659 1.918-53.317-15.318-74.374-2.625-3.206-7.348-3.675-10.555-1.053-3.205 2.624-3.677 7.349-1.053 10.555 15.004 18.329 19.109 42.79 11.168 64.872h-35.805c-26.806-44.062-74.919-71.257-126.634-71.257s-99.828 27.195-126.635 71.257h-35.801c-8.776-24.364-2.867-51.333 15.675-69.874 19.685-19.686 48.867-25.137 74.346-13.892 1.874.827 4.006.852 5.898.067 1.893-.783 3.383-2.308 4.123-4.219 10.065-25.968 34.556-42.747 62.394-42.747s52.329 16.779 62.394 42.748c.74 1.911 2.23 3.436 4.123 4.219s4.022.76 5.898-.067c17.068-7.533 36.67-7.583 53.779-.134 3.803 1.652 8.218-.087 9.871-3.883 1.653-3.798-.085-8.218-3.883-9.871-18.641-8.114-39.694-8.96-58.827-2.545-6.1-12.291-15.175-22.834-26.555-30.777-13.77-9.61-29.953-14.69-46.8-14.69s-33.03 5.08-46.8 14.69c-11.378 7.941-20.453 18.482-26.554 30.771-13.002-4.376-26.871-5.412-40.534-2.983-16.532 2.941-31.567 10.793-43.48 22.705-11.912 11.913-19.764 26.948-22.705 43.48-2.211 12.431-1.539 25.034 1.895 37.001h-11.283c-23.731 0-43.039 19.308-43.039 43.039v67.694c0 23.731 19.308 43.039 43.039 43.039h11.283c-3.434 11.968-4.106 24.57-1.895 37.002 1.77 9.947 5.329 19.345 10.469 27.854l-8.509 19.193c-1.679 3.787.03 8.218 3.816 9.896.988.438 2.021.646 3.036.646 2.876 0 5.62-1.664 6.86-4.462l5.145-11.606c12.099 12.959 27.965 21.579 45.367 24.665 13.664 2.429 27.532 1.393 40.534-2.984 7.216 14.599 18.931 26.953 33.257 34.971l-26.267 59.245c-1.255 2.831-3.79 3.142-4.821 3.144-1.048 0-3.572-.308-4.834-3.124l-28.648-63.959c-1.566-3.5-5.522-5.256-9.169-4.065l-66.633 21.715c-2.94.961-4.868-.717-5.561-1.483-.691-.766-2.163-2.853-.908-5.684l8.351-18.836c1.679-3.787-.03-8.218-3.816-9.896-3.789-1.681-8.219.03-9.896 3.816l-8.351 18.836c-3.292 7.427-1.956 15.785 3.486 21.815 5.443 6.028 13.618 8.212 21.344 5.693l60.221-19.625 25.892 57.805c3.315 7.4 10.405 11.993 18.511 11.992 8.164-.016 15.255-4.638 18.547-12.063l26.244-59.195c8.427 2.87 17.318 4.362 26.406 4.362s17.979-1.491 26.406-4.362l26.244 59.195c3.292 7.426 10.383 12.048 18.505 12.063 8.147 0 15.237-4.592 18.553-11.993l25.892-57.804 60.221 19.625c7.722 2.517 15.9.335 21.344-5.693 5.442-6.03 6.778-14.389 3.486-21.815l-31.046-70.026c5.14-8.509 8.699-17.907 10.469-27.854 2.211-12.432 1.539-25.034-1.895-37.002h11.283c23.731 0 43.039-19.308 43.039-43.039v-67.694c-.001-23.732-19.309-43.04-43.04-43.04zm-189.461-56.257c43.35 0 83.89 21.261 108.702 56.257h-217.404c24.812-34.996 65.352-56.257 108.702-56.257zm0 340.696c-27.513.041-52.316-16.649-62.394-42.749-.74-1.911-2.23-3.436-4.123-4.219-1.895-.784-4.023-.762-5.898.067-25.481 11.248-54.661 5.796-74.346-13.891-18.207-18.035-24.59-45.48-15.675-69.875h35.802c26.807 44.062 74.919 71.258 126.635 71.258s99.827-27.196 126.635-71.258h35.802c8.915 24.394 2.532 51.84-15.675 69.875-19.684 19.686-48.866 25.137-74.346 13.891-1.874-.827-4.007-.852-5.898-.067-1.893.783-3.383 2.308-4.123 4.219-10.081 26.1-34.883 42.789-62.396 42.749zm-108.702-130.666h217.404c-24.813 34.996-65.352 56.257-108.702 56.257s-83.889-21.261-108.702-56.257zm295.64 140.961c1.255 2.831-.217 4.918-.908 5.684-.692.766-2.619 2.445-5.561 1.483l-66.633-21.715c-3.648-1.19-7.602.565-9.169 4.065l-28.648 63.958c-1.262 2.817-3.786 3.125-4.823 3.125-1.042-.002-3.577-.312-4.832-3.144l-26.267-59.245c14.326-8.019 26.04-20.371 33.257-34.971 13.003 4.376 26.872 5.414 40.534 2.984 17.402-3.085 33.269-11.706 45.368-24.665zm30.562-184.001c0 15.461-12.578 28.039-28.039 28.039h-378.922c-15.461 0-28.039-12.578-28.039-28.039v-67.694c0-15.461 12.578-28.039 28.039-28.039h378.922c15.461 0 28.039 12.578 28.039 28.039z"/><path d="m101.098 197.036c4.143 0 7.5-3.357 7.5-7.5s-3.357-7.5-7.5-7.5h-28.082c-4.143 0-7.5 3.357-7.5 7.5v66.646c0 4.143 3.357 7.5 7.5 7.5h28.082c4.143 0 7.5-3.357 7.5-7.5s-3.357-7.5-7.5-7.5h-20.582v-18.323h18.512c4.143 0 7.5-3.357 7.5-7.5s-3.357-7.5-7.5-7.5h-18.512v-18.322h20.582z"/><path d="m308.699 197.036c4.143 0 7.5-3.357 7.5-7.5s-3.357-7.5-7.5-7.5h-28.082c-4.143 0-7.5 3.357-7.5 7.5v66.646c0 4.143 3.357 7.5 7.5 7.5h28.082c4.143 0 7.5-3.357 7.5-7.5s-3.357-7.5-7.5-7.5h-20.582v-18.323h18.512c4.143 0 7.5-3.357 7.5-7.5s-3.357-7.5-7.5-7.5h-18.512v-18.322h20.582z"/><path d="m165.9 220.167 18.968-26.925c2.385-3.387 1.574-8.065-1.812-10.451-3.389-2.386-8.065-1.573-10.451 1.812l-15.872 22.531-15.847-22.527c-2.382-3.386-7.059-4.204-10.449-1.818-3.388 2.383-4.202 7.062-1.818 10.449l18.939 26.922-22.333 31.703c-2.385 3.387-1.574 8.065 1.812 10.451 1.313.925 2.82 1.369 4.312 1.369 2.357 0 4.678-1.108 6.139-3.182l19.238-27.309 19.208 27.305c1.46 2.075 3.781 3.186 6.141 3.186 1.49 0 2.996-.443 4.309-1.367 3.388-2.383 4.202-7.062 1.818-10.449z"/><path d="m438.984 181.422h-37.144c-4.143 0-7.5 3.357-7.5 7.5s3.357 7.5 7.5 7.5h10.997v59.76c0 4.143 3.357 7.5 7.5 7.5s7.5-3.357 7.5-7.5v-59.76h11.147c4.143 0 7.5-3.357 7.5-7.5s-3.357-7.5-7.5-7.5z"/><path d="m382.764 206.401c0-13.773-11.65-24.979-25.97-24.979h-17.873c-4.164 0-7.521 3.357-7.521 7.5v67.26c0 4.143 3.357 7.5 7.5 7.5s7.5-3.357 7.5-7.5v-21.443l23.234 26.398c2.745 3.118 7.488 3.403 10.585.675 3.109-2.736 3.411-7.476.675-10.585l-18.071-20.532c11.42-2.623 19.941-12.516 19.941-24.294zm-25.97 9.981c-2.408 0-6.654.018-10.395.037v-19.997h10.395c5.946 0 10.97 4.57 10.97 9.979 0 5.411-5.024 9.981-10.97 9.981z"/><path d="m230.911 181.422h-18.728c-4.143 0-7.5 3.357-7.5 7.5v67.26c0 4.143 3.357 7.5 7.5 7.5s7.5-3.357 7.5-7.5v-21.757c3.991-.021 8.633-.042 11.228-.042 14.807 0 26.853-11.879 26.853-26.48s-12.046-26.481-26.853-26.481zm0 37.961c-2.595 0-7.229.021-11.228.042v-23.003h11.228c6.425 0 11.853 5.258 11.853 11.48s-5.428 11.481-11.853 11.481z"/></g><g/><g/><g/><g/><g/><g/><g/><g/><g/><g/><g/><g/><g/><g/><g/></svg>