<svg width="128" height="128" viewBox="0 0 128 128" fill="none" xmlns="http://www.w3.org/2000/svg">
<g clip-path="url(#clip0_0_1)">
<path d="M97.9 43C98.7222 43 99.5107 42.6734 100.092 42.0921C100.673 41.5107 101 40.7222 101 39.9V34.2C101 33.3779 100.673 32.5894 100.092 32.008C99.5107 31.4266 98.7222 31.1 97.9 31.1H96.5C96.178 29.3309 95.7097 27.5916 95.1 25.9L96.3 25.2C97.0138 24.8 97.5406 24.1341 97.7654 23.3473C97.9902 22.5605 97.8948 21.7168 97.5 21L94.7 16.1C94.4936 15.7416 94.2175 15.4281 93.8881 15.178C93.5587 14.9279 93.1826 14.7462 92.7818 14.6437C92.3811 14.5412 91.964 14.5199 91.5549 14.5811C91.1458 14.6423 90.7532 14.7847 90.4 15L89.2 15.7C88.0394 14.3316 86.7685 13.0606 85.4 11.9L86.1 10.7C86.3153 10.3469 86.4577 9.95418 86.5189 9.54512C86.5801 9.13606 86.5588 8.71889 86.4563 8.31818C86.3538 7.91747 86.1722 7.54132 85.922 7.2119C85.6719 6.88247 85.3584 6.60643 85 6.40003L80.1 3.50003C79.7468 3.28474 79.3541 3.1423 78.9451 3.0811C78.536 3.01991 78.1189 3.04119 77.7181 3.1437C77.3174 3.24621 76.9413 3.42786 76.6119 3.67798C76.2824 3.92809 76.0064 4.24159 75.8 4.60003L75.1 5.80003C73.4377 5.23037 71.7322 4.79563 70 4.50003V3.10003C70.0002 2.68438 69.9168 2.27293 69.7548 1.89015C69.5928 1.50737 69.3555 1.16108 69.057 0.871868C68.7584 0.582661 68.4048 0.356442 68.017 0.206667C67.6293 0.0568916 67.2154 -0.0133816 66.8 2.65191e-05H61.2C60.7846 -0.0133816 60.3707 0.0568916 59.9829 0.206667C59.5952 0.356442 59.2416 0.582661 58.943 0.871868C58.6445 1.16108 58.4072 1.50737 58.2452 1.89015C58.0832 2.27293 57.9998 2.68438 58 3.10003V4.50003C56.2311 4.82293 54.4919 5.29119 52.8 5.90003L52.1 4.70003C51.8936 4.34159 51.6176 4.02809 51.2881 3.77798C50.9587 3.52786 50.5826 3.34621 50.1818 3.2437C49.7811 3.14119 49.364 3.11991 48.9549 3.1811C48.5458 3.2423 48.1532 3.38474 47.8 3.60003L43.1 6.40003C42.7416 6.60643 42.4281 6.88247 42.1779 7.2119C41.9278 7.54132 41.7462 7.91747 41.6437 8.31818C41.5412 8.71889 41.5199 9.13606 41.5811 9.54512C41.6423 9.95418 41.7847 10.3469 42 10.7L42.7 11.9C41.3315 13.0606 40.0606 14.3316 38.9 15.7L37.7 15C37.3468 14.7847 36.9542 14.6423 36.5451 14.5811C36.136 14.5199 35.7189 14.5412 35.3181 14.6437C34.9174 14.7462 34.5413 14.9279 34.2119 15.178C33.8824 15.4281 33.6064 15.7416 33.4 16.1L30.6 21C30.3847 21.3532 30.2423 21.7459 30.1811 22.1549C30.1199 22.564 30.1412 22.9812 30.2437 23.3819C30.3462 23.7826 30.5278 24.1587 30.7779 24.4882C31.0281 24.8176 31.3416 25.0936 31.7 25.3L32.9 26C32.2903 27.6916 31.822 29.4309 31.5 31.2H30.1C29.2949 31.1996 28.5211 31.5125 27.9426 32.0724C27.364 32.6323 27.026 33.3953 27 34.2V39.8C26.9866 40.2155 27.0569 40.6294 27.2066 41.0171C27.3564 41.4048 27.5826 41.7585 27.8718 42.057C28.161 42.3555 28.5073 42.5929 28.8901 42.7549C29.2729 42.9169 29.6843 43.0002 30.1 43H31.5C31.822 44.7691 32.2903 46.5084 32.9 48.2L31.7 48.9C31.3416 49.1064 31.0281 49.3825 30.7779 49.7119C30.5278 50.0413 30.3462 50.4175 30.2437 50.8182C30.1412 51.2189 30.1199 51.6361 30.1811 52.0451C30.2423 52.4542 30.3847 52.8469 30.6 53.2L33.4 58C33.6064 58.3585 33.8824 58.672 34.2119 58.9221C34.5413 59.1722 34.9174 59.3538 35.3181 59.4564C35.7189 59.5589 36.136 59.5801 36.5451 59.5189C36.9542 59.4578 37.3468 59.3153 37.7 59.1L38.9 58.4C40.0606 59.7685 41.3315 61.0394 42.7 62.2L42 63.4C41.7847 63.7532 41.6423 64.1459 41.5811 64.5549C41.5199 64.964 41.5412 65.3812 41.6437 65.7819C41.7462 66.1826 41.9278 66.5587 42.1779 66.8882C42.4281 67.2176 42.7416 67.4936 43.1 67.7L48 70.5C48.3532 70.7153 48.7458 70.8577 49.1549 70.9189C49.564 70.9801 49.9811 70.9589 50.3818 70.8564C50.7826 70.7538 51.1587 70.5722 51.4881 70.3221C51.8176 70.072 52.0936 69.7585 52.3 69.4L53 68.2C54.6298 68.7645 56.3017 69.1992 58 69.5V70.8C57.9861 71.224 58.0593 71.6463 58.2152 72.0409C58.3711 72.4354 58.6063 72.7938 58.9063 73.0937C59.2063 73.3937 59.5646 73.6289 59.9591 73.7848C60.3537 73.9407 60.776 74.0139 61.2 74H66.8C67.2154 74.0134 67.6293 73.9432 68.017 73.7934C68.4048 73.6436 68.7584 73.4174 69.057 73.1282C69.3555 72.839 69.5928 72.4927 69.7548 72.1099C69.9168 71.7271 70.0002 71.3157 70 70.9V69.5C71.7689 69.1771 73.5081 68.7089 75.2 68.1L75.9 69.3C76.1064 69.6585 76.3824 69.972 76.7119 70.2221C77.0413 70.4722 77.4174 70.6538 77.8181 70.7563C78.2189 70.8589 78.636 70.8801 79.0451 70.8189C79.4541 70.7578 79.8468 70.6153 80.2 70.4L85.1 67.6C85.4584 67.3936 85.7719 67.1176 86.022 66.7882C86.2722 66.4587 86.4538 66.0826 86.5563 65.6819C86.6588 65.2812 86.6801 64.864 86.6189 64.4549C86.5577 64.0459 86.4153 63.6532 86.2 63.3L85.5 62.1C86.8685 60.9394 88.1394 59.6685 89.3 58.3L90.5 59C91.1834 59.3818 91.9859 59.4909 92.7464 59.3054C93.5069 59.1199 94.1691 58.6536 94.6 58L97.4 53.1C97.6153 52.7469 97.7577 52.3542 97.8189 51.9451C97.8801 51.5361 97.8588 51.1189 97.7563 50.7182C97.6538 50.3175 97.4722 49.9413 97.222 49.6119C96.9719 49.2825 96.6584 49.0064 96.3 48.8L95.1 48.1C95.7044 46.4409 96.1726 44.7352 96.5 43H97.9ZM94.8 39C94.3177 38.9946 93.8496 39.1636 93.4821 39.476C93.1146 39.7884 92.8723 40.2231 92.8 40.7C92.4773 43.2793 91.8044 45.8025 90.8 48.2C90.6095 48.6432 90.5855 49.1402 90.7325 49.5996C90.8795 50.059 91.1876 50.4498 91.6 50.7L93.5 51.8L91.5 55.2L89.6 54.1C89.1802 53.8521 88.6842 53.7661 88.2054 53.8582C87.7266 53.9503 87.2979 54.2141 87 54.6C85.4238 56.6736 83.5736 58.5238 81.5 60.1C81.1141 60.398 80.8503 60.8267 80.7582 61.3054C80.6661 61.7842 80.7521 62.2802 81 62.7L82.1 64.6L78.7 66.6L77.6 64.7C77.3498 64.2876 76.959 63.9795 76.4996 63.8325C76.0402 63.6855 75.5431 63.7095 75.1 63.9C72.7978 64.8787 70.3771 65.5511 67.9 65.9C67.6291 65.8865 67.3582 65.9282 67.1039 66.0226C66.8496 66.117 66.6171 66.2622 66.4207 66.4492C66.2242 66.6363 66.0679 66.8614 65.9612 67.1108C65.8545 67.3602 65.7997 67.6287 65.8 67.9V70H62V67.8C62 67.2696 61.7893 66.7609 61.4142 66.3858C61.0391 66.0107 60.5304 65.8 60 65.8C57.5229 65.4511 55.1022 64.7787 52.8 63.8C52.3569 63.6095 51.8598 63.5855 51.4004 63.7325C50.941 63.8795 50.5502 64.1876 50.3 64.6L49.2 66.5L45.8 64.5L46.9 62.6C47.1479 62.1802 47.2339 61.6842 47.1418 61.2054C47.0497 60.7266 46.7859 60.298 46.4 60C44.3264 58.4238 42.4762 56.5736 40.9 54.5C40.602 54.1141 40.1734 53.8503 39.6946 53.7582C39.2158 53.6661 38.7198 53.7521 38.3 54L36.4 55.1L34.4 51.7L36.3 50.6C36.7124 50.3498 37.0205 49.959 37.1675 49.4996C37.3145 49.0402 37.2905 48.5432 37.1 48.1C36.0956 45.7025 35.4227 43.1793 35.1 40.6C35.0277 40.1231 34.7854 39.6884 34.4179 39.376C34.0504 39.0636 33.5823 38.8946 33.1 38.9H31V35.1H33.2C33.6823 35.1055 34.1504 34.9364 34.5179 34.624C34.8854 34.3116 35.1277 33.8769 35.2 33.4C35.5227 30.8208 36.1956 28.2975 37.2 25.9C37.3905 25.4569 37.4145 24.9598 37.2675 24.5004C37.1205 24.041 36.8124 23.6502 36.4 23.4L34.5 22.3L36.5 18.9L38.4 20C38.8198 20.2479 39.3158 20.3339 39.7946 20.2418C40.2734 20.1498 40.702 19.886 41 19.5C42.5753 17.4256 44.4256 15.5753 46.5 14C46.8859 13.7021 47.1497 13.2734 47.2418 12.7946C47.3339 12.3158 47.2479 11.8199 47 11.4L45.8 9.40003L49.2 7.40003L50.3 9.30003C50.5502 9.71243 50.941 10.0205 51.4004 10.1675C51.8598 10.3145 52.3569 10.2906 52.8 10.1C55.1975 9.09563 57.7207 8.42277 60.3 8.10003C60.7769 8.0277 61.2116 7.78546 61.524 7.41793C61.8364 7.0504 62.0054 6.58235 62 6.10003V4.00003H66V6.20003C65.9945 6.68235 66.1636 7.1504 66.476 7.51793C66.7884 7.88546 67.2231 8.1277 67.7 8.20003C70.2793 8.52277 72.8025 9.19563 75.2 10.2C75.6431 10.3906 76.1402 10.4145 76.5996 10.2675C77.059 10.1205 77.4498 9.81243 77.7 9.40003L78.8 7.50003L82.2 9.50003L81.1 11.4C80.8521 11.8199 80.7661 12.3158 80.8582 12.7946C80.9502 13.2734 81.2141 13.7021 81.6 14C83.6744 15.5753 85.5247 17.4256 87.1 19.5C87.3979 19.886 87.8266 20.1498 88.3054 20.2418C88.7842 20.3339 89.2801 20.2479 89.7 20L91.6 18.9L93.6 22.3L91.7 23.4C91.2876 23.6502 90.9795 24.041 90.8325 24.5004C90.6855 24.9598 90.7095 25.4569 90.9 25.9C91.9044 28.2975 92.5773 30.8208 92.9 33.4C92.9723 33.8769 93.2146 34.3116 93.5821 34.624C93.9496 34.9364 94.4177 35.1055 94.9 35.1H97V39H94.8Z" fill="#E65402"/>
<path d="M71 33.8C71.9749 32.4644 72.5002 30.8536 72.5 29.2C72.2717 27.0918 71.2725 25.1423 69.6944 23.7259C68.1163 22.3094 66.0705 21.526 63.95 21.526C61.8295 21.526 59.7837 22.3094 58.2056 23.7259C56.6275 25.1423 55.6283 27.0918 55.4 29.2C55.4287 30.8648 55.9893 32.4767 57 33.8C55.7635 33.7813 54.5608 34.204 53.6078 34.992C52.6548 35.7801 52.0139 36.882 51.8 38.1L50 46.6C49.9477 47.0941 50.0813 47.5901 50.3747 47.9911C50.6681 48.3922 51.1002 48.6696 51.587 48.7695C52.0738 48.8693 52.5803 48.7844 53.0079 48.5312C53.4354 48.2781 53.7535 47.8748 53.9 47.4L55.7 38.8C55.7708 38.5179 55.9417 38.2712 56.1808 38.1056C56.4199 37.9401 56.711 37.867 57 37.9H71C71.2889 37.867 71.58 37.9401 71.8192 38.1056C72.0583 38.2712 72.2292 38.5179 72.3 38.8L74 47.4C74.0935 47.8585 74.3448 48.2698 74.7103 48.5621C75.0757 48.8545 75.5321 49.0094 76 49H76.4C76.6651 48.9525 76.918 48.8518 77.1433 48.7042C77.3686 48.5566 77.5617 48.3649 77.7112 48.1408C77.8606 47.9166 77.9632 47.6646 78.0128 47.3999C78.0625 47.1351 78.0581 46.863 78 46.6L76.2 38.1C75.9861 36.882 75.3451 35.7801 74.3921 34.992C73.4391 34.204 72.2365 33.7813 71 33.8ZM64 25C65.1339 24.9716 66.235 25.3822 67.0735 26.1461C67.912 26.9101 68.423 27.9683 68.5 29.1C68.3378 30.1908 67.7892 31.187 66.954 31.9072C66.1189 32.6274 65.0528 33.0236 63.95 33.0236C62.8472 33.0236 61.7811 32.6274 60.9459 31.9072C60.1108 31.187 59.5621 30.1908 59.4 29.1C59.4772 27.9504 60.0023 26.877 60.8625 26.1103C61.7226 25.3437 62.8491 24.945 64 25Z" fill="#E65402"/>
<path d="M64 14C59.451 14 55.0042 15.3489 51.2219 17.8762C47.4396 20.4035 44.4916 23.9956 42.7508 28.1983C41.01 32.401 40.5545 37.0255 41.4419 41.4871C42.3294 45.9486 44.5199 50.0468 47.7365 53.2635C50.9531 56.4801 55.0514 58.6706 59.5129 59.5581C63.9745 60.4455 68.599 59.99 72.8017 58.2492C77.0044 56.5084 80.5965 53.5604 83.1238 49.7781C85.6511 45.9958 87 41.549 87 37C87 30.9 84.5768 25.0499 80.2635 20.7365C75.9501 16.4232 70.1 14 64 14ZM64 56C60.2422 56 56.5687 54.8857 53.4442 52.7979C50.3196 50.7102 47.8844 47.7428 46.4463 44.271C45.0082 40.7992 44.632 36.9789 45.3651 33.2933C46.0982 29.6076 47.9078 26.2222 50.565 23.565C53.2222 20.9078 56.6076 19.0982 60.2933 18.3651C63.9789 17.632 67.7992 18.0082 71.271 19.4463C74.7428 20.8844 77.7102 23.3196 79.7979 26.4442C81.8857 29.5687 83 33.2422 83 37C83 42.0391 80.9982 46.8718 77.435 50.435C73.8718 53.9982 69.0391 56 64 56ZM45 126.3C45.3748 125.882 45.6576 125.39 45.8298 124.856C46.0021 124.322 46.0601 123.758 46 123.2L42.1 90.1C41.8854 88.971 41.2728 87.9565 40.3736 87.2408C39.4745 86.5252 38.3484 86.1558 37.2 86.2H33.9V84.4C33.8975 83.6536 33.7458 82.9153 33.4539 82.2283C33.1619 81.5414 32.7356 80.9198 32.2 80.4C30.5267 78.8201 28.301 77.9585 26 78H25.9C21.5 78 18 80.8 17.9 84.3V86.2H12.9C11.7516 86.1558 10.6255 86.5252 9.72636 87.2408C8.82719 87.9565 8.21462 88.971 8 90.1L4 123.2C3.93989 123.758 3.99787 124.322 4.17016 124.856C4.34244 125.39 4.62518 125.882 5 126.3C5.50463 126.855 6.12341 127.295 6.81387 127.588C7.50432 127.881 8.25009 128.022 9 128H41C41.7499 128.022 42.4957 127.881 43.1861 127.588C43.8766 127.295 44.4954 126.855 45 126.3ZM22 84.3C22 83.2 23.7 81.9 26 81.9C27.2447 81.8533 28.4604 82.2824 29.4 83.1C29.7191 83.418 29.8989 83.8496 29.9 84.3V86.1H21.9L22 84.3ZM8 123.7L11.9 90.6C12.0184 90.4532 12.1726 90.3393 12.3477 90.2692C12.5228 90.1992 12.713 90.1753 12.9 90.2H17.9V92C17.3696 92.0398 16.8767 92.2886 16.5297 92.6918C16.1828 93.0951 16.0102 93.6196 16.05 94.15C16.0898 94.6804 16.3386 95.1733 16.7418 95.5203C17.1451 95.8672 17.6696 96.0398 18.2 96H21.7C22.2304 96.0398 22.7549 95.8672 23.1581 95.5203C23.5613 95.1733 23.8102 94.6804 23.85 94.15C23.8898 93.6196 23.7172 93.0951 23.3703 92.6918C23.0233 92.2886 22.5304 92.0398 22 92V90.2H30V92C29.4696 92.053 28.9819 92.3146 28.6444 92.7272C28.3068 93.1398 28.147 93.6696 28.2 94.2C28.253 94.7304 28.5146 95.2181 28.9272 95.5556C29.3398 95.8932 29.8696 96.053 30.4 96H33.9C34.1626 96.0131 34.4253 95.9744 34.673 95.886C34.9207 95.7976 35.1485 95.6614 35.3435 95.4849C35.5385 95.3085 35.6968 95.0954 35.8095 94.8578C35.9221 94.6201 35.9869 94.3626 36 94.1C36.0131 93.8374 35.9744 93.5747 35.886 93.327C35.7976 93.0793 35.6614 92.8515 35.4849 92.6565C35.3085 92.4615 35.0954 92.3031 34.8577 92.1905C34.6201 92.0779 34.3626 92.0131 34.1 92V90.2H37.4C37.5863 90.1841 37.7738 90.2121 37.9474 90.2815C38.121 90.351 38.276 90.46 38.4 90.6L42.3 123.6C42.1816 123.747 42.0274 123.861 41.8523 123.931C41.6772 124.001 41.487 124.025 41.3 124H9C8.82163 124.022 8.64068 124.006 8.46856 123.955C8.29644 123.903 8.13689 123.816 8 123.7ZM122 116H92.1C91.9616 115.986 91.8306 115.931 91.7238 115.841C91.6169 115.752 91.539 115.634 91.5 115.5L91.1 114H113.5C114.314 114.02 115.113 113.778 115.779 113.31C116.445 112.842 116.943 112.173 117.2 111.4L123.5 90.7C123.664 90.18 123.704 89.629 123.617 89.0908C123.53 88.5526 123.319 88.0421 123 87.6C122.633 87.1294 122.162 86.7494 121.625 86.4893C121.087 86.2292 120.497 86.096 119.9 86.1H119.5C120.561 84.575 120.972 82.691 120.644 80.8626C120.316 79.0341 119.275 77.4109 117.75 76.35C116.225 75.2891 114.341 74.8775 112.513 75.2057C110.684 75.5339 109.061 76.575 108 78.1C107.348 77.4348 106.57 76.9063 105.712 76.5456C104.853 76.1848 103.931 75.999 103 75.999C102.069 75.999 101.147 76.1848 100.288 76.5456C99.4297 76.9063 98.6517 77.4348 98 78.1C96.8372 76.9351 95.3011 76.2173 93.6616 76.0725C92.0221 75.9277 90.384 76.3653 89.035 77.3084C87.6861 78.2514 86.7126 79.6397 86.2856 81.2292C85.8585 82.8187 86.0053 84.5079 86.7 86H84.6C84.0108 86.0065 83.4303 86.1431 82.9 86.4L82.3 84.2C82.1995 83.8973 82.0281 83.623 81.8 83.4C81.668 82.9786 81.4002 82.6127 81.0384 82.3594C80.6766 82.1062 80.2412 81.9798 79.8 82H75C74.4696 82 73.9609 82.2107 73.5858 82.5858C73.2107 82.9609 73 83.4696 73 84C73 84.5304 73.2107 85.0391 73.5858 85.4142C73.9609 85.7893 74.4696 86 75 86H78.6L87.6 116.5C87.8063 117.208 88.1763 117.858 88.6801 118.396C89.1839 118.935 89.8073 119.347 90.5 119.6C90.0809 120.487 89.8894 121.464 89.9429 122.443C89.9964 123.423 90.2932 124.373 90.8065 125.209C91.3198 126.045 92.0333 126.739 92.8825 127.23C93.7317 127.721 94.6899 127.992 95.6703 128.019C96.6507 128.046 97.6224 127.829 98.4976 127.386C99.3727 126.943 100.124 126.289 100.683 125.483C101.241 124.677 101.591 123.745 101.698 122.77C101.806 121.795 101.669 120.809 101.3 119.9H105.8C105.453 120.794 105.329 121.759 105.439 122.712C105.549 123.665 105.89 124.576 106.431 125.368C106.973 126.159 107.7 126.807 108.548 127.254C109.396 127.702 110.341 127.935 111.3 127.935C112.259 127.935 113.204 127.702 114.052 127.254C114.9 126.807 115.627 126.159 116.169 125.368C116.71 124.576 117.051 123.665 117.161 122.712C117.271 121.759 117.147 120.794 116.8 119.9H122C122.53 119.9 123.039 119.689 123.414 119.314C123.789 118.939 124 118.43 124 117.9C124 117.37 123.789 116.861 123.414 116.486C123.039 116.111 122.53 115.9 122 115.9V116ZM111.3 124C110.924 124 110.557 123.889 110.244 123.68C109.932 123.471 109.688 123.174 109.545 122.827C109.401 122.48 109.363 122.098 109.437 121.729C109.51 121.361 109.691 121.022 109.956 120.757C110.222 120.491 110.561 120.31 110.929 120.237C111.298 120.163 111.68 120.201 112.027 120.345C112.374 120.488 112.671 120.732 112.88 121.044C113.089 121.357 113.2 121.724 113.2 122.1C113.2 122.604 113 123.087 112.643 123.444C112.287 123.8 111.804 124 111.3 124ZM106.8 90L105.5 98H97.8L96 90H106.8ZM104.9 102L103.6 110H100.5L98.7 102H104.9ZM96.4 110H90.9L90.4 109.7L88.3 102H94.6L96.4 110ZM113.4 110H107.7L109 102H115.8L113.4 110ZM117 98H109.6L110.9 90H119.4L117 98ZM113 80C113.593 80 114.173 80.1759 114.667 80.5056C115.16 80.8352 115.545 81.3038 115.772 81.852C115.999 82.4001 116.058 83.0033 115.942 83.5853C115.827 84.1672 115.541 84.7018 115.121 85.1213C114.702 85.5409 114.167 85.8266 113.585 85.9424C113.003 86.0581 112.4 85.9987 111.852 85.7716C111.304 85.5446 110.835 85.1601 110.506 84.6667C110.176 84.1734 110 83.5933 110 83C110 82.2044 110.316 81.4413 110.879 80.8787C111.441 80.3161 112.204 80 113 80ZM103 80C103.593 80 104.173 80.1759 104.667 80.5056C105.16 80.8352 105.545 81.3038 105.772 81.852C105.999 82.4001 106.058 83.0033 105.942 83.5853C105.827 84.1672 105.541 84.7018 105.121 85.1213C104.702 85.5409 104.167 85.8266 103.585 85.9424C103.003 86.0581 102.4 85.9987 101.852 85.7716C101.304 85.5446 100.835 85.1601 100.506 84.6667C100.176 84.1734 100 83.5933 100 83C100 82.2044 100.316 81.4413 100.879 80.8787C101.441 80.3161 102.204 80 103 80ZM90 83C90 82.4067 90.1759 81.8266 90.5056 81.3333C90.8352 80.8399 91.3038 80.4554 91.8519 80.2284C92.4001 80.0013 93.0033 79.9419 93.5853 80.0576C94.1672 80.1734 94.7018 80.4591 95.1213 80.8787C95.5409 81.2982 95.8266 81.8328 95.9423 82.4147C96.0581 82.9967 95.9987 83.5999 95.7716 84.148C95.5446 84.6962 95.16 85.1648 94.6667 85.4944C94.1734 85.8241 93.5933 86 93 86C92.2043 86 91.4413 85.6839 90.8787 85.1213C90.3161 84.5587 90 83.7956 90 83ZM91.9 90L93.7 98H87.1L84.9 90H91.9ZM95.9 124C95.5242 124 95.1569 123.889 94.8444 123.68C94.532 123.471 94.2884 123.174 94.1446 122.827C94.0008 122.48 93.9632 122.098 94.0365 121.729C94.1098 121.361 94.2908 121.022 94.5565 120.757C94.8222 120.491 95.1608 120.31 95.5293 120.237C95.8979 120.163 96.2799 120.201 96.6271 120.345C96.9743 120.488 97.271 120.732 97.4798 121.044C97.6886 121.357 97.8 121.724 97.8 122.1C97.8 122.604 97.5998 123.087 97.2435 123.444C96.8872 123.8 96.4039 124 95.9 124ZM8.6 71.4C8.57238 71.6629 8.59715 71.9286 8.67287 72.1819C8.74859 72.4351 8.87375 72.6708 9.04114 72.8754C9.20852 73.08 9.41479 73.2494 9.64803 73.3737C9.88127 73.4981 10.1369 73.575 10.4 73.6L18.8 74.5H19C19.4975 74.5025 19.9781 74.3194 20.3479 73.9866C20.7178 73.6538 20.9502 73.195 21 72.7L21.9 64.5C21.953 63.9696 21.7932 63.4398 21.4556 63.0272C21.1181 62.6146 20.6304 62.353 20.1 62.3C19.5696 62.247 19.0398 62.4068 18.6272 62.7444C18.2146 63.0819 17.953 63.5696 17.9 64.1L17.5 67.7C14.4825 63.7729 13.0811 58.8404 13.5831 53.9134C14.0851 48.9863 16.4525 44.4378 20.2 41.2C20.5269 40.8376 20.71 40.3682 20.7148 39.8803C20.7196 39.3923 20.5459 38.9193 20.2263 38.5506C19.9067 38.1818 19.4632 37.9426 18.9795 37.878C18.4958 37.8134 18.0052 37.928 17.6 38.2C13.1245 42.093 10.2868 47.5344 9.65621 53.4324C9.0256 59.3305 10.6488 65.2488 14.2 70L10.8 69.6C10.5371 69.5724 10.2714 69.5971 10.0181 69.6729C9.76487 69.7486 9.52914 69.8738 9.32456 70.0411C9.11999 70.2085 8.95062 70.4148 8.82625 70.648C8.70188 70.8813 8.62498 71.1369 8.6 71.4ZM109.6 64.1C109.574 63.8374 109.496 63.5825 109.371 63.3499C109.246 63.1173 109.077 62.9115 108.873 62.7444C108.668 62.5772 108.433 62.452 108.181 62.3757C107.928 62.2995 107.663 62.2737 107.4 62.3C107.137 62.3263 106.882 62.404 106.65 62.5288C106.417 62.6536 106.212 62.8229 106.044 63.0272C105.877 63.2315 105.752 63.4667 105.676 63.7194C105.599 63.9721 105.574 64.2374 105.6 64.5L106.5 72.7C106.55 73.195 106.782 73.6538 107.152 73.9866C107.522 74.3194 108.002 74.5025 108.5 74.5H108.9L118.3 72.6C118.577 72.5707 118.846 72.4836 119.087 72.3444C119.329 72.2053 119.539 72.0171 119.704 71.7919C119.869 71.5667 119.984 71.3096 120.044 71.037C120.103 70.7645 120.105 70.4825 120.049 70.2092C119.993 69.9359 119.88 69.6774 119.718 69.4502C119.556 69.223 119.349 69.0323 119.109 68.8901C118.869 68.748 118.601 68.6577 118.324 68.6249C118.047 68.5922 117.767 68.6177 117.5 68.7L113.7 69.5C117.031 64.748 118.485 58.9317 117.784 53.1712C117.082 47.4108 114.274 42.1137 109.9 38.3C109.495 38.028 109.004 37.9134 108.52 37.978C108.037 38.0426 107.593 38.2818 107.274 38.6506C106.954 39.0193 106.78 39.4923 106.785 39.9803C106.79 40.4682 106.973 40.9376 107.3 41.3C111.02 44.5341 113.369 49.0628 113.87 53.9661C114.372 58.8695 112.988 63.7799 110 67.7L109.6 64.1Z" fill="black"/>
</g>
<defs>
<clipPath id="clip0_0_1">
<rect width="128" height="128" fill="white"/>
</clipPath>
</defs>
</svg>
