<svg width="512" height="512" viewBox="0 0 512 512" fill="none" xmlns="http://www.w3.org/2000/svg">
<path d="M346.464 353.6C347.369 351.682 347.476 349.483 346.761 347.486C346.045 345.489 344.566 343.858 342.648 342.952C333.076 338.385 322.606 336.01 312 336H296V331.824C305.839 325.25 313.907 316.352 319.488 305.917C325.069 295.483 327.993 283.833 328 272V245.768C337.781 238.971 345.134 229.227 348.987 217.957C352.84 206.687 352.991 194.48 349.419 183.118C345.846 171.756 338.736 161.833 329.127 154.796C319.517 147.759 307.911 143.976 296 144C293.878 144 291.843 144.843 290.343 146.343C288.843 147.843 288 149.878 288 152C288 154.122 288.843 156.157 290.343 157.657C291.843 159.157 293.878 160 296 160C303.422 159.982 310.701 162.034 317.02 165.926C323.34 169.817 328.449 175.394 331.773 182.03C335.097 188.665 336.505 196.096 335.839 203.488C335.172 210.879 332.458 217.938 328 223.872V208C328 206.784 327.723 205.584 327.189 204.491C326.656 203.398 325.88 202.441 324.922 201.693C323.963 200.945 322.846 200.425 321.657 200.174C320.467 199.922 319.236 199.945 318.056 200.24C278.611 210.091 236.945 205.517 200.576 187.344L195.576 184.84C194.356 184.23 193 183.943 191.638 184.004C190.276 184.066 188.952 184.475 187.792 185.193C186.632 185.91 185.675 186.912 185.011 188.103C184.347 189.295 183.999 190.636 184 192V223.872C178.829 216.985 176.023 208.612 176 200V160H264C266.122 160 268.157 159.157 269.657 157.657C271.157 156.157 272 154.122 272 152C272 149.878 271.157 147.843 269.657 146.343C268.157 144.843 266.122 144 264 144H168C165.878 144 163.843 144.843 162.343 146.343C160.843 147.843 160 149.878 160 152V200C160.036 208.994 162.236 217.848 166.413 225.814C170.59 233.779 176.622 240.623 184 245.768V272C184.007 283.833 186.931 295.483 192.512 305.917C198.093 316.352 206.161 325.25 216 331.824V336H200C180.911 336.021 162.61 343.614 149.112 357.112C135.614 370.61 128.021 388.911 128 408V413.928L127.744 413.472C127.118 403.346 122.662 393.838 115.28 386.878C107.899 379.919 98.1451 376.029 88 376H69.344C65.7875 368.79 60.2828 362.72 53.4535 358.478C46.6242 354.237 38.7434 351.992 30.704 352H24C22.7627 352.001 21.5426 352.289 20.4354 352.841C19.3282 353.393 18.3642 354.195 17.6191 355.182C16.874 356.17 16.3682 357.317 16.1414 358.534C15.9146 359.75 15.973 361.002 16.312 362.192L25.672 394.992C28.0851 403.336 33.1378 410.673 40.0725 415.902C47.0072 421.132 55.4503 423.974 64.136 424H74.8L104.688 491.248C105.549 493.187 107.146 494.705 109.126 495.467C111.107 496.229 113.309 496.173 115.248 495.312C117.187 494.451 118.705 492.854 119.467 490.874C120.229 488.893 120.173 486.691 119.312 484.752L106 454.8L127.848 446.6L153.008 491.88C153.499 492.831 154.176 493.675 155 494.359C155.823 495.044 156.775 495.557 157.8 495.867C158.825 496.177 159.901 496.278 160.966 496.165C162.031 496.051 163.062 495.724 163.998 495.205C164.934 494.685 165.757 493.983 166.417 493.14C167.077 492.297 167.56 491.329 167.84 490.296C168.119 489.262 168.188 488.183 168.042 487.122C167.896 486.061 167.539 485.04 166.992 484.12L144 442.728V408C144.017 393.153 149.922 378.919 160.421 368.421C170.919 357.922 185.153 352.017 200 352H202.232L216.408 394.528C216.769 395.62 217.361 396.622 218.145 397.465C218.928 398.307 219.883 398.971 220.947 399.411C222.01 399.85 223.155 400.055 224.305 400.012C225.454 399.969 226.581 399.678 227.608 399.16L232.504 396.704C233.384 400.976 235.414 404.926 238.376 408.128L232.04 471.2C231.922 472.38 232.067 473.571 232.465 474.687C232.864 475.804 233.506 476.818 234.344 477.656L250.344 493.656C251.844 495.156 253.879 495.998 256 495.998C258.121 495.998 260.156 495.156 261.656 493.656L277.656 477.656C278.494 476.818 279.136 475.804 279.535 474.687C279.933 473.571 280.078 472.38 279.96 471.2L273.656 408.128C276.618 404.926 278.648 400.976 279.528 396.704L284.424 399.16C285.451 399.678 286.578 399.969 287.727 400.012C288.877 400.055 290.022 399.85 291.085 399.411C292.149 398.971 293.104 398.307 293.887 397.465C294.671 396.622 295.263 395.62 295.624 394.528L309.768 352H312C320.238 352.002 328.371 353.841 335.808 357.384C336.759 357.833 337.789 358.091 338.839 358.142C339.889 358.193 340.939 358.036 341.929 357.681C342.918 357.326 343.828 356.779 344.607 356.072C345.385 355.365 346.016 354.511 346.464 353.56V353.6ZM41.056 390.592L34.656 368.288C39.609 369.022 44.2614 371.116 48.0959 374.336C51.9303 377.556 54.7966 381.776 56.376 386.528C56.9085 388.127 57.9323 389.517 59.3014 390.499C60.6704 391.482 62.3148 392.007 64 392H88C92.9622 392.006 97.801 393.547 101.853 396.412C105.905 399.276 108.971 403.324 110.632 408H64.136C58.9247 407.981 53.8596 406.275 49.6991 403.137C45.5385 399.999 42.5061 395.598 41.056 390.592ZM99.456 440.192L92.312 424H115.296L120 432.456L99.456 440.192ZM256 364.688L232 340.688V339.8C247.51 345.4 264.49 345.4 280 339.8V340.688L256 364.688ZM200 272V204.8C235.083 220.629 274.202 225.229 312 217.968V272C312 286.852 306.1 301.096 295.598 311.598C285.096 322.1 270.852 328 256 328C241.148 328 226.904 322.1 216.402 311.598C205.9 301.096 200 286.852 200 272ZM219.096 352H220.696L242.504 373.808L228.68 380.72L219.096 352ZM256 476.688L248.336 469.024L253.664 415.768C254.464 415.84 255.2 416 256 416C256.8 416 257.552 415.84 258.336 415.768L263.664 469.024L256 476.688ZM264 392C264 394.122 263.157 396.157 261.657 397.657C260.157 399.157 258.122 400 256 400C253.878 400 251.843 399.157 250.343 397.657C248.843 396.157 248 394.122 248 392V388.944L256 384.944L264 388.944V392ZM283.328 380.72L269.504 373.808L291.312 352H292.912L283.328 380.72Z" fill="black"/>
<path d="M229.664 253.656C229.918 253.268 230.264 252.95 230.672 252.729C231.08 252.509 231.536 252.393 232 252.393C232.464 252.393 232.92 252.509 233.328 252.729C233.736 252.95 234.082 253.268 234.336 253.656C235.836 255.158 237.871 256.003 239.994 256.004C242.117 256.006 244.154 255.164 245.656 253.664C247.158 252.164 248.003 250.129 248.004 248.006C248.006 245.883 247.164 243.846 245.664 242.344C241.981 238.832 237.088 236.874 232 236.874C226.912 236.874 222.019 238.832 218.336 242.344C216.836 243.846 215.994 245.883 215.996 248.006C215.997 250.129 216.842 252.164 218.344 253.664C219.846 255.164 221.883 256.006 224.006 256.004C226.129 256.003 228.164 255.158 229.664 253.656Z" fill="black"/>
<path d="M277.664 253.656C277.918 253.268 278.264 252.95 278.672 252.729C279.08 252.509 279.536 252.393 280 252.393C280.464 252.393 280.92 252.509 281.328 252.729C281.736 252.95 282.082 253.268 282.336 253.656C283.836 255.158 285.871 256.003 287.994 256.004C289.046 256.005 290.087 255.799 291.058 255.397C292.029 254.996 292.912 254.407 293.656 253.664C294.4 252.921 294.99 252.039 295.393 251.068C295.796 250.098 296.004 249.057 296.004 248.006C296.005 246.955 295.799 245.913 295.397 244.942C294.996 243.971 294.407 243.088 293.664 242.344C289.981 238.832 285.088 236.874 280 236.874C274.912 236.874 270.019 238.832 266.336 242.344C264.836 243.846 263.994 245.883 263.996 248.006C263.997 250.129 264.842 252.164 266.344 253.664C267.846 255.164 269.883 256.006 272.006 256.004C274.129 256.003 276.164 255.158 277.664 253.656Z" fill="black"/>
<path d="M328 408C325.878 408 323.843 408.843 322.343 410.343C320.843 411.843 320 413.878 320 416V488C320 490.122 320.843 492.157 322.343 493.657C323.843 495.157 325.878 496 328 496C330.122 496 332.157 495.157 333.657 493.657C335.157 492.157 336 490.122 336 488V416C336 413.878 335.157 411.843 333.657 410.343C332.157 408.843 330.122 408 328 408Z" fill="black"/>
<path d="M184 408C181.878 408 179.843 408.843 178.343 410.343C176.843 411.843 176 413.878 176 416V488C176 490.122 176.843 492.157 178.343 493.657C179.843 495.157 181.878 496 184 496C186.122 496 188.157 495.157 189.657 493.657C191.157 492.157 192 490.122 192 488V416C192 413.878 191.157 411.843 189.657 410.343C188.157 408.843 186.122 408 184 408Z" fill="black"/>
<path d="M488 352H481.296C473.257 351.992 465.376 354.237 458.546 358.478C451.717 362.72 446.212 368.79 442.656 376H424C413.855 376.029 404.101 379.919 396.72 386.878C389.338 393.838 384.882 403.346 384.256 413.472L384 413.928V408C384.009 392.923 379.249 378.23 370.4 366.024C369.796 365.148 369.023 364.401 368.127 363.827C367.231 363.253 366.229 362.864 365.18 362.682C364.132 362.5 363.058 362.529 362.02 362.768C360.983 363.006 360.004 363.449 359.14 364.071C358.276 364.693 357.545 365.48 356.99 366.388C356.434 367.296 356.065 368.305 355.905 369.357C355.744 370.409 355.795 371.483 356.055 372.515C356.314 373.547 356.777 374.517 357.416 375.368C364.296 384.857 368.001 396.279 368 408V442.728L345.008 484.12C344.461 485.04 344.104 486.061 343.958 487.122C343.812 488.183 343.881 489.262 344.16 490.296C344.44 491.329 344.923 492.297 345.583 493.14C346.243 493.983 347.066 494.685 348.002 495.205C348.938 495.724 349.969 496.051 351.034 496.164C352.099 496.278 353.175 496.177 354.2 495.867C355.225 495.557 356.177 495.044 357 494.359C357.824 493.675 358.501 492.831 358.992 491.88L384.152 446.6L406 454.8L392.688 484.752C391.827 486.691 391.771 488.893 392.533 490.874C393.295 492.854 394.813 494.451 396.752 495.312C398.691 496.173 400.893 496.229 402.874 495.467C404.854 494.705 406.451 493.187 407.312 491.248L437.2 424H447.864C456.551 423.973 464.995 421.131 471.929 415.899C478.864 410.668 483.916 403.329 486.328 394.984L495.688 362.184C496.026 360.995 496.083 359.743 495.855 358.528C495.628 357.313 495.122 356.167 494.377 355.18C493.632 354.193 492.668 353.393 491.562 352.841C490.456 352.289 489.236 352.001 488 352ZM412.512 440.152L392 432.456L396.704 424H419.688L412.512 440.152ZM470.912 390.592C469.463 395.592 466.436 399.99 462.282 403.127C458.128 406.265 453.07 407.974 447.864 408H401.368C403.029 403.324 406.095 399.276 410.147 396.412C414.199 393.547 419.038 392.006 424 392H448C449.68 392 451.317 391.472 452.68 390.49C454.042 389.508 455.061 388.122 455.592 386.528C457.171 381.776 460.038 377.556 463.872 374.336C467.707 371.116 472.359 369.022 477.312 368.288L470.912 390.592Z" fill="black"/>
<path d="M225.344 283.56C224.761 284.434 224.355 285.414 224.151 286.445C223.947 287.476 223.948 288.537 224.154 289.567C224.359 290.597 224.766 291.577 225.351 292.45C225.935 293.324 226.686 294.073 227.56 294.656C235.979 300.28 245.876 303.281 256 303.281C266.124 303.281 276.021 300.28 284.44 294.656C285.314 294.073 286.065 293.323 286.649 292.45C287.234 291.577 287.64 290.597 287.846 289.567C288.052 288.537 288.053 287.476 287.848 286.445C287.644 285.414 287.239 284.434 286.656 283.56C286.073 282.686 285.323 281.935 284.45 281.351C283.577 280.766 282.597 280.36 281.567 280.154C280.537 279.948 279.476 279.947 278.445 280.152C277.414 280.356 276.434 280.761 275.56 281.344C269.771 285.213 262.963 287.279 256 287.279C249.036 287.279 242.229 285.213 236.44 281.344C235.566 280.761 234.586 280.356 233.555 280.151C232.524 279.947 231.463 279.948 230.433 280.154C229.403 280.359 228.423 280.766 227.55 281.351C226.676 281.935 225.927 282.686 225.344 283.56Z" fill="black"/>
<path d="M451.872 248.168C452.786 246.254 452.902 244.056 452.196 242.056C451.489 240.056 450.017 238.419 448.104 237.504C440.586 233.878 432.347 231.997 424 232C411.827 231.974 399.975 235.908 390.232 243.207C380.49 250.506 373.385 260.775 369.989 272.465C366.593 284.155 367.091 296.632 371.406 308.015C375.722 319.398 383.622 329.069 393.914 335.569C404.207 342.07 416.334 345.047 428.467 344.052C440.6 343.058 452.08 338.145 461.176 330.055C470.273 321.965 476.492 311.136 478.896 299.203C481.3 287.269 479.759 274.877 474.504 263.896C473.509 262.125 471.878 260.798 469.94 260.186C468.003 259.573 465.906 259.721 464.074 260.598C462.241 261.476 460.811 263.018 460.074 264.911C459.337 266.804 459.348 268.906 460.104 270.792C464.199 279.335 465.14 289.051 462.762 298.222C460.384 307.392 454.838 315.426 447.107 320.902C439.376 326.378 429.958 328.944 420.518 328.145C411.078 327.346 402.224 323.233 395.524 316.536C388.823 309.838 384.707 300.986 383.904 291.547C383.101 282.107 385.662 272.687 391.135 264.954C396.608 257.221 404.639 251.672 413.809 249.29C422.978 246.907 432.695 247.845 441.24 251.936C443.151 252.84 445.341 252.951 447.333 252.245C449.325 251.539 450.957 250.073 451.872 248.168Z" fill="#E65402"/>
<path d="M424 264.5C425.989 264.5 427.897 265.29 429.304 266.696C430.71 268.103 431.5 270.011 431.5 272C431.5 273.989 430.71 275.897 429.304 277.304C427.897 278.71 425.989 279.5 424 279.5C421.746 279.5 419.583 280.395 417.989 281.989C416.395 283.583 415.5 285.746 415.5 288C415.5 290.254 416.395 292.417 417.989 294.011C419.583 295.605 421.746 296.5 424 296.5C425.989 296.5 427.897 297.29 429.304 298.696C430.71 300.103 431.5 302.011 431.5 304C431.5 305.989 430.71 307.897 429.304 309.304C427.897 310.71 425.989 311.5 424 311.5C417.767 311.5 411.79 309.024 407.383 304.617C402.976 300.21 400.5 294.233 400.5 288C400.5 281.767 402.976 275.79 407.383 271.383C411.79 266.976 417.767 264.5 424 264.5Z" fill="#E65402" stroke="black"/>
<path d="M427.712 147.72C422.119 153.315 418.31 160.442 416.768 168.201C415.225 175.96 416.018 184.002 419.046 191.31C422.074 198.619 427.201 204.865 433.778 209.26C440.356 213.655 448.089 216.001 456 216.001C463.911 216.001 471.644 213.655 478.222 209.26C484.799 204.865 489.926 198.619 492.954 191.31C495.982 184.002 496.775 175.96 495.232 168.201C493.69 160.442 489.881 153.315 484.288 147.72C480.592 143.972 476.188 140.996 471.332 138.964C466.475 136.933 461.264 135.887 456 135.887C450.736 135.887 445.525 136.933 440.668 138.964C435.812 140.996 431.408 143.972 427.712 147.72ZM472.976 192.968C469.051 196.896 463.885 199.341 458.359 199.887C452.834 200.433 447.289 199.045 442.672 195.962C438.054 192.878 434.648 188.289 433.035 182.975C431.422 177.662 431.701 171.954 433.825 166.823C435.949 161.693 439.786 157.457 444.682 154.839C449.579 152.22 455.232 151.381 460.678 152.463C466.124 153.546 471.027 156.483 474.55 160.775C478.073 165.067 479.999 170.447 480 176C479.996 182.363 477.471 188.464 472.976 192.968Z" fill="#E65402"/>
<path d="M453.168 167.512L447.512 173.168C446.011 174.669 445.168 176.705 445.168 178.828C445.168 180.951 446.011 182.987 447.512 184.488C449.013 185.989 451.049 186.832 453.172 186.832C455.295 186.832 457.331 185.989 458.832 184.488L464.488 178.832C465.989 177.331 466.832 175.295 466.832 173.172C466.832 171.049 465.989 169.013 464.488 167.512C462.987 166.011 460.951 165.168 458.828 165.168C456.705 165.168 454.669 166.011 453.168 167.512Z" fill="#E65402"/>
<path d="M384 141.152C393.244 141.143 402.198 137.929 409.339 132.058C416.479 126.188 421.363 118.023 423.159 108.956C424.954 99.888 423.551 90.4783 419.188 82.3292C414.824 74.1802 407.771 67.7959 399.228 64.264C390.686 60.732 381.183 60.2709 372.339 62.9591C363.495 65.6473 355.856 71.3186 350.724 79.0068C345.592 86.6951 343.284 95.9247 344.194 105.124C345.103 114.322 349.174 122.922 355.712 129.456C359.426 133.171 363.836 136.116 368.69 138.123C373.545 140.13 378.747 141.159 384 141.152ZM367.024 84.2C370.949 80.2724 376.115 77.8273 381.641 77.2814C387.166 76.7355 392.711 78.1226 397.328 81.2063C401.946 84.2899 405.352 88.8794 406.965 94.1927C408.578 99.5059 408.299 105.214 406.175 110.345C404.051 115.475 400.214 119.711 395.318 122.329C390.421 124.948 384.768 125.787 379.322 124.705C373.876 123.622 368.973 120.685 365.45 116.393C361.927 112.101 360.001 106.721 360 101.168C359.996 98.0166 360.615 94.8954 361.82 91.9836C363.025 89.0718 364.794 86.4266 367.024 84.2Z" fill="#E65402"/>
<path d="M381.168 112C382.22 112.001 383.262 111.794 384.233 111.392C385.205 110.99 386.088 110.4 386.832 109.656L392.488 104C393.988 102.499 394.83 100.463 394.83 98.3412C394.829 96.219 393.985 94.1841 392.484 92.684C390.983 91.1839 388.947 90.3416 386.825 90.3424C384.703 90.3431 382.668 91.1869 381.168 92.688L375.512 98.344C374.394 99.4628 373.632 100.888 373.323 102.44C373.015 103.991 373.173 105.6 373.779 107.061C374.384 108.523 375.409 109.772 376.724 110.651C378.04 111.53 379.586 112 381.168 112Z" fill="#E65402"/>
<path d="M464 80C472.487 80 480.626 76.6286 486.627 70.6274C492.629 64.6263 496 56.4869 496 48C496 45.8783 495.157 43.8434 493.657 42.3431C492.157 40.8429 490.122 40 488 40C485.878 40 483.843 40.8429 482.343 42.3431C480.843 43.8434 480 45.8783 480 48C480 51.1645 479.062 54.2579 477.304 56.8891C475.545 59.5203 473.047 61.5711 470.123 62.7821C467.199 63.9931 463.982 64.3099 460.879 63.6926C457.775 63.0752 454.924 61.5513 452.686 59.3137C450.449 57.0761 448.925 54.2251 448.307 51.1214C447.69 48.0177 448.007 44.8007 449.218 41.8771C450.429 38.9534 452.48 36.4546 455.111 34.6965C457.742 32.9384 460.835 32 464 32C466.122 32 468.157 31.1571 469.657 29.6569C471.157 28.1566 472 26.1217 472 24C472 21.8783 471.157 19.8434 469.657 18.3431C468.157 16.8429 466.122 16 464 16C455.513 16 447.374 19.3714 441.373 25.3726C435.371 31.3737 432 39.5131 432 48C432 56.4869 435.371 64.6263 441.373 70.6274C447.374 76.6286 455.513 80 464 80Z" fill="#E65402"/>
<path d="M143.664 200.8C143.847 199.765 143.824 198.704 143.597 197.678C143.37 196.652 142.943 195.681 142.341 194.82C141.738 193.959 140.972 193.225 140.086 192.66C139.2 192.095 138.211 191.711 137.176 191.528L42.64 174.864C41.6052 174.681 40.5444 174.704 39.5183 174.931C38.4922 175.158 37.5209 175.585 36.6598 176.187C35.7988 176.79 35.0649 177.556 34.5 178.442C33.9352 179.328 33.5505 180.317 33.368 181.352L29.424 203.704C26.3643 221.05 26.1238 238.777 28.712 256.2C31.0494 271.924 30.8306 287.922 28.064 303.576L24.12 325.936C23.7526 328.025 24.2296 330.174 25.4462 331.911C26.6629 333.648 28.5195 334.831 30.608 335.2L54.248 339.376L63.264 340.976L125.152 351.888C125.611 351.974 126.077 352.017 126.544 352.016C128.425 352.016 130.245 351.354 131.686 350.146C133.128 348.938 134.097 347.26 134.424 345.408L138.36 323.008C140.329 311.608 141.088 300.032 140.624 288.472C140.605 287.416 140.374 286.375 139.943 285.411C139.512 284.447 138.891 283.579 138.117 282.861C137.344 282.142 136.433 281.587 135.439 281.229C134.446 280.871 133.39 280.717 132.336 280.776C131.286 280.814 130.254 281.059 129.298 281.496C128.343 281.933 127.483 282.554 126.767 283.324C126.052 284.094 125.495 284.997 125.129 285.982C124.762 286.967 124.593 288.014 124.632 289.064C124.824 294.16 124.728 299.184 124.432 304.12C116.793 304.54 109.433 307.133 103.218 311.593C97.0019 316.053 92.1887 322.194 89.344 329.296L72 326.256C71.7604 318.268 69.1368 310.534 64.4664 304.048C59.796 297.563 53.2924 292.623 45.792 289.864C46.7063 277.855 46.2905 265.782 44.552 253.864C43.0499 243.487 42.6557 232.98 43.376 222.52C50.9979 222.099 58.3415 219.513 64.5452 215.065C70.7489 210.617 75.5551 204.492 78.4 197.408L95.824 200.48C96.0558 208.466 98.6737 216.2 103.34 222.684C108.007 229.169 114.509 234.108 122.008 236.864C121.523 243.643 121.451 250.445 121.792 257.232C121.845 258.283 122.103 259.313 122.554 260.263C123.005 261.214 123.638 262.066 124.418 262.772C125.198 263.477 126.109 264.023 127.1 264.376C128.091 264.73 129.141 264.885 130.192 264.832C131.243 264.779 132.273 264.521 133.223 264.07C134.174 263.619 135.026 262.986 135.732 262.206C136.437 261.426 136.983 260.515 137.336 259.524C137.69 258.533 137.845 257.483 137.792 256.432C137.195 245.31 137.858 234.157 139.768 223.184L143.664 200.8ZM122.56 320.488L120.056 334.736L105.76 332.216C107.526 329.146 109.947 326.504 112.851 324.477C115.755 322.45 119.07 321.088 122.56 320.488ZM55.576 323.36L41.264 320.8L43.792 306.496C46.8835 308.258 49.5446 310.685 51.5826 313.601C53.6207 316.518 54.9847 319.851 55.576 323.36ZM45.224 206.24L47.736 192L62.024 194.52C60.2558 197.587 57.834 200.227 54.9304 202.253C52.0269 204.278 48.713 205.64 45.224 206.24ZM112.216 203.376L126.52 205.896L124 220.2C120.913 218.443 118.255 216.022 116.217 213.112C114.179 210.203 112.813 206.878 112.216 203.376Z" fill="#E65402"/>
<path d="M88.056 239.736C84.929 239.131 81.7128 239.155 78.595 239.806C75.4772 240.456 72.5201 241.721 69.896 243.526C67.272 245.332 65.0335 247.641 63.311 250.32C61.5886 252.999 60.4166 255.994 59.8634 259.131C59.3102 262.267 59.3868 265.483 60.0889 268.589C60.7909 271.696 62.1043 274.632 63.9524 277.226C65.8006 279.82 68.1466 282.02 70.8536 283.698C73.5607 285.376 76.5747 286.499 79.72 287C81.1171 287.247 82.5331 287.373 83.952 287.376C89.9549 287.369 95.7371 285.112 100.158 281.051C104.579 276.991 107.318 271.421 107.834 265.44C108.35 259.459 106.606 253.502 102.947 248.744C99.2869 243.986 93.9768 240.772 88.064 239.736H88.056ZM91.776 264.76C91.5111 266.259 90.8237 267.652 89.7947 268.774C88.7657 269.897 87.4378 270.702 85.967 271.096C84.4962 271.49 82.9435 271.455 81.4914 270.997C80.0393 270.539 78.7481 269.676 77.7694 268.51C76.7907 267.344 76.1653 265.922 75.9665 264.412C75.7677 262.903 76.0039 261.368 76.6472 259.988C77.2906 258.608 78.3144 257.44 79.5984 256.622C80.8825 255.803 82.3734 255.368 83.896 255.368C84.3625 255.369 84.8282 255.409 85.288 255.488C86.3269 255.67 87.3196 256.056 88.2088 256.624C89.098 257.191 89.8662 257.929 90.4692 258.794C91.0722 259.66 91.4981 260.636 91.7224 261.667C91.9466 262.697 91.9649 263.762 91.776 264.8V264.76Z" fill="#E65402"/>
<path d="M40.8 154.072C41.2575 155.778 42.2668 157.285 43.6706 158.357C45.0743 159.43 46.7935 160.007 48.56 160C49.262 159.997 49.9608 159.905 50.64 159.728L64.24 156.072C76.801 152.699 88.4071 146.455 98.144 137.832C106.033 130.859 115.431 125.809 125.6 123.08L139.2 119.424C140.22 119.155 141.176 118.687 142.014 118.046C142.852 117.406 143.555 116.606 144.083 115.693C144.611 114.78 144.953 113.772 145.09 112.726C145.227 111.68 145.155 110.618 144.88 109.6L140.2 92.152C139.951 91.1126 139.496 90.1337 138.863 89.273C138.229 88.4123 137.43 87.6872 136.511 87.1407C135.593 86.5941 134.574 86.2371 133.515 86.0908C132.457 85.9444 131.38 86.0117 130.347 86.2886C129.315 86.5655 128.349 87.0464 127.505 87.703C126.662 88.3596 125.959 89.1784 125.437 90.1113C124.916 91.0441 124.586 92.072 124.469 93.1343C124.351 94.1965 124.447 95.2716 124.752 96.296L127.352 106.016L121.456 107.616C108.898 110.997 97.2934 117.24 87.552 125.856C79.6725 132.829 70.2822 137.879 60.12 140.608L54.216 142.208L41.8 95.808L47.696 94.208C60.2512 90.8368 71.8555 84.6048 81.6 76C89.4797 69.0295 98.8661 63.9776 109.024 61.24L114.928 59.64L116.472 65.368C116.721 66.4073 117.176 67.3863 117.809 68.247C118.443 69.1077 119.242 69.8328 120.161 70.3793C121.079 70.9259 122.098 71.2829 123.156 71.4292C124.215 71.5756 125.292 71.5083 126.325 71.2314C127.357 70.9545 128.323 70.4736 129.167 69.817C130.01 69.1604 130.713 68.3415 131.235 67.4087C131.756 66.4759 132.086 65.448 132.203 64.3857C132.321 63.3235 132.225 62.2484 131.92 61.224L128.312 47.776C128.04 46.7611 127.571 45.8097 126.931 44.9761C126.291 44.1426 125.494 43.4432 124.584 42.918C123.674 42.3928 122.669 42.052 121.627 41.915C120.585 41.7781 119.527 41.8478 118.512 42.12L104.912 45.768C92.3539 49.1486 80.7494 55.3917 71.008 64.008C63.1265 70.9978 53.7308 76.0639 43.56 78.808L29.96 82.456C27.912 83.0054 26.166 84.3453 25.1054 86.1814C24.0449 88.0175 23.7566 90.1995 24.304 92.248L40.8 154.072Z" fill="#E65402"/>
<path d="M82.504 93.208C80.976 93.6174 79.6036 94.4707 78.5605 95.66C77.5173 96.8492 76.8502 98.3211 76.6433 99.8894C76.4365 101.458 76.6993 103.052 77.3985 104.471C78.0977 105.89 79.2019 107.07 80.5715 107.862C81.9411 108.653 83.5147 109.021 85.0933 108.919C86.6719 108.816 88.1847 108.248 89.4404 107.286C90.6961 106.323 91.6383 105.011 92.148 103.513C92.6577 102.015 92.712 100.4 92.304 98.872C92.0329 97.8563 91.5642 96.9041 90.9249 96.0697C90.2855 95.2352 89.488 94.535 88.5778 94.009C87.6677 93.483 86.6628 93.1415 85.6206 93.004C84.5784 92.8666 83.5194 92.9359 82.504 93.208Z" fill="#E65402"/>
</svg>
