<svg width="136" height="130" viewBox="0 0 136 130" fill="none" xmlns="http://www.w3.org/2000/svg">
<path d="M85.7212 101.636C84.897 100.848 83.6606 100.848 82.8364 101.636L77.4788 106.758C76.6545 107.545 76.6545 108.727 77.4788 109.515C78.303 110.303 79.5394 110.303 80.3636 109.515L82.2182 107.742V126.061C82.2182 127.242 83.0424 128.03 84.2788 128.03C85.5152 128.03 86.3394 127.242 86.3394 126.061V107.742L88.1939 109.515C88.6061 109.909 89.2242 110.106 89.6364 110.106C90.2545 110.106 90.6667 109.909 91.0788 109.515C91.903 108.727 91.903 107.545 91.0788 106.758L85.7212 101.636Z" fill="black"/>
<path d="M121.988 36.8333C121.164 36.4394 120.133 36.6364 119.515 37.2273L108.594 47.6667L97.6727 37.2273C97.0545 36.6364 96.0242 36.4394 95.2 36.8333C87.1636 40.7727 82.2182 48.6515 82.2182 57.3182V90.6061C82.2182 91.7879 83.0424 92.5758 84.2788 92.5758H94.7879V125.273C94.7879 126.455 95.6121 127.242 96.8485 127.242H120.545C121.782 127.242 122.606 126.455 122.606 125.273V92.5758H133.115C134.352 92.5758 135.176 91.7879 135.176 90.6061V57.3182C134.97 48.6515 130.024 40.7727 121.988 36.8333ZM130.848 88.6364H120.339C119.103 88.6364 118.279 89.4242 118.279 90.6061V123.303H110.655V91.7879C110.655 90.6061 109.83 89.8182 108.594 89.8182C107.358 89.8182 106.533 90.6061 106.533 91.7879V123.303H98.9091V90.6061C98.9091 89.4242 98.0848 88.6364 96.8485 88.6364H86.3394V57.3182C86.3394 50.6212 89.8424 44.5152 95.8182 41.1667L107.152 52C107.564 52.3939 107.976 52.5909 108.594 52.5909C109.212 52.5909 109.624 52.3939 110.036 52L121.37 41.1667C127.345 44.7121 130.848 50.8182 130.848 57.3182V88.6364ZM108.594 35.0606C118.073 35.0606 125.903 27.5758 125.903 18.5152C125.903 9.45454 118.073 1.9697 108.594 1.9697C99.1152 1.9697 91.2848 9.45454 91.2848 18.5152C91.2848 27.5758 98.9091 35.0606 108.594 35.0606ZM108.594 5.90909C115.806 5.90909 121.782 11.6212 121.782 18.5152C121.782 25.4091 115.806 31.1212 108.594 31.1212C101.382 31.1212 95.4061 25.4091 95.4061 18.5152C95.4061 11.6212 101.176 5.90909 108.594 5.90909Z" fill="#E65402"/>
<path d="M108.594 56.1364C107.358 56.1364 106.533 56.9242 106.533 58.1061V59.8788C106.533 61.0606 107.358 61.8485 108.594 61.8485C109.83 61.8485 110.655 61.0606 110.655 59.8788V58.1061C110.655 57.1212 109.624 56.1364 108.594 56.1364ZM108.594 64.4091C107.358 64.4091 106.533 65.197 106.533 66.3788V68.1515C106.533 69.3333 107.358 70.1212 108.594 70.1212C109.83 70.1212 110.655 69.3333 110.655 68.1515V66.3788C110.655 65.197 109.624 64.4091 108.594 64.4091ZM108.594 72.6818C107.358 72.6818 106.533 73.4697 106.533 74.6515V76.4242C106.533 77.6061 107.358 78.3939 108.594 78.3939C109.83 78.3939 110.655 77.6061 110.655 76.4242V74.6515C110.655 73.4697 109.624 72.6818 108.594 72.6818ZM108.594 80.9545C107.358 80.9545 106.533 81.7424 106.533 82.9242V84.697C106.533 85.8788 107.358 86.6667 108.594 86.6667C109.83 86.6667 110.655 85.8788 110.655 84.697V82.9242C110.655 81.7424 109.624 80.9545 108.594 80.9545ZM86.1333 38.6061C86.1333 37.4242 85.3091 36.6364 84.0727 36.6364H57.0788C55.8424 36.6364 55.0182 37.4242 55.0182 38.6061V126.061C55.0182 127.242 55.8424 128.03 57.0788 128.03C58.3152 128.03 59.1394 127.242 59.1394 126.061V40.5758H84.0727C85.3091 40.5758 86.1333 39.5909 86.1333 38.6061ZM49.4545 57.1212H30.0848C28.8485 57.1212 28.0242 57.9091 28.0242 59.0909V126.061C28.0242 127.242 28.8485 128.03 30.0848 128.03C31.3212 128.03 32.1455 127.242 32.1455 126.061V61.0606H49.4545C50.6909 61.0606 51.5152 60.2727 51.5152 59.0909C51.5152 57.9091 50.4848 57.1212 49.4545 57.1212ZM22.4606 75.0455H3.09091C1.85455 75.0455 1.0303 75.8333 1.0303 77.0152V126.061C1.0303 127.242 1.85455 128.03 3.09091 128.03C4.32727 128.03 5.15152 127.242 5.15152 126.061V78.9848H22.4606C23.697 78.9848 24.5212 78.197 24.5212 77.0152C24.5212 76.0303 23.4909 75.0455 22.4606 75.0455Z" fill="black"/>
</svg>
