<svg xmlns="http://www.w3.org/2000/svg" viewBox="0 0 128 128" id="personalized">
  <path d="M124,57l-2.43457-.02832a57.65966,57.65966,0,0,0-1.68555-8.5415l2.231-.92383a4.005,4.005,0,0,0,2.16553-5.22656l-2.2959-5.54248a4,4,0,0,0-5.22656-2.16553l-2.25684.9043a57.912,57.912,0,0,0-4.84082-7.23242l1.71924-1.72021a3.99854,3.99854,0,0,0,.00049-5.65674l-4.24219-4.24219a3.99913,3.99913,0,0,0-5.65674-.001l-1.74121,1.7002a57.7896,57.7896,0,0,0-7.23828-4.83105l.93115-2.24756a4,4,0,0,0-2.165-5.2251L85.71924,3.72314a4.00761,4.00761,0,0,0-5.2251,2.165L79.542,8.10889A57.60362,57.60362,0,0,0,71,6.43506V4a4.00458,4.00458,0,0,0-4-4H61a4.00458,4.00458,0,0,0-4,4l-.02832,2.43457a57.65966,57.65966,0,0,0-8.5415,1.68555l-.92383-2.231a4.005,4.005,0,0,0-5.22656-2.16553L36.7373,6.01953a4,4,0,0,0-2.16553,5.22656l.9043,2.25684a57.912,57.912,0,0,0-7.23242,4.84082l-1.72021-1.71924A3.99854,3.99854,0,0,0,20.8667,16.624l-4.24219,4.24219a3.99913,3.99913,0,0,0-.001,5.65674l1.7002,1.74121a57.7896,57.7896,0,0,0-4.83105,7.23828l-2.24756-.93115a4,4,0,0,0-5.2251,2.165L3.72314,42.28076a4.00454,4.00454,0,0,0,2.165,5.2251l2.2207.95215A57.60362,57.60362,0,0,0,6.43506,57H4a4.00458,4.00458,0,0,0-4,4v6a4.00458,4.00458,0,0,0,4,4l2.43457.02832a57.7026,57.7026,0,0,0,1.68506,8.541l-2.23047.92432a4.005,4.005,0,0,0-2.16553,5.22656l2.2959,5.54248a4,4,0,0,0,5.22656,2.16553l2.25684-.9043a57.862,57.862,0,0,0,4.84131,7.23242L16.624,101.47656a4.00444,4.00444,0,0,0,0,5.65674l4.24219,4.24219a3.99913,3.99913,0,0,0,5.65674.001l1.74121-1.7002a57.7896,57.7896,0,0,0,7.23828,4.83105l-.93115,2.24756a4,4,0,0,0,2.165,5.2251l5.54443,2.29688a4.00836,4.00836,0,0,0,5.2251-2.165l.95215-2.2207A57.60362,57.60362,0,0,0,57,121.56494V124a4.00458,4.00458,0,0,0,4,4h6a4.00458,4.00458,0,0,0,4-4l.02832-2.43457a57.65966,57.65966,0,0,0,8.5415-1.68555l.92383,2.231a4.003,4.003,0,0,0,5.22656,2.16553l5.54248-2.2959a4,4,0,0,0,2.16553-5.22656l-.9043-2.25684a57.912,57.912,0,0,0,7.23242-4.84082l1.72021,1.71924a3.99854,3.99854,0,0,0,5.65674.00049l4.24268-4.24268a4.00444,4.00444,0,0,0,0-5.65674l-1.69971-1.74072a57.7896,57.7896,0,0,0,4.83105-7.23828l2.24756.93115a4,4,0,0,0,5.2251-2.165l2.29688-5.54443a4.00454,4.00454,0,0,0-2.165-5.2251l-2.2207-.95215A57.60362,57.60362,0,0,0,121.56494,71H124a4.00458,4.00458,0,0,0,4-4V61A4.00458,4.00458,0,0,0,124,57ZM86,24h8a2.0001,2.0001,0,0,1,2,2v8a2,2,0,0,1-4,0V28H86a2,2,0,0,1,0-4Zm-4.13739,8.764A36.08343,36.08343,0,0,1,99.47894,58H95.43109a32.07662,32.07662,0,0,0-13.957-20.78741,8.4327,8.4327,0,0,0,.38849-4.44855Zm-30.60529-18.434a2,2,0,0,1,3.0752-.937A11.27434,11.27434,0,0,0,60.418,15a16.46659,16.46659,0,0,0,2.72607-.34326c2.40527-.4292,5.39844-.96484,8.0332.88965,2.12109,1.49323,3.556,4.20911,4.46942,8.45361H50.52692C49.796,21.93164,49.651,18.84924,51.25732,14.33008Zm.07324,16.57031A27.05059,27.05059,0,0,1,51.4455,28H76.43384a25.03748,25.03748,0,0,1,.22241,2.88672A4.83648,4.83648,0,0,1,78,34.231a4.77542,4.77542,0,0,1-2.98047,4.44727A11.37769,11.37769,0,0,1,63.875,48H63.75a11.22946,11.22946,0,0,1-10.90625-9.38232A4.77275,4.77275,0,0,1,50,34.231,4.83616,4.83616,0,0,1,51.33057,30.90039ZM64,56a2,2,0,1,1,2-2A2,2,0,0,1,64,56Zm2,6a2,2,0,1,1-2-2A2,2,0,0,1,66,62ZM32,26a2.0001,2.0001,0,0,1,2-2h8a2,2,0,0,1,0,4H36v6a2,2,0,0,1-4,0Zm14.13873,6.76331A8.72,8.72,0,0,0,46,34.23047a8.85869,8.85869,0,0,0,.51819,2.98706A32.07628,32.07628,0,0,0,32.56885,58H28.52106A36.08349,36.08349,0,0,1,46.13873,32.76331ZM25,66a2,2,0,0,1,0-4H35a2,2,0,0,1,0,4Zm17,38H34a2.0001,2.0001,0,0,1-2-2V94a2,2,0,0,1,4,0v6h6a2,2,0,0,1,0,4ZM28.5202,70h4.05505A32.08528,32.08528,0,0,0,47.63684,91.486l.52155,4.83148A36.099,36.099,0,0,1,28.5202,70ZM77.549,80.28412l-3.363,31.15143A3.998,3.998,0,0,1,70.21,115H57.79a3.99681,3.99681,0,0,1-3.97559-3.55811L50.451,80.28412A6.48833,6.48833,0,0,1,41,74.5V52.30859a8.03288,8.03288,0,0,1,4.583-7.22314l4.42133-2.16821a15.2016,15.2016,0,0,0,2.09021,3.43018l-4.75079,2.32983A4.06,4.06,0,0,0,45,52.30859V74.5a2.5,2.5,0,0,0,5,0V63.6665a2,2,0,0,1,4,0V75.89258l3.79053,35.11328L62,111.00385V84a2,2,0,0,1,4,0v27.002L70.21,111,74,75.89258V63.6665a2,2,0,0,1,4,0V74.5a2.5,2.5,0,0,0,5,0V52.30859a4.06,4.06,0,0,0-2.34375-3.63135L75.77234,46.2821a15.40719,15.40719,0,0,0,2.09619-3.42725L82.417,45.08545A8.03288,8.03288,0,0,1,87,52.30859V74.5a6.48833,6.48833,0,0,1-9.451,5.78412ZM96,102a2.0001,2.0001,0,0,1-2,2H86a2,2,0,0,1,0-4h6V94a2,2,0,0,1,4,0ZM79.84149,96.3175,80.3631,91.486A32.08556,32.08556,0,0,0,95.42474,70H99.4798A36.09889,36.09889,0,0,1,79.84149,96.3175ZM103,66H93a2,2,0,0,1,0-4h10a2,2,0,0,1,0,4Z"></path>
</svg>
