<svg height="464pt" viewBox="0 0 464 464" width="464pt" xmlns="http://www.w3.org/2000/svg"><path d="m104.503906 317.9375-24.503906-8.167969v-85.769531c0-50.886719 25.785156-98.535156 67.863281-126.585938-3.664062-12.101562-4.785156-24.972656-3-37.894531 2.777344-20.085937 12.746094-38.160156 27.089844-51.597656-98.90625 26.535156-171.953125 116.917969-171.953125 224.078125 0 108.617188 75.046875 200 176 225.128906v-49.128906h-63.304688zm-16.503906-261.9375h16v-16h16v16h16v16h-16v16h-16v-16h-16zm-16 96h-16v-16h-16v-16h16v-16h16v16h16v16h-16zm0 0"/><path d="m104 56h16v16h-16zm0 0"/><path d="m248 72c0 8.835938-7.164062 16-16 16s-16-7.164062-16-16 7.164062-16 16-16 16 7.164062 16 16zm0 0"/><path d="m128 192h16v16h-16zm0 0"/><path d="m368 256v-28.542969c0-45.511719-22.097656-88.265625-58.296875-114.3125-1.871094 3.503907-3.941406 6.925781-6.304687 10.191407-3.917969 5.425781-7.125 11.152343-9.605469 17.078124 6.152343 4.355469 10.207031 11.488282 10.207031 19.585938 0 10.574219-6.921875 19.472656-16.433594 22.664062-3.308594 27.734376-26.949218 49.335938-55.566406 49.335938s-52.257812-21.601562-55.566406-49.335938c-9.511719-3.191406-16.433594-12.089843-16.433594-22.664062 0-8.023438 3.992188-15.089844 10.046875-19.449219-2.550781-6.167969-5.863281-12.144531-9.894531-17.839843-2.296875-3.230469-4.265625-6.632813-6.082032-10.101563-36.0625 25.3125-58.070312 66.949219-58.070312 111.390625v74.230469l23.496094 7.832031 7.808594 85.9375h72.695312c30.871094 0 56-25.128906 56-56v-8h16v8c0 39.703125-32.296875 72-72 72h-8v52.480469c13.007812 2.273437 26.351562 3.519531 40 3.519531 25.128906 0 49.320312-4.070312 72-11.496094v-81.054687l3.542969-2.378907c37.855469-25.34375 60.457031-67.613281 60.457031-113.070312zm-208-48h-16v16h-16v-16h-16v-16h16v-16h16v16h16zm0 0"/><path d="m292.238281 7.976562c17.625 16.609376 27.761719 39.765626 27.761719 64.023438 0 8.929688-1.359375 17.664062-3.953125 26 42.128906 28.792969 67.953125 77.542969 67.953125 129.457031v28.542969c0 49.367188-23.839844 95.367188-64 123.910156v66.707032c84.398438-34.746094 144-117.832032 144-214.617188 0-107.089844-72.960938-197.425781-171.761719-224.023438zm91.761719 88.023438h-16v16h-16v-16h-16v-16h16v-16h16v16h16zm40 72v16h-16v-16h-16v-16h16v-16h16v16h16v16zm0 0"/><path d="m173.199219 113.457031c5.066406 7.144531 9.136719 14.710938 12.226562 22.542969h38.574219v-33.136719c-13.769531-3.574219-24-15.992187-24-30.863281 0-17.648438 14.351562-32 32-32s32 14.351562 32 32c0 14.871094-10.230469 27.289062-24 30.863281v33.136719h38.34375c3.039062-7.695312 7.0625-15.089844 12.089844-22.039062 8.871094-12.273438 13.566406-26.792969 13.566406-41.960938 0-20.488281-8.769531-40.0625-24.0625-53.71875-13.539062-12.089844-30.523438-18.402344-48.503906-18.265625-.097656 0-.195313.0078125-.289063.0078125-2.511719.03125-5.039062.1757815-7.585937.4570315-32.007813 3.632812-58.4375 29.382812-62.839844 61.230469-2.550781 18.433593 1.882812 36.800781 12.480469 51.746093zm0 0"/><path d="m232 216c19.3125 0 35.472656-13.769531 39.191406-32h-78.382812c3.71875 18.230469 19.878906 32 39.191406 32zm0 0"/><path d="m288 160c0-4.414062-3.585938-8-8-8h-96c-4.414062 0-8 3.585938-8 8s3.585938 8 8 8h96c4.414062 0 8-3.585938 8-8zm0 0"/><path d="m56 120h16v16h-16zm0 0"/><path d="m352 80h16v16h-16zm0 0"/><path d="m408 152h16v16h-16zm0 0"/><path d="m400 0h16v16h-16zm0 0"/><path d="m400 32h16v16h-16zm0 0"/><path d="m416 16h16v16h-16zm0 0"/><path d="m384 16h16v16h-16zm0 0"/></svg>