<svg xmlns="http://www.w3.org/2000/svg" id="light-garland" viewBox="0 0 64 64">
  <path d="M40 46c-.55 0-1-.45-1-1v-6c0-.55.45-1 1-1s1 .45 1 1v6c0 .55-.45 1-1 1ZM24 46c-.55 0-1-.45-1-1v-6c0-.55.45-1 1-1s1 .45 1 1v6c0 .55-.45 1-1 1ZM55 42c-.55 0-1-.45-1-1v-6c0-.55.45-1 1-1s1 .45 1 1v6c0 .55-.45 1-1 1ZM9 42c-.55 0-1-.45-1-1v-6c0-.55.45-1 1-1s1 .45 1 1v6c0 .55-.45 1-1 1ZM40 20c-.55 0-1-.45-1-1v-6c0-.55.45-1 1-1s1 .45 1 1v6c0 .55-.45 1-1 1ZM24 20c-.55 0-1-.45-1-1v-6c0-.55.45-1 1-1s1 .45 1 1v6c0 .55-.45 1-1 1ZM55 16c-.55 0-1-.45-1-1v-6c0-.55.45-1 1-1s1 .45 1 1v6c0 .55-.45 1-1 1ZM9 16c-.55 0-1-.45-1-1v-6c0-.55.45-1 1-1s1 .45 1 1v6c0 .55-.45 1-1 1Z" style="fill:#3a38a6"></path>
  <path d="M32 40c-11.27 0-21.77-2.9-29.56-8.17-.46-.31-.58-.93-.27-1.39.31-.46.93-.58 1.39-.27 7.46 5.05 17.56 7.83 28.44 7.83s20.98-2.78 28.44-7.83c.46-.31 1.08-.19 1.39.27.31.46.19 1.08-.27 1.39-7.79 5.27-18.29 8.17-29.56 8.17ZM32 14c-11.27 0-21.77-2.9-29.56-8.17-.46-.31-.58-.93-.27-1.39.31-.46.93-.58 1.39-.27 7.46 5.05 17.56 7.83 28.44 7.83s20.98-2.78 28.44-7.83c.46-.31 1.08-.19 1.39.27.31.46.19 1.08-.27 1.39-7.79 5.27-18.29 8.17-29.56 8.17Z" style="fill:#f3bcea"></path>
  <path d="M41 44h-2c-1.1 0-2 .9-2 2v2.41c0 .55.45 1 1 1h4c.55 0 1-.45 1-1v-2.41c0-1.1-.9-2-2-2ZM25 44h-2c-1.1 0-2 .9-2 2v2.54c0 .55.45 1 1 1h4c.55 0 1-.45 1-1v-2.54c0-1.1-.9-2-2-2ZM56 40h-2c-1.1 0-2 .9-2 2v2.54c0 .55.45 1 1 1h4c.55 0 1-.45 1-1v-2.54c0-1.1-.9-2-2-2ZM10 40h-2c-1.1 0-2 .9-2 2v2.41c0 .55.45 1 1 1h4c.55 0 1-.45 1-1v-2.41c0-1.1-.9-2-2-2ZM41 18h-2c-1.1 0-2 .9-2 2v2.41c0 .55.45 1 1 1h4c.55 0 1-.45 1-1v-2.41c0-1.1-.9-2-2-2ZM25 18h-2c-1.1 0-2 .9-2 2v2.54c0 .55.45 1 1 1h4c.55 0 1-.45 1-1v-2.54c0-1.1-.9-2-2-2ZM56 14h-2c-1.1 0-2 .9-2 2v2.54c0 .55.45 1 1 1h4c.55 0 1-.45 1-1v-2.54c0-1.1-.9-2-2-2ZM10 14h-2c-1.1 0-2 .9-2 2v2.41c0 .55.45 1 1 1h4c.55 0 1-.45 1-1v-2.41c0-1.1-.9-2-2-2Z" style="fill:#6b61bf"></path>
  <circle cx="40" cy="53" r="6" style="fill:#be83d9"></circle>
  <path d="M24 47c-2.76 0-5 2.24-5 5 0 2.44 1.89 8 5 8s5-5.56 5-8c0-2.76-2.24-5-5-5ZM55 43c-2.76 0-5 2.24-5 5 0 2.44 1.89 8 5 8s5-5.56 5-8c0-2.76-2.24-5-5-5Z" style="fill:#f3bcea"></path>
  <circle cx="9" cy="49" r="6" style="fill:#be83d9"></circle>
  <circle cx="40" cy="27" r="6" style="fill:#f3bcea"></circle>
  <path d="M24 21c-2.76 0-5 2.24-5 5 0 2.44 1.89 8 5 8s5-5.56 5-8c0-2.76-2.24-5-5-5ZM55 30c3.11 0 5-5.56 5-8 0-2.76-2.24-5-5-5s-5 2.24-5 5c0 2.44 1.89 8 5 8Z" style="fill:#be83d9"></path>
  <circle cx="9" cy="23" r="6" style="fill:#f3bcea"></circle>
</svg>
