<svg id="Layer_1" height="512" viewBox="0 0 288.7378 316.2726" width="512" xmlns="http://www.w3.org/2000/svg"><g><circle cx="145.467" cy="75.248" r="22.5"/><path d="m102.7365 157.6512 12.1139 2.9494h21.1511c-.2084-2.194.2794-4.3875 1.4453-6.3044.9671-1.5897 2.3202-2.8501 3.9182-3.7075l-27.7818-6.7642c.4403-2.4988.9343-4.7504 1.4644-6.7868 1.024-3.9336 2.1857-7.0439 3.3741-9.4833v15.081l27.0831 6.5939 27.0087-6.5758v-15.2488c1.2143 2.4618 2.4031 5.6175 3.4484 9.633.5301 2.0364 1.024 4.288 1.4644 6.7868l-33.0723 8.0522c-3.9786.9689-6.5256 4.757-6.0454 8.7238h37.8505l12.1139-2.9494c3.9219-.9551 6.5186-4.6821 6.0547-8.6919-.6288-5.4379-1.512-10.3926-2.6292-14.8901-3.0064-12.1044-7.7612-20.793-14.2205-25.8838-5.0399-3.972-9.7568-4.6705-12.2384-4.7165-.1513-.0089-.3011-.0229-.4547-.0229h-38.6348c-.1569 0-.3101.0142-.4647.0234-2.5046.0612-7.1743.7914-12.1541 4.716-6.4593 5.0908-11.2141 13.7794-14.2205 25.8837-1.1171 4.4976-2.0003 9.4523-2.6292 14.8902-.4636 4.0099 2.133 7.7369 6.0549 8.692z"/><path d="m66.6211 230.6036c0 4.3768-1.0329 8.5153-2.86 12.1924h20.8855c-1.8271-3.6771-2.86-7.8156-2.86-12.1924 0-15.1631 12.3364-27.5 27.5-27.5s27.5 12.3369 27.5 27.5c0 4.3768-1.0329 8.5153-2.86 12.1924h20.885c-1.8271-3.6771-2.86-7.8156-2.86-12.1924 0-15.1631 12.3364-27.5 27.5-27.5s27.5 12.3369 27.5 27.5c0 4.3768-1.0329 8.5153-2.86 12.1924h20.885c-1.8271-3.6771-2.86-7.8156-2.86-12.1924 0-15.1631 12.3364-27.5 27.5-27.5 3.8664 0 7.5469.8059 10.8881 2.2524v-41.7556h-15.9997-198-16.0002v40.8932c2.7123-.8973 5.6071-1.3901 8.6163-1.3901 15.1636.0001 27.5 12.3371 27.5 27.5001z"/><path d="m87.7404 121.3956c.7344.6802 1.8887.7446 2.6934.0659l4.8359-4.0752c.7832-.6602.9551-1.7993.4014-2.6611l-2.9453-4.5791c-.5537-.8623-1.6611-1.1787-2.5879-.7397l-5.7139 2.709c-.9512.4512-1.3711 1.5283-1.0576 2.4785l-22.0029 15.6509 3.0078 4.6763 12.8164-7.4175v29.4369h-23.1745v-31.4442l7.085-4.1006c.7344.6802 1.8887.7446 2.6934.0659l4.8359-4.0752c.7832-.6602.9551-1.7993.4014-2.6611l-2.9453-4.5791c-.5537-.8623-1.6611-1.1787-2.5879-.7397l-5.7139 2.709c-.9512.4512-1.3711 1.5283-1.0576 2.4785l-22.0029 15.6509 3.0078 4.6763 12.8164-7.4175v29.4369h-6.155v3.0826h43.211v-3.0826h-6.946v-31.4442z"/><path d="m253.2804 134.921 3.0078-4.6763-22.0029-15.6509c.3135-.9502-.1064-2.0273-1.0576-2.4785l-5.7139-2.709c-.9268-.439-2.0342-.1226-2.5879.7397l-2.9453 4.5791c-.5537.8618-.3818 2.001.4014 2.6611l4.8359 4.0752c.8047.6787 1.959.6143 2.6934-.0659l7.085 4.1006v31.4442h-23.1744v-29.4369l12.8164 7.4175 3.0078-4.6763-22.0029-15.6509c.3135-.9502-.1064-2.0273-1.0576-2.4785l-5.7139-2.709c-.9268-.439-2.0342-.1226-2.5879.7397l-2.9453 4.5791c-.5537.8618-.3818 2.001.4014 2.6611l4.8359 4.0752c.8047.6787 1.959.6143 2.6934-.0659l7.085 4.1006v31.4442h-6.946v3.0826h43.211v-3.0826h-6.155v-29.4369z"/><path d="m274.5728 260.6447c-1.4194-1.1621-3.1187-1.7471-4.8208-1.7979-.269-.0283-.5415-.0449-.8179-.0449h-38.6348c-.2769 0-.5493.0166-.8184.0449-1.7021.0508-3.4014.6357-4.8208 1.7979-1.5947 1.3057-6.5186 6.3252-10.126 20.5781-3.6079-14.2529-8.5317-19.2725-10.1265-20.5781-1.4194-1.1621-3.1187-1.7471-4.8208-1.7979-.269-.0283-.5415-.0449-.8179-.0449h-38.6348c-.2769 0-.5493.0166-.8184.0449-1.7021.0508-3.4014.6357-4.8208 1.7979-1.5947 1.3057-6.5186 6.3252-10.1265 20.5781-3.6074-14.2529-8.5312-19.2725-10.126-20.5781-1.4194-1.1621-3.1187-1.7471-4.8208-1.7979-.269-.0283-.5415-.0449-.8184-.0449h-38.6344c-.2764 0-.5493.0166-.8179.0449-1.7021.0508-3.4014.6357-4.8208 1.7979-1.5947 1.3057-6.5186 6.3252-10.1265 20.5781-3.6074-14.2529-8.5312-19.2725-10.1265-20.5781-1.4189-1.1621-3.1182-1.7471-4.8203-1.7979-.269-.0283-.542-.0449-.8184-.0449h-38.6347c-.2764 0-.5493.0166-.8179.0449-1.7026.0508-3.4014.6357-4.8208 1.7979-2.5171 2.0605-13.3242 13.3701-14.165 55.6279h288.7378c-.8408-42.2578-11.648-53.5674-14.165-55.6279z"/><circle cx="39.121" cy="230.604" r="22.5"/><circle cx="109.287" cy="230.604" r="22.5"/><circle cx="179.452" cy="230.604" r="22.5"/><circle cx="249.617" cy="230.604" r="22.5"/><path d="m122.5707 39.887v-33.0613c0-3.7698-3.056-6.8257-6.8257-6.8257h-69.578c-3.7697 0-6.8257 3.0559-6.8257 6.8257v33.0613c0 3.7697 3.056 6.8257 6.8257 6.8257h39.3012l28.6804 21.3578-16.781-21.3579h18.3774c3.7698 0 6.8257-3.0559 6.8257-6.8256zm-60.7707-11.9068c-2.5536 0-4.6238-2.0701-4.6238-4.6238 0-2.5536 2.0702-4.6238 4.6238-4.6238 2.5537 0 4.6239 2.0702 4.6239 4.6238.0001 2.5536-2.0701 4.6238-4.6239 4.6238zm14.5322-4.6239c0-2.5536 2.0701-4.6238 4.6238-4.6238 2.5536 0 4.6238 2.0702 4.6238 4.6238 0 2.5537-2.0702 4.6238-4.6238 4.6238-2.5537.0001-4.6238-2.0701-4.6238-4.6238zm23.7798 4.6239c-2.5536 0-4.6238-2.0701-4.6238-4.6238 0-2.5536 2.0702-4.6238 4.6238-4.6238 2.5537 0 4.6238 2.0702 4.6238 4.6238s-2.0701 4.6238-4.6238 4.6238z"/></g></svg>