<svg width="212" height="212" viewBox="0 0 212 212" fill="none" xmlns="http://www.w3.org/2000/svg">
<g clip-path="url(#clip0_5_106)">
<path d="M207.859 203.719H203.685V95.6062C203.685 93.95 202.698 92.4531 201.175 91.8006L174.582 80.4031V70.6271C174.582 63.7776 169.01 58.2052 162.16 58.2052H157.952V49.8395C157.952 42.99 152.379 37.4176 145.53 37.4176H108.061V29.0688H128.9C135.749 29.0688 141.322 23.4964 141.322 16.647V12.4219C141.322 5.57245 135.749 0 128.9 0H103.921C101.634 0 99.78 1.85376 99.78 4.14062V37.4176H62.3114C55.462 37.4176 49.8896 42.99 49.8896 49.8395V58.2052H49.8386C42.9892 58.2052 37.4168 63.7776 37.4168 70.6271V80.4031L10.8236 91.8006C9.30109 92.4531 8.31396 93.95 8.31396 95.6062V203.719H4.14062C1.85376 203.719 0 205.573 0 207.859C0 210.146 1.85376 212 4.14062 212H207.859C210.146 212 212 210.146 212 207.859C212 205.573 210.146 203.719 207.859 203.719ZM108.062 8.28125H128.9C131.183 8.28125 133.041 10.1387 133.041 12.4219V16.647C133.041 18.9301 131.183 20.7876 128.9 20.7876H108.062V8.28125ZM166.301 141.356H45.6988V133.007H166.301V141.356ZM45.6988 149.637H166.301V157.986H45.6988V149.637ZM120.568 166.267V203.719H91.432V166.267H120.568ZM128.85 166.267H166.301V203.719H128.85V166.267ZM58.1716 49.8395C58.1716 47.5563 60.0291 45.6988 62.3123 45.6988H145.53C147.813 45.6988 149.671 47.5563 149.671 49.8395V58.2052H58.1716V49.8395ZM45.6988 70.6271C45.6988 68.3439 47.5563 66.4864 49.8395 66.4864H162.161C164.444 66.4864 166.301 68.3439 166.301 70.6271V124.726H45.6988V70.6271ZM16.5965 98.3365L37.418 89.4127V203.719H16.5965V98.3365ZM45.6988 166.267H83.1504V203.719H45.6988V166.267ZM174.582 203.719V89.4127L195.404 98.3365V203.719H174.582Z" fill="black"/>
<path d="M58.1886 112.22C60.4755 112.22 62.3293 110.365 62.3293 108.079V97.024L70.7463 109.835C73.2638 113.654 78.9592 111.98 78.9592 107.238V83.1338C78.9592 80.847 77.1055 78.9932 74.8186 78.9932C72.5318 78.9932 70.678 80.847 70.678 83.1338V94.6493L61.6489 80.907C60.6444 79.3783 58.7551 78.6901 57.0019 79.2135C55.2488 79.7381 54.048 81.3509 54.048 83.1806V108.079C54.048 110.365 55.9018 112.22 58.1886 112.22Z" fill="#E65402"/>
<path d="M116.377 95.6062C116.377 93.3197 114.523 91.4656 112.236 91.4656H105.561C103.274 91.4656 101.42 93.3197 101.42 95.6062C101.42 97.8927 103.274 99.7468 105.561 99.7468H107.489C106.731 102.088 105.207 103.938 102.605 103.938C98.4959 103.938 95.4083 99.7994 95.5979 95.1884C95.8555 88.9071 101.807 85.1375 106.347 88.5676C108.172 89.9451 110.768 89.5841 112.147 87.7593C113.525 85.9345 113.163 83.3379 111.339 81.9595C101.465 74.5018 87.8541 81.9185 87.3233 94.8489C87.1266 99.6421 88.8363 104.29 92.0134 107.6C100.632 116.58 116.377 112.457 116.377 95.6062Z" fill="#E65402"/>
<path d="M141.339 112.22C150.5 112.22 157.952 104.767 157.952 95.6066C157.952 86.4459 150.5 78.9932 141.339 78.9932C132.178 78.9932 124.726 86.4459 124.726 95.6066C124.726 104.767 132.179 112.22 141.339 112.22ZM141.339 87.274C145.933 87.274 149.671 91.0118 149.671 95.6062C149.671 100.201 145.933 103.938 141.339 103.938C136.745 103.938 133.007 100.201 133.007 95.6062C133.007 91.0122 136.745 87.274 141.339 87.274Z" fill="#E65402"/>
</g>
<defs>
<clipPath id="clip0_5_106">
<rect width="212" height="212" fill="white"/>
</clipPath>
</defs>
</svg>
