<svg width="512" height="512" viewBox="0 0 512 512" fill="none" xmlns="http://www.w3.org/2000/svg">
<rect width="512" height="512" fill="#F5F5F5"/>
<g clip-path="url(#clip0_0_1)">
<rect width="512" height="512" fill="white"/>
<path d="M365.14 358.173L295.073 394.176C288.917 388.101 280.466 384.342 271.151 384.342H222.68C220.778 384.342 219.98 384.238 219.69 384.183C219.233 383.846 218.222 382.897 217.397 382.121L216.924 381.677C177.323 344.361 143.837 346.717 105.736 361.737C99.816 364.074 99.816 364.074 93.782 364.341L83.631 364.349C80.152 354.882 71.039 348.109 60.371 348.109H24.74C11.098 348.109 0 359.209 0 372.852V374.723C0 380.245 4.478 384.723 10 384.723C15.522 384.723 20 380.245 20 374.723V372.852C20 370.281 22.171 368.109 24.74 368.109H60.371C62.955 368.109 65.139 370.281 65.139 372.852V466.414C65.139 468.985 62.955 471.157 60.371 471.157H24.74C22.171 471.157 20 468.985 20 466.414V464.543C20 459.021 15.522 454.543 10 454.543C4.478 454.543 0 459.021 0 464.543V466.414C0 480.058 11.099 491.157 24.74 491.157H60.371C71.031 491.157 80.138 484.395 83.623 474.939H102.918C104.546 474.939 104.546 474.939 106.426 475.462C107.187 475.673 108.117 475.932 109.29 476.243L201.525 500.929C205.566 502.025 209.277 503.102 212.867 504.145C224.825 507.617 234.876 510.537 245.358 510.536C257.212 510.536 269.616 506.802 285.941 495.911C286.026 495.854 286.11 495.797 286.193 495.738L399.911 414.74C415.079 403.952 419.484 384.45 410.176 369.403C401.023 354.51 381.662 349.684 365.14 358.173ZM388.313 398.444L274.717 479.355C251.785 494.62 242.005 491.778 218.444 484.937C214.77 483.871 210.97 482.767 206.726 481.617L114.44 456.918C113.341 456.626 112.485 456.388 111.786 456.193C108.13 455.175 106.873 454.938 102.918 454.938H85.139V384.354H93.677C93.825 384.354 93.973 384.351 94.121 384.344L94.665 384.32C102.101 383.992 104.404 383.764 113.076 380.34C145.793 367.444 171.027 365.91 203.228 396.252L203.704 396.699C209.362 402.012 212.866 404.342 222.68 404.342H271.151C276.332 404.342 280.857 407.161 283.297 411.336C283.315 411.372 283.328 411.409 283.346 411.445C283.437 411.621 283.541 411.785 283.641 411.954C284.642 413.883 285.217 416.067 285.217 418.386C285.217 426.129 278.906 432.428 271.151 432.428H192.605C187.083 432.428 182.605 436.906 182.605 442.428C182.605 447.95 187.083 452.428 192.605 452.428H271.151C289.935 452.428 305.217 437.157 305.217 418.386C305.217 416.127 304.99 413.921 304.569 411.784L374.281 375.963C380.495 372.771 388.968 373.088 393.152 379.9C396.851 385.879 394.773 393.851 388.313 398.444Z" fill="black"/>
<path d="M487.26 20.8421H451.601C440.943 20.8421 431.838 27.6181 428.365 37.0881H409.083C407.512 37.0881 407.512 37.0881 405.706 36.5801C404.923 36.3591 403.958 36.0881 402.711 35.7551L310.474 11.0681C306.421 9.97006 302.702 8.89106 299.103 7.84606C273.637 0.457057 256.811 -4.42694 226.036 16.0841C225.949 16.1421 225.864 16.2001 225.779 16.2611L112.089 97.2591C96.92 108.048 92.499 127.558 101.813 142.651C107.943 152.559 118.607 157.995 129.928 157.995C135.57 157.995 141.375 156.644 146.862 153.825L216.894 117.827C223.047 123.917 231.501 127.685 240.821 127.685H289.293C291.209 127.685 292.009 127.79 292.298 127.846C292.759 128.186 293.781 129.153 294.617 129.942L295.053 130.353C318.345 152.283 339.511 160.502 360.739 160.5C375.616 160.499 390.526 156.46 406.207 150.273C412.139 147.954 412.139 147.954 418.212 147.686L428.376 147.678C431.856 157.146 440.954 163.918 451.602 163.918H487.261C500.903 163.918 512.001 152.806 512.001 139.147V45.5851C512 31.9411 500.901 20.8421 487.26 20.8421ZM417.881 127.682L417.331 127.706C409.888 128.033 407.584 128.259 398.893 131.659C366.189 144.562 340.956 146.102 308.767 115.796L308.351 115.402C302.67 110.036 299.151 107.684 289.292 107.684H240.82C235.617 107.684 231.077 104.831 228.653 100.614C228.643 100.594 228.636 100.573 228.625 100.552C228.556 100.418 228.475 100.295 228.401 100.165C227.372 98.2141 226.783 95.9961 226.783 93.6411C226.783 85.8821 233.08 79.5711 240.82 79.5711H319.395C324.917 79.5711 329.395 75.0931 329.395 69.5711C329.395 64.0491 324.917 59.5711 319.395 59.5711H240.82C222.051 59.5711 206.783 74.8551 206.783 93.6411C206.783 95.8871 207.007 98.0811 207.424 100.206L137.719 136.035C131.506 139.227 123.017 138.91 118.825 132.137C115.127 126.143 117.214 118.156 123.686 113.552L237.251 32.6421C260.2 17.3811 269.973 20.2181 293.525 27.0541C297.209 28.1221 301.016 29.2281 305.271 30.3801L397.544 55.0761C398.689 55.3811 399.568 55.6291 400.282 55.8301C403.599 56.7641 404.956 57.0871 409.079 57.0871H426.858V127.671H418.32C418.176 127.672 418.028 127.675 417.881 127.682ZM492 139.147C492 141.733 489.829 143.918 487.26 143.918H451.601C449.032 143.918 446.862 141.732 446.862 139.147V45.5851C446.862 43.0141 449.032 40.8421 451.601 40.8421H487.26C489.829 40.8421 492 43.0141 492 45.5851V139.147Z" fill="black"/>
<path d="M262.931 309.592L300.235 273.585C300.32 273.503 300.403 273.419 300.485 273.334C314.463 258.851 314.463 235.285 300.481 220.798C288.817 208.724 269.862 208.122 255.994 218.902C242.269 208.334 222.957 208.932 211.488 220.802C197.509 235.285 197.509 258.851 211.488 273.334C211.57 273.419 211.653 273.503 211.738 273.585L249.041 309.592C250.979 311.462 253.482 312.397 255.986 312.397C258.49 312.397 260.993 311.461 262.931 309.592ZM225.77 259.332C219.403 252.609 219.439 241.362 225.874 234.694C231.142 229.245 239.914 231.023 245.021 235.791L245.376 236.123C248.06 238.635 251.103 241.481 255.999 241.481C260.895 241.481 263.938 238.634 266.622 236.123L266.976 235.793C272.079 231.029 280.84 229.254 286.093 234.69C292.531 241.362 292.567 252.609 286.2 259.332L255.984 288.498L225.77 259.332Z" fill="#E65402"/>
<path d="M355.928 256.014C355.928 200.896 311.094 156.053 255.986 156.053C200.879 156.053 156.045 200.896 156.045 256.014C156.045 311.132 200.879 355.974 255.986 355.974C311.094 355.974 355.928 311.132 355.928 256.014ZM176.044 256.014C176.044 211.923 211.905 176.053 255.985 176.053C300.065 176.053 335.927 211.923 335.927 256.014C335.927 300.104 300.065 335.974 255.985 335.974C211.905 335.974 176.044 300.104 176.044 256.014Z" fill="#E65402"/>
<path d="M437.569 246.014H400.719C395.197 246.014 390.719 250.492 390.719 256.014C390.719 261.536 395.197 266.014 400.719 266.014H437.569C443.091 266.014 447.569 261.536 447.569 256.014C447.569 250.491 443.092 246.014 437.569 246.014Z" fill="#E65402"/>
<path d="M385.451 218.922C387.234 218.922 389.041 218.445 390.672 217.444L421.257 198.674C425.964 195.785 427.439 189.627 424.55 184.92C421.661 180.213 415.503 178.739 410.796 181.627L380.211 200.397C375.504 203.286 374.029 209.444 376.918 214.151C378.806 217.228 382.089 218.922 385.451 218.922Z" fill="#E65402"/>
<path d="M421.257 313.323L390.672 294.553C385.963 291.664 379.807 293.14 376.918 297.846C374.029 302.553 375.504 308.711 380.211 311.6L410.796 330.37C412.428 331.371 414.234 331.848 416.017 331.848C419.379 331.848 422.663 330.153 424.55 327.077C427.438 322.37 425.964 316.212 421.257 313.323Z" fill="#E65402"/>
<path d="M74.402 266.014H111.28C116.802 266.014 121.28 261.536 121.28 256.014C121.28 250.492 116.802 246.014 111.28 246.014H74.402C68.88 246.014 64.402 250.492 64.402 256.014C64.402 261.536 68.88 266.014 74.402 266.014Z" fill="#E65402"/>
<path d="M90.718 198.677L121.332 217.447C122.963 218.447 124.767 218.923 126.549 218.923C129.912 218.923 133.197 217.227 135.084 214.149C137.971 209.441 136.494 203.284 131.785 200.397L101.171 181.627C96.462 178.739 90.305 180.216 87.419 184.926C84.532 189.633 86.009 195.79 90.718 198.677Z" fill="#E65402"/>
<path d="M121.332 294.552L90.718 313.322C86.009 316.209 84.532 322.366 87.419 327.074C89.306 330.152 92.59 331.848 95.954 331.848C97.736 331.848 99.541 331.372 101.171 330.372L131.785 311.602C136.494 308.715 137.971 302.558 135.084 297.85C132.197 293.142 126.039 291.665 121.332 294.552Z" fill="#E65402"/>
<path d="M10 429.632C15.522 429.632 20 425.154 20 419.632V419.575C20 414.053 15.522 409.603 10 409.603C4.478 409.603 0 414.109 0 419.631C0 425.153 4.478 429.632 10 429.632Z" fill="black"/>
</g>
<defs>
<clipPath id="clip0_0_1">
<rect width="512" height="512" fill="white"/>
</clipPath>
</defs>
</svg>
