<svg width="512" height="512" viewBox="0 0 512 512" fill="none" xmlns="http://www.w3.org/2000/svg">
<path d="M60 238.24C70.1205 255.65 86.7197 268.347 106.172 273.558C125.624 278.77 146.347 276.071 163.816 266.052L235.52 224.64C247.433 231.719 261.011 235.509 274.868 235.623C288.725 235.738 302.364 232.173 314.392 225.292L423.008 162.584C459.752 142.376 473.268 91.908 451.556 56.036C441.198 38.137 424.162 25.0784 404.187 19.7255C384.211 14.3727 362.928 17.1629 345.008 27.484L272.72 69.22C261.366 63.0405 248.612 59.8897 235.686 60.0711C222.761 60.2526 210.1 63.7602 198.924 70.256L87.796 134.4C52 154.096 38.8 203.312 60 238.24ZM351.008 37.876C358.514 33.5424 366.8 30.7296 375.393 29.5983C383.987 28.467 392.718 29.0394 401.09 31.2827C409.462 33.5259 417.31 37.3962 424.187 42.6725C431.063 47.9489 436.832 54.5279 441.166 62.034C445.5 69.5401 448.312 77.8263 449.444 86.4194C450.575 95.0125 450.003 103.744 447.759 112.116C445.516 120.488 441.646 128.336 436.369 135.213C431.093 142.089 424.514 147.858 417.008 152.192L308.368 214.916C299.211 220.15 288.936 223.121 278.398 223.581C267.861 224.041 257.366 221.977 247.788 217.56L274.54 202.112C281.82 197.956 288.352 192.608 293.864 186.292L400.664 124.692C405.054 122.107 408.85 118.626 411.805 114.477C414.76 110.327 416.809 105.602 417.817 100.608C418.825 95.6147 418.771 90.4648 417.657 85.4937C416.543 80.5227 414.395 75.8419 411.352 71.756C405.816 64.7223 397.903 59.9509 389.098 58.3373C380.294 56.7237 371.203 58.3788 363.532 62.992L256.768 124.612C250.331 128.339 245.207 133.969 242.1 140.727C238.993 147.485 238.055 155.039 239.416 162.352L212.496 177.896C208.008 163.526 208.521 148.06 213.952 134.02C219.383 119.979 229.411 108.193 242.4 100.584L351.008 37.876ZM308.168 108.8L369.528 73.376C374.662 70.2258 380.769 69.0566 386.704 70.0875C392.638 71.1185 397.993 74.2788 401.764 78.976C403.799 81.699 405.237 84.8206 405.985 88.137C406.732 91.4534 406.772 94.8901 406.102 98.2229C405.432 101.556 404.066 104.71 402.095 107.479C400.123 110.249 397.59 112.572 394.66 114.296L307.268 164.708C314.615 146.854 314.937 126.881 308.168 108.8ZM260.088 136.88C259.919 140.433 259.01 143.911 257.419 147.092C255.827 150.273 253.589 153.086 250.848 155.352C250.943 151.784 251.82 148.28 253.416 145.088C255.013 141.896 257.29 139.096 260.088 136.88ZM204.912 80.66C213.19 75.8465 222.452 72.975 232.001 72.262C241.549 71.549 251.135 73.0131 260.036 76.544L236.46 90.144C229.204 94.2497 222.702 99.5648 217.236 105.86L109.804 167.9C101.973 172.237 95.9949 179.282 92.9907 187.714C89.9866 196.146 90.1634 205.385 93.488 213.696C95.5025 218.375 98.4804 222.576 102.228 226.027C105.975 229.478 110.407 232.1 115.236 233.723C120.064 235.346 125.18 235.933 130.251 235.446C135.322 234.958 140.233 233.408 144.664 230.896L253.576 168.016C260.062 164.202 265.252 158.525 268.47 151.724C271.689 144.922 272.787 137.31 271.624 129.876L297.624 114.864C302.236 129.061 301.872 144.406 296.59 158.368C291.309 172.33 281.426 184.074 268.572 191.664L157.8 255.656C150.519 259.925 142.465 262.711 134.102 263.854C125.74 264.998 117.234 264.476 109.074 262.318C100.914 260.161 93.2613 256.411 86.5565 251.284C79.8518 246.157 74.2274 239.754 70.0071 232.445C65.7869 225.135 63.0541 217.063 61.9662 208.693C60.8783 200.324 61.4567 191.821 63.6682 183.676C65.8796 175.53 69.6804 167.903 74.8517 161.232C80.023 154.561 86.4627 148.98 93.8 144.808L204.912 80.66ZM201.944 184L138.664 220.52C135.707 222.197 132.43 223.231 129.046 223.554C125.662 223.878 122.248 223.484 119.027 222.397C115.806 221.311 112.85 219.558 110.353 217.251C107.856 214.944 105.874 212.137 104.536 209.012C102.422 203.39 102.397 197.196 104.465 191.558C106.533 185.919 110.557 181.21 115.804 178.288L203.72 127.532C196.121 145.478 195.488 165.612 201.944 184Z" fill="#E65402"/>
<path d="M97.664 67.412L66.752 59.128C62.1404 57.8915 57.2265 58.5377 53.0914 60.9243C48.9562 63.3109 45.9384 67.2424 44.702 71.854C43.4656 76.4656 44.1117 81.3795 46.4983 85.5146C48.8849 89.6498 52.8164 92.6675 57.428 93.904L88.344 102.188C90.6274 102.8 93.009 102.956 95.3528 102.648C97.6966 102.339 99.9567 101.572 102.004 100.39C104.051 99.2084 105.846 97.6348 107.285 95.7594C108.724 93.8839 109.78 91.7434 110.392 89.46C111.004 87.1766 111.16 84.795 110.852 82.4512C110.543 80.1074 109.776 77.8473 108.594 75.7999C107.412 73.7526 105.839 71.9581 103.963 70.5189C102.088 69.0797 99.9474 68.024 97.664 67.412ZM98.796 86.352C98.3836 87.8885 97.3778 89.1983 95.9999 89.9934C94.622 90.7885 92.9847 91.0038 91.448 90.592L60.54 82.308C59.0018 81.8958 57.6902 80.8895 56.8939 79.5104C56.0977 78.1312 55.8819 76.4922 56.294 74.954C56.7062 73.4157 57.7125 72.1042 59.0916 71.3079C60.4708 70.5116 62.1098 70.2958 63.648 70.708L94.556 78.988C95.3189 79.1917 96.0341 79.5439 96.6606 80.0246C97.287 80.5052 97.8125 81.1048 98.2067 81.789C98.601 82.4731 98.8564 83.2283 98.9582 84.0113C99.06 84.7944 99.0062 85.5898 98.8 86.352H98.796Z" fill="#E65402"/>
<path d="M170.468 54.772L178.752 23.86C179.987 19.2479 179.339 14.3341 176.951 10.1997C175.768 8.15253 174.194 6.35832 172.318 4.9195C170.443 3.48068 168.302 2.42542 166.018 1.81399C163.734 1.20256 161.353 1.04691 159.009 1.35595C156.665 1.66499 154.405 2.43265 152.358 3.61511C148.223 6.0032 145.207 9.93587 143.972 14.548L135.692 45.452C134.456 50.0636 135.103 54.9772 137.49 59.112C139.877 63.2468 143.808 66.2641 148.42 67.5C153.032 68.7359 157.945 68.0892 162.08 65.7023C166.215 63.3153 169.232 59.3836 170.468 54.772ZM147.268 48.56L155.548 17.652C155.96 16.1137 156.965 14.802 158.344 14.0053C159.027 13.6109 159.781 13.3547 160.562 13.2516C161.344 13.1484 162.138 13.2002 162.9 13.404C163.662 13.6078 164.376 13.9596 165.001 14.4394C165.627 14.9192 166.152 15.5175 166.547 16.2002C166.941 16.8829 167.197 17.6366 167.3 18.4183C167.404 19.2 167.352 19.9943 167.148 20.756L158.868 51.664C158.456 53.2022 157.451 54.514 156.072 55.3106C154.693 56.1073 153.054 56.3236 151.516 55.912C149.978 55.5004 148.666 54.4945 147.869 53.1158C147.073 51.737 146.856 50.0982 147.268 48.56Z" fill="#E65402"/>
<path d="M401.6 198.544C400.373 203.155 401.023 208.064 403.409 212.196C405.795 216.328 409.721 219.346 414.328 220.588L445.244 228.872C449.856 230.108 454.769 229.461 458.904 227.074C463.039 224.687 466.056 220.756 467.292 216.144C468.528 211.532 467.881 206.619 465.494 202.484C463.107 198.349 459.176 195.332 454.564 194.096L423.648 185.812C419.036 184.586 414.126 185.237 409.994 187.623C405.861 190.01 402.843 193.937 401.6 198.544ZM455.696 213.04C455.283 214.577 454.276 215.886 452.897 216.681C451.519 217.475 449.881 217.689 448.344 217.276L417.436 208.996C415.898 208.584 414.586 207.578 413.79 206.198C412.994 204.819 412.778 203.18 413.19 201.642C413.602 200.104 414.608 198.792 415.988 197.996C417.367 197.2 419.006 196.984 420.544 197.396L451.452 205.68C452.215 205.883 452.931 206.234 453.558 206.714C454.185 207.194 454.711 207.793 455.106 208.477C455.501 209.161 455.757 209.916 455.86 210.699C455.962 211.482 455.91 212.278 455.704 213.04H455.696Z" fill="#E65402"/>
<path d="M341.532 233.228L333.252 264.14C332.641 266.423 332.485 268.805 332.794 271.149C333.103 273.492 333.87 275.752 335.053 277.799C337.44 281.933 341.372 284.949 345.984 286.184C350.596 287.419 355.509 286.771 359.643 284.383C361.69 283.201 363.484 281.627 364.923 279.752C366.361 277.876 367.417 275.735 368.028 273.452L376.308 242.548C377.544 237.936 376.897 233.023 374.51 228.888C372.123 224.753 368.192 221.736 363.58 220.5C358.968 219.264 354.055 219.911 349.92 222.298C345.785 224.685 342.768 228.616 341.532 233.228ZM364.732 239.44L356.452 270.348C356.248 271.11 355.896 271.824 355.417 272.449C354.937 273.075 354.339 273.6 353.656 273.995C352.973 274.389 352.219 274.645 351.438 274.748C350.656 274.852 349.862 274.8 349.1 274.596C348.338 274.392 347.624 274.04 346.999 273.561C346.373 273.081 345.848 272.482 345.453 271.8C345.059 271.117 344.803 270.363 344.7 269.582C344.596 268.8 344.648 268.006 344.852 267.244L353.132 236.336C353.544 234.798 354.549 233.486 355.928 232.689C357.307 231.893 358.946 231.676 360.484 232.088C362.022 232.5 363.334 233.505 364.131 234.884C364.927 236.263 365.144 237.902 364.732 239.44Z" fill="#E65402"/>
<path d="M2.86 484.748C2.86567 488.596 3.11282 492.439 3.6 496.256C4.15795 500.604 6.28014 504.6 9.56997 507.498C12.8598 510.395 17.0921 511.996 21.476 512H491.112C495.497 511.999 499.731 510.4 503.023 507.503C506.314 504.606 508.438 500.609 508.996 496.26C509.482 492.442 509.728 488.597 509.732 484.748C509.7 463.517 502.767 442.872 489.977 425.925C477.186 408.979 459.233 396.651 438.824 390.8C447.353 385.054 453.811 376.72 457.246 367.027C460.681 357.333 460.913 346.793 457.906 336.958C454.899 327.124 448.813 318.515 440.545 312.4C432.276 306.285 422.262 302.987 411.978 302.992C401.694 302.998 391.684 306.306 383.422 312.43C375.159 318.553 369.083 327.169 366.086 337.006C363.089 346.844 363.332 357.384 366.777 367.074C370.223 376.764 376.689 385.091 385.224 390.828C370.418 395.068 356.816 402.731 345.52 413.2C330.343 393.258 308.958 378.935 284.74 372.492C294.877 366.237 302.697 356.846 307.013 345.744C311.329 334.642 311.905 322.435 308.654 310.976C305.404 299.517 298.503 289.431 289 282.249C279.498 275.067 267.911 271.181 256 271.181C244.089 271.181 232.502 275.067 223 282.249C213.497 289.431 206.596 299.517 203.346 310.976C200.095 322.435 200.671 334.642 204.987 345.744C209.303 356.846 217.123 366.237 227.26 372.492C203.174 378.904 181.89 393.109 166.728 412.892C155.493 402.586 142.016 395.035 127.36 390.836C135.895 385.099 142.362 376.773 145.809 367.083C149.255 357.394 149.498 346.854 146.502 337.016C143.506 327.178 137.43 318.562 129.168 312.438C120.907 306.313 110.896 303.005 100.612 302.998C90.3284 302.992 80.3143 306.289 72.0453 312.404C63.7764 318.518 57.6898 327.127 54.6823 336.961C51.6747 346.795 51.9052 357.336 55.3399 367.029C58.7745 376.723 65.2316 385.057 73.76 390.804C53.3532 396.656 35.4021 408.985 22.6135 425.93C9.82485 442.875 2.89192 463.519 2.86 484.748ZM376 351C376 343.88 378.111 336.92 382.067 330.999C386.023 325.079 391.645 320.465 398.223 317.74C404.802 315.016 412.04 314.303 419.023 315.692C426.007 317.081 432.421 320.509 437.456 325.544C442.491 330.579 445.919 336.993 447.308 343.977C448.697 350.96 447.984 358.198 445.26 364.777C442.535 371.355 437.921 376.977 432.001 380.933C426.08 384.889 419.12 387 412 387C402.455 386.989 393.305 383.193 386.556 376.444C379.807 369.695 376.011 360.545 376 351ZM412 399C434.73 399.025 456.521 408.066 472.594 424.138C488.666 440.211 497.707 462.002 497.732 484.732C497.727 488.076 497.512 491.415 497.088 494.732C496.909 496.189 496.202 497.53 495.1 498.501C493.999 499.472 492.58 500.005 491.112 500H366.524C366.967 498.822 367.285 497.601 367.472 496.356C368.187 491.373 368.549 486.346 368.556 481.312C368.58 460.823 362.976 440.721 352.356 423.2C368.358 407.723 389.738 399.054 412 399.016V399ZM213.268 326C213.268 317.548 215.774 309.287 220.47 302.259C225.165 295.232 231.839 289.755 239.647 286.521C247.455 283.286 256.047 282.44 264.337 284.089C272.626 285.738 280.24 289.808 286.216 295.784C292.192 301.76 296.262 309.374 297.911 317.663C299.56 325.953 298.714 334.545 295.479 342.353C292.245 350.161 286.768 356.835 279.741 361.53C272.713 366.226 264.452 368.732 256 368.732C244.671 368.719 233.809 364.213 225.798 356.202C217.787 348.191 213.281 337.329 213.268 326ZM256 380.756C282.66 380.787 308.219 391.391 327.07 410.242C345.921 429.093 356.525 454.652 356.556 481.312C356.549 485.781 356.226 490.244 355.588 494.668C355.41 496.133 354.703 497.483 353.601 498.465C352.499 499.446 351.076 499.992 349.6 500H162.4C160.925 499.99 159.505 499.444 158.404 498.462C157.303 497.481 156.598 496.132 156.42 494.668C155.782 490.244 155.459 485.781 155.452 481.312C155.483 454.654 166.086 429.096 184.935 410.245C203.785 391.394 229.342 380.789 256 380.756ZM64.588 351C64.588 343.88 66.6994 336.92 70.6551 330.999C74.6108 325.079 80.2333 320.465 86.8114 317.74C93.3895 315.016 100.628 314.303 107.611 315.692C114.595 317.081 121.009 320.509 126.044 325.544C131.079 330.579 134.507 336.993 135.896 343.977C137.285 350.96 136.572 358.198 133.848 364.777C131.123 371.355 126.509 376.977 120.589 380.933C114.668 384.889 107.708 387 100.588 387C91.0435 386.989 81.8929 383.193 75.1439 376.444C68.3948 369.695 64.5986 360.545 64.588 351ZM100.588 399C122.685 398.948 143.928 407.53 159.788 422.916C149.061 440.505 143.4 460.714 143.428 481.316C143.435 486.35 143.797 491.377 144.512 496.36C144.699 497.605 145.017 498.826 145.46 500.004H21.46C19.9961 500.01 18.5806 499.48 17.48 498.515C16.3793 497.55 15.6694 496.216 15.484 494.764C15.063 491.447 14.8492 488.107 14.844 484.764C14.8641 462.029 23.9042 440.231 39.9798 424.155C56.0555 408.078 77.8531 399.037 100.588 399.016V399Z" fill="black"/>
</svg>
