<?xml version="1.0"?>
<svg xmlns="http://www.w3.org/2000/svg" id="Layer_1" data-name="Layer 1" viewBox="0 0 512 512"><path d="M245.059,64.26a51.2,51.2,0,0,1,102.39,0c0,35.322-13.478,57.668-30.77,67.245a41.662,41.662,0,0,1-40.849,0C258.567,121.928,245.059,99.582,245.059,64.26ZM91.859,483.543a7.353,7.353,0,0,0,.236.858,1.784,1.784,0,0,1-.207,1.123,1.991,1.991,0,0,1-.8.768c-.3.059-.592.178-.887.267L48.083,498.884a1.8,1.8,0,0,1-1.418-.147,1.974,1.974,0,0,1-.858-1.035L.081,341.25a1.748,1.748,0,0,1,.147-1.389A1.871,1.871,0,0,1,1.263,339l42.771-12.5a1.756,1.756,0,0,1,1.389.178,1.586,1.586,0,0,1,.857,1.034l4.582,15.607a1.671,1.671,0,0,0,.118.414v.029L86.509,465.247a1.7,1.7,0,0,0,.118.355ZM35.078,349.29l-.03-.089A7.263,7.263,0,1,0,21.1,353.25l.029.089a7.264,7.264,0,1,0,13.952-4.049ZM190.7,256.832a26.7,26.7,0,0,0,.65,11.409,26.412,26.412,0,0,0,5.5,9.961,16.879,16.879,0,0,0,1.448,1.449c13.833,11.882,56.131,17.439,98.636,17.232,42.534-.236,84.448-6.237,97.483-17.439a9.894,9.894,0,0,0,1.242-1.242,25.446,25.446,0,0,0,6.148-21.37l-3.991-26.366c-3.429-22.671-13-43.362-27.548-57.9-13.035-13.035-30.149-21.1-50.485-21.1H272.726c-20.336,0-37.45,8.069-50.486,21.1C207.7,187.1,198.121,207.8,194.692,230.466Zm237.205,98.931a13.75,13.75,0,0,0-11.026-1.951l-133.632,47c-.119.887-.237,1.8-.414,2.69a42.686,42.686,0,0,1-2.1,7.655c-3.961,10.464-11.2,17.351-20.07,20.78-9.133,3.517-19.863,3.251-30.327-.68l-59-22.14a7.271,7.271,0,0,1,5.084-13.625l59,22.139c7.124,2.66,14.218,2.955,19.982.738,5.113-1.98,9.311-6.059,11.705-12.355a27.9,27.9,0,0,0,1.359-5.025,31.568,31.568,0,0,0,.5-5.113v-.621a35.439,35.439,0,0,0-4.552-17.026,23.705,23.705,0,0,0-10.641-10.168L166.139,328.9a50.908,50.908,0,0,0-21.932-4.641c-7.3.089-14.72,1.744-22.613,4.286L66.853,346.246l31.686,108.3,19.1-5a7.131,7.131,0,0,1,4.315.206v-.029l77.5,28.346c9.133,3.34,17.587,6.03,25.479,6.828a37.8,37.8,0,0,0,21.637-3.813l167.566-85.63c1.537-.857,3.31-1.744,5.083-2.66,10.2-5.2,21.282-10.878,16.908-25.746A19.987,19.987,0,0,0,427.907,355.763ZM397.344,71.909v70.916a7.286,7.286,0,1,0,14.572,0V71.914a15.854,15.854,0,0,0,0-28.195V23.233a7.286,7.286,0,1,0-14.572,0v20.49a15.846,15.846,0,0,0,0,28.186Zm106.084-19.64V23.233a7.3,7.3,0,0,0-14.6,0V52.275a15.855,15.855,0,0,0,0,28.167v62.383a7.3,7.3,0,0,0,14.6,0V80.448a15.865,15.865,0,0,0,0-28.179ZM457.672,95.105V23.233a7.3,7.3,0,0,0-14.6,0V95.111a15.87,15.87,0,0,0,0,28.185v19.529a7.3,7.3,0,0,0,14.6,0V123.3a15.88,15.88,0,0,0,0-28.2ZM118.639,212.642a28.225,28.225,0,0,1,28.228-28.228,28.245,28.245,0,0,1-28.228-28.228,28.245,28.245,0,0,1-28.228,28.228A28.225,28.225,0,0,1,118.639,212.642Zm56.4-67.393a34.943,34.943,0,0,1,34.938-34.908A34.949,34.949,0,0,1,175.036,75.4a34.924,34.924,0,0,1-34.909,34.938A34.919,34.919,0,0,1,175.036,145.249Z"/></svg>
