<svg width="248" height="248" viewBox="0 0 248 248" fill="none" xmlns="http://www.w3.org/2000/svg">
<g clip-path="url(#clip0_12_253)">
<path d="M103.921 82.414H94.0075L87.1153 73.7931C85.7799 72.1234 83.7881 71.1658 81.6501 71.1658H60.9436C58.8055 71.1658 56.8138 72.1234 55.4779 73.7936L48.5862 82.414H35.8486C35.5899 82.3859 35.3274 82.3689 35.061 82.3689H17.2747C13.2883 82.3689 10.045 85.6123 10.045 89.5992V142.193C10.045 146.18 13.2879 149.423 17.2747 149.423H34.2225C34.4013 149.451 34.5824 149.469 34.7689 149.469H55.2987V158.996C55.2987 161.742 57.5336 163.977 60.2805 163.977H67.6638V177.604H51.9555C47.4024 177.604 43.6979 181.308 43.6979 185.862V193.249C43.6979 197.802 47.4019 201.507 51.9555 201.507H55.3529L45.2174 243.515C44.7466 245.465 45.9464 247.427 47.8969 247.898C48.1832 247.968 48.47 248 48.7519 248C50.3915 248 51.879 246.883 52.2805 245.219L62.8273 201.507H79.7664L90.3132 245.219C90.7147 246.883 92.2022 248 93.8418 248C94.1237 248 94.4105 247.968 94.6968 247.898C96.6473 247.427 97.8471 245.465 97.3763 243.515L87.2408 201.507H90.6377C95.1908 201.507 98.8958 197.803 98.8958 193.249V185.862C98.8958 181.309 95.1913 177.604 90.6377 177.604H74.9294V163.977H82.3132C85.0601 163.977 87.295 161.742 87.295 158.996V149.469H103.921C108.076 149.469 111.458 146.088 111.458 141.932V89.9504C111.458 85.7949 108.076 82.414 103.921 82.414ZM91.6297 185.861V193.249C91.6297 193.796 91.1846 194.241 90.6372 194.241H51.9555C51.4087 194.241 50.9635 193.796 50.9635 193.249V185.861C50.9635 185.315 51.4087 184.869 51.9555 184.869H90.6372C91.1846 184.87 91.6297 185.315 91.6297 185.861ZM80.0294 156.712H62.5643V149.469H80.0294V156.712ZM104.192 141.932C104.192 142.082 104.07 142.203 103.921 142.203H42.2913V115.896C42.2913 113.89 40.6652 112.264 38.6589 112.264C36.6527 112.264 35.0261 113.89 35.0261 115.896V142.158H17.3106V89.6346H34.2259C34.4037 89.6612 34.5839 89.6796 34.7689 89.6796H35.0256V98.9433C35.0256 100.95 36.6517 102.576 38.6585 102.576C40.6652 102.576 42.2913 100.95 42.2913 98.9433V89.6796H50.3329C51.4368 89.6796 52.4811 89.1778 53.1703 88.3156L61.0719 78.4319H81.5213L89.4229 88.3156C90.1126 89.1778 91.1565 89.6796 92.2604 89.6796H103.92C104.07 89.6796 104.191 89.8012 104.191 89.9509V141.932H104.192Z" fill="black"/>
<path d="M71.2966 93.7619C59.0671 93.7619 49.1176 103.711 49.1176 115.941C49.1176 128.171 59.0671 138.121 71.2966 138.121C83.5266 138.121 93.4761 128.171 93.4761 115.941C93.4761 103.711 83.5266 93.7619 71.2966 93.7619ZM71.2966 130.855C63.0734 130.855 56.3832 124.165 56.3832 115.941C56.3832 107.718 63.0729 101.028 71.2966 101.028C79.5203 101.028 86.2105 107.718 86.2105 115.941C86.2105 124.165 79.5198 130.855 71.2966 130.855Z" fill="#E65402"/>
<path d="M237.955 56.3783L237.955 56.3672C237.953 55.0478 237.612 53.7288 236.933 52.5523L224.294 30.6614C223.292 28.9235 221.068 28.3292 219.332 29.3318C217.594 30.335 216.999 32.5568 218.002 34.2942L228.654 52.7441H191.842C191.042 48.8197 188.97 45.354 186.081 42.7907L204.494 10.8975L209.048 18.7836C210.05 20.521 212.273 21.1158 214.01 20.1132C215.747 19.11 216.343 16.8882 215.34 15.1508L208.8 3.82511C207.437 1.46572 204.898 0 202.174 0H145.91C144.553 0 143.241 0.36425 142.098 1.02155C142.093 1.02445 142.088 1.02639 142.083 1.0293C142.075 1.03414 142.067 1.03995 142.059 1.0448C140.925 1.70548 139.959 2.65534 139.283 3.82559L111.151 52.5518C110.472 53.7283 110.132 55.0473 110.13 56.3667L110.129 56.3779C110.129 57.7002 110.47 59.0245 111.151 60.2039L139.283 108.93C139.95 110.084 140.899 111.022 142.012 111.681C142.037 111.696 142.059 111.713 142.084 111.727C142.096 111.734 142.108 111.739 142.12 111.745C143.258 112.395 144.561 112.755 145.911 112.755H170.409V142.203H167.046C163.975 142.203 161.476 144.702 161.476 147.773V167.512C161.476 169.519 163.102 171.145 165.109 171.145C167.116 171.145 168.742 169.519 168.742 167.512V149.468H179.344V240.733H168.742V184.466C168.742 182.459 167.116 180.833 165.109 180.833C163.102 180.833 161.476 182.459 161.476 184.466V242.429C161.476 245.501 163.975 248 167.046 248H181.039C184.11 248 186.609 245.501 186.609 242.429V147.774C186.609 144.702 184.11 142.203 181.039 142.203H177.676V112.756H202.175C204.9 112.756 207.439 111.29 208.802 108.93L236.934 60.2044C237.614 59.025 237.955 57.7007 237.955 56.3783ZM149.88 105.49L168.292 73.6051C170.1 74.2106 172.033 74.5439 174.042 74.5439C176.051 74.5439 177.984 74.2111 179.792 73.6056L198.2 105.49H149.88ZM184.941 56.3764C184.941 62.3875 180.052 67.2782 174.042 67.2782C168.033 67.2782 163.143 62.3875 163.143 56.3764C163.143 50.3672 168.033 45.478 174.042 45.478C180.052 45.478 184.941 50.3672 184.941 56.3764ZM174.042 38.2123C172.032 38.2123 170.098 38.5456 168.289 39.1515L149.879 7.26562H198.201L179.793 39.1506C177.984 38.5456 176.052 38.2123 174.042 38.2123ZM143.588 10.9009L162.001 42.7926C159.113 45.3554 157.042 48.8202 156.242 52.7436H119.43L143.588 10.9009ZM119.428 60.0092H156.243C157.043 63.9346 159.114 67.4013 162.004 69.9651L143.589 101.856L119.428 60.0092ZM204.493 101.859L186.08 69.9656C188.97 67.4018 191.042 63.9351 191.842 60.0092H228.656L204.493 101.859Z" fill="black"/>
</g>
<defs>
<clipPath id="clip0_12_253">
<rect width="248" height="248" fill="white"/>
</clipPath>
</defs>
</svg>
