<svg id="Layer_1" enable-background="new 0 0 512 512" height="512" viewBox="0 0 512 512" width="512" xmlns="http://www.w3.org/2000/svg"><path clip-rule="evenodd" d="m259.142 74.929 16.122 42.464c.485 1.277 1.613 2.096 2.977 2.163l45.367 2.211c1.421.069 2.591.964 3.031 2.317.439 1.353.019 2.765-1.09 3.656l-35.403 28.455c-1.064.855-1.495 2.182-1.137 3.499l11.916 43.83c.373 1.373-.116 2.762-1.267 3.598s-2.623.872-3.814.093l-38.003-24.877c-1.142-.748-2.537-.748-3.679 0l-38.002 24.877c-1.19.779-2.663.743-3.813-.093-1.151-.836-1.64-2.226-1.267-3.598l11.916-43.83c.358-1.317-.073-2.644-1.137-3.499l-35.403-28.455c-1.109-.891-1.53-2.303-1.09-3.656.439-1.353 1.61-2.247 3.031-2.317l45.367-2.211c1.364-.066 2.492-.886 2.976-2.163l16.122-42.464c.505-1.33 1.717-2.166 3.14-2.166s2.635.836 3.14 2.166zm-87.864-13.359 28.376 25.551c3.279 2.951 8.33 2.685 11.281-.594s2.685-8.33-.594-11.281l-28.376-25.551c-3.279-2.951-8.33-2.685-11.281.594s-2.686 8.33.594 11.281zm158.76-11.875-28.542 25.7c-3.279 2.951-3.545 8.002-.594 11.281s8.002 3.545 11.281.594l28.542-25.7c3.279-2.951 3.545-8.002.594-11.281-2.952-3.279-8.002-3.545-11.281-.594zm-66.036-6.649c0 4.418-3.582 8-8 8s-8-3.582-8-8v-29.359c0-4.418 3.582-8 8-8s8 3.582 8 8zm-8 189.838c30.999 0 56.129 25.13 56.129 56.128 0 30.999-25.13 56.129-56.129 56.129s-56.128-25.13-56.128-56.129 25.129-56.128 56.128-56.128zm110.372 221.324c-5.96-55.692-53.099-99.067-110.372-99.067-57.274 0-104.413 43.375-110.373 99.068v22.438c0 16.34 13.327 29.667 29.667 29.667h161.411c16.34 0 29.667-13.327 29.667-29.667zm57.376-180.564c23.191 0 41.991 18.801 41.991 41.991 0 23.191-18.8 41.991-41.991 41.991s-41.991-18.8-41.991-41.991c-.001-23.19 18.799-41.991 41.991-41.991zm-335.496 0c23.191 0 41.991 18.801 41.991 41.991 0 23.191-18.8 41.991-41.991 41.991s-41.991-18.8-41.991-41.991c0-23.19 18.8-41.991 41.991-41.991zm-.001 95.199c24.472 0 46.471 10.584 61.671 27.424-10.727 16.242-17.84 35.143-20.132 55.629h-102.754c-6.227 0-11.585-2.707-15.28-7.719s-4.696-10.931-2.854-16.88c10.485-33.859 42.046-58.454 79.349-58.454zm335.496 0c37.305 0 68.865 24.595 79.349 58.454 1.842 5.949.841 11.867-2.854 16.88s-9.052 7.719-15.28 7.719h-102.754c-2.292-20.486-9.406-39.386-20.132-55.629 15.201-16.84 37.2-27.424 61.671-27.424zm-341.8-293.914 16.122 42.464c.485 1.277 1.613 2.096 2.977 2.163l45.367 2.211c1.421.069 2.591.964 3.031 2.317.439 1.353.019 2.765-1.09 3.656l-35.403 28.455c-1.064.855-1.495 2.182-1.137 3.499l11.916 43.83c.373 1.373-.116 2.762-1.267 3.598s-2.623.872-3.814.093l-38.003-24.877c-1.142-.748-2.537-.748-3.679 0l-38.002 24.877c-1.19.779-2.663.743-3.813-.093-1.151-.836-1.64-2.226-1.267-3.598l11.916-43.83c.358-1.317-.073-2.644-1.137-3.499l-35.403-28.456c-1.109-.891-1.53-2.303-1.09-3.656.439-1.353 1.61-2.247 3.031-2.317l45.367-2.211c1.364-.066 2.492-.886 2.976-2.163l16.123-42.463c.505-1.33 1.717-2.166 3.14-2.166s2.634.836 3.139 2.166zm353.856 0 16.122 42.464c.485 1.277 1.613 2.096 2.977 2.163l45.367 2.211c1.421.069 2.591.964 3.031 2.317.439 1.353.019 2.765-1.09 3.656l-35.403 28.455c-1.064.855-1.495 2.182-1.137 3.499l11.916 43.83c.373 1.373-.116 2.762-1.266 3.598-1.151.836-2.623.872-3.814.093l-38.003-24.877c-1.142-.748-2.537-.748-3.679 0l-38.002 24.877c-1.19.779-2.663.743-3.814-.093s-1.64-2.226-1.267-3.598l11.916-43.83c.358-1.317-.073-2.644-1.137-3.499l-35.403-28.455c-1.109-.891-1.53-2.303-1.09-3.656.439-1.353 1.61-2.247 3.031-2.317l45.367-2.211c1.364-.066 2.492-.886 2.976-2.163l16.122-42.464c.505-1.33 1.717-2.166 3.14-2.166s2.635.836 3.14 2.166z" fill-rule="evenodd"/></svg>