<svg width="200" height="200" viewBox="0 0 200 200" fill="none" xmlns="http://www.w3.org/2000/svg">
<path d="M138.425 106.719L117.338 100.731V93.9312C120.525 91.1562 122.862 87.4812 123.962 83.3437C124.3 82.0687 124.562 81.0437 124.775 80.2312C127.762 79.5437 130.075 77.1562 130.55 74.0687L131.837 65.9687C132.212 63.5687 131.513 61.1187 129.925 59.2687C129.625 58.9187 129.3 58.5937 128.95 58.2937C129.5 56.1812 129.787 54.0187 129.8 51.8187V51.7062C129.736 47.7735 128.855 43.8971 127.213 40.3229C125.571 36.7487 123.204 33.5548 120.262 30.9437C120.15 29.7312 119.537 28.6062 118.562 27.8562C113.547 24.0455 107.424 21.9781 101.125 21.9688H98.525C93.3875 21.9688 88.6875 24.2687 84.55 27.0437C83.35 26.8187 82.0875 27.1062 81.0875 27.8687C74.55 32.8687 70.0375 42.4437 69.8625 51.8187C69.8875 54.0062 70.175 56.1812 70.7375 58.2812C69.6272 59.2029 68.7751 60.397 68.2646 61.7467C67.7541 63.0964 67.6026 64.5555 67.825 65.9812L69.1125 74.0812C69.6125 77.1687 71.925 79.5562 74.8875 80.2312C75.1 81.0437 75.3625 82.0687 75.7125 83.3437C76.8 87.4812 79.15 91.1562 82.3375 93.9312V100.731L61.2375 106.719C52.125 108.669 45.5375 116.869 45.5375 126.281V166.156C45.5375 172.706 50.875 178.031 57.4375 178.031H142.225C148.787 178.031 154.137 172.706 154.137 166.156V126.281C154.137 116.869 147.537 108.669 138.425 106.719ZM78.3375 71.6812H77.5875L76.5375 65.0562C77.825 64.9562 79 64.2812 79.7375 63.2062C80.5625 62.0437 80.75 60.5437 80.2625 59.2062L79.7125 57.6687C79.7875 57.5562 79.875 57.4562 79.9375 57.3187L84.2125 48.0312C87.775 48.2812 91.35 47.0812 94.0625 44.6812L96.8375 46.5937C102.275 50.3187 108.888 51.6562 115.288 50.4187L119.937 57.6937C119.937 57.7062 119.95 57.7062 119.95 57.7187C119.925 57.8187 119.9 57.9062 119.862 58.0062L119.425 59.1312C118.912 60.4812 119.087 61.9937 119.9 63.1812C120.65 64.2562 121.825 64.9437 123.125 65.0562L122.062 71.6812H121.325C119.212 71.6812 117.412 73.1187 117.037 75.1937C117 75.3812 116.762 76.3312 115.5 81.1062C115.056 82.7684 114.276 84.3217 113.207 85.6699C112.139 87.018 110.804 88.1324 109.287 88.9437L105.775 90.8187C103.947 91.7913 101.908 92.2999 99.8375 92.2999C97.7669 92.2999 95.728 91.7913 93.9 90.8187L90.3875 88.9437C88.8674 88.1347 87.5302 87.0213 86.4593 85.6729C85.3883 84.3245 84.6065 82.77 84.1625 81.1062C82.8625 76.2062 82.6625 75.3437 82.6375 75.2687C82.4543 74.2619 81.9235 73.3513 81.1377 72.6957C80.3519 72.0401 79.3609 71.6811 78.3375 71.6812ZM145.387 166.156C145.387 167.881 143.962 169.281 142.225 169.281H57.4375C55.7 169.281 54.2875 167.881 54.2875 166.156V126.281C54.2875 120.944 58.025 116.306 63.1625 115.256C63.275 115.231 63.375 115.206 63.475 115.181L85.925 108.794C88.9375 108.106 91.0875 105.419 91.0875 102.294V99.1812C93.839 100.417 96.8211 101.057 99.8375 101.057C102.854 101.057 105.836 100.417 108.588 99.1812V102.294C108.588 105.419 110.725 108.119 113.725 108.794L136.187 115.181C136.287 115.206 136.387 115.231 136.5 115.256C141.65 116.306 145.387 120.944 145.387 126.281V166.156Z" fill="#E65402"/>
<path d="M48.2125 109.144C51.4125 105.894 55.5125 103.506 60.175 102.469L74.7125 98.3438C75.4 97.0688 75.95 95.6938 76.325 94.2688C76.35 94.1938 76.3625 94.1188 76.3875 94.0438C74.0861 91.2359 72.415 87.9663 71.4875 84.4563C71.425 84.2688 71.375 84.0813 71.3375 83.9063C70.25 84.5063 69.45 85.5438 69.2125 86.8563C69.1875 86.9438 69.025 87.6563 67.8625 92.0313C67.4926 93.4268 66.8387 94.7309 65.9418 95.8622C65.0449 96.9936 63.9243 97.9277 62.65 98.6063L59.5625 100.256C58.0298 101.075 56.3189 101.503 54.5813 101.503C52.8436 101.503 51.1327 101.075 49.6 100.256L46.5 98.6063C43.9375 97.2313 42.025 94.8438 41.2875 92.0313C40.15 87.7563 39.975 86.9812 39.9625 86.9312C39.774 85.9257 39.2396 85.0178 38.452 84.3648C37.6643 83.7119 36.6731 83.3551 35.65 83.3562H35.4375L34.6625 78.4813C35.7334 78.2416 36.6775 77.6137 37.3125 76.7188C37.7166 76.1416 37.9754 75.4754 38.0668 74.7769C38.1582 74.0783 38.0795 73.3679 37.8375 72.7063L37.375 71.4187C37.375 71.4062 37.3875 71.3938 37.4 71.3813L41.0625 63.4313C44.125 63.5813 47.15 62.5688 49.5125 60.5688L51.725 62.0813C55.1741 64.457 59.2383 65.7813 63.425 65.8938C63.225 63.7438 63.575 61.5938 64.4125 59.6438C61.1875 59.7063 57.9875 58.8062 55.2625 56.9312L50.9625 53.9813C49.725 53.1438 48.075 53.2813 47.0125 54.3313L45.8125 55.5063C44.3 56.9813 42.0875 57.5438 40.05 56.9813C39.6875 56.8813 39.3375 56.8563 38.9875 56.8813C39.5125 55.9063 40.0875 55.0063 40.725 54.1938C41.5625 54.1313 42.375 53.8313 43.075 53.3063C46.1 50.9938 50.025 48.3313 53.425 48.3313H55.7125C58.7875 48.3313 61.825 49.1688 64.45 50.7313C64.6125 51.5063 64.9875 52.2313 65.5375 52.8188C65.525 52.4938 65.4875 52.1813 65.4875 51.8688V51.7312C65.55 48.5062 66.0625 45.2688 66.9375 42.1688C63.45 40.4938 59.6 39.5813 55.7125 39.5813H53.425C48.85 39.5813 44.675 41.5813 41 44.0188C39.8625 43.8688 38.7 44.1563 37.7625 44.8813C31.875 49.3688 27.825 57.9688 27.6625 66.3813C27.6875 68.2563 27.925 70.0938 28.375 71.8938C28.125 72.1188 27.9 72.3563 27.675 72.6063C26.9376 73.469 26.395 74.4806 26.0844 75.5722C25.7737 76.6638 25.7023 77.8095 25.875 78.9313L27.0125 86.0688C27.2321 87.4242 27.8366 88.688 28.7541 89.7097C29.6716 90.7313 30.8634 91.4677 32.1875 91.8312C32.3625 92.4937 32.575 93.2938 32.825 94.2688C33.8 97.9313 35.85 101.194 38.65 103.694V109.044L20.475 114.206C12.2125 115.981 6.25 123.419 6.25 131.944V154.544C6.25 160.606 11.175 165.531 17.25 165.531H41.3188V156.781H17.25C16 156.781 15 155.781 15 154.544V131.944C15 127.494 18.1125 123.619 22.4 122.744L22.7125 122.669L42.4625 117.056C42.6875 117.006 42.8875 116.931 43.0875 116.856C44.1375 114.344 45.6 112.044 47.4 110.031C47.6625 109.731 47.9375 109.431 48.2125 109.144ZM179.525 114.206L161.338 109.044V103.694C164.138 101.194 166.187 97.9313 167.162 94.2688C167.412 93.2938 167.625 92.4937 167.8 91.8312C170.488 91.0937 172.538 88.8813 172.975 86.0563L174.112 78.9187C174.462 76.6562 173.813 74.3438 172.313 72.6063C172.1 72.3563 171.875 72.1188 171.625 71.9063C172.075 70.1063 172.3 68.2563 172.325 66.3938V66.2688C172.265 62.7672 171.485 59.3155 170.034 56.1284C168.582 52.9414 166.49 50.0873 163.888 47.7438C163.738 46.6063 163.138 45.5813 162.213 44.8688C157.709 41.4438 152.208 39.5868 146.55 39.5813H144.263C140.138 39.5813 136.35 41.2063 132.963 43.3063C133.7 45.9688 134.125 48.7562 134.175 51.6187V51.8188C134.175 52.2688 134.138 52.7063 134.113 53.1563C137.113 50.8688 140.925 48.3313 144.263 48.3313H146.55C149.625 48.3313 152.663 49.1688 155.288 50.7313C155.5 51.7438 156.075 52.6688 156.912 53.3063C159.037 54.9313 160.7 56.9938 161.838 59.3063C161.113 58.8938 160.238 58.7688 159.388 59.0188C157.158 59.6867 154.806 59.8459 152.507 59.4847C150.207 59.1234 148.018 58.2508 146.1 56.9312L141.8 53.9813C141.202 53.5759 140.482 53.3893 139.763 53.4531C139.043 53.5169 138.367 53.827 137.85 54.3313L136.65 55.5063C135.837 56.2938 134.825 56.8187 133.75 57.0437C135.05 58.7687 135.875 60.7687 136.175 62.8687C137.688 62.3812 139.112 61.6188 140.35 60.5688L142.563 62.0813C147.363 65.3813 153.187 66.5938 158.837 65.5688L162.612 71.4688C162.6 71.5313 162.575 71.5813 162.563 71.6438L162.175 72.6313C161.663 73.9813 161.837 75.4938 162.65 76.6813C163.287 77.6063 164.25 78.2438 165.325 78.4813L164.538 83.3562H164.338C162.225 83.3562 160.425 84.7688 160.05 86.8563C160.025 86.9438 159.862 87.6563 158.7 92.0313C158.33 93.4268 157.676 94.7309 156.779 95.8622C155.882 96.9936 154.762 97.9277 153.488 98.6063L150.387 100.256C148.857 101.075 147.148 101.503 145.413 101.503C143.677 101.503 141.968 101.075 140.437 100.256L137.338 98.6063C136.063 97.9277 134.943 96.9936 134.046 95.8622C133.149 94.7309 132.495 93.4268 132.125 92.0313C130.987 87.7563 130.8 86.9812 130.787 86.9312C130.661 86.2534 130.375 85.6154 129.954 85.0698C129.532 84.5243 128.987 84.0869 128.363 83.7938L128.188 84.4687C127.288 87.8687 125.687 91.0063 123.525 93.7438C123.575 93.9188 123.613 94.0825 123.663 94.2688C124.05 95.7438 124.625 97.1438 125.337 98.4563L139.487 102.469C144.187 103.506 148.325 105.931 151.538 109.231C151.9 109.606 152.25 109.994 152.587 110.394C154.212 112.294 155.55 114.431 156.538 116.744C156.85 116.869 157.175 116.981 157.513 117.056L177.275 122.669L177.588 122.744C181.875 123.631 185 127.494 185 131.944V154.544C185 155.781 183.988 156.781 182.738 156.781H158.356V165.531H182.738C188.813 165.531 193.75 160.606 193.75 154.544V131.944C193.75 123.419 187.775 115.994 179.525 114.206ZM106.999 116.748C106.999 116.78 106.987 116.801 106.987 116.833C106.976 116.952 106.955 117.069 106.924 117.185C106.887 117.342 106.822 117.49 106.731 117.624C106.72 117.645 106.71 117.666 106.689 117.677V117.689L106.604 117.796L103.363 125.241L108.54 143.886L106.496 148.08L99.8425 161.763L93.1675 148.091L91.1238 143.897L96.3125 125.241L93.0713 117.806L92.9862 117.689C92.9862 117.689 92.9862 117.677 92.975 117.677C92.965 117.656 92.9537 117.646 92.9425 117.624C92.8708 117.522 92.8132 117.41 92.7713 117.293V117.281C92.7288 117.164 92.7075 117.025 92.6863 116.896V116.833C92.675 116.704 92.6863 116.565 92.7075 116.436C92.74 116.308 92.7825 116.19 92.8362 116.073C92.8362 116.061 92.8362 116.041 92.8475 116.03C92.8687 115.987 92.9012 115.945 92.9225 115.901L92.9762 115.815C92.9975 115.804 93.0088 115.783 93.0188 115.761L93.0513 115.73C93.1263 115.644 93.2113 115.57 93.2975 115.495C93.3075 115.485 93.3187 115.464 93.34 115.453C93.3512 115.443 93.3612 115.443 93.3725 115.431C93.3837 115.42 93.3937 115.41 93.405 115.41L98.9675 110.371C99.2276 110.199 99.5328 110.107 99.845 110.107C100.157 110.107 100.462 110.199 100.723 110.371L106.275 115.41C106.286 115.41 106.286 115.421 106.296 115.431C106.318 115.431 106.329 115.443 106.339 115.453C106.36 115.464 106.371 115.485 106.381 115.495C106.478 115.57 106.552 115.645 106.616 115.72C106.627 115.741 106.649 115.753 106.659 115.763C106.67 115.784 106.691 115.805 106.701 115.826C106.798 115.955 106.861 116.094 106.905 116.244C106.926 116.28 106.94 116.32 106.947 116.361C106.977 116.48 106.999 116.619 106.999 116.748Z" fill="black"/>
</svg>
