<svg height="512" viewBox="0 0 32 32" width="512" xmlns="http://www.w3.org/2000/svg"><g id="user"><circle cx="19.43" cy="5.714" r="5.714"/><path d="m8.8009 15.2114-6.5143 2.0572v8.2171a5.6763 5.6763 0 0 0 .5714 2.6857c1.4286 2.8343 5.0286 3.6457 5.9429 3.8172.9029-.1715 4.5029-.9829 5.9314-3.8172a5.6277 5.6277 0 0 0 .5715-2.6515v-8.2513zm4.7891 6.3543-4.4577 4.4457a1.118 1.118 0 0 1 -1.6114 0l-2.3657-2.3542a1.1382 1.1382 0 0 1 0-1.6115 1.1519 1.1519 0 0 1 1.6228 0l1.5543 1.5429 3.6343-3.6344a1.1522 1.1522 0 0 1 1.6229 0 1.1382 1.1382 0 0 1 .0005 1.6115z"/><path d="m29.7152 32h-3.4286v-10.2857a1.1429 1.1429 0 1 0 -2.2857 0v10.2857h-9.1429v-.36a8.049 8.049 0 0 0 1.9152-2.4476v-.0012a7.7412 7.7412 0 0 0 .8168-3.7012v-9.0614a1.1408 1.1408 0 0 0 -.798-1.0893l-2.2575-.7137a9.4544 9.4544 0 0 1 4.0376-.9113h1.7143a9.44 9.44 0 0 1 9.4286 9.4286z"/></g></svg>