<svg id="Icons" height="512" viewBox="0 0 60 60" width="512" xmlns="http://www.w3.org/2000/svg"><path d="m21 43a2 2 0 0 1 2 2 1 1 0 0 0 2 0 4 4 0 0 0 -3-3.858v-.142a1 1 0 0 0 -2 0v.142a3.992 3.992 0 0 0 1 7.858 2 2 0 1 1 -2 2 1 1 0 0 0 -2 0 4 4 0 0 0 3 3.858v.142a1 1 0 0 0 2 0v-.142a3.992 3.992 0 0 0 -1-7.858 2 2 0 0 1 0-4z"/><path d="m26 2h-3.153l-.667 4h3.82z"/><path d="m17 25a.986.986 0 0 0 .537.88 1 1 0 0 1 .525.7 2.993 2.993 0 0 0 5.876 0 1 1 0 0 1 .525-.7.986.986 0 0 0 .537-.88 1 1 0 0 0 -.5-.867.97.97 0 0 1 -.2-.152 8.321 8.321 0 0 1 -3.046-.655 3.749 3.749 0 0 1 -2.648.934 6.112 6.112 0 0 1 -1.124-.11 1 1 0 0 0 -.482.85z"/><path d="m15 12.643a3.99 3.99 0 0 1 -3 1.357 3.941 3.941 0 0 1 -2-.562v22.562h3v-2a5.975 5.975 0 0 1 3.689-5.508 4.967 4.967 0 0 1 -.489-1.092 2.994 2.994 0 0 1 -.2-4.634v-.766a5 5 0 1 1 10 0v.765a2.994 2.994 0 0 1 -.2 4.634 4.967 4.967 0 0 1 -.484 1.093 5.975 5.975 0 0 1 3.684 5.508v2h3v-22.562a3.941 3.941 0 0 1 -2 .562 3.99 3.99 0 0 1 -3-1.357 3.995 3.995 0 0 1 -6 0 3.995 3.995 0 0 1 -6 0z"/><path d="m28 2h4v4h-4z"/><path d="m24 12a2 2 0 0 0 2-2v-2h-4v2a2 2 0 0 0 2 2z"/><path d="m30 12a2 2 0 0 0 2-2v-2h-4v2a2 2 0 0 0 2 2z"/><path d="m42 21h12v33h-12z"/><path d="m39 19h18a1 1 0 0 0 0-2h-18a1 1 0 0 0 0 2z"/><path d="m34.757 2.444a.98.98 0 0 0 -.757-.435v3.991h3.126z"/><path d="m36 12a2 2 0 0 0 2-2v-2h-4v2a2 2 0 0 0 2 2z"/><path d="m36 14a3.941 3.941 0 0 1 -2-.562v22.562h2z"/><path d="m38 20.816v15.184h1a2.966 2.966 0 0 1 1 .184v-15.184h-1a2.966 2.966 0 0 1 -1-.184z"/><path d="m6 36h2v-22.562a3.941 3.941 0 0 1 -2 .562z"/><path d="m10.382 2h-2.312a.988.988 0 0 0 -.826.441l-2.369 3.559h3.507z"/><path d="m6 12a2 2 0 0 0 2-2v-2h-4v2a2 2 0 0 0 2 2z"/><path d="m57 56h-18a1 1 0 0 0 0 2h18a1 1 0 0 0 0-2z"/><path d="m39 54h1v-15a1 1 0 0 0 -1-1h-36a1 1 0 0 0 -1 1v18a1 1 0 0 0 1 1h33.184a2.966 2.966 0 0 1 -.184-1 3 3 0 0 1 3-3z"/><path d="m15 34v2h12v-2a3.982 3.982 0 0 0 -3.178-3.893 4.905 4.905 0 0 1 -5.644 0 3.982 3.982 0 0 0 -3.178 3.893z"/><path d="m20.105 21.553a1 1 0 0 1 .735-.54.987.987 0 0 1 .867.28 4.666 4.666 0 0 0 2.293.657 3 3 0 0 0 -6 .05v.2c.7.1 1.727.107 2.105-.647z"/><path d="m14 10v-2h-4v2a2 2 0 0 0 4 0z"/><path d="m20.82 2h-3.099l-1.334 4h3.766z"/><path d="m15.612 2h-2.994l-2 4h3.661z"/><path d="m18 12a2 2 0 0 0 2-2v-2h-4v2a2 2 0 0 0 2 2z"/><path d="m46 31h4a2 2 0 0 0 2-2v-4a2 2 0 0 0 -2-2h-4a2 2 0 0 0 -2 2v4a2 2 0 0 0 2 2zm0-6h4v4h-4z"/><path d="m50 33h-4a1 1 0 0 0 0 2h4a1 1 0 0 0 0-2z"/><path d="m50 37h-4a1 1 0 0 0 0 2h4a1 1 0 0 0 0-2z"/><path d="m50 41h-4a1 1 0 0 0 0 2h4a1 1 0 0 0 0-2z"/><path d="m50 45h-4a1 1 0 0 0 0 2h4a1 1 0 0 0 0-2z"/></svg>