<svg id="Layer_1" height="512" viewBox="0 0 512 512" width="512" xmlns="http://www.w3.org/2000/svg" data-name="Layer 1"><path d="m454.591 370.321-65.774 65.817a7.957 7.957 0 0 0 -2.129 3.828l-65.008-.558-.05-41.259c-.031-25.137 4.406-29.064 22.394-44.224 12.8-10.788 29.071-24.5 42.555-40.332 4.637-3.926 11.482-4.464 15.957.01 5.053 5.053 3.986 10.577-.019 15.924-6.648 7.461-13.832 14.414-21.245 21.587-4.083 3.952-8.227 7.962-11.045 10.78a8 8 0 0 0 11.313 11.312c4.575-4.575 7.739-7.638 10.857-10.655 11.839-11.457 31.169-29.217 37.277-45.585a51 51 0 0 0 3.189-18.214l-.3-79.019c-.036-9.605 1.406-34.267 15.479-34.714 5.993-.191 13.842 4.965 14.02 11.253l4.122 145.464a37.957 37.957 0 0 1 -2.66 15.413 39.644 39.644 0 0 1 -8.932 13.172zm-155.391-99.265 17.438 40.487 22.323-35.973 41.474 8.494-23.585-54.759c-15.406 6.6-12.6 7.8-22.5 22.933a41.246 41.246 0 0 1 -35.15 18.818zm-76.94-127.569a8 8 0 0 1 11.313-11.312l17.113 17.112 48.977-44.447a7.986 7.986 0 0 1 10.75 11.812l-54.3 49.282a8 8 0 0 1 -11.357.045l-22.492-22.492zm157.09-40.437c-21.823-20.481-18.931-15.474-25.758-44.613a25.2 25.2 0 0 0 -23.421-19.652c-28-1.558-24.937-.05-48.407-17.619a25.2 25.2 0 0 0 -30.574 0c-23.961 17.934-18.527 15.957-48.409 17.619a25.2 25.2 0 0 0 -23.421 19.652c-6.826 29.14-3.935 24.132-25.757 44.613a25.2 25.2 0 0 0 -5.309 30.109c13.5 26.709 12.5 21.015 8.945 50.731a25.2 25.2 0 0 0 15.287 26.478c27.511 11.782 23.082 8.066 39.462 33.113a25.2 25.2 0 0 0 28.73 10.456c28.648-8.658 22.866-8.658 51.514 0a25.2 25.2 0 0 0 28.73-10.456c16.38-25.048 11.951-21.331 39.462-33.113a25.2 25.2 0 0 0 15.287-26.478c-3.552-29.716-4.556-24.022 8.945-50.731a25.2 25.2 0 0 0 -5.308-30.109zm-112.875 103.882a71.4 71.4 0 1 1 71.4-71.4 71.4 71.4 0 0 1 -71.4 71.4zm-50.981 117.631-21.271-36.6-41.705 7.286 29.518-63.4c7.74 3.314 11.821 13.142 16.562 20.392a41.243 41.243 0 0 0 42.125 18.135l-25.229 54.19zm-158.084 45.758c-7.91-7.906-11.91-17.365-11.592-28.585l4.121-145.464c.178-6.288 8.027-11.444 14.02-11.253 14.073.447 15.515 25.109 15.479 34.714l-.3 79.019a51 51 0 0 0 3.189 18.214c6.029 16.155 25.012 33.716 37.277 45.585 3.118 3.017 6.283 6.08 10.857 10.655a8 8 0 0 0 11.313-11.312c-2.817-2.818-6.962-6.828-11.045-10.78-7.413-7.173-14.6-14.126-21.245-21.587-4.005-5.347-5.072-10.871-.019-15.924 4.475-4.474 11.321-3.936 15.957-.01 13.484 15.831 29.755 29.544 42.555 40.332 17.988 15.16 22.426 19.087 22.394 44.224l-.05 41.259-65.008.558a7.964 7.964 0 0 0 -2.128-3.828zm161.044 94.351a9.534 9.534 0 0 0 -9.587-9.424l-108.116.929a9.533 9.533 0 0 0 -9.422 9.587l.178 20.812a9.534 9.534 0 0 0 9.587 9.424l108.115-.929a9.533 9.533 0 0 0 9.423-9.587zm-19.316 16.6a6.467 6.467 0 1 1 3.62-8.4 6.467 6.467 0 0 1 -3.62 8.403zm212.111-25.1-108.116-.929a9.532 9.532 0 0 0 -9.586 9.424l-.179 20.812a9.533 9.533 0 0 0 9.423 9.587l108.115.934a9.534 9.534 0 0 0 9.587-9.424l.178-20.812a9.533 9.533 0 0 0 -9.422-9.587zm-89.988 21.478a6.467 6.467 0 1 1 -3.62-8.4 6.466 6.466 0 0 1 3.62 8.405z" fill-rule="evenodd"/></svg>