<svg width="512" height="512" viewBox="0 0 512 512" fill="none" xmlns="http://www.w3.org/2000/svg">
<path d="M189.42 148.162H420.062C424.204 148.162 427.562 144.805 427.562 140.663C427.562 136.521 424.204 133.163 420.062 133.163H189.42C185.278 133.163 181.92 136.521 181.92 140.663C181.92 144.805 185.278 148.162 189.42 148.162Z" fill="#E65402"/>
<path d="M427.562 193.672C427.562 189.53 424.204 186.172 420.062 186.172H189.42C185.278 186.172 181.92 189.53 181.92 193.672C181.92 197.814 185.278 201.171 189.42 201.171H420.062C424.204 201.171 427.562 197.814 427.562 193.672Z" fill="#E65402"/>
<path d="M427.562 248.846C427.562 244.704 424.204 241.346 420.062 241.346H277.453C273.311 241.346 269.953 244.704 269.953 248.846C269.953 252.988 273.311 256.346 277.453 256.346H420.062C424.204 256.346 427.562 252.988 427.562 248.846Z" fill="#E65402"/>
<path d="M426.129 289.938H351.646C347.504 289.938 344.146 293.296 344.146 297.438C344.146 301.58 347.504 304.938 351.646 304.938H426.129C430.271 304.938 433.629 301.58 433.629 297.438C433.629 293.296 430.271 289.938 426.129 289.938Z" fill="#E65402"/>
<path d="M484.622 73.3813L408.905 3.8613L408.655 3.6289C406.028 1.1734 404.005 0.00500488 399.607 0.00500488H128.227C116.796 0.00500488 107.495 9.30111 107.495 20.728V260.661H64.6654C54.915 260.661 52.2382 267.317 51.5087 271.291C49.7909 280.71 42.644 288.188 33.6992 289.904C21.7442 292.241 21.9151 300.899 22.0279 306.628C22.044 307.446 22.0621 308.336 22.0621 309.304V408.884C22.0621 432.441 31.1055 443.46 47.8032 455.428L105.758 504.487C105.917 504.622 106.083 504.751 106.254 504.872C112.961 509.646 119.507 511.995 126.155 511.995C127.094 511.995 128.036 511.948 128.981 511.855C136.513 512.59 144.156 510.244 151.703 504.872C151.874 504.751 152.039 504.622 152.199 504.487L199.49 464.455H469.236C480.668 464.455 489.968 455.159 489.968 443.732V88.9526C489.968 88.4175 489.976 87.9165 489.983 87.4443C490.042 83.4181 490.115 78.4075 484.622 73.3813ZM474.487 84.4381C474.737 84.6671 474.882 84.8263 474.958 84.9181C474.963 84.9631 474.965 85.0354 474.969 85.0909H401.051C400.182 85.0909 399.128 85.0909 398.266 85.0538V15.0046H398.863L474.487 84.4381ZM142.758 492.826C138.052 496.122 133.982 497.41 129.974 496.872C129.643 496.828 129.311 496.806 128.978 496.806C128.647 496.806 128.316 496.828 127.987 496.872C123.967 497.408 119.902 496.12 115.198 492.826L57.2612 443.783C57.104 443.649 56.9414 443.523 56.7739 443.403C42.8731 433.477 37.0621 426.487 37.0621 408.884V309.304C37.0621 308.229 37.0431 307.241 37.025 306.332C37.0138 305.756 37.0011 305.117 36.9996 304.541C51.2012 301.626 62.6083 290.175 65.9213 275.661H192.033C195.323 290.184 206.739 301.635 220.957 304.541C220.956 305.118 220.943 305.757 220.932 306.333C220.913 307.242 220.895 308.229 220.895 309.304V408.884C220.895 426.487 215.083 433.477 201.183 443.403C201.015 443.523 200.853 443.649 200.695 443.783L192.06 451.093C191.97 451.164 191.884 451.239 191.798 451.314L142.758 492.826ZM469.236 449.456H217.858C229.611 439.435 235.895 428.512 235.895 408.884V309.304C235.895 308.336 235.913 307.447 235.929 306.629C236.041 300.9 236.212 292.242 224.232 289.899C215.289 288.184 208.144 280.713 206.446 271.283C205.718 267.317 203.042 260.661 193.291 260.661H122.495V20.728C122.495 17.5718 125.067 15.0045 128.227 15.0045H383.266V85.3726C383.266 93.2547 387.104 96.8117 390.324 98.4079C393.718 100.091 397.446 100.091 401.051 100.091H474.969V443.732C474.968 446.888 472.397 449.456 469.236 449.456Z" fill="black"/>
<path d="M177.043 339.141C174.068 336.259 169.32 336.335 166.437 339.31L109.593 397.993L90.3329 384.972C86.9018 382.651 82.2387 383.553 79.9189 386.984C77.5991 390.416 78.5 395.078 81.9316 397.398L106.403 413.942C107.682 414.807 109.145 415.229 110.6 415.229C112.575 415.229 114.533 414.451 115.991 412.947L177.212 349.746C180.093 346.771 180.018 342.023 177.043 339.141Z" fill="#E65402"/>
</svg>
