<svg xmlns="http://www.w3.org/2000/svg" id="Layer_1" enable-background="new 0 0 68 68" height="512" viewBox="0 0 68 68" width="512"><g id="_x38_7"><path d="m22.4884644 33.7730103c.2974339.3217583.3484287.2047386 2.8330688 1.1807251l.2288818 1.5619507c-.5258789.5245972-1.1325073.9735718-1.7875366 1.3198242-.0542603.0131836-.109314.012085-.1622925.0353394-.4868164.2133789-.7084961.78125-.4946289 1.2680664l1.3623047 3.1064453c.1582031.3608398.5112305.5761719.8818359.5761719.5391941 0 .0629482.0842361 2.5852051-.9574585.21838.1491661 1.285902.8739014 1.345459.9141846l-.5084229 2.2738647c-.0145264.0274048-.0385742.0463257-.0506592.0755615-.1874008.4531441-.0152798 1.0385513.6558838 1.3060913.3094997.0946121 1.614584.6921043 3.6077881.7940063.296257.0084648.5419731-.0974159.7331543-.2927856.0906982-.0684814.1660156-.1551514.2288818-.2548828.9970207-.4671364.9688988-.9001923 1.1444092-1.5618286.0858154-.3236694.1760864-.6461182.2651367-.9689331l1.0249634.0254517 1.3139038 1.9494629c.0246582.0366211.0651245.0517578.093689.0838623.1006126.0841827.1732635.1937599.4213257.2719727.2558746.0841484.4064522.1034851.6956787-.0355835.9843864-.4733238 1.8425293-.7400818 3.052002-1.5302124.3544922-.2319336.4943848-.6553345.3939209-1.0440674.3560104-.9172935.145668-.7380753-.6295166-2.5001221.29216-.3337555.5304108-.6279755.97229-1.1688843.1370506.0313644 2.0918045.4788399 1.9714355.4512939.1002541.0177765.1220474.0298462.239624.0298462.2240105 0 .4979858-.1179962.6714478-.2910767.4915237-.6011848 1.3233948-2.8755646 1.3591919-3.5933838.0233154-.277771-.0722656-.534668-.2541504-.7288818-.0605545-.8103409-.028347-.5670662-2.5082397-1.5635986.0789185-.484436.107605-.930603.0913086-1.3460693.7606812-.4164429 1.4936523-.8843994 2.1624146-1.4379272.409668-.3388672.4672852-.9453125.128418-1.3549805-.0283203-.0343018-.0675049-.0510864-.0993042-.0804443-.5631714-.9685669-1.1891479-1.9127808-1.867981-2.8052979-.2453003-.322876-.6549683-.442688-1.0234375-.3405151-.663723.1416492-1.4549942.4370346-2.0758057.7045898l-.7952271-.7988281c.1893311-.8464966.267334-1.7116699.2209473-2.5810547.1077271-.4609375-.1211548-.9420776-.5759888-1.1165161-1.5027199-.5757084-3.1482048-.881567-3.7426147-.8850098-.3845825-.0440063-.7724609.1426392-.9609985.5065918-.3754272.72052-.6678467 1.4806519-.9156494 2.2544556-.6274414-.0628052-1.2639771-.0571289-1.8912354.0131836l-1.1447754-1.8672485c-.277832-.4521484-.8691406-.5957031-1.3237305-.3168945-.0358276.0219727-.0565796.0566406-.0884399.0822754-2.5116901 1.5443077-2.9480667 1.5804462-3.1274414 2.1838379-.0019531.0074463-.0023804.0147705-.0041504.0222778-.160471.5892181.1689625.7751637.8878174 2.6066284l-.9417114 1.5668945-2.4394531-.875c-.5470238-.1923428-1.2238846.1328163-1.2693481.8449097-.4363918 1.1385345-.7208652 2.3133526-1.100769 3.2420044-.1442224.3519972-.0182725.8163221.2111205 1.0457152zm13.4701538-6.7802124c.5222282-.3615284.2283363-.5801945 1.1072998-2.5187988.6505737.1055908 1.289856.2608643 1.9175415.4634399.0087395 1.9162216-.5288467 2.1795311-.1424561 2.8140869.1348076.4193974.2632217.3678856 1.7254028 1.8942261.2630005.2636833.6707764.3740788 1.074707.1925659.0508423-.0149536.1035156-.0113525.152832-.0353394.5266724-.2563477 1.079834-.4554443 1.6419678-.6243896.3703003.5142212.7207642 1.0415039 1.0514526 1.5812378-.4404907.3116455-.8978271.5960083-1.3765259.8442383-.0288086.00354-.0560303-.0050049-.0849609.0011597-.4897461.1073608-.7967529.5714111-.7362061 1.0597534.0724564.6896782.1305161 1.1368179-.1846924 2.3318481-.1381226.5231819.1813126 1.1009445.7922974 1.1903076.6734619.2940674 1.3250732.637207 1.9579468 1.0110474-.1378784.480835-.3094482.9484253-.5152588 1.4042358l-1.8116455-.4146729c-.8827324-.1996727-1.0395012.6478996-2.6298828 2.3216553-.3412476.2388306-.5100098.6697998-.3701172 1.0845947l.7105103 2.1054077c-.4460945.2426796-.8822861.4328499-1.4066162.666748l-.9360352-1.3887329c-.0946045-.3452148-.3690796-.6018066-.7248535-.6752319-.2145195-.0662651-.1812935-.0258102-2.902771-.1056519-.4355888.0012131-.7958336.2966003-.9187622.656189-.2078629.558094-.3152618.9699402-.8790894 2.3947144-.5737305-.0671387-1.1389771-.1829224-1.6900024-.354248l.5376587-2.4046631c.1157227-.519043-.2109375-1.0332031-.7294922-1.1494141-.0008545-.0001831-.0015869.0001221-.0024414-.000061-.9484158-.6554756-1.1664391-.7761917-1.8155518-1.2335205-.2172928-.2311516-.5435123-.3483658-.9348145-.2609863-.0461426.0118408-.0930786.0091553-.1383057.0282593l-1.8270874.7776489-.6306152-1.4381104c.7697754-.4799805 1.4758911-1.0738525 2.0724487-1.7487183.4229603-.478714.1459141-.8202362-.1625977-3.3076172-.0441723-.300766-.3464317-.7020721-.6567383-.8183594l-2.1011353-.7890625c.2018814-.6040916.3602886-1.1622353.5568237-1.7546387l1.9731445.7077026c.022583.0164185.0360107.0405884.0604248.0552368.4547691.2745781 1.0473709.1271038 1.3208008-.3286133 1.5264072-2.6267872 1.6342087-2.5334568 1.6620483-2.9941406.21134-.5981941-.1820316-.9079094-.6950684-2.2622681l1.2831421-.7635498.7767334 1.2672729c.0004883.0024414-.0004883.0046387 0 .0070801.103775.5139332.6024532.8585625 1.1337891.7539063.8769535-.1767576 2.8039707.3687116 3.4947514-.2437742z" style="&#10;    fill: #e65402;&#10;"/><path d="m30.2939453 37.4309082c1.2363529 1.9612007 3.8437271 2.9280319 6.0786133 2.2314453 2.2182617-.7006836 3.8164063-2.9785156 3.7182617-5.2983398-.0942383-2.3779297-1.777832-4.4814453-4.0048828-5.0024414-.1200447-.0277023-.157135-.020298-.8881836-.0854492-1.9077148-.0078125-3.0883789.456543-4.2744141 1.7080078-1.605957 1.6884765-1.8769531 4.4594726-.6293945 6.4467773zm2.0253906-5.121582c.8017578-.8457031 1.456543-1.1123047 2.6923828-1.1123047 1.8267822 0 3.0926094 1.6313057 3.1552734 3.2441406v.003418c.0625 1.4560547-.980957 2.9418945-2.3710938 3.3808594-1.3935547.4365234-3.0961914-.1879883-3.8720703-1.4194336-.7807616-1.2431641-.6074217-3.0419922.3955079-4.0966797z" style="&#10;    fill: #e65402;&#10;"/><path d="m63.6660156 32.7619629c-1.4263916 0-2.6183472.9783936-2.9694214 2.2957764l-5.7977905.0765381c-.2016869-4.6302757-2.0215874-9.2955894-5.4382935-12.7365723l7.3659668-6.8320923c2.0420151 1.5199261 4.9157104.0535088 4.9157104-2.4672241 0-1.7006836-1.3833008-3.0844727-3.0839844-3.0844727-2.2193871 0-3.763649 2.3104239-2.7844238 4.3891602l-7.5187988 6.973877c-1.9596558-1.6737671-4.2646484-2.9358521-6.7227783-3.7264404-1.9155273-.7772827-3.9908447-1.2295532-6.1608276-1.3173828l-.1205444-8.0252075c1.3997192-.2914429 2.454834-1.5336304 2.454834-3.0186157 0-1.7006836-1.3833008-3.0844727-3.0839844-3.0844727s-3.0844727 1.3837889-3.0844727 3.0844725c0 1.3956909.9378662 2.5639648 2.2121582 2.9429932l.1216431 8.1008911c-4.5134277.1828613-8.605957 1.9875488-11.7203979 4.8553467l-7.1939697-7.7561035c1.3484707-2.0437279-.1246872-4.7764282-2.5737305-4.7764282-1.7006836 0-3.0839844 1.3833008-3.0839844 3.0839844 0 2.2681265 2.4283361 3.850956 4.5454102 2.6992798l7.2437134 7.8097534c-3.0010376 3.24823-4.8583374 7.5623779-4.9049072 12.3122559l-8.9016724-.0993652c-.1834717-1.5267944-1.4716187-2.7185059-3.0469971-2.7185059-1.7006836 0-3.0844727 1.3837891-3.0844727 3.0844727s1.3837891 3.0839844 3.0844727 3.0839844c1.3002319 0 2.4093018-.8110962 2.8621826-1.9518433l9.144104.1021118c.1233521 1.7312012.4870605 3.3927612 1.0571899 4.9602051.5518188 2.0025635 1.4182129 3.9138184 2.5797729 5.6334229l-7.8383179 7.2702026c-2.0315723-1.3896141-4.8200684.0662842-4.8200684 2.5464478 0 1.7006836 1.3833008 3.0839844 3.0839844 3.0839844 2.2482824 0 3.828208-2.387104 2.7237549-4.5003662l7.7426758-7.1815186c3.1062164 3.8457909 7.6604881 6.2351112 12.3377686 6.9155884v4.9001465c-1.4030151.2890015-2.4614258 1.5336914-2.4614258 3.0209351 0 1.7006836 1.3837891 3.0839844 3.0844727 3.0839844s3.0839844-1.3833008 3.0839844-3.0839844c0-1.3989868-.9418945-2.5700073-2.2206421-2.946228.0258179-.274662.0074654-2.2350922.0136108-4.8162231 4.680027.3109131 8.9300156-1.1054382 12.4976807-3.7754517l6.0316162 6.5025024c-1.5509224 2.0465698-.0719757 4.9362793 2.4501953 4.9362793 1.7006836 0 3.0844727-1.3833008 3.0844727-3.0839844 0-2.2093163-2.2914352-3.7513237-4.3651733-2.7974243l-6.034668-6.5058594c3.9532509-3.44944 6.3534317-8.1191254 6.5326538-13.590332l5.7683716-.0761719c.3233643 1.3569946 1.5386963 2.3721313 2.9933472 2.3721313 1.7006836 0 3.0839844-1.3833008 3.0839844-3.0839844s-1.3833009-3.0844728-3.0839845-3.0844728zm-53.2626953 25.2944336c-.8735352 0-1.5839844-.7104492-1.5839844-1.5839844s.7104492-1.5844727 1.5839844-1.5844727 1.5844727.7109375 1.5844727 1.5844727-.7109375 1.5839844-1.5844727 1.5839844zm46.8681641 1.4716797c0 .8735352-.7109375 1.5839844-1.5844727 1.5839844s-1.5839844-.7104492-1.5839844-1.5839844.7104492-1.5844727 1.5839844-1.5844727 1.5844727.7109375 1.5844727 1.5844727zm-22.5498047-41.7329102c9.3452148 0 16.9477539 7.6025391 16.9477539 16.9477539 0 9.3447266-7.6025391 16.9472656-16.9477539 16.9472656s-16.9477539-7.6025391-16.9477539-16.9472656c0-9.3452148 7.602539-16.9477539 16.9477539-16.9477539zm23.9365234-6.28125c.8735352 0 1.5839844.7109375 1.5839844 1.5844727s-.7104492 1.5839844-1.5839844 1.5839844-1.5844727-.7104492-1.5844727-1.5839844.7109376-1.5844727 1.5844727-1.5844727zm-47.7592773.2260742c0-.8735352.7104492-1.5839844 1.5839844-1.5839844s1.5844727.7104492 1.5844727 1.5839844-.7109375 1.5844727-1.5844727 1.5844727-1.5839844-.7109375-1.5839844-1.5844727z"/></g></svg>