<svg xmlns="http://www.w3.org/2000/svg" viewBox="0 0 1000 1000" id="seating">
  <path fill="#616161" d="M800.65 751.82a15 15 0 01-15-15V600.53a15 15 0 0130 0V736.82A15 15 0 01800.65 751.82zM668.66 751.82a15 15 0 01-15-15V600.53a15 15 0 0130 0V736.82A15 15 0 01668.66 751.82zM331.34 751.82a15 15 0 01-15-15V600.53a15 15 0 0130 0V736.82A15 15 0 01331.34 751.82zM199.35 751.82a15 15 0 01-15-15V600.53a15 15 0 0130 0V736.82A15 15 0 01199.35 751.82z"></path>
  <path fill="#e53935" d="M621.09,417.94H378.91a15,15,0,0,1,0-30H621.09a15,15,0,0,1,0,30Z"></path>
  <rect width="317.27" height="96.25" x="576.02" y="504.28" fill="#e53935" rx="39" transform="rotate(180 734.655 552.41)"></rect>
  <path fill="#ef5350" d="M848.22,504.39V294.15a46,46,0,0,0-46-46H667.06a46,46,0,0,0-46,46V504.39Z"></path>
  <rect width="317.27" height="96.25" x="106.71" y="504.28" fill="#e53935" rx="39" transform="rotate(-180 265.345 552.41)"></rect>
  <path fill="#ef5350" d="M378.91,504.39V294.15a46,46,0,0,0-46-46H197.74a46,46,0,0,0-46,46V504.39Z"></path>
  <path fill="#424242" d="M900,751.82H100a15,15,0,0,1,0-30H900a15,15,0,0,1,0,30Z"></path>
</svg>
