<svg width="512" height="512" viewBox="0 0 512 512" fill="none" xmlns="http://www.w3.org/2000/svg">
<path d="M372.849 268.78C372.839 210.09 325.102 162.343 266.412 162.343C263.5 162.343 261.143 164.699 261.143 167.612V268.78C261.143 271.692 263.499 274.049 266.412 274.049H367.581C370.494 274.049 372.849 271.683 372.849 268.78ZM271.681 263.512V173.025C320.364 175.664 359.508 214.814 362.168 263.512H271.681Z" fill="#E65402"/>
<path d="M4.90099 181.663L11.07 205.598C13.519 214.983 22.009 221.543 31.712 221.543H117.641C127.412 221.543 135.906 214.973 138.288 205.583L144.452 181.653C151.893 152.637 135.3 123.023 106.846 114.074C112.542 107.755 116.409 99.993 117.99 91.743C125.463 82.115 129.603 70.209 129.603 58.005C129.603 27.736 104.973 3.10699 74.705 3.10699C44.4 3.10699 19.75 27.737 19.75 58.005C19.75 70.106 23.801 81.899 31.121 91.433C32.436 99.911 36.184 107.787 42.042 114.263C13.784 123.401 -2.46101 152.894 4.90099 181.663ZM30.69 63.767C30.449 61.872 30.287 59.956 30.287 58.006C30.287 33.546 50.214 13.645 74.705 13.645C99.165 13.645 119.066 33.546 119.066 58.006C119.066 59.896 118.904 61.77 118.665 63.631C117.85 53.758 109.647 45.946 99.566 45.946H49.802C39.674 45.945 31.439 53.827 30.69 63.767ZM41.081 84.606V65.203C41.081 60.392 44.991 56.482 49.802 56.482H99.566C104.377 56.482 108.287 60.392 108.287 65.203V83.283C108.287 101.918 93.18 118.229 74.658 118.229C56.114 118.229 41.081 103.182 41.081 84.606ZM52.324 122.636C59.364 126.785 67.074 128.766 74.664 128.766C82.463 128.766 89.993 126.572 96.661 122.53C123.491 126.458 140.983 152.789 134.245 179.029L128.076 202.969C126.877 207.703 122.586 211.006 117.642 211.006H31.712C26.804 211.006 22.507 207.687 21.273 202.949L15.109 179.04C8.41699 152.892 25.722 126.711 52.324 122.636Z" fill="black"/>
<path d="M117.641 508.893C127.422 508.893 135.916 502.292 138.288 492.876L144.452 468.951C151.9 439.904 135.231 410.321 106.826 401.415C112.535 395.085 116.413 387.307 117.993 379.038C125.465 369.411 129.603 357.529 129.603 345.355C129.603 315.055 104.973 290.405 74.705 290.405C44.4 290.405 19.75 315.055 19.75 345.355C19.75 357.425 23.799 369.197 31.117 378.726C32.428 387.213 36.176 395.094 42.036 401.572C13.78 410.724 -2.504 440.239 4.901 468.956L11.07 492.881C13.509 502.307 21.998 508.893 31.712 508.893H117.641ZM30.695 351.034C30.452 349.155 30.287 347.263 30.287 345.355C30.287 320.864 50.214 300.942 74.705 300.942C99.165 300.942 119.066 320.864 119.066 345.355C119.066 347.237 118.904 349.103 118.666 350.958C117.854 341.079 109.65 333.259 99.566 333.259H49.802C39.692 333.259 31.47 341.12 30.695 351.034ZM41.081 371.92V352.523C41.081 347.712 44.991 343.797 49.802 343.797H99.566C104.377 343.797 108.287 347.712 108.287 352.523V370.598C108.287 389.481 92.742 405.982 74.077 405.544C55.75 405.208 41.081 390.271 41.081 371.92ZM21.273 490.242L15.109 466.322C8.374 440.246 25.711 414.055 52.311 409.94C59.06 413.92 66.738 416.085 74.664 416.085C82.445 416.085 89.955 413.901 96.612 409.877C123.461 413.759 140.973 440.103 134.245 466.322L128.076 490.273C126.877 495.032 122.586 498.356 117.642 498.356H31.712C26.799 498.356 22.508 495.017 21.273 490.242Z" fill="black"/>
<path d="M469.516 114.068C475.199 107.761 479.063 100.018 480.647 91.786C488.113 82.186 492.242 70.267 492.242 58.006C492.242 27.737 467.638 3.108 437.395 3.108C407.09 3.108 382.44 27.738 382.44 58.006C382.44 70.304 386.377 81.805 393.775 91.408C395.087 99.896 398.837 107.781 404.701 114.268C376.575 123.361 360.191 152.76 367.592 181.654L373.71 205.599C376.159 214.984 384.669 221.544 394.404 221.544H480.333C490.037 221.544 498.526 214.984 500.98 205.574L507.087 181.665C514.558 152.754 498.092 123.042 469.516 114.068ZM393.362 63.642C393.132 61.787 392.977 59.914 392.977 58.006C392.977 33.546 412.904 13.645 437.395 13.645C461.829 13.645 481.705 33.546 481.705 58.006C481.705 59.865 481.549 61.708 481.32 63.537C480.459 53.709 472.274 45.946 462.225 45.946H412.466C402.382 45.945 394.171 53.763 393.362 63.642ZM403.741 84.606V65.203C403.741 60.392 407.656 56.482 412.467 56.482H462.226C467.037 56.482 470.952 60.392 470.952 65.203V83.283C470.952 101.874 455.89 118.229 437.318 118.229C418.869 118.229 403.741 103.266 403.741 84.606ZM496.883 179.039L490.776 202.933C489.536 207.687 485.24 211.006 480.331 211.006H394.402C389.463 211.006 385.146 207.687 383.911 202.959L377.799 179.039C371.102 152.894 388.369 126.727 414.991 122.639C421.63 126.547 429.275 128.766 437.323 128.766C445.124 128.766 452.655 126.57 459.326 122.528C486.134 126.443 503.677 152.737 496.883 179.039Z" fill="black"/>
<path d="M469.49 401.409C475.19 395.091 479.064 387.331 480.65 379.082C488.113 369.486 492.242 357.586 492.242 345.356C492.242 315.056 467.638 290.406 437.395 290.406C407.09 290.406 382.44 315.056 382.44 345.356C382.44 357.403 386.476 369.142 393.762 378.627C395.059 387.152 398.812 395.071 404.695 401.577C376.394 410.75 360.191 440.28 367.591 468.947L373.709 492.882C376.148 502.308 384.658 508.894 394.403 508.894H480.332C490.046 508.894 498.535 502.308 500.979 492.867L507.086 468.958C514.576 439.996 498 410.335 469.49 401.409ZM393.362 350.961C393.132 349.116 392.977 347.253 392.977 345.355C392.977 320.864 412.904 300.942 437.395 300.942C461.829 300.942 481.705 320.864 481.705 345.355C481.705 347.205 481.549 349.04 481.322 350.863C480.464 341.029 472.277 333.259 462.226 333.259H412.467C402.382 333.259 394.172 341.081 393.362 350.961ZM403.741 371.92V352.523C403.741 347.712 407.656 343.797 412.467 343.797H462.226C467.037 343.797 470.952 347.712 470.952 352.523V370.598C470.952 389.34 455.555 405.979 436.737 405.544C419 405.219 403.741 390.807 403.741 371.92ZM496.883 466.333L490.776 490.237C489.536 495.017 485.245 498.356 480.331 498.356H394.402C389.463 498.356 385.146 495.017 383.911 490.252L377.799 466.322C371.063 440.253 388.342 414.076 414.974 409.944C421.829 413.984 429.521 416.085 437.323 416.085C445.105 416.085 452.621 413.898 459.279 409.875C486.107 413.75 503.677 440.05 496.883 466.333Z" fill="black"/>
<path d="M355.629 286.053V286.017C355.629 283.105 353.273 280.748 350.36 280.748H254.45V184.833C254.45 181.92 252.083 179.564 249.181 179.564H249.176C190.501 179.608 142.728 227.15 142.728 286.053C142.728 344.728 190.5 392.464 249.217 392.464C307.892 392.464 355.629 344.728 355.629 286.053ZM243.913 190.25V279.178L157.897 256.524C170.029 218.852 204.305 192.442 243.913 190.25ZM249.217 381.927C196.31 381.927 153.266 338.919 153.266 286.053C153.266 279.57 153.925 273.087 155.226 266.723L247.838 291.111C248.28 291.229 248.733 291.286 249.181 291.286H344.952C342.226 341.728 300.329 381.927 249.217 381.927Z" fill="#E65402"/>
</svg>
