<svg width="200" height="200" viewBox="0 0 200 200" fill="none" xmlns="http://www.w3.org/2000/svg">
<path d="M100 87.0312C76.4375 87.0312 57.25 106.219 57.25 129.781C57.25 153.375 76.4375 172.531 100 172.531C123.563 172.531 142.75 153.375 142.75 129.781C142.75 106.219 123.563 87.0312 100 87.0312ZM133.25 114.781C135.003 118.594 136.094 122.781 136.375 127.188L131.066 122.875L133.25 114.781ZM114.531 96.3125C120.313 98.8125 125.309 102.813 129.091 107.781C128.719 108.156 128.469 108.625 128.309 109.156L124.969 121.406L112.656 126.219L103 119.844V104L113.906 96.875C114.156 96.7187 114.375 96.5312 114.531 96.3125ZM108.844 131.156L106.938 140.281L93.1875 140.219L91.3125 131.031L100 125.344L108.844 131.156ZM100 93.2813C102.375 93.2813 104.688 93.5 106.938 93.9687L100 98.5L93.0625 93.9687C95.3125 93.5 97.625 93.2813 100 93.2813ZM85.4688 96.3125C85.625 96.5312 85.8437 96.7187 86.0937 96.875L96.75 103.844V120L87.4062 126.125L75 121.281L71.6875 109.156C71.5625 108.625 71.2813 108.156 70.9063 107.781C74.6875 102.813 79.6875 98.8125 85.4688 96.3125ZM66.75 114.781L68.9688 122.875L63.625 127.188C63.9063 122.781 65 118.594 66.75 114.781ZM63.875 135.031L73.3437 127.344L85.0937 131.938L87.375 142.875L82.0313 150.875L69.875 150.344C66.7813 145.875 64.6875 140.656 63.875 135.031ZM75.5625 156.844L81.125 157.094L83.0625 162.094C80.3438 160.656 77.8125 158.906 75.5625 156.844ZM109.719 164.938C106.625 165.813 103.375 166.281 100 166.281C96.875 166.281 93.875 165.875 90.9688 165.156L86.9375 154.781L92.5 146.469L107.531 146.531L113.437 155.375L109.719 164.938ZM117.688 161.688L118.875 158.625L122.531 158.469C121 159.656 119.406 160.75 117.688 161.688ZM129 151.938L118.969 152.375H118.938V152.344L112.753 143.094V143.062L115.066 132L126.75 127.406L136.125 135.031C135.219 141.344 132.687 147.125 129 151.938Z" fill="#E65402"/>
<path d="M189.594 34.8125C188.969 34.2188 188.125 33.9063 187.25 33.9688C187.187 33.9688 186.5 34.0313 185.281 34.0313C178.063 34.0313 153.406 32.25 138.844 9.5625C138.281 8.6875 137.281 8.125 136.219 8.125H63.7812C62.7187 8.125 61.7187 8.6875 61.1562 9.5625C46.5937 32.25 21.9375 34.0313 14.7188 34.0313C13.5 34.0313 12.8125 33.9688 12.75 33.9688C11.875 33.9063 11.0312 34.2188 10.375 34.8125C9.75 35.4063 9.375 36.2188 9.375 37.0938V118.75C9.375 159.063 42.1875 191.875 82.5 191.875H117.5C157.812 191.875 190.625 159.063 190.625 118.75V37.0938C190.625 36.2188 190.25 35.4063 189.594 34.8125ZM47.2187 175.531C28.25 163.719 15.625 142.688 15.625 118.75V69.125H47.2187V175.531ZM117.5 185.625H82.5C72.0312 185.625 62.0938 183.188 53.25 178.875C53.4063 178.531 53.4688 178.156 53.4688 177.781V69.125H146.531V177.781C146.531 178.156 146.597 178.531 146.75 178.875C137.906 183.188 127.969 185.625 117.5 185.625ZM184.375 118.75C184.375 142.688 171.75 163.719 152.781 175.531V69.125H184.375V118.75ZM184.375 62.875H15.625V40.2813C24.4687 40.125 49.6875 37.5 65.4688 14.375H134.531C150.312 37.5 175.531 40.125 184.375 40.2813V62.875Z" fill="black"/>
<path d="M147.219 35.4375C146.844 34.3125 145.872 33.4687 144.684 33.3125L137.341 32.2188L134.062 25.5625C132.997 23.4375 129.5 23.4375 128.434 25.5625L125.153 32.2188L117.809 33.3125C116.622 33.4687 115.653 34.3125 115.275 35.4375C114.934 36.5625 115.212 37.8125 116.091 38.625L121.4 43.8125L120.153 51.125C119.934 52.3125 120.434 53.5 121.372 54.1875C121.934 54.5938 122.559 54.7813 123.216 54.7813C123.716 54.7813 124.216 54.6875 124.687 54.4375L131.25 50.9688L137.812 54.4375C138.878 55 140.156 54.9063 141.128 54.1875C142.066 53.5 142.566 52.3125 142.347 51.125L141.1 43.8125L146.409 38.625C147.281 37.8125 147.562 36.5625 147.219 35.4375ZM135.562 40.5C134.847 41.2188 134.5 42.25 134.656 43.25L135.125 45.9688L132.719 44.6875C131.781 44.1875 130.719 44.1875 129.812 44.6875L127.375 45.9688L127.844 43.25C128 42.25 127.687 41.2188 126.937 40.5L124.969 38.5625L127.687 38.1875C128.719 38.0313 129.591 37.4063 130.031 36.4688L131.25 34.0313L132.469 36.4688C132.909 37.4063 133.816 38.0313 134.812 38.1875L137.531 38.5625L135.562 40.5Z" fill="#E65402"/>
<path d="M84.7188 35.4375C84.3438 34.3125 83.375 33.4687 82.1875 33.3125L74.8438 32.2188L71.5625 25.5625C70.5 23.4375 67 23.4375 65.9375 25.5625L62.6563 32.2188L55.3125 33.3125C54.125 33.4687 53.1563 34.3125 52.7813 35.4375C52.4063 36.5625 52.7188 37.8125 53.5938 38.625L58.9063 43.8125L57.6563 51.125C57.4375 52.3125 57.9375 53.5 58.875 54.1875C59.4375 54.5938 60.0625 54.7813 60.7188 54.7813C61.2188 54.7813 61.7188 54.6875 62.1875 54.4375L68.75 50.9688L75.3125 54.4375C76.375 55 77.6563 54.9063 78.625 54.1875C79.5625 53.5 80.0625 52.3125 79.875 51.125L78.5938 43.8125L83.9063 38.625C84.7813 37.8125 85.0938 36.5625 84.7188 35.4375ZM73.0625 40.5C72.3438 41.2188 72 42.25 72.1563 43.25L72.625 45.9688L70.2188 44.6875C69.3125 44.1875 68.2188 44.1875 67.3125 44.6875L64.875 45.9688L65.3438 43.25C65.5 42.25 65.1875 41.2188 64.4375 40.5L62.4688 38.5625L65.1875 38.1875C66.2188 38.0313 67.0938 37.4063 67.5313 36.4688L68.75 34.0313L69.9688 36.4688C70.4063 37.4063 71.3125 38.0313 72.3125 38.1875L75.0313 38.5625L73.0625 40.5Z" fill="#E65402"/>
</svg>
