<?xml version="1.0" encoding="iso-8859-1"?>
<!-- Generator: Adobe Illustrator 19.0.0, SVG Export Plug-In . SVG Version: 6.00 Build 0)  -->
<svg version="1.1" id="Capa_1" xmlns="http://www.w3.org/2000/svg" xmlns:xlink="http://www.w3.org/1999/xlink" x="0px" y="0px"
	 viewBox="0 0 512 512" style="enable-background:new 0 0 512 512;" xml:space="preserve">
<g>
	<g>
		<path d="M480.682,319.633v-32.315h-148.97c0,41.814-33.897,75.712-75.712,75.712s-75.712-33.897-75.712-75.712H31.318v32.315
			l64.688,6.85c4.035,16.54,10.568,32.102,19.177,46.262l-40.908,50.597l45.701,45.701l50.597-40.908
			c14.16,8.609,29.722,15.142,46.262,19.177l6.85,64.688h64.63l6.85-64.688c16.54-4.035,32.102-10.568,46.262-19.177l50.597,40.908
			l45.701-45.701l-40.908-50.597c8.609-14.16,15.142-29.722,19.177-46.262L480.682,319.633z"/>
	</g>
</g>
<g>
	<g>
		<path d="M256,0c-31.999,0-58.033,26.034-58.033,58.033c0,31.999,26.034,58.032,58.033,58.032
			c31.999,0,58.033-26.033,58.033-58.032C314.033,26.034,287.999,0,256,0z"/>
	</g>
</g>
<g>
	<g>
		<path d="M317.787,132.109H194.213c-28.449,0.001-51.594,23.145-51.594,51.594v73.614h226.762v-73.614
			C369.381,155.254,346.236,132.109,317.787,132.109z"/>
	</g>
</g>
<g>
	<g>
		<path d="M132.887,26.808c-28.666,0-51.987,23.322-51.987,51.987c0,28.435,22.951,51.598,51.3,51.969
			c11.74-13.732,27.939-23.533,46.343-27.128c4.034-7.385,6.331-15.849,6.331-24.841C184.874,50.129,161.553,26.808,132.887,26.808z
			"/>
	</g>
</g>
<g>
	<g>
		<path d="M77.537,145.154c-25.485,0-46.219,20.733-46.219,46.219v65.945h81.301v-73.615c0-13.935,3.518-27.062,9.703-38.549H77.537
			z"/>
	</g>
</g>
<g>
	<g>
		<path d="M379.113,26.808c-28.666,0-51.987,23.322-51.987,51.987c0,8.991,2.296,17.456,6.33,24.841
			c18.405,3.595,34.604,13.396,46.344,27.128c28.349-0.37,51.3-23.534,51.3-51.969C431.1,50.129,407.779,26.808,379.113,26.808z"/>
	</g>
</g>
<g>
	<g>
		<path d="M434.463,145.154h-44.785c6.185,11.487,9.703,24.614,9.703,38.549v73.614h81.301v-65.945
			C480.682,165.887,459.948,145.154,434.463,145.154z"/>
	</g>
</g>
<g>
</g>
<g>
</g>
<g>
</g>
<g>
</g>
<g>
</g>
<g>
</g>
<g>
</g>
<g>
</g>
<g>
</g>
<g>
</g>
<g>
</g>
<g>
</g>
<g>
</g>
<g>
</g>
<g>
</g>
</svg>
