<svg id="Layer_1" enable-background="new 0 0 512 512" viewBox="0 0 512 512" xmlns="http://www.w3.org/2000/svg"><path clip-rule="evenodd" d="m369.82 160.27c0-64.04-52.11-116.14-116.19-116.14-64.03 0-116.14 52.1-116.14 116.14 0 12.37 1.96 24.52 5.8 36.16l15.27 10.51c1.31.9 2.21 2.29 2.49 3.86.29 1.56-.08 3.18-.98 4.49l-6.49 9.48c15.48 10.18 40.43 12.84 59.91 11.76 19.15-6.75 38.55-12.2 61.71-17.37 12.25-2.73 22.46-1.77 32.02 3.05 13.72 6.87 29.89 8.98 48.15 6.29l-8.13-11.79c-.9-1.31-1.27-2.93-.98-4.49s1.18-2.95 2.49-3.85l14.66-10.09c4.21-12.21 6.41-24.98 6.41-38.01zm-305.1 172.4-37.74-25.97 82.09-119.24 37.73 25.97zm147.22 84.74-13.64 19.6c-3.88 5.55-2.49 13.22 3.06 17.09 2.65 1.86 5.92 2.57 9.19 1.99 3.23-.59 6.04-2.38 7.92-5.06l13.6-19.58c1.88-2.68 2.57-5.94 2-9.18-.57-3.25-2.37-6.06-5.06-7.92-5.55-3.87-13.19-2.49-17.07 3.06zm-25.28-27.71c3.88-5.55 11.56-6.92 17.11-3.05s6.94 11.54 3.06 17.09l-4.74 6.81c0 .01 0 .01-.04.02l-13.6 19.59v.01l-4.78 6.82c-1.84 2.67-4.66 4.47-7.92 5.05-3.23.58-6.49-.12-9.15-1.99-2.7-1.86-4.49-4.67-5.06-7.91-.57-3.25.12-6.51 2-9.18zm-20.5-34.54-42.15 60.56c-3.88 5.56-2.49 13.23 3.06 17.1 2.7 1.86 5.92 2.56 9.19 1.98 3.23-.58 6.04-2.37 7.92-5.05l32.63-46.9c0-.01 0-.01 0-.02l9.52-13.64c3.88-5.56 2.49-13.23-3.06-17.1-2.08-1.44-4.49-2.18-6.98-2.18-.74 0-1.47.07-2.21.2-3.26.58-6.04 2.38-7.92 5.05zm-22.09 10.76-17.64 25.34c-3.88 5.56-11.56 6.94-17.11 3.07s-6.9-11.54-3.06-17.09l17.64-25.34c1.88-2.67 4.66-4.47 7.92-5.05 3.23-.58 6.49.13 9.19 1.99 2.65 1.86 4.45 4.67 5.02 7.92.61 3.22-.13 6.48-1.96 9.16zm216.44-151.09 37.73-25.96 82.09 119.24-37.73 25.97zm-118.02 68.46c.24-.28.41-.35.82-.33l27.48 1.86 114.14 71.87c3.23 2.03 5.51 5.22 6.33 8.98.86 3.76.2 7.6-1.8 10.83-2.04 3.23-5.23 5.47-8.98 6.33-3.76.85-7.6.2-10.82-1.83l-5.02-3.14-64.61-40.68c-2.78-1.77-6.49-.92-8.25 1.88-1.8 2.81-.94 6.51 1.88 8.27l64.61 40.68c3.23 2.03 5.47 5.22 6.33 8.97.86 3.76.2 7.6-1.84 10.83s-5.23 5.47-8.98 6.33c-3.76.85-7.6.2-10.82-1.83l-63.96-40.24c-2.78-1.77-6.49-.92-8.25 1.88-1.76 2.81-.94 6.51 1.88 8.27l51.99 32.74c6.7 4.22 8.74 13.11 4.49 19.8-2.04 3.26-5.27 5.52-9.03 6.37-3.76.84-7.56.18-10.74-1.84l-43.7-27.91c-2.82-1.79-6.53-.97-8.29 1.83-1.8 2.79-.98 6.5 1.8 8.28l28.02 17.89-.04.1c3.23 2.03 5.47 5.22 6.33 8.97.86 3.76.2 7.6-1.84 10.83-2 3.23-5.23 5.48-8.98 6.33-3.72.85-7.6.2-10.82-1.83l-33.08-20.84 3.19-4.64c3.72-5.31 5.1-11.75 3.96-18.15s-4.7-11.96-10.01-15.65c-4.57-3.19-9.92-4.57-15.11-4.3 1.27-8.8-2.37-17.99-10.13-23.41-3.8-2.64-8.13-4.04-12.41-4.3 4.94-10.51 1.76-23.39-8.09-30.24-5.31-3.69-11.76-5.09-18.17-3.94s-11.97 4.7-15.64 10.01l-.33.45c-1.76-3.9-4.53-7.28-8.13-9.78-5.35-3.7-11.76-5.1-18.17-3.95s-11.97 4.7-15.64 10.01l-7.31 10.5c-10.33-9.63-17.89-19.26-23.07-29.22l63.1-91.67c12.66 8.41 28.95 11.93 42.8 13.3-3.68 2.85-6.78 6.12-9.39 9.96l-21.69 31.59c-1.35 1.98-1.8 4.36-1.31 6.69.49 2.35 1.92 4.32 3.96 5.56 27.35 16.62 54.71 10.41 81.34-18.47zm180.42 43.39c-9.15 9.93-21.07 16.6-33.45 18.67l-113.53-71.48c-.86-.53-1.84-.84-2.82-.91l-29.03-1.96c-4.04-.27-7.72 1.21-10.41 4.17-21.48 23.28-42.15 29.22-63.22 18.1l19.6-28.56c4.33-6.32 10.21-10.51 19.6-14.02 21.32-7.94 42.31-14.05 68.16-19.81 9.56-2.12 16.95-1.49 24.05 2.06 17.44 8.74 37.94 10.88 60.97 6.43zm-185.08-143.24 59.09-59.07c2.33-2.34 6.13-2.34 8.45 0 2.33 2.34 2.33 6.14 0 8.48l-63.3 63.32c-1.18 1.17-2.7 1.76-4.25 1.76s-3.06-.58-4.25-1.76l-31.65-31.66c-2.37-2.34-2.37-6.14 0-8.48 2.33-2.34 6.13-2.34 8.45 0z" fill-rule="evenodd"/></svg>