<svg width="500" height="500" viewBox="0 0 500 500" fill="none" xmlns="http://www.w3.org/2000/svg">
<path d="M151.35 95.2317C153.134 98.2832 156.887 99.1975 159.717 97.2621C162.543 95.3255 163.387 91.2817 161.595 88.2188L134.632 42.1832C132.848 39.1376 129.115 38.199 126.265 40.1527C123.44 42.0894 122.595 46.1334 124.387 49.196L151.35 95.2317ZM249.998 68.972C253.345 68.972 256.061 66.0371 256.061 62.4198V7.94673C256.061 4.32942 253.345 1.39461 249.998 1.39461C246.653 1.39461 243.937 4.32942 243.937 7.94673V62.4198C243.937 66.0371 246.653 68.972 249.998 68.972ZM340.29 97.2621C343.12 99.199 346.872 98.2812 348.656 95.2317L375.611 49.196C377.403 46.1334 376.559 42.0894 373.733 40.1527C370.884 38.199 367.149 39.1376 365.366 42.1832L338.41 88.2188C336.618 91.2817 337.464 95.3255 340.29 97.2621ZM348.656 404.767C346.872 401.715 343.139 400.792 340.288 402.738C337.464 404.676 336.618 408.718 338.41 411.782L365.366 457.817C367.151 460.869 370.903 461.782 373.733 459.847C376.559 457.911 377.403 453.866 375.611 450.804L348.656 404.767ZM249.998 431.02C246.653 431.02 243.937 433.955 243.937 437.572V492.054C243.937 495.671 246.653 498.606 249.998 498.606C253.345 498.606 256.061 495.671 256.061 492.054V437.572C256.061 433.955 253.345 431.02 249.998 431.02ZM159.709 402.738C156.859 400.792 153.134 401.715 151.342 404.767L124.387 450.804C122.595 453.866 123.44 457.911 126.265 459.847C129.097 461.785 132.849 460.866 134.632 457.817L161.587 411.782C163.379 408.718 162.535 404.676 159.709 402.738ZM249.95 214.502C230.714 214.502 214.952 231.451 214.952 252.329C214.952 273.121 230.714 290.158 249.95 290.158C269.269 290.158 284.948 273.121 284.948 252.329C284.948 231.451 269.269 214.502 249.95 214.502ZM238.958 252.243C234.189 252.243 230.391 248.136 230.391 242.982C230.391 237.828 234.189 233.635 238.958 233.635C243.725 233.635 247.605 237.828 247.605 242.982C247.605 248.136 243.725 252.243 238.958 252.243Z" fill="#E65402"/>
<path d="M249.968 149.329C197.439 149.329 154.697 195.518 154.697 252.295C154.697 309.072 197.439 355.27 249.968 355.27C302.496 355.27 345.231 309.072 345.231 252.295C345.231 195.518 302.496 149.329 249.968 149.329ZM249.968 303.218C223.99 303.218 202.853 280.371 202.853 252.295C202.853 224.218 223.99 201.371 249.968 201.371C275.945 201.371 297.074 224.218 297.074 252.295C297.074 280.371 275.945 303.218 249.968 303.218Z" fill="black"/>
<path d="M250 108.622C160.089 108.622 70.1784 156.545 1.52742 252.26C138.739 443.822 361.26 443.822 498.473 252.26C437.179 166.806 350.023 108.622 250 108.622ZM64.3118 268.386C66.7034 270.911 66.751 275.057 64.4067 277.651C63.2227 278.965 61.6439 279.621 60.0733 279.621C58.542 279.621 57.0185 278.998 55.8347 277.752C49.52 271.082 43.2687 263.965 37.262 256.611C35.2414 254.139 35.2414 250.418 37.262 247.943C43.6239 240.155 50.27 232.63 57.0107 225.575C59.4181 223.066 63.2542 223.134 65.5828 225.728C67.9113 228.33 67.8481 232.476 65.4406 234.993C60.1838 240.488 54.9901 246.289 49.9464 252.277C54.6347 257.856 59.4574 263.257 64.3118 268.386ZM84.992 297.025C83.7922 298.577 82.0716 299.379 80.3349 299.379C78.9616 299.379 77.5882 298.886 76.4515 297.861C74.8492 296.418 73.2469 294.96 71.6683 293.475C69.1345 291.104 68.8662 286.965 71.0605 284.238C73.2626 281.498 77.0908 281.215 79.6088 283.579C81.1401 285.012 82.6792 286.403 84.2183 287.795C86.7916 290.114 87.1311 294.245 84.992 297.025ZM249.968 368.374C190.753 368.374 142.573 316.297 142.573 252.295C142.573 188.292 190.753 136.225 249.968 136.225C309.181 136.225 357.355 188.292 357.355 252.295C357.355 316.297 309.181 368.374 249.968 368.374Z" fill="black"/>
</svg>
