<svg width="216" height="216" viewBox="0 0 216 216" fill="none" xmlns="http://www.w3.org/2000/svg">
<g clip-path="url(#clip0_8_92)">
<path d="M195.423 16.7619H159.256C157.508 16.7619 156.092 18.1782 156.092 19.926C156.092 21.6738 157.508 23.0901 159.256 23.0901H195.423C197.17 23.0901 198.587 21.6738 198.587 19.926C198.587 18.1782 197.17 16.7619 195.423 16.7619Z" fill="#E65402"/>
<path d="M195.423 30.6863H159.256C157.508 30.6863 156.092 32.1026 156.092 33.8504C156.092 35.5982 157.508 37.0145 159.256 37.0145H195.423C197.17 37.0145 198.587 35.5982 198.587 33.8504C198.587 32.1026 197.17 30.6863 195.423 30.6863Z" fill="#E65402"/>
<path d="M198.058 0.106735H177.339C175.592 0.106735 174.175 1.52297 174.175 3.2708C174.175 5.01863 175.592 6.43486 177.339 6.43486H198.058C204.462 6.43486 209.672 11.6454 209.672 18.0495V35.8037C209.672 42.2082 204.462 47.4179 198.058 47.4179H174.214C171.777 47.4179 169.466 48.5949 168.033 50.5659L159.773 61.922V54.5316C159.773 50.9688 157.378 47.9166 153.948 47.1095C148.684 45.8709 145.006 41.2222 145.006 35.8037V18.0495C145.006 11.645 150.217 6.43486 156.621 6.43486H162.729C164.477 6.43486 165.893 5.01863 165.893 3.2708C165.893 1.52297 164.477 0.106735 162.729 0.106735H156.621C146.727 0.106735 138.678 8.15569 138.678 18.0495V35.8037C138.678 44.1733 144.362 51.3553 152.499 53.2693C153.047 53.3984 153.445 53.9287 153.445 54.5311V67.5139C153.445 69.4739 154.697 71.1969 156.561 71.8031C158.428 72.4094 160.453 71.7483 161.602 70.1662L173.151 54.2869C173.397 53.9477 173.795 53.7456 174.214 53.7456H198.058C207.951 53.7456 216 45.6967 216 35.8033V18.0495C216 8.15569 207.951 0.106735 198.058 0.106735Z" fill="#E65402"/>
<path d="M178.222 197.631V153.654C178.222 148.681 174.177 144.636 169.204 144.636H149.917C146.289 138.788 140.543 134.457 133.88 132.627C127.604 130.904 111.222 126.408 105.094 124.725C103.596 124.314 102.276 123.53 101.214 122.494C114.545 121.724 125.138 110.688 125.137 97.1173L125.136 82.4508C127.665 81.8691 129.988 80.5929 131.869 78.7122C134.513 76.0679 135.969 72.5528 135.968 68.8141L135.967 59.1405C135.966 26.5887 109.482 0.106735 76.9306 0.106735C44.3003 0.106735 17.8909 26.5157 17.8942 59.1494C17.8959 96.0474 17.8955 88.4545 17.8955 89.5168C17.8955 94.1325 21.651 97.8885 26.2672 97.8885H28.752C29.1478 111.095 39.6584 121.804 52.7871 122.504C51.7227 123.557 50.3934 124.355 48.8822 124.772C43.0144 126.394 25.0948 131.347 20.1053 132.726C8.25693 136 -0.0105521 146.873 -5.1794e-06 159.166L0.0392292 205.166C0.0442917 211.083 4.86 215.894 10.7768 215.893H10.7852C125.963 215.892 -125.824 215.862 177.317 215.893C182.364 215.893 186.47 211.787 186.47 206.74C186.47 201.998 182.846 198.088 178.222 197.631ZM141.981 144.636H119.005C121.25 142.195 123.283 139.573 125.075 136.772L132.205 138.73C135.965 139.762 139.344 141.832 141.981 144.636ZM35.0595 91.5604L35.0582 82.8115H41.7336C42.1635 85.2495 42.8722 87.6298 43.8522 89.9374C43.516 90.4449 43.2321 90.9887 43.0017 91.5608H35.0595V91.5604ZM112.685 57.9357L118.779 57.931C118.831 59.4667 118.796 58.7828 118.808 76.4834H112.655L112.685 57.9357ZM88.8912 51.6261C73.7243 50.2786 61.8532 37.8793 61.8406 23.3423C61.8397 22.1826 62.0966 21.0465 62.583 20.0062C67.1203 18.3554 71.9592 17.4926 76.931 17.4926C97.3683 17.4926 114.431 32.2106 118.082 51.6033C110.818 51.6092 91.5165 51.624 88.8912 51.6261ZM55.5128 23.366C55.5196 28.2538 56.595 33.0185 58.6246 37.395C58.5368 45.2014 52.1948 51.5337 44.3804 51.5987C44.38 51.5987 44.38 51.5987 44.3796 51.5987H35.7733C38.0548 39.3711 45.6013 29.2861 55.5128 23.366ZM35.0574 76.4834L35.0553 59.3717C35.0553 58.8883 35.0662 58.4069 35.0823 57.9264H41.1273L41.2311 76.483H35.0574V76.4834ZM51.4342 92.1801H64.0879C65.6121 92.1801 66.8524 93.42 66.8524 94.9442C66.8524 96.4685 65.6125 97.7088 64.0879 97.7088H51.4342C49.9099 97.7088 48.67 96.4689 48.67 94.9442C48.6696 93.42 49.9099 92.1801 51.4342 92.1801ZM73.1801 94.9442C73.1801 89.9307 69.1014 85.852 64.0875 85.852H51.4337C50.6469 85.852 49.8871 85.9629 49.1586 86.1515C48.1013 83.2461 47.5656 80.209 47.5626 77.0795L47.4542 57.683C54.7303 56.5507 60.7589 51.6126 63.4471 44.9782C64.0145 45.6583 64.6021 46.3253 65.2257 46.9682C71.364 53.2959 79.6255 57.1932 88.4887 57.9428C88.5773 57.9504 88.6663 57.9538 88.7553 57.9538H88.7574L106.356 57.9403L106.325 77.0437C106.334 87.4125 100.475 95.3826 93.6934 100.614C93.6457 100.643 84.7593 107.609 76.9707 107.833C74.1205 107.754 69.7777 106.407 65.3303 103.941C69.757 103.332 73.1801 99.5351 73.1801 94.9442ZM99.7144 116.214H98.4968C98.496 116.167 98.4909 116.12 98.4909 116.073L98.4812 104.858C105.512 99.1461 110.565 91.6148 112.143 82.8115H118.808L118.809 97.1177C118.81 107.671 110.27 116.214 99.7144 116.214ZM76.9306 6.43486C105.993 6.43486 129.638 30.0784 129.64 59.141L129.641 68.815C129.641 70.8632 128.843 72.789 127.395 74.2378C126.732 74.9009 125.965 75.4203 125.136 75.7966L125.135 59.3658C125.135 57.7129 125.051 56.079 124.888 54.4687C124.886 54.448 124.883 54.4278 124.881 54.4071C122.39 30.1497 101.836 11.1649 76.9314 11.1649C50.2892 11.1649 28.7255 32.7265 28.728 59.373L28.7301 75.792C26.0774 74.5837 24.2245 71.9141 24.2241 68.8137L24.2228 59.1486C24.219 30.0164 47.7946 6.43486 76.9306 6.43486ZM24.2232 89.5168V80.514C25.5804 81.4067 27.1008 82.0682 28.7301 82.4466L28.7314 91.5608H26.2668C25.1399 91.5604 24.2232 90.6436 24.2232 89.5168ZM54.1552 116.214C43.8851 116.214 35.4856 108.062 35.0797 97.8889H42.8406C44.0678 101.46 47.4521 104.037 51.4342 104.037H54.4198C54.7606 104.329 55.1062 104.618 55.4576 104.901L55.4673 116.111C55.4673 116.145 55.4635 116.179 55.4631 116.214H54.1552ZM50.5676 130.872C57.1843 129.044 61.8013 122.971 61.7954 116.105L61.7895 109.212C67.0123 112.198 72.5283 114.072 76.9087 114.161C76.9306 114.162 76.9521 114.162 76.9736 114.162C76.9973 114.162 77.0205 114.162 77.0441 114.161C80.8178 114.078 86.4127 112.485 92.1569 109.197L92.1628 116.078C92.1687 122.944 96.7971 129.009 103.419 130.827L118.638 135.005C116.157 138.57 113.228 141.793 109.899 144.636H85.7364C80.7638 144.636 76.7184 148.681 76.7184 153.654V156.813C60.1952 156.748 44.6825 148.535 35.2645 135.102L50.5676 130.872ZM10.7802 209.565C10.7789 209.565 10.7781 209.565 10.7768 209.565C8.34764 209.565 6.36989 207.59 6.36778 205.16L6.32812 159.161C6.31968 149.706 12.6782 141.344 21.7907 138.826L28.828 136.881C33.6876 144.431 40.2907 150.776 48.0473 155.326C56.7118 160.408 66.6221 163.107 76.718 163.142V170.937C76.718 172.684 78.1346 174.101 79.882 174.101C81.6294 174.101 83.0461 172.684 83.0461 170.937V153.654C83.0461 152.171 84.2527 150.965 85.736 150.965H169.204C170.687 150.965 171.894 152.171 171.894 153.654V197.587H83.0465V185.712C83.0465 183.965 81.6299 182.548 79.8825 182.548C78.135 182.548 76.7184 183.965 76.7184 185.712V197.632C72.0946 198.088 68.4703 201.999 68.4703 206.74C68.4703 207.707 68.6222 208.64 68.9015 209.515L31.3537 209.548V191.86C31.3537 190.112 29.9371 188.696 28.1897 188.696C26.4423 188.696 25.0256 190.112 25.0256 191.86V209.553L10.7802 209.565ZM177.317 209.565H77.6237C77.5271 209.565 77.4318 209.56 77.3377 209.551C77.2795 209.542 77.2221 209.53 77.1626 209.524C75.8236 209.303 74.798 208.14 74.798 206.74C74.798 205.182 76.0653 203.915 77.6233 203.915H177.316C178.874 203.915 180.141 205.182 180.141 206.74C180.141 208.298 178.875 209.565 177.317 209.565Z" fill="black"/>
</g>
<defs>
<clipPath id="clip0_8_92">
<rect width="216" height="216" fill="white"/>
</clipPath>
</defs>
</svg>
