<svg clip-rule="evenodd" fill-rule="evenodd" stroke-linejoin="round" stroke-miterlimit="2" viewBox="0 0 510 510" xmlns="http://www.w3.org/2000/svg"><path d="m484.152 160.111c15.36 36.988 21.951 78.235 17.467 120.855-14.344 136.208-136.378 234.997-272.586 220.654-45.195-4.759-86.296-21.394-120.486-46.466l5.158 18.071c1.212 4.246-1.251 8.677-5.497 9.889-4.245 1.212-8.676-1.251-9.888-5.497l-12.153-42.575c-.675-2.365-.225-4.909 1.221-6.899s3.726-3.204 6.184-3.292l44.249-1.591c4.413-.159 8.124 3.295 8.282 7.707.159 4.413-3.294 8.124-7.707 8.282l-23.291.838c32.546 24.657 72.043 41.034 115.604 45.621 127.419 13.418 241.58-78.998 254.998-206.417 4.152-39.469-1.844-77.679-15.906-112.011-1.888.37-3.839.564-5.835.564-16.687 0-30.234-13.547-30.234-30.234s13.547-30.234 30.234-30.234 30.234 13.547 30.234 30.234c0 8.932-3.881 16.964-10.048 22.501zm-20.186-36.735c-7.856 0-14.234 6.378-14.234 14.234s6.378 14.234 14.234 14.234 14.234-6.378 14.234-14.234-6.378-14.234-14.234-14.234zm-436.678 229.89c-16.371-37.84-23.53-80.288-18.909-124.232 14.344-136.207 136.378-234.997 272.585-220.654 45.211 4.753 86.293 21.387 120.488 46.47l-5.159-18.075c-1.212-4.246 1.251-8.677 5.497-9.889s8.677 1.251 9.888 5.497l12.153 42.575c.675 2.365.225 4.909-1.221 6.899s-3.726 3.204-6.184 3.292l-44.249 1.591c-4.412.159-8.124-3.295-8.282-7.707-.159-4.413 3.295-8.124 7.707-8.282l23.286-.838c-32.551-24.664-72.025-41.041-115.598-45.621-127.419-13.418-241.58 78.998-254.999 206.417-4.506 42.858 2.961 84.197 19.69 120.714h17.762c3.349 0 6.561 1.33 8.929 3.698s3.698 5.58 3.698 8.929v27.886c0 3.349-1.33 6.561-3.698 8.929s-5.58 3.698-8.929 3.698h-27.886c-3.349 0-6.561-1.33-8.929-3.698s-3.699-5.58-3.699-8.929v-27.886c0-3.349 1.331-6.561 3.699-8.929.716-.716 1.509-1.337 2.36-1.855zm9.941 14.157v21.14h21.141v-21.14zm257.628-261.022c12.974 3.467 25.418 8.623 37.057 15.357l23.831-10.596c3.025-1.345 6.566-.688 8.907 1.653l32.533 32.533c2.338 2.338 2.997 5.874 1.658 8.897 0 0-10.558 23.835-10.558 23.834 6.738 11.646 11.896 24.1 15.364 37.114l24.306 9.354c3.088 1.189 5.126 4.157 5.126 7.467v46.019c0 3.309-2.038 6.277-5.126 7.466 0 0-24.31 9.356-24.31 9.355-3.473 12.973-8.657 25.418-15.364 37.056l10.562 23.845c1.339 3.023.68 6.559-1.658 8.897l-32.533 32.533c-2.338 2.338-5.874 2.997-8.897 1.658 0 0-23.829-10.555-23.829-10.556-11.614 6.735-24.091 11.892-37.071 15.359l-9.356 24.309c-1.189 3.088-4.157 5.126-7.466 5.126h-46.019c-3.31 0-6.278-2.038-7.467-5.126 0 0-9.354-24.307-9.354-24.307-13.01-3.473-25.461-8.659-37.103-15.367l-23.845 10.562c-3.023 1.339-6.559.68-8.897-1.658l-32.533-32.533c-2.341-2.341-2.998-5.882-1.653-8.907 0 0 10.593-23.826 10.593-23.825-6.732-11.611-11.89-24.084-15.389-37.061l-24.321-9.36c-3.088-1.189-5.126-4.157-5.126-7.466v-46.019c0-3.31 2.038-6.278 5.126-7.467 0 0 24.318-9.359 24.318-9.358 3.5-13.011 8.659-25.461 15.395-37.103l-10.596-23.831c-1.345-3.025-.688-6.566 1.653-8.907l32.533-32.533c2.341-2.341 5.882-2.998 8.907-1.653 0 0 23.831 10.596 23.831 10.596 11.642-6.735 24.088-11.892 37.064-15.358l9.4-24.361c1.19-3.085 4.157-5.12 7.464-5.12h46.019c3.311 0 6.28 2.04 7.468 5.13zm-13.448 9.61s-8.873-23.092-8.873-23.092h-35.035l-8.915 23.103c-.949 2.46-3.049 4.294-5.613 4.903-14.187 3.372-27.716 8.976-40.151 16.638-2.247 1.386-5.034 1.572-7.447.5l-22.599-10.049s-24.762 24.762-24.762 24.762l10.049 22.599c1.072 2.413.886 5.2-.5 7.447-7.665 12.441-13.271 25.977-16.688 40.214-.614 2.56-2.449 4.654-4.906 5.599 0 0-23.05 8.872-23.05 8.872v35.033l23.05 8.871c2.455.945 4.289 3.036 4.905 5.594 3.416 14.19 9.019 27.768 16.683 40.162 1.391 2.249 1.58 5.041.506 7.458l-10.049 22.599 24.768 24.768 22.604-10.013c2.404-1.065 5.177-.88 7.419.493 12.44 7.622 25.973 13.275 40.208 16.648 2.57.609 4.674 2.446 5.622 4.911 0 0 8.872 23.05 8.872 23.05h35.033l8.871-23.05c.948-2.463 3.049-4.3 5.616-4.91 14.182-3.37 27.752-8.971 40.14-16.632 2.246-1.388 5.033-1.579 7.447-.51 0 0 22.604 10.013 22.604 10.013l24.774-24.774-10.013-22.604c-1.065-2.404-.88-5.177.493-7.419 7.622-12.441 13.276-25.975 16.649-40.168.61-2.567 2.447-4.668 4.91-5.616 0 0 23.05-8.871 23.05-8.871v-35.033l-23.05-8.872c-2.465-.948-4.302-3.052-4.911-5.622-3.371-14.228-8.975-27.757-16.637-40.191-1.383-2.244-1.572-5.026-.504-7.436 0 0 10.013-22.604 10.013-22.604s-24.768-24.768-24.768-24.768l-22.599 10.049c-2.413 1.072-5.2.886-7.447-.5-12.435-7.662-25.964-13.266-40.151-16.638-2.568-.61-4.67-2.449-5.618-4.914zm-26.417 22.229c64.508 0 116.814 52.243 116.814 116.752 0 64.507-52.307 116.814-116.814 116.814-64.509 0-116.752-52.306-116.752-116.814 0-64.51 52.242-116.752 116.752-116.752zm0 16c-55.669 0-100.752 45.083-100.752 100.752 0 55.67 45.081 100.814 100.752 100.814 55.672 0 100.814-45.142 100.814-100.814 0-55.671-45.144-100.752-100.814-100.752zm-7.992 123.838c-9.546-3.323-16.405-12.406-16.405-23.078s6.859-19.755 16.405-23.078v-26.061c0-4.415 3.585-8 8-8s8 3.585 8 8v26.045c9.57 3.309 16.451 12.404 16.451 23.094s-6.881 19.785-16.451 23.094v26.045c0 4.415-3.585 8-8 8s-8-3.585-8-8zm8-31.506c-4.641.012-8.405 3.784-8.405 8.428s3.764 8.416 8.405 8.428h.023c4.652 0 8.428-3.776 8.428-8.428s-3.776-8.428-8.428-8.428zm-53.454-7.625c-9.558-3.316-16.428-12.405-16.428-23.086 0-13.482 10.946-24.428 24.428-24.428 13.483 0 24.429 10.946 24.429 24.428 0 10.681-6.87 19.77-16.429 23.086v65.192c0 4.415-3.584 8-8 8-4.415 0-8-3.585-8-8zm8-14.658c4.652 0 8.429-3.776 8.429-8.428s-3.777-8.428-8.429-8.428c-4.651 0-8.428 3.776-8.428 8.428s3.777 8.428 8.428 8.428zm98.908 46.764c9.558 3.316 16.428 12.405 16.428 23.086 0 13.482-10.946 24.428-24.428 24.428-13.483 0-24.429-10.946-24.429-24.428 0-10.681 6.87-19.77 16.429-23.086v-65.192c0-4.415 3.584-8 8-8 4.415 0 8 3.585 8 8zm-8 14.658c-4.652 0-8.429 3.776-8.429 8.428s3.777 8.428 8.429 8.428c4.651 0 8.428-3.776 8.428-8.428s-3.777-8.428-8.428-8.428z"/></svg>