<svg width="683" height="683" viewBox="0 0 683 683" fill="none" xmlns="http://www.w3.org/2000/svg">
<g clip-path="url(#clip0_33_65)">
<path d="M497.172 642.271H532.896C538.469 642.271 542.99 637.75 542.99 632.172V50.4948C542.99 44.9167 538.469 40.3958 532.896 40.3958H150.495C144.917 40.3958 140.396 44.9167 140.396 50.4948V632.172C140.396 637.75 144.917 642.271 150.495 642.271H450.13C455.703 642.271 460.229 637.75 460.229 632.172C460.229 626.594 455.703 622.073 450.13 622.073H160.594V60.5937H522.797V622.073H497.172C491.594 622.073 487.073 626.594 487.073 632.172C487.073 637.75 491.594 642.271 497.172 642.271Z" fill="black"/>
<path d="M573.286 -1.52588e-05H200.984C195.406 -1.52588e-05 190.885 4.52082 190.885 10.0989C190.885 15.6771 195.406 20.1979 200.984 20.1979H563.188V662.469H120.198V20.1979H153.943C159.521 20.1979 164.042 15.6771 164.042 10.0989C164.042 4.52082 159.521 -1.52588e-05 153.943 -1.52588e-05H110.099C104.521 -1.52588e-05 100 4.52082 100 10.0989V672.568C100 678.146 104.521 682.667 110.099 682.667H573.292C578.865 682.667 583.385 678.146 583.385 672.568V10.0989C583.385 4.52082 578.865 -1.52588e-05 573.286 -1.52588e-05Z" fill="black"/>
<path d="M382.76 100.984C388.339 100.984 392.859 96.4635 392.859 90.8854C392.859 85.3125 388.339 80.7917 382.76 80.7917H207.047C201.469 80.7917 196.948 85.3125 196.948 90.8854V136.667C196.948 142.245 201.469 146.766 207.047 146.766H476.344C481.917 146.766 486.437 142.245 486.437 136.667V90.8854C486.437 85.3125 481.917 80.7917 476.344 80.7917H429.828C424.255 80.7917 419.734 85.3125 419.734 90.8854C419.734 96.4635 424.255 100.984 429.828 100.984H466.245V126.568H217.146V100.984H382.76Z" fill="#E65402"/>
<path d="M240.635 413.37H442.302C447.875 413.37 452.401 408.849 452.401 403.271C452.401 397.693 447.875 393.172 442.302 393.172H240.635C235.057 393.172 230.536 397.693 230.536 403.271C230.536 408.849 235.057 413.37 240.635 413.37Z" fill="black"/>
<path d="M419.906 449.052C419.906 443.474 415.385 438.953 409.807 438.953H273.125C267.547 438.953 263.026 443.474 263.026 449.052C263.026 454.63 267.547 459.151 273.125 459.151H409.807C415.385 459.151 419.906 454.63 419.906 449.052Z" fill="black"/>
<path d="M262.25 372.974C280.443 372.974 295.24 358.177 295.24 339.984V256.047L388.146 244.984V296.115C384.208 294.453 379.885 293.531 375.354 293.531C357.161 293.531 342.365 308.333 342.365 326.521C342.365 344.714 357.161 359.51 375.354 359.51C393.547 359.51 408.344 344.714 408.344 326.521V190.526C408.344 187.641 407.109 184.891 404.953 182.974C402.792 181.057 399.911 180.156 397.052 180.5L283.948 193.964C278.87 194.568 275.042 198.875 275.042 203.99V309.578C271.109 307.917 266.786 307 262.25 307C244.062 307 229.26 321.797 229.26 339.99C229.26 358.177 244.062 372.974 262.25 372.974ZM375.354 339.312C368.302 339.312 362.562 333.573 362.562 326.521C362.562 319.469 368.302 313.729 375.354 313.729C382.411 313.729 388.146 319.469 388.146 326.521C388.146 333.573 382.406 339.312 375.354 339.312ZM295.24 212.958L388.146 201.901V224.646L295.24 235.708V212.958ZM262.25 327.193C269.302 327.193 275.042 332.932 275.042 339.984C275.042 347.042 269.302 352.781 262.25 352.781C255.198 352.781 249.458 347.042 249.458 339.984C249.458 332.932 255.198 327.193 262.25 327.193Z" fill="#E65402"/>
<path d="M470.281 182.448C470.281 176.87 465.76 172.349 460.182 172.349C454.604 172.349 450.083 176.87 450.083 182.448V195.911C450.083 201.49 454.604 206.01 460.182 206.01C465.76 206.01 470.281 201.49 470.281 195.911V182.448Z" fill="#E65402"/>
<path d="M502.599 214.766C502.599 209.187 498.078 204.667 492.5 204.667H479.031C473.458 204.667 468.932 209.187 468.932 214.766C468.932 220.344 473.458 224.865 479.031 224.865H492.5C498.078 224.865 502.599 220.344 502.599 214.766Z" fill="#E65402"/>
<path d="M450.083 233.615V247.078C450.083 252.656 454.604 257.177 460.182 257.177C465.76 257.177 470.281 252.656 470.281 247.078V233.615C470.281 228.036 465.76 223.516 460.182 223.516C454.604 223.516 450.083 228.036 450.083 233.615Z" fill="#E65402"/>
<path d="M441.333 204.667H427.87C422.292 204.667 417.771 209.187 417.771 214.766C417.771 220.344 422.292 224.865 427.87 224.865H441.333C446.911 224.865 451.432 220.344 451.432 214.766C451.432 209.187 446.911 204.667 441.333 204.667Z" fill="#E65402"/>
<path d="M223.203 220.823C217.625 220.823 213.104 225.344 213.104 230.922V244.385C213.104 249.964 217.625 254.484 223.203 254.484C228.781 254.484 233.302 249.964 233.302 244.385V230.922C233.302 225.344 228.781 220.823 223.203 220.823Z" fill="#E65402"/>
<path d="M180.792 263.24C180.792 268.812 185.312 273.339 190.885 273.339H204.354C209.932 273.339 214.453 268.812 214.453 263.24C214.453 257.661 209.932 253.141 204.354 253.141H190.885C185.307 253.141 180.792 257.661 180.792 263.24Z" fill="#E65402"/>
<path d="M213.104 295.552C213.104 301.13 217.625 305.651 223.203 305.651C228.781 305.651 233.302 301.13 233.302 295.552V282.089C233.302 276.51 228.781 271.99 223.203 271.99C217.625 271.99 213.104 276.51 213.104 282.089V295.552Z" fill="#E65402"/>
<path d="M242.052 273.339H255.521C261.094 273.339 265.62 268.812 265.62 263.24C265.62 257.661 261.094 253.141 255.521 253.141H242.052C236.474 253.141 231.953 257.661 231.953 263.24C231.953 268.812 236.474 273.339 242.052 273.339Z" fill="#E65402"/>
<path d="M260.802 487.427H193.578C188.005 487.427 183.479 491.948 183.479 497.526C183.479 503.104 188.005 507.625 193.578 507.625H260.802C266.38 507.625 270.901 503.104 270.901 497.526C270.901 491.948 266.38 487.427 260.802 487.427Z" fill="black"/>
<path d="M260.802 527.823H193.578C188.005 527.823 183.479 532.344 183.479 537.922C183.479 543.495 188.005 548.021 193.578 548.021H260.802C266.38 548.021 270.901 543.495 270.901 537.922C270.901 532.344 266.38 527.823 260.802 527.823Z" fill="black"/>
<path d="M260.802 568.214H193.578C188.005 568.214 183.479 572.74 183.479 578.313C183.479 583.891 188.005 588.411 193.578 588.411H260.802C266.38 588.411 270.901 583.891 270.901 578.313C270.901 572.734 266.38 568.214 260.802 568.214Z" fill="black"/>
<path d="M487.115 487.427H419.891C414.312 487.427 409.792 491.948 409.792 497.526C409.792 503.104 414.312 507.625 419.891 507.625H487.115C492.693 507.625 497.214 503.104 497.214 497.526C497.214 491.948 492.693 487.427 487.115 487.427Z" fill="black"/>
<path d="M487.115 527.823H419.891C414.312 527.823 409.792 532.344 409.792 537.922C409.792 543.495 414.312 548.021 419.891 548.021H487.115C492.693 548.021 497.214 543.495 497.214 537.922C497.214 532.344 492.693 527.823 487.115 527.823Z" fill="black"/>
<path d="M419.891 588.411H487.115C492.693 588.411 497.214 583.891 497.214 578.313C497.214 572.74 492.693 568.214 487.115 568.214H419.891C414.312 568.214 409.792 572.74 409.792 578.313C409.792 583.891 414.312 588.411 419.891 588.411Z" fill="black"/>
<path d="M375.078 487.427H307.854C302.281 487.427 297.755 491.948 297.755 497.526C297.755 503.104 302.281 507.625 307.854 507.625H375.078C380.656 507.625 385.177 503.104 385.177 497.526C385.177 491.948 380.656 487.427 375.078 487.427Z" fill="black"/>
<path d="M375.078 527.823H307.854C302.281 527.823 297.755 532.344 297.755 537.922C297.755 543.495 302.281 548.021 307.854 548.021H375.078C380.656 548.021 385.177 543.495 385.177 537.922C385.177 532.344 380.656 527.823 375.078 527.823Z" fill="black"/>
<path d="M375.078 568.214H307.854C302.281 568.214 297.755 572.74 297.755 578.313C297.755 583.891 302.281 588.411 307.854 588.411H375.078C380.656 588.411 385.177 583.891 385.177 578.313C385.177 572.734 380.656 568.214 375.078 568.214Z" fill="black"/>
</g>
<defs>
<clipPath id="clip0_33_65">
<rect width="682.667" height="682.667" fill="white"/>
</clipPath>
</defs>
</svg>
