<svg width="200" height="200" viewBox="0 0 200 200" fill="none" xmlns="http://www.w3.org/2000/svg">
<path d="M127.518 56.0298L130.222 50.1788L135.63 52.7176L132.926 58.5686L127.518 56.0298Z" fill="#E65402"/>
<path d="M33.5742 34.8785L36.3421 40.8596L34.3635 41.7894L37.0687 47.6361L39.0484 46.7058L41.8177 52.6894L36.9358 54.9838L46.7327 76.1563L61.8923 69.0312L79.3726 103.554C77.6955 106.684 76.6551 110.209 76.6551 114.01C76.6551 126.255 86.538 136.215 98.6845 136.215C110.835 136.215 120.718 126.255 120.718 114.01C120.718 110.198 119.672 106.663 117.985 103.526L135.459 69.0228L150.468 76.0776L160.265 54.9051L155.387 52.6121L158.155 46.628L160.132 47.5573L162.837 41.7107L160.859 40.7809L163.627 34.7949L167.638 36.6795L174.675 21.464L128.998 0L121.945 15.2116L125.962 17.0987L123.194 23.0818L121.21 22.1496L118.505 27.9962L120.49 28.929L117.723 34.9101L112.836 32.6137L103.04 53.7861L118.182 60.9029L104.781 92.7852C102.832 92.2149 100.814 91.8131 98.6845 91.8131C96.549 91.8131 94.5249 92.2174 92.5707 92.7911L79.1674 60.9118L94.1614 53.8649L84.3645 32.6925L79.4841 34.9864L76.7167 29.0048L78.6959 28.075L75.9906 22.2283L74.0115 23.1581L71.2426 17.1746L75.2517 15.2903L68.207 0.0748214L22.5258 21.5467L29.5666 36.7623L33.5742 34.8785ZM132.094 8.57302L166.168 24.5844L164.542 28.0987L133.14 13.3466L130.468 12.0903L132.094 8.57302ZM131.766 19.8256L157.824 32.0685L155.056 38.054L128.997 25.8086L131.766 19.8256ZM126.292 31.6553L152.351 43.9012L149.585 49.8818L143.003 46.7919L123.525 37.6369L126.292 31.6553ZM111.554 50.6658L115.933 41.1946L138.571 51.8301L151.757 58.0284L147.372 67.4967L138.373 63.2683L138.38 63.2535L120.686 54.9445L120.682 54.9548L111.554 50.6658ZM123.995 63.6351L129.648 66.2921L113.674 97.836C112.727 96.9457 111.723 96.1232 110.633 95.4101L123.995 63.6351ZM98.6845 98.2665C107.301 98.2665 114.306 105.331 114.306 114.01C114.306 122.693 107.301 129.753 98.6845 129.753C90.0682 129.753 83.0587 122.693 83.0587 114.01C83.0587 105.331 90.0682 98.2665 98.6845 98.2665ZM86.7203 95.42C85.6291 96.1355 84.6249 96.9599 83.6783 97.8528L67.7031 66.3004L73.3605 63.6415L86.7203 95.42ZM81.2682 41.2733L85.6467 50.7446L76.6669 54.9641L58.9769 63.2732L58.9784 63.2761L49.829 67.5754L45.4505 58.1041L81.2682 41.2733ZM70.9098 31.7336L73.6762 37.7157L72.8874 38.0865L47.6196 49.9626L44.8523 43.9785L70.9098 31.7336ZM42.148 38.1313L39.3812 32.1492L49.5236 27.3826L51.1621 26.6133L51.1616 26.6128L61.0548 21.9629L65.4392 19.9039L68.206 25.8864L42.148 38.1313ZM65.1107 8.65574L66.7366 12.1686L61.3059 14.722L48.4573 20.7598L48.4568 20.7588L32.6624 28.1799L31.0405 24.6671L65.1107 8.65574Z" fill="#E65402"/>
<path d="M61.5143 52.8036L66.9287 50.2649L69.633 56.1223L64.2186 58.6611L61.5143 52.8036Z" fill="#E65402"/>
<path d="M139.694 110.779V120.282L127.903 121.488L127.254 123.481C126.785 124.907 126.214 126.278 125.55 127.594L124.612 129.47L132.118 138.744L123.314 147.609L114.119 140.044L112.258 140.99C110.944 141.66 109.584 142.243 108.176 142.715L106.202 143.369L104.998 155.252H92.5546L91.3505 143.369L89.3802 142.715C87.9689 142.25 86.6084 141.66 85.2988 140.998L83.4418 140.044L74.2391 147.609L65.4391 138.744L72.9334 129.47L72.003 127.602C71.3423 126.278 70.7637 124.907 70.2946 123.473L69.6417 121.488L57.851 120.282V110.779H0V200H200V110.779H139.694ZM193.589 193.539H6.40355V117.241H51.4474V126.113L64.9348 127.5C65.0795 127.862 65.2319 128.225 65.3883 128.587L56.815 139.185L73.8013 156.292L84.3097 147.664C84.6694 147.821 85.029 147.971 85.3926 148.121L86.7687 161.713H110.78L112.156 148.121C112.524 147.971 112.883 147.821 113.243 147.664L123.751 156.292L140.734 139.185L132.164 128.587C132.321 128.225 132.477 127.862 132.618 127.492L146.105 126.113V117.241H193.589V193.539Z" fill="black"/>
<path d="M98.6859 120.769C102.389 120.769 105.39 117.744 105.39 114.013C105.39 110.282 102.389 107.257 98.6859 107.257C94.9833 107.257 91.9818 110.282 91.9818 114.013C91.9819 117.744 94.9833 120.769 98.6859 120.769Z" fill="#E65402"/>
<path d="M144.628 141.707C143.893 142.573 143.267 143.432 142.735 144.323C142.188 145.229 141.711 146.174 141.273 147.23L133.947 147.041L133.517 164.305L140.843 164.487C141.594 166.48 142.642 168.387 143.947 170.136L140.093 176.487L154.714 185.486L158.561 179.143C160.687 179.513 162.845 179.576 164.964 179.355L168.467 185.832L183.518 177.582L180.007 171.098C180.75 170.223 181.368 169.364 181.915 168.458C182.455 167.56 182.939 166.606 183.362 165.566L190.688 165.755L191.126 148.499L183.8 148.31C183.041 146.316 182.001 144.409 180.695 142.66L184.542 136.317L169.937 127.311L166.082 133.654C163.94 133.283 161.782 133.205 159.679 133.449L156.176 126.956L141.133 135.214L144.628 141.707ZM146.567 151.477C147.036 149.949 147.56 148.743 148.201 147.679C148.826 146.647 149.647 145.639 150.789 144.52L152.509 142.81L149.811 137.798L153.611 135.718L156.293 140.69L158.654 140.154C161.258 139.563 164.049 139.65 166.755 140.414L169.085 141.068L172.048 136.183L175.738 138.46L172.775 143.338L174.417 145.134C176.325 147.215 177.685 149.689 178.334 152.273L178.928 154.645L184.558 154.787L184.448 159.136L178.772 158.995L178.061 161.335C177.615 162.808 177.083 164.037 176.45 165.101C175.817 166.141 174.988 167.158 173.838 168.292L172.126 170.002L174.824 174.998L171.032 177.086L168.334 172.106L165.973 172.65C163.408 173.233 160.593 173.154 157.88 172.382L155.55 171.728L152.587 176.613L148.897 174.344L151.868 169.451L150.218 167.662C148.31 165.582 146.958 163.108 146.301 160.523L145.699 158.151L140.085 158.017L140.187 153.66L145.847 153.802L146.567 151.477Z" fill="black"/>
<path d="M157.153 164.912C158.764 165.905 160.539 166.378 162.306 166.378C165.637 166.378 168.897 164.684 170.766 161.611C172.15 159.333 172.564 156.654 171.946 154.062C171.321 151.47 169.741 149.271 167.49 147.892C165.222 146.49 162.564 146.08 159.984 146.702C157.419 147.333 155.245 148.925 153.877 151.194C152.493 153.463 152.071 156.142 152.697 158.735C153.314 161.327 154.894 163.525 157.153 164.912ZM159.342 154.558C159.827 153.763 160.586 153.195 161.493 152.975C161.766 152.912 162.048 152.872 162.321 152.872C162.962 152.872 163.588 153.053 164.151 153.4C164.941 153.889 165.504 154.661 165.723 155.575C165.942 156.489 165.793 157.434 165.308 158.238C164.816 159.042 164.049 159.601 163.135 159.83C162.243 160.035 161.297 159.909 160.5 159.412C159.702 158.916 159.139 158.144 158.92 157.222C158.701 156.308 158.85 155.37 159.342 154.558Z" fill="black"/>
<path d="M52.2762 139.634L55.8963 133.89L42.3268 125.207L38.7029 130.951C36.8967 130.62 35.0632 130.533 33.2688 130.683L30.1648 124.687L15.9151 132.196L19.023 138.184C18.3975 138.909 17.8541 139.642 17.3811 140.391C16.912 141.147 16.4858 141.951 16.0949 142.826L9.39421 142.55L8.7179 158.734L15.4186 159.018C16.048 160.712 16.908 162.343 17.9714 163.856L14.3513 169.6L27.9208 178.284L31.5448 172.54C33.3509 172.87 35.1766 172.957 36.9788 172.807L40.0829 178.804L54.3326 171.295L51.2246 165.306C51.8501 164.581 52.3935 163.848 52.8666 163.1C53.3357 162.343 53.7618 161.54 54.1527 160.665L60.8534 160.941L61.5297 144.756L54.8291 144.472C54.1997 142.778 53.3396 141.147 52.2762 139.634ZM54.7235 154.227L49.7 154.015L48.9455 156.331C48.5076 157.671 48.0385 158.719 47.456 159.633C46.8774 160.555 46.1346 161.437 45.1221 162.399L43.359 164.077L45.6851 168.568L42.7961 170.089L40.4856 165.637L38.1165 166.133C35.8178 166.598 33.3549 166.488 30.9702 165.779L28.6519 165.085L25.9505 169.38L23.1944 167.615L25.8958 163.32L24.2851 161.5C22.6315 159.633 21.4704 157.434 20.9309 155.141L20.3718 152.77L15.3874 152.557L15.5242 149.263L20.5477 149.476L21.3023 147.159C21.7401 145.82 22.2092 144.772 22.7917 143.858C23.3703 142.936 24.1131 142.053 25.1256 141.092L26.8888 139.414L24.5627 134.922L27.4517 133.402L29.7621 137.854L32.1312 137.357C34.4221 136.884 36.9007 136.995 39.2776 137.712L41.5959 138.405L44.2973 134.111L47.0534 135.876L44.352 140.17L45.9626 141.99C47.6163 143.858 48.7774 146.056 49.3169 148.349L49.8759 150.721L54.8604 150.934L54.7235 154.227Z" fill="black"/>
<path d="M40.0789 143.881C37.9952 142.55 35.5245 142.132 33.1085 142.652C30.7004 143.196 28.6479 144.654 27.3187 146.758C24.59 151.083 25.8683 156.851 30.1687 159.609C31.6699 160.57 33.3704 161.059 35.1062 161.059C35.7825 161.059 36.4628 160.988 37.1391 160.838C39.5472 160.295 41.5997 158.837 42.925 156.741L42.9289 156.733C45.6576 152.407 44.3793 146.639 40.0789 143.881ZM37.5183 153.274V153.282C37.1117 153.92 36.4823 154.369 35.7396 154.535C35.0163 154.716 34.2462 154.574 33.605 154.156C32.2836 153.313 31.8888 151.54 32.7254 150.217C33.1359 149.571 33.7653 149.121 34.5081 148.956C34.7114 148.909 34.9225 148.885 35.1297 148.885C35.6614 148.885 36.1814 149.035 36.6427 149.334C37.964 150.177 38.3588 151.95 37.5183 153.274Z" fill="black"/>
<path d="M123.665 171.216H73.7114C68.8755 171.216 64.9387 175.187 64.9387 180.411C64.9387 185.281 68.8755 189.252 73.7114 189.252H123.665C128.497 189.252 132.438 185.281 132.438 180.057C132.438 175.187 128.497 171.216 123.665 171.216ZM123.665 182.791H73.7114C72.4056 182.791 71.3423 181.727 71.3423 180.057C71.3423 178.741 72.4056 177.677 73.7114 177.677H123.665C124.971 177.677 126.027 178.741 126.027 180.411C126.027 181.727 124.971 182.791 123.665 182.791Z" fill="black"/>
</svg>
