<svg id="Layer_1" enable-background="new 0 0 344.274 355.168" height="512" viewBox="0 0 344.274 355.168" width="512" xmlns="http://www.w3.org/2000/svg"><g><path d="m321.946 305.168h-96v30h-4v-80h-101v80h-4v-50h-96v50h-20v20h341v-20h-20z"/><path d="m171.446 100.5c.501 0 .988.051 1.467.127l11.646-27.049h-26.227l11.646 27.049c.48-.076.968-.127 1.468-.127z"/><path d="m186.127 250.061c6.828 0 12.365-5.533 12.365-12.363v-88-16.938-44.808c3.944-2.478 11.449-7.816 19.03-16.653 10.686-12.416 21.41-32.143 21.374-59.53 0-1.346-.026-2.697-.076-4.057-.161-4.418-3.867-7.867-8.283-7.706-4.415.159-7.864 3.866-7.705 8.283.043 1.183.064 2.345.064 3.479-.036 23.176-8.763 38.814-17.529 49.124-4.385 5.124-8.788 8.835-12.035 11.22-.78.573-1.489 1.066-2.118 1.488-.15-.009-.298-.022-.45-.022h-1.306l-.665 1.546-4.329 10.055-7.415 17.224c2.213 1.689 3.647 4.348 3.647 7.348 0 5.107-4.142 9.25-9.25 9.25s-9.25-4.143-9.25-9.25c0-3 1.434-5.658 3.647-7.348l-7.415-17.225-4.328-10.051-.667-1.549h-1.305c-.151 0-.3.014-.449.022-3.401-2.283-9.274-6.767-14.977-13.685-8.481-10.326-16.674-25.692-16.708-48.148 0-1.143.021-2.297.064-3.459.172-4.414-3.269-8.133-7.684-8.303-4.413-.172-8.13 3.268-8.303 7.684-.054 1.382-.079 2.742-.077 4.078-.037 27.39 10.688 47.115 21.373 59.53 7.582 8.838 15.089 14.178 19.032 16.654v44.808 16.938 88c0 6.83 5.537 12.363 12.363 12.363 6.828 0 12.365-5.533 12.365-12.363v-80.271h4.635v80.271c.002 6.831 5.539 12.364 12.365 12.364z"/><ellipse cx="171.447" cy="47.045" rx="22.494" ry="22.495" transform="matrix(.227 -.974 .974 .227 86.745 203.355)"/><path d="m67.451 130.5c.5 0 .988.051 1.467.127l11.646-27.049h-26.226l11.646 27.049c.479-.076.967-.127 1.467-.127z"/><ellipse cx="67.452" cy="77.045" rx="22.494" ry="22.495" transform="matrix(.227 -.974 .974 .227 -22.883 125.266)"/><path d="m40.405 117.953v44.807 16.938 88c0 6.83 5.537 12.363 12.363 12.363 6.828 0 12.365-5.533 12.365-12.363v-80.271h4.635v80.271c0 6.83 5.537 12.363 12.363 12.363 6.828 0 12.365-5.533 12.365-12.363v-88-16.938-30.941c4.205 9.329 8.544 26.072 9.359 54.746.126 4.338 3.683 7.77 7.995 7.77.078 0 .155-.001.233-.003 4.416-.129 7.895-3.812 7.766-8.228-1.043-35.482-7.081-55.203-13.763-66.72-5.241-9.145-11.253-12.839-14.525-14.134-1.318-1.044-2.98-1.672-4.793-1.672h-1.305l-.692 1.608-4.304 9.997-7.413 17.219c2.213 1.689 3.647 4.348 3.647 7.348 0 5.107-4.142 9.25-9.25 9.25s-9.25-4.143-9.25-9.25c0-3 1.434-5.658 3.647-7.348l-7.416-17.226-4.327-10.05-.667-1.549h-1.305c-.151 0-.299.014-.448.022-3.402-2.283-9.275-6.767-14.979-13.685-8.479-10.325-16.672-25.689-16.706-48.145 0-1.143.02-2.297.064-3.459.17-4.415-3.268-8.134-7.684-8.305-4.415-.17-8.132 3.271-8.303 7.685-.053 1.382-.079 2.742-.077 4.079-.037 27.388 10.687 47.114 21.375 59.528 7.581 8.839 15.087 14.179 19.03 16.656z"/><path d="m276.824 150.998c.501 0 .988.051 1.468.128l11.647-27.05h-26.229l11.647 27.05c.479-.077.966-.128 1.467-.128z"/><ellipse cx="276.824" cy="97.544" rx="22.495" ry="22.495" transform="matrix(.974 -.227 .227 .974 -14.909 65.32)"/><path d="m335.915 50.506c-4.417.158-7.865 3.866-7.706 8.283.041 1.184.065 2.345.065 3.479-.037 23.174-8.763 38.814-17.529 49.124-4.385 5.123-8.788 8.833-12.034 11.219-.781.573-1.491 1.066-2.12 1.488-.149-.009-.298-.022-.449-.022h-1.305l-.665 1.544-4.33 10.06-7.414 17.222c2.213 1.69 3.646 4.348 3.646 7.347 0 5.109-4.142 9.25-9.25 9.25s-9.25-4.141-9.25-9.25c0-2.999 1.434-5.656 3.646-7.347l-7.414-17.223-4.303-9.993-.692-1.609h-1.305c-1.813 0-3.475.628-4.793 1.672-3.271 1.295-9.286 4.988-14.527 14.134-6.681 11.518-12.717 31.238-13.764 66.718-.126 4.417 3.35 8.102 7.767 8.229.079.002.159.003.237.003 4.312.001 7.865-3.432 7.991-7.768.81-28.689 5.162-45.412 9.36-54.758v30.952 16.939 88c0 6.83 5.537 12.363 12.365 12.363 6.826 0 12.363-5.533 12.363-12.363v-80.271h4.635v80.271c0 6.83 5.537 12.363 12.365 12.363 6.826 0 12.363-5.533 12.363-12.363v-88-16.939-44.81c3.944-2.478 11.449-7.816 19.028-16.652 10.685-12.414 21.409-32.141 21.375-59.528 0-1.344-.026-2.696-.075-4.058-.158-4.417-3.866-7.868-8.281-7.706z"/></g></svg>