<svg width="512" height="512" viewBox="0 0 512 512" fill="none" xmlns="http://www.w3.org/2000/svg">
<path d="M256 116.364C237.382 116.364 223.418 102.4 223.418 83.7818V70.5939C223.418 58.9576 233.503 48.8727 245.139 48.8727H266.861C278.497 48.8727 288.582 58.9576 288.582 70.5939V83.7818C288.582 102.4 274.618 116.364 256 116.364ZM245.139 64.3879C242.036 64.3879 238.933 67.4909 238.933 70.5939V83.7818C238.933 93.8667 245.915 100.848 256 100.848C266.085 100.848 273.067 93.8667 273.067 83.7818V70.5939C273.067 67.4909 269.964 64.3879 266.861 64.3879H245.139Z" fill="black"/>
<path d="M303.321 211.782C298.667 211.782 295.564 208.679 295.564 204.024V160.582C295.564 150.497 287.03 141.964 276.945 141.964H235.055C224.97 141.964 216.436 150.497 216.436 160.582V201.697C216.436 206.352 213.333 209.455 208.679 209.455C204.024 209.455 200.921 206.352 200.921 201.697V160.582C200.921 141.188 215.661 126.448 235.055 126.448H276.945C295.564 126.448 311.079 141.964 311.079 160.582V204.024C311.079 208.679 307.976 211.782 303.321 211.782Z" fill="black"/>
<path d="M238.158 210.23C233.503 210.23 230.4 207.127 230.4 202.473V176.097C230.4 171.442 233.503 168.339 238.158 168.339C242.812 168.339 245.915 171.442 245.915 176.097V202.473C245.915 207.127 242.812 210.23 238.158 210.23Z" fill="black"/>
<path d="M273.842 210.23C269.188 210.23 266.085 207.127 266.085 202.473V176.097C266.085 171.442 269.188 168.339 273.842 168.339C278.497 168.339 281.6 171.442 281.6 176.097V202.473C281.6 207.127 278.497 210.23 273.842 210.23Z" fill="black"/>
<path d="M256 324.267C234.279 324.267 216.436 306.424 216.436 284.703V263.758C216.436 252.121 226.521 242.036 238.158 242.036H274.618C286.255 242.036 296.339 252.121 296.339 263.758V284.703C296.339 306.424 277.721 324.267 256 324.267ZM238.158 257.552C235.055 257.552 231.952 260.655 231.952 263.758V284.703C231.952 297.891 242.812 308.752 256 308.752C269.188 308.752 280.824 297.891 280.824 284.703V263.758C280.824 260.655 277.721 257.552 274.618 257.552H238.158Z" fill="#E65402"/>
<path d="M316.509 463.127H195.491C190.836 463.127 187.733 460.024 187.733 455.37V383.224C187.733 359.952 205.576 342.109 228.848 342.109H283.152C306.424 342.109 324.267 359.952 324.267 383.224V455.37C324.267 460.024 321.164 463.127 316.509 463.127ZM203.248 447.612H308.752V383.224C308.752 368.485 297.891 357.624 283.152 357.624H228.848C214.109 357.624 203.248 369.261 203.248 383.224V447.612Z" fill="#E65402"/>
<path d="M227.297 460.024C222.642 460.024 219.539 456.921 219.539 452.267V393.309C219.539 388.655 222.642 385.552 227.297 385.552C231.952 385.552 235.055 388.655 235.055 393.309V452.267C235.055 456.921 231.952 460.024 227.297 460.024Z" fill="#E65402"/>
<path d="M284.703 461.576C280.048 461.576 276.945 458.473 276.945 453.818V393.309C276.945 388.655 280.048 385.552 284.703 385.552C289.358 385.552 292.461 388.655 292.461 393.309V453.818C292.461 458.473 289.358 461.576 284.703 461.576Z" fill="#E65402"/>
<path d="M400.291 134.206C381.673 134.206 367.709 120.242 367.709 101.624V88.4364C367.709 76.8 377.794 66.7151 389.43 66.7151H411.152C422.788 66.7151 432.873 76.8 432.873 88.4364V101.624C432.873 120.242 418.909 134.206 400.291 134.206ZM389.43 82.2303C386.327 82.2303 383.224 85.3333 383.224 88.4364V101.624C383.224 111.709 390.206 118.691 400.291 118.691C410.376 118.691 417.358 111.709 417.358 101.624V88.4364C417.358 85.3333 414.255 82.2303 411.152 82.2303H389.43Z" fill="black"/>
<path d="M447.612 242.036C442.958 242.036 439.855 238.933 439.855 234.279V178.424C439.855 168.339 431.321 159.806 421.236 159.806H379.345C369.261 159.806 360.727 168.339 360.727 178.424V207.127C360.727 211.782 357.624 214.885 352.97 214.885C348.315 214.885 345.212 211.782 345.212 207.127V178.424C345.212 159.03 359.952 144.291 379.345 144.291H421.236C440.63 144.291 455.37 159.03 455.37 178.424V234.279C455.37 238.933 452.267 242.036 447.612 242.036Z" fill="black"/>
<path d="M383.224 217.988C378.57 217.988 375.467 214.885 375.467 210.23V193.939C375.467 189.285 378.57 186.182 383.224 186.182C387.879 186.182 390.982 189.285 390.982 193.939V210.23C390.982 214.885 387.879 217.988 383.224 217.988Z" fill="black"/>
<path d="M417.358 230.4C412.703 230.4 409.6 227.297 409.6 222.642V193.939C409.6 189.285 412.703 186.182 417.358 186.182C422.012 186.182 425.115 189.285 425.115 193.939V222.642C425.115 227.297 422.012 230.4 417.358 230.4Z" fill="black"/>
<path d="M111.709 134.206C93.0909 134.206 79.1273 120.242 79.1273 101.624V88.4364C79.1273 76.8 89.2121 66.7151 100.848 66.7151H122.57C134.206 66.7151 144.291 76.8 144.291 88.4364V101.624C144.291 120.242 130.327 134.206 111.709 134.206ZM100.848 82.2303C97.7454 82.2303 94.6424 85.3333 94.6424 88.4364V101.624C94.6424 111.709 101.624 118.691 111.709 118.691C121.794 118.691 128.776 111.709 128.776 101.624V88.4364C128.776 85.3333 125.673 82.2303 122.57 82.2303H100.848Z" fill="black"/>
<path d="M64.3879 241.261C59.7333 241.261 56.6303 238.158 56.6303 233.503V178.424C56.6303 159.03 71.3697 144.291 90.7636 144.291H132.655C152.048 144.291 166.788 159.03 166.788 178.424V202.473C166.788 207.127 163.685 210.23 159.03 210.23C154.376 210.23 151.273 207.127 151.273 202.473V178.424C151.273 168.339 142.739 159.806 132.655 159.806H90.7636C80.6788 159.806 72.1454 168.339 72.1454 178.424V233.503C72.1454 238.158 69.0424 241.261 64.3879 241.261Z" fill="black"/>
<path d="M130.327 213.333C125.673 213.333 122.57 210.23 122.57 205.576V193.939C122.57 189.285 125.673 186.182 130.327 186.182C134.982 186.182 138.085 189.285 138.085 193.939V205.576C138.085 210.23 134.982 213.333 130.327 213.333Z" fill="black"/>
<path d="M93.0909 230.4C88.4364 230.4 85.3333 227.297 85.3333 222.642V193.939C85.3333 189.285 88.4364 186.182 93.0909 186.182C97.7455 186.182 100.848 189.285 100.848 193.939V222.642C100.848 227.297 97.7455 230.4 93.0909 230.4Z" fill="black"/>
<path d="M204.024 368.485C106.279 360.727 7.75757 331.249 7.75757 282.376C7.75757 227.297 134.206 193.939 256 193.939C376.242 193.939 504.242 224.97 504.242 281.6C504.242 331.248 405.721 360.727 308.752 367.709C304.873 367.709 300.994 364.606 300.218 360.727C300.218 356.073 303.321 352.97 307.2 352.194C411.152 344.436 488.727 314.182 488.727 281.6C488.727 247.467 393.309 209.455 256 209.455C118.691 209.455 23.2727 248.242 23.2727 282.376C23.2727 309.527 86.8848 343.661 204.8 352.97C209.455 352.97 212.558 356.848 211.782 361.503C211.782 365.382 207.903 368.485 204.024 368.485Z" fill="#E65402"/>
</svg>
