<svg id="Layer_1" viewBox="0 0 64 64" xmlns="http://www.w3.org/2000/svg" data-name="Layer 1"><path d="m5.93 62h52.14c.55 0 1-.45 1-1v-21.14c0-.55-.45-1-1-1h-3.28v-25.65h2.07c.55 0 1-.44 1-1v-9.21c0-.55-.45-1-1-1h-49.72c-.55 0-1 .45-1 1v9.21c0 .56.45 1 1 1h2.07v25.65h-3.28c-.55 0-1 .45-1 1v21.14c0 .55.45 1 1 1zm2.21-50.79v-7.21h47.72v7.21zm41.65 4.01h-13.79c-.55 0-1 .44-1 1v22.64h-2v-25.64h19.79v25.64h-2v-22.64c0-.56-.45-1-1-1zm-21.79 0h-13.79c-.55 0-1 .44-1 1v22.64h-2v-25.64h19.79v25.64h-2v-22.64c0-.56-.45-1-1-1zm-21.07 25.64h50.14v19.14h-50.14z"/><path d="m54.07 45.97c-1.16 0-2.1-.95-2.1-2.11 0-.55-.45-1-1-1h-37.94c-.55 0-1 .45-1 1 0 1.16-.94 2.11-2.1 2.11-.55 0-1 .44-1 1v6.93c0 .55.45 1 1 1 1.16 0 2.1.94 2.1 2.1 0 .55.45 1 1 1h37.94c.55 0 1-.45 1-1 0-1.16.94-2.1 2.1-2.1.55 0 1-.45 1-1v-6.93c0-.56-.45-1-1-1z"/></svg>