<svg width="278" height="282" viewBox="0 0 278 282" fill="none" xmlns="http://www.w3.org/2000/svg">
<path d="M256.281 113.02C255.13 113.024 254.027 113.489 253.214 114.315C252.4 115.14 251.941 116.259 251.938 117.427V193.875C251.934 195.043 251.475 196.161 250.661 196.987C249.848 197.812 248.745 198.278 247.594 198.281H30.4062C29.2553 198.278 28.1524 197.812 27.3386 196.987C26.5247 196.161 26.0659 195.043 26.0625 193.875V117.427C26.0625 116.258 25.6049 115.137 24.7902 114.311C23.9756 113.485 22.8708 113.02 21.7188 113.02C20.5667 113.02 19.4619 113.485 18.6473 114.311C17.8326 115.137 17.375 116.258 17.375 117.427V193.875C17.3851 197.378 18.7613 200.734 21.2029 203.211C23.6446 205.688 26.9533 207.083 30.4062 207.094H92.435L102.556 237.937H82.5312C81.7278 237.934 80.9396 238.159 80.2561 238.588C79.5727 239.016 79.0215 239.63 78.6653 240.361L69.9778 257.986C69.6387 258.656 69.4753 259.403 69.5036 260.156C69.5319 260.909 69.7508 261.642 70.1392 262.283C70.5277 262.925 71.0726 263.455 71.7214 263.821C72.3703 264.188 73.1012 264.378 73.8438 264.375H204.156C204.899 264.378 205.63 264.188 206.279 263.821C206.927 263.455 207.472 262.925 207.861 262.283C208.249 261.642 208.468 260.909 208.496 260.156C208.525 259.403 208.361 258.656 208.022 257.986L199.335 240.361C198.979 239.63 198.427 239.016 197.744 238.588C197.06 238.159 196.272 237.934 195.469 237.937H175.444L185.565 207.094H247.594C251.047 207.083 254.355 205.688 256.797 203.211C259.239 200.734 260.615 197.378 260.625 193.875V117.427C260.622 116.259 260.163 115.14 259.349 114.315C258.535 113.489 257.432 113.024 256.281 113.02ZM166.279 237.937H160.719C159.567 237.937 158.462 238.402 157.647 239.228C156.833 240.054 156.375 241.175 156.375 242.344C156.375 243.512 156.833 244.633 157.647 245.459C158.462 246.286 159.567 246.75 160.719 246.75H192.776L197.119 255.562H80.8806L85.2244 246.75H143.344C144.496 246.75 145.601 246.286 146.415 245.459C147.23 244.633 147.688 243.512 147.688 242.344C147.688 241.175 147.23 240.054 146.415 239.228C145.601 238.402 144.496 237.937 143.344 237.937H111.721L101.6 207.094H176.4L166.279 237.937Z" fill="black"/>
<path d="M39.0938 114.563C38.5233 114.562 37.9584 114.676 37.4313 114.898C36.9042 115.119 36.4253 115.444 36.0219 115.853C35.6185 116.262 35.2986 116.748 35.0803 117.282C34.8621 117.817 34.7499 118.39 34.75 118.969V167.438C34.7499 168.016 34.8621 168.589 35.0803 169.124C35.2986 169.659 35.6185 170.144 36.0219 170.554C36.4253 170.963 36.9042 171.287 37.4313 171.509C37.9584 171.73 38.5233 171.844 39.0938 171.844H238.906C239.477 171.844 240.042 171.73 240.569 171.509C241.096 171.287 241.575 170.963 241.978 170.554C242.381 170.144 242.701 169.659 242.92 169.124C243.138 168.589 243.25 168.016 243.25 167.438V118.969C243.25 117.8 242.792 116.679 241.978 115.853C241.163 115.027 240.058 114.563 238.906 114.563C237.754 114.563 236.649 115.027 235.835 115.853C235.02 116.679 234.562 117.8 234.562 118.969V163.031H43.4375V118.969C43.4376 118.39 43.3254 117.817 43.1072 117.282C42.8889 116.748 42.569 116.262 42.1656 115.853C41.7622 115.444 41.2833 115.119 40.7562 114.898C40.2291 114.676 39.6642 114.562 39.0938 114.563Z" fill="black"/>
<path d="M139 190.57C141.999 190.57 144.43 188.104 144.43 185.062C144.43 182.021 141.999 179.555 139 179.555C136.001 179.555 133.57 182.021 133.57 185.062C133.57 188.104 136.001 190.57 139 190.57Z" fill="black"/>
<path d="M152.214 87.542C152.784 87.5421 153.349 87.4283 153.876 87.2069C154.403 86.9855 154.882 86.6609 155.286 86.2517C155.689 85.8426 156.009 85.3568 156.227 84.8221C156.445 84.2874 156.558 83.7144 156.557 83.1357V48.8194C156.554 45.3769 155.205 42.0762 152.806 39.6416C150.407 37.207 147.153 35.8373 143.759 35.833H134.241C130.847 35.8373 127.593 37.207 125.194 39.6416C122.795 42.0762 121.446 45.3769 121.443 48.8194V83.1357C121.443 84.3043 121.9 85.4251 122.715 86.2514C123.529 87.0777 124.634 87.542 125.786 87.542C126.938 87.542 128.043 87.0777 128.858 86.2514C129.672 85.4251 130.13 84.3043 130.13 83.1357V66.0938H147.87V83.1357C147.87 83.7144 147.982 84.2874 148.2 84.8221C148.419 85.3568 148.738 85.8426 149.142 86.2517C149.545 86.6609 150.024 86.9855 150.551 87.2069C151.078 87.4283 151.643 87.5421 152.214 87.542ZM130.13 57.2813V48.8194C130.131 47.7135 130.564 46.653 131.335 45.8705C132.105 45.0881 133.15 44.6475 134.241 44.6455H143.759C144.85 44.6475 145.895 45.0881 146.665 45.8705C147.436 46.653 147.869 47.7135 147.87 48.8194V57.2813H130.13Z" fill="#E65402"/>
<path d="M54.9501 35.833H39.0938C38.5233 35.8329 37.9584 35.9467 37.4313 36.1681C36.9042 36.3895 36.4253 36.7141 36.0219 37.1233C35.6185 37.5324 35.2986 38.0182 35.0803 38.5529C34.8621 39.0876 34.7499 39.6606 34.75 40.2393V83.1357C34.7499 83.7144 34.8621 84.2874 35.0803 84.8221C35.2986 85.3567 35.6185 85.8425 36.0219 86.2517C36.4253 86.6609 36.9042 86.9855 37.4313 87.2069C37.9584 87.4282 38.5233 87.5421 39.0938 87.542H54.9501C57.9046 87.545 60.7933 86.6573 63.2493 84.9914C65.7053 83.3256 67.6178 80.9568 68.7439 78.186C69.8699 75.4153 70.1587 72.3675 69.5736 69.4299C68.9884 66.4923 67.5557 63.7974 65.4574 61.6875C67.5557 59.5776 68.9884 56.8827 69.5736 53.945C70.1587 51.0074 69.8699 47.9596 68.7438 45.1888C67.6178 42.4181 65.7052 40.0493 63.2492 38.3835C60.7931 36.7177 57.9046 35.8299 54.9501 35.833ZM54.9501 78.7295H43.4375V66.0937H54.9501C56.602 66.0937 58.1861 66.7594 59.3542 67.9442C60.5222 69.129 61.1784 70.736 61.1784 72.4116C61.1784 74.0872 60.5222 75.6942 59.3542 76.879C58.1861 78.0638 56.602 78.7295 54.9501 78.7295ZM54.9501 57.2812H43.4375V44.6455H54.9501C56.602 44.6455 58.1861 45.3112 59.3542 46.496C60.5222 47.6808 61.1784 49.2878 61.1784 50.9634C61.1784 52.639 60.5222 54.246 59.3542 55.4308C58.1861 56.6156 56.602 57.2812 54.9501 57.2812Z" fill="#E65402"/>
<path d="M230.219 87.542C233.674 87.5381 236.986 86.1442 239.429 83.6661C241.872 81.1879 243.246 77.8279 243.25 74.3232V49.0518C243.246 45.5471 241.872 42.1871 239.429 39.7089C236.986 37.2308 233.674 35.8369 230.219 35.833H212.475C211.904 35.8329 211.339 35.9468 210.812 36.1681C210.285 36.3895 209.806 36.7141 209.403 37.1233C208.999 37.5324 208.679 38.0183 208.461 38.5529C208.243 39.0876 208.131 39.6606 208.131 40.2393V83.1357C208.131 83.7144 208.243 84.2874 208.461 84.8221C208.679 85.3568 208.999 85.8426 209.403 86.2517C209.806 86.6609 210.285 86.9855 210.812 87.2069C211.339 87.4283 211.904 87.5421 212.475 87.542H230.219ZM216.818 44.6455H230.219C231.37 44.6467 232.475 45.1113 233.289 45.9374C234.103 46.7635 234.561 47.8835 234.562 49.0518V74.3232C234.561 75.4915 234.103 76.6115 233.289 77.4376C232.475 78.2637 231.37 78.7283 230.219 78.7295H216.818V44.6455Z" fill="#E65402"/>
<path d="M173.474 83.1357V55.6031L191.88 85.4701C192.38 86.2816 193.126 86.9061 194.007 87.2492C194.887 87.5922 195.854 87.6351 196.76 87.3714C197.667 87.1077 198.464 86.5517 199.032 85.7875C199.599 85.0233 199.906 84.0925 199.906 83.1357V40.2393C199.906 39.0707 199.448 37.9499 198.634 37.1236C197.819 36.2973 196.714 35.833 195.562 35.833C194.41 35.833 193.305 36.2973 192.491 37.1236C191.676 37.9499 191.218 39.0707 191.218 40.2393V67.7719L172.813 37.9049C172.313 37.0934 171.567 36.4689 170.686 36.1258C169.806 35.7828 168.839 35.7399 167.932 36.0036C167.026 36.2673 166.228 36.8233 165.661 37.5875C165.093 38.3517 164.786 39.2825 164.787 40.2393V83.1357C164.787 84.3043 165.244 85.4251 166.059 86.2514C166.874 87.0777 167.978 87.542 169.131 87.542C170.283 87.542 171.387 87.0777 172.202 86.2514C173.017 85.4251 173.474 84.3043 173.474 83.1357Z" fill="#E65402"/>
<path d="M113.198 50.9803C113.201 46.9671 111.633 43.1168 108.84 40.2749C106.046 37.433 102.255 35.8318 98.2991 35.8228H82.4444C81.2934 35.8262 80.1905 36.2915 79.3766 37.1171C78.5627 37.9427 78.104 39.0615 78.1006 40.2291V83.1459C78.1006 84.3146 78.5583 85.4353 79.3729 86.2616C80.1875 87.088 81.2923 87.5522 82.4444 87.5522C83.5964 87.5522 84.7013 87.088 85.5159 86.2616C86.3305 85.4353 86.7881 84.3146 86.7881 83.1459V66.0938H95.0412C96.0403 66.0938 97.2131 66.0938 98.7334 69.5747L104.858 84.8203C105.188 85.6224 105.742 86.3087 106.452 86.7943C107.163 87.2799 107.998 87.5434 108.854 87.5522C109.564 87.5415 110.261 87.3568 110.886 87.0139C111.51 86.6709 112.043 86.1798 112.44 85.5825C112.837 84.9852 113.086 84.2993 113.165 83.5835C113.244 82.8677 113.151 82.1431 112.894 81.4716L106.726 66.1378C106.423 65.4112 106.075 64.7047 105.683 64.0228C107.96 62.7156 109.854 60.8202 111.174 58.5293C112.494 56.2384 113.192 53.6338 113.198 50.9803ZM98.2991 57.2813H86.7881V44.6353H98.2991C99.9522 44.6353 101.538 45.3015 102.707 46.4873C103.876 47.6731 104.532 49.2813 104.532 50.9583C104.532 52.6352 103.876 54.2435 102.707 55.4293C101.538 56.6151 99.9522 57.2813 98.2991 57.2813Z" fill="#E65402"/>
<path d="M247.594 17.625H56.4688C55.3167 17.625 54.2119 18.0892 53.3973 18.9156C52.5826 19.7419 52.125 20.8626 52.125 22.0312C52.125 23.1999 52.5826 24.3206 53.3973 25.1469C54.2119 25.9733 55.3167 26.4375 56.4688 26.4375H247.594C248.745 26.4387 249.85 26.9033 250.664 27.7293C251.478 28.5554 251.936 29.6755 251.938 30.8438V92.5312C251.936 93.6995 251.478 94.8196 250.664 95.6456C249.85 96.4717 248.745 96.9363 247.594 96.9375H30.4062C29.2546 96.9363 28.1504 96.4717 27.336 95.6456C26.5217 94.8196 26.0636 93.6995 26.0625 92.5312V30.8438C26.0636 29.6755 26.5217 28.5554 27.336 27.7293C28.1504 26.9033 29.2546 26.4387 30.4062 26.4375H39.0938C40.2458 26.4375 41.3506 25.9733 42.1652 25.1469C42.9799 24.3206 43.4375 23.1999 43.4375 22.0312C43.4375 20.8626 42.9799 19.7419 42.1652 18.9156C41.3506 18.0892 40.2458 17.625 39.0938 17.625H30.4062C26.9513 17.6288 23.6389 19.0227 21.1959 21.5009C18.7529 23.9791 17.3788 27.3391 17.375 30.8438V92.5312C17.3788 96.0359 18.7529 99.3959 21.1959 101.874C23.6389 104.352 26.9513 105.746 30.4062 105.75H247.594C251.049 105.746 254.361 104.352 256.804 101.874C259.247 99.3959 260.621 96.0359 260.625 92.5312V30.8438C260.621 27.3391 259.247 23.9791 256.804 21.5009C254.361 19.0227 251.049 17.6288 247.594 17.625Z" fill="black"/>
</svg>
