<svg id="Layer_1" viewBox="0 0 512 512" xmlns="http://www.w3.org/2000/svg" data-name="Layer 1"><path d="m111.05 86.8 11.66 22.391a7 7 0 0 1 -.38 7.11 158.866 158.866 0 0 0 -23.5 56.63 6.98 6.98 0 0 1 -4.729 5.28l-24.122 7.68a3.986 3.986 0 0 0 -2.878 3.949v30.1a3.976 3.976 0 0 0 2.89 3.949l24.06 7.581a6.983 6.983 0 0 1 4.76 5.29 158.608 158.608 0 0 0 23.46 56.65 7.014 7.014 0 0 1 .38 7.09l-11.631 22.5a3.981 3.981 0 0 0 .75 4.829l21.29 21.281a3.963 3.963 0 0 0 4.84.74l22.39-11.66a6.983 6.983 0 0 1 7.1.38q3.87 2.565 7.9 4.91c-.97-1.1-1.94-2.18-2.911-3.27-11.8-13.12-23.989-26.69-23.99-64.55a105.594 105.594 0 0 1 5.951-35.03 107.746 107.746 0 1 1 201.74 4.29 105.786 105.786 0 0 1 4.54 30.74c0 34.72-10.949 48.46-21.53 61.75-2.15 2.69-4.3 5.4-6.39 8.33 4.03-2.2 7.98-4.56 11.81-7.11a6.994 6.994 0 0 1 7.081-.38l22.5 11.63a3.98 3.98 0 0 0 4.831-.75l21.289-21.29a3.978 3.978 0 0 0 .741-4.84l-11.662-22.38a7 7 0 0 1 .38-7.11 158.846 158.846 0 0 0 23.49-56.63 7.042 7.042 0 0 1 4.74-5.29l24.12-7.68a3.975 3.975 0 0 0 2.88-3.94v-30.1a3.967 3.967 0 0 0 -2.888-3.95l-24.061-7.58a7 7 0 0 1 -4.76-5.29 158.666 158.666 0 0 0 -23.46-56.66 7 7 0 0 1 -.38-7.081l11.63-22.5a3.982 3.982 0 0 0 -.749-4.83l-21.292-21.279a3.961 3.961 0 0 0 -4.838-.75l-22.392 11.66a6.982 6.982 0 0 1 -7.1-.37 158.733 158.733 0 0 0 -56.64-23.5 6.992 6.992 0 0 1 -5.279-4.74l-7.681-24.12a3.976 3.976 0 0 0 -3.94-2.88h-30.111a3.97 3.97 0 0 0 -3.947 2.9l-7.572 24.06a7.014 7.014 0 0 1 -5.3 4.76 158.993 158.993 0 0 0 -56.65 23.45 6.993 6.993 0 0 1 -7.08.39l-22.5-11.63a3.961 3.961 0 0 0 -4.828.75l-21.292 21.28a3.98 3.98 0 0 0 -.74 4.839zm143.46 96.74a92.222 92.222 0 0 1 92.11 92.12c0 29.83-8.56 40.58-18.48 53.03-11.62 14.58-24.721 31.02-25.939 76.48h-91.831c-1.31-45.07-15.23-60.57-27.58-74.32-10.95-12.18-20.4-22.7-20.4-55.19a92.225 92.225 0 0 1 92.121-92.12zm-19.769 71.97 9.309-28.84a10.988 10.988 0 0 1 20.911 0l9.311 28.841 30.308-.05h.031a10.982 10.982 0 0 1 6.43 19.88l-24.55 17.771 9.419 28.81a10.987 10.987 0 0 1 -16.92 12.289l-24.48-17.861-24.49 17.86a10.99 10.99 0 0 1 -16.92-12.29l9.421-28.81-24.551-17.77a10.981 10.981 0 0 1 6.439-19.88h.021l30.311.051zm12.648 6.4 7.121-22.06 7.121 22.06a10.944 10.944 0 0 0 10.449 7.61h.02l23.171-.05-18.771 13.59a10.951 10.951 0 0 0 -4 12.31l7.2 22.03-18.72-13.66a10.95 10.95 0 0 0 -12.951 0l-18.719 13.66 7.2-22.03a10.933 10.933 0 0 0 -4-12.31l-18.77-13.59 23.17.05h.03a10.952 10.952 0 0 0 10.449-7.61zm49.261 169.54h-84.28a7 7 0 1 0 0 14h84.278a7 7 0 1 0 0-14zm-11.63 25.28h-61.03a7 7 0 0 0 0 14h61.029a7 7 0 1 0 0-14zm-14.52 25.27h-31.99a7 7 0 0 0 0 14h31.99a7 7 0 0 0 0-14z" fill-rule="evenodd"/></svg>