<svg width="512" height="512" viewBox="0 0 512 512" fill="none" xmlns="http://www.w3.org/2000/svg">
<path d="M78.7495 373.347C82.8925 373.347 86.2495 369.989 86.2495 365.847V339.347H189.416V365.847C189.416 369.989 192.773 373.347 196.916 373.347C201.059 373.347 204.416 369.989 204.416 365.847V339.347H307.584V365.847C307.584 369.989 310.941 373.347 315.084 373.347C319.227 373.347 322.584 369.989 322.584 365.847V339.347H425.751V365.847C425.751 369.989 429.109 373.347 433.252 373.347C437.395 373.347 440.752 369.989 440.752 365.847V331.847C440.752 327.705 437.395 324.347 433.252 324.347H263.229V297.26H362.964C371.587 297.26 378.602 290.245 378.602 281.622V273.5C378.602 269.358 375.245 266 371.102 266C366.959 266 363.602 269.358 363.602 273.5V281.622C363.602 281.974 363.316 282.26 362.964 282.26H340.83V244.835C340.83 240.693 337.473 237.335 333.33 237.335C329.187 237.335 325.83 240.693 325.83 244.835V282.26H263.228V279.52C269.015 269.166 277.231 262.327 287.684 259.196C298.273 256.024 305.304 250.494 308.582 242.759C311.648 235.523 311.051 226.603 306.934 217.391C315.118 212.38 319.706 205.353 320.369 197.257L343.893 206.367C354.201 210.649 363.601 222.474 363.601 238.498C363.601 242.64 366.958 245.998 371.101 245.998C375.244 245.998 378.601 242.64 378.601 238.498C378.601 216.516 365.728 199.133 349.535 192.468C349.486 192.448 349.438 192.428 349.389 192.41L336.549 187.437C341.711 181.625 344.824 173.982 345.287 165.289C345.957 152.711 340.972 141.458 332.881 137.287C329.74 135.666 327.628 134.153 326.234 132.523C323.947 129.849 322.204 125.644 321.442 121.199C326.368 116.584 329.175 110.248 329.175 103.636C329.175 98.6946 327.599 93.9145 324.726 89.8635V68.7264C324.727 30.7502 294.008 0 256.004 0C255.831 0 255.658 0 255.486 0.00100001C217.874 0.276002 187.273 31.4502 187.273 69.4934V89.8635C184.399 93.9145 182.823 98.6966 182.823 103.638C182.823 110.014 185.436 116.131 190.041 120.698C188.396 131.428 183.443 134.744 178.511 137.288C170.415 141.461 165.43 152.72 166.106 165.304C166.572 173.999 169.689 181.643 174.856 187.453L162.065 192.412C162.017 192.431 161.969 192.45 161.921 192.469C147.921 198.23 132.854 214.712 132.854 237.284V281.622C132.854 290.245 139.869 297.26 148.492 297.26H248.228V324.347H78.7495C74.6064 324.347 71.2494 327.705 71.2494 331.847V365.847C71.2494 369.989 74.6064 373.347 78.7495 373.347ZM248.228 255.895C242.383 250.821 235.609 247.083 228.074 244.827C221.969 242.998 218.136 240.334 216.683 236.907C214.46 231.661 217.654 224.467 219.13 221.618C222.157 215.776 219.881 208.557 213.995 205.522C209.661 203.287 204.43 199.44 206.431 191.3L214.101 188.326C219.034 197.107 243.217 240.154 248.228 249.073V255.895ZM219.094 119.428V94.3986C224.844 94.3986 234.59 94.0345 239.797 92.5445C246.01 90.7655 251.727 87.1505 256.008 82.0525C265.77 93.6535 278.263 94.3986 292.904 94.3986V118.997C292.904 138.671 276.828 155.735 256.48 155.699C234.363 155.626 219.094 138.854 219.094 119.428ZM238.232 170.742V167.628C248.819 171.342 261.509 171.96 273.191 167.9L273.198 170.788C273.211 175.778 276.226 180.165 280.875 181.962L283.217 182.869L280.05 188.507C265.2 196.501 246.578 196.673 231.41 188.508L228.231 182.849C234.14 180.557 238.232 177.39 238.232 170.742ZM255.728 231.797L242.51 208.269C251.141 209.988 260.314 209.988 268.947 208.269C266.003 213.508 258.694 226.52 255.728 231.797ZM297.46 205.522C291.59 208.549 289.29 215.761 292.325 221.618C293.802 224.468 296.995 231.662 294.772 236.908C293.32 240.335 289.487 242.999 283.381 244.828C275.847 247.084 269.072 250.821 263.228 255.895V249.074C274.025 229.854 296.305 190.195 297.346 188.342C300.533 189.576 298.757 188.888 304.866 191.255C306.732 197.577 304.411 201.938 297.46 205.522ZM326.008 150.62C327.769 151.528 330.712 156.94 330.31 164.492C330.112 168.203 328.744 176.776 320.622 181.27L288.193 168.711L288.171 159.628C297.711 152.04 304.828 141 307.111 127.976C307.264 127.955 307.417 127.933 307.569 127.909C309.064 133.426 311.579 138.467 314.836 142.275C317.534 145.428 321.084 148.08 326.008 150.62ZM314.176 103.638C314.176 107.293 311.838 110.725 307.905 112.346V95.2446C311.658 96.8576 314.176 99.3476 314.176 103.638ZM202.274 69.4934C202.274 39.6612 226.194 15.2161 255.597 15.0011C255.733 15.0001 255.867 15.0001 256.002 15.0001C285.682 15.0001 309.728 39.0102 309.728 68.7264V80.0605C306.492 79.2335 303.102 79.0215 299.944 79.3995C284.963 79.3995 289.423 79.5595 279.781 78.7365C272.353 78.1065 265.815 72.9764 264.017 65.5634C263.116 61.8484 259.82 59.2533 256.002 59.2533C252.232 59.2533 248.885 61.7974 247.963 65.6514C246.092 73.1534 239.455 78.2055 232.04 78.7745H232.039C232.039 78.7745 224.537 79.3825 223.205 79.3985C207.736 79.3985 207.213 78.8295 202.274 80.1465V69.4934ZM204.094 95.3886V112.35C204.057 112.335 204.018 112.324 203.981 112.308C200.38 110.77 197.824 107.504 197.824 103.638C197.824 99.3486 200.353 97.0496 204.094 95.3886ZM185.385 150.62C193.351 146.512 200.354 140.862 203.858 127.82C204.171 127.875 204.488 127.925 204.804 127.969C206.952 140.94 213.928 151.89 223.232 159.332V168.697L190.786 181.276C182.656 176.786 181.283 168.212 181.085 164.5C180.679 156.944 183.623 151.529 185.385 150.62ZM186.169 282.26V244.835C186.169 240.693 182.812 237.335 178.669 237.335C174.526 237.335 171.169 240.693 171.169 244.835V282.26H148.491C148.139 282.26 147.853 281.974 147.853 281.622V237.284C147.853 221.803 158.414 210.171 167.564 206.367L191.064 197.256C191.813 205.381 196.415 212.412 204.521 217.389C200.403 226.602 199.804 235.523 202.872 242.759C206.15 250.494 213.182 256.024 223.77 259.196C234.224 262.327 242.44 269.166 248.227 279.52V282.26H186.169Z" fill="#E65402"/>
<path d="M105.003 432.677C108.72 427.431 110.914 421.033 110.914 414.128C110.914 396.391 96.4842 381.961 78.7482 381.961C61.0112 381.961 46.5812 396.391 46.5812 414.128C46.5812 421.033 48.7752 427.431 52.4932 432.677C40.9782 436.394 32.6232 447.21 32.6232 459.946V496.658C32.6232 505.117 39.5052 511.999 47.9642 511.999H109.531C117.991 511.999 124.873 505.117 124.873 496.658V459.946C124.874 447.21 116.519 436.394 105.003 432.677ZM78.7492 396.961C88.2152 396.961 95.9152 404.662 95.9152 414.128C95.9152 423.594 88.2152 431.295 78.7492 431.295C69.2832 431.295 61.5822 423.594 61.5822 414.128C61.5822 404.662 69.2832 396.961 78.7492 396.961ZM109.874 496.658C109.874 496.846 109.721 496.999 109.532 496.999H47.9642C47.7762 496.999 47.6232 496.846 47.6232 496.658V459.946C47.6232 452.419 53.7462 446.295 61.2732 446.295H96.2212C103.748 446.295 109.872 452.419 109.872 459.946V496.658H109.874Z" fill="black"/>
<path d="M223.171 432.677C226.889 427.431 229.083 421.033 229.083 414.128C229.083 396.391 214.653 381.961 196.916 381.961C179.18 381.961 164.75 396.391 164.75 414.128C164.75 421.033 166.944 427.431 170.661 432.677C159.146 436.394 150.791 447.21 150.791 459.946V496.658C150.791 505.117 157.673 511.999 166.133 511.999H227.699C236.159 511.999 243.041 505.117 243.041 496.658V459.946C243.041 447.21 234.686 436.394 223.171 432.677ZM196.916 396.961C206.382 396.961 214.083 404.662 214.083 414.128C214.083 423.594 206.382 431.295 196.916 431.295C187.45 431.295 179.75 423.594 179.75 414.128C179.75 404.662 187.45 396.961 196.916 396.961ZM228.041 496.658C228.041 496.846 227.888 496.999 227.699 496.999H166.133C165.945 496.999 165.791 496.846 165.791 496.658V459.946C165.791 452.419 171.915 446.295 179.442 446.295H214.389C221.916 446.295 228.04 452.419 228.04 459.946L228.041 496.658Z" fill="black"/>
<path d="M459.505 432.677C463.222 427.431 465.416 421.033 465.416 414.128C465.416 396.391 450.986 381.961 433.25 381.961C415.513 381.961 401.083 396.391 401.083 414.128C401.083 421.033 403.277 427.431 406.995 432.677C395.48 436.394 387.125 447.21 387.125 459.946V496.658C387.125 505.117 394.007 511.999 402.466 511.999H464.033C472.493 511.999 479.375 505.117 479.375 496.658V459.946C479.376 447.21 471.021 436.394 459.505 432.677ZM433.251 396.961C442.717 396.961 450.417 404.662 450.417 414.128C450.417 423.594 442.717 431.295 433.251 431.295C423.785 431.295 416.084 423.594 416.084 414.128C416.084 404.662 423.785 396.961 433.251 396.961ZM464.376 496.658C464.376 496.846 464.223 496.999 464.034 496.999H402.467C402.279 496.999 402.126 496.846 402.126 496.658V459.946C402.126 452.419 408.249 446.295 415.776 446.295H450.724C458.251 446.295 464.375 452.419 464.375 459.946V496.658H464.376Z" fill="black"/>
<path d="M341.339 432.677C345.057 427.431 347.251 421.033 347.251 414.128C347.251 396.391 332.821 381.961 315.084 381.961C297.347 381.961 282.917 396.391 282.917 414.128C282.917 421.033 285.111 427.431 288.829 432.677C277.314 436.394 268.959 447.21 268.959 459.946V496.657C268.959 505.116 275.841 511.999 284.301 511.999H297.584C301.727 511.999 305.084 508.641 305.084 504.499C305.084 500.357 301.727 496.999 297.584 496.999H284.301C284.113 496.999 283.959 496.846 283.959 496.657V459.946C283.959 452.419 290.083 446.295 297.61 446.295H332.557C340.084 446.295 346.208 452.419 346.208 459.946V496.657C346.208 496.845 346.055 496.999 345.866 496.999H332.583C328.44 496.999 325.083 500.357 325.083 504.499C325.083 508.641 328.44 511.999 332.583 511.999H345.866C354.326 511.999 361.208 505.117 361.208 496.657V459.946C361.209 447.21 352.854 436.394 341.339 432.677ZM315.084 431.294C305.618 431.294 297.917 423.593 297.917 414.127C297.917 404.661 305.618 396.96 315.084 396.96C324.55 396.96 332.251 404.661 332.251 414.127C332.251 423.593 324.549 431.294 315.084 431.294Z" fill="black"/>
</svg>
