<svg id="Capa_1" enable-background="new 0 0 512 512" height="512" viewBox="0 0 512 512" width="512" xmlns="http://www.w3.org/2000/svg"><g><path d="m122.912 391.28h-103.258c-8.284 0-15 6.716-15 15v90.72c0 8.284 6.716 15 15 15h118.259v-105.72c-.001-8.284-6.716-15-15.001-15z"/><path d="m271.171 307.28h-88.259c-8.284 0-15 6.716-15 15v189.72h118.259v-189.72c0-8.284-6.716-15-15-15z"/><path d="m477.798 81.01 30.23-32.81c4.04-4.38 5.1-10.73 2.71-16.18-2.39-5.46-7.78-8.98-13.74-8.98h-96.699v-8.04c0-8.28-6.71-15-15-15-8.28 0-15 6.72-15 15v175h-39.13c-8.284 0-15 6.716-15 15v307h120.809c8.29 0 15-6.72 15-15v-292c0-8.28-6.71-15-15-15h-36.679v-53.67h96.699c6.07 0 11.54-3.66 13.86-9.27s1.03-12.07-3.27-16.35z"/><path d="m254.552 128.785c3.681 7.422 12.679 10.454 20.102 6.774 7.422-3.681 10.455-12.681 6.774-20.103-27.194-54.837-24.443-49.309-24.838-50.054-2.819-5.326-8.619-8.542-14.796-7.902-.042.004-.085.013-.128.018-1.227.138 2.05-.505-54.764 11.451-8.107 1.706-13.295 9.661-11.59 17.768 1.487 7.065 7.72 11.914 14.663 11.914 2.088 0 .743.173 27.124-5.379-19.67 38.61-45.271 73.796-76.36 104.887-38.103 38.104-82.373 67.977-131.58 88.789-7.63 3.228-11.199 12.028-7.972 19.658 3.229 7.637 12.034 11.197 19.658 7.973 52.783-22.325 100.258-54.357 141.106-95.207 33.293-33.293 60.725-70.978 81.813-112.338z"/></g></svg>