<svg id="Layer_1" viewBox="0 0 128 128" xmlns="http://www.w3.org/2000/svg" data-name="Layer 1"><path d="m65.5296 17.58472-4.9707-1.7915-3.228-4.21185a1.99963 1.99963 0 0 0 -3.47217.54785l-1.7793 5.01459-4.18115 3.25342a1.99994 1.99994 0 0 0 .5498 3.4599l4.9707 1.7915 3.228 4.21191a1.99963 1.99963 0 0 0 3.47217-.54785l1.7793-5.01465 4.18115-3.25336a2 2 0 0 0 -.5498-3.46z"/><path d="m70.65 30.723.988-2.782 2.321-1.807-2.761-.995-1.793-2.339-.987 2.783-2.321 1.806 2.761.995z"/><path d="m25.19708 34.88a1.99978 1.99978 0 0 0 3.47217-.54736l1.7793-5.01459 4.18164-3.25391a2.00056 2.00056 0 0 0 -.55078-3.46045l-4.97021-1.79047-3.228-4.2124a1.99963 1.99963 0 0 0 -3.47217.54785l-1.7793 5.01465-4.18115 3.25336a2 2 0 0 0 .5498 3.46l4.9707 1.7915z"/><path d="m14.368 31.585-.987 2.782-2.322 1.807 2.762.995 1.792 2.339.988-2.783 2.321-1.806-2.762-.995z"/><path d="m119.99982 72.00037h-5.07032a4.98076 4.98076 0 0 1 -3.88281-1.84961l-1.47754-1.82129a8.96325 8.96325 0 0 0 -6.98877-3.329h-12.93457a8.96155 8.96155 0 0 0 -6.98828 3.329l-1.478 1.82129a4.98148 4.98148 0 0 1 -3.88281 1.84961h-5.2969v-2a6.00655 6.00655 0 0 0 -6-5.99994h-6a6.00655 6.00655 0 0 0 -6 5.99994v2a8.00915 8.00915 0 0 0 -8 7.99994v39.99976a8.00915 8.00915 0 0 0 8 7.99994h66a8.00915 8.00915 0 0 0 8-7.99994v-39.99976a8.00915 8.00915 0 0 0 -8-7.99994zm-62-2a2.002 2.002 0 0 1 2-2h6a2.002 2.002 0 0 1 2 2v2h-10zm66 25.99982h-29.22516a20.7948 20.7948 0 0 1 .98553 4h28.23962v13.99988h-18.07714a7.95357 7.95357 0 0 0 -4.6499 1.49023l-11.91394 8.5097h-35.359a4.00457 4.00457 0 0 1 -4-3.99994v-19.99988h4.23962a20.7948 20.7948 0 0 1 .98553-4h-5.22516v-15.99987a4.00453 4.00453 0 0 1 4-3.99994h23.29687a8.96287 8.96287 0 0 0 6.98828-3.3291l1.47852-1.82127a4.97906 4.97906 0 0 1 3.88232-1.84961h12.93457a4.98076 4.98076 0 0 1 3.88282 1.84961l1.47754 1.82129a8.96312 8.96312 0 0 0 6.98877 3.3291h5.07031a4.00453 4.00453 0 0 1 4 3.99994z"/><rect height="12" rx="4" width="12" x="108" y="80"/><path d="m101.99982 84.00031h-2a2 2 0 1 0 0 3.99994h2a2 2 0 1 0 0-3.99994z"/><circle cx="56" cy="82" r="2"/><path d="m50.09015 68.65515a9.98534 9.98534 0 0 1 3.22919-6.08447 6.023 6.023 0 0 0 -1.7107-2.34468 13.0752 13.0752 0 0 0 3.90236-8.71849l2.76666.38654a1.99792 1.99792 0 0 0 1.73-.60693l7.76611-8.21185a1.891 1.891 0 0 1 2.52734-.207 1.96285 1.96285 0 0 1 .34229 2.76807l-11.376 14.39814c.24249-.0177.48547-.03406.73242-.03406h4.39218l9.39-11.88464a5.9246 5.9246 0 0 0 -8.91455-7.78906l-7.05713 7.4624-4.72168-.6626s-1.772-11.27557-1.77295-11.28168a7.97157 7.97157 0 1 0 -15.74512 2.50342l1.77344 11.29285-4.29346 2.1001-8.99707-4.89838a5.93534 5.93534 0 0 0 -6.08148 10.17768l15.05809 10.03412 1.57782 10.03668-20.62042 3.29126-9.96228-63.38672a2.00852 2.00852 0 0 1 1.64844-2.30322l66.83007-10.66687a1.94591 1.94591 0 0 1 1.46.351 2.0025 2.0025 0 0 1 .80322 1.31885l8.92114 56.762a12.90037 12.90037 0 0 1 3.84967-1.26715l-8.81967-56.11594a5.98364 5.98364 0 0 0 -6.84473-4.999l-66.83056 10.66697a6.0147 6.0147 0 0 0 -4.96879 6.87494l10.27372 65.36749.00024.00415.0011.00427.9325 5.93317a5.99021 5.99021 0 0 0 5.895 5.07471 6.06761 6.06761 0 0 0 .94971-.07568l23.87354-3.81049.00153-10.153a11.892 11.892 0 0 1 .7774-4.17487l-4.22107.67365-1.71267-10.89448a2.00006 2.00006 0 0 0 -.8667-1.354l-15.78854-10.52094a1.92945 1.92945 0 0 1 -.82812-1.25244 1.94964 1.94964 0 0 1 .312-1.48633 1.89418 1.89418 0 0 1 2.46777-.59668l9.90382 5.39204a2.00159 2.00159 0 0 0 1.83545.04l2.5127-1.22919a12.98237 12.98237 0 0 0 6.3587 7.06567 6.01431 6.01431 0 0 0 1.54608 8.075 5.93827 5.93827 0 0 0 2.17712.97455 11.92813 11.92813 0 0 1 3.61487-2.01888zm-10.13062-16.00128a3.98441 3.98441 0 0 0 1.30547-2.25757 7.83229 7.83229 0 0 0 3.09619.66083 8.02848 8.02848 0 0 0 1.26514-.10059h.00049a7.89225 7.89225 0 0 0 3.97516-1.8783 3.96934 3.96934 0 0 0 1.92267 1.72424 8.58857 8.58857 0 0 1 -4.68982 7.905 8.52855 8.52855 0 0 1 -6.8753-6.05361z"/><path d="m74.99982 86.00024a16.99991 16.99991 0 1 0 17 16.99994 17.019 17.019 0 0 0 -17-16.99994zm.00012 21.99976a5 5 0 1 1 5-5 5.00549 5.00549 0 0 1 -5 5z"/></svg>