<svg xmlns="http://www.w3.org/2000/svg" width="128" height="128" viewBox="0 0 128 128" id="catering">
  <path fill="#ebb717" d="M55.135 64.8a.5.5 0 01-.5-.5v-4.91a.5.5 0 011 0V64.3A.5.5 0 0155.135 64.8zM66.761 64.8a.5.5 0 01-.5-.5v-4.91a.5.5 0 111 0V64.3A.5.5 0 0166.761 64.8z"></path>
  <rect width="6.04" height="17.97" x="16.75" y="102.725" fill="#f2ad6d"></rect>
  <rect width="6.04" height="17.97" x="105.21" y="102.725" fill="#f2ad6d"></rect>
  <path fill="#eb9d54" d="M111.25 119.575v1.12h-6.04v-10.45c.5-.2.86-.32.86-.32S105.42 118.885 111.25 119.575zM22.79 119.575v1.12H16.75v-10.45c.5-.2 1.333-.5 1.333-.5S16.96 118.885 22.79 119.575z"></path>
  <path fill="#f2ad6d" d="M110.723,70.471c-1.209-.13-1.084-1.322-1.084-2.63V11.305H17.855V67.841c0,1.308.125,2.5-1.084,2.63a2.4,2.4,0,0,1-2.564-2.487V7.305h99.08V67.984A2.4,2.4,0,0,1,110.723,70.471Z"></path>
  <path fill="#f4f8fc" d="M57.85,15.985s-2.07,5.13-3.82,4.85c-1.67-.27-.17-2.75-.05-2.96-.15.04-3.76,1.1-4.92.04a1.056,1.056,0,0,1-.34-.66c-.28-2.12,2.63-3.49,2.63-3.49s-3.96-1.6-2.17-3.53,7.07,1.51,7.07,1.51l1.04,2.75Z"></path>
  <path fill="#e6e9ed" d="M57.29,14.5c-4.43-.36-6.89,1.49-8.23,3.42a1.056,1.056,0,0,1-.34-.66c-.28-2.12,2.63-3.49,2.63-3.49s-3.96-1.6-2.17-3.53,7.07,1.51,7.07,1.51Z"></path>
  <path fill="#f4f8fc" d="M75.1,14.915a2.954,2.954,0,0,1,1.06,2.58c-.38,2.06-5.11.4-5.29.34.11.21,1.48,2.77-.21,2.95-1.24.13-2.51-2.46-3.14-3.98-.26-.62-.41-1.06-.41-1.06l1.82-4.15s5.44-3.16,7.13-1.14-2.35,3.42-2.35,3.42A7.118,7.118,0,0,1,75.1,14.915Z"></path>
  <path fill="#e6e9ed" d="M73.71,13.875a7.118,7.118,0,0,1,1.39,1.04,16.855,16.855,0,0,0-7.58,1.89c-.26-.62-.41-1.06-.41-1.06l1.82-4.15s5.44-3.16,7.13-1.14S73.71,13.875,73.71,13.875Z"></path>
  <path fill="#e27b84" d="M62.34,22.135l-.01-.01c-4.27-3.39-10.52-5.47-8.63-11.48,1.08-3,4.62-3.34,6.91-1.44a5.539,5.539,0,0,1,1.73,2.61c1.41-4.45,7.2-5.16,8.64-1.17C72.87,16.655,66.61,18.735,62.34,22.135Z"></path>
  <rect width="26.76" height="3.44" x="22.01" y="60.855" fill="#b6b7ba"></rect>
  <path fill="#b6b7ba" d="M35.394,44.52h0a1.567,1.567,0,0,1,1.567,1.567v2.237a0,0,0,0,1,0,0H33.827a0,0,0,0,1,0,0V46.087a1.567,1.567,0,0,1,1.567-1.567Z"></path>
  <path fill="#e6e9ed" d="M46.24,57.9v2.952H24.55V57.9a11.129,11.129,0,0,1,10.84-11.4,10.4,10.4,0,0,1,4.85,1.2,10.775,10.775,0,0,1,2.82,2.143A11.608,11.608,0,0,1,46.24,57.9Z"></path>
  <path fill="#dde0e3" d="M40.24,47.7c-10.22.724-11.64,10-11.83,13.152H24.55V57.9a11.129,11.129,0,0,1,10.84-11.4A10.4,10.4,0,0,1,40.24,47.7Z"></path>
  <polygon fill="#a0a1a3" points="28.41 60.855 28.4 64.295 22.01 64.295 22.01 60.855 28.41 60.855"></polygon>
  <rect width="30.54" height="26.98" x="76" y="37.315" fill="#bed1f0"></rect>
  <path fill="#adc6f0" d="M94.7,37.315c-9.66,6.05-11.06,20.03-11.14,26.98H76V37.315Z"></path>
  <rect width="30.54" height="1" x="76" y="46.505" fill="#97b9f0"></rect>
  <rect width="30.54" height="1" x="76" y="54.105" fill="#97b9f0"></rect>
  <path fill="#ffe07d" d="M59.72,51.085v3.72a4.58,4.58,0,0,1-9.16,0v-3.72Z"></path>
  <path fill="#ebc961" d="M57.22,58.885a4.529,4.529,0,0,1-2.08.5,4.579,4.579,0,0,1-4.58-4.58v-3.72h2.89C53.56,53.735,54.26,57.525,57.22,58.885Z"></path>
  <path fill="#ffe07d" d="M71.34,51.085v3.72a4.574,4.574,0,0,1-2.55,4.1,4.465,4.465,0,0,1-2.03.48,4.579,4.579,0,0,1-4.58-4.58v-3.72Z"></path>
  <circle cx="46.791" cy="41.332" r="2.732" fill="#ffe07d"></circle>
  <circle cx="35.394" cy="21.846" r="1.456" fill="#ffe07d"></circle>
  <circle cx="46.028" cy="30.243" r="1.456" fill="#ffe07d"></circle>
  <circle cx="26.984" cy="30.243" r="1.467" fill="#ffe07d"></circle>
  <circle cx="94.323" cy="27.521" r="3.054" fill="#ffe07d"></circle>
  <circle cx="65.053" cy="28.375" r="1.908" fill="#ffe07d"></circle>
  <circle cx="82.414" cy="24.467" r="1.266" fill="#ffe07d"></circle>
  <circle cx="97.698" cy="17.412" r="1.266" fill="#ffe07d"></circle>
  <circle cx="65.053" cy="39.906" r="1.306" fill="#ffe07d"></circle>
  <g>
    <path fill="#e27b84" d="M118.91,109.265l-5.19,3.54a6.594,6.594,0,0,1-7.22.15l-4.11-2.57a3.13,3.13,0,0,0-1.33-.47,3.4,3.4,0,0,0-2.22.53l-3.57,2.39a6.593,6.593,0,0,1-7.22.09l-3.97-2.53a3.245,3.245,0,0,0-1.32-.48,3.053,3.053,0,0,0-1,.02,3.287,3.287,0,0,0-1.24.49l-3.7,2.44a6.573,6.573,0,0,1-7.22.03l-3.83-2.48a3.421,3.421,0,0,0-1.27-.49,3.352,3.352,0,0,0-1,0,3.285,3.285,0,0,0-1.29.49l-3.83,2.48a6.573,6.573,0,0,1-7.22-.03l-3.7-2.44a3.377,3.377,0,0,0-1.27-.5,3.721,3.721,0,0,0-1-.01,3.427,3.427,0,0,0-1.29.48l-3.96,2.53a6.593,6.593,0,0,1-7.22-.09l-3.57-2.39a3.037,3.037,0,0,0-1.24-.5,3.248,3.248,0,0,0-2.32.44l-4.09,2.57a6.658,6.658,0,0,1-7.23-.15l-5.18-3.54L12.04,64.3H115.96Z"></path>
    <path fill="#d66671" d="M29.85 78.835l-1.94 31.11a3.347 3.347 0 00-1-.03l1.94-31.15a.5.5 0 01.53-.46A.49.49 0 0129.85 78.835zM47.17 78.655l-.98 31.27a3.721 3.721 0 00-1-.01l.98-31.29a.487.487 0 01.51-.48A.5.5 0 0147.17 78.655zM64.5 78.685v31.24a3.352 3.352 0 00-1 0V78.685a.5.5 0 011 0zM82.76 109.915a3.053 3.053 0 00-1 .02l-.97-31.24a.5.5 0 011-.03zM101.06 109.915a3.058 3.058 0 00-1 .04L98.13 79a.5.5 0 11.99-.06z"></path>
    <path fill="#d66671" d="M66.76,64.3c-16.05,1.13-31.96,3.03-39.78,6.19-14.32,5.77-11.21,31.15-8.76,43.46a6.526,6.526,0,0,1-3.95-1.14l-5.18-3.54L12.04,64.3Z"></path>
  </g>
  <path fill="#ebc961" d="M68.79,58.905a4.465,4.465,0,0,1-2.03.48,4.579,4.579,0,0,1-4.58-4.58v-3.72h3.71C65.98,53.255,66.48,57.005,68.79,58.905Z"></path>
  <path fill="#78a6f0" d="M76 54.105h8.61c-.07.34-.13.67-.19 1H76zM87.03 46.505c-.15.33-.3.67-.44 1H76v-1z"></path>
  <path fill="#d95f69" d="M62.33,22.125c-4.27-3.39-10.52-5.47-8.63-11.48,1.08-3,4.62-3.34,6.91-1.44C55.07,13.475,62.01,21.755,62.33,22.125Z"></path>
</svg>
