<svg width="258" height="258" viewBox="0 0 258 258" fill="none" xmlns="http://www.w3.org/2000/svg">
<path d="M109.331 48.7418C109.782 50.4874 110.958 52.8759 113.924 54.8804C115.425 60.6491 120.366 69.5612 130.601 69.5612H131.326C141.665 69.5612 146.739 60.6491 148.307 54.8955C151.294 52.8915 152.47 50.4879 152.921 48.7423C153.787 45.4216 152.692 42.441 151.997 41.0139L151.982 38.3956C152.01 37.6464 152.007 36.8963 151.975 36.1472C152.344 25.0537 143.418 20.7564 143.092 20.6088C131.03 14.6551 122.251 19.9355 118.42 24.447C116.845 24.608 115.356 25.2394 114.145 26.2591C111.402 28.5518 110.1 32.6415 110.263 38.2994V41.021C109.567 42.448 108.473 45.4211 109.331 48.7418ZM115.854 43.3949C116.157 42.9142 116.313 42.3594 116.32 41.7899V38.2178C116.172 33.1444 117.43 31.4508 117.977 30.955C118.576 30.4223 119.308 30.4521 119.293 30.4521H119.301C120.514 30.7181 121.749 30.186 122.444 29.1651C123.066 28.2404 128.842 20.3639 140.475 26.0661C140.534 26.0958 146.199 28.8249 145.918 36.0353C145.911 36.119 145.911 36.2031 145.918 36.2868C145.943 36.9644 145.946 37.6427 145.926 38.3206L145.94 41.7965C145.952 42.3495 146.108 42.8898 146.391 43.3647C146.406 43.3868 147.56 45.3541 147.049 47.2473C146.731 48.4158 145.778 49.4438 144.195 50.309C143.808 50.5225 143.471 50.8176 143.21 51.1739C142.948 51.5302 142.767 51.9392 142.679 52.3725C142.59 52.831 140.327 63.5033 131.193 63.5033C131.119 63.5033 131.038 63.5033 130.964 63.4957C130.89 63.5033 130.809 63.5033 130.734 63.5033C121.771 63.5033 119.663 52.8683 119.581 52.4168C119.498 51.9753 119.318 51.5576 119.054 51.1934C118.791 50.8291 118.451 50.5272 118.058 50.309C116.483 49.4438 115.522 48.4158 115.204 47.2473C114.693 45.3621 115.854 43.3949 115.854 43.3949ZM231.546 194.254C226.584 191.473 221.377 189.455 216.075 188.249C215.165 188.034 214.233 188.256 213.508 188.833C213.153 189.117 212.866 189.477 212.669 189.887C212.472 190.296 212.37 190.745 212.369 191.2C212.369 195.741 210.321 199.949 206.741 202.752L204.517 204.49L202.297 202.752C198.717 199.948 196.669 195.74 196.669 191.2C196.668 190.745 196.566 190.296 196.368 189.887C196.171 189.477 195.885 189.117 195.53 188.833C194.805 188.256 193.866 188.034 192.963 188.249C187.661 189.454 182.454 191.473 177.484 194.254C171.234 197.767 167.344 204.386 167.344 211.531V223.808H90.6497V211.531C90.6497 204.386 86.7671 197.767 80.5101 194.254C75.5476 191.473 70.3408 189.455 65.0382 188.249C64.5954 188.144 64.1345 188.142 63.6909 188.244C63.2474 188.345 62.8329 188.546 62.4793 188.833C62.1221 189.115 61.8334 189.475 61.6349 189.885C61.4363 190.295 61.3331 190.744 61.333 191.2C61.333 195.741 59.2846 199.949 55.7048 202.752L53.4786 204.491L51.2523 202.752C47.6726 199.948 45.6242 195.74 45.6242 191.2C45.624 190.744 45.5208 190.295 45.3223 189.885C45.1237 189.475 44.835 189.115 44.4778 188.833C44.1242 188.546 43.7098 188.345 43.2662 188.244C42.8226 188.142 42.3617 188.144 41.919 188.249C36.6164 189.454 31.4095 191.473 26.4395 194.254C20.19 197.767 16.3074 204.386 16.3074 211.531V237.017C16.3086 237.821 16.6285 238.591 17.1969 239.16C17.7654 239.728 18.536 240.048 19.3399 240.049H87.6182C88.4221 240.048 89.1928 239.728 89.7612 239.16C90.3296 238.591 90.6495 237.821 90.6507 237.017V229.872H167.345V237.017C167.346 237.821 167.666 238.591 168.235 239.16C168.803 239.728 169.574 240.048 170.378 240.049H238.663C239.467 240.048 240.238 239.728 240.806 239.16C241.375 238.591 241.694 237.821 241.696 237.017V211.531C241.694 204.387 237.803 197.768 231.546 194.254ZM84.5847 233.985H22.3709V211.531C22.3709 206.576 25.0628 201.976 29.4044 199.535C32.8063 197.635 36.3271 196.126 39.9139 195.038C40.831 199.957 43.4937 204.372 47.5244 207.53L51.6141 210.725C51.6232 210.732 51.6323 210.737 51.6413 210.743C51.952 210.981 52.3064 211.156 52.6844 211.258L52.699 211.262C52.9028 211.315 53.1115 211.347 53.3219 211.358C53.463 211.365 53.6043 211.363 53.7451 211.351C53.9175 211.336 54.0882 211.306 54.2556 211.262L54.2798 211.256C54.5651 211.178 54.8374 211.059 55.0875 210.901L55.0901 210.9C55.1688 210.85 55.2451 210.797 55.3188 210.74C55.3264 210.734 55.3345 210.73 55.342 210.724L59.4317 207.529C63.4625 204.371 66.1251 199.956 67.0422 195.038C70.629 196.125 74.1498 197.634 77.5441 199.535C81.8928 201.975 84.5847 206.575 84.5847 211.531V233.985ZM235.629 233.985H173.408V211.531C173.408 206.576 176.108 201.976 180.449 199.535C183.851 197.635 187.379 196.126 190.958 195.038C191.875 199.949 194.538 204.372 198.569 207.53L202.651 210.725L202.678 210.743C202.743 210.793 202.809 210.839 202.876 210.883L202.934 210.919C202.999 210.959 203.065 210.997 203.133 211.031L203.198 211.064C203.376 211.149 203.561 211.218 203.752 211.267C203.821 211.285 203.891 211.3 203.961 211.313L204.041 211.327C204.449 211.391 204.865 211.371 205.265 211.268C205.369 211.241 205.471 211.21 205.572 211.173L205.594 211.165C205.868 211.061 206.126 210.918 206.359 210.739L206.379 210.725L210.469 207.53C214.499 204.372 217.162 199.949 218.079 195.038C221.659 196.126 225.187 197.635 228.581 199.535C232.93 201.976 235.629 206.576 235.629 211.531V233.985ZM31.6821 166.816C32.1331 168.554 33.3092 170.95 36.2747 172.955C37.7758 178.723 42.7166 187.636 52.9525 187.636H53.6771C64.0163 187.636 69.0901 178.723 70.6577 172.97C73.6454 170.958 74.8215 168.562 75.2725 166.817C76.1377 163.496 75.0432 160.523 74.3478 159.095L74.3332 156.47C74.3607 155.723 74.3581 154.976 74.3257 154.229C74.6955 143.128 65.7688 138.831 65.4433 138.675C62.8699 137.41 60.4471 136.657 58.1881 136.295V106.911C58.1881 98.3685 65.14 91.4166 73.6822 91.4166H94.0712C93.997 92.0946 93.958 92.776 93.9543 93.458V118.936C93.9555 119.74 94.2754 120.511 94.8439 121.079C95.4123 121.648 96.1829 121.968 96.9868 121.969H165.265C166.069 121.968 166.84 121.648 167.408 121.079C167.977 120.511 168.296 119.74 168.298 118.936V93.458C168.298 92.7711 168.251 92.0914 168.181 91.4166H187.675C196.217 91.4166 203.169 98.3685 203.169 106.911V136.242C197.93 137.03 194.039 139.907 191.816 142.529C190.596 142.655 189.021 143.091 187.534 144.333C184.79 146.626 183.489 150.716 183.659 156.366L183.651 159.095C182.956 160.523 181.861 163.496 182.719 166.809C183.178 168.555 184.347 170.951 187.32 172.955C188.821 178.724 193.762 187.636 203.997 187.636H204.721C215.061 187.636 220.127 178.724 221.695 172.97C224.683 170.966 225.859 168.563 226.317 166.81C227.176 163.496 226.081 160.523 225.386 159.096L225.371 156.47C225.401 155.664 225.401 154.91 225.364 154.214C225.726 143.121 216.807 138.831 216.481 138.676C213.909 137.412 211.488 136.66 209.233 136.297V106.911C209.233 95.0261 199.56 85.3526 187.675 85.3526H166.545C164.804 81.4763 161.864 78.2616 158.158 76.1821C153.196 73.401 147.996 71.3823 142.686 70.1694C142.243 70.0649 141.782 70.0632 141.339 70.1645C140.895 70.2658 140.481 70.4675 140.127 70.754C139.769 71.0359 139.48 71.3955 139.282 71.8055C139.083 72.2155 138.98 72.6653 138.981 73.1208C138.981 77.6691 136.932 81.8777 133.353 84.6804L131.126 86.4194L128.9 84.6804C125.328 81.8848 123.28 77.6691 123.28 73.1208C123.28 72.6653 123.177 72.2155 122.979 71.8055C122.78 71.3955 122.491 71.0359 122.133 70.754C121.779 70.4692 121.364 70.2686 120.921 70.1674C120.478 70.0661 120.017 70.0668 119.574 70.1694C114.257 71.3823 109.05 73.4015 104.095 76.1821C100.324 78.2949 97.4242 81.5431 95.7079 85.3526H73.6832C61.7981 85.3526 52.1246 95.0266 52.1246 106.911V136.243C46.8895 137.031 42.9953 139.902 40.7796 142.53C39.5592 142.656 37.984 143.092 36.4974 144.334C33.7537 146.627 32.4521 150.71 32.6148 156.367L32.6073 159.096C31.9114 160.522 30.8169 163.495 31.6821 166.816ZM219.307 154.117C219.299 154.213 219.299 154.309 219.307 154.405C219.336 154.982 219.336 155.618 219.314 156.395L219.329 159.878C219.341 160.434 219.496 160.976 219.78 161.454C219.794 161.468 220.956 163.435 220.445 165.322C220.127 166.49 219.166 167.518 217.583 168.383C217.196 168.597 216.86 168.892 216.598 169.248C216.336 169.604 216.155 170.013 216.067 170.447C215.978 170.905 213.715 181.578 204.588 181.578C204.514 181.578 204.433 181.578 204.359 181.57C204.285 181.578 204.204 181.578 204.13 181.578C195.166 181.578 193.059 170.942 192.977 170.491C192.893 170.05 192.713 169.632 192.45 169.268C192.187 168.903 191.847 168.602 191.454 168.383C189.871 167.518 188.909 166.49 188.591 165.322C188.081 163.435 189.242 161.476 189.242 161.476C189.538 160.995 189.701 160.44 189.709 159.878L189.716 156.292C189.568 151.218 190.818 149.525 191.365 149.036C191.711 148.719 192.161 148.54 192.63 148.533H192.689C193.895 148.792 195.145 148.267 195.833 147.246C196.294 146.561 199.576 142.018 205.997 142.066C206.065 142.071 206.133 142.077 206.201 142.077C206.24 142.077 206.277 142.072 206.315 142.071C208.475 142.138 210.979 142.721 213.841 144.133C214.07 144.244 219.588 147.025 219.307 154.117ZM107.053 81.461C110.455 79.5602 113.976 78.0515 117.57 76.9641C118.487 81.8822 121.142 86.2975 125.173 89.4554L129.263 92.6502C129.283 92.6658 129.304 92.6789 129.325 92.6941C129.484 92.8128 129.655 92.915 129.835 92.9989C129.926 93.0412 130.019 93.0794 130.114 93.1133C130.207 93.1468 130.303 93.1754 130.4 93.199C130.59 93.2452 130.785 93.2735 130.98 93.2836C131.078 93.2876 131.175 93.2876 131.273 93.2836C131.37 93.2783 131.467 93.2689 131.564 93.2554C131.661 93.241 131.758 93.2222 131.853 93.199C132.047 93.1512 132.236 93.0842 132.418 92.9989C132.508 92.9567 132.597 92.9096 132.683 92.8578C132.767 92.8071 132.849 92.7524 132.928 92.6941C132.949 92.6789 132.97 92.6658 132.991 92.6502L137.081 89.4554C141.111 86.2975 143.774 81.8747 144.691 76.9641C148.278 78.0515 151.799 79.5602 155.201 81.461C158.172 83.1289 160.419 85.8387 161.509 89.0669C161.542 89.21 161.585 89.3491 161.638 89.4837C162.031 90.7714 162.232 92.1101 162.234 93.4565V115.903H100.019V93.4565C100.019 88.4945 102.712 83.8943 107.053 81.461ZM38.1981 161.476C38.5015 160.996 38.6567 160.441 38.6642 159.879L38.6718 156.292C38.5241 151.219 39.7814 149.525 40.3286 149.037C40.6737 148.719 41.1242 148.54 41.5934 148.534H41.6524C42.8653 148.793 44.1004 148.268 44.7958 147.247C45.4171 146.33 51.208 138.416 62.8044 144.133C63.0336 144.244 68.5509 147.025 68.2697 154.118C68.2622 154.201 68.2622 154.286 68.2697 154.369C68.2919 154.961 68.2995 155.604 68.2773 156.395L68.2919 159.879C68.3038 160.432 68.4592 160.972 68.7429 161.447C68.7575 161.469 69.9115 163.436 69.401 165.323C69.0906 166.491 68.1291 167.519 66.5464 168.384C66.1591 168.598 65.8229 168.893 65.5611 169.249C65.2993 169.605 65.1181 170.014 65.0301 170.448C64.9414 170.906 62.6784 181.579 53.5446 181.579C53.4705 181.579 53.3894 181.579 53.3153 181.571C53.2412 181.579 53.1601 181.579 53.086 181.579C44.1225 181.579 42.0147 170.943 41.9331 170.492C41.8492 170.051 41.6692 169.633 41.406 169.269C41.1428 168.904 40.8026 168.603 40.4098 168.384C38.827 167.519 37.8655 166.491 37.5551 165.323C37.0442 163.436 38.1981 161.476 38.1981 161.476Z" fill="black"/>
<path d="M171.907 182C172.619 181.872 173.261 181.492 173.717 180.93C174.173 180.368 174.412 179.661 174.391 178.938L174.007 165.234C173.989 164.511 173.712 163.818 173.226 163.282C172.74 162.745 172.077 162.402 171.359 162.313L160.229 160.922C159.968 160.257 159.684 159.601 159.378 158.955L165.945 149.466C166.356 148.87 166.541 148.146 166.465 147.426C166.389 146.706 166.058 146.037 165.531 145.539L155.569 136.117C154.497 135.104 152.818 135.008 151.634 135.932L142.782 142.818C142.126 142.529 141.46 142.265 140.785 142.026L138.721 130.674C138.595 129.975 138.227 129.343 137.682 128.888C137.138 128.433 136.451 128.183 135.741 128.182C135.711 128.182 135.682 128.182 135.66 128.189L121.948 128.574C121.223 128.591 120.529 128.869 119.992 129.356C119.456 129.844 119.113 130.509 119.027 131.229L117.643 142.352C116.977 142.617 116.319 142.901 115.669 143.203L106.18 136.635C105.584 136.222 104.86 136.037 104.139 136.113C103.419 136.189 102.749 136.521 102.253 137.049L92.8306 147.012C91.8026 148.099 91.7286 149.77 92.6457 150.954L99.531 159.799C99.2444 160.458 98.9806 161.126 98.7399 161.803L87.395 163.867C86.6828 163.995 86.0404 164.375 85.5844 164.937C85.1284 165.498 84.8892 166.205 84.9102 166.929L85.2947 180.633C85.3128 181.356 85.59 182.049 86.0759 182.585C86.5618 183.121 87.2241 183.465 87.9422 183.554L99.073 184.944C99.3337 185.61 99.6174 186.266 99.9236 186.911L93.3562 196.4C92.9451 196.997 92.7609 197.72 92.8369 198.441C92.9128 199.161 93.244 199.83 93.7704 200.327L103.733 209.749C104.805 210.77 106.484 210.859 107.667 209.934L116.52 203.049C117.175 203.338 117.841 203.602 118.517 203.84L120.58 215.193C120.707 215.891 121.075 216.523 121.619 216.979C122.164 217.434 122.851 217.684 123.561 217.685C123.591 217.685 123.62 217.685 123.642 217.677L137.354 217.293C138.079 217.276 138.773 216.998 139.309 216.51C139.846 216.023 140.189 215.358 140.275 214.638L141.658 203.507C142.323 203.249 142.98 202.968 143.625 202.664L153.121 209.231C154.349 210.09 156.013 209.912 157.048 208.817L166.47 198.848C167.498 197.761 167.573 196.089 166.655 194.906L159.77 186.068C160.056 185.409 160.32 184.74 160.561 184.064L171.907 182ZM153.846 188.323L160.28 196.576L154.431 202.767L145.593 196.65C144.653 196.007 143.418 195.933 142.42 196.48C140.994 197.259 139.499 197.903 137.953 198.403C137.404 198.582 136.918 198.913 136.551 199.358C136.184 199.804 135.952 200.345 135.882 200.917L134.588 211.309L126.075 211.552L124.152 200.984C124.051 200.432 123.799 199.919 123.425 199.502C123.05 199.084 122.567 198.778 122.03 198.617C120.467 198.157 118.95 197.556 117.496 196.82C117.073 196.602 116.604 196.488 116.128 196.488C115.47 196.488 114.812 196.709 114.272 197.131L106.003 203.558L99.8203 197.708L105.929 188.878C106.249 188.418 106.434 187.878 106.464 187.319C106.494 186.76 106.368 186.204 106.099 185.712C105.326 184.275 104.68 182.773 104.169 181.223C103.991 180.678 103.661 180.195 103.218 179.831C102.775 179.467 102.238 179.237 101.669 179.167L91.2781 177.865L91.0342 169.36L101.596 167.437C102.147 167.336 102.66 167.084 103.078 166.71C103.496 166.335 103.802 165.852 103.962 165.315C104.42 163.753 105.024 162.238 105.767 160.789C106.028 160.274 106.138 159.695 106.083 159.12C106.028 158.546 105.811 157.998 105.456 157.542L99.0221 149.281L104.872 143.098L113.71 149.215C114.173 149.531 114.713 149.714 115.272 149.744C115.832 149.774 116.389 149.65 116.883 149.385C118.308 148.605 119.803 147.961 121.35 147.462C121.899 147.285 122.386 146.953 122.753 146.508C123.12 146.062 123.352 145.521 123.421 144.948L124.715 134.557L133.227 134.313L135.15 144.881C135.252 145.433 135.504 145.946 135.878 146.363C136.253 146.781 136.735 147.087 137.273 147.248C138.835 147.708 140.353 148.31 141.806 149.045C142.317 149.307 142.892 149.417 143.464 149.362C144.035 149.307 144.579 149.089 145.031 148.735L153.299 142.308L159.482 148.158L153.373 156.988C153.054 157.448 152.869 157.988 152.839 158.547C152.809 159.106 152.935 159.663 153.203 160.154C153.977 161.591 154.623 163.093 155.134 164.643C155.312 165.188 155.642 165.671 156.084 166.035C156.527 166.399 157.064 166.629 157.633 166.699L168.025 168.001L168.268 176.506L157.707 178.429C157.158 178.529 156.647 178.778 156.23 179.15C155.814 179.522 155.509 180.002 155.348 180.536C154.875 182.112 154.275 183.636 153.536 185.078C153.274 185.592 153.165 186.171 153.22 186.745C153.274 187.32 153.492 187.867 153.846 188.323Z" fill="#E65402"/>
<path d="M141.54 160.36C138.182 157.187 133.767 155.36 129.166 155.641C124.544 155.767 120.254 157.682 117.074 161.047C113.901 164.405 112.222 168.798 112.355 173.421C112.481 178.036 114.404 182.333 117.762 185.506C121.001 188.567 125.202 190.232 129.639 190.232C129.802 190.232 129.972 190.232 130.142 190.224C139.676 189.958 147.219 181.985 146.946 172.445C146.82 167.83 144.897 163.532 141.54 160.36ZM129.965 184.174C126.94 184.137 124.1 183.161 121.926 181.105C119.744 179.041 118.494 176.253 118.405 173.243C118.324 170.248 119.411 167.393 121.482 165.204C123.546 163.022 126.334 161.772 129.337 161.69H129.655C135.712 161.69 140.719 166.527 140.896 172.622C141.066 178.812 136.17 183.996 129.965 184.174Z" fill="#E65402"/>
</svg>
