<svg id="Layer_59" height="512" viewBox="0 0 488 517.2" width="512" xmlns="http://www.w3.org/2000/svg"><path d="m117.7 470h12v30.2h-12z" transform="matrix(.889 -.458 .458 .889 -208.523 110.607)"/><path d="m22.3 479.2h30.2v12h-30.2z" transform="matrix(.458 -.889 .889 .458 -411.005 296.072)"/><path d="m65.5 496h30.2v12h-30.2z" transform="matrix(.025 -1 1 .025 -423.265 569.816)"/><path d="m371.7 16.9h12v30.2h-12z" transform="matrix(.889 -.458 .458 .889 27.327 176.598)"/><path d="m449 26.1h30.2v12h-30.2z" transform="matrix(.458 -.889 .889 .458 222.916 429.87)"/><path d="m405.8 9.3h30.2v12h-30.2z" transform="matrix(.025 -1 1 .025 394.958 435.664)"/><path d="m450.3 432.9c.8 0 1.6-.2 2.3-.7l-.4-30.2-134.7.1.4 31.1c.7.5 1.5.7 2.4.7z"/><path d="m305.3 446.4 1 66.1h160.3l-1-67.4z"/><path d="m464.2 282.6-17.6-54.9c-1-1.7-2.9-2.7-4.9-2.7-4.5 0-8.8 2.3-11.4 6-3.6 6.3-4.9 13.7-3.8 20.9 1.5 9.2 5.3 32.6 7.1 43.4.6 3.4.9 5.5.9 5.6l.8 4.7-4.4 1.8c-3.4 1.6-6.5 3.6-9.4 5.9-4 3.2-7.3 7-9.9 11.4-2.5 4.4-4.9 9-7.1 13.7l-10.9-5.1c1.7-3.6 3.5-7.2 5.4-10.6l-86.6 36.2c.6 11.3 5.1 22 12.9 30.2.3.3.6.7 1 1l119.3-.1c.4-.6.8-1.3 1.2-1.9 3.5-5.4 6.5-10.3 6.5-10.4l.1-.2c1-1.6 1.8-3.3 2.3-5.1l16.9-62.8-5-15.7z"/><path d="m487 259.2-78-186.6-73.2 30.6c-4.6 1.9-10-.3-11.9-4.9-.6-1.5-.8-3.2-.6-4.8.9-6.1 2.4-21.2-2.2-30-8.3-15.5-27.6-21.3-43.1-13s-21.3 27.6-13 43.1c4 7.4 10.7 12.9 18.7 15.4 3.4 1 5.7 4 5.9 7.5s-1.9 6.8-5.1 8.2l-79.1 32.6c1.1 1.3 2 2.7 2.7 4.3 3.5 7.8 8.3 18.6 13.3 29.7 2.7 5.8 5.4 11.8 7.8 17.5 2.6 5.8 5 11.2 7.1 15.8 11.1-21.5 37.5-29.9 59-18.8 18.5 9.6 27.8 30.9 22 50.9v.1c0 .2-.1.4-.1.6-1.1 4.3-2.8 8.4-5.1 12.3-.4.7-.8 1.3-1.3 2-4 5.8-9.3 10.6-15.5 13.9-8.6 4.5-20 5.1-29.8 4.3l26.7 59.6c.7 1.5 1.1 3 1.4 4.5l6.9-2.9 11.9-5 103.1-43.1c2.1-1.6 4.3-3.1 6.6-4.4-1.7-10.1-5.8-35.1-7.3-44.8-1.5-10 .3-20.2 5.4-29l.1-.2c4.9-7.4 13.2-11.7 22-11.5 6.4.1 12.3 3.8 15.2 9.5l.2.5 17.6 54.9 4.9-2c6.5-2.8 9.5-10.3 6.8-16.8z"/><path d="m184.7 80.4-.9-68.5h-160.3l.9 69.8z"/><path d="m39.7 93.9c-.8 0-1.6.2-2.3.7l.4 30.2v1.2c.7.5 1.5.8 2.4.7l129.7-1 .1.2h.2c.8 0 1.6-.2 2.3-.7l-.5-31.6c-.7-.5-1.5-.8-2.4-.7z"/><path d="m251.6 288.1c-1.3-2.9-1-6.3.9-8.9 0-.1.1-.1.1-.2 1.9-2.6 5.2-4 8.4-3.6 6.1.7 21.2 1.9 29.9-3 7.1-4 12.4-10.6 14.7-18.4 3.4-14.5-3.8-29.4-17.3-35.9-15.8-7.6-34.8-.9-42.4 14.9-.7 1.4-1.3 2.9-1.7 4.4-1.4 4.4-6 6.9-10.5 5.5-2.4-.7-4.3-2.5-5.3-4.8-2.5-5.9-6.3-15.1-10.5-25.1 0 0 0-.1-.1-.1-7.2-16.1-15.6-34.8-20.8-46.6-.6-1.3-1.6-2.3-2.9-2.8-.6-.2-1.2-.4-1.9-.4s-1.5.2-2.1.5l-1.1.5-11.7 5.2-89.8 40.2c-5 7.7-11.7 14.1-19.7 18.6 1.7 10.1 5.8 35.1 7.3 44.8 1.6 10-.3 20.2-5.4 29l-.1.2c-4.7 7.1-12.6 11.4-21.1 11.6-.3 0-.6 0-1 0-6.4-.1-12.3-3.8-15.2-9.5l-.2-.5-19.4-60.7-5.3 2.4c-6.4 2.9-9.3 10.5-6.4 16.9l84 187.7 67.8-30.4c-8.3-6.4-17.4-15.2-20.7-25.1-7.7-22.9 4.6-47.8 27.5-55.5s47.8 4.6 55.5 27.5c2.7 8 3 16.6.9 24.8 17.1-7.7 44.9-20.1 61.4-27.5 3.7-1.7 5.4-6 3.7-9.7z"/><path d="m23.9 238.2 19.5 60.9c1 1.7 2.9 2.7 4.9 2.7 4.5 0 8.8-2.3 11.3-6 3.6-6.3 4.9-13.7 3.7-20.9-1.9-12.1-8-48.6-8-49l-.3-1.6-.5-3.1 4.4-1.8c.1 0 12.4-5.3 19.2-17.3.3-.6.6-1.1 1-1.7l16.2-7.2 80.2-35.9c-2.1-7.3-5.9-14-11.1-19.5l-121.5 1c-3.5 5.4-6.5 10.3-6.5 10.4l-.1.2c-1 1.6-1.8 3.3-2.3 5.1l-16.9 62.8 3.1 9.6z"/></svg>