<svg width="512" height="512" viewBox="0 0 512 512" fill="none" xmlns="http://www.w3.org/2000/svg">
<path d="M336 192V96C336 93.8783 335.157 91.8434 333.657 90.3431C332.157 88.8429 330.122 88 328 88H296V64C296 61.8783 295.157 59.8434 293.657 58.3431C292.157 56.8429 290.122 56 288 56H224C221.878 56 219.843 56.8429 218.343 58.3431C216.843 59.8434 216 61.8783 216 64V88H184C181.878 88 179.843 88.8429 178.343 90.3431C176.843 91.8434 176 93.8783 176 96V192C176 194.122 176.843 196.157 178.343 197.657C179.843 199.157 181.878 200 184 200H328C330.122 200 332.157 199.157 333.657 197.657C335.157 196.157 336 194.122 336 192ZM232 72H280V88H232V72ZM318.64 104C312.56 122 286.64 136 256 136C225.36 136 199.44 122 193.36 104H318.64ZM320 184H192V129.92C209.877 144.926 232.673 152.791 256 152C279.327 152.791 302.123 144.926 320 129.92V184Z" fill="#E65402"/>
<path d="M128 296C135.911 296 143.645 293.654 150.223 289.259C156.801 284.864 161.928 278.616 164.955 271.307C167.983 263.998 168.775 255.956 167.231 248.196C165.688 240.437 161.878 233.31 156.284 227.716C150.69 222.122 143.563 218.312 135.804 216.769C128.044 215.225 120.002 216.017 112.693 219.045C105.384 222.072 99.1365 227.199 94.7412 233.777C90.346 240.355 88 248.089 88 256C88 266.609 92.2143 276.783 99.7157 284.284C107.217 291.786 117.391 296 128 296ZM128 232C132.747 232 137.387 233.408 141.334 236.045C145.28 238.682 148.357 242.43 150.173 246.816C151.99 251.201 152.465 256.027 151.539 260.682C150.613 265.338 148.327 269.614 144.971 272.971C141.614 276.327 137.338 278.613 132.682 279.539C128.027 280.465 123.201 279.99 118.816 278.173C114.43 276.357 110.682 273.28 108.045 269.334C105.408 265.387 104 260.747 104 256C104 249.635 106.529 243.53 111.029 239.029C115.53 234.529 121.635 232 128 232Z" fill="black"/>
<path d="M456 376H424C419.814 376.018 415.657 376.693 411.68 378L369.28 320H400.8C400.283 322.636 400.016 325.314 400 328C399.826 337.527 403.06 346.804 409.118 354.159C415.176 361.514 423.66 366.465 433.044 368.121C442.428 369.776 452.095 368.027 460.304 363.189C468.513 358.35 474.725 350.74 477.822 341.728C480.919 332.717 480.697 322.896 477.196 314.033C473.695 305.171 467.145 297.849 458.726 293.387C450.307 288.924 440.571 287.614 431.271 289.691C421.972 291.769 413.719 297.098 408 304.72C405.364 304.212 402.684 303.971 400 304H368C364.812 304.021 361.639 304.451 358.56 305.28L342.56 283.28C341.807 282.25 340.819 281.415 339.678 280.844C338.537 280.273 337.276 279.984 336 280H264V264C268.797 263.709 273.577 263.175 278.32 262.4L275.52 246.4C262.657 248.641 249.503 248.641 236.64 246.4L233.92 262.4C238.583 263.174 243.282 263.708 248 264V280H176C174.738 279.997 173.493 280.292 172.366 280.862C171.24 281.432 170.265 282.261 169.52 283.28L153.52 305.28C150.415 304.445 147.215 304.014 144 304H112C109.45 303.997 106.905 304.238 104.4 304.72C98.8085 296.997 90.6422 291.525 81.373 289.291C72.1038 287.057 62.3415 288.208 53.8455 292.535C45.3495 296.863 38.6788 304.083 35.0356 312.894C31.3924 321.705 31.0164 331.528 33.9754 340.591C36.9344 349.655 43.0337 357.364 51.174 362.328C59.3143 367.293 68.9602 369.186 78.373 367.667C87.7859 366.148 96.3465 361.316 102.512 354.044C108.678 346.771 112.042 337.535 112 328C111.984 325.314 111.717 322.636 111.2 320H142.72L100.32 378C96.3433 376.693 92.186 376.018 88 376H56C45.3913 376 35.2172 380.214 27.7157 387.716C20.2143 395.217 16 405.391 16 416V464C16 466.122 16.8429 468.157 18.3431 469.657C19.8434 471.157 21.8783 472 24 472H32L17.52 491.28C16.7181 492.439 16.2366 493.789 16.1242 495.194C16.0119 496.599 16.2726 498.008 16.88 499.28C17.4995 500.659 18.4971 501.835 19.7573 502.67C21.0174 503.505 22.4885 503.966 24 504H488C489.477 503.996 490.925 503.582 492.181 502.805C493.438 502.029 494.455 500.919 495.12 499.6C495.727 498.328 495.988 496.919 495.876 495.514C495.763 494.109 495.282 492.759 494.48 491.6L480.4 472H488.4C490.522 472 492.557 471.157 494.057 469.657C495.557 468.157 496.4 466.122 496.4 464V416C496.4 410.713 495.353 405.479 493.317 400.6C491.282 395.72 488.3 391.293 484.543 387.573C480.786 383.854 476.329 380.916 471.43 378.929C466.531 376.943 461.286 375.947 456 376ZM440 304C444.747 304 449.387 305.408 453.334 308.045C457.28 310.682 460.357 314.43 462.173 318.816C463.99 323.201 464.465 328.027 463.539 332.682C462.613 337.338 460.327 341.614 456.971 344.971C453.614 348.327 449.338 350.613 444.682 351.539C440.027 352.465 435.201 351.99 430.816 350.173C426.43 348.357 422.682 345.28 420.045 341.334C417.408 337.387 416 332.747 416 328C416 321.635 418.529 315.53 423.029 311.029C427.53 306.529 433.635 304 440 304ZM72 352C67.2532 352 62.6131 350.592 58.6663 347.955C54.7195 345.318 51.6434 341.57 49.8269 337.184C48.0104 332.799 47.5351 327.973 48.4612 323.318C49.3872 318.662 51.673 314.386 55.0294 311.029C58.3859 307.673 62.6623 305.387 67.3178 304.461C71.9734 303.535 76.799 304.01 81.1844 305.827C85.5698 307.643 89.3181 310.72 91.9553 314.666C94.5924 318.613 96 323.253 96 328C96 334.365 93.4714 340.47 88.9706 344.971C84.4697 349.471 78.3652 352 72 352ZM32 416C32 409.635 34.5286 403.53 39.0294 399.029C43.5303 394.529 49.6348 392 56 392H88H89.92L43.36 456H32V416ZM40 488L180.08 296H332.08L472 488H40ZM480 456H468.64L422.08 392H424H456C462.365 392 468.47 394.529 472.971 399.029C477.471 403.53 480 409.635 480 416V456Z" fill="black"/>
<path d="M384 296C391.911 296 399.645 293.654 406.223 289.259C412.801 284.864 417.928 278.616 420.955 271.307C423.983 263.998 424.775 255.956 423.231 248.196C421.688 240.437 417.878 233.31 412.284 227.716C406.69 222.122 399.563 218.312 391.804 216.769C384.044 215.225 376.002 216.017 368.693 219.045C361.384 222.072 355.136 227.199 350.741 233.777C346.346 240.355 344 248.089 344 256C344 266.609 348.214 276.783 355.716 284.284C363.217 291.786 373.391 296 384 296ZM384 232C388.747 232 393.387 233.408 397.334 236.045C401.28 238.682 404.357 242.43 406.173 246.816C407.99 251.201 408.465 256.027 407.539 260.682C406.613 265.338 404.327 269.614 400.971 272.971C397.614 276.327 393.338 278.613 388.682 279.539C384.027 280.465 379.201 279.99 374.816 278.173C370.43 276.357 366.682 273.28 364.045 269.334C361.408 265.387 360 260.747 360 256C360 249.635 362.529 243.53 367.029 239.029C371.53 234.529 377.635 232 384 232Z" fill="black"/>
<path d="M160 424H112C110.523 424.004 109.075 424.418 107.819 425.195C106.562 425.971 105.545 427.081 104.88 428.4L88.88 460.4C88.2663 461.618 87.9741 462.972 88.0312 464.335C88.0883 465.697 88.4927 467.023 89.2061 468.185C89.9195 469.347 90.9181 470.308 92.1072 470.975C93.2963 471.643 94.6363 471.996 96 472H160C162.122 472 164.157 471.157 165.657 469.657C167.157 468.157 168 466.122 168 464V432C168 429.878 167.157 427.843 165.657 426.343C164.157 424.843 162.122 424 160 424ZM152 456H108.96L116.96 440H152V456Z" fill="black"/>
<path d="M224 328H176C174.523 328.004 173.075 328.418 171.819 329.195C170.562 329.971 169.545 331.081 168.88 332.4L152.88 364.4C152.266 365.618 151.974 366.972 152.031 368.335C152.088 369.697 152.493 371.023 153.206 372.185C153.919 373.347 154.918 374.308 156.107 374.975C157.296 375.643 158.636 375.996 160 376H224C226.122 376 228.157 375.157 229.657 373.657C231.157 372.157 232 370.122 232 368V336C232 333.878 231.157 331.843 229.657 330.343C228.157 328.843 226.122 328 224 328ZM216 360H172.96L180.96 344H216V360Z" fill="black"/>
<path d="M344 432V464C344 466.122 344.843 468.157 346.343 469.657C347.843 471.157 349.878 472 352 472H416C417.364 471.996 418.704 471.643 419.893 470.975C421.082 470.308 422.081 469.347 422.794 468.185C423.507 467.023 423.912 465.697 423.969 464.335C424.026 462.972 423.734 461.618 423.12 460.4L407.12 428.4C406.455 427.081 405.438 425.971 404.181 425.195C402.925 424.418 401.477 424.004 400 424H352C349.878 424 347.843 424.843 346.343 426.343C344.843 427.843 344 429.878 344 432ZM360 440H395.04L403.04 456H360V440Z" fill="black"/>
<path d="M280 336V368C280 370.122 280.843 372.157 282.343 373.657C283.843 375.157 285.878 376 288 376H352C353.364 375.996 354.704 375.643 355.893 374.975C357.082 374.308 358.081 373.347 358.794 372.185C359.507 371.023 359.912 369.697 359.969 368.335C360.026 366.972 359.734 365.618 359.12 364.4L343.12 332.4C342.455 331.081 341.438 329.971 340.181 329.195C338.925 328.418 337.477 328.004 336 328H288C285.878 328 283.843 328.843 282.343 330.343C280.843 331.843 280 333.878 280 336ZM296 344H331.04L339.04 360H296V344Z" fill="black"/>
<path d="M128 136C128.072 150.944 130.78 165.757 136 179.76L151.04 174.24C146.462 162.007 144.079 149.062 144 136H128Z" fill="#E65402"/>
<path d="M312 38.8L320 24.96C307.052 17.4967 292.888 12.3781 278.16 9.84L275.44 25.84C288.294 27.9766 300.67 32.3638 312 38.8Z" fill="#E65402"/>
<path d="M200 39.12C211.278 32.5515 223.628 28.0285 236.48 25.76L233.68 9.76001C218.987 12.4615 204.881 17.7141 192 25.28L200 39.12Z" fill="#E65402"/>
<path d="M353.76 53.36L341.52 64C349.963 73.971 356.597 85.3425 361.12 97.6L376 91.76C370.867 77.7683 363.342 64.775 353.76 53.36Z" fill="#E65402"/>
<path d="M384 136.4V135.52L368 136C368.033 149.069 365.758 162.042 361.28 174.32L376.32 179.76C381.397 165.867 383.997 151.191 384 136.4Z" fill="#E65402"/>
<path d="M200 233.12C188.718 226.541 178.673 218.04 170.32 208L158.08 218.4C167.639 229.821 179.118 239.486 192 246.96L200 233.12Z" fill="#E65402"/>
<path d="M354.08 218.24L341.84 208C333.394 217.965 323.301 226.407 312 232.96L320 246.8C332.971 239.387 344.513 229.715 354.08 218.24Z" fill="#E65402"/>
<path d="M157.76 53.92C148.305 65.4005 140.94 78.452 136 92.48L151.04 97.92C155.322 85.5888 161.739 74.1071 170 64L157.76 53.92Z" fill="#E65402"/>
</svg>
