<?xml version="1.0"?>
<svg xmlns="http://www.w3.org/2000/svg" data-name="Layer 1" id="Layer_1" viewBox="0 0 128 128"><title/><path d="M86.1712,99h7.89136a12.168,12.168,0,0,1,9.01654-4H86.6712Z"/><path d="M33.78711,98.65576c.10681.11066.19977.23029.30157.34424h7.73969l-.49988-4H25.0791l.18848.002A12.13375,12.13375,0,0,1,33.78711,98.65576Z"/><path d="M48,69.47168V78H45.5a2.00006,2.00006,0,0,0-1.98437,2.248l2.01166,16.0932a12.15712,12.15712,0,0,1,3.87933-1.21265L48.76556,90H79.23444l-.63733,5.09882a12.21981,12.21981,0,0,1,3.88446,1.17188L84.48438,80.248A2.00006,2.00006,0,0,0,82.5,78H80V69.47168a9.01015,9.01015,0,0,0-9-9V57.42645a9.346,9.346,0,0,0,1.92285-5.488l.0752-3.6001a9.20345,9.20345,0,0,0-2.57617-6.63672,8.74812,8.74812,0,0,0-6.207-2.70117,9.17271,9.17271,0,0,0-9.1377,9.061l-.0752,3.6001A9.22072,9.22072,0,0,0,57,57.637v2.83472A9.01015,9.01015,0,0,0,48,69.47168Zm13-8.97473a8.73535,8.73535,0,0,0,2.78418.50256h.001c.041.00049.08105.00049.12207.00049A8.7111,8.7111,0,0,0,67,60.42383v1.90381l-3,3.56592-3-3.56592Zm-3.42346,3.97473,1.54993,1.84216a6.00193,6.00193,0,0,1,4.87158.4884,5.96538,5.96538,0,0,1,3.53418-.77881,6.03418,6.03418,0,0,1,1.34753.28308l1.5437-1.83484H71a5.00589,5.00589,0,0,1,5,5V78H72V75.58838a2.00063,2.00063,0,0,0-.46582-1.28271l-3-3.58838a1.99977,1.99977,0,1,0-3.06836,2.56543L68,76.31445V78H60V76.31445l2.53418-3.03174a1.99977,1.99977,0,1,0-3.06836-2.56543l-3,3.58838A2.00063,2.00063,0,0,0,56,75.58838V78H52V69.47168a5.00589,5.00589,0,0,1,5-5Z"/><path d="M109.9433,113.02136a7.30554,7.30554,0,0,0,.9903-3.50037l.06445-2.80029a7.32745,7.32745,0,0,0-2.08887-5.28711,8.129,8.129,0,0,0-5.72266-2.43311C103.15039,99,103.11523,99,103.08008,99a7.87115,7.87115,0,0,0-8.01367,7.479L95.002,109.2793a7.25783,7.25783,0,0,0,.94763,3.74725A8.63155,8.63155,0,0,0,90,115.89a8.63576,8.63576,0,0,0-6.0567-2.86859,7.30554,7.30554,0,0,0,.9903-3.50037l.06445-2.80029a7.32745,7.32745,0,0,0-2.08887-5.28711,8.129,8.129,0,0,0-5.72266-2.43311,7.8713,7.8713,0,0,0-8.12012,7.47852L69.002,109.2793a7.25783,7.25783,0,0,0,.94763,3.74725A8.63155,8.63155,0,0,0,64,115.89a8.63576,8.63576,0,0,0-6.0567-2.86859,7.30554,7.30554,0,0,0,.9903-3.50037l.06445-2.80029a7.32745,7.32745,0,0,0-2.08887-5.28711,8.129,8.129,0,0,0-5.72266-2.43311C51.15039,99,51.11523,99,51.08008,99a7.87115,7.87115,0,0,0-8.01367,7.479L43.002,109.2793a7.25783,7.25783,0,0,0,.94763,3.74725A8.63155,8.63155,0,0,0,38,115.89a8.63576,8.63576,0,0,0-6.0567-2.86859,7.30554,7.30554,0,0,0,.9903-3.50037l.06445-2.80029a7.32745,7.32745,0,0,0-2.08887-5.28711,8.129,8.129,0,0,0-5.72266-2.43311C25.15039,99,25.11523,99,25.08008,99a7.87115,7.87115,0,0,0-8.01367,7.479L17.002,109.2793a7.25783,7.25783,0,0,0,.94763,3.74725A8.27871,8.27871,0,0,0,10,121.0957V126a2,2,0,0,0,4,0v-4.9043A4.317,4.317,0,0,1,18.5,117h13a4.317,4.317,0,0,1,4.5,4.0957V126a2,2,0,0,0,4,0v-4.9043A4.317,4.317,0,0,1,44.5,117h13a4.317,4.317,0,0,1,4.5,4.0957V126a2,2,0,0,0,4,0v-4.9043A4.317,4.317,0,0,1,70.5,117h13a4.317,4.317,0,0,1,4.5,4.0957V126a2,2,0,0,0,4,0v-4.9043A4.317,4.317,0,0,1,96.5,117h13a4.317,4.317,0,0,1,4.5,4.0957V126a2,2,0,0,0,4,0v-4.9043A8.2843,8.2843,0,0,0,109.9433,113.02136Z"/><path d="M128,55V47a2.0001,2.0001,0,0,0-2-2h-5V27a2.0001,2.0001,0,0,0-2-2V23a8.00691,8.00691,0,0,0-6-7.73669V13a2,2,0,0,0-4,0v2.26331A8.00691,8.00691,0,0,0,103,23v2a2.0001,2.0001,0,0,0-2,2V45H88V29a2.0001,2.0001,0,0,0-2-2H83V19a2.0001,2.0001,0,0,0-2-2H78.85071A15.01,15.01,0,0,0,66,4.14929V2a2,2,0,0,0-4,0V4.14929A15.01,15.01,0,0,0,49.14929,17H47a2.0001,2.0001,0,0,0-2,2v8H42a2.0001,2.0001,0,0,0-2,2V45H27V27a2.0001,2.0001,0,0,0-2-2V23a8.00691,8.00691,0,0,0-6-7.73669V13a2,2,0,0,0-4,0v2.26331A8.00691,8.00691,0,0,0,9,23v2a2.0001,2.0001,0,0,0-2,2V45H2a2.0001,2.0001,0,0,0-2,2v8a2.0001,2.0001,0,0,0,2,2V87a2.0001,2.0001,0,0,0-2,2v8a2.0001,2.0001,0,0,0,2,2H16.06256a12.168,12.168,0,0,1,9.01654-4H4V91H40.82861l-.49994-4H38V57H52.04327a13.38655,13.38655,0,0,1-1.04034-5.42139l.0752-3.60059A13.19325,13.19325,0,0,1,64.06055,34.999l.22559.002a12.71164,12.71164,0,0,1,9.0127,3.92188,13.174,13.174,0,0,1,3.69824,9.498l-.0752,3.60107A13.2797,13.2797,0,0,1,75.83441,57H90V87H87.67126l-.50006,4H124v4H103.0791l.18848.002a12.13375,12.13375,0,0,1,8.51953,3.65381c.10681.11066.19977.23029.30157.34424H126a2.0001,2.0001,0,0,0,2-2V89a2.0001,2.0001,0,0,0-2-2V57A2.0001,2.0001,0,0,0,128,55ZM13,23a4,4,0,0,1,8,0v2H13ZM25,87H15V71H25ZM40,53H4V49H40ZM79,27H49V21H79Zm28-4a4,4,0,0,1,8,0v2h-8Zm6,64H103V71h10Zm11-34H88V49h36Z"/></svg>
