<svg xmlns="http://www.w3.org/2000/svg" viewBox="0 0 64 64" id="concert-stage-performance-platform">
  <rect width="8.889" height="38.865" x="6.96" y="15.758" fill="#485460"></rect>
  <path fill="#808e9b" d="m15.849,21.316l-6.481,4.043,6.481,4.053v1.726l-6.481,4.043,6.481,4.053v1.726l-6.481,4.043,6.481,4.053v1.715l-6.15,3.852h-2.739v.542c-.01,0-.01-.01-.01-.01-.211-.341-.191-.752.01-1.063.07-.13.181-.241.311-.321l6.17-3.862-6.481-4.053v-1.716l6.481-4.043-6.481-4.053v-1.726l6.481-4.043-6.481-4.053v-1.726l6.471-4.043-6.15-3.842c-.14-.09-.241-.201-.321-.331-.1-.15-.14-.331-.14-.522h2.869l6.16,3.842v1.715Z"></path>
  <rect width="8.889" height="38.865" x="47.401" y="15.758"></rect>
  <path d="m56.29,21.316l-6.481,4.043,6.481,4.053v1.726l-6.481,4.043,6.481,4.053v1.726l-6.481,4.043,6.481,4.053v1.715l-6.15,3.852h-2.899c0-.191.05-.371.161-.532.07-.13.181-.241.311-.321l6.17-3.862-6.481-4.053v-1.716l6.481-4.043-6.481-4.053v-1.726l6.481-4.043-6.481-4.053v-1.726l6.481-4.043-6.15-3.842c-.14-.09-.251-.201-.331-.341-.09-.151-.14-.331-.14-.512h2.879l6.15,3.842v1.715Z"></path>
  <rect width="54.927" height="4.966" x="4.161" y="57.934" fill="#575fcf"></rect>
  <polygon fill="#ea3934" points="24.447 19.771 21.949 22.74 19.922 21.025 20.474 20.373 21.728 18.868 22.41 18.065 24.447 19.771"></polygon>
  <path fill="#34e7e4" d="m61.025,5.776v9.982H2.225V5.776C21.828-.725,41.422-.725,61.025,5.776Z"></path>
  <path fill="#485460" d="m21.728,18.868l-1.254,1.505c-.09-.04-.171-.11-.251-.181l-1.886-1.926c-.15-.151-.251-.351-.281-.572l-.241-1.936h2.027l.171,1.344,1.645,1.685c.03.03.05.05.07.08Z"></path>
  <path fill="#ffc048" d="m24.229,20.797h.009c.731,0,1.324.593,1.324,1.324v1.333h-2.657v-1.333c0-.731.593-1.324,1.324-1.324Z" transform="rotate(130.09 24.234 22.125)"></path>
  <path d="m45.114,15.758l-.251,1.936c-.02.221-.12.421-.271.572l-1.896,1.926c-.07.07-.151.14-.241.181l-1.254-1.505c.02-.03.04-.05.07-.08l1.645-1.685.171-1.344h2.027Z"></path>
  <polygon points="43.007 21.025 40.98 22.74 38.482 19.771 40.519 18.065 41.201 18.868 42.455 20.373 43.007 21.025"></polygon>
  <path d="m37.365,20.797h2.657v1.333c0,.731-.593,1.324-1.324,1.324h-.009c-.731,0-1.324-.593-1.324-1.324v-1.333h0Z" transform="rotate(49.91 38.694 22.125)"></path>
  <rect width="49.329" height="3.311" x="6.96" y="54.623" fill="#ea3934"></rect>
  <path fill="#ffc048" d="m25.56,54.623h-2.017l-2.348-12.5c-.09-.492.191-.973.662-1.134l1.164-.401.462,1.966-.16.05,2.217,11.838c.01.06.02.12.02.181Z"></path>
  <path fill="#485460" d="m33.396,39.685c0,1.324-1.023,2.488-2.418,2.578l-7.454.462-.04-.171-.462-1.966-.09-.371,6.872-2.909c1.475-.622,3.15.231,3.521,1.786.05.201.07.401.07.592Z"></path>
  <polygon fill="#374047" points="56.29 54.623 56.29 50.771 50.14 54.623 56.29 54.623"></polygon>
  <polygon fill="#374047" points="56.29 39.234 56.29 31.138 49.809 35.181 56.29 39.234"></polygon>
  <polygon fill="#374047" points="47.401 36.043 47.401 44.139 53.882 40.096 47.401 36.043"></polygon>
  <polygon fill="#374047" points="56.29 29.412 56.29 21.316 49.809 25.359 56.29 29.412"></polygon>
  <path fill="#374047" d="m47.712,53.771l6.17-3.862-6.481-4.053v8.237c.07-.13.181-.241.311-.321Z"></path>
  <polygon fill="#374047" points="56.29 49.055 56.29 40.959 49.809 45.002 56.29 49.055"></polygon>
  <polygon fill="#374047" points="47.401 26.222 47.401 34.318 53.882 30.275 47.401 26.222"></polygon>
  <polygon fill="#374047" points="56.29 19.6 56.29 15.758 50.14 15.758 56.29 19.6"></polygon>
  <path fill="#374047" d="m47.732,16.611c-.14-.09-.251-.201-.331-.341v8.226l6.481-4.043-6.15-3.842Z"></path>
  <path fill="#748089" d="m47.401,15.758h-.14c0,.181.05.361.14.512.08.14.191.251.331.341l6.15,3.842-6.481,4.043v1.726l6.481,4.053-6.481,4.043v1.726l6.481,4.053-6.481,4.043v1.716l6.481,4.053-6.17,3.862c-.13.08-.241.191-.311.321-.11.161-.161.341-.161.532h2.899l6.15-3.852v-1.715l-6.481-4.053,6.481-4.043v-1.726l-6.481-4.053,6.481-4.043v-1.726l-6.481-4.053,6.481-4.043v-1.715l-6.15-3.842h-2.739Z"></path>
  <polygon fill="#3b44b7" points="59.089 57.934 56.29 57.934 31.625 57.934 31.625 62.9 59.089 62.9 59.089 57.934"></polygon>
  <path fill="#00d8d6" d="m45.114,15.758h15.911V5.776C51.223,2.525,41.424.9,31.625.9v14.858h13.489Z"></path>
  <path fill="#374047" d="m42.916,17.102l-1.645,1.685c-.03.03-.05.05-.07.08l1.254,1.505c.09-.04.171-.11.241-.181l1.896-1.926c.151-.151.251-.351.271-.572l.251-1.936h-2.027l-.171,1.344Z"></path>
  <polygon fill="#cc2f2f" points="40.519 18.065 38.482 19.771 40.98 22.74 43.007 21.025 42.455 20.373 41.201 18.868 40.519 18.065"></polygon>
  <path fill="#ffa801" d="m37.838,21.109c-.561.473-.633,1.311-.161,1.872.473.561,1.311.633,1.872.161l1.017-.856-1.711-2.033-1.016.856Z"></path>
  <polygon fill="#cc2f2f" points="56.29 54.623 50.14 54.623 47.401 54.623 47.24 54.623 31.625 54.623 31.625 57.934 56.29 57.934 56.29 54.623"></polygon>
  <path fill="#374047" d="m33.396,39.685c0-.191-.02-.391-.07-.592-.218-.912-.889-1.571-1.7-1.844v4.879c1.05-.349,1.771-1.335,1.771-2.443Z"></path>
</svg>
