<svg xmlns="http://www.w3.org/2000/svg" enable-background="new 0 0 256 256" viewBox="0 0 256 256" id="coordination">
  <path fill="#648940" d="M73.482,55.082c-7.675,0-13.926-6.095-14.179-13.708c-0.216-6.524,4.265-12.384,10.546-14.158
					c2.604-0.735,5.069-0.614,7.333-0.002V7.43c0-1.105-0.895-2-2-2H21.25c-8.284,0-15,6.716-15,15v53.932c0,1.105,0.895,2,2,2
					h19.784c-0.611,2.264-0.733,4.729,0.003,7.333c1.774,6.281,7.634,10.763,14.158,10.546c7.613-0.252,13.708-6.504,13.708-14.179
					c0-1.283-0.186-2.519-0.505-3.701h19.784c1.105,0,2-0.895,2-2V54.578C76.001,54.897,74.764,55.082,73.482,55.082z"></path>
  <path fill="#5A7A39" d="M72.183,55.018v14.344c0,1.104-0.895,2-2,2H50.398c0.319,1.182,0.505,2.418,0.505,3.701
						c0,7.675-6.095,13.926-13.708,14.179c-2.743,0.091-5.364-0.657-7.618-2.012c2.619,4.351,7.403,7.185,12.618,7.012
						c7.613-0.252,13.708-6.504,13.708-14.179c0-1.282-0.186-2.519-0.505-3.701h19.784c1.105,0,2-0.896,2-2V54.578
						c-1.182,0.319-2.418,0.505-3.701,0.505C73.043,55.082,72.611,55.057,72.183,55.018z"></path>
  <path fill="#E63950" d="M153.115,5.43H99.183c-1.105,0-2,0.895-2,2v19.784c-2.264-0.611-4.729-0.733-7.333,0.002
					c-6.281,1.774-10.763,7.634-10.546,14.158c0.252,7.613,6.504,13.708,14.179,13.708c1.283,0,2.519-0.186,3.701-0.505v19.784
					c0,1.105,0.895,2,2,2h19.784c-0.611-2.264-0.733-4.729,0.003-7.333c1.774-6.281,7.634-10.763,14.158-10.546
					c7.613,0.252,13.708,6.504,13.708,14.179c0,1.283-0.186,2.519-0.505,3.701h19.784c1.105,0,2-0.895,2-2V20.43
					C168.115,12.145,161.399,5.43,153.115,5.43z"></path>
  <path fill="#D10028" d="M118.535 71.362H99.183c-1.105 0-2-.896-2-2v5c0 1.104.895 2 2 2h19.784C118.542 74.786 118.362 73.112 118.535 71.362zM160.912 7.633c1.389 2.274 2.203 4.937 2.203 7.797v53.932c0 1.104-.895 2-2 2h-14.344c.039.428.064.861.064 1.299 0 1.282-.186 2.519-.505 3.701h19.784c1.105 0 2-.896 2-2V20.43C168.115 15.005 165.226 10.267 160.912 7.633z"></path>
  <path fill="#478CF7" d="M84.516,118.149c-2.604-0.735-5.069-0.614-7.333-0.003V98.362c0-1.105-0.895-2-2-2H55.398
					c0.611,2.264,0.733,4.729-0.003,7.333c-1.774,6.281-7.634,10.763-14.158,10.546c-7.613-0.252-13.708-6.504-13.708-14.179
					c0-1.283,0.186-2.519,0.505-3.701H8.25c-1.105,0-2,0.895-2,2v53.932c0,8.284,6.716,15,15,15h53.932c1.105,0,2-0.895,2-2V145.51
					c1.182,0.319,2.418,0.505,3.701,0.505c7.675,0,13.926-6.094,14.179-13.708C95.278,125.783,90.797,119.923,84.516,118.149z"></path>
  <path fill="#377DE2" d="M88.05,119.689c1.355,2.254,2.102,4.875,2.012,7.618c-0.252,7.613-6.504,13.708-14.179,13.708
						l-1.698-0.002c-1.106-0.002-2.003,0.894-2.003,2v17.282c0,1.105-0.895,2-2,2H16.25c-2.86,0-5.523-0.814-7.797-2.203
						c2.634,4.314,7.372,7.203,12.797,7.203h53.932c1.105,0,2-0.895,2-2V145.51c1.182,0.319,2.418,0.505,3.701,0.505
						c7.675,0,13.926-6.094,14.179-13.708C95.235,127.092,92.401,122.307,88.05,119.689z"></path>
  <g>
    <path fill="#FCC4AE" d="M236.53,115.771c-7.301,0-13.219,5.918-13.219,13.22v2.737l0,0v-16.813
					c0-7.301-5.918-13.219-13.219-13.219c-7.301,0-13.219,5.918-13.219,13.219v-13.22c0-7.301-5.918-13.219-13.219-13.219l0,0
					c-7.301,0-13.219,5.918-13.219,13.219v-42.64c0-7.301-5.919-13.219-13.219-13.219h0c-7.301,0-13.219,5.918-13.219,13.219
					l0,96.229l-12.313-30.398c-2.865-7.074-10.977-10.42-17.997-7.423h0c-6.691,2.857-9.962,10.462-7.433,17.284l14.338,38.68
					c4.642,12.523,11.386,24.162,19.943,34.417l15.747,18.873l0,18.853c0,2.761,2.239,5,5,5h62.373c2.761,0,5-2.239,5-5v-22.958l0,0
					c13.734-19.701,21.098-38.139,21.098-62.154v-5.163v-26.304C249.75,121.69,243.831,115.771,236.53,115.771z"></path>
    <path fill="#FFD2C0" d="M145.139,206c-0.573,0-1.141-0.245-1.537-0.719c-8.287-9.932-14.769-21.117-19.264-33.244l-2.458-6.63
					c-0.384-1.036,0.145-2.187,1.18-2.571c1.037-0.383,2.187,0.145,2.571,1.18l2.458,6.63c4.336,11.7,10.589,22.49,18.584,32.072
					c0.708,0.848,0.594,2.109-0.254,2.817C146.045,205.848,145.591,206,145.139,206z M120.967,159.203
					c-0.807,0-1.563-0.489-1.863-1.29l-0.007-0.02c-0.388-1.034,0.136-2.187,1.17-2.575c1.034-0.391,2.187,0.136,2.575,1.17
					s-0.132,2.197-1.167,2.584C121.441,159.161,121.202,159.203,120.967,159.203z"></path>
    <path fill="#F2AD97" d="M239.422,116.099c0.208,0.932,0.327,1.897,0.327,2.892v26.304v5.163
						c0,23.495-7.048,41.652-20.214,60.875c-0.57,0.832-0.884,1.819-0.884,2.828v21.409c0,2.761-2.239,5-5,5h-57.373v5
						c0,2.761,2.239,5,5,5h62.373c2.761,0,5-2.239,5-5v-22.958c13.734-19.701,21.098-38.139,21.098-62.154v-5.163v-26.304
						C249.75,122.685,245.331,117.419,239.422,116.099z"></path>
    <path fill="#FFD2C0" d="M166.211 58.016l0 7.845c0 1.105-.895 2-2 2h-14c-1.105 0-2-.895-2-2l0-7.845c0-2.761 2.239-5 5-5l8 0C163.972 53.016 166.211 55.255 166.211 58.016zM126.946 125.249l2.867 7.302c.404 1.028-.102 2.189-1.131 2.593l-13.031 5.117c-1.028.404-2.189-.102-2.593-1.131l-2.867-7.302c-1.009-2.57.256-5.472 2.826-6.482l7.446-2.924C123.035 121.414 125.937 122.679 126.946 125.249z"></path>
    <path fill="#E59076" d="M243.032,117.489c1.088,1.921,1.718,4.136,1.718,6.502v26.304v5.163
						c0,23.495-7.048,41.652-20.214,60.875c-0.57,0.832-0.884,1.819-0.884,2.828v21.409c0,2.761-2.239,5-5,5h-62.373
						c0,2.761,2.239,5,5,5h62.373c2.761,0,5-2.239,5-5v-22.958c13.734-19.701,21.098-38.139,21.098-62.154v-5.163v-26.304
						C249.75,124.056,247.04,119.76,243.032,117.489z"></path>
  </g>
</svg>
