<svg xmlns="http://www.w3.org/2000/svg" id="Capa_1" enable-background="new 0 0 512 512" height="512" viewBox="0 0 512 512" width="512"><g><g><path d="m430.243 399.489h-30.183c-4.143 0-7.5 3.357-7.5 7.5s3.357 7.5 7.5 7.5h7.534v47.01c0 4.143 3.357 7.5 7.5 7.5s7.5-3.357 7.5-7.5v-47.01h7.648c4.143 0 7.5-3.357 7.5-7.5s-3.356-7.5-7.499-7.5z" style="&#10;    fill: #e65402;&#10;"/><path d="m280.754 414.998c4.143 0 7.5-3.357 7.5-7.5s-3.357-7.5-7.5-7.5h-22.821c-4.142 0-7.5 3.357-7.5 7.5v54c0 4.143 3.358 7.5 7.5 7.5h22.821c4.143 0 7.5-3.357 7.5-7.5s-3.357-7.5-7.5-7.5h-15.321v-12.014h13.645c4.143 0 7.5-3.357 7.5-7.5s-3.357-7.5-7.5-7.5h-13.645v-11.986z" style="&#10;    fill: #e65402;&#10;"/><path d="m182.631 453.942c-3.971.024-8.17.042-11.581.048v-47.001c0-4.143-3.358-7.5-7.5-7.5s-7.5 3.357-7.5 7.5v54.453c0 3.603 2.562 6.696 6.101 7.368.591.112.982.187 7.132.187 2.943 0 7.206-.017 13.439-.055 4.142-.025 7.479-3.403 7.454-7.546s-3.375-7.519-7.545-7.454z" style="&#10;    fill: #e65402;&#10;"/><path d="m219.822 399.744c-4.142 0-7.5 3.357-7.5 7.5v54.51c0 4.143 3.358 7.5 7.5 7.5s7.5-3.357 7.5-7.5v-54.51c0-4.143-3.358-7.5-7.5-7.5z" style="&#10;    fill: #e65402;&#10;"/><path d="m131.195 448.114c-3.133-2.708-7.87-2.363-10.579.771-.531.615-1.041 1.138-1.566 1.605-2.606 2.328-5.964 3.508-9.981 3.508-10.924 0-19.812-8.868-19.812-19.77 0-10.885 8.888-19.74 19.812-19.74 3.961 0 7.792 1.167 11.08 3.375 3.438 2.308 8.098 1.394 10.408-2.045 2.309-3.439 1.394-8.099-2.045-10.408-5.769-3.874-12.492-5.922-19.442-5.922-19.195 0-34.812 15.584-34.812 34.74 0 19.172 15.617 34.77 34.812 34.77 7.705 0 14.611-2.531 19.966-7.313 1.01-.9 1.969-1.879 2.932-2.993 2.707-3.134 2.361-7.87-.773-10.578z" style="&#10;    fill: #e65402;&#10;"/><path d="m361.439 397.929c-4.143 0-7.5 3.357-7.5 7.5v35.081l-27.173-39.264c-1.866-2.697-5.271-3.87-8.402-2.892s-5.265 3.878-5.265 7.159v58.054c0 4.143 3.357 7.5 7.5 7.5s7.5-3.357 7.5-7.5v-34.037l25.625 37.026c2.171 3.204 5.836 4.577 9.336 3.505 3.571-1.097 5.879-4.413 5.879-8.45v-56.183c0-4.141-3.358-7.499-7.5-7.499z" style="&#10;    fill: #e65402;&#10;"/><path d="m296.101 176.179c4.143 0 7.5-3.357 7.5-7.5v-8.589c0-4.143-3.357-7.5-7.5-7.5s-7.5 3.357-7.5 7.5v8.589c0 4.143 3.357 7.5 7.5 7.5z"/><path d="m215.871 152.59c-4.142 0-7.5 3.357-7.5 7.5v8.589c0 4.143 3.358 7.5 7.5 7.5s7.5-3.357 7.5-7.5v-8.589c0-4.142-3.358-7.5-7.5-7.5z"/><path d="m240.294 219.168c4.473 2.626 10.083 3.939 15.692 3.939 5.61 0 11.219-1.313 15.692-3.939 3.572-2.098 4.767-6.693 2.67-10.266-2.099-3.572-6.694-4.768-10.266-2.67-4.236 2.488-11.955 2.488-16.192 0-3.57-2.096-8.167-.902-10.265 2.67-2.098 3.573-.903 8.169 2.669 10.266z"/><path d="m442.037 356.997h-5.84c-5.725-21.812-24.32-57.649-51.597-64.037l-75.628-17.641v-28.582c18.375-13.351 33.557-32.009 42.046-51.434 13.777-.519 25.394-6.753 32.41-17.616 6.982-10.815 7.848-24.501 2.202-34.866-3.137-5.759-7.874-10.063-13.862-12.728 8.755-8.189 15.993-19.625 20.633-33.098 1.35-3.916-.732-8.185-4.648-9.533-3.913-1.351-8.184.731-9.533 4.648-5.827 16.917-16.667 30.057-28.506 34.733-1.584-.103-3.25-.208-4.995-.318-32.979-2.078-94.366-5.946-129.881-32.665-1.758-1.324-4.012-1.808-6.156-1.323-2.147.483-3.974 1.885-4.995 3.834-12.788 24.396-24.738 29.315-35.052 30.31v-27.621c0-39.885 12.411-56.495 42.839-57.332 2.403-.066 4.628-1.279 5.984-3.263 12.324-18.021 29.309-16.103 58.274-11.161 25.911 4.419 57.812 9.86 88.632-10.071 13.711 14.856 17.52 31.726 18.206 43.731.236 4.137 3.809 7.325 7.915 7.06 4.136-.236 7.297-3.78 7.06-7.915-1.305-22.84-10.729-42.94-27.25-58.13-2.658-2.443-6.682-2.647-9.571-.482-27.293 20.433-55.343 15.646-82.469 11.021-25.87-4.415-52.584-8.974-70.917 14.391-48.038 3.234-53.703 42.53-53.703 72.151v27.954c-12.435.696-22.056 6.244-27.264 15.806-5.645 10.365-4.781 24.051 2.203 34.865 7.015 10.865 18.632 17.098 32.41 17.617 8.489 19.424 23.671 38.081 42.045 51.433v28.583l-75.631 17.642c-27.237 6.371-45.864 42.221-51.615 64.036h-5.819c-17.941 0-32.538 14.567-32.538 32.474v90.028c-.001 17.922 14.596 32.502 32.537 32.502h372.074c17.941 0 32.538-14.58 32.538-32.502v-90.028c0-17.906-14.596-32.473-32.538-32.473zm-83.671-193.846v-21.101c6.704.563 11.548 3.278 14.091 7.945 3.056 5.611 2.416 13.287-1.631 19.555-2.123 3.287-6.506 8.121-14.479 10.007 1.315-5.539 2.019-11.043 2.019-16.406zm-217.191 6.399c-4.047-6.268-4.688-13.943-1.631-19.555 2.542-4.667 7.387-7.383 14.091-7.945v21.101c0 5.365.705 10.87 2.02 16.411-7.978-1.883-12.357-6.723-14.48-10.012zm181.815 124.441-26.563 33.817-26.403-14.183 33.102-24.267zm-66.99 11.316-37.972-27.837v-21.423c3.796 1.968 7.673 3.701 11.611 5.16 9.642 3.566 18.019 5.228 26.361 5.228 8.311 0 16.685-1.66 26.364-5.229 3.936-1.458 7.813-3.191 11.607-5.158v21.422zm-82.376-118.519c-.151-1.2-.577-2.302-1.216-3.246-2.425-6.922-3.774-13.819-3.774-20.39v-21.48c14.05-1.136 29.421-6.696 44.192-30.983 39.251 24.935 97.902 28.726 130.54 30.782v21.682c0 6.573-1.349 13.473-3.776 20.396-.638.943-1.063 2.043-1.214 3.242-10.119 25.362-34.409 50.419-61.212 60.346-7.954 2.933-14.68 4.299-21.164 4.299-6.511 0-13.234-1.365-21.154-4.295-26.811-9.932-51.103-34.991-61.222-60.353zm35.25 102.57 33.103 24.268-26.403 14.183-26.563-33.817zm250.701 190.14c0 9.65-7.867 17.502-17.538 17.502h-372.074c-9.67 0-17.538-7.852-17.538-17.502v-90.028c0-9.635 7.868-17.474 17.538-17.474h169.468c4.142 0 7.5-3.357 7.5-7.5s-3.358-7.5-7.5-7.5h-148.032c5.855-18.402 21.066-45.139 39.41-49.43l42.081-9.815 34.782 44.279c1.464 1.864 3.661 2.868 5.902 2.868 1.205 0 2.422-.291 3.545-.894l38.881-20.883 38.882 20.885c1.123.603 2.34.894 3.545.894 2.24 0 4.438-1.005 5.902-2.868l34.782-44.279 42.075 9.814c18.378 4.303 33.569 31.037 39.399 49.431h-146.453c-4.143 0-7.5 3.357-7.5 7.5s3.357 7.5 7.5 7.5h167.905c9.671 0 17.538 7.839 17.538 17.474z"/></g></g></svg>