<svg width="600" height="600" viewBox="0 0 600 600" fill="none" xmlns="http://www.w3.org/2000/svg">
<rect width="600" height="600" fill="white"/>
<path d="M41.9062 239.831V480.028C41.9062 491.672 51.375 501.141 63.0094 501.141H196.622V523.753H148.772C142.762 523.753 137.878 528.637 137.878 534.647V557.484C137.878 563.494 142.762 568.378 148.772 568.378H345.6C351.609 568.378 356.494 563.494 356.494 557.484V534.647C356.494 528.637 351.609 523.753 345.6 523.753H297.741V501.141H431.362C442.997 501.141 452.466 491.672 452.466 480.028V277.687C512.119 268.866 558.094 217.472 558.094 155.4C558.094 87.15 502.575 31.6312 434.325 31.6312C366.075 31.6312 310.556 87.15 310.556 155.4C310.556 178.556 317.062 200.175 328.181 218.728H63.0094C51.3656 218.728 41.9062 228.197 41.9062 239.831ZM347.128 534.647V557.484C347.128 558.328 346.444 559.003 345.609 559.003H148.772C147.937 559.003 147.253 558.328 147.253 557.484V534.647C147.253 533.803 147.937 533.128 148.772 533.128H345.6C346.434 533.128 347.128 533.803 347.128 534.647ZM288.375 523.753H206.006V501.141H288.375V523.753ZM443.1 480.028C443.1 486.497 437.841 491.766 431.372 491.766H293.241C293.175 491.766 293.119 491.728 293.062 491.728H201.319C201.253 491.728 201.197 491.766 201.141 491.766H63.0094C56.5406 491.766 51.2812 486.497 51.2812 480.028V457.162H443.091L443.1 480.028ZM434.334 41.0062C497.419 41.0062 548.728 92.325 548.728 155.4C548.728 218.475 497.409 269.794 434.334 269.794C371.259 269.794 319.941 218.475 319.941 155.4C319.941 92.325 371.259 41.0062 434.334 41.0062ZM434.334 279.169C437.297 279.169 440.194 278.934 443.1 278.728V447.787H51.2812V239.841C51.2812 233.372 56.55 228.112 63.0094 228.112H334.387C356.916 258.994 393.262 279.178 434.325 279.178L434.334 279.169Z" fill="black"/>
<path d="M201.319 479.691H293.063C295.65 479.691 297.75 477.591 297.75 475.003C297.75 472.416 295.65 470.316 293.063 470.316H201.319C198.731 470.316 196.631 472.416 196.631 475.003C196.631 477.591 198.731 479.691 201.319 479.691ZM104.981 417.253H316.762C324.103 429.281 337.228 437.4 352.313 437.4C375.338 437.4 394.078 418.669 394.078 395.644C394.078 375.966 380.353 359.531 362.006 355.134V263.306C362.006 260.719 359.906 258.619 357.319 258.619H104.981C102.394 258.619 100.294 260.719 100.294 263.306V412.556C100.294 415.144 102.394 417.253 104.981 417.253ZM384.703 395.644C384.703 413.494 370.172 428.025 352.313 428.025C334.453 428.025 319.931 413.494 319.931 395.644C319.931 377.794 334.453 363.263 352.313 363.263C370.172 363.263 384.703 377.794 384.703 395.644ZM352.313 353.888C329.288 353.888 310.556 372.619 310.556 395.644C310.556 399.928 311.391 403.978 312.6 407.878H109.669V337.331H352.631V353.925C352.519 353.925 352.425 353.888 352.313 353.888ZM109.697 327.947V306.994H352.603V327.947H109.697ZM352.631 267.994V297.619H109.669V267.994H352.631Z" fill="black"/>
<path d="M342.094 391.791C340.266 389.962 337.294 389.962 335.466 391.791C333.637 393.619 333.637 396.591 335.466 398.419L344.85 407.803C345.769 408.722 346.969 409.172 348.169 409.172C349.369 409.172 350.569 408.712 351.487 407.803L369.178 390.112C371.006 388.284 371.006 385.312 369.178 383.484C367.35 381.656 364.378 381.656 362.55 383.484L348.169 397.856L342.094 391.791ZM160.219 376.031H139.997C137.409 376.031 135.309 378.131 135.309 380.719C135.309 383.306 137.409 385.406 139.997 385.406H160.219C162.806 385.406 164.906 383.306 164.906 380.719C164.906 378.131 162.806 376.031 160.219 376.031ZM205.5 376.031H185.278C182.691 376.031 180.591 378.131 180.591 380.719C180.591 383.306 182.691 385.406 185.278 385.406H205.5C208.087 385.406 210.187 383.306 210.187 380.719C210.187 378.131 208.087 376.031 205.5 376.031ZM371.887 227.081H496.762C499.35 227.081 501.45 224.981 501.45 222.394V87.9468C501.45 86.0062 500.25 84.2624 498.441 83.5687L462.966 69.9937C462.787 69.9187 462.591 69.9656 462.403 69.9187C462.037 69.825 461.7 69.7875 461.325 69.7781C460.922 69.7781 460.547 69.825 460.153 69.9281C459.984 69.975 459.797 69.9281 459.628 69.9937L424.125 83.5687C422.316 84.2624 421.116 86.0062 421.116 87.9468V113.259L409.209 109.622C409.003 109.556 408.787 109.622 408.572 109.584C408.216 109.528 407.887 109.491 407.522 109.519C407.1 109.547 406.725 109.65 406.322 109.791C406.106 109.866 405.872 109.837 405.666 109.941L369.722 128.672C368.166 129.478 367.2 131.081 367.2 132.825V222.394C367.2 224.981 369.3 227.081 371.887 227.081ZM425.794 217.706H412.519V120.441L439.097 128.559V217.706H425.794ZM492.075 110.597L480.216 107.419C477.712 106.744 475.144 108.234 474.478 110.737C473.812 113.241 475.294 115.809 477.797 116.475L492.084 120.3V142.772L480.225 139.594C477.722 138.937 475.153 140.409 474.487 142.912C473.822 145.416 475.303 147.984 477.806 148.65L492.094 152.475V175.022L480.234 171.844C477.731 171.187 475.162 172.659 474.497 175.162C473.831 177.666 475.312 180.234 477.816 180.9L492.103 184.734V217.716H466.012V81.2062L492.103 91.1906V110.616L492.075 110.597ZM430.481 91.1812L456.6 81.1968V217.706H448.472V125.091C448.472 123.028 447.122 121.209 445.153 120.609L430.481 116.128V91.1812ZM403.144 121.828V217.706H376.575V204.469L386.034 201.919C388.537 201.244 390.019 198.675 389.344 196.172C388.669 193.669 386.081 192.197 383.597 192.862L376.566 194.756V179.962L386.025 177.412C388.528 176.737 390.009 174.169 389.334 171.666C388.659 169.162 386.081 167.691 383.587 168.356L376.556 170.25V155.456L386.016 152.906C388.519 152.231 390 149.662 389.325 147.159C388.65 144.656 386.072 143.184 383.578 143.85L376.547 145.744V135.666L403.116 121.819L403.144 121.828Z" fill="#E65402"/>
</svg>
