<svg id="Layer_1" enable-background="new 0 0 64 64" height="512" viewBox="0 0 64 64" width="512" xmlns="http://www.w3.org/2000/svg"><g><g><path d="m.8 61.8h10.8v-21.2h-9.2z"/><path d="m62.9 46.9c-.6-1-1.9-1.3-2.9-.9l-17 7.7h-.1l-.2.1c-.4.2-.8.3-1.2.3-.2 0-.3 0-.5 0h-15.4c.6-1.3 1.8-2.2 3.4-2.2h12c.2 0 .5-.1.7-.2l.2-.1c.1-.1.2-.2.4-.3.2-.2.5-.7.5-1.3 0-1-.8-1.8-1.8-1.8h-9.3c-.8 0-1.7-.2-2.4-.6l-7.9-4.1c-.4-.2-.9-.3-1.4-.3h-6.2v15.5h4.4c.6 0 1.2.1 1.8.3l12.3 4.4c1.6.6 3.4.5 4.8-.3l24.9-12.9c.8-.4 1.2-1.2 1.2-2 0-.5-.1-.9-.3-1.3z"/><path d="m21.9 24.2h2.4c.4 2.1 1.3 4.1 2.4 5.9l-1.7 1.6c-.4.4-.4 1 0 1.4l3.8 3.8c.2.2.4.3.7.3s.5-.1.7-.3l1.7-1.7c1.8 1.2 3.8 2 5.8 2.4v2.4c0 .6.4 1 1 1h5.4c.6 0 1-.4 1-1v-2.4c2.1-.4 4.1-1.3 5.8-2.4l1.7 1.7c.4.4 1 .4 1.4 0l3.8-3.8c.4-.4.4-1 0-1.4l-1.7-1.7c1.2-1.8 2-3.8 2.4-5.8h2.5c.5 0 1-.4 1-1v-5.4c0-.5-.4-1-1-1h-2.4c-.4-2.1-1.3-4.1-2.4-5.8l1.7-1.7c.4-.4.4-1 0-1.4l-3.8-3.8c-.4-.4-1-.4-1.4 0l-1.7 1.7c-1.8-1.2-3.8-2-5.8-2.4v-2.4c0-.5-.4-1-1-1h-5.4c-.5 0-1 .4-1 1v2.4c-2.1.4-4.1 1.3-5.8 2.4l-1.7-1.7c-.2-.2-.4-.3-.7-.3s-.5.1-.7.3l-3.9 3.8c-.4.4-.4 1 0 1.4l1.7 1.7c-1.2 1.8-2 3.8-2.4 5.9h-2.4c-.5 0-1 .4-1 1v5.4c0 .5.5.9 1 .9zm8.4-7.3c.1-.4.4-.6.8-.7l6.5-.9 2.9-5.9c.4-.7 1.5-.7 1.9 0l2.9 5.9 6.5.9c.4.1.7.3.8.7s0 .8-.3 1.1l-4.7 4.6 1.1 6.5c.1.4-.1.8-.4 1-.2.1-.4.2-.6.2s-.3 0-.5-.1l-5.8-3.1-5.8 3.1c-.4.2-.8.2-1.1-.1-.3-.2-.5-.6-.4-1l1.1-6.5-4.7-4.6c-.3-.3-.4-.7-.2-1.1z"/><path d="m37.7 22.1-.8 4.6 4.1-2.2c.1-.1.3-.1.4-.1s.3 0 .4.1l4.1 2.2-.8-4.6c0-.3 0-.6.3-.8l3.3-3.2-4.6-.7c-.3 0-.6-.2-.7-.5l-2-4.1-2.1 4.1c-.1.3-.4.5-.7.5l-4.6.7 3.3 3.2c.4.2.5.5.4.8z"/></g></g></svg>