<svg id="solid" height="512" viewBox="0 0 512 512" width="512" xmlns="http://www.w3.org/2000/svg"><path d="m232 88a8 8 0 0 0 4.161 7.019l23.4 12.795 13.061 31.269a8 8 0 0 0 14.764 0l13.061-31.269 23.4-12.795a8 8 0 0 0 0-14.038l-23.4-12.795-13.065-31.269a8 8 0 0 0 -14.764 0l-13.061 31.269-23.4 12.795a8 8 0 0 0 -4.157 7.019z"/><path d="m456 144a24 24 0 1 1 -24 24 24.028 24.028 0 0 1 24-24zm-8 304v-208h16v208zm-96-289.013a32.1 32.1 0 0 0 16 0v89.013h-16zm8-46.987a16 16 0 1 1 -16 16 16.019 16.019 0 0 1 16-16zm-216 46.987a32.1 32.1 0 0 0 16 0v89.013h-16zm8-46.987a16 16 0 1 1 -16 16 16.019 16.019 0 0 1 16-16zm172.065 180.333a204.381 204.381 0 0 1 -136.131 0l9.766-28.333h116.6zm-276.065 155.667v-208h16v208zm-8-240h32a8 8 0 0 1 0 16h-32a8 8 0 0 1 0-16zm16-64a24 24 0 1 1 -24 24 24.028 24.028 0 0 1 24-24zm24 336h-48v-8.1a7.91 7.91 0 0 1 7.9-7.9h32.2a7.91 7.91 0 0 1 7.9 7.9zm43.221 0 49.315-143.013a239.513 239.513 0 0 0 166.928 0l49.315 143.013zm291-209.539a223.763 223.763 0 0 1 -316.45 0l-17.771-17.775v-14.062a24.147 24.147 0 0 0 2.341-.969l17.776 17.777a220.455 220.455 0 0 0 311.766 0l17.776-17.777a24.147 24.147 0 0 0 2.341.969v14.062zm65.779 209.539h-48v-8.1a7.91 7.91 0 0 1 7.9-7.9h32.2a7.91 7.91 0 0 1 7.9 7.9zm-8-256h-32a8 8 0 0 1 0-16h32a8 8 0 0 1 0 16z"/><path d="m192 32h16v16h-16z"/><path d="m224 32h16v16h-16z"/><path d="m208 16h16v16h-16z"/><path d="m208 48h16v16h-16z"/><path d="m208 120h16v16h-16z"/><path d="m384 32h16v16h-16z"/><path d="m120 40h16v16h-16z"/><path d="m256 196.388a132.039 132.039 0 0 1 -93.657-38.731l11.314-11.314a116.583 116.583 0 0 0 164.686 0l11.314 11.314a132.039 132.039 0 0 1 -93.657 38.731z"/></svg>