<svg width="500" height="494" viewBox="0 0 500 494" fill="none" xmlns="http://www.w3.org/2000/svg">
<path d="M210.938 351.562C210.938 359.288 213.228 366.841 217.521 373.264C221.813 379.688 227.914 384.695 235.051 387.652C242.189 390.608 250.043 391.382 257.621 389.874C265.198 388.367 272.158 384.647 277.621 379.184C283.084 373.721 286.805 366.761 288.312 359.183C289.819 351.606 289.046 343.752 286.089 336.614C283.132 329.476 278.126 323.375 271.702 319.083C265.278 314.791 257.726 312.5 250 312.5C239.64 312.5 229.704 316.616 222.379 323.941C215.053 331.267 210.938 341.202 210.938 351.562ZM273.438 351.562C273.438 356.198 272.063 360.729 269.488 364.584C266.912 368.438 263.252 371.442 258.969 373.216C254.686 374.99 249.974 375.454 245.428 374.55C240.881 373.645 236.705 371.413 233.427 368.135C230.149 364.858 227.917 360.681 227.013 356.135C226.109 351.588 226.573 346.876 228.347 342.593C230.121 338.311 233.125 334.65 236.979 332.075C240.833 329.5 245.365 328.125 250 328.125C256.216 328.125 262.177 330.594 266.573 334.99C270.968 339.385 273.438 345.346 273.438 351.562Z" fill="black"/>
<path d="M125 351.562C125 359.288 127.291 366.841 131.583 373.264C135.875 379.688 141.976 384.695 149.114 387.652C156.252 390.608 164.106 391.382 171.683 389.874C179.261 388.367 186.221 384.647 191.684 379.184C197.147 373.721 200.867 366.761 202.374 359.183C203.882 351.606 203.108 343.752 200.152 336.614C197.195 329.476 192.188 323.375 185.764 319.083C179.341 314.791 171.788 312.5 164.062 312.5C153.702 312.5 143.767 316.616 136.441 323.941C129.116 331.267 125 341.202 125 351.562ZM187.5 351.562C187.5 356.198 186.125 360.729 183.55 364.584C180.975 368.438 177.314 371.442 173.032 373.216C168.749 374.99 164.036 375.454 159.49 374.55C154.944 373.645 150.767 371.413 147.49 368.135C144.212 364.858 141.98 360.681 141.075 356.135C140.171 351.588 140.635 346.876 142.409 342.593C144.183 338.311 147.187 334.65 151.041 332.075C154.896 329.5 159.427 328.125 164.062 328.125C170.279 328.125 176.24 330.594 180.635 334.99C185.031 339.385 187.5 345.346 187.5 351.562Z" fill="black"/>
<path d="M296.875 351.562C296.875 359.288 299.166 366.841 303.458 373.264C307.75 379.688 313.851 384.695 320.989 387.652C328.127 390.608 335.981 391.382 343.558 389.874C351.136 388.367 358.096 384.647 363.559 379.184C369.022 373.721 372.742 366.761 374.249 359.183C375.757 351.606 374.983 343.752 372.027 336.614C369.07 329.476 364.063 323.375 357.639 319.083C351.216 314.791 343.663 312.5 335.938 312.5C325.577 312.5 315.642 316.616 308.316 323.941C300.991 331.267 296.875 341.202 296.875 351.562ZM359.375 351.562C359.375 356.198 358 360.729 355.425 364.584C352.85 368.438 349.189 371.442 344.907 373.216C340.624 374.99 335.912 375.454 331.365 374.55C326.819 373.645 322.642 371.413 319.365 368.135C316.087 364.858 313.855 360.681 312.95 356.135C312.046 351.588 312.51 346.876 314.284 342.593C316.058 338.311 319.062 334.65 322.916 332.075C326.771 329.5 331.302 328.125 335.938 328.125C342.154 328.125 348.115 330.594 352.51 334.99C356.906 339.385 359.375 345.346 359.375 351.562Z" fill="black"/>
<path d="M382.812 351.562C382.812 359.288 385.103 366.841 389.396 373.264C393.688 379.688 399.789 384.695 406.926 387.652C414.064 390.608 421.918 391.382 429.496 389.874C437.073 388.367 444.033 384.647 449.496 379.184C454.959 373.721 458.68 366.761 460.187 359.183C461.694 351.606 460.921 343.752 457.964 336.614C455.007 329.476 450.001 323.375 443.577 319.083C437.153 314.791 429.601 312.5 421.875 312.5C411.515 312.5 401.579 316.616 394.254 323.941C386.928 331.267 382.812 341.202 382.812 351.562ZM421.875 328.125C426.51 328.125 431.042 329.5 434.896 332.075C438.75 334.65 441.754 338.311 443.528 342.593C445.302 346.876 445.766 351.588 444.862 356.135C443.958 360.681 441.726 364.858 438.448 368.135C435.17 371.413 430.994 373.645 426.447 374.55C421.901 375.454 417.189 374.99 412.906 373.216C408.623 371.442 404.963 368.438 402.387 364.584C399.812 360.729 398.438 356.198 398.438 351.562C398.438 345.346 400.907 339.385 405.302 334.99C409.698 330.594 415.659 328.125 421.875 328.125Z" fill="black"/>
<path d="M39.0625 351.562C39.0625 359.288 41.3535 366.841 45.6457 373.264C49.938 379.688 56.0387 384.695 63.1764 387.652C70.3142 390.608 78.1683 391.382 85.7457 389.874C93.3231 388.367 100.283 384.647 105.746 379.184C111.209 373.721 114.93 366.761 116.437 359.183C117.944 351.606 117.171 343.752 114.214 336.614C111.257 329.476 106.251 323.375 99.827 319.083C93.4032 314.791 85.8508 312.5 78.125 312.5C67.765 312.5 57.8293 316.616 50.5036 323.941C43.178 331.267 39.0625 341.202 39.0625 351.562ZM101.562 351.562C101.563 356.198 100.188 360.729 97.6126 364.584C95.0372 368.438 91.3768 371.442 87.0941 373.216C82.8115 374.99 78.099 375.454 73.5526 374.55C69.0061 373.645 64.83 371.413 61.5522 368.135C58.2744 364.858 56.0422 360.681 55.1378 356.135C54.2335 351.588 54.6976 346.876 56.4716 342.593C58.2455 338.311 61.2495 334.65 65.1038 332.075C68.9581 329.5 73.4895 328.125 78.125 328.125C84.341 328.125 90.3024 330.594 94.6978 334.99C99.0932 339.385 101.562 345.346 101.562 351.562Z" fill="black"/>
<path d="M476.562 484.375V437.5C476.563 427.14 472.447 417.204 465.121 409.879C457.796 402.553 447.86 398.438 437.5 398.438H406.25C396.013 398.46 386.195 402.5 378.906 409.687C371.618 402.5 361.799 398.46 351.562 398.438H320.312C310.076 398.46 300.257 402.5 292.969 409.687C285.68 402.5 275.862 398.46 265.625 398.438H234.375C224.138 398.46 214.32 402.5 207.031 409.687C199.743 402.5 189.924 398.46 179.688 398.438H148.438C138.201 398.46 128.382 402.5 121.094 409.687C113.805 402.5 103.987 398.46 93.75 398.438H62.5C52.14 398.438 42.2043 402.553 34.8786 409.879C27.553 417.204 23.4375 427.14 23.4375 437.5V484.375C23.4375 486.447 24.2606 488.434 25.7257 489.899C27.1909 491.364 29.178 492.188 31.25 492.188H468.75C470.822 492.188 472.809 491.364 474.274 489.899C475.739 488.434 476.562 486.447 476.562 484.375ZM109.375 437.5V476.562H39.0625V437.5C39.0625 431.284 41.5318 425.323 45.9272 420.927C50.3226 416.532 56.284 414.062 62.5 414.062H93.75C97.3158 414.113 100.823 414.977 104.005 416.588C107.186 418.199 109.958 420.515 112.109 423.359C110.319 427.86 109.391 432.657 109.375 437.5ZM195.312 437.5V476.562H125V437.5C125 431.284 127.469 425.323 131.865 420.927C136.26 416.532 142.221 414.062 148.438 414.062H179.688C183.253 414.113 186.761 414.977 189.942 416.588C193.124 418.199 195.896 420.515 198.047 423.359C196.256 427.86 195.329 432.657 195.312 437.5ZM289.062 476.562H210.938V437.5C210.938 431.284 213.407 425.323 217.802 420.927C222.198 416.532 228.159 414.062 234.375 414.062H247.422L242.188 429.688L250 460.938L257.812 429.688L252.578 414.062H265.625C271.841 414.062 277.802 416.532 282.198 420.927C286.593 425.323 289.062 431.284 289.062 437.5V476.562ZM375 476.562H304.688V437.5C304.671 432.657 303.744 427.86 301.953 423.359C304.104 420.515 306.876 418.199 310.058 416.588C313.239 414.977 316.747 414.113 320.312 414.062H351.562C357.779 414.062 363.74 416.532 368.135 420.927C372.531 425.323 375 431.284 375 437.5V476.562ZM460.938 476.562H390.625V437.5C390.632 432.629 389.704 427.802 387.891 423.281C390.05 420.451 392.825 418.15 396.006 416.553C399.188 414.956 402.691 414.104 406.25 414.062H437.5C443.716 414.062 449.677 416.532 454.073 420.927C458.468 425.323 460.938 431.284 460.938 437.5V476.562Z" fill="black"/>
<path d="M148.438 164.062H164.062V179.688H148.438V164.062Z" fill="#E65402"/>
<path d="M148.438 195.312H164.062V210.938H148.438V195.312Z" fill="#E65402"/>
<path d="M148.438 226.562H164.062V242.188H148.438V226.562Z" fill="#E65402"/>
<path d="M210.938 125H226.562V140.625H210.938V125Z" fill="#E65402"/>
<path d="M210.938 156.25H226.562V171.875H210.938V156.25Z" fill="#E65402"/>
<path d="M210.938 187.5H226.562V203.125H210.938V187.5Z" fill="#E65402"/>
<path d="M242.188 125H257.812V140.625H242.188V125Z" fill="#E65402"/>
<path d="M226.562 70.3125H242.188V85.9375H226.562V70.3125Z" fill="#E65402"/>
<path d="M257.812 70.3125H273.438V85.9375H257.812V70.3125Z" fill="#E65402"/>
<path d="M242.188 156.25H257.812V171.875H242.188V156.25Z" fill="#E65402"/>
<path d="M242.188 187.5H257.812V203.125H242.188V187.5Z" fill="#E65402"/>
<path d="M273.438 125H289.062V140.625H273.438V125Z" fill="#E65402"/>
<path d="M273.438 156.25H289.062V171.875H273.438V156.25Z" fill="#E65402"/>
<path d="M273.438 187.5H289.062V203.125H273.438V187.5Z" fill="#E65402"/>
<path d="M335.938 164.062H351.562V179.688H335.938V164.062Z" fill="#E65402"/>
<path d="M335.938 195.312H351.562V210.938H335.938V195.312Z" fill="#E65402"/>
<path d="M335.938 226.562H351.562V242.188H335.938V226.562Z" fill="#E65402"/>
<path d="M296.875 46.875H203.125C201.053 46.875 199.066 47.6981 197.601 49.1632C196.136 50.6284 195.312 52.6155 195.312 54.6875V93.75H187.5C185.428 93.75 183.441 94.5731 181.976 96.0382C180.511 97.5034 179.688 99.4905 179.688 101.562V126.641L123.203 140.078C121.455 140.491 119.903 141.493 118.807 142.915C117.711 144.338 117.14 146.095 117.188 147.891V281.25H93.75V296.875H406.25V281.25H382.812V147.656C382.86 145.861 382.289 144.104 381.193 142.681C380.097 141.258 378.545 140.256 376.797 139.844L320.312 126.641V101.562C320.312 99.4905 319.489 97.5034 318.024 96.0382C316.559 94.5731 314.572 93.75 312.5 93.75H304.688V54.6875C304.688 52.6155 303.864 50.6284 302.399 49.1632C300.934 47.6981 298.947 46.875 296.875 46.875ZM179.688 281.25H164.062V257.812H148.438V281.25H132.812V153.828L179.688 142.734V281.25ZM320.312 142.734L367.188 153.828V281.25H351.562V257.812H335.938V281.25H320.312V142.734ZM210.938 62.5H289.062V93.75H210.938V62.5ZM265.625 281.25H234.375V234.375H265.625V281.25ZM304.688 281.25H281.25V226.562C281.25 224.49 280.427 222.503 278.962 221.038C277.497 219.573 275.51 218.75 273.438 218.75H226.562C224.49 218.75 222.503 219.573 221.038 221.038C219.573 222.503 218.75 224.49 218.75 226.562V281.25H195.312V109.375H304.688V281.25Z" fill="black"/>
<path d="M23.9062 234.922L8.28125 233.906C7.8125 239.219 7.8125 244.609 7.8125 250H23.4375C23.4375 244.922 23.4375 239.922 23.9062 234.922Z" fill="black"/>
<path d="M100.703 79.6094L90.3906 67.8125C82.4624 74.7641 74.9985 82.228 68.0469 90.1562L79.7656 100.547C86.2682 93.1069 93.2631 86.112 100.703 79.6094Z" fill="black"/>
<path d="M61.7188 123.984L48.75 115.234C42.9592 124.031 37.7401 133.19 33.125 142.656L47.1875 149.609C51.4671 140.76 56.3212 132.2 61.7188 123.984Z" fill="black"/>
<path d="M472.109 205.156L487.734 202.109C485.799 191.768 483.19 181.563 479.922 171.562L465.156 176.641C468.09 185.985 470.413 195.51 472.109 205.156Z" fill="black"/>
<path d="M35.4687 176.953L20.7031 171.875C17.3993 181.892 14.789 192.124 12.8906 202.5L28.5156 205.547C30.2025 195.873 32.5252 186.321 35.4687 176.953Z" fill="black"/>
<path d="M149.766 46.875L142.891 32.8906C133.424 37.5044 124.264 42.7235 115.469 48.5156L124.141 61.4844C132.364 56.0766 140.923 51.1969 149.766 46.875Z" fill="black"/>
<path d="M420.078 100.313L431.797 90C424.818 82.0711 417.328 74.6072 409.375 67.6562L399.141 79.4531C406.58 85.9287 413.575 92.8976 420.078 100.313Z" fill="black"/>
<path d="M327.578 20.5469C317.588 17.2432 307.381 14.6329 297.031 12.7344L293.984 28.3594C303.678 30.3271 313.231 32.937 322.578 36.1719L327.578 20.5469Z" fill="black"/>
<path d="M384.297 48.4375C375.501 42.6454 366.342 37.4262 356.875 32.8125L349.922 46.875C358.82 51.1986 367.408 56.1322 375.625 61.6406L384.297 48.4375Z" fill="black"/>
<path d="M467.031 142.344C462.428 132.896 457.208 123.762 451.406 115L438.438 123.75C443.883 131.938 448.789 140.472 453.125 149.297L467.031 142.344Z" fill="black"/>
<path d="M205.703 27.7344L202.656 12.1094C192.222 14.278 181.94 17.1225 171.875 20.625L176.953 35.3906C186.367 32.2392 195.969 29.6821 205.703 27.7344Z" fill="black"/>
<path d="M264.609 23.9062L265.625 8.28125C255.089 7.61711 244.521 7.61711 233.984 8.28125L235 23.9062C244.86 23.2822 254.749 23.2822 264.609 23.9062Z" fill="black"/>
<path d="M476.094 234.922C476.094 239.922 476.563 244.922 476.563 250H492.188C492.188 244.609 492.188 239.219 491.641 233.906L476.094 234.922Z" fill="black"/>
</svg>
