<svg xmlns="http://www.w3.org/2000/svg" id="Layer_1" data-name="Layer 1" viewBox="0 0 64 64" width="512" height="512"><path d="M16,33v7H12a1,1,0,0,0-1,1,21,21,0,0,0,42,0,1,1,0,0,0-1-1H48V33a3,3,0,0,0-3-3h-.382a4,4,0,1,0-5.236,0H39a2.981,2.981,0,0,0-2,.78A2.981,2.981,0,0,0,35,30h-.382a4,4,0,1,0-5.236,0H29a2.981,2.981,0,0,0-2,.78A2.981,2.981,0,0,0,25,30h-.786a3.962,3.962,0,0,0,1.394-3,4.034,4.034,0,0,0-8.067,0,3.961,3.961,0,0,0,1.4,3.006A3,3,0,0,0,16,33Zm5.545,23.85a19.143,19.143,0,0,1-4.918-4.7,31.464,31.464,0,0,1,5.212-1.425,24.794,24.794,0,0,0,2.278,5.571Q22.76,56.534,21.545,56.85ZM23.824,50.4a58.415,58.415,0,0,1,16.352,0,21.555,21.555,0,0,1-2.44,5.58,51.359,51.359,0,0,0-11.473,0A21.536,21.536,0,0,1,23.824,50.4ZM32,60a18.851,18.851,0,0,1-7.785-1.691c.545-.1,1.1-.194,1.681-.274a49.183,49.183,0,0,1,12.2,0c.581.081,1.14.175,1.687.275A18.855,18.855,0,0,1,32,60Zm10.455-3.15q-1.213-.315-2.572-.556a24.822,24.822,0,0,0,2.278-5.571,31.464,31.464,0,0,1,5.212,1.425A19.143,19.143,0,0,1,42.455,56.85ZM50.974,42a18.855,18.855,0,0,1-2.494,8.431,32.41,32.41,0,0,0-5.853-1.655A36.857,36.857,0,0,0,43.406,42ZM42,25a2,2,0,1,1-2,2A2,2,0,0,1,42,25Zm-4,8a1,1,0,0,1,1-1h6a1,1,0,0,1,1,1v7H38Zm-6-8a2,2,0,1,1-2,2A2,2,0,0,1,32,25Zm-4,8a1,1,0,0,1,1-1h6a1,1,0,0,1,1,1v7H28Zm13.406,9a34.677,34.677,0,0,1-.754,6.45,60.294,60.294,0,0,0-17.3,0A34.687,34.687,0,0,1,22.594,42ZM21.575,25a2,2,0,1,1-2.034,2A2.019,2.019,0,0,1,21.575,25ZM18,33a1,1,0,0,1,1-1h6a1,1,0,0,1,1,1v7H18Zm2.594,9a36.846,36.846,0,0,0,.779,6.775,32.512,32.512,0,0,0-5.853,1.656A18.855,18.855,0,0,1,13.026,42Z"/><path d="M23.059,13.1a1.72,1.72,0,0,0,.193,1.348l1.289,2.133a1.835,1.835,0,0,0,2.437.641l.376-.208a7.788,7.788,0,0,0,1.554.867v.349A1.788,1.788,0,0,0,30.711,20h2.578a1.788,1.788,0,0,0,1.8-1.768v-.349a7.816,7.816,0,0,0,1.554-.867l.377.208a1.833,1.833,0,0,0,2.436-.64l1.289-2.133a1.723,1.723,0,0,0,.193-1.349,1.786,1.786,0,0,0-.86-1.094l-.33-.181a7,7,0,0,0,0-1.654l.331-.182A1.783,1.783,0,0,0,40.941,8.9a1.72,1.72,0,0,0-.193-1.348L39.459,5.417a1.834,1.834,0,0,0-2.437-.641l-.376.208a7.788,7.788,0,0,0-1.554-.867V3.768A1.788,1.788,0,0,0,33.289,2H30.711a1.788,1.788,0,0,0-1.8,1.768v.349a7.816,7.816,0,0,0-1.554.867l-.377-.208a1.834,1.834,0,0,0-2.436.64L23.252,7.549A1.723,1.723,0,0,0,23.059,8.9a1.786,1.786,0,0,0,.86,1.094l.33.181a7,7,0,0,0,0,1.654l-.331.182A1.783,1.783,0,0,0,23.059,13.1ZM26.2,11a5.273,5.273,0,0,1,.053-.737,1.754,1.754,0,0,0-.9-1.765L25.1,8.359l1.057-1.751.324.179a1.856,1.856,0,0,0,1.99-.143,5.893,5.893,0,0,1,1.284-.713,1.786,1.786,0,0,0,1.153-1.648V4h2.184v.283a1.786,1.786,0,0,0,1.153,1.648,5.863,5.863,0,0,1,1.283.713,1.858,1.858,0,0,0,1.991.143l.324-.179L38.9,8.359l-.252.139a1.755,1.755,0,0,0-.9,1.766,5.144,5.144,0,0,1,0,1.473,1.754,1.754,0,0,0,.9,1.765l.251.139-1.057,1.751-.324-.179a1.861,1.861,0,0,0-1.99.143,5.893,5.893,0,0,1-1.284.713,1.786,1.786,0,0,0-1.153,1.648V18H30.908v-.283a1.786,1.786,0,0,0-1.153-1.648,5.863,5.863,0,0,1-1.283-.713,1.864,1.864,0,0,0-1.991-.143l-.324.179L25.1,13.641l.252-.139a1.755,1.755,0,0,0,.9-1.766A5.247,5.247,0,0,1,26.2,11Z" style="&#10;    fill: #e65402;&#10;"/><path d="M32,15a4,4,0,1,0-4-4A4,4,0,0,0,32,15Zm0-6a2,2,0,1,1-2,2A2,2,0,0,1,32,9Z" style="&#10;    fill: #e65402;&#10;"/><path d="M42.8,7,42.961,9c6.249-.508,11.171,1.162,13.852,4.71,4.173,5.522,2.268,14.812-4.853,23.668l1.559,1.252c7.714-9.593,9.634-19.848,4.89-26.126C55.3,8.386,49.758,6.432,42.8,7Z" style="&#10;    fill: #e65402;&#10;"/><path d="M13.771,56.59l.458-1.947a11.916,11.916,0,0,1-7.042-4.291,12.368,12.368,0,0,1-2.008-9.433C6.291,33.231,12.466,24.4,21.3,17.878q.634-.469,1.276-.914l-1.142-1.643c-.443.309-.885.624-1.323.949C10.724,23.2,4.4,32.311,3.2,40.633A14.309,14.309,0,0,0,5.591,51.558,13.863,13.863,0,0,0,13.771,56.59Z" style="&#10;    fill: #e65402;&#10;"/></svg>