<svg width="266" height="266" viewBox="0 0 266 266" fill="none" xmlns="http://www.w3.org/2000/svg">
<path d="M169.386 6.1476C165.484 2.18307 160.294 0 154.768 0C150.052 0 145.578 1.5908 141.944 4.52095C138.31 1.58976 133.837 0 129.122 0C123.596 0 118.405 2.18307 114.504 6.14708C110.619 10.0945 108.48 15.3376 108.48 20.9111C108.48 26.4846 110.619 31.7272 114.503 35.673L136.875 58.4253C138.206 59.7777 140.053 60.5533 141.944 60.5533C143.835 60.5533 145.682 59.7777 147.016 58.4238L169.385 35.6746C173.27 31.7272 175.411 26.4846 175.411 20.9111C175.411 15.3381 173.271 10.095 169.386 6.1476ZM163.829 30.2091L141.944 52.4658L120.058 30.2081C117.617 27.7278 116.273 24.4262 116.273 20.9111C116.273 17.396 117.617 14.0938 120.059 11.6131C122.482 9.14945 125.701 7.79295 129.122 7.79295C132.542 7.79295 135.76 9.14945 138.184 11.6125L139.166 12.6116C139.899 13.3561 140.899 13.7753 141.943 13.7759H141.944C142.989 13.7759 143.989 13.3571 144.721 12.6132L145.705 11.6141C148.129 9.14945 151.347 7.79295 154.768 7.79295C158.188 7.79295 161.406 9.14945 163.83 11.6136C166.271 14.0949 167.617 17.3965 167.617 20.9111C167.617 24.4257 166.272 27.7273 163.829 30.2091Z" fill="#E65402"/>
<path d="M76.2873 110.277H75.3038V105.611C75.3038 103.459 73.5592 101.714 71.4073 101.714C69.2554 101.714 67.5109 103.459 67.5109 105.611V112.088C67.5114 115.386 70.1838 118.069 73.4688 118.069H76.2873C78.4392 118.069 80.1838 116.325 80.1838 114.173C80.1838 112.021 78.4392 110.277 76.2873 110.277Z" fill="black"/>
<path d="M55.0702 96.3022C52.9183 96.3022 51.1737 98.0468 51.1737 100.199V105.065C51.1737 107.217 52.9183 108.962 55.0702 108.962C57.2221 108.962 58.9667 107.217 58.9667 105.065V100.199C58.9667 98.0468 57.2221 96.3022 55.0702 96.3022Z" fill="black"/>
<path d="M89.2584 96.3022C87.1065 96.3022 85.3619 98.0468 85.3619 100.199V105.065C85.3619 107.217 87.1065 108.962 89.2584 108.962C91.4103 108.962 93.1549 107.217 93.1549 105.065V100.199C93.1549 98.0468 91.4103 96.3022 89.2584 96.3022Z" fill="black"/>
<path d="M86.3714 124.389C84.3727 123.589 82.1055 124.56 81.306 126.558C79.8726 130.139 76.4665 132.453 72.6293 132.453C68.791 132.453 65.3844 130.139 63.9511 126.558C63.151 124.56 60.8837 123.59 58.8856 124.389C56.888 125.189 55.9165 127.457 56.7166 129.455C59.3413 136.01 65.5876 140.246 72.6298 140.246C79.67 140.246 85.9158 136.01 88.5404 129.455C89.3405 127.457 88.369 125.189 86.3714 124.389Z" fill="black"/>
<path d="M189.473 128.424V127.361C189.473 125.209 187.729 123.465 185.576 123.465C183.424 123.465 181.68 125.209 181.68 127.361V130.339C181.68 133.539 184.272 136.141 187.46 136.141H188.702C190.854 136.141 192.598 134.396 192.598 132.244C192.598 130.356 191.256 128.782 189.473 128.424Z" fill="black"/>
<path d="M170.65 115.581C168.498 115.581 166.754 117.326 166.754 119.477V123.924C166.754 126.075 168.498 127.82 170.65 127.82C172.802 127.82 174.547 126.075 174.547 123.924V119.477C174.547 117.326 172.802 115.581 170.65 115.581Z" fill="black"/>
<path d="M201.886 115.581C199.733 115.581 197.989 117.326 197.989 119.477V123.924C197.989 126.075 199.733 127.82 201.886 127.82C204.038 127.82 205.782 126.075 205.782 123.924V119.477C205.782 117.326 204.038 115.581 201.886 115.581Z" fill="black"/>
<path d="M199.373 141.267C197.376 140.467 195.107 141.437 194.307 143.435C193.049 146.578 190.059 148.609 186.692 148.609C183.324 148.609 180.335 146.578 179.076 143.435C178.276 141.437 176.009 140.465 174.01 141.267C172.013 142.067 171.042 144.334 171.841 146.332C174.291 152.449 180.12 156.401 186.692 156.401C193.263 156.401 199.092 152.449 201.542 146.332C202.341 144.334 201.37 142.067 199.373 141.267Z" fill="black"/>
<path d="M260.53 258.686L233.231 142.003C235.582 139.863 237.061 136.78 237.061 133.358V126.373C237.061 120.433 232.606 115.518 226.863 114.782C226.863 114.782 224.194 103.459 224.112 103.226V101.822C224.112 80.7282 207.135 63.5676 186.267 63.5676C174.51 63.5676 163.989 69.0165 157.043 77.5461C155.277 76.7814 153.337 76.3486 151.296 76.3486C143.215 76.3486 136.642 82.9815 136.642 91.1344C136.642 92.6946 136.884 94.1986 137.331 95.6123C133.89 98.3195 131.669 102.533 131.669 107.266C131.669 112.235 134.114 116.637 137.85 119.319C136.36 121.281 135.474 123.726 135.474 126.374V133.358C135.474 136.962 137.114 140.189 139.686 142.335L133.91 168.885C131.552 166.96 128.556 165.8 125.293 165.8H106.702V162.374C106.702 159.621 104.623 157.463 101.969 157.463C101.189 157.463 100.421 157.647 99.6854 158.009L89.5067 163.024V153.977C100.281 148.818 108.47 139.013 111.521 127.133H115.153C121.599 127.133 126.843 121.89 126.843 115.444V108.459C126.843 102.013 121.599 96.7693 115.153 96.7693H112.821V94.6662V51.3857C112.821 47.2554 109.48 43.8956 105.373 43.8956H72.8142C66.8573 43.8956 61.5425 46.7089 58.0933 51.0839H50.3196C39.9472 51.0839 31.5085 59.6031 31.5085 70.0753V94.6662V96.7693H29.1768C22.731 96.7693 17.4874 102.013 17.4874 108.459V115.444C17.4874 121.89 22.731 127.133 29.1768 127.133H32.8083C35.859 139.013 44.0484 148.817 54.8229 153.977V163.025L44.6432 158.01C43.9081 157.647 43.1397 157.463 42.3594 157.463C39.7056 157.463 37.6265 159.62 37.6265 162.374V165.8H19.0361C11.4629 165.8 5.3018 172.015 5.3018 179.655V258.784C5.3018 262.763 8.52133 266 12.4786 266H254.73C256.607 266 258.326 265.192 259.444 263.782C260.561 262.372 260.957 260.515 260.53 258.686ZM112.821 116.812V104.562H115.153C117.302 104.562 119.05 106.31 119.05 108.459V115.444C119.05 117.593 117.302 119.34 115.153 119.34H112.736C112.786 118.503 112.821 117.662 112.821 116.812ZM29.1768 119.34C27.0286 119.34 25.2803 117.593 25.2803 115.444V108.459C25.2803 106.31 27.0286 104.562 29.1768 104.562H31.5085V116.812C31.5085 117.662 31.5422 118.503 31.5932 119.34H29.1768ZM224.112 122.477H225.372C227.519 122.477 229.268 124.224 229.268 126.373V133.358C229.268 135.506 227.52 137.254 225.371 137.254H224.104C224.105 137.128 224.112 122.477 224.112 122.477ZM186.267 71.3606C198.956 71.3606 209.826 79.3764 214.225 90.6721C207.299 82.996 197.33 78.1716 186.267 78.1716C175.204 78.1716 165.236 82.9965 158.31 90.6721C162.709 79.3764 173.579 71.3606 186.267 71.3606ZM213.857 104.365C208.366 103.521 203.337 101.18 199.219 97.7096C200.744 95.7255 202.083 93.5747 203.209 91.283C207.87 94.5213 211.588 99.0526 213.857 104.365ZM196.294 87.7144C191.289 98.0198 180.859 104.726 169.331 104.726H158.526C163.06 93.7201 173.785 85.9651 186.267 85.9651C189.782 85.9646 193.156 86.5854 196.294 87.7144ZM151.297 84.141C151.762 84.141 152.216 84.1888 152.655 84.2792C150.568 88.3472 149.181 92.8364 148.66 97.588C146.182 96.5329 144.435 94.0381 144.435 91.1339C144.435 87.2785 147.513 84.141 151.297 84.141ZM148.434 137.254H147.164C145.015 137.254 143.267 135.506 143.267 133.358V126.373C143.267 124.224 145.015 122.477 147.164 122.477H148.424C148.424 122.477 148.432 137.128 148.434 137.254ZM139.462 107.266C139.462 105.275 140.285 103.48 141.6 102.206C143.323 103.745 145.407 104.883 147.706 105.469L145.8 114.232C142.261 113.957 139.462 110.942 139.462 107.266ZM98.9092 167.079V182.272L84.4637 175.154V174.197L98.9092 167.079ZM61.7955 62.8876C61.7955 56.7124 66.7383 51.6886 72.8142 51.6886H105.028V73.9198C103.618 72.516 102.031 71.238 100.242 70.1054C93.4718 65.8172 84.0252 63.6425 72.1648 63.6425C68.4715 63.6425 65.013 63.8539 61.7955 64.2737V62.8876ZM39.3014 70.0753C39.3014 63.9001 44.2442 58.8768 50.3196 58.8768H54.4286C54.1522 60.1704 54.0026 61.5113 54.0026 62.8871V65.8354C50.2417 66.8859 46.926 68.3068 44.0868 70.1054C42.2986 71.238 40.7109 72.516 39.3014 73.9198V70.0753ZM39.3014 116.812V94.6662C39.3014 86.3859 42.2305 80.5054 48.2566 76.6889C53.7605 73.2029 61.8044 71.4354 72.1648 71.4354C82.5248 71.4354 90.5687 73.2029 96.0726 76.6889C102.099 80.5054 105.028 86.3859 105.028 94.6662V116.812C105.028 135.178 90.2855 150.12 72.1648 150.12C54.0436 150.12 39.3014 135.178 39.3014 116.812ZM65.3195 162.656C64.335 162.656 63.4133 162.922 62.6153 163.38V156.757C65.68 157.506 68.8757 157.913 72.1648 157.913C75.454 157.913 78.6491 157.506 81.7143 156.757V163.38C80.9158 162.922 79.9941 162.656 79.0091 162.656H65.3195ZM76.6712 170.449V179.528H67.6574V170.449H76.6712ZM45.4189 167.08L59.8644 174.198V175.155L45.4189 182.274V167.08ZM13.0942 258.207V179.654C13.0942 176.312 15.7594 173.593 19.0356 173.593H37.6254V173.849L23.6994 187.941C22.4806 189.174 21.8161 190.81 21.8291 192.548C21.8421 194.286 22.5305 195.912 23.7675 197.127L36.8601 209.985L28.8963 217.808C27.6567 219.025 26.9579 220.714 26.9782 222.442C26.9989 224.169 27.7377 225.841 29.0059 227.028L62.3026 258.207H13.0942ZM35.4023 222.341L43.2982 214.586C44.5435 213.364 45.2293 211.73 45.2293 209.986C45.2298 208.242 44.544 206.609 43.2987 205.386L30.1644 192.486L37.6259 184.936V186.978C37.6259 189.731 39.7051 191.889 42.3594 191.889C43.1392 191.889 43.9071 191.706 44.6427 191.343L45.1316 191.102L64.3262 249.425L35.4023 222.341ZM84.1462 224.372C82.1008 223.699 79.8996 224.811 79.2268 226.855L72.1648 248.314L52.1915 187.623L60.1891 183.683C60.6375 184.943 61.5269 185.996 62.6824 186.638V207.537C62.6824 209.689 64.4269 211.434 66.5788 211.434C68.7307 211.434 70.4753 209.689 70.4753 207.537V187.321H73.8543V207.537C73.8543 209.689 75.5989 211.434 77.7508 211.434C79.9027 211.434 81.6473 209.689 81.6473 207.537V186.637C82.8027 185.995 83.6916 184.942 84.14 183.682L92.1387 187.623L85.3822 208.153C84.7094 210.197 85.8212 212.4 87.865 213.072C89.9083 213.745 92.1112 212.633 92.7845 210.59L99.1981 191.102L99.6854 191.342C100.421 191.705 101.189 191.888 101.97 191.888C104.623 191.888 106.702 189.731 106.702 186.977V184.936L114.164 192.486L101.03 205.386C99.7846 206.609 99.0988 208.243 99.0994 209.986C99.0994 211.73 99.7851 213.364 101.03 214.586L108.927 222.341L80.0035 249.425L86.6291 229.292C87.3019 227.247 86.1901 225.045 84.1462 224.372ZM82.0265 258.207L115.322 227.028C116.59 225.841 117.33 224.169 117.35 222.442C117.371 220.714 116.672 219.025 115.432 217.807L107.467 209.985L120.56 197.127C121.797 195.912 122.485 194.286 122.498 192.548C122.511 190.81 121.847 189.173 120.628 187.941L106.702 173.849V173.593H125.293C128.569 173.593 131.234 176.312 131.234 179.654V181.186L114.48 258.207H82.0265ZM138.116 258.207H122.455L147.071 145.045C147.102 145.045 147.133 145.047 147.164 145.047H149.302C152.068 157.851 161.19 168.279 173.15 172.761V182.809H170.286C152.548 182.809 138.116 197.394 138.116 215.321V258.207ZM226.626 258.207H221.43V249.375C221.43 247.223 219.686 245.478 217.534 245.478C215.381 245.478 213.637 247.223 213.637 249.375V258.207H158.898V223.658C158.898 217.069 164.258 211.709 170.847 211.709C176.419 211.709 181.2 215.492 182.475 220.909C182.889 222.67 184.459 223.913 186.268 223.913C188.076 223.913 189.647 222.669 190.061 220.909C191.335 215.492 196.116 211.709 201.688 211.709C208.278 211.709 213.638 217.069 213.638 223.658V230.671C213.638 232.823 215.382 234.568 217.534 234.568C219.686 234.568 221.431 232.823 221.431 230.671V223.658C221.431 212.772 212.574 203.916 201.688 203.916C195.507 203.916 189.914 206.736 186.268 211.3C182.622 206.735 177.029 203.916 170.847 203.916C159.961 203.916 151.105 212.772 151.105 223.658V258.207H145.91V215.322C145.91 201.692 156.845 190.602 170.287 190.602H177.047C179.199 190.602 180.944 188.858 180.944 186.706V174.748C182.684 174.997 184.46 175.134 186.268 175.134C188.066 175.134 189.842 175.002 191.591 174.754V186.705C191.591 188.857 193.335 190.602 195.487 190.602H202.248C215.69 190.602 226.626 201.691 226.626 215.321V258.207ZM234.418 258.207V215.322C234.418 197.394 219.987 182.809 202.248 182.809H199.383V172.778C202.85 171.482 206.132 169.669 209.147 167.353C210.854 166.042 211.174 163.595 209.863 161.889C208.552 160.183 206.108 159.862 204.399 161.173C199.147 165.208 192.877 167.341 186.267 167.341C169.697 167.341 156.217 153.675 156.217 136.878V116.427C156.217 115.102 156.31 113.799 156.472 112.518H169.33C178.519 112.518 187.144 109.141 193.84 103.385C199.923 108.638 207.647 111.911 216.052 112.436C216.222 113.743 216.319 115.073 216.319 116.427V136.878C216.319 140.79 215.598 144.597 214.178 148.193C213.388 150.195 214.37 152.458 216.371 153.248C218.373 154.039 220.636 153.058 221.426 151.055C222.199 149.098 222.797 147.09 223.237 145.047H225.371C225.56 145.047 225.749 145.041 225.936 145.032L252.414 258.207H234.418Z" fill="black"/>
</svg>
