<svg xmlns="http://www.w3.org/2000/svg" id="Capa_1" enable-background="new 0 0 512 512" height="512" viewBox="0 0 512 512" width="512"><g id="Outline_00000088821320546574498340000007211615736599542405_"><path d="m60.807 228.271 14.825-2.281c-1.415-9.193-2.132-18.61-2.132-27.99 0-100.631 81.869-182.5 182.5-182.5 5.577 0 11.201.254 16.718.755l1.357-14.938c-5.966-.542-12.047-.817-18.075-.817-108.902 0-197.5 88.598-197.5 197.5 0 10.141.776 20.326 2.307 30.271z"/><path d="m428.02 259.107c-13.056 36.749-38.184 68.975-70.755 90.74-10.558 7.055-19.263 16.183-25.732 26.652h-151.065c-6.469-10.47-15.174-19.597-25.732-26.652-38.617-25.805-65.732-64.772-76.351-109.724l-14.599 3.448c11.494 48.655 40.834 90.827 82.615 118.747 20.099 13.432 32.099 35.933 32.099 60.192v31.49c0 14.32 11.004 26.113 25 27.381v2.619c0 15.164 12.336 27.5 27.5 27.5h50c15.163 0 27.5-12.336 27.5-27.5v-2.619c13.995-1.268 25-13.061 25-27.381v-31.49c0-24.258 11.999-46.759 32.099-60.19 35.238-23.548 62.426-58.419 76.556-98.19zm-109.52 194.893c0 6.893-5.607 12.5-12.5 12.5h-52.818v15h40.318v2.5c0 6.893-5.607 12.5-12.5 12.5h-50c-6.893 0-12.5-5.607-12.5-12.5v-2.5h19.682v-15h-32.182c-6.893 0-12.5-5.607-12.5-12.5v-2.5h125zm0-31.49v13.99h-125v-13.99c0-.337-.012-.673-.016-1.01h125.031c-.003.337-.015.672-.015 1.01zm1.467-16.01h-127.934c-.951-5.143-2.359-10.16-4.188-15h136.31c-1.829 4.84-3.237 9.857-4.188 15z"/><path d="m438.5 198c0 16.06-2.087 31.992-6.202 47.354l14.488 3.882c4.455-16.627 6.714-33.865 6.714-51.235 0-46.884-16.716-92.334-47.07-127.98-30.01-35.241-71.527-58.924-116.903-66.685l-2.529 14.785c87.787 15.015 151.503 90.665 151.502 179.879z"/><path d="m0 193.5h38v15h-38z"/><path d="m474 193.5h38v15h-38z"/><path d="m14.293 274.559h38v15h-38z" transform="matrix(.94 -.342 .342 .94 -94.454 28.393)"/><path d="m459.707 112.441h38.001v15h-38.001z" transform="matrix(.94 -.342 .342 .94 -12.151 170.974)"/><path d="m55.447 345.841h38v15h-38z" transform="matrix(.766 -.643 .643 .766 -209.698 130.51)"/><path d="m418.553 41.159h38v15h-38z" transform="matrix(.766 -.643 .643 .766 71.104 292.659)"/><path d="m471.207 263.059h15v38.001h-15z" transform="matrix(.342 -.94 .94 .342 49.935 635.431)"/><path d="m25.793 100.941h15v38h-15z" transform="matrix(.342 -.94 .94 .342 -90.802 110.205)"/><path d="m430.053 334.341h15v38h-15z" transform="matrix(.643 -.766 .766 .643 -114.376 461.401)"/><path d="m66.947 29.659h15v38h-15z" transform="matrix(.643 -.766 .766 .643 -10.681 74.412)"/><path d="m230.737 67.5c-17.42 0-33.152 9.976-40.708 25.32-16.752 1.43-29.949 15.496-29.949 32.58 0 .328.006.656.018.984-18.451 5.897-31.597 23.267-31.597 43.116 0 12.775 5.267 24.619 14.424 33.092-5.225 6.738-8.108 14.98-8.108 23.608 0 12.138 5.647 23.346 15.111 30.653-1.633 4.332-2.479 8.885-2.479 13.447 0 18.913 13.808 34.945 32.149 38.241 9.155 15.898 26.315 25.959 44.825 25.959 11.588 0 22.571-3.774 31.579-10.749 9.008 6.975 19.99 10.749 31.579 10.749 18.51 0 35.669-10.062 44.824-25.959 18.342-3.296 32.149-19.328 32.149-38.241 0-4.562-.847-9.115-2.479-13.447 9.463-7.307 15.111-18.516 15.111-30.653 0-8.627-2.884-16.87-8.108-23.608 9.157-8.473 14.424-20.316 14.424-33.092 0-19.85-13.144-37.219-31.597-43.116.012-.329.018-.656.018-.984 0-17.085-13.195-31.152-29.949-32.58-7.557-15.344-23.288-25.32-40.709-25.32-9.042 0-17.813 2.703-25.263 7.706-7.451-5.003-16.223-7.706-25.265-7.706zm17.763 242.991c-6.685 5.825-15.125 9.009-24.079 9.009-10.629 0-20.631-4.678-27.506-12.443 3.964-1.388 8.241-3.699 11.919-7.545 6.559-6.858 9.295-16.522 8.133-28.723l-14.933 1.422c.726 7.618-.611 13.292-3.973 16.862-4.663 4.954-12.3 5.037-13.221 5.024-12.563-.883-22.393-11.319-22.393-23.797 0-4.284 1.189-8.422 3.533-12.301l4.163-6.886-7.162-3.669c-8.121-4.16-13.166-12.3-13.166-21.244 0-7.069 3.209-13.739 8.809-18.365 1.277-.756 7.664-4.211 14.828-2.345 6.557 1.708 12.41 7.42 17.397 16.979l13.299-6.938c-7.094-13.596-16.245-21.882-27.2-24.629-9.169-2.299-17.282.007-22.161 2.116-7.131-5.724-11.288-14.257-11.288-23.518 0-14.997 11.237-27.877 26.139-29.961l.045-.006c.645-.086 15.162-1.812 24.305 14.188l13.023-7.442c-9.54-16.696-23.356-20.806-31.894-21.635.401-9.385 8.148-16.907 17.655-16.944.129.012.255.033.383.05.392.053.784.104 1.182.137l5.8.489 1.913-5.497c4.242-12.189 15.771-20.379 28.687-20.379 6.397 0 12.594 2.033 17.763 5.768zm15-222.223c5.169-3.735 11.366-5.768 17.763-5.768 12.916 0 24.445 8.19 28.688 20.379l1.913 5.497 5.801-.489c.397-.034.789-.084 1.18-.137.128-.018.255-.039.384-.05 9.506.037 17.254 7.559 17.654 16.944-8.538.829-22.354 4.939-31.894 21.635l13.023 7.442c9.131-15.979 23.62-14.28 24.301-14.189l.048.007c14.901 2.084 26.139 14.964 26.139 29.961 0 9.26-4.156 17.793-11.288 23.517-4.879-2.109-12.993-4.416-22.163-2.115-10.954 2.747-20.105 11.033-27.199 24.629l13.299 6.938c4.987-9.559 10.84-15.271 17.397-16.979 7.163-1.866 13.549 1.588 14.828 2.344 5.6 4.626 8.81 11.296 8.81 18.365 0 8.944-5.045 17.084-13.166 21.244l-7.163 3.669 4.165 6.888c2.345 3.877 3.533 8.015 3.533 12.3 0 12.477-9.827 22.912-22.388 23.797-.886.012-8.548-.055-13.225-5.023-3.362-3.571-4.699-9.244-3.974-16.862l-14.932-1.422c-1.162 12.201 1.574 21.865 8.132 28.723 3.678 3.846 7.955 6.158 11.919 7.545-6.876 7.764-16.877 12.443-27.506 12.443-8.953 0-17.394-3.185-24.079-9.01z" style="&#10;    fill: #e65402;&#10;"/><path d="m408.5 209h15v15h-15z" style="&#10;    fill: #e65402;&#10;"/><path d="m408.5 178h15v15h-15z" style="&#10;    fill: #e65402;&#10;"/></g></svg>