<svg id="glphy" viewBox="0 0 64 64" xmlns="http://www.w3.org/2000/svg"><circle cx="32" cy="11.82" r="7.82"/><path d="m18.36 37.15h27.28a1 1 0 0 0 1-1v-7.64a7.11 7.11 0 0 0 -7.88-7 11.9 11.9 0 0 1 -13.52 0h-.88a7 7 0 0 0 -7 7v7.64a1 1 0 0 0 1 1z"/><path d="m22.13 50.26-3.38-.26-1.34-2s-.06-.07-.08-.11l-.7-1.06a1 1 0 0 0 -1.67 0l-2.12 3.17-3.38.26a1 1 0 0 0 -.86.62 1 1 0 0 0 .19 1l2.62 2.87-1.05 3.94a1 1 0 0 0 1.43 1.14l4-2.13 4 2.13a1 1 0 0 0 1.44-1.14l-1-3.94c.53-.59 2.1-2.33 2.61-2.87a1 1 0 0 0 -.71-1.62z"/><path d="m9.73 47.85a1 1 0 0 0 .85-1.53c-8.03-12.32-2.58-30.23 10.94-36.09a1 1 0 0 0 -.84-1.82 27.26 27.26 0 0 0 -15.87 24.71 27 27 0 0 0 4.07 14.26 1 1 0 0 0 .85.47z"/><path d="m42.48 10.23c13.52 5.86 18.97 23.77 10.94 36.09a1 1 0 0 0 1.7 1.06 27 27 0 0 0 4.07-14.26 27.26 27.26 0 0 0 -15.87-24.71 1 1 0 0 0 -.84 1.82z"/><path d="m38.64 53.93-1.22-4.6 3.58-3.91a1 1 0 0 0 -.67-1.67l-4.6-.35-2.86-4.29a1 1 0 0 0 -1.66 0l-2.9 4.29-4.6.35a1 1 0 0 0 -.71 1.67l3.54 3.91-1.22 4.6-.2.74a1 1 0 0 0 .88 1.25c.46.13 1.28-.51 1.67-.66l4.33-2.33 5.4 2.88a1 1 0 0 0 1.44-1.14z"/><path d="m51 44.75a1 1 0 0 0 .87-.5 22.6 22.6 0 0 0 2.91-11.13 22.91 22.91 0 0 0 -11.4-19.77 1 1 0 0 0 -1 1.73c9.68 5.38 13.36 18.64 7.75 28.18a1 1 0 0 0 .87 1.49z"/><path d="m21.58 15.08a1 1 0 0 0 -1-1.73 22.91 22.91 0 0 0 -11.4 19.77 22.6 22.6 0 0 0 2.91 11.13 1 1 0 0 0 1.74-1c-5.61-9.53-1.93-22.79 7.75-28.17z"/><path d="m54.54 50.26-3.35-.26-2.19-3.18a1 1 0 0 0 -1.67 0l-.74 1.11a.62.62 0 0 0 -.08.12l-1.26 1.95-3.38.26a1 1 0 0 0 -.86.62c-.37.73.59 1.42 1 1.91l1.82 2c-.19.73-.84 3.16-1.05 3.94a1 1 0 0 0 1.44 1.14l4-2.13 4 2.13a1 1 0 0 0 1.43-1.14l-1-3.94 2.62-2.87a1 1 0 0 0 -.73-1.66z"/></svg>