<svg id="Capa_1" enable-background="new 0 0 511.905 511.905" height="512" viewBox="0 0 511.905 511.905" width="512" xmlns="http://www.w3.org/2000/svg"><g><path d="m30.972 160.571h-16.067c-19.881.738-19.866 29.269 0 30h16.067c19.881-.737 19.866-29.269 0-30z"/><path d="m416.572 190.571h16.066c19.881-.738 19.866-29.269 0-30h-16.066c-19.881.738-19.866 29.27 0 30z"/><path d="m223.772 45.972c8.284 0 15-6.716 15-15v-16.067c-.738-19.881-29.269-19.866-30 0v16.067c0 8.284 6.715 15 15 15z"/><path d="m89.778 52.499-16.066-16.067c-5.858-5.857-15.355-5.858-21.213 0s-5.858 15.355 0 21.213l16.066 16.067c5.859 5.859 15.356 5.856 21.213 0 5.858-5.858 5.858-15.355 0-21.213z"/><path d="m378.978 73.712 16.066-16.067c5.858-5.858 5.858-15.355 0-21.213-5.857-5.857-15.355-5.858-21.213 0l-16.066 16.067c-5.858 5.858-5.858 15.355 0 21.213 5.859 5.859 15.357 5.857 21.213 0z"/><path d="m224.838 392.465v-30.675c0-14.895 7.594-28.242 19.295-36.093-2.721-13.824 1.348-28.632 11.879-39.163l30.523-30.522c10.123-10.239 25.064-14.744 39.165-11.883 7.852-11.699 21.197-19.291 36.09-19.291h5.499c.663-79.507-64.018-144.636-143.517-144.6-140.199 4.662-188.568 165.217-94.534 253.183 17.512 19.727 31.345 35.309 31.333 59.043h64.267z"/><path d="m383.371 358.205c-13.877 0-25.167 11.29-25.167 25.167 1.265 33.341 49.074 33.332 50.334 0 0-13.877-11.29-25.167-25.167-25.167z"/><path d="m500.138 348.461-16.385-2.046c-.983-2.669-2.074-5.299-3.27-7.883l10.141-13.04c4.158-5.348 3.684-12.955-1.105-17.745l-30.524-30.523c-4.79-4.79-12.397-5.263-17.745-1.105l-13.04 10.141c-2.585-1.196-5.215-2.287-7.882-3.27l-2.046-16.385c-.84-6.723-6.554-11.768-13.329-11.768h-43.163c-6.775 0-12.49 5.045-13.329 11.768l-2.046 16.384c-2.668.983-5.299 2.074-7.884 3.27l-13.04-10.141c-5.346-4.158-12.952-3.685-17.744 1.105l-30.523 30.523c-4.79 4.79-5.264 12.396-1.105 17.744l10.142 13.04c-1.196 2.586-2.288 5.216-3.271 7.883l-16.385 2.046c-6.723.84-11.768 6.554-11.768 13.329v43.163c0 6.775 5.045 12.489 11.768 13.329l16.384 2.046c.983 2.668 2.074 5.299 3.271 7.884l-10.141 13.039c-4.159 5.347-3.685 12.955 1.105 17.744l30.523 30.523c4.791 4.791 12.397 5.264 17.744 1.105l13.041-10.141c2.586 1.196 5.216 2.287 7.883 3.27l2.046 16.384c.839 6.723 6.554 11.768 13.329 11.768h43.163c6.775 0 12.489-5.045 13.329-11.768l2.046-16.384c2.668-.983 5.299-2.074 7.883-3.27l13.039 10.14c5.349 4.159 12.954 3.685 17.745-1.105l30.524-30.524c4.79-4.79 5.264-12.397 1.105-17.744l-10.142-13.04c1.196-2.586 2.287-5.215 3.271-7.882l16.384-2.046c6.723-.839 11.768-6.554 11.768-13.329v-43.16c0-6.775-5.045-12.489-11.767-13.329zm-116.767 90.077c-30.419 0-55.167-24.748-55.167-55.167 2.773-73.086 107.572-73.066 110.334.001 0 30.419-24.748 55.166-55.167 55.166z"/><path d="m244.133 441.047c-6.827-4.581-12.241-11.042-15.579-18.582h-67.983v18.207c0 28.058 21.06 51.273 48.2 54.711v1.522c.738 19.881 29.269 19.866 30 0v-1.522c8.642-1.095 16.663-4.202 23.589-8.825l-6.349-6.349c-10.53-10.533-14.599-25.339-11.878-39.162z"/></g></svg>