<svg id="Layer_1" enable-background="new 0 0 512 512" viewBox="0 0 512 512" xmlns="http://www.w3.org/2000/svg"><path clip-rule="evenodd" d="m367.99 242.1c-3.83-30.9-19.84-57.35-42.66-75.09-22.79-17.77-52.33-26.84-83.22-22.99-30.93 3.83-57.34 19.84-75.12 42.63-17.75 22.79-26.82 52.36-22.99 83.23v.03c3.86 30.9 19.87 57.35 42.66 75.09 22.79 17.77 52.33 26.84 83.23 22.99 30.93-3.83 57.37-19.84 75.12-42.63 17.74-22.83 26.81-52.37 22.98-83.26zm-93.77-9.93c1.56 11.68-7.94 13.04-11.14 15.36-19.64 14.09 25.57 38.38 34.24 33.85 6.8-3.54 12.1-35.26 19.84-4.42 3.49 13.92 8.33 26.93 13.97 39.43-15.11 18.79-37.25 31.95-63.04 35.21-.14.03-.28.06-.45.06-15.96 1.96-31.46-.11-45.55-5.41 2.13-4.14 4.82-7.74 8.53-10.32 26.59-22.08 38.27-51.22-9.24-49.52-23.58 1.42-32.26-26.08-40.71-11.82-4.48 7.6-8.14 15.56-11.28 23.78-4.54-9.3-7.65-19.45-9.01-30.27 0-.14-.03-.28-.06-.43-.6-5.05-.82-10.06-.65-14.97 5.87.25 11.79-.34 17.83-2.07 16.07-4.59 7.94-27.27 40.11-46.18 22.31-13.12 32.97-26.08 44.48-44.65 19.76 1.22 38.18 8.48 53.15 20.13 6.46 5.05 12.27 10.91 17.29 17.46l-23.95 8.05c-14.8 5.67-36.32 12.31-34.36 26.73zm-18.23-171.63c-16.58 0-30.02-13.44-30.02-30.02s13.44-30.02 30.02-30.02 30.02 13.44 30.02 30.02-13.43 30.02-30.02 30.02zm-74.38 49.43c-4.54-6.35-3.15-15.39 3.29-19.79l37.36-25.57c3.94-2.69 7.97-4.08 12.73-4.08h21 21.03c4.76 0 8.79 1.39 12.7 4.08l37.36 25.57c6.43 4.39 7.85 13.44 3.32 19.79s-13.27 7.54-19.81 3.29l-14.03-9.1-11.88-7.99c-3.77-2.55-8.87-1.56-11.42 2.21-2.52 3.77-1.53 8.9 2.24 11.42l17.94 12.1v12.56c-11.85-5.39-24.66-8.05-37.45-8.05s-25.57 2.66-37.45 8.05v-12.56l17.97-12.1c3.77-2.52 4.76-7.65 2.21-11.42s-7.65-4.76-11.42-2.21l-11.88 7.99-14.03 9.1c-6.54 4.25-15.24 3.06-19.78-3.29zm243.67 48.31c-8.31-14.37-3.37-32.74 10.97-41.02 14.37-8.28 32.74-3.37 41.02 11 8.31 14.34 3.37 32.71-11 41.02-14.35 8.27-32.71 3.34-40.99-11zm-41.42 3.96c1.98-4.08.28-9.01-3.8-11.03l-12.84-6.26-14.91-7.6c-6.95-3.57-10.29-11.71-7.06-18.79 3.23-7.11 11.76-10.43 18.79-7.06l40.82 19.59c4.28 2.07 7.51 4.85 9.89 8.99l21 36.4c2.38 4.11 3.2 8.31 2.83 13.04l-3.46 45.16c-.59 7.77-7.71 13.49-15.48 12.73-7.77-.74-13.15-7.68-12.76-15.48l.88-16.72.96-14.26c.34-4.54-3.09-8.48-7.62-8.79-4.54-.31-8.48 3.09-8.79 7.63l-1.5 21.6-10.86 6.29c-1.28-12.95-5.36-25.4-11.76-36.45-6.38-11.08-15.11-20.83-25.68-28.4l10.86-6.29 19.47 9.52c4.11 1.97 9.04.27 11.02-3.82zm93.41 221.5c-8.28 14.37-26.65 19.28-41.02 11-14.34-8.31-19.28-26.65-10.97-41.02 8.28-14.37 26.65-19.28 40.99-11 14.37 8.31 19.3 26.68 11 41.02zm-41.5-48.21-21 36.4c-2.38 4.11-5.61 6.92-9.89 8.99l-40.82 19.56c-7.03 3.37-15.56.08-18.79-7.03-3.23-7.12.11-15.25 7.06-18.79l14.91-7.6 12.84-6.29c4.08-1.98 5.78-6.92 3.8-11s-6.92-5.78-11-3.8l-19.47 9.52-10.86-6.29c10.57-7.57 19.3-17.32 25.68-28.4 6.41-11.08 10.49-23.5 11.76-36.45l10.86 6.26 1.5 21.63c.31 4.54 4.25 7.94 8.79 7.63s7.97-4.25 7.62-8.79l-.96-14.26-.88-16.72c-.4-7.8 4.99-14.74 12.76-15.51 7.77-.74 14.88 4.99 15.48 12.76l3.46 45.16c.35 4.71-.47 8.88-2.85 13.02zm-179.78 115.93c16.58 0 30.02 13.44 30.02 30.02s-13.44 30.02-30.02 30.02-30.02-13.44-30.02-30.02 13.44-30.02 30.02-30.02zm74.41-49.43c4.54 6.35 3.12 15.39-3.32 19.79l-37.36 25.57c-3.91 2.69-7.94 4.08-12.7 4.08h-21.03-21c-4.76 0-8.79-1.39-12.73-4.08l-37.36-25.57c-6.43-4.39-7.82-13.44-3.29-19.79 4.54-6.35 13.24-7.54 19.79-3.29l14.03 9.1 11.88 7.99c3.77 2.55 8.87 1.56 11.42-2.21s1.56-8.9-2.21-11.45l-17.97-12.08v-12.56c11.88 5.36 24.66 8.05 37.45 8.05s25.6-2.69 37.45-8.05v12.56l-17.94 12.08c-3.77 2.55-4.76 7.68-2.24 11.45 2.55 3.77 7.65 4.76 11.42 2.21l11.88-7.99 14.03-9.1c6.54-4.25 15.27-3.06 19.8 3.29zm-243.66-48.31c8.28 14.37 3.37 32.71-11 41.02-14.34 8.28-32.71 3.37-41.02-11-8.28-14.34-3.37-32.71 11-41.02 14.37-8.27 32.71-3.37 41.02 11zm41.38-3.96c-1.98 4.08-.28 9.01 3.8 11l12.87 6.29 14.91 7.6c6.95 3.54 10.26 11.68 7.03 18.79s-11.76 10.4-18.79 7.03l-40.82-19.56c-4.28-2.07-7.51-4.88-9.86-8.99l-21.03-36.4c-2.38-4.14-3.2-8.31-2.83-13.04l3.46-45.16c.59-7.77 7.74-13.49 15.5-12.76 7.74.77 13.15 7.71 12.73 15.51l-.85 16.72-.99 14.26c-.31 4.54 3.09 8.48 7.62 8.79 4.54.31 8.48-3.09 8.79-7.63l1.5-21.63 10.88-6.26c1.28 12.95 5.33 25.37 11.74 36.45s15.11 20.83 25.71 28.4l-10.88 6.29-19.45-9.52c-4.09-1.97-9.02-.27-11.04 3.82zm-93.4-221.5c8.31-14.37 26.67-19.3 41.02-11 14.37 8.28 19.28 26.65 11 41.02-8.31 14.34-26.65 19.28-41.02 11-14.37-8.31-19.28-26.68-11-41.02zm41.5 48.21 21.03-36.4c2.35-4.14 5.58-6.92 9.86-8.99l40.82-19.59c7.03-3.37 15.56-.06 18.79 7.06 3.23 7.09-.08 15.22-7.03 18.79l-14.91 7.6-12.87 6.26c-4.08 2.01-5.78 6.94-3.8 11.03 2.01 4.08 6.95 5.78 11.03 3.8l19.45-9.52 10.88 6.29c-10.6 7.57-19.3 17.32-25.71 28.4-6.41 11.06-10.46 23.5-11.74 36.45l-10.88-6.29-1.5-21.6c-.31-4.54-4.25-7.94-8.79-7.63s-7.94 4.25-7.62 8.79l.99 14.26.85 16.72c.43 7.79-4.99 14.74-12.73 15.48-7.77.77-14.91-4.96-15.5-12.73l-3.46-45.16c-.36-4.71.46-8.91 2.84-13.02z" fill-rule="evenodd"/></svg>