<svg width="204" height="204" viewBox="0 0 204 204" fill="none" xmlns="http://www.w3.org/2000/svg">
<path d="M197.027 92.0323H188.461C186.81 92.0323 185.473 93.3703 185.473 95.0206C185.473 96.6709 186.81 98.0089 188.461 98.0089H197.027C197.577 98.0089 198.023 98.4559 198.023 99.005V157.183C198.023 157.732 197.577 158.179 197.027 158.179H168.386C167.837 158.179 167.39 157.732 167.39 157.183V99.005C167.39 98.4559 167.837 98.0089 168.386 98.0089H174.516C176.166 98.0089 177.504 96.6709 177.504 95.0206C177.504 93.3703 176.166 92.0323 174.516 92.0323H168.386C164.542 92.0323 161.414 95.1604 161.414 99.005V105.87C157.576 106.407 153.816 107.57 150.351 109.291C148.517 108.561 146.587 108.123 144.636 107.98C145.211 104.448 143.985 100.843 141.064 98.4316C138.808 96.5705 135.723 95.6119 132.368 96.2155C132.484 94.5006 132.206 92.6734 131.295 90.8155C129.439 87.0319 125.509 84.7899 121.292 85.0979C119.366 85.2393 117.565 85.9008 115.962 87.0104C115.306 85.2111 114.237 83.6576 112.777 82.4471C109.524 79.7517 105.017 79.3122 101.296 81.3275C99.6142 82.2383 98.2543 83.5667 97.2554 85.2186C95.9095 83.8353 94.2847 82.8483 92.4407 82.3407C88.3603 81.2183 84.0695 82.6642 81.5092 86.0255C80.3644 87.528 79.6755 89.2751 79.4397 91.1673C76.4546 90.0098 73.5125 90.286 71.2518 91.2801C67.6256 92.8738 65.3832 96.2442 65.1334 100.003H44.5525V98.9042C44.5525 95.0596 41.4244 91.9315 37.5798 91.9315H32.3495C28.505 91.9315 25.3769 95.0596 25.3769 98.9042V100.003H19.1752V98.9042C19.1752 95.0596 16.0471 91.9315 12.2025 91.9315H6.97266C3.12813 91.9315 0 95.0596 0 98.9042V154.27C0 158.115 3.12813 161.243 6.97266 161.243H12.2025C16.0471 161.243 19.1752 158.115 19.1752 154.27V153.372H25.3769V154.27C25.3769 158.115 28.505 161.243 32.3495 161.243H37.4555C39.005 164.252 41.5435 166.66 44.6987 168.033C44.7322 168.047 44.766 168.061 44.8003 168.075L79.4257 181.651C79.7835 181.792 80.1525 181.858 80.5155 181.858C81.7088 181.858 82.8364 181.138 83.2981 179.96C83.9006 178.424 83.1431 176.69 81.6068 176.087L47.0359 162.532C45.2685 161.751 43.8269 160.424 42.9018 158.765C43.9293 157.55 44.5521 155.982 44.5521 154.27V153.372H45.9538C51.9937 153.372 57.8902 154.532 63.4799 156.82L83.5452 165.033C83.4687 165.718 83.4256 166.412 83.4256 167.117C83.4256 171.818 87.2502 175.642 91.951 175.642H126.351C128.002 175.642 129.339 174.304 129.339 172.654C129.339 171.004 128.002 169.666 126.351 169.666H106.628C105.275 163.962 100.142 159.705 94.0308 159.705H91.8052C94.1093 156.521 97.8527 154.444 102.074 154.444H126.351C128.002 154.444 129.339 153.106 129.339 151.456C129.339 150.456 128.846 149.573 128.092 149.031L156.25 125.083C157.925 123.658 158.936 121.581 159.025 119.384C159.114 117.186 158.273 115.034 156.718 113.479C156.624 113.385 156.526 113.296 156.43 113.204C158.05 112.634 159.72 112.199 161.413 111.914V152.308L129.958 181.192C123.262 187.341 113.548 188.971 105.213 185.344C105.18 185.329 105.146 185.315 105.111 185.302L94.5907 181.177C93.0555 180.574 91.3203 181.332 90.7178 182.868C90.1154 184.405 90.8728 186.139 92.4092 186.741L102.88 190.847C106.58 192.448 110.493 193.228 114.379 193.228C121.51 193.228 128.549 190.6 134 185.594L161.97 159.911C163.035 162.403 165.509 164.155 168.386 164.155H197.027C200.872 164.155 204 161.027 204 157.182V99.005C204 95.16 200.872 92.0323 197.027 92.0323ZM13.1986 154.271C13.1986 154.82 12.752 155.267 12.2025 155.267H6.97266C6.42321 155.267 5.97656 154.82 5.97656 154.271V98.9046C5.97656 98.3555 6.42321 97.9085 6.97266 97.9085H12.2025C12.752 97.9085 13.1986 98.3555 13.1986 98.9046V154.271ZM25.3769 147.396H19.1752V105.98H25.3769V147.396ZM86.2633 89.6477C87.3208 88.2595 89.1675 87.6391 90.8541 88.1037C93.2973 88.7759 94.9604 91.4506 95.417 95.4417C95.6047 97.0817 97.0889 98.2595 98.7256 98.071C100.25 97.8965 101.374 96.604 101.374 95.1055C101.374 94.9923 101.368 94.8776 101.355 94.7624C100.898 90.7713 101.914 87.7902 104.141 86.5833C105.68 85.7498 107.619 85.9362 108.963 87.0499C110.9 88.6552 111.311 91.7666 110.09 95.586C109.993 95.8884 109.948 96.1948 109.948 96.4964C109.947 97.7614 110.757 98.9364 112.027 99.3424C113.599 99.8441 115.28 98.9779 115.783 97.406C117.013 93.5595 119.18 91.2462 121.729 91.0589C123.482 90.9294 125.164 91.8905 125.929 93.448C127.032 95.6967 126.126 98.6998 123.443 101.687C123.442 101.688 123.441 101.689 123.44 101.69C122.336 102.918 122.437 104.807 123.665 105.91C124.893 107.014 126.782 106.912 127.885 105.685C131.838 101.285 135.406 101.511 137.26 103.041C138.651 104.189 139.434 106.338 138.215 108.589C135.556 109.304 133.02 110.598 130.816 112.487L99.2392 139.562L82.0749 132.536C81.7399 132.399 81.5235 132.077 81.5235 131.715V128.065C81.5235 127.576 81.9215 127.178 82.4108 127.178H106.943C111.645 127.178 115.469 123.353 115.469 118.652C115.469 108.369 107.103 100.003 96.8199 100.003H87.5005C87.5531 99.4006 87.4264 98.7771 87.0933 98.2177C85.0413 94.7724 84.7385 91.649 86.2633 89.6477ZM98.2882 121.201C98.679 118.863 100.711 117.073 103.159 117.073H109.391C109.456 117.591 109.493 118.117 109.493 118.652C109.493 120.058 108.349 121.201 106.944 121.201H98.2882ZM73.6564 96.7518C75.5975 95.8988 78.4842 96.3829 81.1215 100.003H71.1303C71.3805 98.4372 72.4583 97.2781 73.6564 96.7518ZM60.5278 115.772L65.8988 121.143L60.5278 126.514C59.3608 127.681 59.3608 129.573 60.5278 130.74L65.8988 136.111L60.5278 141.482C59.3608 142.649 59.3608 144.541 60.5278 145.708L65.8988 151.079L65.7047 151.273C59.4046 148.7 52.7599 147.395 45.9538 147.395H44.5521V125.509C44.5521 123.858 43.2145 122.52 41.5638 122.52C39.9131 122.52 38.5755 123.858 38.5755 125.509V154.27C38.5755 154.819 38.1289 155.266 37.5794 155.266H32.3495C31.8001 155.266 31.3534 154.819 31.3534 154.27V98.9046C31.3534 98.3555 31.8001 97.9085 32.3495 97.9085H37.5794C38.1289 97.9085 38.5755 98.3555 38.5755 98.9046V111.564C38.5755 113.214 39.9131 114.552 41.5638 114.552C43.2145 114.552 44.5521 113.214 44.5521 111.564V105.98H65.7031L65.8988 106.175L60.5278 111.546C59.3608 112.714 59.3608 114.606 60.5278 115.772ZM94.0312 165.682C96.8056 165.682 99.1998 167.315 100.321 169.667H91.9514C90.5461 169.667 89.4026 168.523 89.4026 167.118C89.4026 166.632 89.4329 166.154 89.4863 165.682H94.0312ZM133.093 136.933L119.53 148.469H102.075C94.6046 148.469 88.1499 152.886 85.1756 159.243L71.702 153.728L72.2375 153.193C72.7981 152.633 73.1129 151.872 73.1129 151.08C73.1129 150.287 72.7981 149.528 72.2379 148.967L66.867 143.596L72.2379 138.225C73.4049 137.058 73.4049 135.166 72.2379 133.999L66.867 128.628L72.2379 123.257C73.4049 122.09 73.4049 120.198 72.2379 119.032L66.867 113.661L72.2379 108.29C72.871 107.657 73.1579 106.81 73.1037 105.981H96.8203C100.978 105.981 104.675 107.995 106.987 111.098H103.159C97.412 111.098 92.6909 115.561 92.2717 121.202H82.4104C78.6257 121.202 75.5465 124.281 75.5465 128.066V131.716C75.5465 134.515 77.22 137.008 79.8102 138.068L97.0717 145.133C99.034 145.937 101.278 145.607 102.927 144.271C102.949 144.254 102.97 144.236 102.991 144.218L120.028 129.609H133.092V136.933H133.093ZM153.054 119.143C153.041 119.458 152.937 120.056 152.378 120.531L139.07 131.85V126.621C139.07 124.97 137.732 123.632 136.082 123.632H127L134.707 117.024C139.87 112.597 147.682 112.896 152.493 117.706C153.01 118.224 153.067 118.829 153.054 119.143Z" fill="black"/>
<path d="M53.3906 117.87H52.1953C50.5446 117.87 49.207 119.208 49.207 120.858C49.207 122.508 50.5446 123.846 52.1953 123.846H53.3906C55.0414 123.846 56.3789 122.508 56.3789 120.858C56.3789 119.208 55.0414 117.87 53.3906 117.87Z" fill="black"/>
<path d="M53.3906 133.409H52.1953C50.5446 133.409 49.207 134.747 49.207 136.397C49.207 138.047 50.5446 139.385 52.1953 139.385H53.3906C55.0414 139.385 56.3789 138.047 56.3789 136.397C56.3789 134.747 55.0414 133.409 53.3906 133.409Z" fill="black"/>
<path d="M124.512 139.035C125.276 139.035 126.041 138.744 126.625 138.16L127.47 137.315C128.637 136.148 128.637 134.256 127.47 133.089C126.303 131.922 124.411 131.922 123.244 133.089L122.399 133.934C121.232 135.101 121.232 136.993 122.399 138.16C122.982 138.744 123.747 139.035 124.512 139.035Z" fill="black"/>
<path d="M115.474 140.858L114.629 141.704C113.462 142.871 113.462 144.763 114.629 145.929C115.213 146.513 115.978 146.805 116.742 146.805C117.507 146.805 118.272 146.513 118.855 145.929L119.701 145.084C120.868 143.917 120.868 142.025 119.701 140.858C118.533 139.691 116.641 139.691 115.474 140.858Z" fill="black"/>
<path d="M172.324 104.124C172.324 105.774 173.662 107.112 175.312 107.112H178.898C180.549 107.112 181.887 105.774 181.887 104.124C181.887 102.473 180.549 101.135 178.898 101.135H175.312C173.662 101.135 172.324 102.473 172.324 104.124Z" fill="black"/>
<path d="M178.898 112.491H175.312C173.662 112.491 172.324 113.829 172.324 115.479C172.324 117.129 173.662 118.467 175.312 118.467H178.898C180.549 118.467 181.887 117.129 181.887 115.479C181.887 113.829 180.549 112.491 178.898 112.491Z" fill="black"/>
<path d="M178.898 123.846H175.312C173.662 123.846 172.324 125.184 172.324 126.835C172.324 128.485 173.662 129.823 175.312 129.823H178.898C180.549 129.823 181.887 128.485 181.887 126.835C181.887 125.184 180.549 123.846 178.898 123.846Z" fill="black"/>
<path d="M178.898 135.202H175.312C173.662 135.202 172.324 136.54 172.324 138.19C172.324 139.84 173.662 141.178 175.312 141.178H178.898C180.549 141.178 181.887 139.84 181.887 138.19C181.887 136.54 180.549 135.202 178.898 135.202Z" fill="black"/>
<path d="M178.898 146.557H175.312C173.662 146.557 172.324 147.895 172.324 149.546C172.324 151.196 173.662 152.534 175.312 152.534H178.898C180.549 152.534 181.887 151.196 181.887 149.546C181.887 147.895 180.549 146.557 178.898 146.557Z" fill="black"/>
<path d="M139.429 75.4338C143.761 75.4338 147.707 73.234 149.985 69.5489C152.263 65.8641 152.467 61.3506 150.531 57.4758L143.151 42.7057C142.442 41.2865 141.016 40.4044 139.429 40.4044C137.842 40.4044 136.415 41.2861 135.706 42.7057L128.326 57.4758C126.39 61.3514 126.594 65.8645 128.872 69.5493C131.151 73.234 135.097 75.4338 139.429 75.4338ZM133.673 60.1473L139.429 48.6269L145.185 60.1473C146.189 62.1563 146.083 64.4963 144.902 66.4064C143.72 68.3169 141.674 69.4572 139.429 69.4572C137.183 69.4572 135.137 68.3169 133.956 66.4064C132.775 64.4959 132.67 62.1563 133.673 60.1473Z" fill="#E65402"/>
<path d="M100.118 45.8008C104.45 45.8008 108.396 43.601 110.674 39.9163C112.952 36.2315 113.156 31.718 111.22 27.8428L103.841 13.0735C103.132 11.6539 101.706 10.7714 100.119 10.7714C100.119 10.7714 100.118 10.7714 100.118 10.7714C98.5312 10.7714 97.1048 11.6531 96.3952 13.0727L89.0157 27.8428C87.0797 31.718 87.2833 36.2315 89.5612 39.9163C91.8394 43.601 95.7856 45.8008 100.118 45.8008ZM94.362 30.5139L100.118 18.9939L105.874 30.5139C106.878 32.5229 106.772 34.8633 105.591 36.7734C104.409 38.6835 102.363 39.8242 100.118 39.8242C97.8722 39.8242 95.8262 38.6839 94.6448 36.7734C93.4639 34.8633 93.3583 32.5233 94.362 30.5139Z" fill="#E65402"/>
<path d="M64.5712 82.4813C68.903 82.4813 72.8491 80.2816 75.1274 76.5968C77.4053 72.9121 77.6093 68.3986 75.6732 64.5234L68.2938 49.7533C67.5846 48.3336 66.1582 47.4519 64.5708 47.4519C62.9842 47.4519 61.5578 48.3336 60.8482 49.7533L53.4687 64.5234C51.5327 68.3986 51.7363 72.9117 54.0142 76.5964C56.2925 80.2812 60.239 82.4813 64.5712 82.4813ZM58.815 67.1945L64.5708 55.6741L70.3266 67.1945C71.3303 69.2034 71.2243 71.5438 70.0433 73.4539C68.8624 75.364 66.8164 76.5048 64.5708 76.5048C62.3252 76.5048 60.2792 75.3644 59.0979 73.4539C57.9169 71.5434 57.8113 69.2038 58.815 67.1945Z" fill="#E65402"/>
</svg>
