<svg width="234" height="234" viewBox="0 0 234 234" fill="none" xmlns="http://www.w3.org/2000/svg">
<path d="M192.41 0H184.184C182.29 0 180.756 1.53425 180.756 3.42773C180.756 5.32121 182.29 6.85547 184.184 6.85547H192.41C195.056 6.85547 197.209 9.00809 197.209 11.6543V39.9066H36.791V11.6543C36.791 9.00809 38.9436 6.85547 41.5898 6.85547H167.883C169.776 6.85547 171.31 5.32121 171.31 3.42773C171.31 1.53425 169.776 0 167.883 0H41.5898C35.1635 0 29.9355 5.22798 29.9355 11.6543V191.235C29.9355 193.128 31.4698 194.662 33.3633 194.662C35.2568 194.662 36.791 193.128 36.791 191.235V46.7625H197.209V222.346C197.209 224.992 195.056 227.145 192.41 227.145H41.5898C38.9436 227.145 36.791 224.992 36.791 222.346V207.187C36.791 205.294 35.2568 203.76 33.3633 203.76C31.4698 203.76 29.9355 205.294 29.9355 207.187V222.346C29.9355 228.772 35.1635 234 41.5898 234H192.41C198.836 234 204.064 228.772 204.064 222.346V11.6543C204.064 5.22798 198.836 0 192.41 0Z" fill="black"/>
<path d="M48.3983 23.3808C48.3983 29.0507 53.0115 33.664 58.6815 33.664C64.3514 33.664 68.9647 29.0507 68.9647 23.3808C68.9647 17.7109 64.3514 13.0976 58.6815 13.0976C53.0115 13.0976 48.3983 17.7109 48.3983 23.3808ZM62.1092 23.3808C62.1092 25.2711 60.5717 26.8085 58.6815 26.8085C56.7912 26.8085 55.2537 25.2711 55.2537 23.3808C55.2537 21.4905 56.7912 19.9531 58.6815 19.9531C60.5717 19.9531 62.1092 21.4905 62.1092 23.3808Z" fill="black"/>
<path d="M76.9627 23.3808C76.9627 29.0507 81.576 33.664 87.2459 33.664C92.9158 33.664 97.5291 29.0507 97.5291 23.3808C97.5291 17.7109 92.9158 13.0976 87.2459 13.0976C81.576 13.0976 76.9627 17.7109 76.9627 23.3808ZM90.6736 23.3808C90.6736 25.2711 89.1362 26.8085 87.2459 26.8085C85.3556 26.8085 83.8182 25.2711 83.8182 23.3808C83.8182 21.4905 85.3556 19.9531 87.2459 19.9531C89.1362 19.9531 90.6736 21.4905 90.6736 23.3808Z" fill="black"/>
<path d="M105.527 23.3808C105.527 29.0507 110.14 33.664 115.81 33.664C121.48 33.664 126.094 29.0507 126.094 23.3808C126.094 17.7109 121.48 13.0976 115.81 13.0976C110.14 13.0976 105.527 17.7109 105.527 23.3808ZM119.238 23.3808C119.238 25.2711 117.701 26.8085 115.81 26.8085C113.92 26.8085 112.383 25.2711 112.383 23.3808C112.383 21.4905 113.92 19.9531 115.81 19.9531C117.701 19.9531 119.238 21.4905 119.238 23.3808Z" fill="black"/>
<path d="M83.6367 134.596C105.688 134.596 123.627 116.656 123.627 94.6055C123.627 72.5546 105.688 54.6152 83.6367 54.6152C61.5859 54.6152 43.6465 72.5546 43.6465 94.6055C43.6465 116.656 61.5859 134.596 83.6367 134.596ZM61.2925 119.049V117.531C61.2925 112.904 65.0566 109.14 69.6836 109.14H70.9738C74.1711 112.454 78.6523 114.521 83.6098 114.521C88.5786 114.521 93.0698 112.451 96.2768 109.132C96.3294 109.134 96.3806 109.14 96.4336 109.14H97.5899C102.217 109.14 105.981 112.904 105.981 117.531V119.048C100.085 124.443 92.2394 127.74 83.6367 127.74C75.0345 127.74 67.1886 124.444 61.2925 119.049ZM72.8965 96.9523V93.4181H94.377V96.8993C94.377 102.836 89.547 107.666 83.6098 107.666C77.7026 107.666 72.8965 102.86 72.8965 96.9523ZM72.9298 86.5622C73.3435 81.0152 77.9855 76.6272 83.6367 76.6272C89.2879 76.6272 93.93 81.0152 94.3436 86.5622H72.9298ZM83.6367 61.4707C101.907 61.4707 116.771 76.3347 116.771 94.6055C116.771 100.994 114.949 106.962 111.805 112.028C109.91 107.15 105.574 103.483 100.304 102.531C100.903 100.761 101.232 98.8687 101.232 96.8993V87.3679C101.232 77.6656 93.339 69.7722 83.6367 69.7722C73.9344 69.7722 66.041 77.6656 66.041 87.3679V96.9528C66.041 98.9038 66.3655 100.78 66.9551 102.535C61.691 103.49 57.3624 107.155 55.4685 112.029C52.3241 106.963 50.502 100.994 50.502 94.6055C50.502 76.3347 65.366 61.4707 83.6367 61.4707Z" fill="#E65402"/>
<path d="M183.32 98.8453H139.343C135.465 98.8453 132.31 102 132.31 105.879V118.777C132.31 122.655 135.465 125.811 139.343 125.811H183.32C187.198 125.811 190.354 122.656 190.354 118.777V105.879C190.354 102.001 187.199 98.8453 183.32 98.8453ZM183.498 118.777C183.498 118.875 183.418 118.955 183.32 118.955H139.343C139.246 118.955 139.166 118.875 139.166 118.777V105.879C139.166 105.781 139.246 105.701 139.343 105.701H183.32C183.418 105.701 183.498 105.781 183.498 105.879V118.777Z" fill="black"/>
<path d="M135.738 89.2481H186.926C188.819 89.2481 190.354 87.7139 190.354 85.8204C190.354 83.9269 188.819 82.3927 186.926 82.3927H135.738C133.844 82.3927 132.31 83.9269 132.31 85.8204C132.31 87.7139 133.844 89.2481 135.738 89.2481Z" fill="black"/>
<path d="M135.738 74.6231H161.332C163.226 74.6231 164.76 73.0889 164.76 71.1954C164.76 69.3019 163.226 67.7677 161.332 67.7677H135.738C133.845 67.7677 132.311 69.3019 132.311 71.1954C132.311 73.0889 133.845 74.6231 135.738 74.6231Z" fill="black"/>
<path d="M53.9297 166.672H150.239C151.883 168.885 154.508 170.329 157.47 170.329H160.928C163.89 170.329 166.515 168.885 168.159 166.672H180.07C185.74 166.672 190.354 162.059 190.354 156.389C190.354 150.719 185.74 146.106 180.07 146.106H168.159C166.515 143.893 163.89 142.45 160.928 142.45H157.47C154.508 142.45 151.883 143.893 150.239 146.106H53.9297C48.2598 146.106 43.6465 150.719 43.6465 156.389C43.6465 162.059 48.2598 166.672 53.9297 166.672ZM183.498 156.389C183.498 158.28 181.961 159.817 180.07 159.817H169.939V152.961H180.07C181.961 152.961 183.498 154.499 183.498 156.389ZM155.314 151.46C155.314 150.292 156.301 149.305 157.47 149.305H160.928C162.097 149.305 163.084 150.292 163.084 151.46V161.317C163.084 162.486 162.097 163.473 160.928 163.473H157.47C156.301 163.473 155.314 162.486 155.314 161.317V151.46ZM53.9297 152.961H148.459V159.817H53.9297C52.0394 159.817 50.502 158.28 50.502 156.389C50.502 154.499 52.0394 152.961 53.9297 152.961Z" fill="black"/>
<path d="M53.9297 201.518H80.8411C82.4845 203.731 85.1093 205.174 88.0713 205.174H91.5301C94.4921 205.174 97.1169 203.731 98.7603 201.518H180.07C185.74 201.518 190.354 196.905 190.354 191.235C190.354 185.565 185.74 180.951 180.07 180.951H98.7608C97.1173 178.739 94.4926 177.295 91.5306 177.295H88.0717C85.1097 177.295 82.485 178.739 80.8415 180.951H53.9297C48.2598 180.951 43.6465 185.565 43.6465 191.235C43.6465 196.905 48.2598 201.518 53.9297 201.518ZM183.498 191.235C183.498 193.125 181.961 194.662 180.07 194.662H100.541V187.807H180.07C181.961 187.807 183.498 189.344 183.498 191.235ZM88.0713 184.151H91.5301C92.6987 184.151 93.6855 185.137 93.6855 186.306V196.163C93.6855 197.332 92.6987 198.319 91.5301 198.319H88.0713C86.9027 198.319 85.9159 197.332 85.9159 196.163V186.306C85.9159 185.137 86.9027 184.151 88.0713 184.151ZM53.9297 187.807H79.0605V194.662H53.9297C52.0394 194.662 50.502 193.125 50.502 191.235C50.502 189.344 52.0394 187.807 53.9297 187.807Z" fill="black"/>
</svg>
