<svg id="Layer_1" viewBox="0 0 512 512" xmlns="http://www.w3.org/2000/svg" data-name="Layer 1"><path d="m503.73 233.393-10.233-38.154c-1.145-4.271-5.532-6.811-9.808-5.66l-6.609 1.772-15.87-59.268c-5.347-19.934-17.11-35.273-34.969-45.595l-95.442-55.077c-.392-.227-.802-.419-1.227-.575l-16.276-6.017c-11.518-5.801-24.629-7.173-36.988-3.845l-121.437 32.541c-4.271 1.145-6.806 5.533-5.664 9.805l11.596 43.349-9.925 2.661c-10.06 2.691-18.483 9.17-23.72 18.242-5.234 9.067-6.635 19.602-3.943 29.66 1.263 4.72 3.369 9.073 6.176 12.912h-73.474c-26.423 0-47.92 21.496-47.92 47.919v226.829c0 26.423 21.497 47.919 47.92 47.919h226.8c26.438 0 47.948-21.496 47.948-47.919v-113.414c0-4.423-3.585-8.008-8.008-8.008h-40.606v-8.49c0-19.89-16.182-36.071-36.071-36.071s-36.07 16.182-36.07 36.071v8.49h-32.57v-40.606c0-4.423-3.585-8.008-8.008-8.008h-16.498c-11.059 0-20.055-8.997-20.055-20.056s8.996-20.055 20.055-20.055h16.498c4.423 0 8.008-3.585 8.008-8.008v-43.508l3.732-.999 12.131 45.302c.55 2.052 1.892 3.802 3.731 4.863 1.228.709 2.61 1.073 4.004 1.073.694 0 1.391-.09 2.073-.272l52.044-13.946c2.051-.55 3.8-1.893 4.862-3.731 1.062-1.84 1.35-4.025.799-6.077l-4.732-17.656c-1.587-5.929-.755-12.148 2.343-17.515 3.097-5.364 8.064-9.191 13.997-10.779 5.931-1.597 12.155-.769 17.522 2.329 5.37 3.099 9.201 8.072 10.79 14.007l4.734 17.66c1.145 4.271 5.533 6.803 9.808 5.662l45.131-12.094c3.12 7.526 9.072 17.881 16.911 27.065l-11.224 3.009c-2.052.55-3.801 1.892-4.862 3.731s-1.35 4.025-.799 6.077l10.232 38.154c.959 3.577 4.194 5.936 7.729 5.936.686 0 1.384-.089 2.078-.275l117.695-31.55c2.052-.55 3.801-1.892 4.862-3.731s1.35-4.026.799-6.077zm-326.392 106.092h40.578c4.423 0 8.008-3.585 8.008-8.008v-16.498c0-11.059 8.996-20.056 20.055-20.056s20.056 8.997 20.056 20.056v16.498c0 4.423 3.585 8.008 8.008 8.008h40.606v105.406c0 17.592-14.325 31.903-31.933 31.903h-105.378v-32.599h8.462c19.89 0 36.07-16.181 36.07-36.07s-16.181-36.071-36.07-36.071h-8.462zm-16.016-120.756h-8.49c-19.89 0-36.07 16.181-36.07 36.07s16.181 36.071 36.07 36.071h8.49v32.599h-40.606c-4.423 0-8.008 3.585-8.008 8.008v16.497c0 11.059-8.996 20.056-20.055 20.056s-20.056-8.997-20.056-20.056v-16.497c0-4.423-3.585-8.008-8.008-8.008h-40.577v-105.407c0-17.592 14.312-31.903 31.904-31.903h102.909c.831.047 1.664.073 2.498.066v32.505zm212.615-37.036c-2.102-7.52-2.891-10.079-3.523-12.137-.708-2.297-1.274-4.139-3.494-12.375l-.133-.496c-.063-.235-.14-.462-.222-.686-.009-.024-.015-.05-.024-.074-.675-1.788-1.941-3.215-3.51-4.114l-55.396-31.962c-2.807-1.618-4.82-4.26-5.671-7.438-.852-3.185-.423-6.492 1.211-9.32 1.619-2.808 4.257-4.824 7.429-5.677 3.173-.852 6.466-.429 9.265 1.184l20.347 11.76s.006.004.01.006l40.819 23.556c1.262.728 2.638 1.073 3.995 1.073 2.769 0 5.461-1.437 6.943-4.006 2.211-3.831.897-8.729-2.933-10.938l-38.67-22.315-24.134-50.46 91.985 53.083c14.244 8.232 23.243 19.968 27.509 35.871l15.871 59.269-66.829 17.914c-11.515-10.878-19.382-26.515-20.843-31.719z"/></svg>