<svg width="242" height="242" viewBox="0 0 242 242" fill="none" xmlns="http://www.w3.org/2000/svg">
<path d="M30.25 41.5938H45.375C47.4547 41.5938 49.1563 43.2953 49.1563 45.375C49.1563 47.4547 50.8578 49.1562 52.9375 49.1562C55.0172 49.1562 56.7188 47.4547 56.7188 45.375C56.7188 39.1359 51.6141 34.0312 45.375 34.0312H30.25C28.1703 34.0312 26.4688 32.3297 26.4688 30.25C26.4688 28.1703 28.1703 26.4688 30.25 26.4688H45.375C51.6141 26.4688 56.7188 21.3641 56.7188 15.125C56.7188 13.0453 55.0172 11.3438 52.9375 11.3438C50.8578 11.3438 49.1563 13.0453 49.1563 15.125C49.1563 17.2047 47.4547 18.9062 45.375 18.9062H30.25C24.0109 18.9062 18.9063 24.0109 18.9063 30.25C18.9063 36.4891 24.0109 41.5938 30.25 41.5938ZM234.437 102.094V18.9062C234.437 12.6672 229.333 7.5625 223.094 7.5625H155.031C148.792 7.5625 143.687 12.6672 143.687 18.9062V33.1616C139.679 32.1028 135.558 31.3844 131.436 30.8928C132.003 29.5316 132.344 28.0191 132.344 26.4309C132.344 20.1919 127.239 15.0872 121 15.0872C114.761 15.0872 109.656 20.1919 109.656 26.4309C109.656 27.9812 109.959 29.4937 110.564 30.8172C65.4156 36.0353 30.25 74.4528 30.25 120.962V128.525H22.6875C21.3641 128.525 20.1541 129.205 19.4734 130.302C18.7928 131.398 18.7172 132.798 19.3222 133.97L24.1622 143.612H11.3816C10.1716 143.612 9.03719 144.179 8.31875 145.2C7.60032 146.183 7.41125 147.431 7.78938 148.603L10.1716 155.788C13.8016 166.602 23.8975 173.862 35.2791 173.862H62.8822L16.0703 228.123C14.7091 229.711 14.8981 232.093 16.4484 233.454C17.1669 234.059 18.0366 234.362 18.9063 234.362C19.965 234.362 21.0238 233.908 21.78 233.038L71.3522 175.563C73.0916 173.522 75.3981 172.009 77.9316 171.139L125.689 154.993C126.256 154.804 126.823 155.069 127.126 155.598C127.39 156.166 127.239 156.846 126.634 157.3L114.837 167.131C114.837 167.131 114.761 167.245 114.723 167.283C114.61 167.396 114.534 167.509 114.421 167.623C114.232 167.85 114.043 168.114 113.929 168.379C113.853 168.53 113.816 168.644 113.74 168.795C113.627 169.135 113.551 169.513 113.513 169.854C113.513 169.929 113.475 170.005 113.475 170.043C113.475 170.043 113.475 170.043 113.475 170.118C113.475 170.534 113.551 170.95 113.702 171.366C113.702 171.366 113.74 171.442 113.74 171.48C113.778 171.593 113.853 171.707 113.929 171.782C114.08 172.085 114.269 172.349 114.458 172.576C114.572 172.69 114.648 172.765 114.761 172.879C114.988 173.068 115.253 173.257 115.517 173.37C115.631 173.446 115.744 173.522 115.895 173.559C116.311 173.711 116.765 173.824 117.219 173.824H171.518C172.841 173.824 173.937 174.921 173.937 176.244C173.937 177.416 173.106 178.399 171.971 178.626L124.819 187.626C122.059 188.155 119.261 188.42 116.463 188.42H90.7878C89.6913 188.42 88.6703 188.873 87.9519 189.705L53.9206 228.047C52.5216 229.598 52.6728 232.018 54.2231 233.379C55.7734 234.778 58.1556 234.627 59.5547 233.076L92.4516 195.982H116.425C119.677 195.982 123.004 195.68 126.218 195.075L173.37 186.075C178.059 185.168 181.5 181.046 181.5 176.282C181.5 175.45 181.349 174.618 181.16 173.862H206.759C218.14 173.862 228.236 166.602 231.866 155.75L234.248 148.565C234.627 147.431 234.438 146.145 233.719 145.162C233.001 144.179 231.866 143.574 230.656 143.574H217.876L222.716 133.932C223.321 132.76 223.245 131.361 222.564 130.264C221.884 129.168 220.674 128.487 219.35 128.487H211.788V120.924C211.788 118.429 211.637 115.895 211.41 113.362H223.132C229.371 113.362 234.475 108.257 234.475 102.018L234.437 102.094ZM151.25 18.9062C151.25 16.8266 152.952 15.125 155.031 15.125H223.094C225.173 15.125 226.875 16.8266 226.875 18.9062V102.094C226.875 104.173 225.173 105.875 223.094 105.875H155.031C152.952 105.875 151.25 104.173 151.25 102.094V18.9062ZM117.219 26.4688C117.219 24.3891 118.92 22.6875 121 22.6875C123.08 22.6875 124.781 24.3891 124.781 26.4688C124.781 28.5484 123.08 30.25 121 30.25C118.92 30.25 117.219 28.5484 117.219 26.4688ZM75.5116 164.068C73.81 164.636 72.2219 165.43 70.7472 166.375H35.2413C27.1116 166.375 19.8894 161.195 17.3181 153.481L16.5997 151.25H113.438L75.5116 164.068ZM224.682 153.443C222.111 161.157 214.888 166.375 206.759 166.375H127.655L131.323 163.312C134.688 160.779 135.747 156.166 133.894 152.347C133.705 151.968 133.44 151.59 133.213 151.25H225.438L224.72 153.443H224.682ZM209.406 143.688H32.5944L28.8131 136.125H213.187L209.406 143.688ZM204.187 121V128.562H37.8125V121C37.8125 75.1334 75.1334 37.8125 121 37.8125C128.752 37.8125 136.352 38.9469 143.687 41.0266V102.094C143.687 108.333 148.792 113.438 155.031 113.438H203.809C204.036 115.971 204.187 118.504 204.187 121Z" fill="black"/>
<path d="M165.581 42.3878C166.337 43.1441 167.282 43.4844 168.266 43.4844C169.249 43.4844 170.194 43.1063 170.95 42.3878L184.185 29.1534C185.659 27.6788 185.659 25.2966 184.185 23.8219C182.71 22.3472 180.328 22.3472 178.853 23.8219L168.303 34.3716L165.316 31.3844C163.842 29.9097 161.459 29.9097 159.985 31.3844C158.51 32.8591 158.51 35.2413 159.985 36.7159L165.657 42.3878H165.581ZM189.062 41.5938H215.531C217.611 41.5938 219.312 39.8922 219.312 37.8125C219.312 35.7328 217.611 34.0313 215.531 34.0313H189.062C186.983 34.0313 185.281 35.7328 185.281 37.8125C185.281 39.8922 186.983 41.5938 189.062 41.5938ZM165.581 68.8566C166.337 69.6128 167.282 69.9531 168.266 69.9531C169.249 69.9531 170.194 69.575 170.95 68.8566L184.185 55.6222C185.659 54.1475 185.659 51.7653 184.185 50.2906C182.71 48.8159 180.328 48.8159 178.853 50.2906L168.303 60.8403L165.316 57.8531C163.842 56.3784 161.459 56.3784 159.985 57.8531C158.51 59.3278 158.51 61.71 159.985 63.1847L165.657 68.8566H165.581ZM215.531 60.5H189.062C186.983 60.5 185.281 62.2016 185.281 64.2813C185.281 66.3609 186.983 68.0625 189.062 68.0625H215.531C217.611 68.0625 219.312 66.3609 219.312 64.2813C219.312 62.2016 217.611 60.5 215.531 60.5ZM165.581 95.3253C166.337 96.0816 167.282 96.4219 168.266 96.4219C169.249 96.4219 170.194 96.0438 170.95 95.3253L184.185 82.0909C185.659 80.6163 185.659 78.2341 184.185 76.7594C182.71 75.2847 180.328 75.2847 178.853 76.7594L168.303 87.3091L165.316 84.3219C163.842 82.8472 161.459 82.8472 159.985 84.3219C158.51 85.7966 158.51 88.1788 159.985 89.6534L165.657 95.3253H165.581ZM215.531 86.9688H189.062C186.983 86.9688 185.281 88.6703 185.281 90.75C185.281 92.8297 186.983 94.5313 189.062 94.5313H215.531C217.611 94.5313 219.312 92.8297 219.312 90.75C219.312 88.6703 217.611 86.9688 215.531 86.9688Z" fill="#E65402"/>
</svg>
