<svg width="512" height="512" viewBox="0 0 512 512" fill="none" xmlns="http://www.w3.org/2000/svg">
<path d="M327.217 176.455C331.36 176.455 334.717 173.098 334.717 168.954V159.109C334.717 154.966 331.36 151.609 327.217 151.609C323.073 151.609 319.716 154.966 319.716 159.109V168.954C319.716 173.098 323.074 176.455 327.217 176.455Z" fill="black"/>
<path d="M262.594 176.455C266.737 176.455 270.094 173.098 270.094 168.954V159.109C270.094 154.966 266.737 151.609 262.594 151.609C258.45 151.609 255.093 154.966 255.093 159.109V168.954C255.093 173.098 258.451 176.455 262.594 176.455Z" fill="black"/>
<path d="M294.832 236.051C309.34 236.051 321.143 224.248 321.143 209.739C321.143 205.596 317.786 202.239 313.642 202.239C309.499 202.239 306.142 205.596 306.142 209.739C306.142 215.976 301.068 221.05 294.832 221.05C288.596 221.05 283.522 215.977 283.522 209.739C283.522 205.596 280.165 202.239 276.022 202.239C271.878 202.239 268.521 205.596 268.521 209.739C268.521 224.248 280.324 236.051 294.832 236.051Z" fill="black"/>
<path d="M465.685 402.201C469.829 402.201 473.186 398.844 473.186 394.701V371.439C473.186 349.953 459.463 331.043 438.967 324.362L346.215 295.142V265.303C367.861 249.32 378.507 223.175 377.588 196.72C394.796 198.042 413.546 187.842 413.546 168.321V152.662C413.546 145.161 410.618 138.335 405.852 133.253C405.949 132.771 406.001 111.859 406.001 111.859C406.001 107.715 402.643 104.358 398.5 104.358C394.357 104.358 391 107.715 391 111.859V124.26H286.001C273.594 124.26 263.5 114.165 263.5 101.758V37.5029C263.5 25.096 273.594 15.0012 286.001 15.0012H336.915C366.738 15.0012 391 39.2631 391 69.0854V79.1662C391 83.3095 394.357 86.6668 398.5 86.6668C402.643 86.6668 406.001 83.3095 406.001 79.1662V69.0854C406.002 30.9914 375.009 0 336.916 0H286.002C267.519 0 252.127 13.443 249.063 31.0644H236.487C207.537 31.0644 183.983 54.6183 183.983 83.5685C183.983 83.5685 184.025 132.57 184.087 132.961C179.157 138.073 176.114 145.016 176.114 152.662V168.321C176.114 187.539 194.777 198.194 212.075 196.72C210.424 223.023 222.131 249.564 243.447 265.303V295.441L175.968 320.662C169.401 323.126 163.671 327.361 159.399 332.908L115.943 389.319V364.213C115.943 357.439 112.929 351.357 108.175 347.229V316.166C108.175 303.466 97.8427 293.133 85.1427 293.133C72.4427 293.133 62.1109 303.466 62.1109 316.166V341.712C46.3136 341.712 38.813 350.575 38.813 364.213V427.406C38.813 437.38 45.3396 445.856 54.3433 448.797V474.537C54.3433 510.614 100.942 526.291 123.36 495.679L163.072 447.699V504.499C163.072 508.643 166.429 512 170.572 512H465.685C469.829 512 473.186 508.643 473.186 504.499V427.393C473.186 423.25 469.829 419.893 465.685 419.893C461.542 419.893 458.185 423.25 458.185 427.393V496.999H411.058V397.479C411.058 393.336 407.701 389.978 403.558 389.978C399.414 389.978 396.057 393.336 396.057 397.479V403.551H178.074V395.81C178.074 391.667 174.717 388.309 170.573 388.309C166.43 388.309 163.073 391.667 163.073 395.81V424.172L111.572 486.396C99.2928 501.217 69.3454 501.665 69.3454 474.537V449.909H93.1753V457.941C93.1753 462.084 96.5326 465.441 100.676 465.441C104.819 465.441 108.176 462.084 108.176 457.941V444.392C112.932 440.262 115.948 434.18 115.948 427.402V413.894L171.284 342.062C173.849 338.731 177.292 336.188 181.229 334.71L249.731 309.106L290.319 339.668C293.253 341.877 297.119 341.369 299.821 339.307L340.135 308.953L434.389 338.646C448.621 343.287 458.185 356.464 458.185 371.438V394.7C458.185 398.844 461.543 402.201 465.685 402.201ZM396.057 418.553V465.977H267.291C263.148 465.977 259.79 469.335 259.79 473.478C259.79 477.621 263.148 480.979 267.291 480.979H396.058V497H178.074V480.979H234.608C238.752 480.979 242.109 477.621 242.109 473.478C242.109 469.335 238.752 465.977 234.608 465.977H178.074V418.553H396.057ZM77.112 316.168C77.112 311.738 80.7153 308.136 85.1427 308.136C89.572 308.136 93.1743 311.739 93.1743 316.168V341.714H77.112V316.168ZM53.8152 364.215C53.8152 360.079 57.1795 356.715 61.3158 356.715H93.4423C97.5786 356.715 100.943 360.079 100.943 364.215V372.779H77.3791C73.2357 372.779 69.8785 376.136 69.8785 380.28C69.8785 384.423 73.2357 387.78 77.3791 387.78H100.943V403.845H77.3791C73.2357 403.845 69.8785 407.202 69.8785 411.345C69.8785 415.488 73.2357 418.846 77.3791 418.846H100.943V427.409C100.943 432.411 97.9097 434.57 93.4473 434.906L61.3158 434.91C57.1795 434.91 53.8152 431.546 53.8152 427.409V364.215ZM398.546 168.321C398.546 175.71 392.536 181.719 385.148 181.719H377.588V139.263H385.148C392.537 139.263 398.546 145.273 398.546 152.661V168.321ZM198.985 83.5685C198.985 62.8889 215.808 46.0656 236.487 46.0656H248.499V101.758V101.76C248.499 114.167 238.405 124.262 225.998 124.262H219.576H198.985V83.5685ZM204.514 181.719C197.125 181.719 191.116 175.709 191.116 168.321V152.662C191.116 145.273 197.126 139.264 204.514 139.264H212.076V181.72L204.514 181.719ZM227.077 203.318V139.236C238.891 138.9 249.355 133.084 256.001 124.235C262.849 133.351 273.748 139.261 286.002 139.261H362.585L362.587 203.318C362.587 285.738 227.077 285.642 227.077 203.318ZM331.214 273.957V296.871L294.833 324.285L258.449 296.87V273.958C276.335 284.689 312.003 284.022 331.214 273.957Z" fill="black"/>
<path d="M79.8413 214.372C83.3775 217.3 86.9138 217.3 90.4491 214.372L121.514 183.306C124.443 180.376 124.443 175.628 121.513 172.698C118.584 169.77 113.835 169.77 110.906 172.698L85.1457 198.46L74.9169 188.231C71.9866 185.302 67.2383 185.302 64.309 188.231C61.3798 191.161 61.3798 195.909 64.309 198.839L79.8413 214.372Z" fill="#E65402"/>
<path d="M61.3158 263.521H124.508C136.915 263.521 147.01 253.426 147.01 241.019V232.455H170.574C178.495 232.392 181.995 226.351 175.908 219.681L147.01 190.453V146.053C147.01 133.646 136.915 123.552 124.508 123.552H61.3158C48.9088 123.552 38.8141 133.646 38.8141 146.053V241.019C38.8141 253.426 48.9078 263.521 61.3158 263.521ZM53.8152 146.053C53.8152 141.917 57.1795 138.553 61.3158 138.553H124.508C128.644 138.553 132.008 141.917 132.008 146.053V193.536C132.008 195.511 132.786 197.405 134.175 198.81L152.611 217.455H139.509C135.366 217.455 132.008 220.812 132.008 224.956V241.019C132.008 245.155 128.644 248.519 124.508 248.519H61.3158C57.1795 248.519 53.8152 245.155 53.8152 241.019V146.053Z" fill="#E65402"/>
</svg>
