<svg id="Layer_1" enable-background="new 0 0 100 100" viewBox="0 0 100 100" xmlns="http://www.w3.org/2000/svg"><path d="m11.5758333 83.0282593h29.3451881l-.2016869-.3025513c-1.714325-2.9246445-1.9160118-6.5552292-.6050529-9.6815643h-27.630865v-43.8695927h73.5142365v13.6147022c.4033737.2016983.8067398.4034004 1.2101059.7059479l.7058945-.2016983c1.573143-.6050987 3.2551956-.810833 4.9154739-.6172028 1.7176895.2003288 3.2527771-1.0521164 3.2527771-2.781456v-25.646039c0-5.0127945-4.0636749-9.0764675-9.0764694-9.0764675h-75.4296018c-5.0124431 0-9.0758314 4.0633879-9.0758314 9.0758305v59.8044739c.0000007 4.9416284 4.0337033 9.0764703 9.0758314 8.9756174zm71.5982237-68.8803044c2.117691 0 3.832016 1.7144442 3.832016 3.8322868s-1.7143173 3.8322868-3.832016 3.8322868c-2.117691 0-3.8320236-1.7144451-3.8320236-3.8322868.1008453-2.1178416 1.7143326-3.8322868 3.8320236-3.8322868zm-11.1935272 0c2.117691 0 3.8320236 1.7144442 3.8320236 3.8322868s-1.714325 3.8322868-3.8320236 3.8322868-3.832016-1.8152924-3.832016-3.8322868 1.7143173-3.8322868 3.832016-3.8322868zm-11.2943688 0c2.117691 0 3.8320198 1.7144442 3.8320198 3.8322868s-1.714325 3.8322868-3.832016 3.8322868c-2.1176949 0-3.832016-1.7144451-3.832016-3.8322868s1.7143174-3.8322868 3.8320122-3.8322868zm36.3033181 41.045805-2.117691-3.6305885c-.9075851-1.6135902-2.9244308-2.3195381-4.6387558-1.7144432l-4.2353821 1.5127449c-2.117691-1.9161453-4.6387558-3.3280373-7.3615112-4.2356873l-.8067398-4.5382347c-.302536-1.8152924-1.9160156-3.2271881-3.8320236-3.2271881h-4.2353821c-1.9160156 0-3.4286499 1.3110466-3.8320236 3.2271881l-.8067399 4.5382347c-2.7227516.90765-5.2438164 2.3195419-7.3615112 4.2356873l-4.2353859-1.5127449c-1.714325-.6050949-3.7311783.1008492-4.6387558 1.7144432l-2.1176949 3.6305885c-.9075851 1.6135902-.6050529 3.6305847.8067398 4.8407784l3.5294914 2.9246445c-.6050529 2.8237839-.6050529 5.647583 0 8.4713669l-3.5294914 2.9246368c-1.4117966 1.2101974-1.8151627 3.2271881-.8067398 4.8407898l2.1176949 3.6305847c.9075813 1.6135941 2.9244347 2.3195419 4.6387558 1.7144394l4.2353859-1.6135941c2.1176949 1.9161453 4.6387596 3.3280411 7.3615112 4.2356873l.8067398 4.4373856c.3025284 1.8152924 1.916008 3.1263351 3.7311707 3.2271805h4.2353897c1.916008 0 3.4286423-1.3110428 3.832016-3.2271805l.8067474-4.4373856c2.7227402-.9076538 5.2438049-2.3195496 7.3615036-4.2356873l4.2353897 1.6135941c1.7143173.6050949 3.7311707-.1008453 4.6387558-1.7144394l2.117691-3.6305847c.9075851-1.6135941.6050568-3.6305847-.8067398-4.8407898l-3.5294952-2.9246368c.6050568-2.8237915.6050568-5.647583 0-8.4713707l3.5294952-2.9246445c1.5126419-1.2101861 1.8151703-3.2271805.9075852-4.8407746zm-25.0089493 19.9682274c-4.4370728 0-7.9665604-3.6305847-7.9665604-7.9671173 0-4.4373894 3.6303253-7.9671249 7.9665604-7.9671249 4.4370728 0 7.966568 3.6305847 7.966568 7.9671249 0 4.3365326-3.6303406 7.9671173-7.966568 7.9671173z"/></svg>