<svg id="Layer_1" enable-background="new 0 0 512 512" viewBox="0 0 512 512" xmlns="http://www.w3.org/2000/svg"><path clip-rule="evenodd" d="m218.71 173.67c-.06.14-.11.28-.2.43-.34.79-.74 1.56-1.22 2.3-1.64 2.61-4.08 4.82-7.09 6.41-.11.03-.2.08-.28.14-.2.08-.4.2-.62.28-5.84 2.72-12.08 4.93-18.31 7.12-24.72 8.7-49.29 17.35-49.29 49.18v62.16c13.44-4.08 26.65-8.33 39.88-12.22v-11.45c0-4.48 3.66-8.11 8.14-8.11s8.11 3.63 8.11 8.11v6.97c4.34-1.13 8.7-2.18 13.12-3.17l.14-.14 4.51-.88c1.05-.23 2.13-.42 3.17-.62 8.08-1.59 16.3-2.86 24.69-3.74.51-.03 1.02-.08 1.53-.14l5.05-23.5h12.25l4.82 22.48c13.38.06 26.39 1.36 39.15 3.88 2.75.51 5.5 1.08 8.25 1.73v-2.86c0-4.48 3.63-8.11 8.11-8.11s8.11 3.63 8.11 8.11v7.34c13.1 4.22 25.99 9.86 38.66 17.04l1.22-.25v-62.62c0-31.83-24.55-40.48-49.29-49.18-6.24-2.18-12.47-4.39-18.31-7.12-.2-.08-.4-.2-.6-.28-.11-.06-.2-.11-.31-.17-3.03-1.59-5.41-3.77-7.09-6.38-.45-.74-.88-1.5-1.22-2.3-.06-.14-.11-.28-.2-.43-.91-2.27-1.42-4.76-1.42-7.43v-2.83c1.76-1.39 3.46-2.89 5.02-4.48 7.23-7.23 12.53-16.38 15.05-26.62h7.03c5.64 0 10.77-2.3 14.46-6.01 3.71-3.71 6.04-8.84 6.04-14.49v-15.79c0-.51-.03-1.02-.06-1.5 0-3.26.08-6.6.14-9.81.62-31.38 1.08-54.14-36.79-59.13l3.26-4.31c1.53-2.04 2.41-4.37 2.58-6.8.17-2.44-.37-4.88-1.62-7.11-1.19-2.18-2.92-3.91-5.02-5.07-2.04-1.16-4.34-1.79-6.77-1.79h-48.64c-19.84 0-39.09 6.26-53.04 17.8-13.12 10.83-21.54 26.19-21.54 45.24v32.48 15.79c0 5.64 2.3 10.77 6.01 14.49s8.82 6.01 14.48 6.01h7.03c2.49 10.23 7.8 19.39 15.02 26.62 1.67 1.67 3.46 3.26 5.33 4.71v2.61c-.01 2.65-.49 5.15-1.43 7.41zm95.1-81.89h5.44c1.16 0 2.21.48 3 1.25.77.79 1.25 1.84 1.25 3v15.79c0 1.16-.48 2.24-1.25 3-.79.79-1.84 1.28-3 1.28h-5.44zm-115.65 24.32h-5.41c-1.19 0-2.24-.48-3.03-1.28-.77-.77-1.25-1.84-1.25-3v-15.79c0-1.16.48-2.21 1.25-3 .79-.77 1.84-1.25 3.03-1.25h5.41zm30.13 98.7-.03.03-2.92 2.75-2.89-23.41c1.73-1.28 3.35-2.72 4.76-4.28l13.18 13.58zm7-39.85c.2-.88.4-1.76.54-2.66 5.95 2.13 12.33 3.29 18.99 3.29h2.35c6.75 0 13.24-1.19 19.25-3.37.17.91.37 1.84.6 2.75l-20.86 21.52zm28.07 61.6h-14.43l-5.53-13.72 12.76-11.96 12.73 11.96zm23.58-18.97-2.89-2.72-.06-.06-12.1-11.34 13.18-13.58c1.45 1.56 3.03 3 4.76 4.28zm-72.57-98.64v-33.25c0-1.98.82-3.77 2.13-5.07 1.3-1.3 3.09-2.13 5.07-2.13h4c2.92 0 5.73-.4 8.53-1.25 2.72-.82 5.27-2.07 7.77-3.71l6.83-4.59c2.27-1.5 4.79-2.24 7.29-2.24 2.52 0 5.05.74 7.28 2.24l6.86 4.59c2.47 1.64 5.02 2.89 7.77 3.71 2.78.85 5.58 1.25 8.5 1.25h4c1.98 0 3.77.82 5.07 2.13 1.3 1.3 2.13 3.09 2.13 5.07v33.25c0 11.08-4.56 21.2-11.88 28.54-7.34 7.31-17.43 11.88-28.54 11.88h-2.35c-8.14 0-15.76-2.44-22.11-6.63l-.08-.06c-2.3-1.5-4.42-3.26-6.35-5.19-7.35-7.34-11.92-17.46-11.92-28.54zm152.85 337.18c-24.94 16.7-46.94 26.99-66.84 32.68 2.44-10.4.03-21.83-7.51-30.39-6.32-7.14-15.08-11-23.98-11.42-1.39-3.46-3.4-6.72-5.98-9.67-9.64-10.94-25-14.17-37.93-9.16-.71-.99-1.45-1.96-2.27-2.89-7.94-8.99-19.7-12.76-30.81-11.06-1.13-2.01-2.49-3.91-4.05-5.7-12.36-14-34.04-15.36-48.05-3.03l-23.44 20.69c-4.59 4.03-7.82 9.07-9.67 14.51l-.65-.14 26.45-123.79 9.01 1.93c14.51-4.34 29.34-9.27 44.59-13.72l-25.17 23.5c-9.55 8.87-18.91 21.63-14.68 35.43 4.03 13.21 17.29 18.09 29.93 18.17 19.22.14 39.91-8.59 56.52-20.41 16.7 21.23 39.77 34.24 64.57 46.77 25 12.69 52.21 25.13 69.96 47.7zm12.58-139.35 26.62 124.5-25.91 5.56c-39.66-51.36-114.77-53.09-144.2-109.3-39.29 39.17-99.5 35.29-64.35 2.81l46.8-43.63c61.14-12.22 108.51-.94 147.83 22.88zm-217.87 138.33c-.02.02-.04.04-.06.06l-11.25 9.91c-7.34 6.46-18.65 5.75-25.14-1.59-6.46-7.34-5.75-18.65 1.59-25.14l23.44-20.66c7.37-6.49 18.68-5.78 25.14 1.56 6.48 7.35 5.78 18.63-1.51 25.1zm40.23 12.04c-.03.03-.06.06-.09.09l-16.58 14.59c-7.34 6.49-18.65 5.78-25.14-1.59-6.44-7.32-5.75-18.58 1.52-25.08l12.23-10.78c.02-.01.03-.03.05-.05l11.24-9.9c7.37-6.49 18.68-5.78 25.14 1.59 6.44 7.28 5.78 18.47-1.39 24.98zm38.92 13.18c-.03.02-.05.05-.07.07l-15.29 13.48c-7.34 6.49-18.68 5.78-25.14-1.59-6.46-7.31-5.78-18.55 1.5-25.05l6.9-6.07c.06-.05.11-.11.17-.16l16.47-14.52c7.34-6.49 18.65-5.78 25.14 1.59 6.42 7.29 5.76 18.49-1.45 25.01zm39.6-11.16c6.49 7.34 5.78 18.65-1.56 25.14l-14.48 12.76c-7.34 6.49-18.68 5.78-25.14-1.59-6.47-7.32-5.78-18.57 1.51-25.07l8.15-7.19c.05-.04.09-.09.14-.14l6.24-5.5c7.36-6.49 18.67-5.78 25.14 1.59zm203.35-36.68c.57 2.75-1.19 5.47-3.94 6.07l-50.17 10.72c-2.75.6-5.47-1.16-6.04-3.91l-29.82-139.44c-.57-2.75 1.19-5.47 3.94-6.07l50.17-10.71c2.75-.6 5.47 1.16 6.04 3.94zm-365.81-126.57-29.79 139.44c-.6 2.75-3.32 4.51-6.07 3.91l-50.17-10.72c-2.75-.6-4.51-3.32-3.91-6.07l29.79-139.41c.6-2.78 3.32-4.54 6.07-3.94l50.15 10.71c2.74.61 4.53 3.33 3.93 6.08zm-37.61-114.66c39.66 0 71.97-32.34 71.97-71.97 0-39.66-32.31-71.97-71.97-71.97-39.63 0-71.94 32.31-71.94 71.97-.01 39.62 32.31 71.97 71.94 71.97zm-16.33-102.73c2.3-2.3 5.1-4.14 8.22-5.27v-6.41c0-4.48 3.63-8.11 8.11-8.11s8.14 3.63 8.14 8.11v5.56c1.81.42 3.57 1.08 5.24 1.9 3.17 1.62 5.95 3.97 8.05 6.8 2.66 3.6 1.9 8.67-1.67 11.31-3.6 2.67-8.65 1.93-11.31-1.67-.62-.82-1.45-1.53-2.35-1.98-.88-.45-1.87-.68-2.95-.68h-3.4c-1.79 0-3.43.74-4.62 1.93s-1.93 2.81-1.93 4.62c0 1.79.74 3.43 1.93 4.62s2.83 1.93 4.62 1.93h.54 1.16c.6 0 1.16.06 1.73.17 5.1.65 9.72 3.03 13.18 6.49 4.14 4.14 6.69 9.84 6.69 16.1s-2.55 11.96-6.69 16.1c-2.3 2.3-5.1 4.11-8.22 5.27v6.41c0 4.48-3.66 8.11-8.14 8.11s-8.11-3.63-8.11-8.11v-5.56c-1.81-.43-3.6-1.08-5.24-1.9-3.17-1.62-5.95-3.97-8.05-6.83-2.66-3.57-1.9-8.65 1.67-11.31 3.6-2.64 8.65-1.9 11.31 1.7.62.82 1.42 1.5 2.35 1.98.88.43 1.87.68 2.95.68h3.4c1.79 0 3.43-.74 4.62-1.93s1.93-2.83 1.93-4.62-.74-3.43-1.93-4.62-2.83-1.93-4.62-1.93h-.54-1.16c-.6 0-1.16-.06-1.73-.2-5.13-.65-9.72-3-13.18-6.49-4.14-4.11-6.69-9.81-6.69-16.07 0-6.29 2.55-11.96 6.69-16.1zm433.93 52.53c.14-.03.28-.03.43-.06v39.94c0 4.45-3.8 8.11-8.45 8.11h-117.64c-4.65 0-8.45-3.66-8.45-8.11v-39.94c.14.03.28.03.43.06l58.73 7.29v.51c0 4.48 3.63 8.11 8.11 8.11s8.11-3.63 8.11-8.11v-.51zm-3.01-61.86h-16.98v-29.67c0-4.48-3.63-8.14-8.11-8.14h-77.5c-4.48 0-8.11 3.66-8.11 8.14v29.68h-16.98c-4.48 0-8.14 3.66-8.14 8.14v29.57c0 4.11 3.03 7.54 7.11 8.05l56.75 7.03v-9.58c0-4.48 3.63-8.11 8.11-8.11s8.11 3.63 8.11 8.11v9.58l56.75-7.03c4.08-.51 7.12-3.94 7.12-8.05v-29.58c.01-4.48-3.65-8.14-8.13-8.14zm-33.19 0h-61.29v-21.57h61.29z" fill-rule="evenodd"/></svg>