<svg width="128" height="128" viewBox="0 0 128 128" fill="none" xmlns="http://www.w3.org/2000/svg">
<g clip-path="url(#clip0_3_33)">
<path d="M35 30.0024C35.0005 29.4721 35.2114 28.9637 35.5864 28.5888C35.9613 28.2138 36.4697 28.0029 37 28.0024H91C91.5303 28.0029 92.0387 28.2138 92.4136 28.5888C92.7886 28.9637 92.9995 29.4721 93 30.0024V34.0024H97V30.0024C96.9983 28.4116 96.3656 26.8865 95.2407 25.7617C94.1159 24.6368 92.5908 24.0041 91 24.0024H66V15.4937C66.9116 14.8737 67.8494 15.1866 70.0684 16.354C71.5884 17.2993 73.3135 17.8652 75.0982 18.0039C75.9269 17.9916 76.7436 17.8032 77.494 17.451C78.2444 17.0989 78.9112 16.5911 79.4502 15.9614C79.8032 15.5897 80.0001 15.0966 80 14.5839V3.41987C80 3.01992 79.8801 2.62915 79.6558 2.29803C79.4314 1.96692 79.113 1.71066 78.7415 1.56237C78.3701 1.41408 77.9627 1.38055 77.572 1.46613C77.1813 1.5517 76.8252 1.75244 76.5498 2.04243C75.4126 3.24067 74.5918 3.05024 71.9316 1.64985C69.5386 0.391551 65.9253 -1.51079 62.5498 2.04243C62.1968 2.41414 61.9999 2.90723 62 3.41987V24.0024H37C35.4092 24.0041 33.8841 24.6368 32.7593 25.7617C31.6344 26.8865 31.0017 28.4116 31 30.0024V34.0024H35V30.0024ZM66 4.51509V4.31489C66.9106 3.69575 67.8496 4.02289 70.0684 5.18989C71.6519 6.02289 73.7729 7.13764 76 6.76655V13.6889C75.0879 14.3071 74.1499 13.9819 71.9316 12.8139C70.4116 11.8685 68.6865 11.3026 66.9018 11.164C66.5997 11.1636 66.2981 11.1881 66 11.2373V4.51509Z" fill="black"/>
<path d="M38 48C38 47.4696 37.7893 46.9609 37.4142 46.5858C37.0391 46.2107 36.5304 46 36 46H28C27.4696 46 26.9609 46.2107 26.5858 46.5858C26.2107 46.9609 26 47.4696 26 48V58C26 58.5304 26.2107 59.0391 26.5858 59.4142C26.9609 59.7893 27.4696 60 28 60H36C36.5304 60 37.0391 59.7893 37.4142 59.4142C37.7893 59.0391 38 58.5304 38 58V48ZM34 56H30V50H34V56Z" fill="#E65402"/>
<path d="M54 48C54 47.4696 53.7893 46.9609 53.4142 46.5858C53.0391 46.2107 52.5304 46 52 46H44C43.4696 46 42.9609 46.2107 42.5858 46.5858C42.2107 46.9609 42 47.4696 42 48V58C42 58.5304 42.2107 59.0391 42.5858 59.4142C42.9609 59.7893 43.4696 60 44 60H52C52.5304 60 53.0391 59.7893 53.4142 59.4142C53.7893 59.0391 54 58.5304 54 58V48ZM50 56H46V50H50V56Z" fill="#E65402"/>
<path d="M60 60H68C68.5304 60 69.0391 59.7893 69.4142 59.4142C69.7893 59.0391 70 58.5304 70 58V48C70 47.4696 69.7893 46.9609 69.4142 46.5858C69.0391 46.2107 68.5304 46 68 46H60C59.4696 46 58.9609 46.2107 58.5858 46.5858C58.2107 46.9609 58 47.4696 58 48V58C58 58.5304 58.2107 59.0391 58.5858 59.4142C58.9609 59.7893 59.4696 60 60 60ZM62 50H66V56H62V50Z" fill="#E65402"/>
<path d="M86 48C86 47.4696 85.7893 46.9609 85.4142 46.5858C85.0391 46.2107 84.5304 46 84 46H76C75.4696 46 74.9609 46.2107 74.5858 46.5858C74.2107 46.9609 74 47.4696 74 48V58C74 58.5304 74.2107 59.0391 74.5858 59.4142C74.9609 59.7893 75.4696 60 76 60H84C84.5304 60 85.0391 59.7893 85.4142 59.4142C85.7893 59.0391 86 58.5304 86 58V48ZM82 56H78V50H82V56Z" fill="#E65402"/>
<path d="M92 60H100C100.53 60 101.039 59.7893 101.414 59.4142C101.789 59.0391 102 58.5304 102 58V48C102 47.4696 101.789 46.9609 101.414 46.5858C101.039 46.2107 100.53 46 100 46H92C91.4696 46 90.9609 46.2107 90.5858 46.5858C90.2107 46.9609 90 47.4696 90 48V58C90 58.5304 90.2107 59.0391 90.5858 59.4142C90.9609 59.7893 91.4696 60 92 60ZM94 50H98V56H94V50Z" fill="#E65402"/>
<path d="M38 76V66C38 65.4696 37.7893 64.9609 37.4142 64.5858C37.0391 64.2107 36.5304 64 36 64H28C27.4696 64 26.9609 64.2107 26.5858 64.5858C26.2107 64.9609 26 65.4696 26 66V76C26 76.5304 26.2107 77.0391 26.5858 77.4142C26.9609 77.7893 27.4696 78 28 78H36C36.5304 78 37.0391 77.7893 37.4142 77.4142C37.7893 77.0391 38 76.5304 38 76ZM34 74H30V68H34V74Z" fill="#E65402"/>
<path d="M52 64H44C43.4696 64 42.9609 64.2107 42.5858 64.5858C42.2107 64.9609 42 65.4696 42 66V76C42 76.5304 42.2107 77.0391 42.5858 77.4142C42.9609 77.7893 43.4696 78 44 78H52C52.5304 78 53.0391 77.7893 53.4142 77.4142C53.7893 77.0391 54 76.5304 54 76V66C54 65.4696 53.7893 64.9609 53.4142 64.5858C53.0391 64.2107 52.5304 64 52 64ZM50 74H46V68H50V74Z" fill="#E65402"/>
<path d="M58 76C58 76.5304 58.2107 77.0391 58.5858 77.4142C58.9609 77.7893 59.4696 78 60 78H68C68.5304 78 69.0391 77.7893 69.4142 77.4142C69.7893 77.0391 70 76.5304 70 76V66C70 65.4696 69.7893 64.9609 69.4142 64.5858C69.0391 64.2107 68.5304 64 68 64H60C59.4696 64 58.9609 64.2107 58.5858 64.5858C58.2107 64.9609 58 65.4696 58 66V76ZM62 68H66V74H62V68Z" fill="#E65402"/>
<path d="M84 64H76C75.4696 64 74.9609 64.2107 74.5858 64.5858C74.2107 64.9609 74 65.4696 74 66V76C74 76.5304 74.2107 77.0391 74.5858 77.4142C74.9609 77.7893 75.4696 78 76 78H84C84.5304 78 85.0391 77.7893 85.4142 77.4142C85.7893 77.0391 86 76.5304 86 76V66C86 65.4696 85.7893 64.9609 85.4142 64.5858C85.0391 64.2107 84.5304 64 84 64ZM82 74H78V68H82V74Z" fill="#E65402"/>
<path d="M90 76C90 76.5304 90.2107 77.0391 90.5858 77.4142C90.9609 77.7893 91.4696 78 92 78H100C100.53 78 101.039 77.7893 101.414 77.4142C101.789 77.0391 102 76.5304 102 76V66C102 65.4696 101.789 64.9609 101.414 64.5858C101.039 64.2107 100.53 64 100 64H92C91.4696 64 90.9609 64.2107 90.5858 64.5858C90.2107 64.9609 90 65.4696 90 66V76ZM94 68H98V74H94V68Z" fill="#E65402"/>
<path d="M55 91C55 92.78 55.5278 94.5201 56.5168 96.0001C57.5057 97.4802 58.9113 98.6337 60.5559 99.3149C62.2004 99.9961 64.01 100.174 65.7558 99.8271C67.5016 99.4798 69.1053 98.6226 70.364 97.364C71.6226 96.1053 72.4798 94.5016 72.8271 92.7558C73.1743 91.01 72.9961 89.2004 72.3149 87.5558C71.6337 85.9113 70.4802 84.5057 69.0001 83.5168C67.5201 82.5278 65.78 82 64 82C61.6139 82.0028 59.3263 82.9519 57.6391 84.6391C55.9519 86.3263 55.0028 88.6139 55 91ZM64 86C64.9889 86 65.9556 86.2932 66.7779 86.8427C67.6001 87.3921 68.241 88.173 68.6194 89.0866C68.9978 90.0002 69.0968 91.0055 68.9039 91.9754C68.711 92.9454 68.2348 93.8363 67.5355 94.5355C66.8363 95.2348 65.9454 95.711 64.9754 95.9039C64.0055 96.0968 63.0002 95.9978 62.0866 95.6194C61.173 95.241 60.3921 94.6001 59.8427 93.7779C59.2932 92.9556 59 91.9889 59 91C59.0016 89.6744 59.5288 88.4035 60.4662 87.4662C61.4035 86.5288 62.6744 86.0016 64 86Z" fill="black"/>
<path d="M71.1841 104H56.8159C54.1901 104.027 51.6821 105.094 49.842 106.967C48.0018 108.84 46.9798 111.367 47 113.993V122C47.0017 123.591 47.6344 125.116 48.7593 126.241C49.8841 127.366 51.4092 127.998 53 128H75C76.5908 127.998 78.1159 127.366 79.2407 126.241C80.3656 125.116 80.9983 123.591 81 122V113.993C81.0202 111.367 79.9982 108.84 78.158 106.967C76.3179 105.094 73.8098 104.027 71.1841 104ZM77 122C76.9995 122.53 76.7886 123.039 76.4136 123.414C76.0387 123.789 75.5303 123.999 75 124H53C52.4697 123.999 51.9613 123.789 51.5864 123.414C51.2114 123.039 51.0005 122.53 51 122V113.993C50.9787 112.427 51.579 110.918 52.6692 109.794C53.7595 108.671 55.2507 108.026 56.8159 108H71.1841C72.7493 108.026 74.2405 108.671 75.3308 109.794C76.421 110.918 77.0213 112.427 77 113.993V122Z" fill="black"/>
<path d="M6 58H9V54H6C4.40923 54.0017 2.88412 54.6344 1.75928 55.7593C0.634435 56.8841 0.00173639 58.4092 0 60L0 111C0.000868196 111.795 0.317218 112.558 0.879639 113.12C1.44206 113.683 2.20462 113.999 3 114H5V113.993C5.00113 112.641 5.19711 111.296 5.58191 110H4V60C4.00053 59.4697 4.21141 58.9613 4.58637 58.5864C4.96133 58.2114 5.46973 58.0005 6 58Z" fill="black"/>
<path d="M13.1177 92.6562H13V101.328C14.2007 100.758 15.4786 100.367 16.7929 100.167C14.772 98.1381 13.4798 95.4971 13.1177 92.6562Z" fill="black"/>
<path d="M17 91C17 92.78 17.5278 94.5201 18.5168 96.0001C19.5057 97.4802 20.9113 98.6337 22.5558 99.3149C24.2004 99.9961 26.01 100.174 27.7558 99.8271C29.5016 99.4798 31.1053 98.6226 32.364 97.364C33.6226 96.1053 34.4798 94.5016 34.8271 92.7558C35.1743 91.01 34.9961 89.2004 34.3149 87.5558C33.6337 85.9113 32.4802 84.5057 31.0001 83.5168C29.5201 82.5278 27.78 82 26 82C23.6139 82.0028 21.3263 82.9519 19.6391 84.6391C17.9519 86.3263 17.0028 88.6139 17 91ZM31 91C31 91.9889 30.7068 92.9556 30.1573 93.7779C29.6079 94.6001 28.827 95.241 27.9134 95.6194C26.9998 95.9978 25.9945 96.0968 25.0245 95.9039C24.0546 95.711 23.1637 95.2348 22.4645 94.5355C21.7652 93.8363 21.289 92.9454 21.0961 91.9754C20.9031 91.0055 21.0022 90.0002 21.3806 89.0866C21.759 88.173 22.3999 87.3921 23.2221 86.8427C24.0444 86.2932 25.0111 86 26 86C27.3256 86.0016 28.5965 86.5288 29.5338 87.4662C30.4712 88.4035 30.9984 89.6744 31 91Z" fill="black"/>
<path d="M33.1841 104H18.8159C16.1901 104.027 13.6821 105.094 11.842 106.967C10.0018 108.84 8.97977 111.367 9 113.993V122C9.00174 123.591 9.63444 125.116 10.7593 126.241C11.8841 127.366 13.4092 127.998 15 128H37C38.5908 127.998 40.1159 127.366 41.2407 126.241C42.3656 125.116 42.9983 123.591 43 122V113.993C43.0202 111.367 41.9982 108.84 40.158 106.967C38.3179 105.094 35.8099 104.027 33.1841 104ZM39 122C38.9995 122.53 38.7886 123.039 38.4136 123.414C38.0387 123.789 37.5303 123.999 37 124H15C14.4697 123.999 13.9613 123.789 13.5864 123.414C13.2114 123.039 13.0005 122.53 13 122V113.993C12.9787 112.427 13.579 110.918 14.6692 109.794C15.7595 108.671 17.2507 108.026 18.8159 108H33.1841C34.7493 108.026 36.2405 108.671 37.3308 109.794C38.421 110.918 39.0213 112.427 39 113.993V122Z" fill="black"/>
<path d="M102 100C103.78 100 105.52 99.4722 107 98.4832C108.48 97.4943 109.634 96.0887 110.315 94.4442C110.996 92.7996 111.174 90.99 110.827 89.2442C110.48 87.4984 109.623 85.8947 108.364 84.636C107.105 83.3774 105.502 82.5202 103.756 82.1729C102.01 81.8257 100.2 82.0039 98.5558 82.6851C96.9113 83.3663 95.5057 84.5198 94.5168 85.9999C93.5278 87.4799 93 89.22 93 91C93.0028 93.3861 93.9519 95.6737 95.6391 97.3609C97.3263 99.0481 99.6139 99.9972 102 100ZM102 86C102.989 86 103.956 86.2932 104.778 86.8427C105.6 87.3921 106.241 88.173 106.619 89.0866C106.998 90.0002 107.097 91.0055 106.904 91.9755C106.711 92.9454 106.235 93.8363 105.536 94.5355C104.836 95.2348 103.945 95.711 102.975 95.9039C102.006 96.0969 101 95.9978 100.087 95.6194C99.173 95.241 98.3921 94.6001 97.8427 93.7779C97.2932 92.9556 97 91.9889 97 91C97.0016 89.6744 97.5288 88.4035 98.4662 87.4662C99.4035 86.5288 100.674 86.0016 102 86Z" fill="black"/>
<path d="M109.184 104H94.8159C92.1901 104.027 89.6821 105.094 87.842 106.967C86.0018 108.84 84.9798 111.367 85 113.993V122C85.0017 123.591 85.6344 125.116 86.7593 126.241C87.8841 127.366 89.4092 127.998 91 128H113C114.591 127.998 116.116 127.366 117.241 126.241C118.366 125.116 118.998 123.591 119 122V113.993C119.02 111.367 117.998 108.84 116.158 106.967C114.318 105.094 111.81 104.027 109.184 104ZM115 122C114.999 122.53 114.789 123.039 114.414 123.414C114.039 123.789 113.53 123.999 113 124H91C90.4697 123.999 89.9613 123.789 89.5864 123.414C89.2114 123.039 89.0005 122.53 89 122V113.993C88.9787 112.427 89.579 110.918 90.6692 109.794C91.7595 108.671 93.2507 108.026 94.8159 108H109.184C110.749 108.026 112.241 108.671 113.331 109.794C114.421 110.918 115.021 112.427 115 113.993V122Z" fill="black"/>
<path d="M122 54H119V58H122C122.53 58.0005 123.039 58.2114 123.414 58.5864C123.789 58.9613 123.999 59.4697 124 60V110H122.418C122.803 111.296 122.999 112.641 123 113.993V114H125C125.795 113.999 126.558 113.683 127.12 113.12C127.683 112.558 127.999 111.795 128 111V60C127.998 58.4092 127.366 56.8841 126.241 55.7593C125.116 54.6344 123.591 54.0017 122 54Z" fill="black"/>
<path d="M111.207 100.167C112.521 100.367 113.799 100.758 115 101.328V92.6875H114.878C114.51 95.5166 113.22 98.1456 111.207 100.167Z" fill="black"/>
<path d="M17 81.6408V44C17.0005 43.4697 17.2114 42.9613 17.5864 42.5864C17.9613 42.2114 18.4697 42.0005 19 42H109C109.53 42.0005 110.039 42.2114 110.414 42.5864C110.789 42.9613 110.999 43.4697 111 44V81.6408C113.246 83.7941 114.643 86.6834 114.936 89.7813H115V44C114.998 42.4092 114.366 40.8841 113.241 39.7593C112.116 38.6344 110.591 38.0017 109 38H19C17.4092 38.0017 15.8841 38.6344 14.7593 39.7593C13.6344 40.8841 13.0017 42.4092 13 44V89.7813H13.0776C13.3661 86.6851 14.7582 83.7958 17 81.6408Z" fill="black"/>
<path d="M51 91C51.0007 89.6415 51.2154 88.2917 51.6361 87H48C46.4092 87.0017 44.8841 87.6344 43.7593 88.7593C42.6344 89.8841 42.0017 91.4092 42 93V103.25C43.1918 104.25 44.209 105.441 45.0098 106.774C45.3097 106.272 45.6404 105.789 46 105.328V93C46.0005 92.4697 46.2114 91.9613 46.5864 91.5864C46.9613 91.2114 47.4697 91.0005 48 91H51Z" fill="black"/>
<path d="M86 103.25V93C85.9983 91.4092 85.3656 89.8841 84.2407 88.7593C83.1159 87.6344 81.5908 87.0017 80 87H76.3639C76.7846 88.2917 76.9993 89.6415 77 91H80C80.5303 91.0005 81.0387 91.2114 81.4136 91.5864C81.7886 91.9613 81.9995 92.4697 82 93V105.328C82.3596 105.789 82.6903 106.272 82.9902 106.774C83.791 105.441 84.8082 104.25 86 103.25Z" fill="black"/>
</g>
<defs>
<clipPath id="clip0_3_33">
<rect width="128" height="128" fill="white"/>
</clipPath>
</defs>
</svg>
