<svg width="50" height="50" viewBox="0 0 50 50" fill="none" xmlns="http://www.w3.org/2000/svg">
<path d="M40.4346 6.39915C36.3083 2.27242 30.8281 0 24.9924 0C19.1566 0 13.6734 2.27242 9.54704 6.39915C5.42068 10.5255 3.125 16.0118 3.125 21.8475C3.125 29.6703 7.30553 36.8858 14.0503 40.7856V50H35.849V40.7856C42.6914 36.8858 46.8216 29.67 46.8216 21.8475C46.8216 16.0118 44.5614 10.5255 40.4346 6.39915ZM34.3826 48.5336H15.5167V32.7957H17.1783V46.8719H32.7209V32.7957H34.3826V48.5336ZM24.9496 43.6951C27.1015 43.6951 29.2995 43.3838 31.2546 42.7704V45.4056H18.6447V42.7704C20.6974 43.3838 22.7978 43.6951 24.9496 43.6951ZM18.6447 41.2342V37.8059C20.6974 38.5998 22.7627 39.003 24.9496 39.003C27.1366 39.003 29.2995 38.5998 31.2546 37.8059V41.2342C29.2995 41.8938 27.1072 42.2287 24.9496 42.2287C22.7924 42.2287 20.6974 41.8938 18.6447 41.2342ZM35.849 39.0724V35.0948C39.8567 31.8195 42.1295 27.0126 42.1295 21.8475C42.1295 17.7773 40.691 13.8309 38.0569 10.7353L36.9461 11.6856C39.3551 14.5161 40.6601 18.1252 40.6601 21.8475C40.6601 26.1517 38.9771 30.1838 35.849 33.1326V31.3293H31.2546V36.2183C29.2995 37.0934 27.1477 37.5366 24.9496 37.5366C22.7516 37.5366 20.6974 37.093 18.6447 36.2183V31.3293H14.0503V39.0724C8.1852 35.347 4.5929 28.8586 4.5929 21.8475C4.5929 10.6091 13.7478 1.46637 24.9863 1.46637C36.2247 1.46637 45.3491 10.6091 45.3491 21.8475C45.3491 28.8586 41.8118 35.347 35.849 39.0724Z" fill="black"/>
<path d="M36.4357 9.06067C33.2882 6.24352 29.2263 4.69208 24.9985 4.69208C15.5388 4.69208 7.84302 12.3878 7.84302 21.8475C7.84302 26.0754 9.39445 30.1373 12.2116 33.2848L13.3045 32.3071C10.7281 29.4289 9.30939 25.7141 9.30939 21.8475C9.30939 13.1966 16.3475 6.15845 24.9985 6.15845C28.8651 6.15845 32.5798 7.57713 35.4576 10.1532L36.4357 9.06067Z" fill="black"/>
<path d="M16.7358 20.0874C17.02 19.3966 16.8827 18.5715 16.3223 18.0111C15.7623 17.4511 14.9372 17.3138 14.2464 17.598C13.9591 16.9086 13.2786 16.4223 12.4863 16.4223C11.4353 16.4223 10.5801 17.2775 10.5801 18.3285C10.5801 18.7775 10.7094 19.3684 10.9715 20.1229C10.4923 20.5441 10.1891 21.1609 10.1891 21.8475C10.1891 22.5334 10.4916 23.1491 10.9695 23.5706C10.7086 24.3217 10.5801 24.913 10.5801 25.3666C10.5801 26.4175 11.4353 27.2728 12.4863 27.2728C13.2786 27.2728 13.9591 26.7864 14.2464 26.0967C14.4791 26.1929 14.7266 26.2413 14.9746 26.2413C15.4629 26.2413 15.9508 26.0551 16.3227 25.6836C16.8827 25.1236 17.02 24.2985 16.7358 23.6076C17.4252 23.3204 17.9115 22.6398 17.9115 21.8475C17.9115 21.0552 17.4252 20.3747 16.7358 20.0874ZM12.4863 17.8886C12.7289 17.8886 12.9261 18.0859 12.9261 18.3285C12.9261 18.4845 12.8891 18.8213 12.6789 19.4641C12.6644 19.4939 12.6492 19.5248 12.6347 19.5557C12.5854 19.5526 12.5362 19.5503 12.4863 19.5503C12.4325 19.5503 12.3795 19.553 12.3268 19.5564C12.0876 18.8492 12.0464 18.4895 12.0464 18.3285C12.0464 18.0859 12.2437 17.8886 12.4863 17.8886ZM12.4863 25.8064C12.2437 25.8064 12.0464 25.6092 12.0464 25.3666C12.0464 25.2033 12.0872 24.8413 12.3245 24.1383C12.3779 24.1421 12.4317 24.1447 12.4863 24.1447C12.5351 24.1447 12.5839 24.1425 12.632 24.1394C12.6469 24.1707 12.6621 24.202 12.677 24.2321C12.8887 24.8783 12.9261 25.2129 12.9261 25.3666C12.9261 25.6092 12.7289 25.8064 12.4863 25.8064ZM12.4863 22.6784C12.0281 22.6784 11.6554 22.3057 11.6554 21.8475C11.6554 21.3894 12.0281 21.0167 12.4863 21.0167C12.9444 21.0167 13.3171 21.3894 13.3171 21.8475C13.3171 22.3057 12.9444 22.6784 12.4863 22.6784ZM14.0343 20.0325C14.3429 19.4221 14.5542 19.1574 14.6637 19.0483C14.7495 18.9625 14.8621 18.9198 14.9746 18.9198C15.0875 18.9198 15.2 18.9625 15.2859 19.0479C15.4572 19.2196 15.4572 19.4988 15.2859 19.6701C15.1749 19.7815 14.9086 19.9944 14.3013 20.3022C14.2712 20.3121 14.2418 20.322 14.2109 20.3327C14.146 20.2587 14.077 20.1893 14.0034 20.1244C14.0141 20.0935 14.024 20.0634 14.0343 20.0325ZM15.2859 24.6468C15.1142 24.8184 14.835 24.8184 14.6637 24.6468C14.5523 24.5358 14.3394 24.2699 14.0316 23.6622C14.0213 23.6321 14.0118 23.6027 14.0011 23.5722C14.0751 23.5073 14.1445 23.4379 14.2094 23.3643C14.2403 23.3753 14.2704 23.3852 14.3009 23.3955C14.9117 23.7041 15.1764 23.9155 15.2859 24.0246C15.4572 24.1962 15.4572 24.4755 15.2859 24.6468ZM16.0053 22.2874C15.8493 22.2874 15.5125 22.2504 14.8693 22.0402C14.8396 22.0253 14.8087 22.0108 14.7781 21.9959C14.7812 21.9467 14.7835 21.8975 14.7835 21.8475C14.7835 21.7987 14.7812 21.7499 14.7781 21.7018C14.8094 21.6869 14.8407 21.6717 14.8708 21.6568C15.517 21.4451 15.8512 21.4077 16.0053 21.4077C16.2479 21.4077 16.4452 21.6049 16.4452 21.8475C16.4452 22.0901 16.2479 22.2874 16.0053 22.2874Z" fill="#E65402"/>
<path d="M29.2477 32.5996C29.5322 31.9088 29.3949 31.0841 28.8345 30.5233C28.2742 29.9633 27.4494 29.826 26.7586 30.1105C26.4713 29.4209 25.7908 28.9345 24.9985 28.9345C24.2062 28.9345 23.5256 29.4209 23.2384 30.1105C22.5475 29.826 21.7224 29.9633 21.162 30.5237C20.602 31.0837 20.4647 31.9088 20.7489 32.5996C20.0596 32.8869 19.5732 33.5674 19.5732 34.3597C19.5732 35.4107 20.4285 36.2659 21.4794 36.2659C21.9326 36.2659 22.5243 36.1374 23.2754 35.8765C23.6965 36.3548 24.3126 36.657 24.9985 36.657C25.6851 36.657 26.3016 36.3537 26.7231 35.8746C27.4776 36.1366 28.0685 36.2659 28.5175 36.2659C29.5685 36.2659 30.4237 35.4107 30.4237 34.3597C30.4237 33.5674 29.9374 32.8869 29.2477 32.5996ZM21.4794 34.7996C21.2368 34.7996 21.0396 34.6024 21.0396 34.3597C21.0396 34.1171 21.2368 33.9199 21.4794 33.9199C21.6331 33.9199 21.9677 33.9573 22.6139 34.169C22.644 34.1839 22.6753 34.1991 22.7066 34.214C22.7036 34.2621 22.7013 34.3109 22.7013 34.3597C22.7013 34.4143 22.7039 34.4681 22.7077 34.5215C22.0047 34.7588 21.6427 34.7996 21.4794 34.7996ZM23.2738 32.8449C23.2433 32.8342 23.214 32.8243 23.1842 32.8144C22.5765 32.5066 22.3103 32.2933 22.1992 32.1823C22.0276 32.011 22.0276 31.7318 22.1992 31.5605C22.2851 31.4747 22.3976 31.432 22.5101 31.432C22.6227 31.432 22.7356 31.4747 22.8214 31.5605C22.9309 31.67 23.1419 31.9344 23.4509 32.5451C23.4612 32.5756 23.4711 32.6057 23.4818 32.637C23.4081 32.7015 23.3387 32.7709 23.2738 32.8449ZM24.9985 30.4008C25.2411 30.4008 25.4383 30.5981 25.4383 30.8407C25.4383 30.9944 25.4009 31.329 25.1892 31.9752C25.1743 32.0053 25.1591 32.0366 25.1442 32.0675C25.0961 32.0644 25.0473 32.0625 24.9985 32.0625C24.9485 32.0625 24.8993 32.0648 24.8501 32.0679C24.8352 32.0374 24.8207 32.0068 24.8058 31.9767C24.5956 31.3335 24.5586 30.9967 24.5586 30.8407C24.5586 30.5981 24.7559 30.4008 24.9985 30.4008ZM24.9985 35.1906C24.5403 35.1906 24.1676 34.8179 24.1676 34.3597C24.1676 33.9016 24.5403 33.5289 24.9985 33.5289C25.4566 33.5289 25.8293 33.9016 25.8293 34.3597C25.8293 34.8179 25.4566 35.1906 24.9985 35.1906ZM26.7216 32.8426C26.6567 32.7694 26.5869 32.7 26.5133 32.6351C26.524 32.6046 26.5339 32.5748 26.5438 32.5451C26.8517 31.9374 27.0645 31.6715 27.1759 31.5601C27.2617 31.4747 27.3743 31.4316 27.4868 31.4316C27.5993 31.4316 27.7122 31.4747 27.7981 31.5601C27.9694 31.7318 27.9694 32.011 27.7981 32.1823C27.6886 32.2918 27.4242 32.5031 26.8135 32.8117C26.7826 32.822 26.7529 32.832 26.7216 32.8426ZM28.5175 34.7996C28.3566 34.7996 27.9968 34.7584 27.2896 34.5192C27.293 34.4666 27.2957 34.4135 27.2957 34.3597C27.2957 34.3098 27.2934 34.2606 27.2903 34.2113C27.3212 34.1969 27.3521 34.1816 27.3819 34.1667C28.0247 33.9569 28.3615 33.9199 28.5175 33.9199C28.7601 33.9199 28.9574 34.1171 28.9574 34.3597C28.9574 34.602 28.7601 34.7996 28.5175 34.7996Z" fill="#E65402"/>
<path d="M24.9985 16.4223C22.007 16.4223 19.5732 18.856 19.5732 21.8475C19.5732 24.839 22.007 27.2728 24.9985 27.2728C27.99 27.2728 30.4237 24.839 30.4237 21.8475C30.4237 18.856 27.99 16.4223 24.9985 16.4223ZM24.9985 25.8064C22.8157 25.8064 21.0396 24.0307 21.0396 21.8475C21.0396 19.6644 22.8157 17.8886 24.9985 17.8886C27.1816 17.8886 28.9574 19.6644 28.9574 21.8475C28.9574 24.0307 27.1816 25.8064 24.9985 25.8064Z" fill="black"/>
<path d="M24.9985 19.5503C23.732 19.5503 22.7013 20.5807 22.7013 21.8475C22.7013 23.114 23.732 24.1447 24.9985 24.1447C26.2653 24.1447 27.2957 23.114 27.2957 21.8475C27.2957 20.5807 26.2653 19.5503 24.9985 19.5503ZM24.9985 22.6784C24.5403 22.6784 24.1676 22.3057 24.1676 21.8475C24.1676 21.3894 24.5403 21.0167 24.9985 21.0167C25.4566 21.0167 25.8293 21.3894 25.8293 21.8475C25.8293 22.3057 25.4566 22.6784 24.9985 22.6784Z" fill="black"/>
<path d="M5.44815 21.1632H7.01218V22.6295H5.44815V21.1632Z" fill="black"/>
<path d="M24.2165 2.39487H25.7805V3.86124H24.2165V2.39487Z" fill="black"/>
<path d="M24.2165 39.9315H25.7805V41.3979H24.2165V39.9315Z" fill="black"/>
<path d="M42.9848 21.1632H44.5488V22.6295H42.9848V21.1632Z" fill="black"/>
<path d="M10.6556 8.54187L11.6924 7.50504L12.7987 8.61092L11.7619 9.64775L10.6556 8.54187Z" fill="black"/>
<path d="M37.1979 35.0842L38.2347 34.0473L39.3406 35.1532L38.3038 36.19L37.1979 35.0842Z" fill="black"/>
<path d="M10.6556 35.1532L11.7615 34.0469L12.7983 35.0842L11.6924 36.19L10.6556 35.1532Z" fill="black"/>
<path d="M37.1979 8.61092L38.3041 7.50504L39.341 8.54187L38.2347 9.64775L37.1979 8.61092Z" fill="black"/>
<path d="M35.7506 17.598C35.0597 17.3138 34.235 17.4511 33.6742 18.0115C33.1142 18.5715 32.9769 19.3966 33.2611 20.0874C32.5718 20.3747 32.0854 21.0552 32.0854 21.8475C32.0854 22.6398 32.5718 23.3204 33.2611 23.6076C32.9769 24.2981 33.1142 25.1232 33.6746 25.6836C34.0462 26.0551 34.5341 26.2409 35.0224 26.2409C35.2703 26.2409 35.5179 26.1929 35.7506 26.0967C36.0378 26.7864 36.7184 27.2728 37.5107 27.2728C38.5616 27.2728 39.4169 26.4175 39.4169 25.3666C39.4169 24.913 39.2883 24.3217 39.0274 23.5703C39.5054 23.1491 39.8079 22.533 39.8079 21.8475C39.8079 21.1609 39.5046 20.5441 39.0255 20.1229C39.2876 19.3684 39.4169 18.7775 39.4169 18.3285C39.4169 17.2771 38.5616 16.4223 37.5107 16.4223C36.7184 16.4223 36.0378 16.9086 35.7506 17.598ZM34.7111 19.0479C34.7969 18.9625 34.9098 18.9194 35.0224 18.9194C35.1349 18.9194 35.2478 18.9625 35.3333 19.0479C35.4427 19.1574 35.6541 19.4218 35.9627 20.0325C35.9734 20.063 35.9829 20.0932 35.994 20.1244C35.9203 20.1893 35.8509 20.2587 35.7861 20.3323C35.7555 20.322 35.7262 20.3121 35.696 20.3018C35.0883 19.9944 34.8225 19.7811 34.7115 19.6701C34.5398 19.4988 34.5398 19.2196 34.7111 19.0479ZM33.5518 21.8475C33.5518 21.6049 33.749 21.4077 33.9916 21.4077C34.1454 21.4077 34.4803 21.4451 35.1261 21.6568C35.1563 21.6717 35.1875 21.6869 35.2188 21.7018C35.2158 21.7499 35.2135 21.7987 35.2135 21.8475C35.2135 21.8975 35.2158 21.9467 35.2188 21.9959C35.1883 22.0108 35.1574 22.0253 35.1276 22.0402C34.4845 22.2504 34.1476 22.2874 33.9916 22.2874C33.749 22.2874 33.5518 22.0901 33.5518 21.8475ZM35.9653 23.6622C35.6579 24.2699 35.4446 24.5358 35.3336 24.6468C35.162 24.8184 34.8827 24.8184 34.7115 24.6471C34.5398 24.4755 34.5398 24.1962 34.7115 24.025C34.8209 23.9155 35.0853 23.7041 35.696 23.3955C35.7269 23.3852 35.7567 23.3753 35.788 23.3646C35.8528 23.4383 35.9222 23.5077 35.9959 23.5722C35.9852 23.6027 35.9753 23.6321 35.9653 23.6622ZM37.5107 25.8064C37.2681 25.8064 37.0708 25.6092 37.0708 25.3666C37.0708 25.2129 37.1082 24.8783 37.3199 24.2321C37.3348 24.202 37.3501 24.1707 37.365 24.1394C37.4134 24.1425 37.4619 24.1447 37.5107 24.1447C37.5652 24.1447 37.619 24.1421 37.6724 24.1383C37.9097 24.8413 37.9505 25.2033 37.9505 25.3666C37.9505 25.6092 37.7533 25.8064 37.5107 25.8064ZM37.5107 17.8886C37.7533 17.8886 37.9505 18.0859 37.9505 18.3285C37.9505 18.4895 37.9093 18.8492 37.6701 19.5564C37.6175 19.553 37.5645 19.5503 37.5107 19.5503C37.4607 19.5503 37.4115 19.5526 37.3627 19.5557C37.3478 19.5248 37.3325 19.4939 37.318 19.4641C37.1078 18.8213 37.0708 18.4845 37.0708 18.3285C37.0708 18.0859 37.2681 17.8886 37.5107 17.8886ZM37.5107 21.0167C37.9688 21.0167 38.3415 21.3894 38.3415 21.8475C38.3415 22.3057 37.9688 22.6784 37.5107 22.6784C37.0525 22.6784 36.6798 22.3057 36.6798 21.8475C36.6798 21.3894 37.0525 21.0167 37.5107 21.0167Z" fill="#E65402"/>
<path d="M28.5175 7.42912C28.0643 7.42912 27.4727 7.55768 26.7216 7.81822C26.3 7.34024 25.684 7.03812 24.9985 7.03812C24.3118 7.03812 23.6954 7.34138 23.2738 7.82051C22.5193 7.55844 21.9284 7.42912 21.4794 7.42912C20.4285 7.42912 19.5732 8.28438 19.5732 9.33533C19.5732 10.1276 20.0596 10.8082 20.7493 11.0954C20.4647 11.7859 20.602 12.611 21.1624 13.1714C21.534 13.5429 22.0222 13.7287 22.5101 13.7287C22.7581 13.7287 23.0057 13.6803 23.2384 13.5845C23.5256 14.2742 24.2062 14.7606 24.9985 14.7606C25.7908 14.7606 26.4713 14.2742 26.7586 13.5845C26.9913 13.6803 27.2388 13.7287 27.4868 13.7287C27.9751 13.7287 28.463 13.5429 28.8349 13.1714C29.3949 12.6114 29.5322 11.7863 29.248 11.0954C29.9374 10.8082 30.4237 10.1276 30.4237 9.33533C30.4237 8.28438 29.5685 7.42912 28.5175 7.42912ZM21.0396 9.33533C21.0396 9.09271 21.2368 8.89549 21.4794 8.89549C21.6404 8.89549 22.0001 8.93669 22.7074 9.17587C22.7039 9.22852 22.7013 9.28154 22.7013 9.33533C22.7013 9.3853 22.7036 9.43451 22.7066 9.48334C22.6761 9.49821 22.6452 9.51347 22.6151 9.52797C21.9727 9.73816 21.6354 9.77516 21.4794 9.77516C21.2368 9.77516 21.0396 9.57794 21.0396 9.33533ZM23.4531 11.15C23.1453 11.7577 22.9321 12.0235 22.821 12.1346C22.6494 12.3062 22.3705 12.3062 22.1992 12.1349C22.0276 11.9633 22.0276 11.684 22.1992 11.5128C22.3087 11.4033 22.5727 11.1919 23.1834 10.8833C23.2143 10.873 23.2441 10.8631 23.2754 10.8524C23.3406 10.9261 23.41 10.9955 23.4837 11.06C23.473 11.0905 23.4631 11.1202 23.4531 11.15ZM24.9985 13.2942C24.7559 13.2942 24.5586 13.097 24.5586 12.8544C24.5586 12.7007 24.596 12.3657 24.8077 11.7199C24.8226 11.6898 24.8379 11.6585 24.8528 11.6272C24.9012 11.6302 24.9496 11.6325 24.9985 11.6325C25.0484 11.6325 25.0977 11.6302 25.1469 11.6272C25.1617 11.6577 25.1762 11.6886 25.1911 11.7184C25.4013 12.3615 25.4383 12.6984 25.4383 12.8544C25.4383 13.097 25.2411 13.2942 24.9985 13.2942ZM24.9985 10.1662C24.5403 10.1662 24.1676 9.79347 24.1676 9.33533C24.1676 8.87718 24.5403 8.50449 24.9985 8.50449C25.4566 8.50449 25.8293 8.87718 25.8293 9.33533C25.8293 9.79347 25.4566 10.1662 24.9985 10.1662ZM27.7981 12.1346C27.6264 12.3062 27.3476 12.3062 27.1759 12.1346C27.0664 12.0251 26.8551 11.7607 26.5465 11.15C26.5362 11.1195 26.5263 11.0893 26.5156 11.0584C26.5892 10.9932 26.6586 10.9238 26.7231 10.8501C26.7536 10.8608 26.783 10.8707 26.8131 10.8807C27.4208 11.1881 27.6867 11.4017 27.7981 11.5124C27.9694 11.684 27.9694 11.9633 27.7981 12.1346ZM28.5175 9.77516C28.3638 9.77516 28.0293 9.73778 27.383 9.52606C27.3529 9.51118 27.3216 9.49593 27.2907 9.48105C27.2938 9.4326 27.2957 9.38416 27.2957 9.33533C27.2957 9.28078 27.293 9.22699 27.2892 9.17358C27.9922 8.93631 28.3543 8.89549 28.5175 8.89549C28.7601 8.89549 28.9574 9.09271 28.9574 9.33533C28.9574 9.57794 28.7601 9.77516 28.5175 9.77516Z" fill="#E65402"/>
</svg>
