<svg width="176" height="176" viewBox="0 0 176 176" fill="none" xmlns="http://www.w3.org/2000/svg">
<g clip-path="url(#clip0_12_262)">
<path d="M38.5 126.5H16.5V88C16.5 84.9667 14.0333 82.5 11 82.5H5.5C2.46675 82.5 0 84.9667 0 88V140.25V173.25C0 174.771 1.22925 176 2.75 176H13.75C15.2707 176 16.5 174.771 16.5 173.25V143H27.5V173.25C27.5 174.771 28.7293 176 30.25 176H41.25C42.7707 176 44 174.771 44 173.25V140.25V132C44 128.967 41.5333 126.5 38.5 126.5ZM5.5 88H11V126.5C11 129.533 13.4667 132 16.5 132H38.5V137.5H5.5V88ZM11 170.5H5.5V143H11V170.5ZM33 170.5V143H38.5V170.5H33Z" fill="black"/>
<path d="M170.5 82.5H165C161.967 82.5 159.5 84.9667 159.5 88V126.5H137.5C134.467 126.5 132 128.967 132 132V140.25V173.25C132 174.771 133.229 176 134.75 176H145.75C147.271 176 148.5 174.771 148.5 173.25V143H159.5V173.25C159.5 174.771 160.729 176 162.25 176H173.25C174.771 176 176 174.771 176 173.25V140.25V88C176 84.9667 173.533 82.5 170.5 82.5ZM137.5 132H159.5C162.533 132 165 129.533 165 126.5V88H170.5V137.5H137.5V132ZM143 170.5H137.5V143H143V170.5ZM165 170.5V143H170.5V170.5H165Z" fill="black"/>
<path d="M126.5 99H122.906L115.324 78.782C114.923 77.7123 113.897 77 112.75 77C111.603 77 110.577 77.7123 110.173 78.782L102.594 99H97.02L98.9148 91.4155C99.121 90.5933 98.9367 89.7242 98.4142 89.0587C97.8972 88.3905 97.097 88 96.25 88H79.75C78.903 88 78.1027 88.3905 77.583 89.0587C77.0632 89.7242 76.8763 90.596 77.0825 91.4155L78.98 99H73.4085L65.8268 78.782C65.4225 77.7123 64.3967 77 63.25 77C62.1033 77 61.0775 77.7123 60.6732 78.782L53.0942 99H49.5C47.9793 99 46.75 100.229 46.75 101.75V112.75V173.25C46.75 174.771 47.9793 176 49.5 176H57.75C59.2707 176 60.5 174.771 60.5 173.25V115.5H115.5V173.25C115.5 174.771 116.729 176 118.25 176H126.5C128.021 176 129.25 174.771 129.25 173.25V112.75V101.75C129.25 100.229 128.021 99 126.5 99ZM112.75 87.582L117.032 99H108.468L112.75 87.582ZM83.2728 93.5H92.7273L91.355 99H84.6478L83.2728 93.5ZM63.25 87.582L67.5317 99H58.9683L63.25 87.582ZM52.25 104.5H123.75V110H118.25H57.75H52.25V104.5ZM55 170.5H52.25V115.5H55V170.5ZM123.75 170.5H121V115.5H123.75V170.5Z" fill="black"/>
<path d="M173.181 32.9994C68.013 35.7741 4.73 0.708885 4.10025 0.354135C3.25325 -0.124365 2.20825 -0.118865 1.364 0.376135C0.517 0.865635 0 1.77314 0 2.74939V24.7494C0 25.6321 0.4235 26.4626 1.14125 26.9824C1.86175 27.4994 2.78025 27.6396 3.619 27.3591L10.593 25.0354L17.7238 29.7901C18.568 30.3511 19.6543 30.4061 20.5453 29.9276C21.4418 29.4464 22 28.5141 22 27.4994V14.3571C24.5135 15.3306 27.302 16.3564 30.25 17.3986V35.7494C30.25 36.6321 30.6735 37.4626 31.3912 37.9824C32.1117 38.4994 33.0275 38.6396 33.869 38.3591L40.843 36.0354L47.9737 40.7901C48.433 41.0926 48.9665 41.2494 49.5 41.2494C49.9455 41.2494 50.391 41.1421 50.798 40.9249C51.6918 40.4464 52.25 39.5141 52.25 38.4994V24.3066C54.8982 25.0409 57.6593 25.7669 60.5 26.4819V43.9994C60.5 44.8821 60.9235 45.7126 61.6413 46.2324C62.359 46.7494 63.2802 46.8896 64.119 46.6091L71.093 44.2854L78.2237 49.0401C78.683 49.3426 79.2165 49.4994 79.75 49.4994C80.1955 49.4994 80.641 49.3921 81.048 49.1749C81.9418 48.6964 82.5 47.7641 82.5 46.7494V31.3521C85.184 31.8636 87.945 32.3504 90.75 32.8234V49.4994C90.75 50.3821 91.1735 51.2126 91.8913 51.7324C92.609 52.2466 93.5303 52.3896 94.369 52.1091L101.343 49.7854L108.474 54.5401C108.933 54.8426 109.466 54.9994 110 54.9994C110.446 54.9994 110.891 54.8921 111.298 54.6749C112.192 54.1964 112.75 53.2641 112.75 52.2494V35.9006C115.467 36.2086 118.195 36.5111 121 36.7724V52.2494C121 53.1321 121.424 53.9626 122.141 54.4824C122.862 54.9994 123.783 55.1396 124.619 54.8591L131.593 52.5354L138.724 57.2901C139.183 57.5926 139.716 57.7494 140.25 57.7494C140.696 57.7494 141.141 57.6421 141.548 57.4249C142.442 56.9464 143 56.0141 143 54.9994V38.2519C146.608 38.4031 150.271 38.5186 154 38.5819V54.9994C154 55.8821 154.424 56.7126 155.141 57.2324C155.862 57.7494 156.783 57.8924 157.619 57.6091L164.593 55.2854L171.724 60.0401C172.183 60.3426 172.716 60.4994 173.25 60.4994C173.696 60.4994 174.141 60.3921 174.548 60.1749C175.442 59.6964 176 58.7641 176 57.7494V35.7494C176 35.0069 175.7 34.2974 175.17 33.7804C174.639 33.2634 173.929 32.9801 173.181 32.9994ZM16.5 22.3624L12.5262 19.7114C12.0697 19.4061 11.5362 19.2494 11 19.2494C10.7085 19.2494 10.4143 19.2961 10.131 19.3924L5.5 20.9324V7.24014C8.0355 8.47214 11.7178 10.1716 16.5 12.1544V22.3624ZM46.75 33.3624L42.7763 30.7114C42.0695 30.2384 41.1868 30.1146 40.381 30.3924L35.75 31.9324V19.2824C39.1765 20.4236 42.845 21.5759 46.75 22.7281V33.3624ZM77 41.6124L73.0263 38.9614C72.3195 38.4856 71.4368 38.3646 70.631 38.6424L66 40.1824V27.8404C69.52 28.6709 73.2188 29.4656 77 30.2411V41.6124ZM107.25 47.1124L103.276 44.4614C102.57 43.9884 101.684 43.8646 100.881 44.1424L96.25 45.6824V33.6896C99.8277 34.2424 103.491 34.7566 107.25 35.2351V47.1124ZM137.5 49.8624L133.526 47.2114C132.82 46.7384 131.937 46.6174 131.131 46.8924L126.5 48.4324V37.2151C130.1 37.5039 133.765 37.7514 137.5 37.9549V49.8624ZM170.5 52.6124L166.526 49.9614C166.07 49.6561 165.536 49.4994 165 49.4994C164.709 49.4994 164.414 49.5461 164.131 49.6424L159.5 51.1824V38.6396C163.108 38.6726 166.785 38.6341 170.5 38.5599V52.6124Z" fill="black"/>
<path d="M137.5 74.25H134.75C133.229 74.25 132 75.4793 132 77C132 78.5207 133.229 79.75 134.75 79.75H137.5C139.021 79.75 140.25 78.5207 140.25 77C140.25 75.4793 139.021 74.25 137.5 74.25Z" fill="black"/>
<path d="M143 66C141.479 66 140.25 67.2293 140.25 68.75V71.5C140.25 73.0207 141.479 74.25 143 74.25C144.521 74.25 145.75 73.0207 145.75 71.5V68.75C145.75 67.2293 144.521 66 143 66Z" fill="black"/>
<path d="M140.25 85.25C140.25 86.7707 141.479 88 143 88C144.521 88 145.75 86.7707 145.75 85.25V82.5C145.75 80.9793 144.521 79.75 143 79.75C141.479 79.75 140.25 80.9793 140.25 82.5V85.25Z" fill="black"/>
<path d="M148.5 79.75H151.25C152.771 79.75 154 78.5207 154 77C154 75.4793 152.771 74.25 151.25 74.25H148.5C146.979 74.25 145.75 75.4793 145.75 77C145.75 78.5207 146.979 79.75 148.5 79.75Z" fill="black"/>
<path d="M112.75 11H110C108.479 11 107.25 12.2293 107.25 13.75C107.25 15.2707 108.479 16.5 110 16.5H112.75C114.271 16.5 115.5 15.2707 115.5 13.75C115.5 12.2293 114.271 11 112.75 11Z" fill="#E65402"/>
<path d="M118.25 2.75C116.729 2.75 115.5 3.97925 115.5 5.5V8.25C115.5 9.77075 116.729 11 118.25 11C119.771 11 121 9.77075 121 8.25V5.5C121 3.97925 119.771 2.75 118.25 2.75Z" fill="#E65402"/>
<path d="M115.5 22C115.5 23.5207 116.729 24.75 118.25 24.75C119.771 24.75 121 23.5207 121 22V19.25C121 17.7293 119.771 16.5 118.25 16.5C116.729 16.5 115.5 17.7293 115.5 19.25V22Z" fill="#E65402"/>
<path d="M123.75 16.5H126.5C128.021 16.5 129.25 15.2707 129.25 13.75C129.25 12.2293 128.021 11 126.5 11H123.75C122.229 11 121 12.2293 121 13.75C121 15.2707 122.229 16.5 123.75 16.5Z" fill="#E65402"/>
<path d="M167.75 9.625C167.75 5.83275 164.667 2.75 160.875 2.75C157.083 2.75 154 5.83275 154 9.625C154 13.4172 157.083 16.5 160.875 16.5C164.667 16.5 167.75 13.4172 167.75 9.625ZM159.5 9.625C159.5 8.86875 160.119 8.25 160.875 8.25C161.631 8.25 162.25 8.86875 162.25 9.625C162.25 10.3813 161.631 11 160.875 11C160.119 11 159.5 10.3813 159.5 9.625Z" fill="black"/>
<path d="M77 12.375C77 8.58275 73.9172 5.5 70.125 5.5C66.3328 5.5 63.25 8.58275 63.25 12.375C63.25 16.1672 66.3328 19.25 70.125 19.25C73.9172 19.25 77 16.1672 77 12.375ZM68.75 12.375C68.75 11.6187 69.3687 11 70.125 11C70.8813 11 71.5 11.6187 71.5 12.375C71.5 13.1313 70.8813 13.75 70.125 13.75C69.3687 13.75 68.75 13.1313 68.75 12.375Z" fill="black"/>
<path d="M82.5 57.75C80.9793 57.75 79.75 58.9793 79.75 60.5V63.25H77C75.4793 63.25 74.25 64.4793 74.25 66C74.25 67.5207 75.4793 68.75 77 68.75H79.75V71.5C79.75 73.0207 80.9793 74.25 82.5 74.25C84.0207 74.25 85.25 73.0207 85.25 71.5V68.75H88C89.5207 68.75 90.75 67.5207 90.75 66C90.75 64.4793 89.5207 63.25 88 63.25H85.25V60.5C85.25 58.9793 84.0207 57.75 82.5 57.75Z" fill="#E65402"/>
<path d="M41.3847 62.5488L42.7707 57.167C43.01 56.2403 42.746 55.253 42.0777 54.5655C41.4122 53.8808 40.4332 53.592 39.4982 53.801L34.0752 55.0303L29.3837 52.0493C28.5725 51.5323 27.555 51.48 26.6942 51.9008C25.8335 52.3215 25.2587 53.163 25.168 54.12L24.6675 59.653L20.383 63.195C19.6432 63.8055 19.2775 64.7543 19.4095 65.7058C19.547 66.6545 20.1657 67.463 21.0485 67.8398L26.1552 70.0315L28.1985 75.1988C28.5505 76.0898 29.3397 76.736 30.2857 76.8983C30.4425 76.9258 30.5992 76.9395 30.756 76.9395C31.5397 76.9395 32.2987 76.604 32.824 76.0018L36.487 71.8218L42.0365 71.4753C42.9935 71.4175 43.8487 70.862 44.297 70.015C44.7425 69.168 44.715 68.1478 44.2282 67.3228L41.3847 62.5488ZM35.0047 66.4043C34.2732 66.451 33.5912 66.7865 33.11 67.3365L31.6635 68.9893L30.855 66.9488C30.5855 66.2668 30.0575 65.7223 29.3837 65.4308L27.3652 64.5645L29.0565 63.1648C29.623 62.7 29.9777 62.0263 30.0437 61.2948L30.2417 59.1058L32.098 60.2855C32.7167 60.6788 33.473 60.8025 34.1797 60.6485L36.322 60.1618L35.7747 62.2875C35.5932 62.997 35.7032 63.7478 36.0745 64.3803L37.1992 66.2695L35.0047 66.4043Z" fill="#E65402"/>
</g>
<defs>
<clipPath id="clip0_12_262">
<rect width="176" height="176" fill="white"/>
</clipPath>
</defs>
</svg>
