<svg width="782" height="722" viewBox="0 0 782 722" fill="none" xmlns="http://www.w3.org/2000/svg">
<rect width="782" height="722" fill="#F5F5F5"/>
<rect width="782" height="722" fill="white"/>
<path d="M103.447 544.027C103.447 548.297 107.201 551.763 111.826 551.763H670.174C672.396 551.763 674.527 550.948 676.099 549.497C677.67 548.046 678.553 546.079 678.553 544.027C678.553 541.975 677.67 540.008 676.099 538.557C674.527 537.106 672.396 536.291 670.174 536.291H639.844C639.877 535.848 639.989 535.415 639.989 534.95V463.472C639.989 454.2 631.822 446.66 621.779 446.66H513.696C503.653 446.66 495.486 454.2 495.486 463.472V534.95C495.486 535.415 495.598 535.848 495.643 536.291H463.1C463.134 535.848 463.246 535.415 463.246 534.95V463.472C463.246 454.2 455.079 446.66 445.036 446.66H336.953C326.921 446.66 318.743 454.2 318.743 463.472V534.95C318.743 535.415 318.855 535.848 318.9 536.291H286.357C286.391 535.848 286.502 535.415 286.502 534.95V463.472C286.502 454.2 278.347 446.66 268.293 446.66H160.209C150.178 446.66 142 454.2 142 463.472V534.95C142 535.415 142.112 535.848 142.156 536.291H111.826C109.604 536.291 107.473 537.106 105.901 538.557C104.33 540.008 103.447 541.975 103.447 544.027ZM512.255 534.95V463.472C512.255 462.75 512.925 462.132 513.696 462.132H621.779C622.561 462.132 623.232 462.75 623.232 463.472V534.95C623.232 535.683 622.561 536.291 621.779 536.291H513.696C513.311 536.291 512.941 536.15 512.669 535.899C512.397 535.647 512.255 535.306 512.255 534.95ZM335.512 534.95V463.472C335.512 462.75 336.182 462.132 336.964 462.132H445.036C445.818 462.132 446.488 462.75 446.488 463.472V534.95C446.488 535.683 445.818 536.291 445.036 536.291H336.953C336.567 536.291 336.198 536.15 335.926 535.899C335.653 535.647 335.5 535.306 335.5 534.95H335.512ZM158.768 534.95V463.472C158.768 462.75 159.439 462.132 160.221 462.132H268.304C269.064 462.132 269.745 462.75 269.745 463.472V534.95C269.745 535.672 269.075 536.291 268.293 536.291H160.209C160.019 536.291 159.83 536.257 159.654 536.189C159.477 536.122 159.317 536.023 159.183 535.899C159.048 535.774 158.941 535.626 158.868 535.464C158.795 535.301 158.768 535.127 158.768 534.95ZM740.107 669.449H715.307C715.329 669.16 715.407 668.892 715.407 668.613V601.117C715.378 596.774 713.484 592.62 710.142 589.565C706.799 586.51 702.281 584.804 697.578 584.82H593.761C589.06 584.806 584.545 586.514 581.205 589.569C577.865 592.623 575.973 596.776 575.943 601.117V668.613C575.943 668.892 576.021 669.16 576.032 669.438H545.534C545.546 669.16 545.624 668.892 545.624 668.613V601.117C545.594 596.776 543.702 592.623 540.362 589.569C537.022 586.514 532.507 584.806 527.805 584.82H423.978C419.277 584.806 414.761 586.514 411.421 589.569C408.081 592.623 406.189 596.776 406.16 601.117V668.613C406.16 668.892 406.238 669.16 406.249 669.438H375.751C375.751 669.16 375.84 668.892 375.84 668.613V601.117C375.811 596.776 373.919 592.623 370.579 589.569C367.239 586.514 362.723 584.806 358.022 584.82H254.184C249.482 584.806 244.967 586.514 241.627 589.569C238.287 592.623 236.395 596.776 236.365 601.117V668.613C236.365 668.892 236.443 669.16 236.454 669.438H205.956C205.968 669.16 206.046 668.892 206.046 668.613V601.117C206.016 596.778 204.126 592.627 200.788 589.572C197.451 586.518 192.938 584.809 188.239 584.82H84.4001C79.6988 584.806 75.1834 586.514 71.8434 589.569C68.5034 592.623 66.6113 596.776 66.5817 601.117V668.613C66.5817 668.892 66.6599 669.16 66.6711 669.438H41.8929C39.6707 669.438 37.5396 670.253 35.9683 671.704C34.397 673.155 33.5143 675.122 33.5143 677.174C33.5143 679.226 34.397 681.193 35.9683 682.644C37.5396 684.095 39.6707 684.91 41.8929 684.91H740.107C742.329 684.91 744.46 684.095 746.032 682.644C747.603 681.193 748.486 679.226 748.486 677.174C748.486 675.122 747.603 673.155 746.032 671.704C744.46 670.253 742.329 669.449 740.107 669.449ZM84.4001 669.449C83.7857 669.449 83.3389 669.005 83.3389 668.613V601.117C83.3389 600.725 83.7857 600.291 84.4001 600.291H188.239C188.842 600.291 189.289 600.725 189.289 601.117V668.613C189.289 669.005 188.842 669.438 188.239 669.438L84.4001 669.449ZM254.184 669.449C253.58 669.449 253.122 669.005 253.122 668.613V601.117C253.122 600.725 253.569 600.291 254.184 600.291H358.022C358.625 600.291 359.083 600.725 359.083 601.117V668.613C359.083 669.005 358.636 669.438 358.022 669.438L254.184 669.449ZM423.978 669.449C423.352 669.449 422.917 669.005 422.917 668.613V601.117C422.917 600.725 423.364 600.291 423.978 600.291H527.805C528.409 600.291 528.867 600.725 528.867 601.117V668.613C528.867 669.005 528.42 669.438 527.805 669.438L423.978 669.449ZM593.761 669.449C593.136 669.449 592.7 669.005 592.7 668.613V601.117C592.7 600.725 593.147 600.291 593.761 600.291H697.589C698.203 600.291 698.661 600.725 698.661 601.117V668.613C698.661 669.005 698.203 669.438 697.589 669.438L593.761 669.449ZM717.764 37.0798H64.2357C56.0887 37.088 48.278 40.0804 42.5182 45.4002C36.7585 50.72 33.5202 57.9325 33.5143 65.4544V386.332C33.5232 393.852 36.7627 401.062 42.5222 406.379C48.2816 411.697 56.0906 414.688 64.2357 414.696H717.764C725.909 414.688 733.718 411.697 739.478 406.379C745.237 401.062 748.477 393.852 748.486 386.332V65.4544C748.477 57.9343 745.237 50.7245 739.478 45.4069C733.718 40.0893 725.909 37.088 717.764 37.0798ZM731.729 386.322C731.729 393.438 725.473 399.214 717.764 399.214H64.2357C56.4157 399.214 50.2714 393.562 50.2714 386.322V65.4544C50.2714 58.3479 56.5386 52.5616 64.2357 52.5616H717.764C725.473 52.5616 731.729 58.3479 731.729 65.4544V386.322Z" fill="black"/>
<path d="M695.421 78.337H86.5786C84.3564 78.337 82.2253 79.1521 80.654 80.6028C79.0827 82.0535 78.2 84.0211 78.2 86.0728V365.724C78.2 369.994 81.9424 373.46 86.5786 373.46H695.421C697.644 373.46 699.775 372.645 701.346 371.194C702.917 369.743 703.8 367.776 703.8 365.724V86.0728C703.8 84.0211 702.917 82.0535 701.346 80.6028C699.775 79.1521 697.644 78.337 695.421 78.337ZM687.043 357.988H94.9571V93.8085H687.043V357.988Z" fill="black"/>
<path d="M391 317.556C445.74 317.556 490.269 276.443 490.269 225.903C490.269 175.363 445.729 134.251 391 134.251C336.271 134.251 291.72 175.363 291.72 225.903C291.72 276.443 336.26 317.556 391 317.556ZM391 149.722C436.49 149.722 473.512 183.893 473.512 225.903C473.512 267.914 436.49 302.085 391 302.085C345.51 302.085 308.477 267.914 308.477 225.903C308.477 183.893 345.499 149.722 391 149.722Z" fill="#E65402"/>
<path d="M365.205 277.021C366.6 277.667 368.164 277.939 369.718 277.806C371.272 277.673 372.755 277.14 373.997 276.268L437.317 232.071C438.349 231.35 439.186 230.418 439.762 229.348C440.339 228.278 440.638 227.099 440.638 225.904C440.638 224.708 440.339 223.529 439.762 222.459C439.186 221.389 438.349 220.457 437.317 219.736L373.997 175.539C372.754 174.672 371.274 174.142 369.722 174.009C368.171 173.876 366.61 174.145 365.216 174.786C363.821 175.427 362.647 176.414 361.826 177.636C361.005 178.859 360.57 180.268 360.569 181.707V270.1C360.571 271.536 361.006 272.943 361.825 274.163C362.643 275.384 363.814 276.38 365.205 277.021ZM377.315 197.25L418.381 225.904L377.315 254.557V197.25Z" fill="#E65402"/>
</svg>
