<svg id="Layer_1" viewBox="0 0 512 512" xmlns="http://www.w3.org/2000/svg" data-name="Layer 1"><path d="m313.361 66.4h-54.91v23.054h39.882a7 7 0 0 1 7 7v118.776a23.884 23.884 0 0 1 5.3 15.024v7.6h17.757v-156.429a15.057 15.057 0 0 0 -15.029-15.025zm158.459 185.456a23.058 23.058 0 0 1 22.99 22.991v20.953h-274.272v-20.953a23.058 23.058 0 0 1 22.991-22.991h9.557v10.8a24.026 24.026 0 0 0 24 24h9.546a24.025 24.025 0 0 0 24-24v-10.8h18.268v10.8a24.025 24.025 0 0 0 24 24h9.546a24.026 24.026 0 0 0 24-24v-10.8h18.27v10.8a24.025 24.025 0 0 0 24 24h9.546a24.025 24.025 0 0 0 24-24v-10.8zm-251.282 57.944v163.209a23.058 23.058 0 0 0 22.99 22.991h228.292a23.059 23.059 0 0 0 22.991-22.991v-163.209zm178.549 153.33-41.413-26.389-41.414 26.386 12.3-47.54-37.894-31.233 49.015-2.992 17.993-45.692 17.993 45.692 49.015 2.992-37.894 31.233zm-122-242.873h9.546a10.02 10.02 0 0 1 10 10v32.4a10.019 10.019 0 0 1 -10 10h-9.546a10.019 10.019 0 0 1 -10-10v-32.4a10.02 10.02 0 0 1 10-10zm151.63 0a10.02 10.02 0 0 0 -10 10v32.4a10.02 10.02 0 0 0 10 10h9.546a10.019 10.019 0 0 0 10-10v-32.4a10.02 10.02 0 0 0 -10-10zm-75.815 0a10.02 10.02 0 0 0 -10 10v32.4a10.019 10.019 0 0 0 10 10h9.546a10.019 10.019 0 0 0 10-10v-32.4a10.02 10.02 0 0 0 -10-10zm-118.451-172.163h-29.568a32.094 32.094 0 1 0 -64.187 0h-29.568a10.02 10.02 0 0 0 -10 10v31.36h143.323v-31.361a10.019 10.019 0 0 0 -10-9.999zm-61.661 8.459a8.46 8.46 0 1 1 8.459-8.459 8.46 8.46 0 0 1 -8.459 8.459zm33.748 387.547v23.057h-174.32a15.057 15.057 0 0 1 -15.028-15.025v-370.707a15.057 15.057 0 0 1 15.028-15.025h54.91v23.054h-39.881a7 7 0 0 0 -7 7v340.646a7 7 0 0 0 7 7zm-111.138-103.392a13.325 13.325 0 1 0 13.325 13.325 13.322 13.322 0 0 0 -13.325-13.325zm0-87.253a13.324 13.324 0 1 0 13.325 13.324 13.322 13.322 0 0 0 -13.325-13.324zm-41.155-150v326.645h152.293v-80h-66.222a7 7 0 0 1 0-14h66.222v-61.253a36.77 36.77 0 0 1 2-11.993h-68.222a7 7 0 0 1 0-14h76.938a36.879 36.879 0 0 1 26.274-11h9.558v-7.6a24.026 24.026 0 0 1 24-24h9.546a24.044 24.044 0 0 1 4.7.463v-103.263zm41.155 277.902a27.324 27.324 0 1 1 27.325-27.324 27.239 27.239 0 0 1 -27.325 27.324zm0-87.254a27.324 27.324 0 1 1 27.325-27.324 27.325 27.325 0 0 1 -27.325 27.321zm0-87.254a27.324 27.324 0 1 1 27.325-27.324 27.325 27.325 0 0 1 -27.325 27.324zm44.914 151.108h55.092a7 7 0 1 1 0 14h-55.09a7 7 0 0 1 0-14zm0-87.254h55.092a7 7 0 1 1 0 14h-55.09a7 7 0 0 1 0-14zm55.092-73.254h-55.09a7 7 0 0 1 0-14h55.092a7 7 0 0 1 0 14zm75.094-21.849h-130.184a7 7 0 0 1 0-14h130.184a7 7 0 0 1 0 14zm-175.1-9.4a13.324 13.324 0 1 0 13.325 13.324 13.322 13.322 0 0 0 -13.325-13.324z" fill-rule="evenodd"/></svg>