<svg width="589" height="494" viewBox="0 0 589 494" fill="none" xmlns="http://www.w3.org/2000/svg">
<path fill-rule="evenodd" clip-rule="evenodd" d="M54.9715 493.311C51.2513 493.311 48.2345 490.294 48.2345 486.575L48.2364 457.261C48.2364 453.542 51.2513 450.527 54.9689 450.527C58.6913 450.526 61.7047 453.543 61.7047 457.262L61.7066 486.575C61.7066 490.293 58.6876 493.311 54.9715 493.311Z" fill="black"/>
<path fill-rule="evenodd" clip-rule="evenodd" d="M266.449 493.322H16.234C7.594 493.322 0.562195 486.296 0.562195 477.654L0.564462 443.09C0.564462 420.349 14.8862 399.756 36.1903 391.848C36.2765 391.817 36.3539 391.789 36.436 391.762L99.8863 370.957V349.12C99.8863 345.402 102.899 342.387 106.617 342.387C110.336 342.386 113.352 345.402 113.352 349.121L113.357 375.836C113.357 378.749 111.481 381.331 108.722 382.237L40.7646 404.518C24.7686 410.51 14.0324 425.995 14.0324 443.09L14.0347 477.653C14.0347 478.87 15.0147 479.852 16.2306 479.852L266.449 479.852C267.653 479.852 268.634 478.87 268.634 477.654L268.638 443.09C268.638 425.994 257.899 410.508 241.904 404.52L173.957 382.229C171.189 381.321 169.314 378.741 169.314 375.83L169.316 349.091C169.316 345.371 172.331 342.357 176.049 342.357C179.782 342.356 182.784 345.372 182.784 349.092L182.786 370.951L246.233 391.761C246.312 391.789 246.393 391.818 246.476 391.847C267.796 399.755 282.104 420.348 282.104 443.09L282.108 477.653C282.108 486.295 275.076 493.323 266.449 493.322Z" fill="black"/>
<path fill-rule="evenodd" clip-rule="evenodd" d="M227.711 493.311C223.991 493.311 220.974 490.294 220.974 486.575L220.976 457.261C220.976 453.542 223.991 450.527 227.709 450.527C231.432 450.526 234.444 453.543 234.444 457.262L234.447 486.575C234.447 490.293 231.427 493.311 227.711 493.311Z" fill="black"/>
<path fill-rule="evenodd" clip-rule="evenodd" d="M193.32 299.164C192.725 299.164 192.104 299.084 191.496 298.915C187.921 297.913 185.825 294.198 186.83 290.615C187.743 287.338 189.215 284.101 190.759 280.674C196.093 268.906 202.136 255.571 188.888 233.965C188.584 233.477 188.35 232.954 188.187 232.408C187.78 231.168 176.74 200.365 113.457 215.356C112.946 215.476 112.429 215.536 111.901 215.536L85.4213 215.535L94.7136 225.614C96.0138 227.025 96.654 228.923 96.4673 230.833C96.2818 232.741 95.2862 234.481 93.743 235.615C93.7351 235.627 87.8727 240.136 85.1019 248.538C81.3488 259.853 84.623 272.932 94.8183 287.412C96.9606 290.453 96.222 294.655 93.1822 296.796C90.1412 298.935 85.9436 298.206 83.8044 295.164C60.4647 262.008 72.4148 239.611 80.4603 230.023L65.095 213.366C63.285 211.401 62.8035 208.548 63.8791 206.099C64.9582 203.649 67.3755 202.067 70.053 202.067L111.12 202.067C181.407 185.702 198.266 221.027 200.745 227.534C217.235 254.899 208.696 273.737 203.036 286.232C201.65 289.303 200.441 291.957 199.798 294.241C198.972 297.215 196.267 299.165 193.32 299.164Z" fill="black"/>
<path fill-rule="evenodd" clip-rule="evenodd" d="M117.882 255.804C104.032 260.1 99.9052 267.353 97.8465 273.203C97.0762 275.407 96.5376 277.833 96.2568 280.411C96.1083 281.772 96.0346 283.161 96.0346 284.63V310.399C96.0346 322.535 100.782 333.936 109.388 342.495C118.008 351.054 129.465 355.721 141.567 355.661C166.392 355.516 186.585 335.209 186.585 310.392L186.585 283.848C186.585 280.18 186.094 276.741 185.123 273.624C183.244 267.559 180.329 263.815 176.237 262.181C169.047 259.307 158.919 263.418 155.937 265.083C153.062 266.692 149.448 265.986 147.39 263.412C138.118 251.818 119.748 255.403 117.877 255.805L117.882 255.804ZM141.302 369.131C125.68 369.131 110.99 363.073 99.8935 352.048C88.7314 340.941 82.5643 326.152 82.5643 310.401V284.629C82.5643 282.695 82.6698 280.781 82.869 278.936C83.2692 275.332 84.0384 271.911 85.1374 268.745C89.6415 255.914 99.133 247.445 114.17 242.851C114.288 242.815 114.416 242.781 114.533 242.752C115.598 242.491 138.772 237.018 154.242 251.083C160.36 248.667 171.255 245.686 181.229 249.669C189.232 252.86 194.863 259.578 197.997 269.634C199.356 274.049 200.055 278.83 200.055 283.849L200.055 310.391C200.055 342.593 173.851 368.945 141.648 369.131C141.533 369.131 141.415 369.132 141.302 369.131Z" fill="black"/>
<path fill-rule="evenodd" clip-rule="evenodd" d="M141.323 493.322C137.603 493.322 134.587 490.306 134.587 486.588L134.588 400.787C134.588 397.069 137.603 394.031 141.322 394.031C145.043 394.031 148.057 397.023 148.057 400.743L148.058 486.587C148.058 490.305 145.04 493.323 141.323 493.322Z" fill="black"/>
<path fill-rule="evenodd" clip-rule="evenodd" d="M175.504 430.952C173.199 430.952 170.881 430.263 168.905 428.848L137.419 406.245C137.335 406.186 137.264 406.127 137.182 406.063L102.691 381.317C99.6758 379.148 98.9811 374.941 101.144 371.919C103.322 368.896 107.517 368.203 110.546 370.373L145.253 395.272C145.332 395.331 145.402 395.391 145.484 395.454L175.278 416.832L207.995 383.192C210.595 380.525 214.858 380.467 217.524 383.061C220.192 385.654 220.249 389.919 217.653 392.585L183.654 427.538C181.466 429.794 178.493 430.953 175.504 430.952Z" fill="black"/>
<path fill-rule="evenodd" clip-rule="evenodd" d="M107.179 430.952C104.201 430.952 101.215 429.795 99.028 427.538L65.027 392.584C62.4327 389.918 62.4879 385.654 65.1539 383.061C67.8314 380.466 72.0875 380.526 74.6833 383.193L107.405 416.832L137.392 395.315C137.466 395.267 137.533 395.219 137.603 395.174L172.136 370.374C175.162 368.204 179.358 368.895 181.534 371.917C183.712 374.938 183.006 379.146 179.99 381.315L145.275 406.244C145.206 406.293 145.134 406.342 145.063 406.39L113.762 428.847C111.799 430.263 109.482 430.953 107.179 430.952Z" fill="black"/>
<path fill-rule="evenodd" clip-rule="evenodd" d="M17.0761 420.812C15.0287 420.812 13.0036 419.883 11.6819 418.119C7.80452 412.937 5.74203 406.787 5.74203 400.332V70.3002C5.74203 53.9057 19.0838 40.5677 35.4771 40.5677L58.9808 40.567C62.7116 40.567 65.7144 43.5823 65.7144 47.3021L65.716 63.819H89.9677V47.3006C89.9677 43.5823 92.9709 40.5677 96.7009 40.5677L136.929 40.567C140.644 40.567 143.66 43.5823 143.66 47.3021L143.665 63.819H167.9V47.3006C167.9 43.5823 170.916 40.5677 174.635 40.5677L214.862 40.567C218.577 40.567 221.593 43.5823 221.593 47.3021L221.597 63.819H245.833V47.3006C245.833 43.5823 248.85 40.5677 252.568 40.5677L292.794 40.567C296.515 40.567 299.527 43.5823 299.527 47.3021L299.53 63.819H323.766V47.3006C323.766 43.5823 326.783 40.5677 330.501 40.5677L370.727 40.567C374.458 40.567 377.46 43.5823 377.46 47.3021L377.462 63.819H401.714V47.3006C401.714 43.5823 404.716 40.5677 408.434 40.5677L431.948 40.567C448.344 40.567 461.684 53.9061 461.684 70.3009L461.688 137.441C461.688 141.16 458.667 144.177 454.949 144.177C451.233 144.176 448.214 141.161 448.214 137.442L448.218 70.3002C448.218 61.3329 440.917 54.0369 431.948 54.0369L415.174 54.0357V70.5553C415.174 74.2743 412.164 77.2896 408.434 77.2896L370.727 77.2893C367.007 77.2893 363.989 74.2755 363.989 70.5556L363.992 54.0357H337.236V70.5553C337.236 74.2743 334.22 77.2896 330.501 77.2896L292.794 77.2893C289.074 77.2893 286.056 74.2755 286.056 70.5556L286.059 54.0357H259.303V70.5553C259.303 74.2743 256.286 77.2896 252.568 77.2896L214.862 77.2893C211.142 77.2893 208.123 74.2755 208.123 70.5556L208.127 54.0357H181.371V70.5553C181.371 74.2743 178.353 77.2896 174.635 77.2896L136.929 77.2893C133.209 77.2893 130.19 74.2755 130.19 70.5556L130.194 54.0357H103.438V70.5553C103.438 74.2743 100.42 77.2896 96.7009 77.2896L58.9808 77.2893C55.2663 77.2893 52.2442 74.2755 52.2442 70.5556L52.2457 54.0357H35.4816C26.5105 54.0357 19.2123 61.3332 19.2123 70.3009V400.332C19.2123 403.85 20.3348 407.205 22.4634 410.036C24.7001 413.011 24.0886 417.233 21.1183 419.465C19.9069 420.373 18.4874 420.812 17.0761 420.812ZM431.947 430.064H271.115C267.395 430.064 264.376 427.048 264.376 423.329C264.38 419.611 267.392 416.596 271.111 416.596L431.947 416.594C440.918 416.594 448.212 409.299 448.212 400.332L448.217 365.167C448.217 361.447 451.229 358.432 454.948 358.432C458.667 358.432 461.683 361.447 461.683 365.168L461.687 400.332C461.687 416.726 448.34 430.064 431.947 430.064Z" fill="#E65402"/>
<path fill-rule="evenodd" clip-rule="evenodd" d="M454.952 108.512H12.4753C8.76037 108.512 5.74015 105.498 5.74015 101.779C5.74015 98.0589 8.75696 95.0436 12.4753 95.0436H454.952C458.667 95.0436 461.683 98.0597 461.683 101.779C461.687 105.498 458.666 108.513 454.952 108.512Z" fill="#E65402"/>
<path fill-rule="evenodd" clip-rule="evenodd" d="M65.7265 63.8187H89.9677V13.5094H65.7265V63.8187ZM96.7028 77.2878H58.9914C55.2663 77.2878 52.2563 74.274 52.2563 70.5542V6.77424C52.2563 3.05556 55.2614 0.0398733 58.9914 0.0398733L96.7028 0.0391235C100.423 0.0391235 103.436 3.05556 103.436 6.775L103.438 70.5538C103.438 74.2728 100.42 77.2881 96.7028 77.2878Z" fill="#E65402"/>
<path fill-rule="evenodd" clip-rule="evenodd" d="M143.665 63.8187H167.9V13.5094H143.665V63.8187ZM174.636 77.2878H136.929C133.209 77.2878 130.19 74.274 130.19 70.5542L130.194 6.77424C130.194 3.05556 133.207 0.0398733 136.926 0.0398733L174.636 0.0391235C178.355 0.0391235 181.369 3.05556 181.369 6.775L181.371 70.5538C181.371 74.2728 178.353 77.2881 174.636 77.2878Z" fill="#E65402"/>
<path fill-rule="evenodd" clip-rule="evenodd" d="M221.597 63.8187H245.833V13.5094H221.597V63.8187ZM252.568 77.2878H214.862C211.142 77.2878 208.123 74.274 208.123 70.5542L208.127 6.77424C208.127 3.05556 211.14 0.0398733 214.858 0.0398733L252.568 0.0391235C256.288 0.0391235 259.302 3.05556 259.302 6.775L259.303 70.5538C259.303 74.2728 256.286 77.2881 252.568 77.2878Z" fill="#E65402"/>
<path fill-rule="evenodd" clip-rule="evenodd" d="M299.53 63.8187H323.765V13.5094H299.53V63.8187ZM330.501 77.2878H292.795C289.074 77.2878 286.056 74.274 286.056 70.5542L286.059 6.77424C286.059 3.05556 289.072 0.0398733 292.791 0.0398733L330.501 0.0391235C334.221 0.0391235 337.236 3.05556 337.236 6.775V70.5538C337.236 74.2728 334.22 77.2881 330.501 77.2878Z" fill="#E65402"/>
<path fill-rule="evenodd" clip-rule="evenodd" d="M377.464 63.8187H401.716V13.5094H377.464V63.8187ZM408.44 77.2878H370.729C367.009 77.2878 363.991 74.274 363.991 70.5542L363.994 6.77424C363.994 3.05556 367.009 0.0398733 370.726 0.0398733L408.44 0.0391235C412.166 0.0391235 415.171 3.05556 415.171 6.775L415.176 70.5538C415.176 74.2728 412.166 77.2881 408.44 77.2878Z" fill="#E65402"/>
<path fill-rule="evenodd" clip-rule="evenodd" d="M459.631 327.605H475.39V312.399C475.39 309.282 477.528 306.571 480.568 305.848C486.314 304.477 491.782 302.208 496.833 299.101C499.49 297.466 502.925 297.869 505.136 300.075L515.885 310.831L527.041 299.682L516.28 288.927C514.081 286.723 513.671 283.293 515.308 280.637C518.421 275.589 520.686 270.113 522.054 264.36C522.783 261.327 525.492 259.187 528.602 259.187L543.804 259.187V243.42H528.603C525.493 243.42 522.779 241.28 522.054 238.247C520.689 232.501 518.418 227.026 515.308 221.971C513.675 219.315 514.067 215.885 516.278 213.68L527.041 202.925L515.885 191.776L505.136 202.533C502.925 204.735 499.487 205.139 496.833 203.507C491.786 200.398 486.309 198.129 480.568 196.759C477.532 196.036 475.388 193.326 475.388 190.207L475.39 175.002H459.631V190.207C459.631 193.324 457.486 196.036 454.446 196.759C448.708 198.127 443.233 200.399 438.169 203.507C435.516 205.14 432.089 204.737 429.878 202.531L419.136 191.775L407.981 202.923L418.736 213.677C420.936 215.883 421.344 219.314 419.707 221.97C416.601 227.017 414.328 232.493 412.96 238.246C412.238 241.279 409.522 243.42 406.412 243.42L391.212 243.418V259.187H406.413C409.534 259.187 412.235 261.327 412.96 264.36C414.332 270.106 416.608 275.583 419.707 280.634C421.346 283.291 420.947 286.72 418.736 288.926L407.981 299.682L419.136 310.83L429.881 300.076C432.091 297.872 435.516 297.469 438.169 299.104C443.225 302.21 448.693 304.48 454.446 305.851C457.49 306.574 459.626 309.285 459.626 312.403L459.631 327.605ZM482.125 341.075H452.891C449.176 341.075 446.156 338.059 446.156 334.34L446.161 317.506C442.593 316.358 439.129 314.925 435.796 313.213L423.892 325.119C421.262 327.748 416.994 327.748 414.363 325.118L393.691 304.443C392.427 303.181 391.726 301.469 391.726 299.682C391.728 297.895 392.427 296.182 393.689 294.919L405.608 283.009C403.887 279.677 402.459 276.218 401.301 272.656L384.477 272.656C380.746 272.656 377.741 269.642 377.741 265.922L377.742 236.683C377.742 232.964 380.746 229.949 384.476 229.949L401.304 229.948C402.451 226.386 403.886 222.925 405.594 219.593L393.691 207.686C391.059 205.057 391.059 200.793 393.689 198.162L414.364 177.486C415.627 176.224 417.344 175.515 419.134 175.515C420.915 175.515 422.629 176.225 423.892 177.488L435.801 189.396C439.131 187.684 442.589 186.25 446.156 185.103L446.161 168.268C446.161 164.546 449.173 161.533 452.891 161.533H482.125C485.846 161.533 488.859 164.547 488.859 168.268L488.861 185.103C492.428 186.25 495.885 187.685 499.218 189.397L511.123 177.486C513.754 174.855 518.021 174.858 520.651 177.489L541.326 198.163C542.589 199.426 543.288 201.139 543.288 202.926C543.288 204.711 542.587 206.424 541.324 207.688L529.414 219.594C531.128 222.929 532.567 226.39 533.712 229.95L550.539 229.949C554.27 229.949 557.273 232.966 557.273 236.685L557.274 265.922C557.274 269.642 554.269 272.658 550.539 272.658L533.712 272.657C532.57 276.22 531.129 279.681 529.421 283.015L541.326 294.919C542.589 296.182 543.288 297.895 543.288 299.682C543.288 301.468 542.587 303.182 541.324 304.445L520.653 325.119C518.021 327.749 513.753 327.748 511.122 325.119L499.221 313.209C495.89 314.921 492.425 316.356 488.859 317.503L488.861 334.34C488.861 338.059 485.841 341.075 482.125 341.075Z" fill="#E65402"/>
<path fill-rule="evenodd" clip-rule="evenodd" d="M467.508 143.487C408.06 143.487 359.688 191.852 359.688 251.303C359.689 310.751 408.06 359.12 467.506 359.12C526.956 359.12 575.327 310.752 575.327 251.303C575.328 191.852 526.953 143.487 467.508 143.487ZM467.508 372.588C400.636 372.588 346.217 318.181 346.217 251.303C346.219 184.425 400.635 130.017 467.506 130.017C534.38 130.016 588.797 184.425 588.797 251.303C588.798 318.18 534.379 372.589 467.508 372.588Z" fill="#E65402"/>
<path fill-rule="evenodd" clip-rule="evenodd" d="M454.113 276.343C452.324 276.343 450.613 275.635 449.35 274.371L439.527 264.554C436.896 261.924 436.896 257.66 439.527 255.03C442.158 252.398 446.426 252.4 449.057 255.031L454.113 260.083L485.963 228.235C488.594 225.604 492.859 225.604 495.491 228.235C498.112 230.864 498.109 235.131 495.491 237.76L458.87 274.37C457.607 275.634 455.898 276.343 454.113 276.343Z" fill="#E65402"/>
<path fill-rule="evenodd" clip-rule="evenodd" d="M255.725 173.617L268.669 188.814C269.826 190.169 270.4 191.929 270.259 193.704L268.717 213.612L287.18 205.99C288.817 205.31 290.664 205.31 292.312 205.991L310.779 213.611L309.222 193.703C309.096 191.928 309.664 190.17 310.81 188.815L323.765 173.617L304.36 168.934C302.629 168.517 301.128 167.431 300.193 165.912L289.743 148.9L279.298 165.912C278.367 167.431 276.865 168.517 275.135 168.935L255.725 173.617ZM261.15 230.756C259.761 230.756 258.368 230.319 257.198 229.47C255.304 228.094 254.263 225.834 254.439 223.501L256.615 195.435L238.361 174.009C236.841 172.226 236.361 169.785 237.074 167.56C237.804 165.332 239.635 163.643 241.904 163.093L269.27 156.491L284.012 132.506C285.228 130.511 287.401 129.297 289.74 129.297C292.086 129.297 294.253 130.512 295.481 132.508L310.217 156.491L337.588 163.092C339.856 163.642 341.679 165.333 342.404 167.56C343.129 169.784 342.651 172.227 341.13 174.01L322.866 195.435L325.054 223.5C325.228 225.832 324.187 228.095 322.293 229.47C320.398 230.846 317.931 231.143 315.768 230.246L289.743 219.503L263.723 230.246C262.897 230.588 262.028 230.756 261.15 230.756Z" fill="#E65402"/>
<path fill-rule="evenodd" clip-rule="evenodd" d="M361.828 383.307H259.723C256.008 383.307 252.987 380.293 252.987 376.573C252.987 372.854 256.004 369.839 259.723 369.839L361.828 369.837C365.549 369.837 368.56 372.854 368.56 376.573C368.563 380.292 365.543 383.309 361.828 383.307Z" fill="#E65402"/>
<path fill-rule="evenodd" clip-rule="evenodd" d="M361.828 354.303H259.723C256.008 354.303 252.987 351.289 252.987 347.569C252.987 343.85 256.004 340.834 259.723 340.834L361.828 340.833C365.549 340.833 368.56 343.85 368.56 347.569C368.563 351.288 365.543 354.304 361.828 354.303Z" fill="#E65402"/>
<path fill-rule="evenodd" clip-rule="evenodd" d="M322.098 325.299H259.724C256.009 325.299 252.989 322.286 252.989 318.566C252.989 314.845 256.005 311.831 259.724 311.831L322.098 311.83C325.813 311.83 328.829 314.846 328.829 318.566C328.833 322.286 325.811 325.3 322.098 325.299Z" fill="#E65402"/>
<path fill-rule="evenodd" clip-rule="evenodd" d="M322.098 296.298H259.724C256.009 296.298 252.989 293.284 252.989 289.565C252.989 285.845 256.005 282.829 259.724 282.829L322.098 282.828C325.813 282.828 328.829 285.845 328.829 289.565C328.833 293.284 325.811 296.3 322.098 296.298Z" fill="#E65402"/>
<path fill-rule="evenodd" clip-rule="evenodd" d="M322.098 267.294H259.724C256.009 267.294 252.989 264.28 252.989 260.56C252.989 256.841 256.005 253.825 259.724 253.825L322.098 253.824C325.813 253.824 328.829 256.841 328.829 260.56C328.833 264.279 325.811 267.296 322.098 267.294Z" fill="#E65402"/>
</svg>
