<svg id="Layer_1" viewBox="0 0 95 95" xmlns="http://www.w3.org/2000/svg" data-name="Layer 1"><path d="m64.35 17.79a3.472 3.472 0 0 1 3.45 3.453v6.737h-57.454v-6.737a3.461 3.461 0 0 1 3.454-3.453h1.45v8h11.612v-8h5.806v8h11.612v-8h5.806v8h11.628v-8zm-22.423 12.437h42.727v52.739h-42.727zm24.142 38.448h11.578a1.12 1.12 0 1 0 0-2.239h-11.578a1.12 1.12 0 0 0 0 2.239zm0-5.242h11.578a1.124 1.124 0 1 0 0-2.247h-11.578a1.124 1.124 0 0 0 0 2.247zm0-11.423h11.578a1.124 1.124 0 1 0 0-2.248h-11.578a1.124 1.124 0 0 0 0 2.248zm0-5.248h11.578a1.124 1.124 0 1 0 0-2.247h-11.578a1.124 1.124 0 0 0 0 2.247zm-14.632 18.943 1.8 1.642a1.132 1.132 0 0 0 1.552-.039l3.169-3.17a1.134 1.134 0 0 0 0-1.59 1.117 1.117 0 0 0 -1.584 0l-2.419 2.417-1.018-.924a1.124 1.124 0 0 0 -1.585.08 1.109 1.109 0 0 0 .083 1.58zm-2.519-7.653a1.122 1.122 0 0 0 -1.118 1.125v11.51a1.121 1.121 0 0 0 1.118 1.124h11.512a1.12 1.12 0 0 0 1.117-1.124v-11.51a1.121 1.121 0 0 0 -1.117-1.125zm10.394 2.248h-9.276v9.264h9.276zm-7.875-11.265 1.8 1.641a1.131 1.131 0 0 0 1.552-.038l3.169-3.17a1.132 1.132 0 0 0 0-1.589 1.115 1.115 0 0 0 -1.584 0l-2.417 2.421-1.018-.925a1.123 1.123 0 0 0 -1.585.079 1.109 1.109 0 0 0 .083 1.58zm-2.519-7.651a1.12 1.12 0 0 0 -1.118 1.122v11.512a1.122 1.122 0 0 0 1.118 1.123h11.512a1.121 1.121 0 0 0 1.117-1.123v-11.512a1.119 1.119 0 0 0 -1.117-1.122zm10.394 2.247h-9.276v9.263h9.276zm-6.974-31.6v11.51h7.124v-11.507zm-34.852 0v11.51h7.124v-11.507zm17.435 0v11.51h7.124v-11.507zm-6.107 35.3h7.742v7.745h-7.742zm-13.113 0h7.741v7.745h-7.742v-7.745zm13.113-12.214h7.742v7.747h-7.742zm-13.113 0h7.741v7.747h-7.742v-7.747zm23.974 27.3v-32.19h-29.329v28.736a3.462 3.462 0 0 0 3.454 3.454z" fill-rule="evenodd"/></svg>