<svg xmlns="http://www.w3.org/2000/svg" viewBox="0 0 64 64" id="event-concept">
  <path d="M31,35a1,1,0,0,0-1-1H26V32H22v2H10V32H6v2H2a1,1,0,0,0-1,1v5H31Z"></path>
  <rect width="9" height="2" x="43.5" y="30"></rect>
  <path d="M51,34H45a3,3,0,0,0,6,0Z"></path>
  <rect width="2" height="3" x="47" y="1"></rect>
  <rect width="3" height="2" x="60" y="14"></rect>
  <rect width="3" height="2" x="33" y="14"></rect>
  <rect width="2" height="3" x="36.747" y="5.247" transform="rotate(-45 37.747 6.747)"></rect>
  <rect width="3" height="2" x="56.753" y="5.747" transform="rotate(-45 58.253 6.747)"></rect>
  <path d="M38.54669 14.60468a9.56589 9.56589 0 0 0 3.34509 8.27587 3.8296 3.8296 0 0 1 1.35822 2.924V28H47V23.48047l-3.95947-3.168A2.75534 2.75534 0 0 1 42 18.14844v-.377A2.77446 2.77446 0 0 1 44.77148 15h.28028a2.76534 2.76534 0 0 1 2.30615 1.23438.77217.77217 0 0 0 1.28418 0A2.76534 2.76534 0 0 1 50.94824 15h.28028A2.77446 2.77446 0 0 1 54 17.77148v.49463a2.75424 2.75424 0 0 1-.812 1.96l-2.481 2.481L49.293 21.293l2.481-2.481A.76676.76676 0 0 0 52 18.26611v-.49463A.77249.77249 0 0 0 51.22852 17h-.28028a.76978.76978 0 0 0-.64209.34375 2.77205 2.77205 0 0 1-4.6123 0A.76978.76978 0 0 0 45.05176 17h-.28028A.77249.77249 0 0 0 44 17.77148v.377a.76715.76715 0 0 0 .28906.602l4.33545 3.46875A.9993.9993 0 0 1 49 23v5h3.75V25.8045a3.78443 3.78443 0 0 1 1.33264-2.9024 9.53483 9.53483 0 1 0-15.53595-8.29742zM47 44a7.00787 7.00787 0 0 1-7 7H35v2h5a9.01047 9.01047 0 0 0 9-9V40H47zM31 42H1V63H31zM19.70819 58L16 55.95013 12.29181 58 13 53.65833l-3-3.07477 4.14587-.63343L16 46l1.85413 3.95013L22 50.58356l-3 3.07477z"></path>
</svg>
