<?xml version="1.0"?>
<svg xmlns="http://www.w3.org/2000/svg" id="Layer_1" data-name="Layer 1" viewBox="0 0 512 512" width="512" height="512"><title>Exhibition</title><rect x="124" y="213" width="264" height="45"/><path d="M228.985,178.368a7,7,0,0,1,3.357,5.84L232.614,198H279V185a7,7,0,0,1,6.695-6.994c8.091-5.129,14.775-13.268,19.352-23.006H207.462A60.941,60.941,0,0,0,228.985,178.368Z"/><path d="M331,370.05V272H181v98.067c22.8,6.247,48.382,9.574,75,9.574S308.2,376.3,331,370.05Z"/><path d="M281.369,69.8A7,7,0,0,1,278,63.816V41a7,7,0,0,1,7-7h5V29H219v5h5a7,7,0,0,1,7,7V63.816a7,7,0,0,1-3.369,5.985A53.745,53.745,0,0,0,215.441,80h78.384A58.979,58.979,0,0,0,281.369,69.8Z"/><path d="M309.884,141a72.625,72.625,0,0,0,1.881-16.382A65.314,65.314,0,0,0,303.82,94H206.129a68.665,68.665,0,0,0-6.677,29.8,64.407,64.407,0,0,0,2.4,17.2Z"/><path d="M181,384.557V459H331V384.557a312.482,312.482,0,0,1-150,0Z"/><path d="M414,301c0,20-15.821,39.427-44.548,54.311A197.313,197.313,0,0,1,331,370.05v14.507A214.6,214.6,0,0,0,375.9,367.766C409.5,350.357,428,327,428,301Z"/><path d="M142.546,355.336C113.819,340.452,98,321,98,301H84a53.974,53.974,0,0,0,.763,9H85v1.312c4.246,21.846,22.011,41.38,51.1,56.454A214.6,214.6,0,0,0,181,384.557v-14.49A196.987,196.987,0,0,1,142.546,355.336Z"/><path d="M85,274.369a15,15,0,0,0-30,0V296H85Z"/><path d="M55,310V457H85V311.312q-.127-.656-.239-1.312Z"/><rect x="34" y="471" width="70" height="12"/><path d="M457,274.369a14.5,14.5,0,1,0-29,0V296h29Z"/><rect x="428" y="310" width="29" height="145"/><rect x="408" y="469" width="70" height="12"/></svg>
