<svg xmlns="http://www.w3.org/2000/svg" viewBox="0 0 512 512" id="expert">
  <path fill-rule="evenodd" d="M254.26 196.445c29.8 0 53.959 16.983 53.959 56.15 0 39.166-24.158 70.918-53.959 70.918-29.801 0-53.959-31.751-53.959-70.918.001-39.167 24.159-56.15 53.959-56.15zM95.831 77.478l13.897 43.052 45.239-.087a1.972 1.972 0 0 1 1.906 1.382 1.974 1.974 0 0 1-.73 2.238l-36.651 26.521 14.062 42.998a1.974 1.974 0 0 1-.725 2.24 1.974 1.974 0 0 1-2.354-.002l-36.548-26.661-36.547 26.66c-.713.52-1.64.521-2.354.002a1.972 1.972 0 0 1-.725-2.24l14.062-42.998-36.651-26.521a1.974 1.974 0 0 1-.73-2.238 1.972 1.972 0 0 1 1.906-1.382l45.239.087 13.897-43.052a1.973 1.973 0 0 1 1.903-1.386 1.976 1.976 0 0 1 1.904 1.387zm324.144 0 13.897 43.052 45.239-.087a1.972 1.972 0 0 1 1.906 1.382 1.972 1.972 0 0 1-.73 2.238l-36.651 26.521 14.062 42.998a1.974 1.974 0 0 1-.725 2.24 1.974 1.974 0 0 1-2.354-.002l-36.548-26.661-36.548 26.661c-.713.52-1.64.521-2.354.002a1.972 1.972 0 0 1-.725-2.24l14.062-42.998-36.651-26.521a1.974 1.974 0 0 1-.73-2.238 1.973 1.973 0 0 1 1.906-1.382l45.239.087 13.897-43.052a1.973 1.973 0 0 1 1.903-1.386 1.974 1.974 0 0 1 1.905 1.386zM257.903 11.641l17.429 53.996 56.739-.109a1.973 1.973 0 0 1 1.906 1.382 1.971 1.971 0 0 1-.73 2.238L287.28 102.41l17.637 53.929a1.972 1.972 0 0 1-.725 2.239 1.973 1.973 0 0 1-2.354-.002L256 125.137l-45.839 33.439c-.713.52-1.64.521-2.354.002a1.972 1.972 0 0 1-.725-2.24l17.637-53.929-45.967-33.262a1.974 1.974 0 0 1-.73-2.238 1.973 1.973 0 0 1 1.906-1.382l56.739.109 17.43-53.996A1.971 1.971 0 0 1 256 10.255c.883 0 1.632.546 1.903 1.386zM134.354 501.745h46.486V417.86a8 8 0 0 1 16 0v83.885h114.84V417.86a8 8 0 0 1 16 0v83.885h46.487V392.821c0-26.683-23.767-41.837-50.807-48.544-45.405-11.263-91.436-12.025-138.198 0-26.978 6.935-50.808 21.845-50.808 48.544v108.924z" clip-rule="evenodd"></path>
</svg>
