<svg width="128" height="128" viewBox="0 0 128 128" fill="none" xmlns="http://www.w3.org/2000/svg">
<path d="M33.686 73.947H94.314C94.7118 73.947 95.0934 73.789 95.3747 73.5077C95.656 73.2264 95.814 72.8448 95.814 72.447V65.419C95.8104 63.0669 95.1419 60.7637 93.8856 58.7751C92.6294 56.7865 90.8366 55.1936 88.714 54.18C90.2576 53.0468 91.4037 51.4548 91.9887 49.6314C92.5737 47.808 92.5676 45.8464 91.9713 44.0267C91.3751 42.207 90.2191 40.6221 88.6685 39.4985C87.1179 38.3749 85.2519 37.7698 83.337 37.7698C81.4221 37.7698 79.5561 38.3749 78.0055 39.4985C76.4549 40.6221 75.299 42.207 74.7027 44.0267C74.1064 45.8464 74.1004 47.808 74.6853 49.6314C75.2703 51.4548 76.4164 53.0468 77.96 54.18C75.1612 55.5227 72.9606 57.8569 71.785 60.73C70.991 59.744 70.0068 58.9279 68.891 58.33C69.9796 57.3418 70.7436 56.0473 71.0824 54.6166C71.4213 53.186 71.3192 51.6863 70.7895 50.3148C70.2599 48.9433 69.3275 47.7643 68.115 46.9327C66.9025 46.1012 65.4667 45.6562 63.9965 45.6562C62.5263 45.6562 61.0905 46.1012 59.878 46.9327C58.6655 47.7643 57.7331 48.9433 57.2035 50.3148C56.6738 51.6863 56.5717 53.186 56.9106 54.6166C57.2494 56.0473 58.0134 57.3418 59.102 58.33C57.9995 58.9204 57.0253 59.724 56.236 60.694C55.0693 57.7898 52.8574 55.4277 50.036 54.073C51.5796 52.9398 52.7257 51.3478 53.3107 49.5244C53.8957 47.701 53.8896 45.7394 53.2933 43.9197C52.6971 42.1 51.5411 40.5151 49.9905 39.3915C48.4399 38.2679 46.5739 37.6628 44.659 37.6628C42.7441 37.6628 40.8781 38.2679 39.3275 39.3915C37.7769 40.5151 36.621 42.1 36.0247 43.9197C35.4284 45.7394 35.4224 47.701 36.0073 49.5244C36.5923 51.3478 37.7384 52.9398 39.282 54.073C37.1594 55.0866 35.3666 56.6795 34.1104 58.6681C32.8541 60.6567 32.1856 62.9599 32.182 65.312V72.447C32.182 72.6443 32.2209 72.8397 32.2966 73.0219C32.3722 73.2042 32.483 73.3697 32.6228 73.5091C32.7625 73.6484 32.9283 73.7588 33.1108 73.834C33.2932 73.9091 33.4887 73.9475 33.686 73.947ZM77.254 46.873C77.253 45.6752 77.6054 44.5037 78.2671 43.5053C78.9289 42.507 79.8705 41.726 80.9741 41.2604C82.0777 40.7948 83.2941 40.6651 84.4711 40.8877C85.648 41.1103 86.7331 41.6753 87.5903 42.5118C88.4476 43.3483 89.039 44.4192 89.2904 45.5903C89.5418 46.7614 89.4421 47.9807 89.0037 49.0953C88.5652 50.21 87.8077 51.1705 86.8258 51.8566C85.8439 52.5426 84.6815 52.9237 83.484 52.952C83.436 52.952 83.389 52.944 83.34 52.944C83.291 52.944 83.24 52.951 83.195 52.952C81.6077 52.9132 80.0983 52.2559 78.9886 51.1204C77.8788 49.9848 77.2564 48.4608 77.254 46.873ZM73.865 65.419C73.8684 62.9329 74.8481 60.5475 76.5932 58.7768C78.3384 57.006 80.7092 55.9916 83.195 55.952C83.244 55.952 83.295 55.959 83.34 55.959C83.385 55.959 83.44 55.952 83.484 55.952C85.9699 55.9913 88.3409 57.0057 90.0861 58.7765C91.8312 60.5473 92.8109 62.9328 92.814 65.419V70.947H73.865V65.419ZM64 48.673C65.1277 48.6691 66.2113 49.1108 67.015 49.9018C67.8187 50.6929 68.2774 51.7694 68.2914 52.897C68.3053 54.0246 67.8734 55.1121 67.0896 55.9228C66.3058 56.7336 65.2334 57.2019 64.106 57.226H63.894C62.7666 57.2019 61.6943 56.7336 60.9104 55.9228C60.1266 55.1121 59.6947 54.0246 59.7086 52.897C59.7226 51.7694 60.1814 50.6929 60.9851 49.9018C61.7887 49.1108 62.8723 48.6691 64 48.673ZM63.512 60.226H63.788C63.859 60.226 63.928 60.236 64 60.236C64.072 60.236 64.141 60.228 64.212 60.226H64.487C66.1774 60.2276 67.7981 60.8995 68.9938 62.0944C70.1894 63.2893 70.8624 64.9096 70.865 66.6V70.944H57.135V66.6C57.1374 64.9097 57.8101 63.2894 59.0056 62.0945C60.2011 60.8995 61.8217 60.2276 63.512 60.226ZM38.574 46.766C38.5728 45.5682 38.925 44.3967 39.5866 43.3982C40.2482 42.3997 41.1897 41.6186 42.2932 41.1528C43.3967 40.687 44.6131 40.5572 45.7901 40.7796C46.967 41.002 48.0522 41.5667 48.9096 42.4031C49.7671 43.2395 50.3586 44.3103 50.6102 45.4813C50.8618 46.6524 50.7623 47.8717 50.324 48.9864C49.8858 50.1012 49.1284 51.0618 48.1466 51.748C47.1649 52.4342 46.0025 52.8155 44.805 52.844C44.756 52.844 44.705 52.837 44.66 52.837C44.615 52.837 44.56 52.844 44.516 52.844C42.9287 52.8054 41.4192 52.1484 40.3093 51.0131C39.1993 49.8777 38.5767 48.3538 38.574 46.766ZM35.186 65.312C35.1894 62.8258 36.1691 60.4403 37.9142 58.6694C39.6593 56.8985 42.0301 55.8839 44.516 55.844C44.564 55.844 44.611 55.852 44.66 55.852C44.709 55.852 44.76 55.845 44.805 55.844C47.2909 55.8839 49.6618 56.8985 51.4068 58.6694C53.1519 60.4403 54.1317 62.8258 54.135 65.312V70.947H35.186V65.312Z" fill="black"/>
<path d="M55.089 36.414L55.12 36.439C59.439 39.789 61.858 41.466 64.267 41.466C66.676 41.466 69.093 39.775 73.401 36.391L73.422 36.374C84.756 27.458 84.062 18.712 83.237 15.364C82.7485 13.0723 81.6126 10.9689 79.9641 9.30373C78.3155 7.63853 76.2237 6.48148 73.937 5.96999C70.282 5.29099 66.743 6.66999 63.993 9.76099C60.861 6.54599 57.025 5.20599 53.241 6.06799C51.0975 6.63669 49.1576 7.79794 47.6438 9.4186C46.1299 11.0393 45.1034 13.0537 44.682 15.231C43.935 18.593 43.461 27.38 55.089 36.414ZM47.607 15.88C47.9056 14.2568 48.6547 12.7502 49.7687 11.5324C50.8827 10.3146 52.3167 9.43464 53.907 8.99299C57.031 8.28199 60.298 9.75599 62.873 13.034C63.017 13.2196 63.2032 13.3682 63.416 13.4677C63.6288 13.5672 63.8622 13.6146 64.097 13.606C64.3313 13.5991 64.5607 13.5375 64.7668 13.426C64.9729 13.3145 65.1501 13.1563 65.284 12.964C67.484 9.79699 70.364 8.36399 73.39 8.91899C76.631 9.51899 79.419 12.397 80.327 16.082C81.777 21.966 78.58 28.506 71.557 34.026L71.537 34.042C67.72 37.042 65.815 38.483 64.272 38.486H64.267C62.731 38.486 60.816 37.058 56.989 34.086L56.958 34.061C46.653 26.075 46.986 18.686 47.607 15.88Z" fill="#E65402"/>
<path d="M61.036 28.217C61.3173 28.4982 61.6988 28.6562 62.0965 28.6562C62.4943 28.6562 62.8757 28.4982 63.157 28.217L70.88 20.494C71.0233 20.3556 71.1376 20.1901 71.2162 20.0071C71.2948 19.8241 71.3362 19.6273 71.3379 19.4281C71.3396 19.2289 71.3017 19.0314 71.2262 18.8471C71.1508 18.6627 71.0394 18.4952 70.8986 18.3544C70.7578 18.2136 70.5903 18.1022 70.4059 18.0268C70.2216 17.9513 70.0241 17.9134 69.8249 17.9151C69.6257 17.9169 69.4289 17.9582 69.2459 18.0368C69.0629 18.1155 68.8974 18.2297 68.759 18.373L62.1 25.035L59.244 22.179C59.1047 22.0395 58.9394 21.9289 58.7573 21.8533C58.5753 21.7778 58.3802 21.7388 58.1831 21.7387C57.986 21.7385 57.7908 21.7772 57.6087 21.8525C57.4265 21.9278 57.261 22.0382 57.1215 22.1775C56.982 22.3168 56.8714 22.4821 56.7958 22.6642C56.7203 22.8462 56.6813 23.0413 56.6812 23.2384C56.6809 23.6365 56.8388 24.0183 57.12 24.3L61.036 28.217Z" fill="#E65402"/>
<path d="M50.521 90.979L45.38 88.705L31.28 75.885C31.245 75.853 31.206 75.826 31.171 75.795C31.033 75.676 30.895 75.559 30.751 75.453L30.714 75.428C29.4395 74.4993 27.8704 74.0663 26.3 74.21L24.659 58.555C24.4878 56.8782 23.6784 55.3315 22.3984 54.2349C21.1184 53.1384 19.4657 52.5759 17.7826 52.6641C16.0994 52.7522 14.5145 53.4842 13.356 54.7084C12.1976 55.9327 11.5542 57.5555 11.559 59.241V85.072C11.5606 87.3252 12.0349 89.5529 12.9513 91.6113C13.8677 93.6698 15.2057 95.513 16.879 97.022L28.625 107.6C29.4267 108.322 30.0678 109.204 30.5067 110.189C30.9457 111.175 31.1727 112.241 31.173 113.32V120.7C31.173 121.098 31.331 121.479 31.6123 121.761C31.8936 122.042 32.2752 122.2 32.673 122.2H58.019C58.4168 122.2 58.7984 122.042 59.0797 121.761C59.361 121.479 59.519 121.098 59.519 120.7V104.776C59.5195 101.851 58.669 98.9895 57.0713 96.5397C55.4736 94.0899 53.1977 92.1578 50.521 90.979ZM56.521 119.197H34.173V113.32C34.1727 111.82 33.8572 110.338 33.247 108.968C32.6368 107.598 31.7456 106.372 30.631 105.369L18.888 94.794C17.5269 93.5662 16.4384 92.0666 15.6929 90.392C14.9474 88.7174 14.5615 86.905 14.56 85.072V59.241C14.5584 58.3263 14.9082 57.4459 15.5372 56.7818C16.1662 56.1176 17.0263 55.7205 17.9398 55.6725C18.8532 55.6245 19.7502 55.9292 20.4454 56.5238C21.1405 57.1183 21.5807 57.9571 21.675 58.867L23.385 75.208C22.9627 75.4759 22.5722 75.791 22.221 76.147C21.6203 76.7597 21.1463 77.4848 20.8259 78.2808C20.5056 79.0768 20.3453 79.9282 20.3541 80.7862C20.3629 81.6442 20.5407 82.492 20.8774 83.2813C21.214 84.0705 21.7029 84.7857 22.316 85.386L35.351 98.151C35.4909 98.2922 35.6576 98.4041 35.8412 98.4803C36.0247 98.5566 36.2217 98.5955 36.4204 98.595C36.6192 98.5944 36.8159 98.5544 36.9991 98.4771C37.1823 98.3999 37.3482 98.287 37.4874 98.1451C37.6266 98.0031 37.7361 97.8349 37.8097 97.6503C37.8833 97.4656 37.9195 97.2682 37.9161 97.0694C37.9127 96.8707 37.8698 96.6746 37.79 96.4925C37.7102 96.3105 37.5949 96.1461 37.451 96.009L24.415 83.242C23.9643 82.8011 23.6399 82.2476 23.4756 81.6389C23.3112 81.0302 23.3129 80.3886 23.4804 79.7808C23.6479 79.173 23.9751 78.6211 24.428 78.1826C24.881 77.744 25.4431 77.4348 26.056 77.287C26.149 77.264 26.243 77.252 26.337 77.237C26.431 77.222 26.529 77.209 26.625 77.202C26.721 77.195 26.825 77.19 26.933 77.192C27.041 77.194 27.114 77.201 27.204 77.209C27.3434 77.2213 27.482 77.2417 27.619 77.27C27.7501 77.296 27.8796 77.3294 28.007 77.37C28.089 77.397 28.169 77.434 28.249 77.47C28.3626 77.5176 28.4738 77.571 28.582 77.63C28.647 77.665 28.712 77.701 28.775 77.741C28.9487 77.8485 29.113 77.9706 29.266 78.106L43.546 91.094C43.554 91.101 43.564 91.102 43.571 91.109C43.6828 91.2081 43.8084 91.2903 43.944 91.353L49.312 93.726C51.4559 94.6705 53.2788 96.2182 54.5585 98.1806C55.8382 100.143 56.5193 102.435 56.519 104.778L56.521 119.197Z" fill="black"/>
<path d="M114.519 54.6C113.641 53.7235 112.534 53.1133 111.324 52.8399C110.114 52.5666 108.851 52.6413 107.682 53.0554C106.513 53.4695 105.484 54.2061 104.716 55.1801C103.948 56.154 103.471 57.3254 103.341 58.559L101.7 74.21C100.798 74.1265 99.8885 74.2325 99.0299 74.5211C98.1713 74.8097 97.3824 75.2746 96.714 75.886L82.62 88.705L77.481 90.978C74.8036 92.1569 72.5271 94.0894 70.929 96.5397C69.331 98.9901 68.4804 101.853 68.481 104.778V120.7C68.481 121.098 68.6391 121.479 68.9204 121.761C69.2017 122.042 69.5832 122.2 69.981 122.2H95.327C95.7248 122.2 96.1064 122.042 96.3877 121.761C96.669 121.479 96.827 121.098 96.827 120.7V113.32C96.8273 112.241 97.0545 111.174 97.4938 110.188C97.9331 109.202 98.5747 108.32 99.377 107.598L111.12 97.022C112.793 95.513 114.131 93.6698 115.048 91.6114C115.964 89.5529 116.438 87.3252 116.44 85.072V59.241C116.442 58.3788 116.274 57.5248 115.944 56.7282C115.614 55.9316 115.13 55.2082 114.519 54.6ZM113.44 85.072C113.439 86.905 113.053 88.7174 112.307 90.392C111.562 92.0666 110.473 93.5662 109.112 94.794L97.371 105.367C96.2561 106.37 95.3645 107.597 94.754 108.967C94.1435 110.337 93.8277 111.82 93.827 113.32V119.2H71.481V104.776C71.4807 102.433 72.1623 100.14 73.4425 98.1774C74.7227 96.2148 76.5464 94.6671 78.691 93.723L84.056 91.351C84.1913 91.2883 84.3166 91.2061 84.428 91.107C84.436 91.101 84.446 91.099 84.454 91.092L88.254 87.636L98.734 78.105L98.758 78.087C98.9036 77.9591 99.059 77.8431 99.223 77.74C99.287 77.7 99.353 77.663 99.423 77.627C99.5316 77.568 99.643 77.5146 99.757 77.467C99.836 77.434 99.913 77.399 99.994 77.372C100.142 77.3228 100.294 77.2834 100.447 77.254C100.557 77.233 100.669 77.221 100.781 77.21C100.893 77.199 100.981 77.192 101.081 77.191C101.181 77.19 101.274 77.191 101.371 77.201C101.468 77.211 101.579 77.222 101.682 77.239C101.77 77.253 101.859 77.264 101.946 77.285C102.56 77.4323 103.122 77.7414 103.576 78.1801C104.03 78.6187 104.357 79.1709 104.525 79.7791C104.693 80.3874 104.695 81.0295 104.53 81.6387C104.366 82.2479 104.041 82.8018 103.59 83.243L90.55 96.009C90.4061 96.1461 90.2909 96.3105 90.211 96.4925C90.1312 96.6746 90.0883 96.8707 90.0849 97.0694C90.0816 97.2682 90.1177 97.4656 90.1913 97.6503C90.2649 97.835 90.3744 98.0031 90.5136 98.1451C90.6528 98.287 90.8188 98.3999 91.0019 98.4771C91.1851 98.5544 91.3818 98.5944 91.5806 98.595C91.7794 98.5955 91.9763 98.5566 92.1599 98.4803C92.3435 98.4041 92.5101 98.2922 92.65 98.151L105.684 85.387C106.298 84.7871 106.787 84.0721 107.124 83.2829C107.461 82.4937 107.64 81.6458 107.649 80.7877C107.658 79.9296 107.498 79.078 107.178 78.2818C106.858 77.4855 106.385 76.7601 105.784 76.147C105.433 75.791 105.042 75.4759 104.62 75.208L106.33 58.867C106.424 57.9571 106.864 57.1183 107.56 56.5238C108.255 55.9292 109.152 55.6245 110.065 55.6725C110.979 55.7205 111.839 56.1176 112.468 56.7818C113.097 57.4459 113.447 58.3263 113.445 59.241L113.44 85.072Z" fill="black"/>
</svg>
