<svg xmlns="http://www.w3.org/2000/svg" id="Capa_1" enable-background="new 0 0 512 512" height="512" viewBox="0 0 512 512" width="512"><g><path d="m206.548 176.659h-20.344c-4.142 0-7.5 3.357-7.5 7.5s3.358 7.5 7.5 7.5h12.11c-1.992 9.896-8.237 19.005-21.12 19.005-14.614 0-26.504-11.89-26.504-26.505 0-14.614 11.89-26.504 26.504-26.504 5.312 0 10.435 1.563 14.813 4.522 3.432 2.317 8.094 1.415 10.413-2.016 2.319-3.433 1.417-8.095-2.016-10.414-6.868-4.64-14.894-7.093-23.211-7.093-22.885 0-41.504 18.618-41.504 41.504s18.619 41.505 41.504 41.505c21.699 0 36.854-17.067 36.854-41.505.001-4.142-3.357-7.499-7.499-7.499z" style="&#10;    fill: #e65402;&#10;"/><path d="m336.632 219.654c1.28 3.602 4.696 6.01 8.514 6.01.021 0 .042 0 .062-.001 3.842-.025 7.255-2.487 8.509-6.176l22.205-66.843c1.307-3.931-.822-8.176-4.753-9.481-3.927-1.307-8.176.821-9.481 4.753l-16.665 50.166-17.49-50.386c-1.358-3.914-5.635-5.99-9.544-4.626-3.913 1.358-5.984 5.631-4.626 9.544z" style="&#10;    fill: #e65402;&#10;"/><path d="m266.342 142.655c-22.886 0-41.504 18.618-41.504 41.504s18.619 41.505 41.504 41.505 41.504-18.619 41.504-41.505-18.618-41.504-41.504-41.504zm0 68.009c-14.615 0-26.504-11.89-26.504-26.505 0-14.614 11.89-26.504 26.504-26.504s26.504 11.89 26.504 26.504c0 14.615-11.89 26.505-26.504 26.505z" style="&#10;    fill: #e65402;&#10;"/><path d="m497.9 191.658c7.774 0 14.1-6.325 14.1-14.101v-20.8c0-7.774-6.325-14.1-14.1-14.1h-9.721v-18.65c0-14.304-8.54-27.088-21.759-32.568l-199.181-82.531c-7.146-2.959-15.343-2.96-22.49.001l-199.182 82.531c-13.217 5.48-21.757 18.264-21.757 32.568v18.65h-9.71c-7.775 0-14.1 6.325-14.1 14.1v20.8c0 7.775 6.325 14.101 14.1 14.101h9.71v29.529c0 4.143 3.358 7.5 7.5 7.5h38.231v204.426h-30.728v-176.903c0-4.143-3.358-7.5-7.5-7.5s-7.5 3.357-7.5 7.5v205.502h-9.708c-7.777 0-14.105 6.327-14.105 14.104v15.39c0 7.777 6.328 14.104 14.105 14.104h483.791c7.777 0 14.104-6.327 14.104-14.104v-15.39c0-7.777-6.327-14.104-14.104-14.104h-9.715l-.001-270.055zm-.9-15h-84.38v-19h84.38zm-23.819 52.029v204.426h-30.728v-204.426zm-45.728 204.426h-73.823v-174.926h39.057c10.991 0 19.934-8.942 19.934-19.934v-9.566h14.833v204.426zm-171.453-88.733c-4.142 0-7.5 3.357-7.5 7.5v81.233h-29.41v-84.273c.01-3.764 1.677-7.296 4.579-9.696l25.513-21.09c3.948-3.264 9.677-3.262 13.625.006l25.465 21.081c2.907 2.406 4.574 5.951 4.574 9.726v84.246h-29.346v-81.233c0-4.143-3.357-7.5-7.5-7.5zm-51.91-86.193-.002 174.926h-30.728v-174.926zm88.82 0v65.322l-20.538-17.003c-9.483-7.851-23.256-7.858-32.747-.012l-20.536 16.975v-65.282zm15 174.926v-174.926h30.72v174.926zm-269.1-309.105c0-8.218 4.908-15.562 12.501-18.711l199.179-82.53c3.499-1.449 7.513-1.448 11.009-.001l199.178 82.529c7.596 3.149 12.503 10.494 12.503 18.712v18.65h-60.56v-12.593c0-10.991-8.942-19.934-19.934-19.934h-54.713c-4.143 0-7.5 3.357-7.5 7.5s3.357 7.5 7.5 7.5h54.713c2.721 0 4.934 2.213 4.934 4.934v108.188c0 2.721-2.213 4.934-4.934 4.934h-273.378c-2.72 0-4.934-2.213-4.934-4.934v-108.187c0-2.721 2.213-4.934 4.934-4.934h183.612c4.143 0 7.5-3.357 7.5-7.5s-3.357-7.5-7.5-7.5h-183.612c-10.991 0-19.934 8.942-19.934 19.934v12.593h-60.564zm-23.81 33.65h84.374v19h-84.374zm84.374 34v22.029l-60.564-.003v-22.026zm-14.833 37.029h14.833v9.566c0 10.991 8.942 19.934 19.934 19.934h39.052v174.926h-73.819zm323.866 233.026c-4.143 0-7.5 3.357-7.5 7.5s3.357 7.5 7.5 7.5h88.593v13.599h-482v-13.599h358.271c4.143 0 7.5-3.357 7.5-7.5s-3.357-7.5-7.5-7.5h-334.458v-13.6h434.367v13.6zm64.773-248.029-60.56.003v-22.029h60.56z"/><path d="m243.894 89.933c1.919 0 3.839-.732 5.303-2.196l24.207-24.206c2.929-2.93 2.929-7.678 0-10.607-2.93-2.927-7.678-2.929-10.607 0l-24.206 24.206c-2.929 2.93-2.929 7.678 0 10.607 1.464 1.464 3.384 2.196 5.303 2.196z"/><path d="m390.87 274.393c-4.143 0-7.5 3.357-7.5 7.5v18.401c0 4.143 3.357 7.5 7.5 7.5s7.5-3.357 7.5-7.5v-18.401c0-4.142-3.357-7.5-7.5-7.5z"/><path d="m390.87 325.978c-4.143 0-7.5 3.357-7.5 7.5v18.401c0 4.143 3.357 7.5 7.5 7.5s7.5-3.357 7.5-7.5v-18.401c0-4.142-3.357-7.5-7.5-7.5z"/><path d="m390.87 377.563c-4.143 0-7.5 3.357-7.5 7.5v18.402c0 4.143 3.357 7.5 7.5 7.5s7.5-3.357 7.5-7.5v-18.402c0-4.142-3.357-7.5-7.5-7.5z"/><path d="m122.403 274.393c-4.142 0-7.5 3.357-7.5 7.5v18.401c0 4.143 3.358 7.5 7.5 7.5s7.5-3.357 7.5-7.5v-18.401c0-4.142-3.358-7.5-7.5-7.5z"/><path d="m122.403 325.978c-4.142 0-7.5 3.357-7.5 7.5v18.401c0 4.143 3.358 7.5 7.5 7.5s7.5-3.357 7.5-7.5v-18.401c0-4.142-3.358-7.5-7.5-7.5z"/><path d="m122.403 377.563c-4.142 0-7.5 3.357-7.5 7.5v18.402c0 4.143 3.358 7.5 7.5 7.5s7.5-3.357 7.5-7.5v-18.402c0-4.142-3.358-7.5-7.5-7.5z"/></g></svg>