<svg width="773" height="777" viewBox="0 0 773 777" fill="none" xmlns="http://www.w3.org/2000/svg">
<rect width="773" height="777" fill="white"/>
<path d="M350.266 546.328C356.936 546.328 362.344 540.893 362.344 534.188C362.344 527.482 356.936 522.047 350.266 522.047C343.595 522.047 338.188 527.482 338.188 534.188C338.188 540.893 343.595 546.328 350.266 546.328Z" fill="#231F20"/>
<path d="M422.734 546.328C429.405 546.328 434.812 540.893 434.812 534.188C434.812 527.482 429.405 522.047 422.734 522.047C416.064 522.047 410.656 527.482 410.656 534.188C410.656 540.893 416.064 546.328 422.734 546.328Z" fill="#231F20"/>
<path d="M675.047 418.245L687.125 393.963C687.97 392.263 688.453 390.442 688.453 388.5V376.359C701.739 376.359 712.609 365.432 712.609 352.078V327.797H724.688C731.33 327.797 736.766 322.333 736.766 315.656V267.094C736.766 262.965 734.713 259.08 731.209 256.895L393.022 38.3639C389.037 35.8149 383.963 35.8149 379.978 38.3639L41.7906 256.895C38.2874 259.08 36.2344 262.965 36.2344 267.094V315.656C36.2344 322.333 41.6697 327.797 48.3125 327.797H60.3906V352.078C60.3906 365.432 71.2612 376.359 84.5469 376.359V388.5C84.5469 390.442 85.0298 392.263 85.8753 393.963L97.9535 418.245C99.8863 422.372 104.113 424.922 108.703 424.922V570.609C104.113 570.609 99.8863 573.158 97.9535 577.287L85.8753 601.568C85.0298 603.268 84.5469 605.088 84.5469 607.031V619.172H48.3125C41.6697 619.172 36.2344 624.635 36.2344 631.312V728.437C36.2344 735.115 41.6697 740.578 48.3125 740.578H724.688C731.33 740.578 736.766 735.115 736.766 728.437V692.016C736.766 685.338 731.33 679.875 724.688 679.875C718.045 679.875 712.609 685.338 712.609 692.016V716.297H519.359V643.453H712.609C712.609 650.13 718.045 655.594 724.688 655.594C731.33 655.594 736.766 650.13 736.766 643.453V631.312C736.766 624.635 731.33 619.172 724.688 619.172H688.453V607.031C688.453 605.088 687.97 603.268 687.125 601.568L675.047 577.287C673.114 573.158 668.887 570.609 664.297 570.609V424.922C668.887 424.922 673.114 422.372 675.047 418.245ZM84.5469 352.078V327.797H169.094C175.737 327.797 181.172 322.333 181.172 315.656C181.172 308.979 175.737 303.516 169.094 303.516H60.3906V273.771L386.5 63.0098L712.609 273.771V303.516H217.406C210.763 303.516 205.328 308.979 205.328 315.656C205.328 322.333 210.763 327.797 217.406 327.797H688.453V352.078H84.5469ZM116.192 400.641L108.703 385.586V376.359H205.328V385.586L197.84 400.641H116.192ZM181.172 424.922V570.609H132.859V424.922H181.172ZM253.641 716.297H60.3906V643.453H120.781C127.424 643.453 132.859 637.99 132.859 631.312C132.859 624.635 127.424 619.172 120.781 619.172H108.703V609.945L116.192 594.891H197.84L205.328 609.945V619.172H169.094C162.451 619.172 157.016 624.635 157.016 631.312C157.016 637.99 162.451 643.453 169.094 643.453H253.641V716.297ZM495.203 667.734H446.891C440.248 667.734 434.812 673.198 434.812 679.875C434.812 686.552 440.248 692.016 446.891 692.016H495.203V716.297H277.797V692.016H398.578C405.221 692.016 410.656 686.552 410.656 679.875C410.656 673.198 405.221 667.734 398.578 667.734H277.797V643.453H495.203V667.734ZM314.031 619.172V449.203H374.422V619.172H314.031ZM398.578 619.172V449.203H458.969V619.172H398.578ZM556.922 577.287L544.844 601.568C543.998 603.268 543.516 605.088 543.516 607.031V619.172H483.125V437.062C483.125 430.385 477.69 424.922 471.047 424.922H301.953C295.31 424.922 289.875 430.385 289.875 437.062V619.172H229.484V607.031C229.484 605.088 229.002 603.268 228.156 601.568L216.078 577.287C214.145 573.158 209.918 570.609 205.328 570.609V424.922C209.918 424.922 214.145 422.372 216.078 418.245L228.156 393.963C229.002 392.263 229.484 390.442 229.484 388.5V376.359H543.516V388.5C543.516 390.442 543.998 392.263 544.844 393.963L556.922 418.245C558.855 422.372 563.082 424.922 567.672 424.922V449.203C567.672 455.88 573.107 461.344 579.75 461.344C586.393 461.344 591.828 455.88 591.828 449.203V424.922H640.141V570.609H591.828V497.766C591.828 491.088 586.393 485.625 579.75 485.625C573.107 485.625 567.672 491.088 567.672 497.766V570.609C563.082 570.609 558.855 573.158 556.922 577.287ZM664.297 619.172H567.672V609.945L575.16 594.891H656.808L664.297 609.945V619.172ZM656.808 400.641H575.16L567.672 385.586V376.359H664.297V385.586L656.808 400.641Z" fill="#231F20"/>
<path d="M386.5 145.688C353.164 145.688 326.109 172.882 326.109 206.391C326.109 239.899 353.164 267.094 386.5 267.094C419.836 267.094 446.891 239.899 446.891 206.391C446.891 172.882 419.836 145.688 386.5 145.688ZM386.5 242.812C366.571 242.812 350.266 226.422 350.266 206.391C350.266 186.358 366.571 169.969 386.5 169.969C406.429 169.969 422.734 186.358 422.734 206.391C422.734 226.422 406.429 242.812 386.5 242.812ZM483.125 218.531H507.281C513.951 218.531 519.359 213.101 519.359 206.391C519.359 199.68 513.951 194.25 507.281 194.25H483.125C476.455 194.25 471.047 199.68 471.047 206.391C471.047 213.101 476.455 218.531 483.125 218.531ZM265.719 218.531H289.875C296.545 218.531 301.953 213.101 301.953 206.391C301.953 199.68 296.545 194.25 289.875 194.25H265.719C259.049 194.25 253.641 199.68 253.641 206.391C253.641 213.101 259.049 218.531 265.719 218.531Z" fill="#E65402"/>
</svg>
