<svg width="276" height="276" viewBox="0 0 276 276" fill="none" xmlns="http://www.w3.org/2000/svg">
<path d="M111.342 95.2302H100.376C98.1428 95.2302 96.3326 97.0399 96.3326 99.2732C96.3326 101.507 98.1428 103.316 100.376 103.316H106.904C105.83 108.651 102.463 113.561 95.5186 113.561C87.6408 113.561 81.2313 107.152 81.2313 99.2732C81.2313 91.3953 87.6408 84.9859 95.5186 84.9859C98.3821 84.9859 101.144 85.8284 103.504 87.4235C105.354 88.6725 107.867 88.1863 109.117 86.3368C110.367 84.4862 109.881 81.9731 108.03 80.723C104.328 78.2217 100.001 76.8994 95.5181 76.8994C83.1817 76.8994 73.1449 86.9357 73.1449 99.2727C73.1449 111.61 83.1817 121.646 95.5181 121.646C107.215 121.646 115.385 112.446 115.385 99.2727C115.385 97.0399 113.575 95.2302 111.342 95.2302Z" fill="#E65402"/>
<path d="M181.466 118.407C182.156 120.349 183.997 121.647 186.055 121.647C186.067 121.647 186.078 121.647 186.089 121.646C188.16 121.633 190 120.306 190.676 118.317L202.645 82.2847C203.35 80.1656 202.202 77.8773 200.083 77.1738C197.966 76.4692 195.676 77.6164 194.972 79.736L185.989 106.779L176.561 79.6174C175.829 77.5075 173.523 76.3884 171.416 77.1237C169.307 77.8557 168.19 80.1591 168.922 82.2685L181.466 118.407Z" fill="#E65402"/>
<path d="M143.575 76.9C131.238 76.9 121.202 86.9362 121.202 99.2732C121.202 111.61 131.239 121.647 143.575 121.647C155.911 121.647 165.948 111.61 165.948 99.2732C165.948 86.9362 155.912 76.9 143.575 76.9ZM143.575 113.561C135.697 113.561 129.288 107.152 129.288 99.2732C129.288 91.3954 135.697 84.9859 143.575 84.9859C151.453 84.9859 157.862 91.3954 157.862 99.2732C157.862 107.152 151.453 113.561 143.575 113.561Z" fill="#E65402"/>
<path d="M268.399 103.316C272.59 103.316 276 99.9061 276 95.7143V84.5018C276 80.3111 272.59 76.901 268.399 76.901H263.159V66.8475C263.159 59.1368 258.555 52.2454 251.43 49.2913L144.059 4.80197C140.206 3.20689 135.788 3.20635 131.935 4.80251L24.5635 49.2919C17.4387 52.2459 12.8351 59.1373 12.8351 66.8481V76.9016H7.60078C3.40957 76.9016 0 80.3111 0 84.5024V95.7149C0 99.9061 3.40957 103.316 7.60078 103.316H12.8351V119.234C12.8351 121.467 14.6452 123.277 16.878 123.277H37.4869V233.476H20.9226V138.114C20.9226 135.88 19.1125 134.071 16.8797 134.071C14.6469 134.071 12.8367 135.88 12.8367 138.114V248.892H7.60348C3.41119 248.892 0 252.303 0 256.495V264.791C0 268.984 3.41119 272.394 7.60348 272.394H268.397C272.589 272.394 276 268.984 276 264.791V256.495C276 252.303 272.589 248.892 268.397 248.892H263.16L263.16 103.316H268.399ZM267.914 95.2297H222.428V84.9875H267.914V95.2297ZM255.074 123.277V233.475H238.51V123.277H255.074ZM230.424 233.475H190.629V139.179H211.683C217.608 139.179 222.429 134.359 222.429 128.433V123.277H230.424V233.475H230.424ZM138 185.642C135.767 185.642 133.957 187.452 133.957 189.685V233.475H118.103V188.047C118.109 186.018 119.007 184.114 120.572 182.82L134.325 171.451C136.453 169.691 139.541 169.693 141.669 171.454L155.397 182.818C156.964 184.115 157.862 186.026 157.862 188.061V233.475H142.043V189.685C142.043 187.452 140.233 185.642 138 185.642ZM110.017 139.179L110.016 233.475H93.4519V139.179H110.017ZM157.897 139.179V174.392L146.826 165.226C141.714 160.994 134.289 160.99 129.173 165.219L118.103 174.37V139.179H157.897ZM165.983 233.475V139.179H182.543V233.475H165.983ZM20.921 66.8481C20.921 62.4181 23.5667 58.4592 27.6598 56.7617L135.03 12.2728C136.916 11.4917 139.08 11.4923 140.964 12.2723L248.334 56.7606C252.428 58.4581 255.074 62.4175 255.074 66.8475V76.901H222.428V70.1126C222.428 64.1878 217.608 59.367 211.682 59.367H182.189C179.955 59.367 178.146 61.1766 178.146 63.4099C178.146 65.6433 179.955 67.4529 182.189 67.4529H211.682C213.149 67.4529 214.342 68.6458 214.342 70.1126V128.433C214.342 129.9 213.149 131.092 211.682 131.092H64.3145C62.8482 131.092 61.6547 129.9 61.6547 128.433V70.1132C61.6547 68.6464 62.8477 67.4534 64.3145 67.4534H163.293C165.526 67.4534 167.336 65.6438 167.336 63.4105C167.336 61.1771 165.526 59.3675 163.293 59.3675H64.3145C58.3896 59.3675 53.5688 64.1878 53.5688 70.1132V76.9016H20.921V66.8481ZM8.08594 84.9875H53.5688V95.2297H8.08594V84.9875ZM53.5688 103.316V115.191L20.921 115.189V103.316H53.5688ZM45.5729 123.277H53.5688V128.433C53.5688 134.358 58.3891 139.179 64.3145 139.179H85.3659V233.475H45.5729V123.277ZM220.157 248.892C217.924 248.892 216.114 250.702 216.114 252.935C216.114 255.168 217.924 256.978 220.157 256.978H267.914V264.309H8.08594V256.978H201.216C203.45 256.978 205.259 255.168 205.259 252.935C205.259 250.702 203.45 248.892 201.216 248.892H20.9226V241.561H255.074V248.892H220.157ZM255.074 115.189L222.428 115.191V103.316H255.074V115.189Z" fill="black"/>
<path d="M131.474 48.4795C132.509 48.4795 133.544 48.0849 134.333 47.2957L147.382 34.2472C148.961 32.6677 148.961 30.1083 147.382 28.5293C145.802 26.9515 143.243 26.9504 141.664 28.5293L128.615 41.5779C127.037 43.1573 127.037 45.7168 128.615 47.2957C129.405 48.0849 130.44 48.4795 131.474 48.4795Z" fill="black"/>
<path d="M210.703 147.915C208.47 147.915 206.66 149.725 206.66 151.958V161.877C206.66 164.111 208.47 165.92 210.703 165.92C212.937 165.92 214.746 164.111 214.746 161.877V151.958C214.746 149.725 212.937 147.915 210.703 147.915Z" fill="black"/>
<path d="M210.703 175.723C208.47 175.723 206.66 177.532 206.66 179.765V189.685C206.66 191.918 208.47 193.728 210.703 193.728C212.937 193.728 214.746 191.918 214.746 189.685V179.765C214.746 177.533 212.937 175.723 210.703 175.723Z" fill="black"/>
<path d="M210.703 203.53C208.47 203.53 206.66 205.34 206.66 207.573V217.493C206.66 219.726 208.47 221.536 210.703 221.536C212.937 221.536 214.746 219.726 214.746 217.493V207.573C214.746 205.34 212.937 203.53 210.703 203.53Z" fill="black"/>
<path d="M65.9829 147.915C63.7501 147.915 61.9399 149.725 61.9399 151.958V161.877C61.9399 164.111 63.7501 165.92 65.9829 165.92C68.2157 165.92 70.0258 164.111 70.0258 161.877V151.958C70.0258 149.725 68.2157 147.915 65.9829 147.915Z" fill="black"/>
<path d="M65.9829 175.723C63.7501 175.723 61.9399 177.532 61.9399 179.765V189.685C61.9399 191.918 63.7501 193.728 65.9829 193.728C68.2157 193.728 70.0258 191.918 70.0258 189.685V179.765C70.0258 177.533 68.2157 175.723 65.9829 175.723Z" fill="black"/>
<path d="M65.9829 203.53C63.7501 203.53 61.9399 205.34 61.9399 207.573V217.493C61.9399 219.726 63.7501 221.536 65.9829 221.536C68.2157 221.536 70.0258 219.726 70.0258 217.493V207.573C70.0258 205.34 68.2157 203.53 65.9829 203.53Z" fill="black"/>
</svg>
