<svg width="252" height="252" viewBox="0 0 252 252" fill="none" xmlns="http://www.w3.org/2000/svg">
<g clip-path="url(#clip0_8_70)">
<path d="M113.996 107.434C114.283 107.499 114.535 107.668 114.709 107.908L121.005 116.662C122.158 118.265 124.025 119.222 126 119.222C127.975 119.222 129.842 118.265 130.994 116.662L137.291 107.908C137.465 107.667 137.72 107.498 138.011 107.432C149.845 104.754 160.595 98.0502 168.283 88.5554C176.088 78.9164 180.386 66.7815 180.386 54.3862C180.386 24.6812 156.224 0.284983 126.524 0.00197503C112.075 -0.129931 98.4331 5.2797 88.1267 15.2499C77.8168 25.2231 71.9573 38.6727 71.6271 53.1213C71.0384 78.9065 88.8566 101.748 113.996 107.434ZM79.0084 53.2901C79.2944 40.7955 84.3555 29.1705 93.2602 20.5567C102.054 12.0502 113.66 7.38233 125.989 7.38233C126.144 7.38233 126.299 7.38282 126.454 7.3843C152.122 7.62891 173.004 28.7137 173.004 54.3862C173.004 65.0957 169.29 75.5808 162.546 83.9096C155.897 92.1213 146.605 97.9178 136.381 100.232C134.33 100.696 132.525 101.892 131.298 103.597L126 110.963L120.702 103.598C119.474 101.891 117.671 100.696 115.624 100.234C93.8981 95.319 78.4995 75.5769 79.0084 53.2901Z" fill="black"/>
<path d="M123.252 70.5925C123.315 70.5925 123.378 70.591 123.44 70.5876C124.47 70.5354 125.432 70.054 126.091 69.2606L145.628 45.7552C146.931 44.1871 146.717 41.8601 145.149 40.5568C143.581 39.2539 141.253 39.468 139.95 41.0361L122.975 61.4595L111.794 50.498C110.338 49.0706 108.001 49.0937 106.574 50.5496C105.147 52.0055 105.17 54.3424 106.626 55.7698L120.668 69.5372C121.36 70.215 122.288 70.5925 123.252 70.5925Z" fill="#E65402"/>
<path d="M126 94.0078C147.847 94.0078 165.621 76.2339 165.621 54.3867C165.621 32.5395 147.847 14.7656 126 14.7656C107.716 14.7656 91.8978 27.1535 87.5326 44.8914C87.0453 46.871 88.2551 48.8708 90.2347 49.358C92.2153 49.8453 94.214 48.636 94.7013 46.6559C98.2529 32.2265 111.123 22.1484 126 22.1484C143.776 22.1484 158.238 36.6104 158.238 54.3867C158.238 72.1631 143.776 86.625 126 86.625C111.123 86.625 98.2529 76.547 94.7013 62.118C94.214 60.1384 92.2148 58.9286 90.2347 59.4159C88.2551 59.9032 87.0453 61.9029 87.5326 63.8825C91.8978 81.6199 107.717 94.0078 126 94.0078Z" fill="#E65402"/>
<path d="M222.828 166.622H211.55C219.494 160.341 224.608 150.628 224.608 139.736C224.608 127.909 218.584 117.463 209.444 111.302C209.781 109.855 209.956 108.375 209.956 106.876C209.956 96.0588 201.156 87.2589 190.339 87.2589C179.522 87.2589 170.723 96.0588 170.723 106.876C170.723 108.375 170.898 109.855 171.235 111.302C162.095 117.463 156.071 127.909 156.071 139.737C156.071 150.628 161.185 160.341 169.129 166.623H155.205C155.215 166.317 155.229 166.012 155.229 165.705C155.229 149.588 142.117 136.477 126 136.477C114.094 136.477 103.835 143.636 99.2836 153.872H82.8711C90.816 147.591 95.9293 137.877 95.9293 126.986C95.9293 108.09 80.5568 92.7178 61.6608 92.7178C42.7647 92.7178 27.3922 108.09 27.3922 126.986C27.3922 137.877 32.5055 147.591 40.4504 153.872H22.8021C10.2291 153.871 0 164.1 0 176.674V185.063C0 187.101 1.65277 188.754 3.69141 188.754C5.73005 188.754 7.38281 187.101 7.38281 185.063V176.674C7.38281 168.172 14.3 161.254 22.8021 161.254H29.23L41.3689 176.478C42.5344 177.94 44.2747 178.784 46.1445 178.795H46.18C48.036 178.795 49.7715 177.972 50.9458 176.532L61.6612 163.402L72.39 176.549C73.5638 177.987 75.3003 178.812 77.1563 178.812H77.1701C79.031 178.808 80.7699 177.975 81.9404 176.528L94.2943 161.255H97.1106C96.8881 162.706 96.7724 164.192 96.7724 165.705C96.7724 174.387 100.581 182.193 106.612 187.551H103.068C86.9823 187.551 73.8956 200.637 73.8956 216.723V244.617H30.3158V196.3C30.3158 194.261 28.663 192.609 26.6244 192.609C24.5858 192.609 22.933 194.261 22.933 196.3V244.617H8.61328C7.93505 244.617 7.38281 244.065 7.38281 243.387V202.289C7.38281 200.25 5.73005 198.598 3.69141 198.598C1.65277 198.598 0 200.25 0 202.289V243.387C0 248.136 3.86416 252 8.61328 252H243.387C248.136 252 252 248.136 252 243.387V195.795C252 179.709 238.913 166.622 222.828 166.622ZM61.6608 100.1C64.5553 100.1 67.3421 100.565 69.9571 101.416C67.1029 113.341 56.3363 122.02 43.8239 122.02C40.9761 122.02 38.1947 121.579 35.5226 120.708C38.3581 108.902 48.9978 100.1 61.6608 100.1ZM34.8055 128.197C37.7291 128.996 40.7457 129.403 43.8239 129.403C59.2116 129.403 72.5283 119.101 76.7143 104.72C83.8491 109.559 88.5465 117.734 88.5465 126.985C88.5465 141.81 76.4854 153.871 61.6608 153.871C47.2421 153.871 35.4414 142.461 34.8055 128.197ZM46.1898 170.682L38.6726 161.254H53.8837L46.1898 170.682ZM77.1519 170.707L69.4378 161.254H84.798L77.1519 170.707ZM213.034 174.005C211.547 177.864 207.8 180.609 203.424 180.609C199.187 180.609 195.332 177.957 193.812 174.005H213.034ZM178.105 106.875C178.105 100.129 183.593 94.6413 190.339 94.6413C197.085 94.6413 202.574 100.129 202.574 106.875C202.574 107.158 202.56 107.44 202.541 107.721C198.747 106.27 194.636 105.467 190.339 105.467C186.042 105.467 181.931 106.27 178.138 107.72C178.119 107.44 178.105 107.158 178.105 106.875ZM190.339 112.851C195.558 112.851 200.431 114.35 204.559 116.934C200.53 127.025 190.612 133.875 179.587 133.875C174.49 133.875 169.624 132.47 165.365 129.799C169.326 119.881 179.024 112.851 190.339 112.851ZM163.454 139.736C163.454 138.911 163.497 138.096 163.57 137.289C168.472 139.897 173.918 141.258 179.586 141.258C192.809 141.258 204.785 133.529 210.432 121.9C214.653 126.65 217.224 132.897 217.224 139.736C217.224 154.561 205.163 166.622 190.339 166.622C175.514 166.622 163.454 154.561 163.454 139.736ZM186.867 174.005C185.347 177.957 181.493 180.609 177.255 180.609C172.879 180.609 169.132 177.864 167.644 174.005H186.867ZM104.154 165.704C104.154 153.658 113.954 143.859 126 143.859C138.046 143.859 147.846 153.658 147.846 165.704C147.846 177.749 138.046 187.55 126 187.55C113.954 187.55 104.154 177.75 104.154 165.704ZM244.617 243.387C244.617 244.065 244.065 244.617 243.387 244.617H229.067V209.817C229.067 207.778 227.414 206.125 225.376 206.125C223.337 206.125 221.684 207.778 221.684 209.817V244.617H178.105V232.805C178.105 230.766 176.452 229.113 174.414 229.113C172.375 229.113 170.722 230.766 170.722 232.805V244.617H158.952V218.828C158.952 216.789 157.299 215.137 155.261 215.137C153.222 215.137 151.569 216.789 151.569 218.828V244.617H100.43V218.828C100.43 216.789 98.7776 215.137 96.739 215.137C94.7003 215.137 93.0476 216.789 93.0476 218.828V244.617H81.2774V216.722C81.2774 204.707 91.0522 194.932 103.067 194.932H148.933C160.621 194.932 170.181 204.073 170.697 215.741C170.787 217.778 172.525 219.357 174.548 219.266C176.585 219.176 178.163 217.452 178.073 215.415C177.382 199.79 164.583 187.55 148.933 187.55H145.389C149.417 183.971 152.449 179.3 154.021 174.005H159.968C161.671 181.986 168.774 187.991 177.255 187.991C182.307 187.991 187.044 185.795 190.339 182.181C193.635 185.795 198.372 187.991 203.423 187.991C211.904 187.991 219.008 181.986 220.71 174.005H222.827C234.842 174.005 244.617 183.779 244.617 195.794V243.387H244.617Z" fill="black"/>
</g>
<defs>
<clipPath id="clip0_8_70">
<rect width="252" height="252" fill="white"/>
</clipPath>
</defs>
</svg>
