<svg id="Layer_1" enable-background="new 0 0 468 468" height="512" viewBox="0 0 468 468" width="512" xmlns="http://www.w3.org/2000/svg"><g><g><g><path d="m233.858 187.685c-38.186 0-69.252 31.071-69.252 69.263s31.067 69.263 69.252 69.263 69.253-31.071 69.253-69.263-31.067-69.263-69.253-69.263z"/><path d="m120.232 467.926h227.314l.222-44.082c0-38.582-23.153-74.49-58.281-91.389-16.064 11.85-35.535 18.299-55.628 18.299-20.043 0-39.473-6.42-55.516-18.218-35.027 16.935-58.111 52.813-58.111 91.369z"/></g><g><path d="m105.186 239.94c-30.013 0-54.43 24.421-54.43 54.438s24.417 54.439 54.43 54.439c6.395 0 12.629-1.095 18.574-3.26 8.678-10.804 18.896-20.034 30.446-27.503 1.134-2.344 2.096-4.761 2.879-7.237-11.016-15.709-17.022-34.605-17.022-53.869 0-1.404.034-2.829.102-4.27-9.786-8.249-22.021-12.738-34.979-12.738z"/><path d="m60.504 359.489c-27.338 13.88-45.282 42.768-45.282 73.917v34.594l80.467-.064v-44.03c0-17.271 3.826-34.565 11.023-50.56-.508.01-1.016.014-1.526.014-15.992.001-31.586-4.88-44.682-13.871z"/></g><g><path d="m344.343 345.682c5.84 2.082 11.961 3.136 18.241 3.136 30.013 0 54.43-24.421 54.43-54.439 0-30.017-24.417-54.438-54.43-54.438-12.982 0-25.235 4.504-35.03 12.782.067 1.426.101 2.837.101 4.226 0 19.239-5.994 38.117-16.986 53.815.763 2.418 1.697 4.782 2.797 7.078 11.731 7.535 22.095 16.879 30.877 27.84z"/><path d="m372.089 467.936 80.519.064.17-34.655c0-30.647-18.382-60.123-45.426-73.916-13.465 9.272-29.634 14.193-46.063 13.921 7.196 15.995 11.022 33.288 11.022 50.555z"/></g></g><path d="m389.789 0h-311.587c-11.454 0-20.734 9.294-20.717 20.748l.129 85.02c.017 11.429 9.288 20.685 20.717 20.685h220.41c2.617 10.354 14.752 47.924 55.295 59.999 0 0-6.21-34.799 3.712-59.999h26.403c14.555 0 26.354-11.799 26.354-26.354v-79.382c.001-11.442-9.275-20.717-20.716-20.717zm-236.523 99.717-23.768-12.497-23.768 12.497 4.539-26.47-19.229-18.745 26.574-3.862 11.884-24.083 11.884 24.083 26.574 3.862-19.229 18.746zm104.502 0-23.768-12.497-23.768 12.497 4.539-26.47-19.229-18.746 26.574-3.862 11.884-24.082 11.884 24.083 26.574 3.862-19.229 18.746zm104.502 0-23.768-12.497-23.768 12.497 4.539-26.47-19.229-18.746 26.574-3.862 11.884-24.083 11.884 24.083 26.574 3.862-19.229 18.746z"/></g></svg>