<svg id="Layer_1" enable-background="new 0 0 64 64" height="512" viewBox="0 0 64 64" width="512" xmlns="http://www.w3.org/2000/svg"><g><g><path d="m31.2 13.5s.1.1.2.1c0 0 .1.1.1.1.1.1.3.1.4.1s.3 0 .4-.1c.1 0 .1-.1.2-.1 0 0 .1 0 .1-.1l3.5-3.3c.2-.2.4-.5.4-.8s-.1-.6-.3-.8-.5-.4-.8-.4-.6.1-.8.3l-1.4 1.5v-8.8c0-.7-.6-1.2-1.2-1.2s-1.2.5-1.2 1.2v8.8l-1.6-1.5c-.2-.2-.5-.3-.8-.3s-.6.1-.8.4c-.2.2-.3.5-.3.8s.1.6.4.8z"/><path d="m15.6 17.2-2.1.1c-.6 0-1.1.6-1.1 1.2s.5 1.1 1.2 1.1l4.8-.2c.1 0 .1 0 .3-.1h.2c.1-.1.3-.1.4-.3.1-.1.2-.2.2-.4 0-.1 0-.1 0-.2v-.1s0-.1 0-.2l.2-4.8c0-.6-.5-1.2-1.2-1.2-.6 0-1.1.5-1.2 1.1l-.1 2.1-6.2-5.9c-.2-.2-.5-.4-.8-.4s-.6.2-.8.4-.4.5-.4.8.1.6.3.8z"/><path d="m10.2 36.3 3.3-3.5s.1-.1.1-.2c0 0 .1-.1.1-.1.1-.3.1-.6 0-.9 0-.1-.1-.1-.1-.2 0 0 0-.1-.1-.1l-3.3-3.5c-.2-.2-.5-.4-.8-.4s-.6.1-.8.3-.4.5-.4.8.1.6.3.8l1.5 1.6h-8.8c-.7-.1-1.2.5-1.2 1.1s.5 1.2 1.2 1.2h8.8l-1.5 1.6c-.2.2-.3.5-.3.8s.1.6.4.8c.2.2.5.3.8.3s.6-.2.8-.4z"/><path d="m19.4 45.5c0-.1 0-.2-.1-.3s-.1-.3-.3-.4c-.1-.1-.2-.2-.4-.2-.1 0-.1 0-.2-.1 0 0-.1 0-.2 0l-4.8-.2c-.6 0-1.1.5-1.2 1.1 0 .6.5 1.2 1.1 1.2l2.1.1-6 6.3c-.5.5-.5 1.2 0 1.6.2.2.5.3.8.3s.6-.1.8-.3l6.2-6.2.1 2.1c0 .6.5 1.1 1.2 1.1.6 0 1.1-.6 1.1-1.2l-.2-4.8c.1 0 0-.1 0-.1z"/><path d="m32.8 50.5s-.1-.1-.2-.1c0 0-.1-.1-.1-.1-.1-.1-.3-.1-.4-.1s-.3 0-.4.1c-.1 0-.1.1-.2.1 0 0-.1 0-.1.1l-3.5 3.3c-.2.2-.4.5-.4.8s.1.6.3.8.5.4.8.4.6-.1.8-.3l1.6-1.5v8.8c0 .6.5 1.2 1.2 1.2.6 0 1.2-.5 1.2-1.2v-8.8l1.6 1.5c.2.2.5.3.8.3s.6-.1.8-.4c.2-.2.3-.5.3-.8s-.1-.6-.4-.8z"/><path d="m48.4 46.8 2.1-.1c.6 0 1.1-.6 1.1-1.2s-.6-1.1-1.2-1.1l-4.8.2c-.1 0-.1 0-.3.1 0 0-.1 0-.2 0-.1.1-.3.1-.4.3-.1.1-.2.2-.2.4 0 .1 0 .1-.1.3v.2l-.2 4.8c0 .6.5 1.2 1.2 1.2.6 0 1.1-.5 1.2-1.1l.1-2.1 6.2 6.2c.2.2.5.3.8.3s.6-.1.8-.3.3-.5.3-.8-.1-.6-.3-.8z"/><path d="m62.8 30.8h-8.8l1.5-1.6c.2-.2.3-.5.3-.8s-.1-.6-.4-.8c-.2-.2-.5-.3-.8-.3s-.6.1-.8.4l-3.3 3.5s-.1.1-.1.2c0 0-.1.1-.1.1-.1.3-.1.6 0 .9 0 .1.1.1.1.2 0 0 0 .1.1.1l3.3 3.5c.2.2.5.4.8.4s.6-.1.8-.3.4-.5.4-.8-.1-.6-.3-.8l-1.5-1.5h8.8c.6 0 1.2-.5 1.2-1.2s-.5-1.2-1.2-1.2z"/><path d="m44.6 18.6v.2c.1.1.1.3.3.4.1.1.2.2.4.2.1 0 .1 0 .2.1h.2l4.8.2c.6 0 1.1-.5 1.2-1.1 0-.6-.5-1.2-1.1-1.2l-2.1-.1 6.2-6.2c.2-.2.3-.5.3-.8s-.1-.6-.3-.8c-.3-.3-.6-.5-.9-.5s-.6.1-.8.3l-6.2 6.2-.1-2.1c0-.6-.5-1.1-1.2-1.1-.6 0-1.1.6-1.1 1.2l.2 4.8c-.1.1 0 .2 0 .3z"/><path d="m32 18.6c-7.4 0-13.4 6-13.4 13.4s6 13.4 13.4 13.4 13.4-6 13.4-13.4-6-13.4-13.4-13.4zm6.4 10.1-7.9 7.9c-.2.2-.4.3-.7.3-.2 0-.5-.1-.7-.3l-3.6-3.5c-.4-.4-.4-1 0-1.4s1-.4 1.4 0l2.9 2.9 7.2-7.2c.4-.4 1-.4 1.4 0s.4 1 0 1.3z"/></g></g></svg>