<svg width="101" height="101" viewBox="0 0 101 101" fill="none" xmlns="http://www.w3.org/2000/svg">
<path d="M61.0006 18.6512H55.9603V13.6346C55.9603 13.1911 55.7833 12.7658 55.4682 12.4522C55.1532 12.1386 54.7258 11.9624 54.2802 11.9624H47.5598C47.1142 11.9624 46.6869 12.1386 46.3718 12.4522C46.0567 12.7658 45.8797 13.1911 45.8797 13.6346V18.6512H40.8394C40.3938 18.6512 39.9664 18.8274 39.6513 19.141C39.3363 19.4546 39.1592 19.8799 39.1592 20.3234V27.0122C39.1592 27.4557 39.3363 27.881 39.6513 28.1946C39.9664 28.5082 40.3938 28.6844 40.8394 28.6844H45.8797V33.701C45.8797 34.1445 46.0567 34.5699 46.3718 34.8835C46.6869 35.1971 47.1142 35.3732 47.5598 35.3732H54.2802C54.7258 35.3732 55.1532 35.1971 55.4682 34.8835C55.7833 34.5699 55.9603 34.1445 55.9603 33.701V28.6844H61.0006C61.4462 28.6844 61.8736 28.5082 62.1887 28.1946C62.5037 27.881 62.6808 27.4557 62.6808 27.0122V20.3234C62.6808 19.8799 62.5037 19.4546 62.1887 19.141C61.8736 18.8274 61.4462 18.6512 61.0006 18.6512ZM59.3205 25.34H54.2802C53.8346 25.34 53.4073 25.5162 53.0922 25.8298C52.7771 26.1434 52.6001 26.5687 52.6001 27.0122V32.0288H49.2399V27.0122C49.2399 26.5687 49.0629 26.1434 48.7478 25.8298C48.4327 25.5162 48.0054 25.34 47.5598 25.34H42.5195V21.9956H47.5598C48.0054 21.9956 48.4327 21.8194 48.7478 21.5058C49.0629 21.1922 49.2399 20.7669 49.2399 20.3234V15.3068H52.6001V20.3234C52.6001 20.7669 52.7771 21.1922 53.0922 21.5058C53.4073 21.8194 53.8346 21.9956 54.2802 21.9956H59.3205V25.34Z" fill="#E65402"/>
<path d="M97.5094 27.6142C97.5434 27.32 97.5602 27.0241 97.5598 26.7279C97.5516 25.1952 97.0174 23.7112 96.0457 22.522C95.074 21.3328 93.7231 20.5099 92.217 20.1896C90.5135 19.8669 88.7503 20.2002 87.2843 21.1223C85.8183 22.0443 84.759 23.4861 84.3205 25.1561L76.9281 46.3262C76.8185 46.3694 76.7119 46.4197 76.6088 46.4767L61.7567 55.1387C59.484 56.4674 57.5989 58.3632 56.2877 60.639C54.9765 62.9147 54.2846 65.4916 54.2802 68.115V83.8671C53.8346 83.8671 53.4073 84.0433 53.0922 84.3569C52.7771 84.6705 52.6001 85.0958 52.6001 85.5393V98.9169C52.6001 99.3604 52.7771 99.7858 53.0922 100.099C53.4073 100.413 53.8346 100.589 54.2802 100.589H77.8017C78.2473 100.589 78.6747 100.413 78.9897 100.099C79.3048 99.7858 79.4818 99.3604 79.4818 98.9169V85.5393C79.4818 85.0958 79.3048 84.6705 78.9897 84.3569C78.6747 84.0433 78.2473 83.8671 77.8017 83.8671V80.1883C77.8049 79.482 77.9559 78.7841 78.2452 78.1392C78.5345 77.4942 78.9556 76.9164 79.4818 76.4425L90.8394 66.3926C92.0817 65.3107 92.971 63.8841 93.3931 62.2957L100.685 35.1558C100.84 34.5891 100.92 34.0043 100.92 33.4168C100.913 32.2367 100.595 31.0791 99.996 30.0605C99.3973 29.0419 98.5397 28.1982 97.5094 27.6142ZM87.5295 26.1427C87.7358 25.2779 88.2619 24.5222 89.003 24.0264C89.7441 23.5305 90.6458 23.3308 91.5282 23.4671C92.2813 23.6241 92.9574 24.0336 93.4436 24.6271C93.9298 25.2206 94.1967 25.9622 94.1996 26.7279V26.7614C92.6988 26.7891 91.2483 27.304 90.0685 28.2276C88.8888 29.1513 88.0444 30.4332 87.664 31.8783L82.9765 46.276C82.2668 45.9409 81.5059 45.7262 80.7251 45.6406L87.5295 26.1427ZM76.1216 97.2447H55.9603V87.2115H76.1216V97.2447ZM97.4422 34.2863L90.1337 61.4429C89.8809 62.3865 89.3551 63.2355 88.6216 63.8843L77.2473 73.9342C76.3671 74.7242 75.6628 75.6887 75.1796 76.7658C74.6964 77.8429 74.445 79.0087 74.4415 80.1883V83.8671H57.6404V68.115C57.6488 66.0748 58.1888 64.0716 59.2077 62.3013C60.2266 60.531 61.6896 59.054 63.4536 58.0149L78.289 49.3696C78.6715 49.1478 79.0942 49.0033 79.533 48.9447C79.9718 48.886 80.4178 48.9142 80.8456 49.0276C81.2734 49.141 81.6744 49.3375 82.0257 49.6057C82.377 49.8738 82.6715 50.2084 82.8924 50.5903C83.3288 51.3629 83.4492 52.2733 83.2285 53.132C83.1118 53.556 82.9122 53.953 82.6412 54.3002C82.3702 54.6474 82.0331 54.938 81.6492 55.1554L72.0222 60.6904C71.6565 60.9218 71.3947 61.2848 71.2916 61.7037C71.1885 62.1227 71.252 62.565 71.4689 62.9384C71.6858 63.3118 72.0392 63.5874 72.4554 63.7076C72.8716 63.8277 73.3183 63.7832 73.7023 63.5833L83.3293 58.0483C84.0988 57.6138 84.7732 57.0304 85.3127 56.3325C85.8523 55.6347 86.2461 54.8365 86.4711 53.9848C86.9284 52.2739 86.6868 50.4523 85.799 48.9181L85.6982 48.7676L90.8898 32.8315C91.096 31.9667 91.6221 31.211 92.3632 30.7152C93.1043 30.2193 94.006 30.0196 94.8884 30.156C95.6415 30.3129 96.3176 30.7224 96.8038 31.3159C97.29 31.9094 97.5569 32.651 97.5598 33.4168C97.5654 33.7109 97.5258 34.0041 97.4422 34.2863Z" fill="black"/>
<path d="M47.5598 83.8671V68.115C47.5554 65.4916 46.8635 62.9147 45.5523 60.639C44.2411 58.3632 42.356 56.4674 40.0833 55.1387L25.2312 46.4599C25.1303 46.4098 25.0127 46.3763 24.9119 46.3262L17.5699 25.2731C17.1431 23.5788 16.0838 22.11 14.6075 21.1656C13.1311 20.2213 11.3487 19.8722 9.62296 20.1896C8.11689 20.5099 6.76603 21.3328 5.7943 22.522C4.82258 23.7112 4.28836 25.1952 4.28021 26.7279C4.27978 27.0241 4.29661 27.32 4.33062 27.6142C3.30032 28.1982 2.44268 29.0419 1.84398 30.0605C1.24527 31.0791 0.926591 32.2367 0.919998 33.4168C0.923261 34.003 0.996581 34.5868 1.13841 35.1558L8.44688 62.279C8.86453 63.874 9.75428 65.3072 11.0006 66.3926L22.3414 76.4425C22.8728 76.9131 23.2987 77.4899 23.591 78.1353C23.8834 78.7808 24.0358 79.4803 24.0383 80.1883V83.8671C23.5927 83.8671 23.1653 84.0433 22.8503 84.3569C22.5352 84.6705 22.3582 85.0958 22.3582 85.5393V98.9169C22.3582 99.3604 22.5352 99.7858 22.8503 100.099C23.1653 100.413 23.5927 100.589 24.0383 100.589H47.5598C48.0054 100.589 48.4327 100.413 48.7478 100.099C49.0629 99.7858 49.2399 99.3604 49.2399 98.9169V85.5393C49.2399 85.0958 49.0629 84.6705 48.7478 84.3569C48.4327 84.0433 48.0054 83.8671 47.5598 83.8671ZM7.64043 26.7279C7.6425 25.9645 7.90696 25.2247 8.38986 24.6315C8.87276 24.0384 9.54504 23.6275 10.295 23.4671C11.2017 23.3362 12.1246 23.5512 12.8787 24.0691C13.6327 24.587 14.1622 25.3695 14.3609 26.2597L21.1149 45.6406C20.3341 45.7262 19.5732 45.9409 18.8635 46.276L14.2096 31.9619C13.8309 30.5025 12.9849 29.2055 11.7997 28.2672C10.6144 27.3289 9.15438 26.8003 7.64043 26.7614V26.7279ZM24.5759 73.9342L13.2184 63.8843C12.4809 63.232 11.9546 62.3765 11.7063 61.4262L4.38102 34.2863C4.31147 34.0017 4.27761 33.7096 4.28021 33.4168C4.28229 32.6533 4.54674 31.9135 5.02964 31.3203C5.51254 30.7272 6.18482 30.3163 6.93478 30.156C7.83509 30.0215 8.75317 30.2313 9.50437 30.7432C10.2556 31.255 10.7842 32.031 10.9838 32.9151L16.1418 48.7676L16.041 48.9181C15.1532 50.4523 14.9116 52.2739 15.3689 53.9848C15.5939 54.8365 15.9877 55.6347 16.5273 56.3326C17.0669 57.0304 17.7412 57.6138 18.5107 58.0483L28.1377 63.5833C28.5217 63.7832 28.9685 63.8277 29.3846 63.7076C29.8008 63.5874 30.1542 63.3118 30.3711 62.9384C30.588 62.565 30.6515 62.1227 30.5484 61.7037C30.4453 61.2848 30.1836 60.9218 29.8179 60.6904L20.1908 55.1554C19.8069 54.938 19.4698 54.6474 19.1988 54.3002C18.9278 53.953 18.7282 53.556 18.6115 53.132C18.3908 52.2733 18.5112 51.3629 18.9476 50.5903C19.1671 50.2093 19.4599 49.875 19.8092 49.6066C20.1585 49.3382 20.5575 49.141 20.9834 49.0261C21.4093 48.9111 21.8538 48.8809 22.2915 48.9369C22.7292 48.993 23.1515 49.1343 23.5342 49.3528L38.3864 58.0149C40.1504 59.054 41.6134 60.531 42.6323 62.3013C43.6512 64.0716 44.1912 66.0748 44.1996 68.115V83.8671H27.3985V80.1883C27.3956 79.007 27.1428 77.8396 26.6565 76.762C26.1702 75.6845 25.4613 74.721 24.5759 73.9342ZM45.8797 97.2447H25.7184V87.2115H45.8797V97.2447Z" fill="black"/>
<path d="M74.6885 5.49431C73.1288 3.93922 71.2763 2.70553 69.237 1.86384C67.1976 1.02215 65.0116 0.588987 62.8039 0.589142C60.5962 0.589297 58.4102 1.02277 56.371 1.86474C54.3318 2.70672 52.4795 3.94067 50.92 5.49598C49.3607 3.94063 47.5084 2.70667 45.4693 1.86473C43.4302 1.0228 41.2442 0.589426 39.0366 0.589426C36.829 0.589426 34.643 1.0228 32.6039 1.86473C30.5648 2.70667 28.7125 3.94063 27.1532 5.49598C24.0086 8.6325 22.2426 12.8825 22.2426 17.3134C22.2426 21.7444 24.0086 25.9944 27.1532 29.1309L49.7338 51.6053C50.0489 51.9188 50.4762 52.0949 50.9217 52.0949C51.3672 52.0949 51.7945 51.9188 52.1095 51.6053L74.6902 29.1309C77.8346 25.9939 79.6004 21.7435 79.6001 17.3123C79.5998 12.881 77.8334 8.63089 74.6885 5.49431ZM50.92 48.0586L29.5272 26.7664C27.6491 24.8946 26.3707 22.5105 25.8537 19.9156C25.3366 17.3208 25.6042 14.6316 26.6225 12.1881C27.6409 9.74453 29.3642 7.65634 31.5748 6.18749C33.7853 4.71863 36.3837 3.93506 39.0416 3.93582C40.8072 3.92978 42.5564 4.27371 44.187 4.94753C45.8177 5.62135 47.2972 6.61159 48.5393 7.86048L49.7322 9.04774C50.0472 9.36123 50.4745 9.53734 50.92 9.53734C51.3655 9.53734 51.7928 9.36123 52.1078 9.04774L53.3041 7.85713C54.5514 6.61344 56.0329 5.62675 57.6638 4.95354C59.2946 4.28034 61.0429 3.93382 62.8084 3.93382C64.574 3.93382 66.3223 4.28034 67.9531 4.95354C69.584 5.62675 71.0655 6.61344 72.3128 7.85713C74.8295 10.3654 76.2431 13.7653 76.2431 17.3101C76.2431 20.8549 74.8295 24.2548 72.3128 26.7631L50.92 48.0586Z" fill="#E65402"/>
</svg>
