<svg id="Capa_1" enable-background="new 0 0 512 512" height="512" viewBox="0 0 512 512" width="512" xmlns="http://www.w3.org/2000/svg"><g><g><path d="m456.132 464.719c4.143 0 7.5-3.357 7.5-7.5v-45.733h7.268c4.143 0 7.5-3.357 7.5-7.5s-3.357-7.5-7.5-7.5h-29.395c-4.143 0-7.5 3.357-7.5 7.5s3.357 7.5 7.5 7.5h7.126v45.733c.001 4.143 3.358 7.5 7.501 7.5z"/><path d="m418.648 417.619c0-11.763-9.926-21.333-22.126-21.333h-14.144c-4.037-.079-7.568 3.474-7.502 7.498v53.234c0 4.143 3.357 7.5 7.5 7.5s7.5-3.357 7.5-7.5v-12.807l15.641 17.763c1.482 1.685 3.552 2.544 5.632 2.544 1.761 0 3.528-.616 4.953-1.871 3.109-2.737 3.41-7.477.673-10.585l-12.68-14.4c8.483-2.986 14.553-10.844 14.553-20.043zm-22.126-6.333c3.862 0 7.126 2.9 7.126 6.333s-3.264 6.333-7.126 6.333c-1.553 0-4.08.009-6.567.02-.011-2.415-.02-4.853-.02-6.353 0-1.276-.01-3.791-.021-6.333z"/><path d="m251.989 396.286h-14.824c-4.087 0-7.5 3.416-7.5 7.5v53.234c0 4.143 3.357 7.5 7.5 7.5s7.5-3.357 7.5-7.5v-15.665c2.742-.011 5.603-.021 7.324-.021 12.575 0 22.806-10.104 22.806-22.523s-10.23-22.525-22.806-22.525zm0 30.047c-1.709 0-4.538.01-7.264.021-.018-2.824-.032-5.779-.032-7.545 0-1.499-.006-4.556-.012-7.523h7.308c4.231 0 7.806 3.445 7.806 7.523s-3.574 7.524-7.806 7.524z"/><path d="m59.638 449.521c-5.062 0-9.911-2.022-12.974-5.409-2.777-3.072-7.521-3.312-10.593-.534-3.073 2.777-3.312 7.52-.534 10.593 5.858 6.481 14.868 10.351 24.101 10.351 11.634 0 21.407-7.452 23.239-17.72 1.384-7.758-2.099-17.877-16.02-23.007-6.394-2.362-12.36-4.938-14.329-5.802-.993-.854-1.009-1.985-.917-2.62.112-.774.689-2.671 3.649-3.555 7.04-2.134 13.658 3.064 13.856 3.222 3.172 2.623 7.87 2.199 10.521-.958 2.664-3.172 2.252-7.902-.92-10.566-.517-.434-12.832-10.576-27.775-6.063-7.67 2.291-13.104 8.336-14.179 15.775-1.014 7.009 2.022 13.75 7.923 17.594.327.213.671.4 1.028.561.309.139 7.666 3.427 15.948 6.485 1.666.614 7.055 2.883 6.444 6.3-.456 2.573-3.826 5.353-8.468 5.353z"/><path d="m105.019 396.286c-4.143 0-7.5 3.357-7.5 7.5v36.624c0 8.376 3.985 15.151 11.799 20.107 4.119 2.656 8.786 4.003 13.87 4.003 4.378 0 8.474-.949 12.166-2.817 11.699-5.903 14.155-14.854 14.155-21.321v-36.596c0-4.143-3.357-7.5-7.5-7.5s-7.5 3.357-7.5 7.5v36.596c0 2.446-.702 5.301-5.92 7.934-1.603.811-3.369 1.205-5.401 1.205-2.184 0-4.062-.526-5.789-1.64-4.063-2.578-4.88-4.77-4.88-7.471v-36.624c0-4.142-3.358-7.5-7.5-7.5z"/><path d="m176.591 396.286c-4.087 0-7.5 3.416-7.5 7.5v53.234c0 4.143 3.357 7.5 7.5 7.5s7.5-3.357 7.5-7.5v-15.665c2.744-.011 5.605-.021 7.324-.021 12.575 0 22.806-10.104 22.806-22.523s-10.23-22.523-22.806-22.523zm22.631 22.524c0 4.078-3.574 7.523-7.806 7.523-1.709 0-4.543.01-7.274.021-.012-2.825-.021-5.779-.021-7.545 0-1.499-.006-4.556-.012-7.523h7.308c4.231 0 7.805 3.446 7.805 7.524z"/><path d="m356.373 430.403c0-18.812-15.304-34.118-34.116-34.118s-34.117 15.305-34.117 34.118 15.305 34.117 34.117 34.117 34.116-15.304 34.116-34.117zm-53.232 0c0-10.541 8.575-19.117 19.116-19.117 10.54 0 19.115 8.576 19.115 19.117s-8.575 19.116-19.115 19.116c-10.541.002-19.116-8.574-19.116-19.116z"/><path d="m479.487 349.033h-59.593v-32.694c0-21.759-10.023-41.499-29.794-58.669-3.127-2.716-7.865-2.383-10.58.744-2.717 3.127-2.383 7.864.744 10.58 16.343 14.194 24.629 30.124 24.629 47.345v32.694h-109.735l-8.093-44.683 9.431-20.058c1.458.813 2.897 1.755 4.426 2.43 3.579 1.579 7.898.047 9.688-3.423l21.738-42.113c7.099 2.877 14.489 6.253 21.782 10.183 1.132.609 2.35.899 3.551.898 2.67 0 5.254-1.429 6.609-3.943 1.965-3.646.602-8.195-3.045-10.16-18.145-9.776-36.757-16.31-50.65-20.365v-20.154c1.985-1.51 3.924-3.089 5.812-4.733h21.014c17.733 0 32.161-14.44 32.161-32.19v-16.445c11.496-2.867 20.04-13.277 20.04-25.649v-17.065c0-14.592-11.858-26.465-26.436-26.465h-11.479c-.336-30.19-23.33-57.414-58.791-69.484-14.989-5.104-30.862-6.805-44.698-4.781-14.443 2.108-26.293 8.062-34.484 17.286-15.403 2.406-37.268 13.573-39.933 56.98h-10.42c-14.576 0-26.436 11.872-26.436 26.465v17.063c0 14.576 11.858 26.436 26.436 26.436h13.177c5.942 19.451 20.158 38.925 38.111 52.575v20.166c-5.837 1.71-12.891 3.976-20.562 6.849-.184.062-.368.13-.549.207-14.08 5.306-30.183 12.651-44.678 22.391-28.872 19.399-43.511 42.645-43.511 69.089v32.694h-72.856c-17.921 0-32.501 14.58-32.501 32.502v97.964c0 17.921 14.579 32.502 32.501 32.502h210.491c4.143 0 7.5-3.357 7.5-7.5s-3.357-7.5-7.5-7.5h-210.491c-9.649 0-17.5-7.851-17.5-17.501v-97.964c0-9.65 7.851-17.501 17.5-17.501h446.976c9.649 0 17.5 7.851 17.5 17.501v97.964c0 9.65-7.851 17.501-17.5 17.501h-201.253c-4.143 0-7.5 3.357-7.5 7.5s3.357 7.5 7.5 7.5h201.251c17.921 0 32.501-14.58 32.501-32.502v-97.964c0-17.923-14.579-32.503-32.501-32.503zm-259.067-117.277 28.976 23.883-24.938 13.899-17.355-33.584c5.051-1.73 9.586-3.125 13.317-4.198zm31.856 79.072h20.717l6.92 38.205h-34.538zm22.219-15h-23.72l-8.847-18.853 20.718-11.547 20.715 11.544zm26.339-26.292-24.94-13.899 28.957-23.882c4.039 1.153 8.529 2.533 13.336 4.168zm36.588-91.628h-6.624c8.174-10.191 14.449-21.521 17.908-32.849h5.875v15.658c.001 9.48-7.697 17.191-17.159 17.191zm37.2-76.346v17.063c0 6.305-5.13 11.435-11.435 11.435h-11.625c.096-1.344.162-2.682.162-4.008v-21.004-14.95h11.463c6.305 0 11.435 5.142 11.435 11.464zm-156.355-68.894c2.088-.185 4.004-1.234 5.282-2.895 13.455-17.476 42.107-17.595 64.534-9.961 22.438 7.638 48.641 26.876 48.641 55.954v21.781h-12.767c-20.211 0-36.659-7.998-51.17-15.054-12.327-5.995-24.21-11.773-36.491-11.773-6.728 0-13.576 1.736-20.679 6.122-12.268 7.585-13.793 8.723-19.834 13.491-1.775 1.401-4.02 3.173-7.224 5.635l.01-7.9c0-.374-.008-.871-.017-1.478-.365-23.368 4.492-51.692 29.715-53.922zm-54.885 97.393c-6.305 0-11.435-5.13-11.435-11.435v-17.063c0-6.321 5.13-11.464 11.435-11.464h10.184l-.026 20.922v.004.005 15.023c0 1.326.066 2.664.161 4.008zm25.159-4.009v-11.259c8.735-6.529 13.371-10.188 16.536-12.686 5.511-4.35 6.504-5.134 18.425-12.505 12.437-7.681 23.767-2.837 42.726 6.381 15.967 7.765 34.064 16.564 57.73 16.564h12.767v13.504c0 17.145-10.647 36.891-26.106 51.856h-42.587c-4.143 0-7.5 3.357-7.5 7.5s3.357 7.5 7.5 7.5h22.435c-3.265 1.787-6.605 3.344-9.997 4.603-6.681 2.483-12.345 3.641-17.823 3.641-5.504 0-11.164-1.155-17.83-3.643-29.979-11.11-56.276-44.502-56.276-71.456zm51.047 85.516c8.381 3.128 15.708 4.584 23.059 4.584 7.319 0 14.644-1.455 23.045-4.579 3.357-1.245 6.665-2.718 9.903-4.393v12.76l-32.951 27.179-32.975-27.18v-12.769c3.245 1.678 6.558 3.152 9.919 4.398zm-119.218 104.771c0-38.103 40.547-62.094 72.578-75.098l21.736 42.061c1.793 3.467 6.108 4.998 9.687 3.42 1.527-.673 2.964-1.615 4.42-2.426l9.41 20.053-8.071 44.685h-109.76z"/></g></g></svg>