<svg width="200" height="200" viewBox="0 0 200 200" fill="none" xmlns="http://www.w3.org/2000/svg">
<path d="M190.625 62.5C187.311 62.4963 184.134 61.1781 181.79 58.8347C179.447 56.4913 178.129 53.3141 178.125 50C178.125 49.1712 177.796 48.3763 177.21 47.7903C176.624 47.2042 175.829 46.875 175 46.875C174.171 46.875 173.376 47.2042 172.79 47.7903C172.204 48.3763 171.875 49.1712 171.875 50C171.871 53.3141 170.553 56.4913 168.21 58.8347C165.866 61.1781 162.689 62.4963 159.375 62.5C158.546 62.5 157.751 62.8292 157.165 63.4153C156.579 64.0013 156.25 64.7962 156.25 65.625C156.25 66.4538 156.579 67.2487 157.165 67.8347C157.751 68.4208 158.546 68.75 159.375 68.75C162.689 68.7537 165.866 70.0719 168.21 72.4153C170.553 74.7587 171.871 77.9359 171.875 81.25C171.875 82.0788 172.204 82.8737 172.79 83.4597C173.376 84.0458 174.171 84.375 175 84.375C175.829 84.375 176.624 84.0458 177.21 83.4597C177.796 82.8737 178.125 82.0788 178.125 81.25C178.129 77.9359 179.447 74.7587 181.79 72.4153C184.134 70.0719 187.311 68.7537 190.625 68.75C191.454 68.75 192.249 68.4208 192.835 67.8347C193.421 67.2487 193.75 66.4538 193.75 65.625C193.75 64.7962 193.421 64.0013 192.835 63.4153C192.249 62.8292 191.454 62.5 190.625 62.5ZM175 70.8957C173.61 68.8064 171.819 67.0147 169.729 65.625C171.819 64.2353 173.61 62.4436 175 60.3543C176.39 62.4436 178.181 64.2353 180.271 65.625C178.181 67.0147 176.39 68.8064 175 70.8957ZM31.25 40.625C36.2211 40.6306 40.987 42.6078 44.5021 46.1229C48.0172 49.638 49.9944 54.4039 50 59.375C50 60.2038 50.3292 60.9987 50.9153 61.5847C51.5013 62.1708 52.2962 62.5 53.125 62.5C53.9538 62.5 54.7487 62.1708 55.3347 61.5847C55.9208 60.9987 56.25 60.2038 56.25 59.375C56.2556 54.4039 58.2328 49.638 61.7479 46.1229C65.263 42.6078 70.0289 40.6306 75 40.625C75.8288 40.625 76.6237 40.2958 77.2097 39.7097C77.7958 39.1237 78.125 38.3288 78.125 37.5C78.125 36.6712 77.7958 35.8763 77.2097 35.2903C76.6237 34.7042 75.8288 34.375 75 34.375C70.0289 34.3694 65.263 32.3922 61.7479 28.8771C58.2328 25.362 56.2556 20.5961 56.25 15.625C56.25 14.7962 55.9208 14.0013 55.3347 13.4153C54.7487 12.8292 53.9538 12.5 53.125 12.5C52.2962 12.5 51.5013 12.8292 50.9153 13.4153C50.3292 14.0013 50 14.7962 50 15.625C49.9944 20.5961 48.0172 25.362 44.5021 28.8771C40.987 32.3922 36.2211 34.3694 31.25 34.375C30.4212 34.375 29.6263 34.7042 29.0403 35.2903C28.4542 35.8763 28.125 36.6712 28.125 37.5C28.125 38.3288 28.4542 39.1237 29.0403 39.7097C29.6263 40.2958 30.4212 40.625 31.25 40.625ZM53.125 27.7195C55.4086 31.8285 58.7965 35.2164 62.9055 37.5C58.7965 39.7836 55.4086 43.1715 53.125 47.2805C50.8414 43.1715 47.4535 39.7836 43.3445 37.5C47.4535 35.2164 50.8414 31.8285 53.125 27.7195Z" fill="#E65402"/>
<path d="M160.827 103.282C159.371 101.835 158.217 100.113 157.432 98.2162C156.646 96.3198 156.244 94.2863 156.25 92.2336V90.625C156.268 83.6748 154.726 76.8091 151.737 70.534C151.484 70.0001 151.084 69.5491 150.584 69.2334C150.085 68.9176 149.506 68.75 148.915 68.75H139.752L144.957 53.1348C145.373 51.8905 146.045 50.7472 146.93 49.7785C147.814 48.8098 148.892 48.0372 150.094 47.5105L195.003 27.8629L192.497 22.1371L147.589 41.7848C145.586 42.6625 143.79 43.9502 142.315 45.5647C140.841 47.1792 139.721 49.0848 139.028 51.1586L129.579 79.5055L129.175 79.2355C127.889 78.3807 126.835 77.221 126.107 75.86C125.379 74.499 124.998 72.9788 125 71.4352V56.25C125 55.5103 124.738 54.7945 124.259 54.2301C123.781 53.6657 123.118 53.2892 122.389 53.1676L103.639 50.0426C103.183 49.9666 102.716 49.9927 102.271 50.119C101.826 50.2453 101.415 50.4687 101.067 50.773L80.9875 68.343C79.8485 69.3393 78.4854 70.0452 77.0144 70.4003C75.5434 70.7554 74.0083 70.7493 72.5402 70.3824L70.877 69.9668L85.9746 49.2074C90.1234 43.4905 96.2764 39.5493 103.204 38.1711L119.802 34.8516C122.013 34.406 124.102 33.4902 125.928 32.1664L158.088 8.77734L154.412 3.72266L122.252 27.1117C121.156 27.906 119.903 28.4554 118.577 28.7227L101.979 32.0422C93.5114 33.7267 85.9911 38.5439 80.9203 45.5312L64.0332 68.75H53.125V68.7527C52.5297 68.7486 51.9459 68.9163 51.4436 69.2357C50.9412 69.5552 50.5417 70.0127 50.293 70.5535L6.54297 164.304C6.32073 164.78 6.22219 165.304 6.25646 165.829C6.29073 166.353 6.4567 166.861 6.73902 167.304C7.02135 167.747 7.4109 168.112 7.87165 168.365C8.3324 168.618 8.84946 168.75 9.375 168.75C9.4612 168.75 9.54792 168.746 9.63516 168.739L16.007 168.208C23.8696 167.555 31.5196 165.322 38.499 161.643C45.4783 157.964 51.6436 152.914 56.6258 146.797C57.1205 147.443 57.632 148.077 58.1598 148.696L61.8633 153.018C64.2899 155.85 65.6241 159.456 65.625 163.186V193.75H71.875V163.186C71.8737 157.965 70.006 152.916 66.609 148.95L62.9055 144.629C62.0459 143.622 61.2361 142.574 60.4789 141.488C61.6319 139.704 62.6869 137.859 63.6391 135.96L64.0914 135.055C68.8329 125.571 70.9177 114.979 70.1245 104.406C69.3312 93.8321 65.6895 83.6705 59.5859 75H65.2406L71.0246 76.4461C72.4818 76.8088 73.9838 76.9592 75.484 76.8926C72.2758 82.589 71.158 89.2271 72.3237 95.6601C73.4894 102.093 76.8654 107.917 81.8684 112.125C83.6258 113.595 85.0405 115.432 86.0133 117.506C86.9862 119.58 87.4936 121.842 87.5 124.133V134.375C87.5 135.204 87.8292 135.999 88.4153 136.585C89.0013 137.171 89.7962 137.5 90.625 137.5H109.375C110.204 137.5 110.999 137.171 111.585 136.585C112.171 135.999 112.5 135.204 112.5 134.375V124.134C112.508 121.841 113.016 119.578 113.991 117.502C114.965 115.427 116.381 113.59 118.14 112.119C121.27 109.481 123.786 106.19 125.511 102.477C127.236 98.764 128.128 94.719 128.125 90.625C128.123 88.9964 127.982 87.371 127.703 85.7664L129.517 86.975C129.917 87.2415 130.372 87.4122 130.849 87.4738C131.325 87.5355 131.81 87.4864 132.264 87.3305C132.719 87.1746 133.131 86.916 133.469 86.5748C133.807 86.2336 134.062 85.8191 134.214 85.3633L137.669 75H146.888C148.956 79.9491 150.014 85.2614 150 90.625V92.2336C149.992 95.1074 150.554 97.9543 151.654 100.609C152.754 103.264 154.369 105.675 156.407 107.702L162.154 113.449C162.539 113.834 162.817 114.312 162.96 114.837C163.103 115.362 163.106 115.916 162.97 116.442C162.833 116.969 162.561 117.451 162.181 117.841C161.801 118.23 161.326 118.514 160.803 118.663L149.141 121.995C148.488 122.182 147.914 122.576 147.505 123.118C147.096 123.66 146.875 124.321 146.875 125V133.361C146.878 136.641 145.847 139.838 143.929 142.499C142.011 145.16 139.304 147.15 136.191 148.184L129.434 150.436C126.321 151.471 123.613 153.46 121.696 156.121C119.778 158.782 118.747 161.979 118.75 165.259V193.75H125V165.259C124.998 163.291 125.617 161.373 126.767 159.776C127.918 158.18 129.543 156.986 131.41 156.366L138.167 154.113C142.525 152.665 146.316 149.88 149.001 146.155C151.686 142.43 153.129 137.953 153.125 133.361V127.357L162.52 124.673C164.09 124.225 165.516 123.374 166.656 122.205C167.796 121.037 168.611 119.591 169.02 118.01C169.43 116.43 169.419 114.77 168.99 113.195C168.561 111.62 167.728 110.184 166.574 109.029L160.827 103.282ZM58.5016 132.259L58.0488 133.164C54.0231 141.215 47.9933 148.095 40.5393 153.142C33.0853 158.189 24.4581 161.232 15.4875 161.98L14.4859 162.063L53.8445 77.7227C59.5652 85.5038 63.027 94.7129 63.8487 104.336C64.6704 113.958 62.8201 123.621 58.5016 132.259ZM104.07 56.4508L118.75 58.8973V69.6723C113.265 64.7249 106.04 62.1565 98.6633 62.5312C98.0918 62.5574 97.5266 62.6074 96.9641 62.668L104.07 56.4508ZM106.25 131.25H93.75V124.134C93.7488 123.379 93.7084 122.625 93.6289 121.875H106.371C106.292 122.625 106.251 123.379 106.25 124.134V131.25ZM94.1 88.9395L100 85.0059L105.9 88.9395L100.563 115.625H99.4371L94.1 88.9395ZM114.107 107.345C111.447 109.587 109.352 112.424 107.991 115.625H106.937L112.439 88.1129C112.561 87.5057 112.499 86.8762 112.262 86.3041C112.025 85.7321 111.623 85.2434 111.108 84.9L101.733 78.65C101.22 78.3077 100.617 78.125 99.9998 78.125C99.3828 78.125 98.7797 78.3077 98.2664 78.65L88.8914 84.9C88.3762 85.2435 87.9747 85.7322 87.7378 86.3042C87.5008 86.8762 87.4391 87.5058 87.5606 88.1129L93.0633 115.625H92.0109C90.6514 112.425 88.5577 109.59 85.8992 107.349C82.4708 104.458 80.0137 100.584 78.8607 96.2502C77.7076 91.9166 77.9143 87.3332 79.4528 83.121C80.9913 78.9087 83.7872 75.271 87.4619 72.7006C91.1365 70.1302 95.5124 68.7513 99.9969 68.7506C104.481 68.75 108.858 70.1275 112.533 72.6968C116.209 75.2661 119.006 78.9029 120.545 83.1147C122.085 87.3265 122.293 91.9098 121.141 96.2438C119.99 100.578 117.534 104.453 114.107 107.345Z" fill="black"/>
<path d="M123.839 118.527L126.161 112.723L141.786 118.973L139.464 124.776L123.839 118.527ZM116.875 133.75L120.625 128.75L133.125 138.125L129.375 143.125L116.875 133.75ZM103.348 144.91L109.152 142.589L115.402 158.214L109.598 160.536L103.348 144.91ZM84.598 158.215L90.848 142.59L96.6512 144.911L90.4012 160.536L84.598 158.215ZM66.875 141.25L79.375 131.875L83.125 136.875L70.625 146.25L66.875 141.25Z" fill="#E65402"/>
</svg>
