<svg clip-rule="evenodd" fill-rule="evenodd" height="1.707in" image-rendering="optimizeQuality" shape-rendering="geometricPrecision" text-rendering="geometricPrecision" viewBox="0 0 1707 1707" width="1.707in" xmlns="http://www.w3.org/2000/svg"><g id="Layer_x0020_1"><path d="m1663 1707h-1620c-51 0-51-78 0-78h1620c52 0 52 78 0 78z"/><path d="m1145 1668v-1018c0-41 34-74 74-74h203c41 0 74 33 74 74v1018c0 10-351 25-351 0z"/><path d="m834 1668v-795c0-41 33-74 74-74h199v869 5c-133 10-273-3-273-5z"/><path d="m795 1669c-84 2-273 7-273-1v-636c0-40 33-73 74-73h199v709z"/><path d="m230 1687c-10 0-19-8-19-19v-381c0-40 33-73 74-73h198v454c0 1 0 2 1 3-153-7-209 16-254 16z"/><path d="m845 508h-155c-51 0-51-78 0-78h296c8 0 16 1 23 6 21 12 26 38 13 56l-148 256c-7 12-20 20-34 20-30 0-48-33-33-58l77-134-658 379c-5 4-12 5-19 5-40 0-54-52-19-72z"/><path d="m1469 292h-133v-40-121s0-1 0-2h133c18 0 32 15 32 32v99c0 18-14 32-32 32zm-172-40v40h-50v-40-121s0-1 0-2h50v2zm-89 0v40h-133c-18 0-32-14-32-32v-99c0-17 14-32 32-32h133v2z"/><path d="m1430 536h-94s0-1 0-2v-203h133c3 0 6 0 9-1v158c0 27-21 48-48 48zm-133 0h-50s0-1 0-2v-203h50v203zm-89 0h-94c-27 0-48-21-48-48v-158c3 1 6 1 9 1h133v203z"/><path d="m1142 90-2-2c-39-67 63-125 101-59 5 9 24 39 36 61z"/><path d="m1267 90 36-61c38-66 140-8 101 59l-2 2z"/></g></svg>