<svg width="124" height="124" viewBox="0 0 124 124" fill="none" xmlns="http://www.w3.org/2000/svg">
<g clip-path="url(#clip0_41_340)">
<path d="M76.104 103.675H74.012C73.4816 103.675 72.9729 103.464 72.5978 103.089C72.2227 102.714 72.012 102.205 72.012 101.675C72.012 101.145 72.2227 100.636 72.5978 100.261C72.9729 99.8857 73.4816 99.675 74.012 99.675H76.104C76.6344 99.675 77.1431 99.8857 77.5182 100.261C77.8933 100.636 78.104 101.145 78.104 101.675C78.104 102.205 77.8933 102.714 77.5182 103.089C77.1431 103.464 76.6344 103.675 76.104 103.675ZM95.312 113.838H90.03C89.4996 113.838 88.9909 113.627 88.6158 113.252C88.2407 112.877 88.03 112.368 88.03 111.838C88.03 111.308 88.2407 110.799 88.6158 110.424C88.9909 110.049 89.4996 109.838 90.03 109.838H95.312C95.8424 109.838 96.3511 110.049 96.7262 110.424C97.1013 110.799 97.312 111.308 97.312 111.838C97.312 112.368 97.1013 112.877 96.7262 113.252C96.3511 113.627 95.8424 113.838 95.312 113.838ZM79.95 113.838H74.668C74.1376 113.838 73.6289 113.627 73.2538 113.252C72.8787 112.877 72.668 112.368 72.668 111.838C72.668 111.308 72.8787 110.799 73.2538 110.424C73.6289 110.049 74.1376 109.838 74.668 109.838H79.95C80.4804 109.838 80.9891 110.049 81.3642 110.424C81.7393 110.799 81.95 111.308 81.95 111.838C81.95 112.368 81.7393 112.877 81.3642 113.252C80.9891 113.627 80.4804 113.838 79.95 113.838ZM64.589 113.838H59.307C58.7766 113.838 58.2679 113.627 57.8928 113.252C57.5177 112.877 57.307 112.368 57.307 111.838C57.307 111.308 57.5177 110.799 57.8928 110.424C58.2679 110.049 58.7766 109.838 59.307 109.838H64.589C65.1194 109.838 65.6281 110.049 66.0032 110.424C66.3783 110.799 66.589 111.308 66.589 111.838C66.589 112.368 66.3783 112.877 66.0032 113.252C65.6281 113.627 65.1194 113.838 64.589 113.838ZM49.227 113.838H43.945C43.4146 113.838 42.9059 113.627 42.5308 113.252C42.1557 112.877 41.945 112.368 41.945 111.838C41.945 111.308 42.1557 110.799 42.5308 110.424C42.9059 110.049 43.4146 109.838 43.945 109.838H49.227C49.7574 109.838 50.2661 110.049 50.6412 110.424C51.0163 110.799 51.227 111.308 51.227 111.838C51.227 112.368 51.0163 112.877 50.6412 113.252C50.2661 113.627 49.7574 113.838 49.227 113.838ZM33.865 113.838H28.583C28.0526 113.838 27.5439 113.627 27.1688 113.252C26.7937 112.877 26.583 112.368 26.583 111.838C26.583 111.308 26.7937 110.799 27.1688 110.424C27.5439 110.049 28.0526 109.838 28.583 109.838H33.865C34.3954 109.838 34.9041 110.049 35.2792 110.424C35.6543 110.799 35.865 111.308 35.865 111.838C35.865 112.368 35.6543 112.877 35.2792 113.252C34.9041 113.627 34.3954 113.838 33.865 113.838ZM116.947 62.64C116.684 62.64 116.423 62.5882 116.18 62.4877C115.938 62.3871 115.717 62.2397 115.531 62.0539C115.346 61.868 115.198 61.6474 115.098 61.4047C114.998 61.1619 114.946 60.9017 114.946 60.639L114.947 59.069C114.947 58.8064 114.999 58.5463 115.1 58.3037C115.2 58.0611 115.348 57.8407 115.533 57.6551C115.719 57.4695 115.94 57.3222 116.183 57.2219C116.425 57.1215 116.685 57.0699 116.948 57.07C118.054 57.07 118.95 57.966 118.949 59.071L118.948 60.641C118.948 60.9036 118.896 61.1637 118.795 61.4063C118.695 61.6489 118.547 61.8693 118.362 62.0549C118.176 62.2405 117.955 62.3878 117.712 62.4881C117.47 62.5885 117.21 62.6401 116.947 62.64Z" fill="black"/>
<path d="M116.945 64.497C116.682 64.4967 116.422 64.5482 116.179 64.6486C115.936 64.7489 115.716 64.8961 115.53 65.0817C115.344 65.2674 115.196 65.4878 115.096 65.7305C114.995 65.9731 114.943 66.2333 114.943 66.496L114.93 109.838H107.12C106.375 104.114 101.476 99.675 95.549 99.675H82.02C81.023 99.675 80.099 100.356 79.939 101.339C79.8904 101.626 79.9051 101.92 79.9819 102.201C80.0587 102.482 80.1959 102.743 80.3838 102.965C80.5717 103.188 80.8059 103.366 81.07 103.489C81.3342 103.612 81.6218 103.675 81.913 103.675H95.06C96.1322 103.675 97.194 103.885 98.1847 104.295C99.1754 104.705 100.076 105.306 100.834 106.064C101.592 106.822 102.194 107.722 102.605 108.713C103.015 109.703 103.227 110.765 103.227 111.837C103.227 116.345 99.57 120 95.059 120H28.835C24.324 120 20.667 116.346 20.667 111.838C20.667 107.33 24.324 103.676 28.835 103.676H68.484C69.481 103.676 70.405 102.995 70.565 102.012C70.6136 101.725 70.599 101.431 70.5221 101.15C70.4453 100.869 70.3081 100.608 70.1202 100.386C69.9323 100.163 69.6981 99.9847 69.434 99.8621C69.1699 99.7395 68.8822 99.676 68.591 99.676H52.218V83.001C52.218 82.7383 52.1662 82.4781 52.0657 82.2354C51.9651 81.9927 51.8177 81.7722 51.6319 81.5864C51.446 81.4007 51.2254 81.2534 50.9827 81.153C50.7399 81.0525 50.4797 81.0009 50.217 81.001H31.392C31.1293 81.0009 30.8691 81.0525 30.6263 81.153C30.3836 81.2534 30.163 81.4007 29.9771 81.5864C29.7913 81.7722 29.6439 81.9927 29.5433 82.2354C29.4428 82.4781 29.391 82.7383 29.391 83.001V99.675C23.591 100.034 17.619 103.348 16.774 109.838H8.965V38.716C10.1072 38.3803 11.1454 37.7596 11.9819 36.9125C12.8184 36.0653 13.4258 35.0194 13.747 33.873H39.229V48.019C37.9814 48.3936 36.8627 49.1081 35.9982 50.0825C35.1337 51.0569 34.5574 52.2527 34.334 53.536L27.367 57.961C27.0827 58.1415 26.8486 58.3908 26.6864 58.6859C26.5242 58.981 26.4391 59.3123 26.439 59.649V71.156C26.439 71.4187 26.4908 71.6789 26.5913 71.9216C26.6919 72.1643 26.8393 72.3848 27.0251 72.5706C27.211 72.7563 27.4316 72.9036 27.6743 73.004C27.9171 73.1045 28.1773 73.1561 28.44 73.156H54.018C54.2807 73.1561 54.5409 73.1045 54.7837 73.004C55.0264 72.9036 55.247 72.7563 55.4329 72.5706C55.6187 72.3848 55.7661 72.1643 55.8667 71.9216C55.9672 71.6789 56.019 71.4187 56.019 71.156V59.648C56.0189 59.3113 55.9338 58.98 55.7716 58.6849C55.6094 58.3898 55.3753 58.1405 55.091 57.96L48.124 53.535C47.9007 52.2518 47.3246 51.0561 46.4602 50.0817C45.5959 49.1073 44.4774 48.3928 43.23 48.018V31.873C43.23 31.6103 43.1782 31.3501 43.0777 31.1074C42.9771 30.8647 42.8297 30.6442 42.6439 30.4584C42.458 30.2727 42.2374 30.1254 41.9947 30.025C41.7519 29.9245 41.4917 29.8729 41.229 29.873H13.676C13.1503 28.2337 12.0405 26.8448 10.5575 25.9704C9.07451 25.0961 7.32189 24.7973 5.633 25.131C2.872 25.657 0.647 27.887 0.127 30.648C-0.204241 32.3497 0.106567 34.1138 0.999445 35.5998C1.89232 37.0859 3.30398 38.1885 4.962 38.695V111.838C4.962 112.101 5.01376 112.361 5.11434 112.604C5.21491 112.846 5.36232 113.067 5.54814 113.253C5.73396 113.438 5.95456 113.586 6.19733 113.686C6.44009 113.786 6.70027 113.838 6.963 113.838H16.773C17.519 119.562 22.418 124 28.345 124H95.55C101.477 124 106.376 119.562 107.121 113.838H116.931C117.194 113.838 117.454 113.787 117.696 113.686C117.939 113.586 118.16 113.439 118.346 113.253C118.531 113.067 118.679 112.847 118.779 112.604C118.88 112.362 118.932 112.102 118.932 111.839L118.946 66.497C118.946 66.2343 118.894 65.9741 118.794 65.7314C118.693 65.4887 118.546 65.2682 118.36 65.0824C118.174 64.8967 117.953 64.7494 117.711 64.649C117.468 64.5485 117.208 64.4969 116.945 64.497ZM39.554 85.001H42.054V88.124H39.554V85.001ZM33.393 85.001H35.551V90.124C35.551 90.3867 35.6028 90.6469 35.7033 90.8896C35.8039 91.1323 35.9513 91.3528 36.1371 91.5386C36.323 91.7243 36.5436 91.8716 36.7863 91.972C37.0291 92.0725 37.2893 92.1241 37.552 92.124H44.055C44.3177 92.1241 44.5779 92.0725 44.8207 91.972C45.0634 91.8716 45.284 91.7243 45.4699 91.5386C45.6557 91.3528 45.8031 91.1323 45.9037 90.8896C46.0042 90.6469 46.056 90.3867 46.056 90.124V85.001H48.214V99.675H33.393V85.001ZM52.018 69.155H30.443V60.747L34.98 57.865C35.5627 59.0238 36.4556 59.998 37.5592 60.6794C38.6629 61.3607 39.934 61.7223 41.231 61.724C43.962 61.724 46.327 60.15 47.482 57.865L52.019 60.747L52.018 69.155ZM41.231 57.528C39.738 57.528 38.524 56.27 38.524 54.724C38.524 53.178 39.738 51.92 41.231 51.92C42.723 51.92 43.937 53.178 43.937 54.724C43.937 56.27 42.723 57.528 41.231 57.528ZM3.98 32C3.98 30.318 5.337 28.948 7.005 28.948C8.673 28.948 10.03 30.317 10.03 32C10.03 33.683 8.673 35.052 7.005 35.052C5.337 35.052 3.98 33.683 3.98 32Z" fill="black"/>
<path d="M114 58.7687C114 56.6253 111.276 54.8818 107.926 54.8818C105.221 54.8818 102.925 56.0201 102.141 57.5876H78.1568C77.929 57.5875 77.7033 57.6162 77.4928 57.672C77.2823 57.7278 77.0911 57.8096 76.9299 57.9127C76.7688 58.0158 76.641 58.1383 76.5538 58.273C76.4666 58.4078 76.4217 58.5523 76.4217 58.6982V67.6636C75.3401 67.8715 74.3702 68.2682 73.6208 68.8091C72.8713 69.3501 72.3717 70.014 72.1781 70.7264L66.1371 73.1835C65.8906 73.2837 65.6876 73.4222 65.5469 73.586C65.4062 73.7499 65.3324 73.9338 65.3324 74.1208V80.5103C65.3324 81.512 66.8437 81.6253 68.2606 81.6209V90.8895C68.2606 91.0353 68.3055 91.1798 68.3927 91.3146C68.4799 91.4493 68.6077 91.5718 68.7688 91.6749C68.9299 91.7781 69.1212 91.8598 69.3317 91.9156C69.5422 91.9714 69.7678 92.0001 69.9956 92H86.3188C86.5466 92.0001 86.7722 91.9714 86.9827 91.9156C87.1932 91.8598 87.3845 91.7781 87.5456 91.6749C87.7067 91.5718 87.8345 91.4493 87.9217 91.3146C88.0089 91.1798 88.0538 91.0353 88.0538 90.8895V81.6209C89.416 81.6314 90.9699 81.512 90.982 80.5103V74.1208C90.982 73.9338 90.9082 73.7499 90.7675 73.586C90.6268 73.4222 90.4238 73.2837 90.1773 73.1835L84.1363 70.7264C83.9426 70.014 83.443 69.3501 82.6935 68.8092C81.9441 68.2683 80.9743 67.8716 79.8927 67.6636V59.8087H102.079C102.354 60.4379 102.871 61.0127 103.583 61.4806C104.295 61.9484 105.179 62.2942 106.154 62.4862L106.15 70.7403C106.15 71.035 106.333 71.3176 106.658 71.526C106.984 71.7344 107.425 71.8514 107.885 71.8514C108.345 71.8514 108.787 71.7344 109.112 71.526C109.437 71.3176 109.62 71.035 109.62 70.7403L109.625 62.4973C112.15 62.0259 114 60.5339 114 58.7687ZM77.0738 81.6209H79.2424V83.355H77.0738V81.6209ZM84.5837 89.7789H71.7316V81.6209H73.6028V84.4655C73.6028 84.6114 73.6476 84.7559 73.7349 84.8906C73.8221 85.0254 73.9499 85.1479 74.111 85.251C74.2721 85.3541 74.4634 85.4359 74.6739 85.4917C74.8844 85.5475 75.11 85.5761 75.3378 85.5761H80.9766C81.2044 85.5761 81.43 85.5475 81.6405 85.4917C81.851 85.4359 82.0423 85.3541 82.2034 85.251C82.3645 85.1479 82.4923 85.0254 82.5795 84.8906C82.6667 84.7559 82.7116 84.6114 82.7116 84.4655V81.6209H84.5828L84.5837 89.7789ZM87.5119 79.3998H68.8042V74.7311L72.7383 73.1308C73.7389 74.3996 75.7896 75.2736 78.1585 75.2736C80.5274 75.2736 82.5772 74.3996 83.5787 73.1308L87.5128 74.7311L87.5119 79.3998ZM78.1576 72.9436C76.8631 72.9436 75.8104 72.2451 75.8104 71.3867C75.8104 70.5282 76.8631 69.8297 78.1576 69.8297C79.4522 69.8297 80.5049 70.5282 80.5049 71.3867C80.5049 72.2451 79.4522 72.9436 78.1576 72.9436ZM107.926 60.4634C106.48 60.4634 105.303 59.7032 105.303 58.7687C105.303 57.8347 106.48 57.074 107.926 57.074C109.372 57.074 110.549 57.8342 110.549 58.7687C110.549 59.7032 109.373 60.4634 107.926 60.4634ZM73.4085 46.9597C69.8838 44.5437 65.1858 43.2211 60.2044 43.2211C55.2229 43.2211 50.5345 44.5487 47.0011 46.9592C46.686 47.174 46.2508 47.2999 45.7909 47.3094C45.331 47.3189 44.884 47.2111 44.548 47.0097C44.3819 46.9099 44.2481 46.7902 44.1542 46.6573C44.0603 46.5245 44.0082 46.3811 44.0009 46.2353C43.9936 46.0895 44.0311 45.9443 44.1115 45.8078C44.1918 45.6713 44.3134 45.5463 44.4691 45.4399C48.665 42.577 54.2535 41 60.2044 41C66.1553 41 71.7437 42.577 75.9405 45.4405C76.0962 45.5469 76.2178 45.6719 76.2981 45.8084C76.3784 45.9448 76.416 46.0901 76.4087 46.2358C76.4014 46.3816 76.3493 46.525 76.2554 46.6579C76.1615 46.7908 76.0277 46.9105 75.8616 47.0103C75.5269 47.2113 74.2323 47.5244 73.4085 46.9597Z" fill="black"/>
<path d="M72.551 16.671C69.739 13.625 65.952 11.983 61.959 11.983C57.966 11.983 54.204 13.648 51.368 16.67C51.0002 17.0358 50.5048 17.2446 49.9861 17.2523C49.4674 17.26 48.9659 17.0661 48.5874 16.7114C48.2089 16.3567 47.9828 15.869 47.9568 15.3509C47.9308 14.8328 48.1069 14.3248 48.448 13.934C52.049 10.097 56.848 7.983 61.959 7.983C67.071 7.983 71.869 10.096 75.471 13.934C75.6507 14.1256 75.7908 14.3507 75.8835 14.5965C75.9761 14.8422 76.0195 15.1038 76.011 15.3663C76.0026 15.6289 75.9425 15.8871 75.8342 16.1264C75.7259 16.3657 75.5716 16.5814 75.38 16.761C74.994 17.124 73.509 17.708 72.551 16.671Z" fill="#E65402"/>
<path d="M67.917 22.611C66.215 21.01 64.202 19.968 61.959 19.968C59.716 19.968 57.601 20.906 56.002 22.609C55.6384 22.9954 55.1366 23.2219 54.6063 23.2389C54.076 23.256 53.5607 23.0622 53.173 22.7C52.9814 22.5204 52.8271 22.3047 52.7188 22.0654C52.6105 21.8261 52.5505 21.5679 52.542 21.3053C52.5336 21.0428 52.5769 20.7812 52.6695 20.5355C52.7622 20.2897 52.9024 20.0646 53.082 19.873C55.445 17.355 58.598 15.968 61.958 15.968C65.319 15.968 68.472 17.355 70.836 19.874C71.0157 20.0656 71.1558 20.2907 71.2485 20.5365C71.3411 20.7822 71.3845 21.0438 71.376 21.3063C71.3676 21.5689 71.3075 21.8271 71.1992 22.0664C71.0909 22.3057 70.9366 22.5214 70.745 22.701C70.359 23.063 69.172 23.792 67.917 22.611ZM62.459 31.487C60.252 31.487 58.456 29.693 58.456 27.487C58.456 25.281 60.251 23.487 62.459 23.487C64.666 23.487 66.462 25.281 66.462 27.487C66.462 29.693 64.666 31.487 62.459 31.487Z" fill="#E65402"/>
</g>
<defs>
<clipPath id="clip0_41_340">
<rect width="124" height="124" fill="white"/>
</clipPath>
</defs>
</svg>
