<svg width="250" height="250" viewBox="0 0 250 250" fill="none" xmlns="http://www.w3.org/2000/svg">
<path d="M105.479 171.25C103.596 172.301 101.215 171.58 100.162 169.701C99.1113 167.82 99.8301 165.441 101.713 164.393L151.545 136.854C153.428 135.859 155.809 136.521 156.861 138.402C157.193 139.012 157.305 139.674 157.305 140.283V246.117C157.305 248.273 155.588 249.988 153.43 249.988C151.271 249.988 149.498 248.273 149.498 246.117V146.92L105.479 171.25Z" fill="black"/>
<path d="M236.979 135.584C239.137 135.584 240.854 137.299 240.854 139.455C240.854 141.611 239.137 143.381 236.979 143.381H181.168C179.01 143.381 177.236 141.611 177.236 139.455C177.236 137.299 179.008 135.584 181.168 135.584H236.979ZM244.285 219.355C246.443 219.355 248.217 221.07 248.217 223.225C248.217 225.381 246.445 227.152 244.285 227.152H173.803C171.645 227.152 169.926 225.383 169.926 223.225C169.926 221.068 171.645 219.355 173.803 219.355H244.285ZM239.525 158.975C241.684 158.975 243.457 160.689 243.457 162.844C243.457 165 241.686 166.771 239.525 166.771H178.564C176.406 166.771 174.633 165.002 174.633 162.844C174.633 160.688 176.404 158.975 178.564 158.975H239.525Z" fill="black"/>
<path d="M26.3594 199.67C26.3594 201.826 24.6426 203.539 22.4824 203.539C20.3223 203.539 18.5508 201.826 18.5508 199.67V186.676C18.5508 184.52 20.3223 182.75 22.4824 182.75H35.4941C37.6523 182.75 39.4258 184.52 39.4258 186.676C39.4258 188.832 37.6543 190.545 35.4941 190.545H26.3594V199.67ZM126.74 233.512C126.74 235.668 124.969 237.438 122.809 237.438C120.648 237.438 118.877 235.668 118.877 233.512V220.518C118.877 218.361 120.648 216.592 122.809 216.592H135.82C137.979 216.592 139.752 218.361 139.752 220.518C139.752 222.674 137.98 224.389 135.82 224.389H126.74V233.512ZM76.2461 233.512C76.2461 235.668 74.4746 237.438 72.3145 237.438C70.1543 237.438 68.3828 235.668 68.3828 233.512V220.518C68.3828 218.361 70.1543 216.592 72.3145 216.592H85.3242C87.4844 216.592 89.2559 218.361 89.2559 220.518C89.2559 222.674 87.4844 224.389 85.3242 224.389H76.2461V233.512ZM26.3594 233.512C26.3594 235.668 24.6426 237.438 22.4824 237.438C20.3223 237.438 18.5508 235.668 18.5508 233.512V220.518C18.5508 218.361 20.3223 216.592 22.4824 216.592H35.4941C37.6523 216.592 39.4258 218.361 39.4258 220.518C39.4258 222.674 37.6543 224.389 35.4941 224.389H26.3594V233.512ZM126.74 199.67C126.74 201.826 124.969 203.539 122.809 203.539C120.648 203.539 118.877 201.826 118.877 199.67V186.676C118.877 184.52 120.648 182.75 122.809 182.75H135.82C137.979 182.75 139.752 184.52 139.752 186.676C139.752 188.832 137.98 190.545 135.82 190.545H126.74V199.67ZM76.2461 199.67C76.2461 201.826 74.4746 203.539 72.3145 203.539C70.1543 203.539 68.3828 201.826 68.3828 199.67V186.676C68.3828 184.52 70.1543 182.75 72.3145 182.75H85.3242C87.4844 182.75 89.2559 184.52 89.2559 186.676C89.2559 188.832 87.4844 190.545 85.3242 190.545H76.2461V199.67Z" fill="#E65402"/>
<path d="M55.9258 177C54.1523 178.16 51.7168 177.717 50.498 175.895C49.3359 174.125 49.7793 171.691 51.6055 170.531L101.436 137.078C103.209 135.861 105.645 136.359 106.807 138.127C107.252 138.791 107.473 139.564 107.473 140.283V246.117C107.473 248.273 105.756 249.988 103.598 249.988C101.438 249.988 99.666 248.273 99.666 246.117V147.584L55.9258 177Z" fill="black"/>
<path d="M57.6426 246.117C57.6426 248.273 55.9258 249.988 53.7656 249.988C51.6074 249.988 49.834 248.273 49.834 246.117V146.92L7.81055 170.143V246.115C7.81055 248.271 6.09375 249.986 3.93555 249.986C1.77734 249.986 0.00390625 248.271 0.00390625 246.115V167.82C0.00390625 166.439 0.722656 165.111 2.05273 164.393L51.6621 137.021C52.2715 136.633 52.9902 136.412 53.7656 136.412C55.9258 136.412 57.6426 138.125 57.6426 140.281V246.117Z" fill="black"/>
<path d="M155.311 171.25C153.428 172.301 151.047 171.58 149.996 169.701C148.943 167.82 149.662 165.441 151.545 164.393L177.514 150.072C179.396 149.02 181.777 149.74 182.771 151.621C183.824 153.498 183.16 155.879 181.277 156.871L155.311 171.25Z" fill="black"/>
<path d="M143.406 127.51C142.633 129.502 140.361 130.494 138.367 129.723C136.373 128.949 135.32 126.682 136.098 124.689C137.148 122.037 137.98 119.16 138.479 116.23C138.977 113.354 139.197 110.424 139.088 107.438C138.756 95.3281 133.498 84.5449 125.301 76.8047C117.105 69.1172 105.979 64.5293 93.8516 64.916C81.7266 65.2481 70.9297 70.502 63.1777 78.6856C55.4824 86.8125 50.8867 97.9277 51.2754 110.094C51.3301 112.416 51.6074 114.736 52.0488 117.061C52.4922 119.383 53.0996 121.65 53.8769 123.807C54.5957 125.852 53.5996 128.064 51.5527 128.785C49.5586 129.559 47.2891 128.506 46.5684 126.463C45.6289 123.918 44.9082 121.264 44.3535 118.5C43.8555 115.9 43.5234 113.137 43.4687 110.26C43.0254 96.0488 48.4512 82.9453 57.5332 73.3223C66.6113 63.7012 79.3457 57.5645 93.6309 57.1211C107.916 56.6777 121.037 62.0977 130.672 71.166C140.307 80.2344 146.453 92.9512 146.896 107.217C147.008 110.813 146.73 114.24 146.178 117.557C145.564 120.986 144.625 124.305 143.406 127.51ZM34.3301 134.09C35.1621 136.082 34.2187 138.348 32.2266 139.178C30.2324 140.006 27.9629 139.066 27.1348 137.076C26.248 134.975 25.4727 132.762 24.7539 130.494C24.3672 129.225 23.9785 127.896 23.6465 126.514L7.3125 124.689C5.375 124.469 3.77148 123.695 2.60742 122.533C1.22265 121.207 0.449214 119.492 0.392574 117.611L0.226558 111.584L0.0058551 105.502C-0.0488324 103.676 0.61523 101.852 1.94336 100.469C3.04882 99.252 4.5996 98.3672 6.48242 98.0352L22.7051 95.2168C23.5352 90.9043 24.6992 86.7012 26.248 82.6641C27.8535 78.5156 29.7363 74.5352 32.0059 70.8301L21.707 57.9453C20.5449 56.4531 19.9902 54.7383 19.9355 53.1348C19.8809 51.1992 20.6016 49.4297 21.873 48.1035L26.0254 43.6797L30.1777 39.2559C31.4512 37.9277 33.2246 37.1543 35.1055 37.0449C36.7676 36.9902 38.4824 37.4316 40.0312 38.5391L53.4863 48.0488C60.7949 43.0723 68.8223 39.4219 77.3496 37.3203L79.1777 21.0098C79.3984 19.0742 80.2305 17.4688 81.3359 16.3086C82.666 14.9258 84.4375 14.1524 86.3203 14.0977L92.3535 13.9316L98.4434 13.7656C100.271 13.7109 102.043 14.3731 103.484 15.6465C104.701 16.752 105.588 18.2988 105.92 20.1797L108.687 36.3809C113.061 37.209 117.271 38.3731 121.311 39.9199C125.463 41.5234 129.451 43.4024 133.158 45.6699L146.006 35.4414C147.555 34.2246 149.217 33.6719 150.877 33.6152C152.76 33.6152 154.586 34.2793 155.914 35.5508L160.346 39.6992L164.719 43.8477C166.102 45.1192 166.877 46.8887 166.988 48.7695C167.043 50.4277 166.602 52.1426 165.437 53.6914L155.969 67.1836C160.953 74.4258 164.553 82.4453 166.711 90.9609L169.811 91.3477C171.971 91.5684 173.521 93.5039 173.301 95.6055C173.023 97.7617 171.084 99.3106 168.98 99.0879L163.057 98.4258C161.451 98.2031 160.066 97.043 159.68 95.3301C157.797 86.041 153.811 77.2481 148.164 69.6738C147.111 68.3457 146.945 66.4121 147.998 64.918L159.07 49.2149L154.973 45.3984L150.875 41.5293L135.98 53.3613C134.707 54.5234 132.768 54.6875 131.275 53.6934C127.289 51.0938 123.023 48.9375 118.596 47.2227C114.221 45.5625 109.627 44.3477 104.865 43.6289C103.203 43.4629 101.764 42.1914 101.486 40.4199L98.2187 21.5098L92.5781 21.6758L86.9297 21.8418L84.8242 40.918C84.6035 42.5781 83.3848 43.959 81.7227 44.291C72.4219 46.2266 63.6191 50.1524 56.0332 55.793C54.7031 56.8984 52.7656 57.0098 51.2715 56.0156L35.5469 44.9551L31.6719 49.0469L27.8516 53.1387L39.6992 68.0137C40.8633 69.2852 41.0293 71.2207 40.0312 72.7149C37.4297 76.6953 35.2148 80.9531 33.5547 85.377C31.8926 89.7442 30.6758 94.334 29.9551 99.0352C29.7891 100.75 28.5176 102.131 26.7441 102.465L7.80859 105.727L7.97461 111.367L8.14062 116.953L27.2422 119.109C28.9043 119.275 30.2871 120.492 30.6191 122.205C31.0625 124.25 31.5586 126.242 32.168 128.23C32.7812 130.221 33.5 132.154 34.3301 134.09ZM168.154 114.295C170.258 113.908 172.309 115.346 172.643 117.447C173.029 119.604 171.59 121.594 169.484 121.98L167.656 122.258C167.436 123.475 167.158 124.635 166.883 125.797C166.439 127.787 165.83 129.834 165.111 131.988C164.447 133.98 162.23 135.086 160.186 134.422C158.191 133.758 157.084 131.547 157.748 129.557C158.303 127.842 158.801 125.963 159.299 123.971C159.742 122.146 160.072 120.322 160.352 118.498C160.572 116.783 161.846 115.346 163.562 115.07L168.154 114.295Z" fill="black"/>
<path d="M80.6191 111.695C78.791 112.801 76.3555 112.248 75.248 110.424C74.0859 108.6 74.6387 106.223 76.4668 105.061C78.1836 104.01 80.0078 103.07 81.8906 102.295C83.7188 101.576 85.6562 100.969 87.6504 100.525C92.1895 99.5293 96.7871 99.4746 101.105 100.248C105.59 101.021 109.908 102.682 113.729 105.113C115.557 106.275 116.109 108.652 114.945 110.477C113.84 112.303 111.404 112.855 109.576 111.693C106.586 109.814 103.266 108.541 99.7754 107.934C96.3984 107.324 92.8555 107.381 89.3125 108.154C87.7617 108.486 86.2109 108.928 84.8281 109.537C83.332 110.148 81.9473 110.867 80.6191 111.695ZM89.0898 124.746C87.2617 125.852 84.8262 125.301 83.7187 123.475C82.6133 121.648 83.166 119.217 84.9922 118.111C85.9316 117.559 86.875 117.061 87.9258 116.674C88.9238 116.287 89.9746 115.955 91.0273 115.734C93.5176 115.182 96.0098 115.127 98.3906 115.514C100.828 115.957 103.209 116.842 105.312 118.113C107.141 119.275 107.748 121.652 106.584 123.477C105.479 125.303 103.098 125.91 101.27 124.803C99.9961 124.029 98.5547 123.477 97.1172 123.199C94.3496 122.756 91.4707 123.309 89.0898 124.746ZM71.3164 97.9824C69.543 99.1992 67.1074 98.7559 65.8906 96.9883C64.6719 95.2188 65.1152 92.7852 66.8867 91.5703C69.4883 89.7441 72.3691 88.1426 75.3574 86.8691C78.293 85.543 81.3926 84.5469 84.6035 83.8281C91.4141 82.334 98.2227 82.334 104.701 83.6621C111.346 84.9902 117.658 87.6992 123.305 91.625C125.076 92.8418 125.521 95.2188 124.303 96.9883C123.029 98.7578 120.648 99.1992 118.877 97.9824C114.17 94.7207 108.799 92.4531 103.154 91.293C97.7266 90.2422 91.9687 90.1875 86.209 91.459C83.4961 92.0684 80.8945 92.8965 78.459 94.002C75.9141 95.1074 73.5313 96.4355 71.3164 97.9824Z" fill="black"/>
<path d="M218.65 25.3809C225.682 25.3809 231.439 31.1309 231.439 38.1543C231.439 45.1777 225.736 50.9277 218.65 50.9277C211.562 50.9277 205.861 45.1777 205.861 38.1543C205.861 31.0762 211.619 25.3809 218.65 25.3809ZM182.883 0C188.309 0 193.18 2.21094 196.725 5.75195C200.268 9.29102 202.484 14.1563 202.484 19.5742C202.484 24.9375 200.268 29.8594 196.725 33.3984C193.182 36.9375 188.309 39.0938 182.883 39.0938C177.514 39.0938 172.588 36.9375 169.041 33.3984C165.498 29.8594 163.338 24.9375 163.338 19.5742C163.338 14.1563 165.496 9.28906 169.041 5.75195C172.586 2.21094 177.514 0 182.883 0ZM191.244 11.2246C189.084 9.12305 186.15 7.79688 182.883 7.79688C179.672 7.79688 176.682 9.12305 174.578 11.2246C172.475 13.3809 171.146 16.3125 171.146 19.5742C171.146 22.7813 172.475 25.7676 174.578 27.8691C176.682 29.9707 179.672 31.2969 182.883 31.2969C186.15 31.2969 189.084 29.9688 191.244 27.8691C193.348 25.7676 194.676 22.7813 194.676 19.5742C194.676 16.3125 193.348 13.3828 191.244 11.2246ZM218.65 33.1777C215.881 33.1777 213.666 35.3906 213.666 38.1543C213.666 40.9199 215.881 43.1309 218.65 43.1309C221.418 43.1309 223.633 40.918 223.633 38.1543C223.633 35.3906 221.418 33.1777 218.65 33.1777Z" fill="black"/>
<path d="M175.906 246.393C175.74 248.551 173.857 250.154 171.699 249.988C169.539 249.822 167.932 247.941 168.098 245.787L182.328 67.6816C182.826 61.4336 186.48 56.8438 193.068 56.8438H209.07H225.016C231.604 56.8438 235.314 61.4336 235.812 67.6816L249.986 245.787C250.152 247.943 248.547 249.822 246.443 249.988C244.285 250.154 242.402 248.553 242.236 246.393L228.006 68.2891C227.84 66.1328 227.453 64.6406 225.018 64.6406H209.072H193.07C190.689 64.6406 190.248 66.0781 190.082 68.2891L175.906 246.393Z" fill="black"/>
</svg>
