<svg xmlns="http://www.w3.org/2000/svg" id="Layer_1" height="512" viewBox="0 0 64 64" width="512" data-name="Layer 1"><path d="m13 8a5 5 0 1 0 5 5 5 5 0 0 0 -5-5zm0 8a3 3 0 1 1 3-3 3 3 0 0 1 -3 3z"/><path d="m32 29a5 5 0 1 0 -5-5 5 5 0 0 0 5 5zm0-8a3 3 0 1 1 -3 3 3 3 0 0 1 3-3z"/><path d="m51 18a5 5 0 1 0 -5-5 5 5 0 0 0 5 5zm0-8a3 3 0 1 1 -3 3 3 3 0 0 1 3-3z"/><path d="m53 19h-4a9 9 0 0 0 -1.16.08 5 5 0 1 0 1 2.92 5.17 5.17 0 0 0 -.1-1h.3 4a7 7 0 0 1 7 7v1h-10.16a8.88 8.88 0 0 0 -4.08-1h-4a8.64 8.64 0 0 0 -.9 0 9.06 9.06 0 0 0 -5 2.17 9.33 9.33 0 0 0 -1.9-.17h-4a9.33 9.33 0 0 0 -1.92.21 9 9 0 0 0 -5-2.16 7 7 0 0 0 -.88-.05h-4a8.88 8.88 0 0 0 -4.08 1h-10.12v-1a7 7 0 0 1 7-7h4 .3a5.17 5.17 0 0 0 -.1 1 5 5 0 1 0 1-2.92 9 9 0 0 0 -1.2-.08h-4a9 9 0 0 0 -9 9v2a1 1 0 0 0 1 1h8.53a9 9 0 0 0 -2.33 6v2a1 1 0 0 0 1 1h10.8v1a1 1 0 0 0 1 1h20a1 1 0 0 0 1-1v-1h10.8a1 1 0 0 0 1-1v-2a9 9 0 0 0 -2.33-6h8.53a1 1 0 0 0 1-1v-2a9 9 0 0 0 -9-9zm-9.2 6a3 3 0 1 1 3-3 3 3 0 0 1 -3 3zm-23.6-6a3 3 0 1 1 -3 3 3 3 0 0 1 3-3zm-9 18a7 7 0 0 1 3.63-6.13 6.82 6.82 0 0 1 3.37-.87h4a5.58 5.58 0 0 1 .7 0 6.92 6.92 0 0 1 2.91 1 9 9 0 0 0 -4.75 7h-9.86zm29.8 3h-18v-1a7 7 0 0 1 7-7h4a7 7 0 0 1 7 7zm11.8-2h-9.86a9 9 0 0 0 -4.75-7 7.07 7.07 0 0 1 2.93-1h.68 4a6.79 6.79 0 0 1 3.38.88 7 7 0 0 1 3.62 6.12z"/><path d="m61.92 42.62a1 1 0 0 0 -.92-.62h-16a1 1 0 0 0 -1 1v1.87a31.13 31.13 0 0 1 -12 2.13 31.13 31.13 0 0 1 -12-2.13v-1.87a1 1 0 0 0 -1-1h-16a1 1 0 0 0 -.92.62 1 1 0 0 0 .21 1.09l3.3 3.29-3.3 3.29a1 1 0 0 0 -.21 1.09 1 1 0 0 0 .92.62h13.28c3.09 2.46 9 4 15.72 4s12.63-1.54 15.72-4h13.28a1 1 0 0 0 .92-.62 1 1 0 0 0 -.21-1.09l-3.3-3.29 3.3-3.29a1 1 0 0 0 .21-1.09zm-54.21 5.09a1 1 0 0 0 0-1.42l-2.3-2.29h9.59v6h-9.59zm39.29 2.29c-2.39 2.38-8.46 4-15 4s-12.61-1.64-15-4v-4.48c3.28 2.18 8.84 3.48 15 3.48s11.72-1.3 15-3.48zm9.29-3.69a1 1 0 0 0 0 1.42l2.3 2.27h-9.59v-6h9.59z" style="&#10;    fill: #e65402;&#10;"/></svg>