<svg width="200" height="200" viewBox="0 0 200 200" fill="none" xmlns="http://www.w3.org/2000/svg">
<path d="M118.805 164.095C116.338 166.561 113.41 168.518 110.187 169.853C106.965 171.188 103.51 171.875 100.022 171.875C96.5338 171.875 93.0796 171.188 89.8569 169.853C86.6341 168.518 83.7059 166.561 81.2393 164.095C80.6529 163.51 79.8588 163.183 79.0311 163.184C78.2034 163.184 77.4098 163.513 76.8246 164.099C76.2393 164.684 75.9102 165.478 75.9094 166.305C75.9086 167.133 76.2362 167.927 76.8204 168.513C79.8671 171.561 83.4843 173.978 87.4652 175.627C91.4462 177.276 95.7131 178.125 100.022 178.125C104.331 178.125 108.598 177.276 112.579 175.627C116.56 173.978 120.177 171.561 123.224 168.513C123.807 167.927 124.134 167.133 124.133 166.306C124.132 165.478 123.803 164.685 123.218 164.1C122.633 163.515 121.84 163.186 121.013 163.185C120.185 163.184 119.391 163.511 118.805 164.095Z" fill="black"/>
<path d="M46.9147 139.27C47.3343 148.112 48.8464 160.851 57.1228 169.359C61.1847 173.535 64.563 177.451 67.543 180.904C77.1088 191.991 84.0195 200 99.91 200H100.221C116.113 200 123.024 191.989 132.59 180.902C135.57 177.449 138.947 173.534 143.008 169.359C148.535 163.678 151.874 153.58 152.93 139.345C152.93 139.345 153.112 135.841 153.147 131.668C154.579 127.131 163.619 97.1883 160.159 75.2937C160.095 74.8883 159.952 74.4995 159.738 74.1495C159.524 73.7995 159.242 73.4951 158.911 73.2538C158.579 73.0124 158.202 72.8387 157.803 72.7428C157.404 72.6468 156.99 72.6303 156.585 72.6943C156.18 72.7584 155.791 72.9016 155.441 73.1159C155.091 73.3302 154.786 73.6113 154.545 73.9432C154.304 74.2751 154.13 74.6513 154.034 75.0503C153.938 75.4493 153.922 75.8633 153.986 76.2687C156.621 92.9443 151.186 115.619 148.459 125.43C142.403 118.918 139.121 110.303 139.308 101.412C139.387 99.7788 139.055 98.1517 138.343 96.6796C137.631 95.2074 136.562 93.9371 135.233 92.9847C133.957 92.0757 132.475 91.5005 130.92 91.3117C129.365 91.1228 127.788 91.3264 126.332 91.9036C115.584 96.1463 97.3877 99.5002 71.7331 91.4039C70.3282 90.9551 68.8352 90.8552 67.383 91.113C65.9309 91.3707 64.5633 91.9783 63.3987 92.8833C62.1282 93.866 61.1124 95.1397 60.4369 96.597C59.7613 98.0543 59.4458 99.6526 59.5169 101.257C59.5155 110.274 56.4073 119.015 50.7156 126.009C47.6623 119.321 42.3569 102.779 47.3633 75.4402C47.4377 75.0364 47.4318 74.6219 47.346 74.2204C47.2601 73.8189 47.096 73.4383 46.8629 73.1003C46.6299 72.7622 46.3325 72.4734 45.9877 72.2504C45.643 72.0274 45.2577 71.8746 44.8538 71.8006C44.45 71.7266 44.0355 71.7329 43.6341 71.8192C43.2327 71.9055 42.8522 72.0701 42.5144 72.3035C42.1767 72.537 41.8882 72.8347 41.6656 73.1797C41.443 73.5247 41.2906 73.9102 41.217 74.3141C34.7577 109.579 44.5406 128.331 46.9471 132.275C46.8973 136.055 46.9147 139.27 46.9147 139.27ZM53.1963 132.5C61.3346 124.049 65.8441 112.749 65.7608 101.017C65.7289 100.414 65.842 99.8114 66.0908 99.2608C66.3395 98.7102 66.7166 98.2272 67.1905 97.8523C67.5602 97.5589 67.9965 97.3608 68.4608 97.2757C68.9252 97.1905 69.4033 97.2209 69.8531 97.3641C97.2518 106.012 116.939 102.33 128.627 97.7173C129.114 97.52 129.644 97.4497 130.166 97.5131C130.688 97.5765 131.185 97.7714 131.612 98.0797C132.095 98.4278 132.481 98.8929 132.735 99.4313C132.99 99.9698 133.103 100.564 133.064 101.158C132.367 118.186 143.033 129.272 146.818 132.653C146.788 135.752 146.703 138.812 146.698 138.881C145.766 151.434 142.941 160.466 138.528 165.001C134.337 169.31 130.894 173.3 127.858 176.819C118.439 187.737 113.251 193.75 100.221 193.75H99.91C86.882 193.75 81.694 187.737 72.2748 176.82C69.2383 173.3 65.7959 169.31 61.6028 165.001C56.43 159.683 53.7476 151.413 53.1586 138.974C53.157 138.936 53.1564 135.75 53.1963 132.5Z" fill="black"/>
<path d="M82.8354 151.562C90.7211 151.562 96.8979 143.326 96.8979 132.812C96.8979 122.299 90.7211 114.062 82.8354 114.062C74.9496 114.062 68.7729 122.299 68.7729 132.812C68.7729 143.326 74.9496 151.562 82.8354 151.562ZM82.8354 120.312C83.67 120.321 84.4895 120.537 85.2203 120.94C84.6677 121.251 84.1842 121.672 83.7992 122.176C83.4142 122.68 83.1358 123.257 82.981 123.872C82.8261 124.487 82.798 125.127 82.8984 125.753C82.9988 126.379 83.2256 126.979 83.5649 127.514C83.9043 128.05 84.3491 128.511 84.8724 128.87C85.3956 129.228 85.9863 129.476 86.6085 129.599C87.2307 129.722 87.8714 129.717 88.4916 129.584C89.1118 129.451 89.6985 129.194 90.216 128.827C90.5023 130.136 90.6471 131.472 90.6479 132.812C90.6479 139.589 87.0698 145.312 82.8354 145.312C78.601 145.312 75.0229 139.589 75.0229 132.812C75.0229 126.036 78.6011 120.312 82.8354 120.312ZM117.21 151.562C125.096 151.562 131.273 143.326 131.273 132.812C131.273 122.299 125.096 114.062 117.21 114.062C109.325 114.062 103.148 122.299 103.148 132.812C103.148 143.326 109.325 151.562 117.21 151.562ZM109.83 128.827C110.347 129.195 110.934 129.453 111.555 129.586C112.175 129.719 112.816 129.725 113.439 129.602C114.061 129.48 114.653 129.232 115.176 128.873C115.7 128.515 116.145 128.053 116.485 127.517C116.824 126.981 117.051 126.381 117.151 125.755C117.252 125.128 117.223 124.487 117.068 123.872C116.913 123.257 116.634 122.68 116.248 122.175C115.863 121.671 115.379 121.251 114.825 120.94C115.556 120.537 116.376 120.321 117.21 120.312C121.445 120.312 125.023 126.036 125.023 132.812C125.023 139.589 121.445 145.312 117.21 145.312C112.976 145.312 109.398 139.589 109.398 132.812C109.399 131.473 109.543 130.136 109.83 128.827ZM93.3945 157.811C92.8084 158.397 92.479 159.192 92.4787 160.021C92.4784 160.85 92.8073 161.645 93.3929 162.231C94.2635 163.102 95.2971 163.793 96.4347 164.264C97.5723 164.735 98.7915 164.978 100.023 164.978C101.254 164.978 102.473 164.735 103.611 164.264C104.749 163.793 105.782 163.102 106.653 162.231C106.945 161.942 107.177 161.597 107.336 161.217C107.494 160.837 107.576 160.43 107.577 160.018C107.578 159.606 107.497 159.199 107.34 158.818C107.183 158.438 106.952 158.092 106.661 157.802C106.37 157.511 106.024 157.28 105.643 157.123C105.263 156.966 104.855 156.886 104.443 156.887C104.032 156.888 103.625 156.97 103.245 157.129C102.865 157.288 102.521 157.52 102.231 157.812C101.636 158.381 100.845 158.698 100.023 158.698C99.2003 158.698 98.4094 158.381 97.8149 157.812C97.2286 157.227 96.4338 156.898 95.605 156.897C94.7762 156.897 93.9812 157.226 93.3945 157.811ZM100.626 0H99.3744C89.9549 0.0684057 80.9472 3.87028 74.3273 10.5716C67.7074 17.2729 64.0158 26.3264 64.0625 35.746C64.1928 41.5783 65.7247 47.2937 68.5287 52.4094C69.4 54.113 70.3964 55.8533 71.5775 57.7309C72.3343 58.931 73.2498 60.2745 74.2554 61.7516C78.0365 67.2974 83.2138 74.8932 85.6354 83.7509C86.1613 85.6637 87.2811 87.3601 88.8333 88.5955C90.3854 89.831 92.2898 90.5416 94.2719 90.625H105.73C107.712 90.5418 109.616 89.8311 111.168 88.5953C112.72 87.3595 113.84 85.6626 114.365 83.7494C116.786 74.8931 121.964 67.2974 125.745 61.7516C126.75 60.2745 127.666 58.931 128.423 57.7286C129.604 55.8533 130.6 54.113 131.471 52.4086C134.275 47.2932 135.807 41.5781 135.937 35.746C135.984 26.3264 132.293 17.2729 125.673 10.5716C119.053 3.87028 110.045 0.0684057 100.626 0ZM125.905 49.5651C125.12 51.1025 124.213 52.684 123.134 54.3983C122.414 55.5435 121.539 56.823 120.58 58.2314C116.551 64.1418 111.034 72.2366 108.336 82.1015C108.174 82.695 107.84 83.2275 107.376 83.632C106.913 84.0365 106.34 84.295 105.73 84.375H103.125V65.9508C103.125 65.122 102.796 64.3271 102.21 63.7411C101.624 63.155 100.829 62.8258 100 62.8258C99.1712 62.8258 98.3763 63.155 97.7903 63.7411C97.2042 64.3271 96.875 65.122 96.875 65.9508V84.375H94.2719C93.6615 84.2947 93.0884 84.0362 92.6243 83.6318C92.1602 83.2274 91.8257 82.6951 91.6626 82.1014C88.9664 72.2366 83.4488 64.1418 79.4204 58.2313C78.4607 56.823 77.5863 55.5435 76.8661 54.4006C75.7873 52.684 74.8794 51.1024 74.0951 49.5659C71.7483 45.3276 70.4512 40.5887 70.3125 35.746C70.2641 27.9835 73.2966 20.5187 78.7448 14.9891C84.193 9.45957 91.612 6.31672 99.3744 6.25H100.626C108.388 6.31672 115.807 9.45957 121.255 14.9891C126.703 20.5187 129.736 27.9835 129.687 35.746C129.549 40.5884 128.252 45.3271 125.905 49.5651ZM170.227 64.1853C170.42 63.3793 170.285 62.5297 169.851 61.8234C169.418 61.117 168.721 60.6118 167.915 60.4187C142.535 54.3434 133.133 76.7242 133.041 76.9508C132.732 77.7176 132.74 78.5756 133.062 79.337C133.384 80.0983 133.995 80.701 134.76 81.013C135.526 81.3251 136.384 81.3211 137.146 81.0018C137.909 80.6826 138.514 80.0742 138.829 79.3099C139.13 78.5881 146.368 61.6875 166.46 66.4963C166.859 66.5923 167.273 66.6087 167.678 66.5445C168.084 66.4803 168.473 66.3368 168.823 66.1221C169.173 65.9075 169.477 65.6259 169.718 65.2936C169.959 64.9612 170.132 64.5846 170.227 64.1853ZM137.611 53.9543C137.72 54.3503 137.906 54.7209 138.158 55.0451C138.41 55.3692 138.723 55.6404 139.08 55.8432C139.437 56.046 139.831 56.1765 140.238 56.227C140.646 56.2776 141.059 56.2473 141.455 56.1378C146.174 54.6701 150.37 51.8752 153.543 48.0869C156.716 44.2985 158.732 39.6769 159.349 34.774C159.401 34.367 159.373 33.9537 159.266 33.5577C159.159 33.1616 158.974 32.7906 158.724 32.4658C158.473 32.141 158.161 31.8687 157.805 31.6645C157.449 31.4604 157.056 31.3283 156.649 31.2759C156.242 31.2235 155.829 31.2518 155.433 31.3591C155.037 31.4665 154.666 31.6508 154.341 31.9015C154.016 32.1522 153.744 32.4645 153.54 32.8204C153.335 33.1763 153.203 33.569 153.151 33.976C152.689 37.6589 151.186 41.1335 148.818 43.9922C146.45 46.8509 143.317 48.975 139.784 50.1152C138.988 50.3378 138.312 50.8666 137.905 51.5861C137.498 52.3056 137.392 53.1571 137.611 53.9543ZM190.562 42.5705L184.294 39.1426L180.867 32.8758C180.598 32.3837 180.201 31.9731 179.719 31.687C179.236 31.401 178.686 31.25 178.125 31.25C177.564 31.25 177.014 31.401 176.531 31.687C176.049 31.9731 175.652 32.3837 175.383 32.8758L171.956 39.1426L165.688 42.5705C165.196 42.8397 164.785 43.2364 164.499 43.7188C164.213 44.2012 164.062 44.7517 164.062 45.3125C164.062 45.8733 164.213 46.4238 164.499 46.9062C164.785 47.3886 165.196 47.7853 165.688 48.0545L171.956 51.4824L175.383 57.7492C175.652 58.2413 176.049 58.6519 176.531 58.938C177.014 59.2241 177.564 59.375 178.125 59.375C178.686 59.375 179.236 59.2241 179.719 58.938C180.201 58.6519 180.598 58.2413 180.867 57.7492L184.294 51.4824L190.562 48.0545C191.054 47.7853 191.465 47.3886 191.751 46.9062C192.037 46.4238 192.188 45.8733 192.188 45.3125C192.188 44.7517 192.037 44.2012 191.751 43.7188C191.465 43.2364 191.054 42.8397 190.562 42.5705ZM180.492 46.4378C179.967 46.725 179.536 47.1563 179.25 47.6807L178.125 49.7368L177 47.6807C176.714 47.1563 176.283 46.725 175.758 46.4378L173.7 45.3125L175.758 44.1872C176.283 43.9 176.714 43.4687 177 42.9443L178.125 40.8882L179.25 42.9443C179.536 43.4687 179.967 43.9 180.492 44.1872L182.55 45.3125L180.492 46.4378ZM29.773 64.1853C29.8685 64.5845 30.0418 64.9609 30.2829 65.293C30.5239 65.6252 30.8281 65.9066 31.1779 66.1212C31.5278 66.3358 31.9165 66.4794 32.3218 66.5438C32.7272 66.6081 33.1412 66.592 33.5403 66.4963C53.6118 61.6882 60.8688 78.5797 61.171 79.3091C61.4852 80.0744 62.0901 80.6838 62.853 81.0038C63.6159 81.3238 64.4746 81.3281 65.2407 81.016C66.0069 80.7038 66.6179 80.1005 66.94 79.3385C67.262 78.5765 67.2687 77.7178 66.9586 76.9508C66.8671 76.7243 57.4692 54.3335 32.0846 60.4187C31.2787 60.6118 30.5824 61.117 30.1489 61.8234C29.7154 62.5297 29.5802 63.3793 29.773 64.1853ZM40.6509 34.774C41.2682 39.6769 43.2838 44.2986 46.4568 48.0869C49.6298 51.8752 53.8263 54.6701 58.5449 56.1378C59.3419 56.3548 60.1923 56.2474 60.9103 55.8392C61.6283 55.431 62.1555 54.7551 62.3767 53.9594C62.5979 53.1636 62.4951 52.3126 62.0907 51.5925C61.6864 50.8723 61.0134 50.3414 60.2188 50.116C56.6858 48.9762 53.5512 46.8523 51.183 43.9934C48.8148 41.1345 47.3113 37.6594 46.8491 33.976C46.7967 33.569 46.6646 33.1763 46.4605 32.8204C46.2563 32.4645 45.984 32.1522 45.6592 31.9015C45.3344 31.6508 44.9634 31.4665 44.5673 31.3591C44.1713 31.2518 43.758 31.2235 43.351 31.2759C42.944 31.3283 42.5513 31.4604 42.1954 31.6645C41.8395 31.8687 41.5272 32.141 41.2765 32.4658C41.0258 32.7906 40.8415 33.1616 40.7341 33.5577C40.6268 33.9537 40.5985 34.367 40.6509 34.774ZM35.9375 45.3125C35.9376 44.7517 35.7868 44.2012 35.5008 43.7188C35.2149 43.2363 34.8045 42.8397 34.3125 42.5705L28.0442 39.1426L24.6171 32.8758C24.348 32.3837 23.9514 31.9731 23.4689 31.687C22.9865 31.401 22.4359 31.25 21.8751 31.25C21.3142 31.25 20.7636 31.401 20.2812 31.687C19.7987 31.9731 19.4021 32.3837 19.133 32.8758L15.7059 39.1426L9.4375 42.5705C8.94557 42.8397 8.53514 43.2364 8.24922 43.7188C7.9633 44.2012 7.81244 44.7517 7.81244 45.3125C7.81244 45.8733 7.9633 46.4238 8.24922 46.9062C8.53514 47.3886 8.94557 47.7853 9.4375 48.0545L15.7058 51.4824L19.1329 57.7492C19.402 58.2413 19.7986 58.6519 20.2811 58.938C20.7635 59.2241 21.3141 59.375 21.8749 59.375C22.4358 59.375 22.9864 59.2241 23.4688 58.938C23.9513 58.6519 24.3479 58.2413 24.617 57.7492L28.0441 51.4824L34.3125 48.0545C34.8045 47.7853 35.2149 47.3887 35.5008 46.9062C35.7868 46.4238 35.9376 45.8733 35.9375 45.3125ZM24.2416 46.4378C23.7174 46.725 23.2864 47.1563 22.9996 47.6807L21.875 49.7368L20.7504 47.6807C20.4636 47.1563 20.0326 46.725 19.5084 46.4378L17.45 45.3125L19.5084 44.1872C20.0326 43.9 20.4636 43.4687 20.7505 42.9443L21.875 40.8882L22.9996 42.9443C23.2864 43.4687 23.7174 43.9 24.2416 44.1872L26.3 45.3125L24.2416 46.4378Z" fill="#E65402"/>
<path d="M100 15.625C87.7335 15.625 78.125 22.8157 78.125 31.9954C78.125 37.2566 81.3263 42.0509 86.908 45.1485C87.2668 45.3487 87.6616 45.4761 88.0697 45.5235C88.4779 45.5709 88.8914 45.5374 89.2866 45.4248C89.6817 45.3122 90.0508 45.1227 90.3727 44.8673C90.6945 44.6119 90.9629 44.2955 91.1623 43.9362C91.3618 43.577 91.4884 43.1819 91.535 42.7737C91.5815 42.3654 91.5471 41.952 91.4337 41.5571C91.3203 41.1621 91.1301 40.7934 90.874 40.4721C90.618 40.1507 90.301 39.8831 89.9414 39.6843C86.4044 37.7205 84.375 34.9182 84.375 31.9954C84.4219 30.9006 84.6968 29.8277 85.1821 28.8453C85.6674 27.8628 86.3524 26.9925 87.1933 26.2899C87.2214 26.2776 87.2508 26.2729 87.2787 26.2596C88.8736 25.477 90.6887 25.265 92.4209 25.6592C92.7978 25.8404 93.1282 26.1056 93.3866 26.4344C93.645 26.7632 93.8247 27.1468 93.9117 27.5558C94.1752 28.3418 94.74 28.9908 95.482 29.3603C96.2241 29.7297 97.0824 29.7892 97.8683 29.5258C98.6543 29.2623 99.3033 28.6975 99.6728 27.9555C100.042 27.2135 100.102 26.3551 99.8383 25.5692C99.4127 24.2457 98.7116 23.0274 97.7809 21.9946C98.5092 21.9239 99.2468 21.875 100 21.875C108.47 21.875 115.625 26.5099 115.625 31.9954C115.593 33.5273 115.072 35.0087 114.137 36.2226C111.881 37.5489 110.56 36.7473 110.182 36.4303C109.58 35.8692 108.781 35.5683 107.958 35.5931C107.135 35.6179 106.355 35.9664 105.788 36.5628C105.22 37.1592 104.911 37.9554 104.928 38.7785C104.944 39.6015 105.284 40.3849 105.875 40.9584C105.975 41.0559 106.094 41.1558 106.213 41.2556C106.116 41.2837 106.022 41.316 105.923 41.3429C103.334 42.0463 101.046 43.5796 99.412 45.7078C97.7776 47.836 96.8864 50.4416 96.875 53.125C96.8753 53.5354 96.9563 53.9417 97.1136 54.3207C97.2709 54.6998 97.5013 55.0441 97.7916 55.3342C98.082 55.6242 98.4266 55.8541 98.8059 56.011C99.1851 56.1678 99.5915 56.2483 100.002 56.2481C100.412 56.2478 100.819 56.1668 101.198 56.0095C101.577 55.8522 101.921 55.6218 102.211 55.3315C102.501 55.0411 102.731 54.6965 102.888 54.3172C103.045 53.938 103.125 53.5316 103.125 53.1212C103.135 51.8091 103.574 50.5363 104.376 49.4981C105.179 48.4598 106.3 47.7134 107.567 47.3732C116.258 45.005 121.875 38.9687 121.875 31.9954C121.875 22.8157 112.267 15.625 100 15.625ZM51.5625 26.5625C53.4167 26.5625 55.2293 26.0127 56.771 24.9825C58.3127 23.9524 59.5143 22.4882 60.2239 20.7752C60.9334 19.0621 61.1191 17.1771 60.7574 15.3585C60.3956 13.54 59.5027 11.8695 58.1916 10.5584C56.8805 9.24726 55.21 8.35438 53.3915 7.99264C51.5729 7.63091 49.6879 7.81656 47.9748 8.52613C46.2618 9.23571 44.7976 10.4373 43.7675 11.979C42.7373 13.5207 42.1875 15.3333 42.1875 17.1875C42.1902 19.6731 43.1788 22.0561 44.9364 23.8136C46.6939 25.5712 49.0769 26.5598 51.5625 26.5625ZM51.5625 14.0625C52.1806 14.0625 52.7848 14.2458 53.2987 14.5892C53.8126 14.9325 54.2131 15.4206 54.4496 15.9916C54.6861 16.5626 54.748 17.191 54.6275 17.7972C54.5069 18.4034 54.2093 18.9602 53.7722 19.3972C53.3352 19.8343 52.7784 20.1319 52.1722 20.2525C51.566 20.373 50.9376 20.3112 50.3666 20.0746C49.7956 19.8381 49.3075 19.4376 48.9642 18.9237C48.6208 18.4098 48.4375 17.8056 48.4375 17.1875C48.4384 16.359 48.768 15.5647 49.3538 14.9788C49.9397 14.393 50.734 14.0635 51.5625 14.0625ZM148.438 26.5625C150.292 26.5625 152.104 26.0127 153.646 24.9825C155.188 23.9524 156.389 22.4882 157.099 20.7752C157.808 19.0621 157.994 17.1771 157.632 15.3585C157.271 13.54 156.378 11.8695 155.067 10.5584C153.756 9.24726 152.085 8.35438 150.266 7.99264C148.448 7.63091 146.563 7.81656 144.85 8.52613C143.137 9.23571 141.673 10.4373 140.642 11.979C139.612 13.5207 139.062 15.3333 139.062 17.1875C139.065 19.6731 140.054 22.0561 141.811 23.8136C143.569 25.5712 145.952 26.5598 148.438 26.5625ZM148.438 14.0625C149.056 14.0625 149.66 14.2458 150.174 14.5892C150.688 14.9325 151.088 15.4206 151.325 15.9916C151.561 16.5626 151.623 17.191 151.502 17.7972C151.382 18.4034 151.084 18.9602 150.647 19.3972C150.21 19.8343 149.653 20.1319 149.047 20.2525C148.441 20.373 147.813 20.3112 147.242 20.0746C146.671 19.8381 146.183 19.4376 145.839 18.9237C145.496 18.4098 145.312 17.8056 145.312 17.1875C145.313 16.359 145.643 15.5647 146.229 14.9788C146.815 14.393 147.609 14.0635 148.438 14.0625Z" fill="#E65402"/>
</svg>
