<svg width="340" height="346" viewBox="0 0 340 346" fill="none" xmlns="http://www.w3.org/2000/svg">
<path d="M317.153 86.984C311.579 86.984 306.249 89.06 302.143 92.8296C298.038 96.5994 295.516 101.734 295.042 107.287L288.578 182.972C287.594 182.841 286.594 182.774 285.584 182.774C279.579 182.774 273.933 185.112 269.687 189.359L250.123 208.922C245.554 213.492 239.478 216.008 233.016 216.008H232.858C227.537 216.008 222.345 217.04 217.428 219.077C212.512 221.114 208.111 224.054 204.348 227.817L174.072 258.094C172.541 259.624 171.182 261.287 170 263.068C168.818 261.287 167.459 259.624 165.928 258.094L135.652 227.817C131.889 224.054 127.488 221.114 122.572 219.077C117.655 217.041 112.464 216.008 107.142 216.008H106.983C100.521 216.008 94.4463 213.492 89.8771 208.922L70.3135 189.359C66.0671 185.112 60.4213 182.774 54.416 182.774C53.406 182.774 52.4064 182.841 51.4217 182.972L44.9583 107.287C44.4841 101.734 41.962 96.5994 37.8568 92.8296C33.7514 89.06 28.421 86.984 22.8475 86.984C10.6111 86.984 0.656128 96.939 0.656128 109.175V239.818C0.656128 244.075 1.48225 248.229 3.11156 252.162C4.74074 256.095 7.09325 259.616 10.1037 262.627L72.7709 325.294C74.8017 327.324 75.9201 330.025 75.9201 332.897V339.656C75.9201 342.625 78.327 345.032 81.2961 345.032C84.2652 345.032 86.6721 342.625 86.6721 339.656V332.896C86.6721 327.152 84.4352 321.752 80.3736 317.691L17.7064 255.024C13.6448 250.962 11.408 245.562 11.408 239.818V109.175C11.408 102.868 16.5396 97.736 22.8475 97.736C28.8358 97.736 33.7358 102.235 34.2454 108.202L40.993 187.216C40.1254 187.864 39.2983 188.579 38.5187 189.359C29.753 198.125 29.753 212.388 38.5187 221.153L85.5587 268.193C87.6581 270.293 91.062 270.293 93.1615 268.193C95.2609 266.094 95.2609 262.69 93.1615 260.591L46.1215 213.551C41.5479 208.977 41.5479 201.535 46.1215 196.961C48.337 194.746 51.2827 193.526 54.416 193.526C57.5493 193.526 60.495 194.746 62.7105 196.961L82.2743 216.525C85.5356 219.786 89.3499 222.335 93.611 224.1C97.8721 225.865 102.371 226.76 106.983 226.76H107.142C115.04 226.76 122.465 229.836 128.049 235.42L158.326 265.696C162.387 269.758 164.624 275.158 164.624 280.902V339.656C164.624 342.625 167.031 345.032 170 345.032C172.969 345.032 175.376 342.625 175.376 339.656V280.902C175.376 275.158 177.613 269.758 181.674 265.696L211.95 235.42C217.535 229.836 224.96 226.76 232.858 226.76H233.016C237.629 226.76 242.128 225.865 246.389 224.1C250.65 222.335 254.464 219.787 257.726 216.525L277.289 196.961C279.505 194.746 282.451 193.526 285.584 193.526C288.717 193.526 291.663 194.746 293.879 196.961C298.452 201.535 298.452 208.977 293.879 213.551L246.839 260.591C244.739 262.69 244.739 266.094 246.839 268.193C248.938 270.293 252.342 270.293 254.441 268.193L301.481 221.153C310.247 212.388 310.247 198.125 301.481 189.359C300.702 188.579 299.874 187.864 299.007 187.216L305.755 108.202C306.264 102.235 311.164 97.736 317.153 97.736C323.46 97.736 328.592 102.868 328.592 109.175V239.818C328.592 245.562 326.355 250.962 322.294 255.024L259.626 317.691C255.565 321.752 253.328 327.152 253.328 332.896V339.656C253.328 342.625 255.735 345.032 258.704 345.032C261.673 345.032 264.08 342.625 264.08 339.656V332.896C264.08 330.024 265.198 327.324 267.229 325.294L329.896 262.626C332.907 259.616 335.259 256.095 336.889 252.162C338.518 248.229 339.344 244.075 339.344 239.818V109.175C339.344 96.939 329.389 86.984 317.153 86.984Z" fill="black"/>
<path d="M194.192 135.368C188.01 135.368 182.003 137.128 176.821 140.458C174.273 142.095 171.98 144.073 170 146.325C168.02 144.073 165.727 142.095 163.179 140.458C157.997 137.128 151.99 135.368 145.808 135.368C137.192 135.368 129.092 138.723 123 144.816C116.907 150.908 113.552 159.008 113.552 167.624C113.552 176.046 116.533 184.866 122.411 193.838C126.904 200.695 133.117 207.694 140.879 214.638C153.91 226.297 166.765 233.787 167.306 234.101C168.139 234.583 169.07 234.824 170 234.824C170.93 234.824 171.86 234.583 172.694 234.101C173.234 233.787 186.09 226.297 199.121 214.638C206.883 207.694 213.096 200.695 217.589 193.838C223.467 184.866 226.448 176.046 226.448 167.624C226.448 159.008 223.093 150.908 217 144.816C210.908 138.723 202.808 135.368 194.192 135.368ZM192.085 206.506C183.269 214.414 174.334 220.398 169.998 223.142C165.692 220.418 156.846 214.497 148.049 206.626C137.216 196.934 124.304 182.3 124.304 167.624C124.304 155.767 133.951 146.12 145.808 146.12C154.115 146.12 161.53 150.789 165.159 158.304C166.056 160.162 167.937 161.342 170 161.342C172.063 161.342 173.944 160.162 174.841 158.304C178.47 150.789 185.885 146.12 194.192 146.12C206.049 146.12 215.696 155.767 215.696 167.624C215.696 182.255 202.856 196.844 192.085 206.506Z" fill="#E65402"/>
<path d="M98.783 174.002C100.084 174.002 101.389 173.532 102.422 172.582C104.607 170.571 104.748 167.17 102.737 164.985C88.3946 149.402 79.9918 129.513 78.7647 108.488H110.945C111.142 115.132 111.702 121.713 112.619 128.116C113.003 130.797 115.303 132.73 117.934 132.73C118.188 132.73 118.445 132.712 118.703 132.675C121.642 132.254 123.684 129.53 123.262 126.591C122.416 120.688 121.895 114.62 121.702 108.488H164.624V124.616C164.624 127.585 167.031 129.992 170 129.992C172.969 129.992 175.376 127.585 175.376 124.616V108.488H218.299C218.134 113.714 217.731 118.899 217.092 123.962C216.72 126.908 218.807 129.597 221.752 129.969C224.697 130.341 227.387 128.254 227.759 125.308C228.454 119.803 228.887 114.166 229.056 108.488H261.235C260.014 129.383 251.698 149.176 237.51 164.716C235.508 166.909 235.662 170.309 237.855 172.311C240.047 174.313 243.448 174.158 245.45 171.966C262.664 153.113 272.144 128.66 272.144 103.112C272.144 89.325 269.443 75.9476 264.115 63.3513C258.97 51.1874 251.606 40.2643 242.227 30.8853C232.848 21.5064 221.925 14.142 209.761 8.99721C197.164 3.66933 183.787 0.968018 170 0.968018C156.213 0.968018 142.836 3.66933 130.239 8.99721C118.076 14.142 107.152 21.5064 97.7733 30.8853C88.3942 40.2643 81.03 51.1874 75.8852 63.3513C70.5573 75.9476 67.856 89.325 67.856 103.112C67.856 128.811 77.4341 153.37 94.826 172.267C95.8858 173.418 97.3321 174.002 98.783 174.002ZM121.7 97.736C122.412 74.8194 127.669 53.5267 136.685 37.2975C144.506 23.2198 154.271 14.5419 164.624 12.3011V97.736H121.7ZM175.376 12.3011C185.729 14.542 195.494 23.2199 203.315 37.2976C212.331 53.5269 217.588 74.8195 218.3 97.7361H175.376V12.3011ZM261.234 97.736H229.056C228.329 72.9996 222.591 49.8557 212.713 32.0759C209.708 26.6661 206.402 21.9009 202.827 17.8169C235.46 30.419 259.106 61.2358 261.234 97.736ZM137.173 17.8169C133.598 21.9009 130.292 26.6662 127.287 32.0759C117.409 49.8557 111.671 72.9996 110.944 97.736H78.7661C80.8937 61.2358 104.54 30.419 137.173 17.8169Z" fill="#E65402"/>
</svg>
