<svg width="300" height="300" viewBox="0 0 300 300" fill="none" xmlns="http://www.w3.org/2000/svg">
<path d="M129.079 191.295C127.848 191.313 126.673 191.815 125.808 192.692C124.944 193.569 124.459 194.752 124.459 195.983C124.459 197.215 124.944 198.397 125.808 199.274C126.673 200.151 127.848 200.653 129.079 200.671H145.312V206.441C145.337 207.668 145.842 208.837 146.718 209.696C147.595 210.555 148.773 211.036 150 211.036C151.228 211.036 152.406 210.555 153.282 209.695C154.159 208.836 154.663 207.668 154.688 206.441V200.67H156.972C183.072 199.47 180.797 161.752 154.687 163.4L154.688 144.883H170.921C172.152 144.865 173.327 144.363 174.192 143.486C175.056 142.609 175.541 141.427 175.541 140.195C175.541 138.963 175.056 137.781 174.191 136.904C173.327 136.027 172.152 135.525 170.92 135.507H154.687V129.735C154.66 128.51 154.154 127.344 153.278 126.487C152.402 125.631 151.225 125.151 150 125.151C148.774 125.151 147.598 125.631 146.722 126.487C145.846 127.344 145.34 128.51 145.312 129.735V135.507H143.028C138.115 135.551 133.418 137.534 129.96 141.024C126.501 144.514 124.561 149.228 124.561 154.142C124.561 159.055 126.501 163.769 129.96 167.259C133.418 170.749 138.115 172.732 143.028 172.776H145.312V191.295H129.079ZM154.688 172.776C156.07 172.476 157.502 172.491 158.878 172.817C160.254 173.143 161.54 173.774 162.64 174.662C163.741 175.55 164.629 176.673 165.239 177.949C165.849 179.225 166.166 180.621 166.166 182.036C166.166 183.45 165.849 184.846 165.239 186.122C164.629 187.398 163.741 188.521 162.64 189.409C161.539 190.297 160.254 190.928 158.878 191.254C157.502 191.58 156.07 191.594 154.687 191.295L154.688 172.776ZM143.028 163.4C141.717 163.372 140.427 163.069 139.241 162.511C138.054 161.952 136.998 161.152 136.14 160.16C135.282 159.169 134.642 158.008 134.261 156.754C133.879 155.499 133.765 154.179 133.926 152.878C134.086 151.576 134.518 150.323 135.193 149.199C135.868 148.075 136.771 147.105 137.844 146.352C138.917 145.598 140.136 145.078 141.422 144.825C142.709 144.573 144.034 144.592 145.312 144.883V163.4H143.028Z" fill="#E65402"/>
<path d="M210.94 168.088C211.592 119.307 153.903 89.6136 114.649 118.428C113.664 119.161 113.006 120.251 112.815 121.464C112.625 122.677 112.918 123.916 113.632 124.915C114.345 125.915 115.422 126.594 116.631 126.808C117.84 127.021 119.085 126.752 120.098 126.058C167.839 93.2395 224.834 150.279 192.033 197.993C191.676 198.494 191.42 199.06 191.281 199.66C191.142 200.259 191.123 200.88 191.224 201.487C191.326 202.094 191.545 202.676 191.871 203.198C192.197 203.72 192.622 204.173 193.123 204.53C193.624 204.888 194.19 205.143 194.79 205.282C195.39 205.421 196.011 205.44 196.618 205.339C197.225 205.238 197.806 205.018 198.328 204.692C198.85 204.367 199.303 203.941 199.66 203.44C207.032 193.129 210.978 180.763 210.94 168.088ZM179.903 210.119C132.925 243.175 74.7044 185.269 107.967 138.185C108.661 137.172 108.929 135.928 108.715 134.72C108.502 133.511 107.822 132.435 106.824 131.722C105.825 131.009 104.586 130.716 103.374 130.906C102.161 131.096 101.072 131.754 100.339 132.738C71.5282 172.006 101.221 229.677 150.001 229.028C162.675 229.067 175.04 225.122 185.35 217.751C186.358 217.027 187.037 215.933 187.24 214.708C187.442 213.484 187.151 212.23 186.43 211.22C185.709 210.21 184.617 209.527 183.394 209.321C182.17 209.115 180.915 209.402 179.903 210.119ZM27.9774 100.446H91.1701C93.612 100.449 95.9554 99.4831 97.6863 97.7607C99.4173 96.0383 100.394 93.6997 100.404 91.2578V83.0543C100.412 79.1236 99.2798 75.2748 97.1444 71.9746C95.009 68.6744 91.9621 66.0645 88.373 64.4614C87.3049 63.8592 76.3994 60.3494 74.9925 59.8495C78.6098 56.7233 81.1825 52.5639 82.3643 47.9313C83.5461 43.2986 83.2803 38.4151 81.6027 33.9381C79.9251 29.4611 76.9161 25.6056 72.9809 22.8904C69.0457 20.1752 64.3731 18.7308 59.5922 18.7516C28.9969 19.6891 28.3274 63.8288 58.8606 65.6691C64.2161 65.2113 78.3453 71.1279 83.548 72.5914C85.7229 73.3491 87.6098 74.7618 88.9492 76.6353C90.2887 78.5089 91.015 80.7513 91.0282 83.0543L91.1702 91.07L28.1655 91.2575V83.0543C28.1674 80.9103 28.7941 78.8133 29.9689 77.0198C31.1438 75.2263 32.8157 73.814 34.7804 72.9556C35.9193 72.4566 36.8133 71.5256 37.2657 70.3674C37.7181 69.2093 37.6919 67.9188 37.1928 66.78C36.6938 65.6411 35.7628 64.7472 34.6046 64.2948C33.4465 63.8423 32.156 63.8685 31.0172 64.3676C27.3838 65.9574 24.2923 68.5715 22.1208 71.8902C19.9493 75.2088 18.7917 79.0883 18.7897 83.0543V91.2578C18.7924 93.6938 19.7612 96.0292 21.4836 97.7517C23.2061 99.4741 25.5415 100.443 27.9774 100.446ZM45.474 42.2474C45.5152 38.5296 47.0211 34.978 49.6647 32.3635C52.3084 29.7491 55.8764 28.2828 59.5945 28.2828C63.3126 28.2828 66.8806 29.7493 69.5242 32.3637C72.1678 34.9782 73.6736 38.5298 73.7147 42.2477C73.6735 45.9655 72.1676 49.5171 69.524 52.1315C66.8804 54.746 63.3123 56.2123 59.5942 56.2123C55.8761 56.2123 52.3081 54.7458 49.6645 52.1314C47.021 49.5169 45.5152 45.9653 45.474 42.2474ZM88.3913 245.275C87.3032 244.659 76.4231 241.164 74.9974 240.657C78.6134 237.53 81.1848 233.37 82.3655 228.738C83.5462 224.106 83.2796 219.223 81.6016 214.747C79.9235 210.27 76.9145 206.415 72.9796 203.701C69.0447 200.986 64.3726 199.542 59.5922 199.563C28.6047 200.551 28.5192 245.434 59.488 246.544C64.5339 246.145 78.6693 252.06 83.5484 253.396C85.7283 254.16 87.6178 255.582 88.9572 257.464C90.2966 259.346 91.0201 261.597 91.0282 263.907L91.1702 271.875L28.1655 272.062V263.907C28.1628 261.756 28.787 259.651 29.9617 257.849C31.1365 256.048 32.8109 254.628 34.7801 253.763C35.8955 253.248 36.7646 252.317 37.2006 251.169C37.6366 250.021 37.6048 248.747 37.1118 247.622C36.6189 246.497 35.7042 245.611 34.5645 245.153C33.4248 244.695 32.1509 244.703 31.0169 245.174C27.3791 246.771 24.2854 249.393 22.1139 252.72C19.9425 256.047 18.7873 259.934 18.7897 263.907V272.062C18.7924 274.498 19.7613 276.834 21.4837 278.556C23.2062 280.279 25.5415 281.247 27.9774 281.25H91.1701C93.6119 281.253 95.9553 280.287 97.6862 278.565C99.4172 276.843 100.394 274.504 100.404 272.062V263.907C100.417 259.972 99.2894 256.118 97.1574 252.811C95.0255 249.505 91.9805 246.887 88.3913 245.275ZM45.474 223.059C45.5152 219.341 47.0211 215.789 49.6647 213.175C52.3084 210.56 55.8764 209.094 59.5945 209.094C63.3126 209.094 66.8806 210.561 69.5242 213.175C72.1678 215.79 73.6736 219.341 73.7147 223.059C73.6735 226.777 72.1676 230.328 69.524 232.943C66.8804 235.557 63.3123 237.024 59.5942 237.024C55.8761 237.024 52.3081 235.557 49.6645 232.943C47.021 230.328 45.5152 226.777 45.474 223.059ZM268.983 245.174C267.848 244.701 266.574 244.692 265.433 245.15C264.292 245.607 263.376 246.494 262.883 247.62C262.39 248.746 262.358 250.021 262.795 251.169C263.233 252.318 264.103 253.249 265.22 253.763C267.189 254.628 268.864 256.048 270.039 257.849C271.213 259.651 271.838 261.756 271.835 263.907L272.023 271.875L208.972 272.062V263.907C208.981 261.718 209.633 259.579 210.847 257.758C212.062 255.936 213.785 254.512 215.802 253.662C221.184 252.051 234.901 246.33 240.513 246.544C271.482 245.445 271.387 200.533 240.407 199.563C235.653 199.599 231.022 201.076 227.124 203.799C223.227 206.522 220.247 210.363 218.578 214.815C216.91 219.266 216.63 224.12 217.778 228.734C218.925 233.348 221.444 237.505 225.003 240.657L213.769 244.414C209.654 245.754 206.067 248.361 203.521 251.862C200.976 255.362 199.602 259.578 199.596 263.907V272.062C199.606 274.504 200.583 276.843 202.314 278.565C204.045 280.287 206.388 281.253 208.83 281.25H272.023C274.458 281.247 276.794 280.278 278.516 278.556C280.239 276.834 281.207 274.498 281.21 272.062V263.907C281.212 259.934 280.057 256.047 277.886 252.72C275.714 249.393 272.621 246.771 268.983 245.174ZM240.408 208.938C244.125 208.981 247.675 210.487 250.289 213.13C252.903 215.774 254.368 219.341 254.368 223.059C254.368 226.776 252.903 230.343 250.289 232.987C247.675 235.63 244.125 237.137 240.408 237.179C236.691 237.137 233.14 235.63 230.527 232.987C227.913 230.343 226.447 226.776 226.447 223.059C226.447 219.341 227.913 215.774 230.527 213.13C233.14 210.487 236.691 208.981 240.408 208.938ZM268.983 64.3676C267.849 63.8957 266.575 63.8877 265.435 64.3454C264.295 64.8031 263.38 65.6899 262.887 66.815C262.394 67.9402 262.362 69.2139 262.798 70.3622C263.235 71.5105 264.104 72.4418 265.22 72.9556C267.185 73.8141 268.857 75.2264 270.031 77.0199C271.206 78.8134 271.833 80.9104 271.835 83.0543L272.023 91.07L208.972 91.2575V83.0543C208.991 80.7269 209.736 78.4635 211.104 76.5798C212.471 74.696 214.392 73.2859 216.598 72.5459C221.842 71.1199 235.761 65.1772 241.14 65.6693C271.674 63.8391 270.994 19.672 240.407 18.7518C235.652 18.7877 231.02 20.265 227.123 22.9887C223.225 25.7125 220.245 29.5544 218.577 34.0071C216.909 38.4598 216.631 43.3139 217.779 47.9281C218.927 52.5423 221.449 56.6996 225.009 59.8509L213.769 63.6103C209.659 64.9435 206.075 67.5418 203.529 71.0339C200.984 74.5261 199.607 78.7333 199.596 83.0547V91.2582C199.605 93.7 200.583 96.0386 202.313 97.761C204.044 99.4834 206.388 100.449 208.83 100.446H272.022C274.458 100.443 276.794 99.4744 278.516 97.7519C280.238 96.0295 281.207 93.6941 281.21 91.2582V83.0543C281.208 79.0884 280.05 75.2089 277.879 71.8902C275.707 68.5716 272.616 65.9575 268.983 64.3676ZM240.408 28.1271C244.095 28.1646 247.621 29.6442 250.231 32.2492C252.84 34.8541 254.326 38.3773 254.371 42.0643C254.415 45.7514 253.014 49.3093 250.468 51.9762C247.922 54.6432 244.432 56.2072 240.747 56.3334C238.869 56.3978 236.997 56.0863 235.241 55.4173C233.486 54.7483 231.881 53.7353 230.522 52.4378C229.163 51.1402 228.077 49.5842 227.327 47.8611C226.578 46.138 226.18 44.2826 226.158 42.4037C226.135 40.5248 226.488 38.6604 227.196 36.9198C227.903 35.1792 228.952 33.5975 230.279 32.2676C231.607 30.9377 233.186 29.8864 234.926 29.1754C236.665 28.4643 238.529 28.1079 240.408 28.1271Z" fill="black"/>
</svg>
