<svg width="199" height="200" viewBox="0 0 199 200" fill="none" xmlns="http://www.w3.org/2000/svg">
<path d="M166.667 62.4063H118.625L118 58.4062L129.25 46.9061C130.333 45.8228 130.708 44.198 130.25 42.6978C129.75 41.2395 128.5 40.1561 126.958 39.9062L111.125 37.2395L103.708 22.9895C102.25 20.2397 97.7501 20.2397 96.2916 22.9895L88.875 37.2395L73.0417 39.9062C71.4998 40.1562 70.2499 41.2395 69.7499 42.6978C69.2916 44.198 69.6665 45.8228 70.7499 46.9061L81.9999 58.4062L81.3751 62.4063H33.3333C26.4582 62.4063 20.8333 68.0312 20.8333 74.9063V166.573C20.8333 173.448 26.4582 179.073 33.3333 179.073H166.667C173.542 179.073 179.167 173.448 179.167 166.573V74.9063C179.167 68.0312 173.542 62.4063 166.667 62.4063ZM92.2917 45.1145C93.5834 44.8645 94.7082 44.0728 95.2916 42.9063L100 33.9062L104.708 42.9063C105.292 44.0728 106.416 44.8645 107.708 45.1145L117.708 46.7813L110.625 54.0312C109.708 54.9895 109.291 56.2811 109.458 57.5728L110.958 67.6146L101.875 63.1145C101.25 62.8228 100.625 62.6562 100 62.6562C99.3749 62.6562 98.75 62.8228 98.1249 63.1145L89.0416 67.6146L90.5416 57.5728C90.7084 56.2811 90.2916 54.9895 89.375 54.0312L82.2917 46.7813L92.2917 45.1145ZM170.833 79.0729H129.167C126.875 79.0729 125 80.948 125 83.2396C125 85.5312 126.875 87.4063 129.167 87.4063H170.833V166.573C170.833 168.865 168.958 170.74 166.667 170.74H33.3333C31.0417 170.74 29.1667 168.865 29.1667 166.573V87.4063H70.8333C73.125 87.4063 75 85.5312 75 83.2396C75 80.948 73.125 79.0729 70.8333 79.0729H29.1667V74.9063C29.1667 72.6146 31.0417 70.7396 33.3333 70.7396H80.1666L79.6249 74.2812C79.4167 75.8228 80.0418 77.3645 81.2917 78.2813C82.5834 79.1978 84.2084 79.3229 85.625 78.6561L100 71.4896C100 71.4896 114.375 78.6561 114.376 78.6567C115.789 79.3626 117.445 79.2077 118.708 78.2813C119.958 77.3645 120.583 75.8228 120.375 74.2812L119.833 70.7396H166.667C168.958 70.7396 170.833 72.6146 170.833 74.9063V79.0729Z" fill="black"/>
<path d="M70.8333 95.7396C52.4536 95.7396 37.5 110.693 37.5 129.073C37.5 147.453 52.4536 162.406 70.8333 162.406C89.213 162.406 104.167 147.453 104.167 129.073C104.167 110.693 89.213 95.7396 70.8333 95.7396ZM70.8333 154.073C63.4423 154.073 56.811 150.831 52.2303 145.716C56.9173 140.467 63.6734 137.406 70.8333 137.406C77.5126 137.406 83.7931 140.006 88.5132 144.726C88.8461 145.059 89.0773 145.429 89.3845 145.773C84.8053 150.855 78.1965 154.073 70.8333 154.073ZM66.6667 124.906C66.6667 122.609 68.5364 120.74 70.8333 120.74C73.1303 120.74 75 122.609 75 124.906C75 127.203 73.1303 129.073 70.8333 129.073C68.5364 129.073 66.6667 127.203 66.6667 124.906ZM93.9896 138.458C90.4432 135.027 86.2661 132.489 81.722 130.922C82.7172 129.129 83.3334 127.098 83.3334 124.906C83.3334 118.013 77.7263 112.406 70.8334 112.406C63.9405 112.406 58.3334 118.013 58.3334 124.906C58.3334 127.107 58.9539 129.145 59.9559 130.943C55.3711 132.527 51.1933 135.103 47.6924 138.499C46.5019 135.587 45.8333 132.408 45.8333 129.073C45.8333 115.287 57.0475 104.073 70.8333 104.073C84.6191 104.073 95.8333 115.287 95.8333 129.073C95.8333 132.393 95.1696 135.557 93.9896 138.458ZM158.333 95.7396H116.667C114.366 95.7396 112.5 97.6052 112.5 99.9063V116.573C112.5 118.874 114.366 120.74 116.667 120.74H158.333C160.634 120.74 162.5 118.874 162.5 116.573V99.9063C162.5 97.6052 160.634 95.7396 158.333 95.7396ZM154.167 112.406H120.833V104.073H154.167V112.406ZM116.667 137.406H141.667C143.968 137.406 145.833 135.541 145.833 133.24C145.833 130.939 143.968 129.073 141.667 129.073H116.667C114.366 129.073 112.5 130.939 112.5 133.24C112.5 135.541 114.366 137.406 116.667 137.406ZM158.333 145.74H116.667C114.366 145.74 112.5 147.605 112.5 149.906C112.5 152.207 114.366 154.073 116.667 154.073H158.333C160.634 154.073 162.5 152.207 162.5 149.906C162.5 147.605 160.634 145.74 158.333 145.74Z" fill="#E65402"/>
</svg>
