<svg id="Layer_1" enable-background="new 0 0 512 512" viewBox="0 0 512 512" xmlns="http://www.w3.org/2000/svg"><path clip-rule="evenodd" d="m472.44 184.99-4.05 160.55c-.43 16.95-7.03 31.35-19.56 42.72l-23.67 21.49c-10.26 9.3-16.53 20.64-18.71 33.7l-103.32-.11 1.36-54.51c.6-23.39 9.69-43.28 27.01-58.99 21.6-19.59 43.23-39.2 64.83-58.82 7.17-6.49 17.23-7.85 25.65-4.34l.06.03c3.15 1.33 6.04 3.34 8.48 6.04 8.93 9.86 8.16 25.28-1.7 34.24-21.23 19.25-27.27 24.75-45.92 41.64-3.2 2.89-3.74 7.65-1.3 11.2l1.39 2.04c1.45 2.1 3.52 3.32 6.04 3.63 2.52.28 4.82-.45 6.72-2.15l46.15-41.87c17.8-16.16 19.19-43.99 3.06-61.85-6.18-6.83-14.06-11.25-22.45-13.21l1.56-62.65c.34-13.35 11.51-23.98 24.8-23.64 13.28.34 23.91 11.51 23.57 24.86zm-47.79 278-141.56-.14c-3.49 0-6.35 2.83-6.35 6.32l-.03 36.34c0 3.49 2.83 6.35 6.32 6.35l141.56.14c3.49 0 6.35-2.83 6.35-6.32l.03-36.34c0-3.49-2.84-6.35-6.32-6.35zm-83.31-291.77c16.1 0 29.25-13.12 29.25-29.25s-13.15-29.28-29.25-29.28c-16.13 0-29.28 13.15-29.28 29.28s13.15 29.25 29.28 29.25zm-15.93 77.27h63.07c3.71 0 6.75-3.03 6.75-6.72v-21.15c0-20.75-16.98-37.73-37.73-37.73h-32.34c-4.28 0-8.36.74-12.22 2.04 8.39 9.55 13.46 22.05 13.46 35.69v21.15c0 2.32-.34 4.59-.99 6.72zm-126.34-63.55c-3.86-1.3-7.94-2.04-12.22-2.04h-32.34c-20.75 0-37.73 16.98-37.73 37.73v21.15c0 3.69 3.03 6.72 6.75 6.72h63.07c-.65-2.13-.99-4.39-.99-6.72v-21.15c-.01-13.64 5.07-26.14 13.46-35.69zm-57.66-42.98c0 16.13 13.15 29.25 29.25 29.25 16.13 0 29.28-13.12 29.28-29.25s-13.15-29.28-29.28-29.28c-16.1 0-29.25 13.15-29.25 29.28zm67.44 106.53h94.31c3.71 0 6.72-3.03 6.72-6.72v-21.15c0-20.75-16.95-37.73-37.7-37.73h-32.34c-20.75 0-37.7 16.98-37.7 37.73v21.15c-.01 3.69 2.99 6.72 6.71 6.72zm47.16-135.81c-16.13 0-29.28 13.15-29.28 29.28s13.15 29.25 29.28 29.25c16.1 0 29.25-13.12 29.25-29.25s-13.14-29.28-29.25-29.28zm-39.88-77.78 18.08 13.07c1.53 1.11 2.15 3 1.56 4.82l-6.94 21.2c-.57 1.81.03 3.69 1.56 4.82 1.53 1.11 3.51 1.11 5.05-.03l18.03-13.15c1.53-1.11 3.54-1.11 5.07 0l18.03 13.15c1.53 1.13 3.52 1.13 5.05.03 1.53-1.13 2.13-3 1.56-4.82l-6.94-21.2c-.6-1.81.03-3.71 1.56-4.82l18.08-13.07c1.53-1.13 2.15-3 1.56-4.82-.6-1.79-2.18-2.95-4.08-2.95l-22.34.06c-1.87 0-3.49-1.19-4.08-2.98l-6.86-21.26c-.58-1.78-2.19-2.95-4.07-2.95-1.9 0-3.51 1.16-4.08 2.95l-6.86 21.26c-.6 1.79-2.21 2.98-4.08 2.98l-22.34-.06c-1.9 0-3.49 1.16-4.08 2.95-.59 1.81.03 3.68 1.56 4.82zm106.9 0 18.08 13.07c1.53 1.11 2.15 3 1.56 4.82l-6.94 21.2c-.6 1.81.03 3.69 1.56 4.82 1.53 1.11 3.51 1.11 5.05-.03l18.03-13.15c1.53-1.11 3.51-1.11 5.05 0l18.06 13.15c1.5 1.13 3.49 1.13 5.02.03 1.53-1.13 2.15-3 1.56-4.82l-6.94-21.2c-.57-1.81.03-3.71 1.56-4.82l18.08-13.07c1.56-1.13 2.15-3 1.59-4.82-.6-1.79-2.21-2.95-4.08-2.95l-22.34.06c-1.9 0-3.51-1.19-4.08-2.98l-6.86-21.26c-.6-1.79-2.18-2.95-4.08-2.95s-3.49 1.16-4.08 2.95l-6.86 21.26c-.57 1.79-2.18 2.98-4.08 2.98l-22.31-.06c-1.9 0-3.51 1.16-4.08 2.95-.63 1.81-.01 3.68 1.53 4.82zm-213.77 0 18.09 13.07c1.53 1.11 2.13 3 1.56 4.82l-6.95 21.2c-.6 1.81.03 3.69 1.56 4.82 1.53 1.11 3.52 1.11 5.05-.03l18.03-13.15c1.53-1.11 3.52-1.11 5.05 0l18.03 13.15c1.53 1.13 3.51 1.13 5.05.03 1.53-1.13 2.15-3 1.56-4.82l-6.95-21.2c-.6-1.81.03-3.71 1.56-4.82l18.09-13.07c1.53-1.13 2.15-3 1.56-4.82-.57-1.79-2.18-2.95-4.08-2.95l-22.31.06c-1.9 0-3.52-1.19-4.08-2.98l-6.88-21.26c-.6-1.79-2.18-2.95-4.08-2.95s-3.49 1.16-4.08 2.95l-6.86 21.26c-.57 1.79-2.18 2.98-4.08 2.98l-22.34-.06c-1.87 0-3.49 1.16-4.08 2.95-.57 1.81.03 3.68 1.58 4.82zm-3.71 408.56 103.32-.11-1.36-54.51c-.6-23.39-9.69-43.28-27.01-58.99-21.6-19.59-43.23-39.2-64.83-58.82-7.17-6.49-17.23-7.85-25.65-4.34l-.06.03c-3.15 1.33-6.04 3.34-8.48 6.04-8.93 9.86-8.16 25.28 1.7 34.24 21.23 19.25 27.27 24.75 45.92 41.64 3.2 2.89 3.74 7.65 1.3 11.2l-1.39 2.04c-1.45 2.1-3.51 3.32-6.04 3.63-2.52.28-4.82-.45-6.72-2.15l-46.15-41.87c-17.8-16.16-19.19-43.99-3.06-61.85 6.18-6.83 14.06-11.25 22.45-13.21l-1.56-62.65c-.34-13.35-11.51-23.98-24.8-23.64s-23.92 11.51-23.58 24.86l4.05 160.55c.43 16.95 7.03 31.35 19.56 42.72l23.7 21.49c10.24 9.29 16.51 20.63 18.69 33.7zm123.36 19.38-141.56.14c-3.49 0-6.32 2.86-6.32 6.35l.03 36.34c0 3.49 2.86 6.32 6.35 6.32l141.56-.14c3.49 0 6.32-2.86 6.32-6.35l-.03-36.34c0-3.48-2.86-6.32-6.35-6.32z" fill-rule="evenodd"/></svg>