<?xml version="1.0" encoding="iso-8859-1"?>
<!-- Generator: Adobe Illustrator 19.0.0, SVG Export Plug-In . SVG Version: 6.00 Build 0)  -->
<svg version="1.1" id="Layer_1" xmlns="http://www.w3.org/2000/svg" xmlns:xlink="http://www.w3.org/1999/xlink" x="0px" y="0px"
	 viewBox="0 0 512 512" style="enable-background:new 0 0 512 512;" xml:space="preserve">
<g>
	<g>
		<circle cx="77.229" cy="54.155" r="41.9"/>
	</g>
</g>
<g>
	<g>
		<circle cx="400.139" cy="42.136" r="42.136"/>
	</g>
</g>
<g>
	<g>
		<path d="M454.821,97.761h-22.71l-31.889,83.31l-32.485-83.31h-22.279c-26.81,0-48.729,21.474-48.862,47.973v29.822l-46.691-25.823
			c8.478-4.362,14.282-13.191,14.282-23.382V87.261c0-3.273-2.654-5.926-5.926-5.926h-40.717c-3.273,0-5.927,2.654-5.927,5.926
			v23.589c-1.077-1.483-2.812-2.457-4.785-2.457h-40.717c-3.273,0-5.926,2.654-5.926,5.926v39.09
			c0,11.594,7.51,21.429,17.929,24.921v8.508l-57.875,6.857l-46.758-55.013l50.565,35.428l-0.145-34.828
			c-0.065-15.63-12.804-28.141-28.44-28.066H44.988c-15.625,0.075-28.235,12.918-28.169,28.543l0.712,170.863h0.116l-8.419,178.22
			C8.632,501.421,18.657,512,31.332,512c11.733,0,21.511-9.227,22.07-21.07l8.527-180.519l27.612-0.133l18.807,42.434l8.228,138.485
			c0.725,12.197,11.202,21.49,23.385,20.762c12.19-0.724,21.487-11.195,20.762-23.385l-8.465-142.477
			c-0.157-2.64-0.787-5.231-1.857-7.648l-25.912-58.463l-0.126-30.193l-7.619,0.902c-17.329,2.051-31.051-8.524-35.058-16.339
			L46.27,165.291l51.633,60.75c4.09,4.81,10.379,7.304,16.699,6.558l63.516-7.527v6.007h-5.013c-4.615,0-8.356,3.741-8.356,8.356
			c0,4.615,3.741,8.356,8.356,8.356h26.738c4.615,0,8.356-3.741,8.356-8.356c0-4.615-3.741-8.356-8.356-8.356h-5.013v-8.675
			c8.015-3.253,12.704-11.414,11.708-19.815c-0.754-6.364-4.605-12.201-11.708-15.344v-8.913
			c10.419-3.493,17.929-13.326,17.929-24.921v-19.383c2.103,6.9,6.97,12.59,13.309,15.795c-2.382,1.706-4.444,3.934-5.956,6.668
			c-5.433,9.825-1.874,22.196,7.951,27.63l1.484,0.821v19.082h-5.013c-4.615,0-8.356,3.741-8.356,8.356
			c0,4.615,3.741,8.356,8.356,8.356h26.738c4.615,0,8.356-3.741,8.356-8.356c0-4.615-3.741-8.356-8.356-8.356h-5.013v-9.84
			l60.83,33.642c13.526,7.482,30.171-2.32,30.171-17.791v-64.195c0-0.001,0-0.002,0-0.003c0.013-2.43,1.991-4.391,4.422-4.384
			c2.431,0.007,4.395,1.98,4.396,4.41l0.009,341.743c0,13.474,10.923,24.397,24.397,24.397s24.397-10.923,24.397-24.397V292.596
			h10.534v195.006c0,13.474,10.923,24.397,24.397,24.397s24.397-10.923,24.397-24.397c0-91.217-0.424-249.221-0.442-343.221
			c0-2.339,1.895-4.235,4.234-4.236c2.339-0.001,4.236,1.894,4.237,4.232c0,0.422-0.031,0.873-0.099,1.357v149.362
			c0,11.229,9.102,20.331,20.331,20.331s20.331-9.102,20.331-20.331V145.633C502.663,119.237,481.142,97.761,454.821,97.761z"/>
	</g>
</g>
<g>
	<g>
		<circle cx="400.161" cy="151.317" r="5.57"/>
	</g>
</g>
<g>
	<g>
		<circle cx="400.161" cy="129.035" r="5.571"/>
	</g>
</g>
<g>
	<g>
		<path d="M414.329,91.598l-14.168,7.382l-14.168-7.382c-2.48-1.292-5.454,0.51-5.454,3.308v17.585c0,2.795,2.972,4.601,5.454,3.308
			l14.168-7.382l14.168,7.382c2.479,1.292,5.453-0.51,5.453-3.308V94.906C419.783,92.109,416.811,90.306,414.329,91.598z"/>
	</g>
</g>
<g>
</g>
<g>
</g>
<g>
</g>
<g>
</g>
<g>
</g>
<g>
</g>
<g>
</g>
<g>
</g>
<g>
</g>
<g>
</g>
<g>
</g>
<g>
</g>
<g>
</g>
<g>
</g>
<g>
</g>
</svg>
