<svg id="Layer_1" viewBox="0 0 512 512" xmlns="http://www.w3.org/2000/svg" data-name="Layer 1"><path d="m255.992 499.988a4.529 4.529 0 0 1 -3.859-1.9l-72.861-94.545c-39.873-51.718-40.081-115.475-.509-155.042a109.543 109.543 0 0 1 154.457 0c39.572 39.567 39.359 103.324-.51 155.042l-72.86 94.545a4.535 4.535 0 0 1 -3.858 1.9zm-152.092-65.86h83.781l-17.92-23.25c-20.2-26.209-31.765-57.111-32.563-87-.858-32.369 10.581-61.365 33.072-83.861a121.571 121.571 0 0 1 171.439 0c22.491 22.5 33.93 51.492 33.071 83.861-.8 29.887-12.363 60.789-32.562 87l-17.92 23.25h83.78a25.688 25.688 0 0 0 25.662-25.661v-222.6a60.281 60.281 0 0 1 -69.21-32.185 60.264 60.264 0 0 1 -108.54 0 60.264 60.264 0 0 1 -108.541 0 60.281 60.281 0 0 1 -69.21 32.185v222.6a25.688 25.688 0 0 0 25.661 25.661zm-36.027-416.115a7.417 7.417 0 0 1 7.406-6.024h74.455l-7.321 101.911h-94.531l19.991-95.89zm376.237 0 20 95.89h-97.81l3.25-.232-7.25-100.927-11.958.863 7.189 100.3h-95.54v-101.918h174.709a7.417 7.417 0 0 1 7.406 6.024zm-289.659 95.887 7.26-101.154-10.553-.76h98.833v101.914zm114.9 391.52 45.7-59.3h93.03a37.713 37.713 0 0 0 37.681-37.661v-227.1a60.336 60.336 0 0 0 33.3-53.879 5.436 5.436 0 0 0 -.141-1.227l-23.066-110.688a19.367 19.367 0 0 0 -19.155-15.576h-361.421a19.4 19.4 0 0 0 -19.156 15.576l-23.072 110.691a5.726 5.726 0 0 0 -.132 1.227 60.305 60.305 0 0 0 33.322 53.879v227.105a37.694 37.694 0 0 0 37.659 37.661h93.027l45.7 59.3a16.873 16.873 0 0 0 26.718 0zm-13.359-228.971a56.714 56.714 0 1 0 56.718 56.709 56.782 56.782 0 0 0 -56.718-56.709z" fill-rule="evenodd"/></svg>