<svg width="192" height="192" viewBox="0 0 192 192" fill="none" xmlns="http://www.w3.org/2000/svg">
<path d="M111 162H105V132.6C105 131.804 104.684 131.041 104.121 130.479C103.559 129.916 102.796 129.6 102 129.6C101.204 129.6 100.441 129.916 99.8787 130.479C99.3161 131.041 99 131.804 99 132.6V162H21V102H45.96C46.7556 102 47.5187 101.684 48.0813 101.121C48.6439 100.559 48.96 99.7956 48.96 99C48.96 98.2044 48.6439 97.4413 48.0813 96.8787C47.5187 96.3161 46.7556 96 45.96 96H18C17.2044 96 16.4413 96.3161 15.8787 96.8787C15.3161 97.4413 15 98.2044 15 99V162H9C8.20435 162 7.44129 162.316 6.87868 162.879C6.31607 163.441 6 164.204 6 165V171C6 174.978 7.58035 178.794 10.3934 181.607C13.2064 184.42 17.0218 186 21 186H99C102.978 186 106.794 184.42 109.607 181.607C112.42 178.794 114 174.978 114 171V165C114 164.204 113.684 163.441 113.121 162.879C112.559 162.316 111.796 162 111 162ZM108 171C108 173.387 107.052 175.676 105.364 177.364C103.676 179.052 101.387 180 99 180H93V177C93 176.204 92.6839 175.441 92.1213 174.879C91.5587 174.316 90.7956 174 90 174C89.2044 174 88.4413 174.316 87.8787 174.879C87.3161 175.441 87 176.204 87 177V180H33V177C33 176.204 32.6839 175.441 32.1213 174.879C31.5587 174.316 30.7956 174 30 174C29.2044 174 28.4413 174.316 27.8787 174.879C27.3161 175.441 27 176.204 27 177V180H21C18.6131 180 16.3239 179.052 14.636 177.364C12.9482 175.676 12 173.387 12 171V168H108V171Z" fill="black"/>
<path d="M162 24H168C168.796 24 169.559 23.6839 170.121 23.1213C170.684 22.5587 171 21.7956 171 21C171 20.2044 170.684 19.4413 170.121 18.8787C169.559 18.3161 168.796 18 168 18H162C159.613 18 157.324 18.9482 155.636 20.636C153.948 22.3239 153 24.6131 153 27V30H150C149.204 30 148.441 30.3161 147.879 30.8787C147.316 31.4413 147 32.2044 147 33C147 33.7956 147.316 34.5587 147.879 35.1213C148.441 35.6839 149.204 36 150 36H153V45C153 45.7956 153.316 46.5587 153.879 47.1213C154.441 47.6839 155.204 48 156 48C156.796 48 157.559 47.6839 158.121 47.1213C158.684 46.5587 159 45.7956 159 45V36H162C162.796 36 163.559 35.6839 164.121 35.1213C164.684 34.5587 165 33.7956 165 33C165 32.2044 164.684 31.4413 164.121 30.8787C163.559 30.3161 162.796 30 162 30H159V27C159 26.2044 159.316 25.4413 159.879 24.8787C160.441 24.3161 161.204 24 162 24Z" fill="#E65402"/>
<path d="M177 6H141C138.613 6 136.324 6.94821 134.636 8.63604C132.948 10.3239 132 12.6131 132 15V21C132 21.7956 132.316 22.5587 132.879 23.1213C133.441 23.6839 134.204 24 135 24C135.796 24 136.559 23.6839 137.121 23.1213C137.684 22.5587 138 21.7956 138 21V15C138 14.2044 138.316 13.4413 138.879 12.8787C139.441 12.3161 140.204 12 141 12H177C177.796 12 178.559 12.3161 179.121 12.8787C179.684 13.4413 180 14.2044 180 15V51C180 51.7956 179.684 52.5587 179.121 53.1213C178.559 53.6839 177.796 54 177 54H141C140.204 54 139.441 53.6839 138.879 53.1213C138.316 52.5587 138 51.7956 138 51V33C138 32.2044 137.684 31.4413 137.121 30.8787C136.559 30.3161 135.796 30 135 30C134.204 30 133.441 30.3161 132.879 30.8787C132.316 31.4413 132 32.2044 132 33V51C132 53.3869 132.948 55.6761 134.636 57.364C136.324 59.0518 138.613 60 141 60H177C179.387 60 181.676 59.0518 183.364 57.364C185.052 55.6761 186 53.3869 186 51V15C186 12.6131 185.052 10.3239 183.364 8.63604C181.676 6.94821 179.387 6 177 6Z" fill="black"/>
<path d="M147 126C147 128.373 147.704 130.693 149.022 132.667C150.341 134.64 152.215 136.178 154.408 137.087C156.601 137.995 159.013 138.232 161.341 137.769C163.669 137.306 165.807 136.164 167.485 134.485C169.164 132.807 170.306 130.669 170.769 128.341C171.232 126.013 170.995 123.601 170.087 121.408C169.178 119.215 167.64 117.341 165.667 116.022C163.693 114.704 161.373 114 159 114C155.817 114 152.765 115.264 150.515 117.515C148.264 119.765 147 122.817 147 126ZM165 126C165 127.187 164.648 128.347 163.989 129.333C163.33 130.32 162.392 131.089 161.296 131.543C160.2 131.997 158.993 132.116 157.829 131.885C156.666 131.653 155.596 131.082 154.757 130.243C153.918 129.404 153.347 128.334 153.115 127.171C152.884 126.007 153.003 124.8 153.457 123.704C153.911 122.608 154.68 121.67 155.667 121.011C156.653 120.352 157.813 120 159 120C160.591 120 162.117 120.632 163.243 121.757C164.368 122.883 165 124.409 165 126Z" fill="#E65402"/>
<path d="M177 99H141C138.613 99 136.324 99.9482 134.636 101.636C132.948 103.324 132 105.613 132 108V144C132 146.387 132.948 148.676 134.636 150.364C136.324 152.052 138.613 153 141 153H177C179.387 153 181.676 152.052 183.364 150.364C185.052 148.676 186 146.387 186 144V138C186 137.204 185.684 136.441 185.121 135.879C184.559 135.316 183.796 135 183 135C182.204 135 181.441 135.316 180.879 135.879C180.316 136.441 180 137.204 180 138V144C180 144.796 179.684 145.559 179.121 146.121C178.559 146.684 177.796 147 177 147H141C140.204 147 139.441 146.684 138.879 146.121C138.316 145.559 138 144.796 138 144V108C138 107.204 138.316 106.441 138.879 105.879C139.441 105.316 140.204 105 141 105H177C177.796 105 178.559 105.316 179.121 105.879C179.684 106.441 180 107.204 180 108V126C180 126.796 180.316 127.559 180.879 128.121C181.441 128.684 182.204 129 183 129C183.796 129 184.559 128.684 185.121 128.121C185.684 127.559 186 126.796 186 126V108C186 105.613 185.052 103.324 183.364 101.636C181.676 99.9482 179.387 99 177 99Z" fill="black"/>
<path d="M73.41 41.55C73.8874 41.8459 74.4383 42.0018 75 42C75.4696 41.9972 75.932 41.8842 76.35 41.67L94.35 32.67C94.8414 32.4182 95.2538 32.0358 95.5418 31.5647C95.8297 31.0936 95.9821 30.5521 95.9821 30C95.9821 29.4479 95.8297 28.9064 95.5418 28.4353C95.2538 27.9642 94.8414 27.5818 94.35 27.33L76.35 18.33C75.8933 18.0999 75.3854 17.9903 74.8744 18.0117C74.3635 18.0331 73.8665 18.1848 73.4307 18.4523C72.9948 18.7198 72.6346 19.0943 72.3842 19.5402C72.1338 19.9861 72.0016 20.4886 72 21V39C71.999 39.5098 72.1279 40.0115 72.3746 40.4577C72.6213 40.9039 72.9777 41.2798 73.41 41.55ZM78 25.86L86.28 30L78 34.14V25.86Z" fill="#E65402"/>
<path d="M81 57C86.3401 57 91.5603 55.4165 96.0004 52.4497C100.441 49.4829 103.901 45.2661 105.945 40.3324C107.988 35.3988 108.523 29.97 107.481 24.7326C106.439 19.4951 103.868 14.6841 100.092 10.9081C96.3159 7.1321 91.5049 4.5606 86.2674 3.51879C81.03 2.47699 75.6012 3.01168 70.6675 5.05525C65.7339 7.09882 61.5171 10.5595 58.5503 14.9996C55.5835 19.4397 54 24.6599 54 30C54 37.1608 56.8446 44.0284 61.9081 49.0919C66.9716 54.1554 73.8392 57 81 57ZM81 9C85.1534 9 89.2135 10.2316 92.667 12.5391C96.1204 14.8466 98.812 18.1264 100.401 21.9636C101.991 25.8009 102.407 30.0233 101.596 34.0969C100.786 38.1705 98.7861 41.9123 95.8492 44.8492C92.9123 47.7861 89.1705 49.7862 85.0969 50.5965C81.0233 51.4068 76.8009 50.9909 72.9636 49.4015C69.1264 47.812 65.8466 45.1204 63.5391 41.667C61.2316 38.2135 60 34.1534 60 30C60 24.4304 62.2125 19.089 66.1508 15.1508C70.089 11.2125 75.4305 9 81 9Z" fill="black"/>
<path d="M111 69C111.466 69 111.925 68.8916 112.342 68.6833C112.758 68.475 113.121 68.1726 113.4 67.8L122.4 55.8C122.877 55.1635 123.082 54.3634 122.97 53.5757C122.857 52.7881 122.437 52.0774 121.8 51.6C121.163 51.1226 120.363 50.9176 119.576 51.0301C118.788 51.1427 118.077 51.5635 117.6 52.2L108.6 64.2C108.123 64.8365 107.918 65.6366 108.03 66.4243C108.143 67.2119 108.563 67.9226 109.2 68.4C109.719 68.7895 110.351 69 111 69Z" fill="black"/>
<path d="M117.6 79.8C117.879 80.1726 118.242 80.475 118.658 80.6833C119.075 80.8916 119.534 81 120 81C120.649 81 121.281 80.7895 121.8 80.4L133.8 71.4C134.437 70.9226 134.857 70.2119 134.97 69.4243C135.082 68.6366 134.877 67.8365 134.4 67.2C133.923 66.5635 133.212 66.1427 132.424 66.0301C131.637 65.9176 130.837 66.1226 130.2 66.6L118.2 75.6C117.563 76.0774 117.143 76.7881 117.03 77.5757C116.918 78.3634 117.123 79.1635 117.6 79.8Z" fill="black"/>
<path d="M147 86.4C146.929 86.0023 146.778 85.623 146.556 85.2851C146.335 84.9471 146.047 84.6574 145.711 84.4332C145.375 84.2091 144.997 84.0552 144.6 83.9807C144.203 83.9063 143.795 83.9128 143.4 84L128.4 87C128.006 87.0394 127.624 87.156 127.275 87.3432C126.926 87.5303 126.617 87.7844 126.367 88.0908C125.86 88.7097 125.62 89.5044 125.7 90.3C125.78 91.0956 126.172 91.8271 126.791 92.3334C127.41 92.8398 128.204 93.0796 129 93H129.6L144.6 90C144.998 89.9287 145.377 89.7778 145.715 89.5563C146.053 89.3348 146.343 89.0474 146.567 88.7112C146.791 88.375 146.945 87.997 147.019 87.5998C147.094 87.2027 147.087 86.7946 147 86.4Z" fill="black"/>
<path d="M9 87H45C45.7956 87 46.5587 86.6839 47.1213 86.1213C47.6839 85.5587 48 84.7956 48 84V36C48 35.2044 47.6839 34.4413 47.1213 33.8787C46.5587 33.3161 45.7956 33 45 33H9C8.20435 33 7.44129 33.3161 6.87868 33.8787C6.31607 34.4413 6 35.2044 6 36V84C6 84.7956 6.31607 85.5587 6.87868 86.1213C7.44129 86.6839 8.20435 87 9 87ZM12 39H42V81H12V39Z" fill="black"/>
<path d="M33 45H27C26.2044 45 25.4413 45.3161 24.8787 45.8787C24.3161 46.4413 24 47.2044 24 48C24 48.7956 24.3161 49.5587 24.8787 50.1213C25.4413 50.6839 26.2044 51 27 51H33C33.7956 51 34.5587 50.6839 35.1213 50.1213C35.6839 49.5587 36 48.7956 36 48C36 47.2044 35.6839 46.4413 35.1213 45.8787C34.5587 45.3161 33.7956 45 33 45Z" fill="#E65402"/>
<path d="M33 57H21C20.2044 57 19.4413 57.3161 18.8787 57.8787C18.3161 58.4413 18 59.2044 18 60C18 60.7956 18.3161 61.5587 18.8787 62.1213C19.4413 62.6839 20.2044 63 21 63H33C33.7956 63 34.5587 62.6839 35.1213 62.1213C35.6839 61.5587 36 60.7956 36 60C36 59.2044 35.6839 58.4413 35.1213 57.8787C34.5587 57.3161 33.7956 57 33 57Z" fill="#E65402"/>
<path d="M33 69H21C20.2044 69 19.4413 69.3161 18.8787 69.8787C18.3161 70.4413 18 71.2044 18 72C18 72.7956 18.3161 73.5587 18.8787 74.1213C19.4413 74.6839 20.2044 75 21 75H33C33.7956 75 34.5587 74.6839 35.1213 74.1213C35.6839 73.5587 36 72.7956 36 72C36 71.2044 35.6839 70.4413 35.1213 69.8787C34.5587 69.3161 33.7956 69 33 69Z" fill="#E65402"/>
<path d="M108.36 86.1C108.163 85.7572 107.9 85.4567 107.587 85.2154C107.274 84.9741 106.917 84.7969 106.535 84.6938C106.153 84.5907 105.755 84.5638 105.363 84.6146C104.971 84.6655 104.593 84.793 104.25 84.99C103.907 85.187 103.607 85.4495 103.365 85.7627C103.124 86.0758 102.947 86.4335 102.844 86.8151C102.741 87.1968 102.714 87.595 102.765 87.987C102.815 88.3791 102.943 88.7572 103.14 89.1L116.37 111.99L68.37 129.99C68.37 129.99 68.37 129.99 68.16 129.99H67.92L60.12 134.49L54.93 137.49C54.2467 137.885 53.4923 138.141 52.7098 138.244C51.9273 138.347 51.1322 138.295 50.37 138.09C48.8388 137.676 47.5337 136.673 46.74 135.3L40.74 124.92C40.0341 123.562 39.8739 121.985 40.2922 120.513C40.7104 119.041 41.6755 117.784 42.99 117L53.37 111L60.87 123.99C61.1343 124.448 61.5149 124.828 61.9732 125.091C62.4316 125.354 62.9514 125.492 63.48 125.49C64.0076 125.492 64.5265 125.355 64.9842 125.093C65.4419 124.83 65.8223 124.452 66.087 123.995C66.3517 123.539 66.4914 123.021 66.4919 122.493C66.4925 121.965 66.3538 121.447 66.09 120.99L58.35 107.61L96 76.56L97.23 78.69C97.427 79.0327 97.6895 79.3333 98.0027 79.5746C98.3159 79.8159 98.6735 79.9931 99.0551 80.0962C99.4368 80.1993 99.835 80.2262 100.227 80.1753C100.619 80.1245 100.997 79.997 101.34 79.8C101.683 79.603 101.983 79.3405 102.225 79.0273C102.466 78.7141 102.643 78.3565 102.746 77.9749C102.849 77.5932 102.876 77.195 102.825 76.803C102.775 76.4109 102.647 76.0327 102.45 75.69L99.45 70.5C99.2301 70.1241 98.9311 69.8006 98.5736 69.552C98.2162 69.3033 97.8089 69.1354 97.38 69.06C96.9488 68.9787 96.5051 68.993 96.08 69.1019C95.655 69.2107 95.259 69.4115 94.92 69.69L52.92 104.31L40.14 111.69C37.8465 113.026 36.0607 115.084 35.0618 117.543C34.063 120.002 33.9076 122.723 34.62 125.28L31.62 126.99C30.0743 127.878 28.8269 129.204 28.0361 130.802C27.2453 132.399 26.9466 134.195 27.178 135.963C27.4094 137.73 28.1603 139.389 29.3357 140.729C30.5111 142.069 32.0579 143.03 33.78 143.49C34.5435 143.692 35.3302 143.793 36.12 143.79C37.6982 143.783 39.2481 143.37 40.62 142.59L43.62 140.88C45.0611 142.369 46.8735 143.446 48.87 144C49.8952 144.287 50.9555 144.428 52.02 144.42C54.1287 144.425 56.2003 143.866 58.02 142.8L60.63 141.3L66.63 151.71C67.8224 153.772 69.7833 155.276 72.0832 155.895C74.3831 156.514 76.8343 156.195 78.9 155.01C79.9248 154.42 80.8232 153.633 81.5437 152.695C82.2643 151.757 82.7929 150.686 83.0994 149.544C83.4059 148.402 83.4842 147.21 83.3299 146.037C83.1756 144.865 82.7916 143.734 82.2 142.71L76.74 133.2L121.74 116.31C122.148 116.157 122.518 115.916 122.824 115.605C123.129 115.294 123.363 114.921 123.51 114.51C123.656 114.104 123.713 113.672 123.677 113.242C123.64 112.812 123.512 112.396 123.3 112.02L108.36 86.1ZM37.5 137.37C37.1584 137.568 36.7811 137.696 36.3899 137.747C35.9986 137.799 35.6011 137.772 35.22 137.67C34.4514 137.47 33.7933 136.974 33.39 136.29C33.1925 135.948 33.0643 135.571 33.0129 135.18C32.9614 134.789 32.9876 134.391 33.09 134.01C33.1924 133.627 33.3698 133.268 33.6118 132.954C33.8538 132.64 34.1557 132.377 34.5 132.18L37.11 130.68L40.11 135.87L37.5 137.37ZM76.98 145.77C77.1775 146.112 77.3057 146.489 77.3571 146.88C77.4086 147.271 77.3824 147.669 77.28 148.05C77.066 148.813 76.5592 149.46 75.87 149.85C75.1848 150.244 74.3719 150.351 73.608 150.149C72.844 149.947 72.1907 149.451 71.79 148.77L65.79 138.36L70.77 135.51H71.01L76.98 145.77Z" fill="black"/>
</svg>
