<svg width="200" height="200" viewBox="0 0 200 200" fill="none" xmlns="http://www.w3.org/2000/svg">
<path d="M191.875 179.88H186.875V65.2295C186.875 59.1617 181.875 54.0519 175.937 54.0519H102.5V35.8483C107.5 34.8902 111.25 30.0998 111.25 24.99C111.25 18.9221 106.25 13.8124 100.312 13.8124C94.375 13.8124 89.375 18.9221 89.375 24.99C89.375 30.4191 93.125 34.8902 98.125 35.8483V54.0519H24.0625C18.125 54.0519 13.125 59.1617 13.125 65.2295V179.88H8.125C3.4375 179.88 0 183.713 0 188.184C0 194.571 5 200 11.5625 200H188.437C194.687 200 200 194.89 200 188.184C200 183.713 196.563 179.88 191.875 179.88ZM17.8125 65.2295C17.8125 61.7166 20.625 58.8423 24.0625 58.8423H176.25C179.688 58.8423 182.5 61.7166 182.5 65.2295V179.88H17.8125V65.2295ZM110.312 187.545H89.6875C87.1875 187.545 84.6875 186.587 82.8125 184.671H117.188C115.312 186.587 112.812 187.545 110.312 187.545ZM140 192.335H134.687C133.437 192.335 132.187 191.377 132.187 189.78C132.187 188.503 133.125 187.226 134.687 187.226H140C141.25 187.226 142.5 188.184 142.5 189.78C142.5 191.058 141.25 192.335 140 192.335ZM180.938 192.335H153.125C151.875 192.335 150.625 191.377 150.625 189.78C150.625 188.503 151.562 187.226 153.125 187.226H180.938C182.188 187.226 183.438 188.184 183.438 189.78C183.438 191.058 182.188 192.335 180.938 192.335Z" fill="#E65402"/>
<path d="M109.375 67.7844H32.5C31.25 67.7844 30 68.7425 30 70.3393V142.834C30 144.112 30.9375 145.389 32.5 145.389H109.375C110.625 145.389 111.875 144.431 111.875 142.834V70.02C111.875 68.7425 110.625 67.7844 109.375 67.7844ZM70.9375 130.379C66.875 130.379 64.0625 129.741 62.1875 129.102L65.625 128.144C66.25 127.824 67.1875 127.505 67.1875 126.547C68.4375 126.866 69.375 127.186 70.625 127.186C71.875 127.186 73.125 126.866 74.0625 126.547C74.375 127.186 75 128.144 75.625 128.144L79.0625 129.102C77.8125 129.741 75 130.379 70.9375 130.379ZM64.0625 119.202C61.25 117.285 59.6875 114.411 59.6875 110.898V106.427C59.6875 105.15 59.6875 103.872 60 102.914C60.3125 101.956 60.3125 101.317 60.9375 100.359L61.5625 99.0818C62.1875 97.8044 63.4375 96.8463 65 96.8463C65.625 96.8463 66.875 97.1657 67.5 97.485C70.3125 98.4431 73.125 98.4431 75.625 97.485C76.875 96.8463 77.1875 96.8463 77.1875 96.8463C78.75 96.8463 80 97.8044 80.625 99.0818L81.25 100.679C81.5625 101.317 81.5625 101.956 81.875 102.595C82.1875 103.553 82.1875 104.511 82.1875 105.788V110.898C82.1875 114.411 80.625 117.285 77.8125 119.202L74.375 121.437C72.1875 122.715 69.6875 122.715 67.5 121.437L64.0625 119.202ZM107.188 140.279H95V137.086C95 131.657 91.5625 127.186 86.25 125.908L79.0625 123.992L80.3125 123.034C84.0625 120.479 86.5625 116.647 86.875 112.176C90.3125 112.176 93.4375 108.982 93.4375 105.469C93.4375 102.914 92.1875 100.998 90.3125 99.7206C90.9375 97.8044 91.25 95.8882 91.25 93.9721C91.5625 93.9721 91.875 93.9721 91.875 93.9721C92.8125 94.2914 93.4375 93.9721 94.0625 93.3333C94.6875 92.6946 95 92.0559 94.6875 91.0978C93.4375 84.7106 83.125 77.3653 73.75 76.4072C67.1875 75.7685 62.1875 78.004 59.0625 83.1138C56.5625 82.4751 54.6875 83.1138 53.125 85.0299C50.3125 88.2236 50 93.9721 52.1875 99.0818C49.6875 100.04 48.125 102.595 48.125 105.469C48.125 109.301 51.25 112.176 54.6875 112.176C55 116.647 57.5 120.479 61.25 123.034L62.5 123.992L55.3125 125.589C50.3125 126.866 46.5625 131.337 46.5625 136.766V139.96H34.375V72.5749H106.875L107.188 140.279ZM86.875 103.553C87.8125 103.553 88.75 104.511 88.75 105.469C88.75 106.427 88.125 107.385 87.1875 107.385V105.469C86.875 104.83 86.875 104.192 86.875 103.553ZM55 103.553C55 104.511 54.6875 105.469 54.6875 106.427V107.705C53.75 107.705 52.8125 106.747 52.8125 105.788C52.8125 104.511 53.75 103.553 55 103.553ZM46.5625 160.719C46.5625 161.996 45.9375 163.273 45 163.912L35.9375 170.299C35.3125 170.619 34.6875 170.938 33.75 170.938C33.125 170.938 32.5 170.938 32.1875 170.619C30.9375 169.98 30.3125 168.703 30.3125 167.425V154.651C30.3125 153.373 30.9375 152.096 32.1875 151.457C33.4375 150.818 34.6875 150.818 35.9375 151.776L45 158.164C45.9375 158.483 46.5625 159.76 46.5625 160.719ZM111.875 160.719C111.875 161.996 110.938 163.273 109.375 163.273H96.5625C95.625 166.786 92.5 169.341 88.75 169.341C85 169.341 81.875 166.786 80.9375 163.273H55C53.75 163.273 52.5 162.315 52.5 160.719C52.5 159.122 53.4375 158.164 55 158.164H80.9375C81.875 154.651 85 152.096 88.75 152.096C92.5 152.096 95.625 154.651 96.5625 158.164H109.375C110.625 158.483 111.875 159.441 111.875 160.719ZM140.313 78.6427C140.313 84.7106 135.625 89.501 129.688 89.501C123.75 89.501 119.063 84.7106 119.063 78.6427C119.063 72.5749 123.75 67.7844 129.688 67.7844C135.625 68.1038 140.313 72.8942 140.313 78.6427ZM140.313 105.788C140.313 111.856 135.625 116.647 129.688 116.647C123.75 116.647 119.063 111.856 119.063 105.788C119.063 99.7206 123.75 94.9301 129.688 94.9301C135.625 94.9301 140.313 99.7206 140.313 105.788ZM140.313 132.934C140.313 139.002 135.625 143.792 129.688 143.792C123.75 143.792 119.063 139.002 119.063 132.934C119.063 126.866 123.75 122.076 129.688 122.076C135.625 122.076 140.313 126.866 140.313 132.934ZM140.313 159.76C140.313 165.828 135.625 170.619 129.688 170.619C123.75 170.619 119.063 165.828 119.063 159.76C119.063 153.693 123.75 148.902 129.688 148.902C135.625 149.222 140.313 154.012 140.313 159.76ZM147.812 74.8104H157.813C159.063 74.8104 160.313 73.8523 160.313 72.2555C160.313 70.978 159.375 69.7006 157.813 69.7006H147.812C146.562 69.7006 145.313 70.6587 145.313 72.2555C145.625 73.5329 146.562 74.8104 147.812 74.8104ZM147.812 87.5848H167.5C168.75 87.5848 170 86.6267 170 85.0299C170 83.7525 169.063 82.4751 167.5 82.4751H147.812C146.562 82.4751 145.313 83.4331 145.313 85.0299C145.625 86.6267 146.562 87.5848 147.812 87.5848ZM147.812 101.637H157.813C159.063 101.637 160.313 100.679 160.313 99.0818C160.313 97.8044 159.375 96.5269 157.813 96.5269H147.812C146.562 96.5269 145.313 97.485 145.313 99.0818C145.625 100.679 146.562 101.637 147.812 101.637ZM147.812 114.731H167.5C168.75 114.731 170 113.772 170 112.176C170 110.898 169.063 109.621 167.5 109.621H147.812C146.562 109.621 145.313 110.579 145.313 112.176C145.625 113.453 146.562 114.731 147.812 114.731ZM147.812 128.782H157.813C159.063 128.782 160.313 127.824 160.313 126.228C160.313 124.95 159.375 123.673 157.813 123.673H147.812C146.562 123.673 145.313 124.631 145.313 126.228C145.625 127.824 146.562 128.782 147.812 128.782ZM147.812 141.876H167.5C168.75 141.876 170 140.918 170 139.321C170 138.044 169.063 136.766 167.5 136.766H147.812C146.562 136.766 145.313 137.725 145.313 139.321C145.625 140.599 146.562 141.876 147.812 141.876ZM147.812 155.928H157.813C159.063 155.928 160.313 154.97 160.313 153.373C160.313 152.096 159.375 150.818 157.813 150.818H147.812C146.562 150.818 145.313 151.776 145.313 153.373C145.625 154.651 146.562 155.928 147.812 155.928ZM147.812 168.703H167.5C168.75 168.703 170 167.745 170 166.148C170 164.87 169.063 163.593 167.5 163.593H147.812C146.562 163.593 145.313 164.551 145.313 166.148C145.625 167.745 146.562 168.703 147.812 168.703ZM120 45.1098C119.063 46.0679 119.063 47.6647 120 48.6228C120.313 48.9421 120.938 49.2615 121.563 49.2615C122.188 49.2615 122.813 48.9421 123.125 48.6228C135.938 35.5289 135.938 14.1317 123.125 1.03792C122.188 0.0798404 120.625 0.0798404 119.688 1.03792C118.75 1.99601 118.75 3.59281 119.688 4.5509C130.938 15.7285 130.938 33.9321 120 45.1098ZM78.4375 49.2615C79.0625 49.2615 79.6875 48.9421 80 48.6228C80.9375 47.6647 80.9375 46.0679 80 45.1098C69.0625 33.9321 69.0625 15.4092 80 4.23154C80.9375 3.27345 80.9375 1.67665 80 0.718563C79.0625 -0.239521 77.5 -0.239521 76.5625 0.718563C63.75 13.8124 63.75 35.2096 76.5625 48.3034C77.1875 49.2615 77.8125 49.2615 78.4375 49.2615Z" fill="black"/>
<path d="M112.188 40.6387C112.5 40.9581 113.125 41.2775 113.75 41.2775C114.375 41.2775 115 40.9581 115.313 40.6387C119.375 36.487 121.875 30.7385 121.875 24.6707C121.875 18.6028 119.688 12.8543 115.313 8.7026C114.375 7.74452 112.812 7.74452 111.875 8.7026C110.937 9.66069 110.937 11.2575 111.875 12.2156C115 15.4092 116.875 19.8802 116.875 24.6707C116.875 29.4611 115 33.9321 111.875 37.1258C111.25 38.4032 111.25 39.6806 112.188 40.6387ZM84.375 40.6387C84.6875 40.9581 85.3125 41.2775 85.9375 41.2775C86.5625 41.2775 87.1875 40.9581 87.5 40.6387C88.4375 39.6806 88.4375 38.0838 87.5 37.1258C80.625 30.0998 80.625 18.9222 87.5 12.2156C88.4375 11.2575 88.4375 9.66069 87.5 8.7026C86.5625 7.74452 85 7.74452 84.0625 8.7026C75.9375 17.6447 75.9375 32.016 84.375 40.6387Z" fill="black"/>
</svg>
