<svg width="500" height="500" viewBox="0 0 500 500" fill="none" xmlns="http://www.w3.org/2000/svg">
<path d="M312.5 135.417V172.77L242.635 242.635C241.641 243.596 240.847 244.746 240.301 246.017C239.755 247.288 239.468 248.654 239.456 250.037C239.444 251.421 239.707 252.792 240.231 254.072C240.755 255.353 241.528 256.516 242.506 257.494C243.484 258.472 244.647 259.245 245.928 259.769C247.208 260.293 248.579 260.556 249.963 260.544C251.346 260.532 252.713 260.245 253.983 259.699C255.254 259.153 256.404 258.359 257.365 257.365L327.23 187.5H364.583C365.951 187.5 367.306 187.231 368.569 186.707C369.833 186.183 370.981 185.416 371.948 184.448L434.448 121.948C435.904 120.491 436.896 118.635 437.298 116.615C437.7 114.595 437.493 112.5 436.705 110.597C435.917 108.694 434.582 107.068 432.869 105.923C431.157 104.778 429.143 104.167 427.083 104.167H395.833V72.9167C395.833 70.8568 395.222 68.8433 394.077 67.1307C392.932 65.418 391.306 64.0833 389.403 63.295C387.5 62.5068 385.405 62.3005 383.385 62.7023C381.365 63.104 379.509 64.0957 378.052 65.5521L315.552 128.052C314.584 129.019 313.817 130.167 313.293 131.431C312.769 132.694 312.5 134.049 312.5 135.417Z" fill="#E65402"/>
<path d="M282.524 173.286C264.712 165.731 244.827 164.605 226.277 170.104C207.727 175.602 191.667 187.381 180.849 203.423C170.032 219.464 165.131 238.768 166.986 258.027C168.842 277.286 177.338 295.3 191.019 308.981C204.7 322.662 222.714 331.158 241.973 333.014C261.232 334.869 280.536 329.968 296.577 319.151C312.619 308.333 324.398 292.273 329.896 273.723C335.395 255.173 334.269 235.288 326.714 217.476L272.095 272.095C269.209 275.065 265.761 277.433 261.952 279.059C258.143 280.685 254.048 281.538 249.907 281.568C245.765 281.598 241.659 280.804 237.827 279.233C233.995 277.661 230.513 275.344 227.584 272.416C224.656 269.487 222.339 266.005 220.767 262.173C219.196 258.341 218.402 254.235 218.432 250.093C218.462 245.952 219.315 241.857 220.941 238.048C222.567 234.239 224.935 230.791 227.905 227.905L282.524 173.286Z" fill="#E65402"/>
<path d="M433.777 152.083L402.61 183.25C418.242 218.897 420.929 258.885 410.206 296.303C399.483 333.72 376.024 366.216 343.884 388.172C311.745 410.129 272.944 420.167 234.188 416.551C195.433 412.935 159.158 395.892 131.635 368.369C104.112 340.846 87.0695 304.571 83.4535 265.816C79.8376 227.061 89.8754 188.26 111.832 156.12C133.789 123.98 166.284 100.521 203.702 89.7982C241.119 79.0751 281.107 81.7618 316.754 97.3937L347.917 66.2229C303.795 42.6837 252.685 35.7779 203.898 46.7635C155.111 57.7492 111.894 85.8952 82.1193 126.074C52.345 166.253 37.9951 215.791 41.6837 265.663C45.3724 315.535 66.8541 362.423 102.215 397.785C137.577 433.146 184.465 454.628 234.337 458.316C284.209 462.005 333.747 447.655 373.926 417.881C414.105 388.106 442.251 344.889 453.236 296.102C464.222 247.315 457.316 196.205 433.777 152.083Z" fill="black"/>
<path d="M291.667 135.417C291.652 127.184 294.908 119.282 300.718 113.449C269.398 101.732 235.011 101.088 203.274 111.624C171.538 122.161 144.364 143.243 126.27 171.365C108.177 199.488 100.255 232.956 103.822 266.205C107.388 299.454 122.227 330.481 145.873 354.127C169.519 377.773 200.546 392.612 233.795 396.178C267.044 399.745 300.512 391.823 328.635 373.73C356.757 355.636 377.839 328.462 388.376 296.726C398.912 264.989 398.268 230.602 386.551 199.282C380.718 205.092 372.816 208.348 364.583 208.333H345.336C355.143 230.655 356.841 255.701 350.136 279.141C343.432 302.582 328.746 322.942 308.62 336.702C288.493 350.462 264.191 356.755 239.916 354.495C215.64 352.234 192.918 341.561 175.679 324.321C158.439 307.082 147.766 284.36 145.505 260.084C143.245 235.809 149.538 211.507 163.298 191.38C177.058 171.254 197.418 156.568 220.859 149.864C244.299 143.159 269.345 144.857 291.667 154.664V135.417Z" fill="black"/>
</svg>
