<svg xmlns="http://www.w3.org/2000/svg" id="polos" height="512" viewBox="0 0 64 64" width="512"><path d="m32.48242 43.23242a8.24121 8.24121 0 1 0 -8.24121-8.24121 8.25057 8.25057 0 0 0 8.24121 8.24121zm0-14.48242a6.24121 6.24121 0 1 1 -6.24121 6.24121 6.24828 6.24828 0 0 1 6.24121-6.24121z"/><path d="m48.89551 43.23242a6.793 6.793 0 1 0 -6.793-6.793 6.80041 6.80041 0 0 0 6.793 6.793zm0-11.58594a4.793 4.793 0 1 1 -4.793 4.793 4.79845 4.79845 0 0 1 4.793-4.793z"/><path d="m59.83423 54.33508a.96063.96063 0 0 0 .09411-.16363.9925.9925 0 0 0 .03986-.19745.94751.94751 0 0 0 .0318-.15759c0-.01245-.00665-.02277-.00708-.0351-.00043-.01257.00555-.02356.00464-.03619a11.17228 11.17228 0 0 0 -11.10645-10.333 11.04816 11.04816 0 0 0 -8.02211 3.44127 13.59534 13.59534 0 0 0 -17.3255.44568 11.12192 11.12192 0 0 0 -19.54108 6.448c-.00085.01215.005.02271.00452.03479s-.00694.02228-.00694.03455a.94556.94556 0 0 0 .03223.15966.98587.98587 0 0 0 .03961.19611.96117.96117 0 0 0 .09472.16406.98682.98682 0 0 0 .10663.15821.98314.98314 0 0 0 .14881.11621.96409.96409 0 0 0 .1593.1073.99357.99357 0 0 0 .18634.05157.94676.94676 0 0 0 .16254.04492c.02356.001.04657.0019.06964.0019l.00018.00006h14.129a13.2263 13.2263 0 0 0 -.2677 1.8291c-.0008.01172.00476.02185.00439.03345-.00042.012-.00683.02191-.00683.03393a.944.944 0 0 0 .03271.16211.99656.99656 0 0 0 .03931.19452.96275.96275 0 0 0 .09509.16406.59981.59981 0 0 0 .2547.27344.96326.96326 0 0 0 .16071.10828.99347.99347 0 0 0 .18689.05108.94639.94639 0 0 0 .1632.04456c.02259.001.04511.00189.0672.00189l.00019.00006h25.24759c.01226 0 .02233-.00653.03448-.007.01129 0 .02106.00537.03241.005a.94588.94588 0 0 0 .16254-.04438.99869.99869 0 0 0 .18811-.05133.96472.96472 0 0 0 .15936-.10736.5978.5978 0 0 0 .25488-.2727.963.963 0 0 0 .09625-.16583 1.00015 1.00015 0 0 0 .03882-.19226.94788.94788 0 0 0 .03315-.16419c0-.01208-.00641-.022-.00684-.034-.00037-.01159.00519-.02172.00439-.03338a13.17589 13.17589 0 0 0 -.26776-1.8291h13.16376l.00024-.00006c.0235 0 .04755-.001.071-.00287a.94185.94185 0 0 0 .153-.0423.99559.99559 0 0 0 .19611-.05432.9641.9641 0 0 0 .15668-.10553.61259.61259 0 0 0 .2572-.27625zm-10.94312-8.923a9.16623 9.16623 0 0 1 8.96277 7.4043h-12.61682a13.58674 13.58674 0 0 0 -2.89972-4.60938 9.06 9.06 0 0 1 6.55377-2.79489zm-8.58642 3.56641a11.61712 11.61712 0 0 1 3.29687 5.13574 11.87512 11.87512 0 0 1 .36945 1.59863h-22.97656a11.86342 11.86342 0 0 1 .36932-1.59863 11.66277 11.66277 0 0 1 11.11423-8.1611 11.64158 11.64158 0 0 1 7.82669 3.02539zm-25.20557-3.56638a9.14621 9.14621 0 0 1 7.03449 3.32275 13.50856 13.50856 0 0 0 -2.41327 4.08155h-13.57648a9.14923 9.14923 0 0 1 8.95526-7.4043z"/><path d="m15.10352 29.64648a6.793 6.793 0 1 0 6.793 6.793 6.80041 6.80041 0 0 0 -6.793-6.793zm0 11.58594a4.793 4.793 0 1 1 4.793-4.793 4.79843 4.79843 0 0 1 -4.793 4.793z"/><path d="m27.75928 24.70117c1.52 0 2.666-1.84179 2.666-4.2832l-.00024-.00452.00024-.00134-.03894-6.17432 6.532-2.1463.00976 1.54431a1.83881 1.83881 0 0 0 -.6391-.126c-1.52 0-2.666 1.84082-2.666 4.28222s1.146 4.28321 2.666 4.28321c1.51953 0 2.66553-1.8418 2.66553-4.28321l-.00024-.00451.00024-.00135-.06635-10.50491a1.00025 1.00025 0 0 0 -1.29443-.9502l-8.5293 2.627a1.00074 1.00074 0 0 0 -.70556.96191l.02211 3.50304c-.00146.0149.001.02961.00025.04462l.01775 2.79438a1.83939 1.83939 0 0 0 -.63971-.12622c-1.51953 0-2.66553 1.84082-2.66553 4.28223s1.14599 4.28316 2.66552 4.28316zm7.86377-6.90917a3.51182 3.51182 0 0 1 .62744-2.28808 2.97229 2.97229 0 0 1 .704 2.28711v.0017a3.51283 3.51283 0 0 1 -.62738 2.28833 2.97575 2.97575 0 0 1 -.70406-2.28906zm1.27343-9.15332.00861 1.35181-6.532 2.14624-.00934-1.48535zm-9.17529 9.49121a2.97231 2.97231 0 0 1 .704 2.28711v.00171a3.51592 3.51592 0 0 1 -.62738 2.28833 2.97376 2.97376 0 0 1 -.7041-2.28906 3.51144 3.51144 0 0 1 .62748-2.2881z" style="&#10;    fill: #e65402;&#10;"/><path d="m45.52979 27.52637c1.5083 0 2.68945-1.627 2.68945-3.70313l-.00043-.00574.00043-.00207-.06153-7.86328 6.6543-1.66406.02985 3.79022a2.05489 2.05489 0 0 0 -.66168-.12128c-1.5083 0-2.68946 1.627-2.68946 3.70313 0 2.07714 1.18116 3.7041 2.68946 3.7041s2.68994-1.627 2.68994-3.7041l-.00043-.00574.00043-.00208-.06787-8.65034a.99906.99906 0 0 0 -1.24268-.962l-8.65039 2.16309a.99919.99919 0 0 0 -.75732.97753l.03942 5.06067a2.0536 2.0536 0 0 0 -.66149-.12121c-1.50831 0-2.68995 1.627-2.68995 3.70312s1.18164 3.70317 2.68995 3.70317zm8.65039-4.16211c-.17725 0-.68946-.58594-.68946-1.7041 0-1.11719.51221-1.70313.68946-1.70313s.68963.58582.68988 1.70252v.00109c-.00013 1.11786-.5127 1.70362-.68988 1.70362zm-8.65039-1.24414c.17718 0 .68914.58581.68939 1.70251v.0011c-.00012 1.11688-.51215 1.70264-.68939 1.70264s-.68995-.58594-.68995-1.70313.5127-1.70312.68995-1.70312z" style="&#10;    fill: #e65402;&#10;"/><path d="m9.80615 27.52637c1.5083 0 2.68994-1.627 2.68994-3.70313l-.00042-.00574.00042-.00207-.06152-7.86328 6.6543-1.66406.02984 3.79022a2.05479 2.05479 0 0 0 -.66171-.12131c-1.5083 0-2.68945 1.627-2.68945 3.70313 0 2.07714 1.18115 3.7041 2.68945 3.7041s2.68994-1.627 2.68994-3.7041l-.00042-.00574.00042-.00208-.06784-8.65031a.999.999 0 0 0 -1.24267-.962l-8.65088 2.16309a.99919.99919 0 0 0 -.75733.97753l.03974 5.0608a2.05567 2.05567 0 0 0 -.66181-.12134c-1.5083 0-2.68945 1.627-2.68945 3.70312s1.18115 3.70317 2.68945 3.70317zm8.65085-4.16211c-.17724 0-.68945-.58594-.68945-1.7041 0-1.11719.51221-1.70313.68945-1.70313s.68964.58582.68988 1.70252v.00109c-.00009 1.11786-.51266 1.70362-.68988 1.70362zm-8.65085-1.24414c.17719 0 .68964.58581.68988 1.70251v.0011c-.00012 1.11688-.51269 1.70264-.68988 1.70264s-.68945-.58594-.68945-1.70313.51221-1.70312.68945-1.70312z" style="&#10;    fill: #e65402;&#10;"/></svg>