<svg width="512" height="512" viewBox="0 0 512 512" fill="none" xmlns="http://www.w3.org/2000/svg">
<path d="M360 184V192C360 194.122 360.843 196.157 362.343 197.657C363.843 199.157 365.878 200 368 200H408V224C408 226.122 408.844 228.156 410.344 229.656L448 267.312V452.688L410.344 490.344L421.656 501.656L456 467.312L490.344 501.656L501.656 490.344L464 452.688V264C464 261.878 463.156 259.844 461.656 258.344L424 220.68V200H464C466.122 200 468.157 199.157 469.657 197.657C471.157 196.157 472 194.122 472 192V184C472 175.513 468.629 167.374 462.627 161.373C456.626 155.371 448.487 152 440 152H392C383.513 152 375.374 155.371 369.373 161.373C363.371 167.374 360 175.513 360 184ZM392 168H440C444.243 168 448.313 169.686 451.314 172.686C454.314 175.687 456 179.757 456 184H376C376 179.757 377.686 175.687 380.686 172.686C383.687 169.686 387.757 168 392 168Z" fill="black"/>
<path d="M80 272V304C80 306.122 80.8429 308.157 82.3431 309.657C83.8434 311.157 85.8783 312 88 312H96V368H88C85.8783 368 83.8434 368.843 82.3431 370.343C80.8429 371.843 80 373.878 80 376V408C80 410.122 80.8429 412.157 82.3431 413.657C83.8434 415.157 85.8783 416 88 416H146.656C151.511 437.98 162.887 457.983 179.296 473.392L162.344 490.344L173.656 501.656L191.728 483.584C210.527 496.868 232.981 504 256 504C279.019 504 301.473 496.868 320.272 483.584L338.344 501.656L349.656 490.344L332.704 473.392C349.113 457.983 360.489 437.98 365.344 416H424C426.122 416 428.157 415.157 429.657 413.657C431.157 412.157 432 410.122 432 408V376C432 373.878 431.157 371.843 429.657 370.343C428.157 368.843 426.122 368 424 368H416V312H424C426.122 312 428.157 311.157 429.657 309.657C431.157 308.157 432 306.122 432 304V272C432 269.878 431.157 267.843 429.657 266.343C428.157 264.843 426.122 264 424 264H296C293.878 264 291.843 264.843 290.343 266.343C288.843 267.843 288 269.878 288 272V284.72C280.183 282.403 272.134 280.957 264 280.408V232H312C314.122 232 316.157 231.157 317.657 229.657C319.157 228.157 320 226.122 320 224V208C320 201.635 317.471 195.53 312.971 191.029C308.47 186.529 302.365 184 296 184H216C209.635 184 203.53 186.529 199.029 191.029C194.529 195.53 192 201.635 192 208V224C192 226.122 192.843 228.157 194.343 229.657C195.843 231.157 197.878 232 200 232H248V280.408C239.866 280.957 231.817 282.403 224 284.72V272C224 269.878 223.157 267.843 221.657 266.343C220.157 264.843 218.122 264 216 264H88C85.8783 264 83.8434 264.843 82.3431 266.343C80.8429 267.843 80 269.878 80 272ZM208 208C208 205.878 208.843 203.843 210.343 202.343C211.843 200.843 213.878 200 216 200H296C298.122 200 300.157 200.843 301.657 202.343C303.157 203.843 304 205.878 304 208V216H208V208ZM112 312H177.768C162.158 327.233 151.344 346.699 146.656 368H112V312ZM96 400V384H144.408C144.216 386.656 144 389.296 144 392C144 394.704 144.216 397.344 144.408 400H96ZM256 488C237.013 488 218.452 482.37 202.665 471.821C186.878 461.272 174.574 446.279 167.308 428.738C160.042 411.196 158.14 391.894 161.845 373.271C165.549 354.649 174.692 337.544 188.118 324.118C201.544 310.692 218.649 301.549 237.271 297.845C255.894 294.14 275.196 296.042 292.738 303.308C310.279 310.574 325.272 322.878 335.821 338.665C346.37 354.452 352 373.013 352 392C351.972 417.452 341.849 441.854 323.852 459.852C305.854 477.849 281.452 487.972 256 488ZM416 400H367.592C367.784 397.344 368 394.704 368 392C368 389.296 367.784 386.656 367.592 384H416V400ZM400 368H365.344C360.656 346.699 349.842 327.233 334.232 312H400V368ZM304 280H416V296H313.392C310.352 294.176 307.221 292.496 304 290.96V280ZM96 280H208V290.96C204.8 292.496 201.669 294.176 198.608 296H96V280Z" fill="black"/>
<path d="M21.656 501.656L56 467.312L90.344 501.656L101.656 490.344L64 452.688V267.312L101.656 229.656C103.156 228.156 104 226.122 104 224V200H144C146.122 200 148.157 199.157 149.657 197.657C151.157 196.157 152 194.122 152 192V184C152 175.513 148.629 167.374 142.627 161.373C136.626 155.371 128.487 152 120 152H72C63.5131 152 55.3737 155.371 49.3726 161.373C43.3714 167.374 40 175.513 40 184V192C40 194.122 40.8429 196.157 42.3431 197.657C43.8434 199.157 45.8783 200 48 200H88V220.68L50.344 258.344C48.8436 259.844 48.0005 261.878 48 264V452.688L10.344 490.344L21.656 501.656ZM72 168H120C124.243 168 128.313 169.686 131.314 172.686C134.314 175.687 136 179.757 136 184H56C56 179.757 57.6857 175.687 60.6863 172.686C63.6869 169.686 67.7565 168 72 168Z" fill="black"/>
<path d="M256 312C240.177 312 224.71 316.692 211.554 325.482C198.398 334.273 188.145 346.767 182.09 361.385C176.035 376.003 174.45 392.089 177.537 407.607C180.624 423.126 188.243 437.38 199.431 448.569C210.62 459.757 224.874 467.376 240.393 470.463C255.911 473.55 271.997 471.965 286.615 465.91C301.233 459.855 313.727 449.602 322.518 436.446C331.308 423.29 336 407.823 336 392C335.977 370.79 327.541 350.455 312.543 335.457C297.545 320.459 277.21 312.023 256 312ZM256 456C243.342 456 230.968 452.246 220.444 445.214C209.919 438.182 201.716 428.186 196.872 416.492C192.028 404.797 190.76 391.929 193.23 379.514C195.699 367.099 201.795 355.696 210.745 346.745C219.696 337.795 231.099 331.699 243.514 329.23C255.929 326.76 268.797 328.028 280.492 332.872C292.186 337.716 302.182 345.919 309.214 356.444C316.246 366.968 320 379.342 320 392C319.981 408.968 313.232 425.236 301.234 437.234C289.236 449.232 272.968 455.981 256 456Z" fill="black"/>
<path d="M176 143.032C176 147.97 177.464 152.798 180.207 156.904C182.951 161.011 186.85 164.211 191.413 166.101C195.975 167.991 200.996 168.486 205.84 167.522C210.683 166.559 215.132 164.18 218.624 160.688L256 123.312L293.376 160.688C296.868 164.18 301.317 166.559 306.16 167.522C311.004 168.486 316.025 167.991 320.587 166.101C325.15 164.211 329.049 161.011 331.793 156.904C334.536 152.798 336 147.97 336 143.032C336.009 139.752 335.368 136.502 334.113 133.471C332.858 130.441 331.014 127.689 328.688 125.376L291.312 88L307.504 71.808C313.497 71.1461 319.182 68.8043 323.902 65.0525C328.623 61.3006 332.187 56.2914 334.185 50.602C336.182 44.9126 336.531 38.7746 335.192 32.8953C333.853 27.016 330.881 21.6347 326.616 17.3714C322.352 13.1081 316.97 10.1364 311.09 8.79875C305.211 7.46106 299.073 7.81182 293.384 9.81061C287.695 11.8094 282.687 15.3749 278.936 20.0962C275.185 24.8175 272.845 30.5024 272.184 36.496L256 52.688L239.816 36.496C239.155 30.5024 236.815 24.8175 233.064 20.0962C229.313 15.3749 224.305 11.8094 218.616 9.81061C212.927 7.81182 206.789 7.46106 200.91 8.79875C195.03 10.1364 189.648 13.1081 185.384 17.3714C181.119 21.6347 178.147 27.016 176.808 32.8953C175.469 38.7746 175.818 44.9126 177.815 50.602C179.813 56.2914 183.377 61.3006 188.098 65.0525C192.818 68.8043 198.503 71.1461 204.496 71.808L220.688 88L183.312 125.376C180.986 127.689 179.142 130.441 177.887 133.471C176.632 136.502 175.991 139.752 176 143.032ZM285.656 45.656C287.156 44.1561 288 42.1216 288 40C287.998 37.6462 288.515 35.321 289.515 33.1901C290.515 31.0592 291.973 29.1751 293.784 27.6722C295.596 26.1694 297.717 25.0847 299.995 24.4956C302.274 23.9064 304.655 23.8274 306.968 24.264C310.134 24.8802 313.043 26.4277 315.324 28.7082C317.604 30.9887 319.152 33.8983 319.768 37.064C320.2 39.3773 320.116 41.7574 319.523 44.0346C318.929 46.3118 317.841 48.43 316.335 50.2384C314.829 52.0468 312.943 53.5007 310.811 54.4966C308.679 55.4925 306.353 56.0058 304 56C301.878 56.0005 299.844 56.8436 298.344 58.344L280 76.688L267.312 64L285.656 45.656ZM208 56C205.646 56.002 203.321 55.4847 201.19 54.4849C199.059 53.4851 197.175 52.0274 195.672 50.2159C194.169 48.4043 193.085 46.2835 192.496 44.0046C191.906 41.7257 191.827 39.345 192.264 37.032C192.878 33.8654 194.425 30.9548 196.706 28.6739C198.987 26.3931 201.897 24.8462 205.064 24.232C207.377 23.8002 209.757 23.8839 212.035 24.4773C214.312 25.0707 216.43 26.1591 218.238 27.6649C220.047 29.1708 221.501 31.057 222.497 33.1891C223.493 35.3212 224.006 37.6468 224 40C224 42.1216 224.844 44.1561 226.344 45.656L317.376 136.688C318.631 137.942 319.486 139.541 319.833 141.281C320.179 143.021 320.002 144.825 319.322 146.465C318.643 148.104 317.493 149.505 316.017 150.49C314.541 151.476 312.806 152.001 311.032 152C308.655 151.991 306.377 151.049 304.688 149.376L213.656 58.344C212.156 56.8436 210.122 56.0005 208 56ZM194.624 136.688L232 99.312L244.688 112L207.312 149.376C206.058 150.631 204.459 151.486 202.719 151.833C200.979 152.179 199.175 152.002 197.535 151.322C195.896 150.643 194.495 149.493 193.51 148.017C192.524 146.541 191.999 144.806 192 143.032C191.995 141.853 192.225 140.686 192.675 139.597C193.126 138.508 193.788 137.519 194.624 136.688Z" fill="#E65402"/>
<path d="M432 104V62.776L473.312 55.888L470.688 40.112L422.688 48.112C420.82 48.4226 419.123 49.3857 417.898 50.83C416.673 52.2744 416.001 54.1064 416 56V81.472C413.438 80.5245 410.732 80.0265 408 80C403.253 80 398.613 81.4076 394.666 84.0447C390.72 86.6819 387.643 90.4302 385.827 94.8156C384.01 99.201 383.535 104.027 384.461 108.682C385.387 113.338 387.673 117.614 391.029 120.971C394.386 124.327 398.662 126.613 403.318 127.539C407.973 128.465 412.799 127.99 417.184 126.173C421.57 124.357 425.318 121.28 427.955 117.334C430.592 113.387 432 108.747 432 104ZM400 104C400 102.418 400.469 100.871 401.348 99.5554C402.227 98.2398 403.477 97.2145 404.939 96.609C406.4 96.0035 408.009 95.845 409.561 96.1537C411.113 96.4624 412.538 97.2243 413.657 98.3431C414.776 99.462 415.538 100.887 415.846 102.439C416.155 103.991 415.997 105.6 415.391 107.061C414.786 108.523 413.76 109.773 412.445 110.652C411.129 111.531 409.582 112 408 112C405.878 112 403.843 111.157 402.343 109.657C400.843 108.157 400 106.122 400 104Z" fill="#E65402"/>
<path d="M80 72V30.776L121.312 23.888L118.688 8.112L70.688 16.112C68.82 16.4226 67.1227 17.3857 65.8981 18.83C64.6734 20.2744 64.0009 22.1064 64 24V49.472C61.4379 48.5245 58.7315 48.0265 56 48C51.2533 48 46.6131 49.4076 42.6663 52.0447C38.7195 54.6819 35.6434 58.4302 33.8269 62.8156C32.0104 67.201 31.5351 72.0266 32.4612 76.6822C33.3872 81.3377 35.673 85.6141 39.0294 88.9706C42.3859 92.327 46.6623 94.6128 51.3178 95.5388C55.9734 96.4649 60.799 95.9896 65.1844 94.1731C69.5698 92.3566 73.3181 89.2805 75.9553 85.3337C78.5924 81.3869 80 76.7468 80 72ZM48 72C48 70.4177 48.4692 68.871 49.3482 67.5554C50.2273 66.2398 51.4767 65.2145 52.9385 64.609C54.4003 64.0035 56.0089 63.845 57.5607 64.1537C59.1126 64.4624 60.538 65.2243 61.6569 66.3431C62.7757 67.462 63.5376 68.8874 63.8463 70.4393C64.155 71.9911 63.9965 73.5997 63.391 75.0615C62.7855 76.5233 61.7602 77.7727 60.4446 78.6518C59.129 79.5308 57.5823 80 56 80C53.8783 80 51.8434 79.1571 50.3431 77.6569C48.8429 76.1566 48 74.1217 48 72Z" fill="#E65402"/>
<path d="M271.784 348.16C271.037 346.745 269.875 345.593 268.453 344.859C267.031 344.125 265.418 343.845 263.832 344.056C262.25 344.241 260.759 344.894 259.55 345.932C258.342 346.969 257.47 348.344 257.048 349.88L251.736 369.28L243.848 362.08C242.954 361.266 241.887 360.665 240.727 360.323C239.567 359.981 238.345 359.906 237.152 360.104C235.955 360.299 234.819 360.765 233.831 361.466C232.842 362.168 232.027 363.087 231.448 364.152L220.584 384C217.635 389.388 216.066 395.423 216.017 401.565C215.968 407.707 217.441 413.766 220.304 419.2C223.33 424.9 227.72 429.762 233.081 433.354C238.443 436.945 244.61 439.154 251.032 439.784C252.683 439.945 254.341 440.017 256 440C257.649 440.002 259.297 439.914 260.936 439.736C267.364 439.111 273.537 436.904 278.904 433.312C284.272 429.72 288.666 424.855 291.696 419.152C294.559 413.718 296.032 407.659 295.983 401.517C295.934 395.375 294.365 389.34 291.416 383.952L271.784 348.16ZM277.512 411.736C275.719 415.126 273.102 418.011 269.902 420.125C266.702 422.238 263.022 423.513 259.2 423.832C257.052 424.064 254.884 424.064 252.736 423.832C248.922 423.506 245.252 422.228 242.06 420.115C238.869 418.001 236.26 415.12 234.472 411.736C232.81 408.646 231.951 405.188 231.974 401.68C231.996 398.171 232.899 394.725 234.6 391.656L240.568 380.768L250.592 389.912C251.603 390.836 252.835 391.485 254.169 391.797C255.503 392.108 256.895 392.072 258.211 391.691C259.527 391.311 260.723 390.598 261.685 389.623C262.647 388.647 263.342 387.441 263.704 386.12L267.24 373.184L277.368 391.656C279.071 394.723 279.977 398.169 280.002 401.678C280.027 405.186 279.171 408.645 277.512 411.736Z" fill="black"/>
</svg>
