<svg xmlns="http://www.w3.org/2000/svg" id="Capa_1" enable-background="new 0 0 512 512" height="512" viewBox="0 0 512 512" width="512"><g><g><path d="m457.829 402.532c5.767-7.86 9.183-17.547 9.183-28.021v-10.89c0-26.179-21.298-47.477-47.477-47.477s-47.477 21.298-47.477 47.477v10.89c0 10.474 3.416 20.161 9.183 28.021-18.242 2.396-33.991 12.784-43.614 27.531-9.623-14.747-25.373-25.135-43.614-27.531 5.767-7.86 9.183-17.547 9.183-28.021v-10.89c0-26.179-21.298-47.477-47.477-47.477s-47.477 21.298-47.477 47.477v10.89c0 10.474 3.416 20.161 9.183 28.021-18.242 2.396-33.991 12.784-43.614 27.531-9.623-14.747-25.373-25.135-43.614-27.531 5.767-7.86 9.183-17.547 9.183-28.021v-10.89c0-26.179-21.298-47.477-47.477-47.477s-47.477 21.298-47.477 47.477v10.89c0 10.474 3.416 20.161 9.183 28.021-30.206 3.969-53.609 29.864-53.609 61.141v38.327c0 5.522 4.477 10 10 10h201.127c5.523 0 10-4.478 10-10s-4.477-10-10-10h-27.312v-28.327c0-22.985 18.7-41.686 41.686-41.686h60.444c22.985 0 41.685 18.7 41.685 41.686v28.327h-26.502c-5.523 0-10 4.478-10 10s4.477 10 10 10h200.316c5.523 0 10-4.478 10-10v-38.327c-.001-31.277-23.404-57.173-53.615-61.141zm-393.398-38.91c0-15.15 12.326-27.477 27.477-27.477s27.477 12.326 27.477 27.477v10.89c0 15.15-12.326 27.476-27.477 27.476s-27.477-12.325-27.477-27.476zm-44.431 100.051c0-22.985 18.7-41.686 41.686-41.686h60.444c22.985 0 41.685 18.7 41.685 41.686v28.327h-143.815zm208.245-100.051c0-15.15 12.326-27.477 27.477-27.477s27.477 12.326 27.477 27.477v10.89c0 15.15-12.326 27.476-27.477 27.476s-27.477-12.325-27.477-27.476zm163.815 0c0-15.15 12.326-27.477 27.477-27.477s27.477 12.326 27.477 27.477v10.89c0 15.15-12.326 27.476-27.477 27.476s-27.477-12.325-27.477-27.476zm99.383 128.378h-143.814v-28.327c0-22.985 18.7-41.686 41.686-41.686h60.444c22.985 0 41.685 18.7 41.685 41.686v28.327z"/><path d="m446.755 103.886c7.83-9.432 12.545-21.538 12.545-34.726v-12.916c0-30.024-24.427-54.451-54.451-54.451s-54.451 24.427-54.451 54.451v12.916c0 13.06 4.625 25.058 12.319 34.45h-72.501c-2.105-6.679-4.776-13.16-8.001-19.379l9.913-9.912c3.905-3.905 3.905-10.237 0-14.143l-38.136-38.136c-1.875-1.875-4.419-2.929-7.071-2.929s-5.196 1.054-7.071 2.929l-9.912 9.913c-6.15-3.189-12.555-5.843-19.156-7.938v-14.015c0-5.522-4.477-10-10-10h-53.933c-5.523 0-10 4.478-10 10v14.016c-6.602 2.095-13.006 4.748-19.156 7.938l-9.912-9.913c-1.875-1.875-4.419-2.929-7.071-2.929s-5.196 1.054-7.071 2.929l-38.138 38.136c-1.875 1.876-2.929 4.419-2.929 7.071s1.054 5.195 2.929 7.071l9.913 9.912c-3.189 6.151-5.844 12.556-7.938 19.156h-14.016c-5.523 0-10 4.478-10 10v53.934c0 5.522 4.477 10 10 10h14.015c2.095 6.602 4.748 13.005 7.938 19.155l-9.913 9.912c-1.875 1.876-2.929 4.419-2.929 7.071s1.054 5.195 2.929 7.071l38.137 38.137c1.875 1.875 4.419 2.929 7.071 2.929s5.196-1.054 7.071-2.929l9.912-9.913c6.15 3.19 12.554 5.844 19.156 7.938v14.015c0 5.522 4.477 10 10 10h53.933c5.523 0 10-4.478 10-10v-14.015c6.602-2.095 13.006-4.748 19.156-7.938l9.912 9.913c1.875 1.875 4.419 2.929 7.071 2.929s5.196-1.054 7.071-2.929l38.137-38.137c3.905-3.905 3.905-10.237 0-14.143l-9.913-9.912c3.223-6.214 5.892-12.689 7.997-19.364h41.899v55.601c0 5.522 4.477 10 10 10h159.89c5.523 0 10-4.478 10-10v-57.798c0-37.274-28.755-67.94-65.245-71.028zm-76.357-34.726v-12.916c0-18.996 15.455-34.451 34.451-34.451s34.451 15.455 34.451 34.451v12.916c0 18.996-15.455 34.45-34.451 34.45-18.996 0-34.451-15.454-34.451-34.45zm-107.675 136.108 8.192 8.192-23.995 23.994-8.192-8.192c-3.252-3.251-8.303-3.867-12.242-1.488-8.741 5.28-18.197 9.198-28.104 11.646-4.465 1.103-7.602 5.109-7.602 9.708v11.581h-33.933v-11.581c0-4.599-3.137-8.605-7.602-9.708-9.908-2.447-19.363-6.366-28.104-11.646-3.937-2.378-8.988-1.764-12.242 1.488l-8.192 8.192-23.993-23.994 8.193-8.192c3.252-3.253 3.867-8.304 1.489-12.241-5.28-8.741-9.198-18.197-11.646-28.104-1.103-4.465-5.109-7.602-9.708-7.602h-11.582v-33.934h11.581c4.599 0 8.605-3.137 9.708-7.602 2.448-9.905 6.366-19.361 11.646-28.104 2.378-3.938 1.763-8.988-1.489-12.241l-8.193-8.192 23.995-23.994 8.192 8.192c3.252 3.252 8.304 3.869 12.241 1.488 8.741-5.278 18.197-9.197 28.105-11.646 4.465-1.104 7.601-5.109 7.601-9.708v-11.58h33.933v11.581c0 4.599 3.137 8.604 7.601 9.708 9.907 2.448 19.363 6.366 28.105 11.646 3.938 2.377 8.988 1.763 12.241-1.489l8.192-8.192 23.995 23.994-8.192 8.192c-3.252 3.253-3.867 8.304-1.489 12.241 3.07 5.083 5.665 10.414 7.793 15.929h-20.899c-5.591 0-10.892 1.261-15.641 3.504-11.815-20.839-34.11-34.19-58.672-34.19-37.181 0-67.43 30.249-67.43 67.431 0 37.181 30.249 67.43 67.43 67.43 24.515 0 46.838-13.357 58.662-34.18 4.752 2.246 10.056 3.508 15.651 3.508h20.894c-2.127 5.51-4.72 10.836-7.787 15.914-2.378 3.937-1.764 8.988 1.489 12.241zm-45.689-45.35c-7.619 16.817-24.514 27.866-43.219 27.866-26.153 0-47.43-21.277-47.43-47.43s21.277-47.431 47.43-47.431c18.741 0 35.607 11.044 43.222 27.877-3.58 5.669-5.661 12.375-5.661 19.561 0 7.184 2.08 13.889 5.658 19.557zm274.966 62.795h-28.109v-41.016c0-5.522-4.477-10-10-10s-10 4.478-10 10v41.016h-91.779v-55.601c0-5.522-4.477-10-10-10h-93.984c-9.236 0-16.751-7.515-16.751-16.751s7.515-16.751 16.751-16.751h192.569c28.289 0 51.304 23.016 51.304 51.305v47.798z" style="&#10;    fill: #e65402;&#10;"/><circle cx="256.13" cy="502" r="10"/></g></g></svg>