<svg id="Layer_1" height="512" viewBox="0 0 314.5726 330.6795" width="512" xmlns="http://www.w3.org/2000/svg"><g><ellipse cx="64.224" cy="111.216" rx="22.5" ry="22.5" transform="matrix(.999 -.038 .038 .999 -4.198 2.533)"/><path d="m127.9744 285.399-15.782-75.0701c-.0276-.2593-.0685-.5197-.1234-.7803l-13.5004-64.217 13.3056-31.1389-3.9438-3.317c-3.6992-3.1113-4.9355-8.3789-3.0059-12.8105l23.7803-54.6055c.9003-2.066 2.3883-3.7516 4.2147-4.9055-1.4547-1.5052-3.4907-2.4448-5.7494-2.4448-4.4185 0-8 3.5815-8 8v12.2891l-34.6808 81.1631-33.4525 7.0328c-2.4838.5222-4.4277 2.1862-5.4178 4.3242l-44.523 76.1048c-2.231 3.8145-.9478 8.7139 2.8657 10.9453 1.27.7432 2.6597 1.0957 4.0322 1.0957 2.7485 0 5.4243-1.418 6.9126-3.9609l34.4576-58.9004 8.8732 42.2073-9.2457 98.3048c-.6396 6.8 4.355 12.8275 11.1532 13.4668 6.7962.6392 12.8271-4.3512 13.4666-11.1512l8.7793-93.3455 7.0298-1.4778 20.3073 96.5956c1.4052 6.684 7.9622 10.9597 14.6442 9.5549 2.3195-.4876 4.3393-1.6059 5.9426-3.1251-1.4739-2.3576-2.3403-5.1324-2.3403-8.112v-31.7219z"/><path d="m138.5496 75.9579 17.7079 14.0589c2.7095-4.8514 6.9279-8.6893 11.9669-10.9288l-17.0303-13.5206v-11.5493c0-1.7459-.5656-3.3562-1.5146-4.6714-.1335.9763-.3905 1.9504-.8027 2.8973z"/><ellipse cx="259.718" cy="107.94" rx="22.5" ry="22.5" transform="matrix(.937 -.349 .349 .937 -21.339 97.386)"/><path d="m241.3337 220.3627 18.0225 100.1413c1.2098 6.7221 7.6394 11.187 14.3577 9.9779 6.7202-1.2094 11.1896-7.6359 9.9799-14.358l-18.2832-101.5895 8.4786-40.3303 25.4217 54.917c1.3525 2.9219 4.2441 4.6416 7.2646 4.6416 1.125 0 2.2676-.2383 3.3555-.7422 4.0098-1.8555 5.7559-6.6113 3.8994-10.6201l-35.2735-76.2003c-.8927-2.4047-2.955-4.3157-5.6514-4.8826l-35.7704-7.52-33.5693-26.6512c-.0197.1038-.0342.2078-.0552.3115-1.1093 5.4786-3.9658 10.2466-7.8948 13.8066l29.2471 23.2202-11.8104 56.1781-24.9863 74.4052v42.053c0 4.1346-1.6497 7.8853-4.3156 10.6497 1.1575.3441 2.3284.5185 3.4821.5185 5.1182 0 9.8916-3.2334 11.6104-8.3535l34.0345-101.3506z"/><path d="m185.0662 206.3582 3.0615-15.1221 3.5947 3.8643c1.5508 1.666 3.6875 2.5508 5.8604 2.5508 1.1855 0 2.3818-.2637 3.499-.8076 3.1641-1.54 4.9502-4.9678 4.3994-8.4434l-7.4297-46.9443c.0098-3.6094-2.5215-6.8438-6.1953-7.5879l-35.6523-7.2178-31.4746-26.4717 21.3965-49.1318c1.7637-4.0508-.0898-8.7646-4.1406-10.5293-4.0508-1.7656-8.7646.0889-10.5293 4.1406l-23.7803 54.6055c-1.4141 3.2471-.5244 7.0371 2.1855 9.3164l34.0186 28.6113-12.5693 62.085c-.0762.375-.1133.749-.1338 1.1211-.125.7061-.2021 1.4297-.2021 2.1719v114.5518c0 6.8301 5.5371 12.3633 12.3633 12.3633 6.8281 0 12.3652-5.5332 12.3652-12.3633v-105.0216l4.6348.9385v104.083c0 6.8301 5.5371 12.3633 12.3633 12.3633 6.8281 0 12.3652-5.5332 12.3652-12.3633v-110.7627z"/><path d="m200.5701 106.8621c2.4658-12.1797-5.4072-24.0518-17.5879-26.5176-12.1787-2.4658-24.0518 5.4082-26.5176 17.5879s5.4092 24.0518 17.5879 26.5176c12.1807 2.4658 24.0518-5.4083 26.5176-17.5879z"/><path d="m157.5037 26.0005 4.0215-17.9805-13.8921 10.6377-5.7397-18.6577-6.4839 18.709-11.231-10.5444 1.334 13.6474-16.4277-6.602 9.9887 15.6879 2.5303-1.6113-4.9731-7.811 12.3486 4.9624-1.0391-10.627 8.7886 8.2515 4.9946-14.4111 4.3101 14.0092 10.7622-8.2412-3.2373 14.4746 12.7388-2.6743-10.2329 12.0186 8.8105 4.3598-7.3784 2.398.9277 2.8535 14.3804-4.6743-11.9629-5.9204 13.4312-15.7744z"/></g></svg>