<svg xmlns="http://www.w3.org/2000/svg" xml:space="preserve" id="party-decor" x="0" y="0" enable-background="new 0 0 156 156" version="1.1" viewBox="0 0 156 156">
  <g id="_x32_0">
    <path d="M42.9662094,137.8338318c1.1650772-1.4880524,0.58601-3.6431732,0.0682259-5.3353119
			c-1.0160141-3.3104095-0.8804207-4.2661591,0.5964966-7.0507355c0.5039024-0.9493256,0.9785652-1.8460236,1.140358-2.8440781
			c0.3686943-2.2668228-0.9857941-4.4814224-1.9610291-6.6043396c-0.6403542-1.3947449-1.9044952-4.868454,0.1783638-6.990303
			c0.2297935-0.2367554,0.5880241,0.1129608,0.3567276,0.3489304c-1.9181404,1.9542007-0.5467873,5.4181671-0.0808945,6.4327927
			c1.0102234,2.2075272,2.3960114,4.4508514,2.0000153,6.8928375c-0.3485374,2.1435089-2.0978317,3.9419479-2.3518715,5.9932251
			c-0.1898956,1.5313568,0.4505348,3.091629,0.8781738,4.6121216c0.5877266,2.1043091,0.4415245,3.7368622-0.4327507,4.8528595
			C43.1546555,138.4021454,42.7616425,138.0918732,42.9662094,137.8338318z"></path>
    <path d="M48.7528,138.8104553c-0.1890831-3.5614319-2.1471863-7.0068817-5.1091995-8.9932404
			c-1.5735168-1.0595856-3.6898422-2.0721054-3.9464226-4.0663147c-0.0360603-0.2865524-0.031189-0.578949-0.025341-0.8625793
			c0.0265846-1.4674149-0.234745-1.7968597-1.7719421-2.0770111c-0.4736862-0.0867462-0.9629707-0.1764145-1.3869514-0.4210587
			c-1.3089752-0.7553635-1.3918228-2.5409546-1.0321693-3.9600677c0.3246841-1.2804489,0.9023972-2.6329727,0.5516586-3.8587036
			c-0.5971222-2.0832977-3.5929718-2.8970642-4.4688435-5.0926285c-0.6345043-1.5905609,0.0272999-3.3061523,0.3333359-4.9210892
			c0.3050709-1.6023483-0.0799217-3.4483719-1.4035187-3.8752747c-0.3112564-0.1022034-0.1645546-0.5721664,0.1539974-0.4756317
			c1.6725273,0.5409393,2.0750656,2.6832504,1.7407532,4.4444733c-0.2973518,1.5488892-0.9277363,3.22332-0.3606262,4.642334
			c0.8247032,2.0669708,3.8218689,2.8314896,4.4844398,5.1403885c0.3956528,1.3811417-0.2051773,2.7730637-0.5477638,4.1189423
			c-0.3001976,1.1851959-0.2709579,2.7885208,0.7982521,3.4045105c0.9021721,0.5216446,2.3359451,0.2330933,3.0536308,1.2124786
			c0.5493965,0.7467346,0.2731857,1.7151413,0.3762207,2.5175629c0.2243576,1.7460403,2.2013474,2.6933136,3.7300453,3.7144623
			c3.0896912,2.0721283,5.1316185,5.6667023,5.3294754,9.3811493C49.2682686,139.1166382,48.772213,139.1404724,48.7528,138.8104553
			z"></path>
    <path fill="#fca22b" d="M30.6401672,97.7853317c-0.8638496,2.4398727-1.0013065,2.6384888-0.8289566,2.9081116
			c0.1415596,0.2214584,0.4592743,0.2256775,0.7198792,0.1914978c0.5782089-0.0758362,1.1478424-0.2166443,1.6949577-0.4184647
			c0.2668381-0.0984268,0.3739853-0.4337311,0.2168579-0.6707993c-0.4520569-0.6820221-0.990654-1.3067017-1.5992203-1.8536835
			c-0.463522-0.4166183-0.6115398,0.0501556-0.4624958,0.1266632"></path>
    <path fill="#fdc553" d="M78.1235046 90.4957581c-.0363846.6605911.5436554 1.1892319 1.1993561 1.1011353 7.5433197-1.0134506 10.8423462 6.2741852 9.6181183 13.956192-.09095.5706787-.6494675.9499512-1.2194824.8549271l-2.8433151-.4739838c-.6017456-.1003113-.9886627-.6810989-.8472214-1.2745285 1.1665955-4.8944168-.4110641-10.2019196-5.3869171-8.840065-.4572296.1251373-.7942352.5280457-.8149109 1.0016403-.1076584 2.4656448-.1880264 4.9632111-.2402039 7.4815369-.021019 1.0144043-.8321381 1.8349686-1.8465424 1.8561401l0 0c-1.0303802.0215073-1.8969727-.7853165-1.9444504-1.814827-.2930832-6.3553391-.397583-12.7738342-.3544464-19.2127609.0094681-1.4126892 1.1940536-2.5399628 2.6058044-2.4876633h.0000076c1.4107285.052269 2.4986343 1.2700272 2.403656 2.6785278C78.3089294 87.4577713 78.229805 88.5658569 78.1235046 90.4957581zM98.3787842 85.1839905c9.6165924 1.0322723 8.0448456 11.7420044 6.3010941 20.9751816-.1057892.5601349-.636467.9228287-1.1995316.8339081-.6872559-.1085358-1.8914032-.0843658-2.3658447-.681076-.1472321-.1851654-.3414536-1.3345032-.0996399-1.4898453-3.1085358 1.9969635-6.8710785.9886856-8.8641586-2.0822449-2.3788528-3.6653214-.4588928-9.1186371 5.0431747-10.8312454 1.6522141-.5142746 3.3712921-.479805 3.6106339-.4014053.0386124.0133209.0825424.01931.1331406.01931-.9156342-1.6813202-3.118988-1.6266861-4.947319-1.0890503-.3106384.0913467-.6109314.1842117-.9010239.2785263-.5211945.1694565-1.0825806-.1034012-1.2882462-.6113892l-1.1517029-2.8446426c-.2288437-.5652313.0603561-1.2243881.6422577-1.4067154C95.0935287 85.2887344 96.556778 84.9675751 98.3787842 85.1839905zM101.664566 96.5697479c-2.5424118-.9838028-6.0411072.5126266-5.9418335 3.3616714.0133133.3820953.101181.7262573.267601 1.0317993 1.1321182 2.0953445 5.3154602.0398788 5.4708481-1.4724808C101.5524063 98.6028595 101.6181183 97.4592056 101.664566 96.5697479zM122.1499939 86.5604401c.5840378.0627365 1.0052414.5829163.9354858 1.166153-.3538666 2.9586868-.5970459 5.3363571-1.5544205 9.1293945-2.5321579 9.9906158-9.0765305 9.9959335-11.3857574 2.0822372-.8844986-3.0033875-1.2137985-5.0119247-1.9304123-9.2596436-.0956497-.5669785.2822571-1.1028748.8473434-1.2091217l2.9801102-.5603333c.5900955-.1109543 1.1548462.293335 1.2390137.8878479.3720398 2.6278839.95121 10.90168 2.5381851 10.1412506.9240723-.4445648 1.5782089-3.266861 1.7760315-4.2789764 1.0360184-5.6326904.3325348-6.6604385 1.1383972-7.8631287C119.3939667 85.8111267 121.1330032 86.4511795 122.1499939 86.5604401zM132.0753937 87.1710434c4.3186035-.6184845 7.0963593 3.3319397 5.6928711 6.9536667-1.1251068 3.0580597-4.8718262 4.4314194-8.1771851 4.4314194.0944519 2.8534164 3.2661896 2.9078369 4.1268311.8770142.2039795-.481308.694046-.7752838 1.2047119-.6635361.6720276.1470642 1.9857941.07061 2.2763519.8841629.4001617 1.1204529-.9668579 2.6159439-1.6660461 3.3151398-4.042984 4.0429764-10.8753967 1.0179214-10.3153458-7.4116592C125.4869003 91.3807602 127.8453674 87.681694 132.0753937 87.1710434zM132.4947662 94.3157578c2.4747467-.4115601 3.0299377-3.6186142.4593201-3.2098923-1.3150177.1786957-2.854599 1.4983368-3.2471771 3.3623352C130.4720306 94.4610291 130.9617767 94.5086365 132.4947662 94.3157578z"></path>
    <path fill="#ff5e85" d="M68.41996 126.2657318l-4.4515495-.2714844c-.710804-.0433502-1.3059425.5439911-1.2659683 1.2549896.203598 3.6212463.3959351 5.5345001.9049301 11.480957.0552788.6458435-.4169502 1.2227631-1.0617371 1.2892609l-1.8579788.1916046c-.6416893.0661774-1.2210312-.3978577-1.3035545-1.0376587-.6771317-5.2495575-1.099556-8.5444641-1.4774399-12.4704742-.0555344-.5770035-.5179062-1.0341339-1.0962448-1.0734253l-.4298668-.0291977c-.6234093-.0423431-1.1074562-.5603867-1.1074562-1.1852264v-1.879921c0-.6199875.4767876-1.1357193 1.0948715-1.1843033.6043434-.0475082 1.0815887-.5393448 1.0917587-1.1454697.0754929-4.500618 1.295002-9.3601685 5.4948044-10.9264908 3.5089569-1.305069 6.5558395.1681213 7.982872 4.238884.2364426.6753693.4132004 1.3406143.5302734 1.9958954.1281128.7170944-.388504 1.387886-1.1160889 1.4234543-.5425797.0265198-1.0851593.0530396-1.627739.079567-.6986313.0341492-1.7252274.2380142-2.237915-.3769531-.2493134-.299057-.2091446-.7295074-.3895645-1.0771713-.6311722-1.2162704-2.1712379-1.1911392-3.0338593.8818588-.4715767 1.0819321-.52808 1.9992828-.5760536 3.182663-.0288658.7121124.5554695 1.2982712 1.2666245 1.2513733l4.6363487-.3057327c.6818771-.0449677 1.2610168.4932175 1.266098 1.1765594l.0246811 3.3218536C69.685318 125.7591553 69.1067123 126.3076096 68.41996 126.2657318zM87.7195969 115.3037796c.6625443.0593643 1.1379852.6513824 1.0630951 1.312355-.6371613 5.6231003-.8384323 11.2834244-.4537354 16.9751282.0419388.6204529-.3951035 1.1658936-1.0112381 1.2501984l-1.8549347.2538147c-.6356506.0869751-1.2327881-.3460388-1.332695-.9797821-.0585175-.3712006-.1095352-.7242279-.1528473-1.0589447-1.0621948 1.0621948-2.3905029 1.7495728-3.9157028 1.8078766-6.9586105.4445801-7.3244171-9.9095764-5.6562424-16.5781479.1567078-.6264496.7938995-.9984436 1.422554-.8508224l3.3935089.7968674c.6492081.1524506 1.0326691.8061447.8677979 1.4523087-.750145 2.9399338-1.0225754 4.9498901-1.1044006 7.1751785-.0569839 1.4344559.0794907 2.3957596.4094162 2.8831558.7238846 1.0710297 1.8355255.3705292 2.3665237-.6456146 1.8356171-3.5085373 1.2477875-9.3812332 1.34655-12.9525604.0187912-.679451.6203766-1.1986771 1.2973862-1.1380234L87.7195969 115.3037796zM96.9735947 119.3283463c2.3616867-3.753273 8.7006226-7.3958359 12.8898697-4.6055679 2.006279 1.3399811 3.0729523 4.2889633 3.2273407 6.7568741.3299103 5.2785873-.8330078 9.483223-1.2561951 12.4630051-.0904388.6368408-.67276 1.0739746-1.3115158.99823l-3.2753983-.3883972c-.7198792-.0853577-1.1899719-.7793884-1.0050278-1.4803162 1.0524368-3.9887848 1.6621933-6.9016953 1.6621933-10.3875122 0-.8023376-.1289749-1.4772034-.3869171-2.0223389-1.9564667-4.1347427-9.9912186-.3470383-11.1615829 12.9456177-.0526199.5975952-.5212021 1.0640106-1.1203461 1.0942688l-1.9552536.0987701c-.6818542.0344391-1.2454376-.5149994-1.2393112-1.1976929.0514221-5.7299423-.2480087-11.0741272-.8056488-16.8200912-.062027-.6391296.3910446-1.2194366 1.0282211-1.2991028 1.1577835-.1447601 3.258667-.8473434 4.2128296.0522079C97.3445511 116.3543472 97.0136948 118.2782059 96.9735947 119.3283463z"></path>
    <path fill="#fff" d="M93.571846 132.1320343c.7660904-4.7475891.6120911-9.736908-.4454193-14.4289474-.0720062-.3205261.4122543-.4329224.4873352-.109169 1.0701828 4.7534485 1.2271042 9.8080673.4512634 14.618042C94.009903 132.5427246 93.5208893 132.4563293 93.571846 132.1320343zM109.120697 132.3601074c1.0789566-3.1033325 1.5506897-6.4805527 1.365509-9.7651749-.1417465-2.5466995-.8110352-5.2503204-3.1442719-6.2885437-1.2719421-.5662842-2.9074326-.4239807-4.3752823.3830414-1.448349.7963028-2.5779877 2.1111298-3.3996353 3.1676636-.2027283.2609863-.5967178-.0471039-.3937607-.3060455.8508835-1.0945435 2.0243759-2.4590759 3.553627-3.2982635 1.6033325-.8820801 3.4045105-1.0321732 4.8177795-.4025421 4.8642426 2.1664963 3.7722855 11.7095184 2.0477753 16.6736069C109.4843674 132.8334503 109.0129089 132.6740875 109.120697 132.3601074zM79.6809082 132.9439392c-2.4610062 0-3.5411072-2.1600952-3.8996429-4.6004181-.4171524-2.8450546-.2241745-5.8109665.5575104-8.5780411.08741-.3189316.5706635-.1813202.479538.1364517-.7621918 2.6988525-.9503021 5.593605-.5438614 8.3694611.2807007 1.9025421.8937683 3.1286774 1.8742828 3.7466125 1.5458145.9736938 3.663765.1715393 4.8187485-1.1666718.2181778-.2510223.5922012.0766144.3781662.325531C82.4577332 132.2061157 81.0503159 132.9439392 79.6809082 132.9439392zM85.8534698 133.2070923c-.8694077-5.4054947-1.0029373-10.9045563-.3966904-16.3441696.0352173-.3286896.5325241-.2725983.4951324.0545807-.6003952 5.395752-.4678421 10.8490067.3947372 16.2096786C86.3978271 133.4528656 85.9062271 133.53685 85.8534698 133.2070923zM61.2450981 137.9780884c-.9844131-7.0458679-2.0029411-14.3324661-.7271004-21.5138016.475399-2.6700668 1.5605621-5.4111328 4.2670898-5.7281189 2.1565475-.251709 4.1237335 1.7670746 4.2524643 3.9444733.0192413.3390732-.4813156.341362-.4990311.0292435-.1096039-1.8794708-1.8129807-3.6938629-3.6949539-3.4785843-2.458786.2906265-3.4010048 2.8952713-3.8343391 5.3207016-1.2621918 7.1023941-.2495155 14.3490295.730999 21.3578644C61.7849083 138.2391052 61.2905045 138.3009949 61.2450981 137.9780884zM56.6836586 123.5491333c-.3198929 0-.3357506-.4785919-.0155945-.4990311l1.6384163-.1003876c.3561783-.0082855.3405151.4792786.031189.4990234C58.2371597 123.4548569 56.5781097 123.5555573 56.6836586 123.5491333z"></path>
    <path fill="#fff" d="M67.0151215 123.8814926c-1.4503021-.2884979-2.9337463-.3849945-4.416214-.2953262-.2863998.0631485-.3949051-.4764404-.031189-.4970779 1.5243759-.096489 3.0526581.0068207 4.5448685.3031235C67.4283524 123.4535446 67.3502502 123.9406357 67.0151215 123.8814926zM75.2666473 104.2049332c.1530228-6.378212.099411-12.8392792-.1617966-19.2038498-.0143661-.3375854.4856033-.334938.4990311-.0194931.2612076 6.374321.3157883 12.8460999.1617889 19.2350388C75.7585373 104.5471802 75.2595444 104.5385895 75.2666473 104.2049332zM86.8291092 104.6786194c2.1127014-7.9207611-4.281723-13.097374-9.0760956-10.523468-.2884598.1594772-.5273895-.2846756-.2358627-.4385986 5.1359711-2.7672501 12.0409012 2.6713562 9.7934418 11.0907211C87.2262573 105.127739 86.7427139 104.9985199 86.8291092 104.6786194zM96.1371689 103.8998642c-1.6491318-.5331421-2.8986588-2.1861801-3.0390091-4.0205002-.2483826-3.2252655 2.5519791-6.3060684 6.8304596-6.4503403.343811.0052872.3357468.4877472.0175476.4990311-4.0062714.1348877-6.574852 2.9863968-6.3509293 5.912323.1257324 1.6384125 1.2339325 3.1121063 2.6959305 3.583847 1.3567352.4385986 2.8158112.0653 4.4444733-.4278793.3314819-.0863724.45047.3852692.1442566.4775848C99.3421097 103.9400177 97.699852 104.402832 96.1371689 103.8998642z"></path>
    <path fill="#fff" d="M102.3350677 104.8764801c-.1059952-2.7380371.7129364-5.3944626 1.0360718-8.0751114.2729111-2.2709732.1871338-5.4035492-1.7680435-7.4240341-1.496109-1.5458145-4.0477905-2.218338-6.6530685-1.7592697-.3336029.055603-.4077682-.43367-.0877228-.4912338 2.8138657-.4980545 5.4649506.2154007 7.099472 1.9035263 2.091629 2.1618118 2.1900711 5.4513092 1.9044952 7.8314438-.323616 2.6801987-1.1354523 5.335434-1.0321732 7.9951859C102.8458405 105.1880798 102.3495255 105.2089233 102.3350677 104.8764801zM113.3790131 100.3403854c-1.7368546-3.115036-2.9932022-6.4620361-3.7339478-9.9493942-.0695724-.3200531.4187164-.4298248.4873352-.1033173.7309952 3.4376526 1.9698029 6.7378693 3.6832657 9.8090439 1.0643539 1.9097519 2.1707535 1.8621597 3.180336.0506821 1.8733063-3.3655243 2.9814987-7.1774445 3.2037201-11.0224991.0185699-.3272705.5178375-.3022003.4990311.0292358-.2270966 3.919136-1.3567352 7.80513-3.2661057 11.2359543C116.2108154 102.5843964 114.6149597 102.5512924 113.3790131 100.3403854zM126.741684 97.5898743c-.3781662-3.519516 1.2310028-7.6774445 5.0380554-8.8129272 3.32724-1.001236 6.2197418 2.6440353 4.4386292 5.6706009-1.492218 2.5281982-5.5484924 2.5768204-5.4483948 2.553627-.3200836 0-.3348236-.4777374-.0165558-.4980545 8.5736694-.5610275 5.6591949-8.5816727 1.1686249-7.2485886-3.5458374 1.0584869-5.0400085 4.9678726-4.6832809 8.2827072.5425797 5.0555191 5.7443924 6.5761795 8.1647873 2.6072388.1719208-.2834625.5979156-.0218735.4268951.2592545C133.1571198 104.7817001 127.3400192 103.12043 126.741684 97.5898743z"></path>
    <path fill="#70e474" d="M40.9636726,37.3139877c-22.1725044,7.2605438-14.5251808,4.7563744-16.1795311,5.2981033
			c6.736187-22.8957539,4.4128685-14.9989815,4.9154739-16.7072964
			C32.8535538,29.9814835,36.6587296,33.7860451,40.9636726,37.3139877z"></path>
    <path fill="#ff6545" d="M60.592907,49.7554092c-18.2809677,12.6472893-11.9758377,8.2852249-13.3398323,9.2288742
			c-0.0665703-23.3203545-0.0435982-15.2721252-0.0485687-17.0142021
			C51.3684425,44.8234406,55.8672523,47.4316597,60.592907,49.7554092z"></path>
    <path fill="#fdcc59" d="M83.913353,58.5337906C68.3197098,74.3911514,73.6979752,68.9219284,72.5344925,70.1050873
			c-4.1901093-21.6447906-2.8451004-14.6968956-3.1817169-16.4357719
			C74.0942154,55.5595894,78.9706573,57.1928406,83.913353,58.5337906z"></path>
    <path fill="#ff5e85" d="M130.8101501,61.3124046l-6.3650513,15.3387337l-8.9712372-13.8480492
			C120.8034058,62.7535095,125.954483,62.2709808,130.8101501,61.3124046z"></path>
    <path fill="#9f7bf9" d="M108.85186,62.6446266c-13.2086868,19.1668205-8.6529922,12.5561638-9.6385269,13.9862556
			c-8.239418-21.5501938-5.5567627-14.5337181-6.1081009-15.9757309
			C98.3879471,61.6812782,103.6780701,62.3527756,108.85186,62.6446266z"></path>
    <path d="M29.5021706,26.0571785c-0.8584309-1.098814-3.0513668-4.4618568-3.9074364-5.7641754
			c-0.182991-0.2733288,0.23246-0.5522938,0.4152088-0.2758293c4.5527763,6.9234867,7.0839672,10.4098377,15.1209698,17.107338
			c23.2526855,18.9948311,61.3626938,29.5181122,89.6303024,23.9436493c1.5048828-0.2972717,6.0965271-1.3440666,7.5127258-1.727108
			c0.3257446-0.0808601,0.4443054,0.3961372,0.1306,0.4814835c-1.423996,0.3849945-6.0361023,1.436657-7.5458679,1.7349052
			C98.207695,68.0009232,50.1929169,52.8090515,29.5021706,26.0571785z"></path>
    <path d="M57.5019302 51.8915138l-10.2488556 7.0927696-.0165596-5.4195061c2.0727196.5039902 4.304348.3511276 6.2541466-.5381317C54.8594971 52.4003258 56.0304718 51.5520706 57.5019302 51.8915138zM38.2582932 38.2023659l-13.4741516 4.4097252 1.5539627-5.2733078c2.1595612 1.1589775 4.7455463 1.5445251 7.1159401.9012451C35.137928 37.7801285 36.815136 36.9457474 38.2582932 38.2023659zM81.8270187 60.6600304l-9.2925262 9.4450569-.8927307-4.616951c2.3141251-.0713959 4.6089096-.9264145 6.312088-2.5086212C79.058754 61.9511299 80.1881027 60.4490318 81.8270187 60.6600304zM106.9277344 65.4432373l-7.7144012 11.187645-1.4820557-3.8727875c2.0216293-.7506027 3.810463-2.1483231 4.9243851-4.0179749C103.6148911 67.1351852 104.3888168 64.9323807 106.9277344 65.4432373zM129.7258453 63.9253807l-5.2807465 12.7257576-2.3465347-3.6387177C127.9848251 69.2411423 125.0231094 63.9993782 129.7258453 63.9253807z" opacity=".1"></path>
    <path fill="#fff" d="M28.0664883 35.0694313l1.7504997-5.8801632c.0961723-.3166637.5727482-.1721916.4775867.1423016L28.544075 35.211731C28.4499111 35.5284615 27.9709301 35.3852386 28.0664883 35.0694313zM48.2030907 50.5627213l.0243645-5.4591026c.0023651-.3334084.5013771-.3288574.4990311.0019493l-.0243683 5.4591026C48.699749 50.8987541 48.2007561 50.8929176 48.2030907 50.5627213zM71.9440079 62.6188545c-.174469-1.9025497-.5000076-3.8050957-.9668732-5.655014-.0812836-.3181648.401413-.4440765.4834366-.1218338.4736862 1.8742828.8031235 3.8031502.9805145 5.7320137C72.4715805 62.9024353 71.9740067 62.9513893 71.9440079 62.6188545zM97.6479034 69.3927841c-.6676483-1.9668732-1.4551773-3.9132843-2.3421249-5.7846451-.1427002-.2994385.3121948-.5117035.4502945-.2144241.8957214 1.8889008 1.6910477 3.8538284 2.3635635 5.8392258C98.2272644 69.546463 97.7532501 69.7059097 97.6479034 69.3927841zM121.0330658 70.5146255c-.8109207-1.6822739-1.7105408-3.3431091-2.6725311-4.9376602-.1704712-.2825623.2575531-.540329.4269028-.257309.9707642 1.6072235 1.8772049 3.2817001 2.6959229 4.9785919C121.6266327 70.5965271 121.1782379 70.8114319 121.0330658 70.5146255z"></path>
    <path d="M141.2983246 63.6344566c-.292984 0-2.1183472-1.2149162-3.1452484-3.1481705-1.6540833 1.945755-3.5561676 2.7037888-5.1822968 2.6588898-.3262177-.0091896-.3185577-.4990311.0068207-.4990311.0536041-.0038986.0877228.0019493.1306.0019493 1.4961853 0 3.2495117-.7443123 4.806076-2.6540146-.0331268-.0740738-.0643158-.1481514-.0945435-.2222252-.8086395-.088707-2.5353088-.4115334-3.2719421-.9980583-.8746796-.6984177-.9916229-1.9354286-.0029297-2.5102539.8989868-.52145 2.1859589-.2192612 2.9698029 1.3114166.2826996.5539894.4464264 1.1411362.6598511 1.7280807.0828552.0058479.1676483.0107231.2514648.0136452.822998-1.1701469 1.0268707-1.8582649 1.7407532-2.2656097.3421173-.1934738.7807159-.2339211 1.1442566-.1096497 1.4470062.4961815.6402588 2.8670921-2.6325684 2.8781891-.0604248.0828438-.1208649.1627693-.1812897.2417145.6403503 1.2982559 1.6627808 2.3879318 2.9249725 3.1072388C141.6421051 63.2919846 141.5547485 63.6344566 141.2983246 63.6344566zM139.0370941 59.3079147c2.2313232-.1489754 2.9775085-1.5992393 2.1121063-1.8942642C140.3769836 57.1519547 139.6566772 58.3764305 139.0370941 59.3079147zM134.7953491 56.6948357c-.6805573.3984299-.5336151 1.2118721.0633545 1.6890945.5961456.4742012 2.1267548.7712326 2.7651215.86063C137.200882 58.0029793 136.3089294 55.8183441 134.7953491 56.6948357zM122.3566589 44.3019524c-1.2553635-.7758331-2.266098-1.9015732-2.9074249-3.2227325-1.7145538 1.8791161-3.6456528 2.5770683-5.2748947 2.4712677-.3081207-.0196686-.3218384-.5095406.0331421-.4980545 1.5132599.0970688 3.3464355-.5625038 5.0205002-2.4737015-.0292358-.0745621-.0584793-.1496124-.0857697-.2251511-.8064346-.1178703-2.5185471-.500721-3.2349167-1.1145287-.8529282-.7325706-.9175186-1.9716721.0886993-2.5092773.9188614-.4905052 2.1939316-.1359253 2.9191208 1.4176521.2670593.569191.4101944 1.1735344.5984421 1.7504997.0828476.00877.1666718.0165672.2504959.0224152.8698044-1.1492424 1.0950317-1.821003 1.8216476-2.2007942.6139679-.3199577 1.4945602-.1481361 1.7407532.50634.239769.6398659-.2339172 1.2777863-.8109207 1.6262283-.7729111.4688148-1.6471863.6155014-2.5165863.5799255-.0643311.08041-.1276855.1588707-.19104.2353821.592598 1.3196983 1.5760345 2.4464111 2.8119125 3.2105522C122.8997879 44.050621 122.6384506 44.4763947 122.3566589 44.3019524zM120.3741913 39.9339867c2.2165756-.0672188 3.0404739-1.4823837 2.1793518-1.8172646C121.5983276 37.7548981 121.0244446 39.0357246 120.3741913 39.9339867zM116.2318573 37.1698341c-.6941147.3704796-.5830536 1.1904984.0009766 1.6900711.5815964.499054 2.1082382.8505669 2.7329636.9600487C118.58535 38.5902901 117.7796555 36.3457375 116.2318573 37.1698341zM65.9030228 25.8412914c-1.0331421-1.0541019-1.7456207-2.3889065-2.0516701-3.8245907-2.1244087 1.4194756-4.1635895 1.6276436-5.7125168 1.1364613-.3168602-.0997524-.1608505-.5781097.1501007-.4756374 1.4506493.4587898 3.3919792.2498131 5.4668999-1.1998138-.0107193-.0799236-.0204659-.159359-.0292397-.2392807-.7545319-.3070927-2.3282394-1.0919228-2.8733139-1.856739-.3362617-.4707642-.5204735-1.209074-.1734924-1.7953339.4236946-.7212067 1.4704781-.8563995 2.1813011-.4308033 1.3121872.7849083 1.2532959 2.5475101 1.3343201 3.7290726.078949.0287533.1588669.0560436.2387924.081871 1.0947723-.883503 1.4906693-1.503994 2.2953415-1.700304.3810959-.0945435.8118973-.0136452 1.1296387.2071171.7661591.5336285.5579224 1.6806774-.7368469 2.0857849-.865509.2699833-1.7544022.1939583-2.5828705-.0394745-.0808945.0628662-.1617966.1237831-.2417145.1832371.260231 1.4230137.9444504 2.751482 1.9620056 3.7895031C66.4909821 25.7282562 66.1326141 26.0777664 65.9030228 25.8412914zM65.02388 21.1258564c2.1828995.4705963 3.3063354-.7185879 2.5497208-1.2426987C66.7364044 19.3045025 65.8739471 20.4020329 65.02388 21.1258564zM61.1096191 17.8397694c-.2329445.3937645-.0925941.912775.1491241 1.2524452.443924.6204376 1.840023 1.3281746 2.4239922 1.5852947-.06073-.9666271-.0406647-2.4726601-1.07798-3.0940781C62.1309319 17.3003826 61.3890572 17.3627987 61.1096191 17.8397694zM26.6717415 26.2979221c-1.0976639-1.1977253-1.7691631-3.1209545-1.3791523-5.6598873-1.4317856.3270016-2.9415436.2456169-4.3323917-.2461014-.3131962-.111021-.1416893-.5828552.1656933-.4707642 1.3703804.4844093 2.8635693.5443497 4.2631893.1798248.0204678-.0979538.0419102-.196394.0643272-.2958107-.5623817-.6544876-1.0058537-1.4283733-1.1257381-2.3260403-.0886955-.66716.1111126-1.4361706.7602386-1.6496229.6600399-.2175951 1.3501549.3554773 1.484417 1.0389948.1515751.7572308-.2607708 1.5511799-.573103 2.7987537.0575047.0614033.115984.1218319.1744652.1812878 1.0355759-.3946552 2.6425343-1.2432346 3.9444733-.3625755.6895771.4678631 1.001564 1.4746819.5302181 2.1598587-.3869419.5618954-1.1325626.7061462-1.701767.5999069-.9184055-.1721039-2.3096638-1.2776947-2.8957329-1.8226242-.0760231.0258274-.1520481.0501957-.2290459.0735874-.4381924 2.5019283.1894951 4.3422337 1.2183323 5.4639778C27.2615414 26.2030373 26.8974533 26.5413361 26.6717415 26.2979221zM26.577198 20.2262402c.4690723.411808 1.7000465 1.3865662 2.4610329 1.5292511.4103336.0765114.9395771-.0151081 1.1988392-.3927917.3134212-.4537868.0574722-1.1544571-.3996143-1.4634609C28.8155403 19.2047329 27.396431 19.9076481 26.577198 20.2262402zM25.6064301 19.1999168c.2739563-1.001894.9440269-2.3130932.050684-2.8362789C24.853138 15.8946514 24.2677441 17.4297638 25.6064301 19.1999168z"></path>
    <path fill="#9f7bf9" d="M82.136673,31.453331c-1.92733,4.8317223-3.685463,9.3622131-5.5311279,14.1514778
				c-1.5194092-2.6845169-2.9115753-5.3885956-4.1855927-8.1049118c-3.0260773,0.5145454-6.1211853,0.8964348-9.2853813,1.1457062
				c1.0242043-1.7173157,0.0854492-0.1580353,7.7353096-13.0113411c4.0067291,2.3748035,8.2841187,4.5189285,11.2273636,5.7980881
				C82.112854,31.4423962,82.1202164,31.4515457,82.136673,31.453331z"></path>
    <path fill="#ff5e85" d="M97.5503769,36.9628105c-1.2854462,5.5715942-2.3706131,10.404892-3.3473358,14.8638802
				c-1.8896866-2.4242668-3.6503372-4.8846512-5.2902222-7.3819504c-2.8929138,0.9795189-5.8649597,1.8419838-8.9243317,2.5865135
				c0.4724731-1.1548729,4.2066116-10.4381638,5.6742477-14.0859032C88.3834,34.079483,92.9006119,35.6757736,97.5503769,36.9628105
				z"></path>
    <path fill="#fdcc59" d="M112.4300537,55.3217926c-2.2150116-2.1174889-4.3148117-4.297596-6.2937393-6.5146027
				c-2.7049713,1.4003716-5.5090942,2.7149239-8.4014511,3.9197922c0.2040405-0.8536339,3.2347412-13.6601524,3.5104294-14.8294907
				c4.5530624,1.0724373,9.16185,1.8362312,12.2877121,2.175209
				C113.048111,46.3272362,112.660202,51.9611778,112.4300537,55.3217926z"></path>
    <path d="M119.4823685,40.8623581c-2.4353104-0.4935074-28.3297272-0.5016174-55.3152237-19.2418594
				c-0.2711716-0.1893539,0.0136032-0.5969429,0.2846069-0.4103336c16.2584,11.2910175,35.2926559,17.9138737,55.0462112,19.1536503
				C119.8180542,40.3842468,119.8006134,40.8623581,119.4823685,40.8623581z"></path>
    <path d="M78.8081818 39.9114075c-.7396851 1.8972397-1.4711609 3.7953224-2.2026367 5.6934013-1.5194092-2.6845169-2.9115753-5.3885956-4.1855927-8.1049118-3.0260773.5145454-6.1211853.8964348-9.2853813 1.1457062.6730232-1.128479 1.337841-2.2578506 2.0108681-3.3863297C70.4057465 33.1917496 75.9157791 35.1105804 78.8081818 39.9114075zM95.9611282 43.9241447c-.5939713 2.6305199-1.1796799 5.2619858-1.7580872 7.9025459-1.8896866-2.4242668-3.6503372-4.8846512-5.2902222-7.3819504-2.8929138.9795189-5.8649597 1.8419838-8.9243317 2.5865135.2157059-.527256.4222641-1.0472069.63797-1.5744629 2.1415329-1.4364662 4.3701859-2.8301277 6.8526993-3.4870338C90.4716034 41.1727829 93.9883881 41.6102104 95.9611282 43.9241447zM112.9990234 47.2100487c-.2192535 2.6878166-.3836441 5.4161682-.5860825 8.1117439-2.2109451-2.1353531-4.3027878-4.2719154-6.2766266-6.5146027-2.7269974 1.3754768-5.4766998 2.7536469-8.4014511 3.9197922.1396484-.5522919.2979813-1.3046761.4376221-1.8569679 1.9189606-1.7225533 3.8350067-3.3664742 6.2008896-4.3649826C107.9199905 45.0015068 111.231636 45.6469154 112.9990234 47.2100487z" opacity=".1"></path>
    <path fill="#fff" d="M69.0239105 31.4085827l2.040947-3.9079227c.1533508-.2904358.5950241-.0634995.4424973.2309952l-2.040947 3.9079247C69.3132629 31.9308815 68.8714218 31.7029953 69.0239105 31.4085827zM84.205307 40.3228798l1.8508911-5.3343468c.10923-.3102722.5796127-.1493301.4717407.1637421l-1.8508911 5.3343468C84.5675812 40.7987366 84.0980377 40.6341972 84.205307 40.3228798zM100.7239456 44.0997124l1.2280807-4.0911636c.0963745-.3173141.5728073-.1714211.4775848.1432762l-1.2280807 4.0911636C101.1075897 44.5589752 100.628212 44.4160957 100.7239456 44.0997124z"></path>
    <path fill="#fdcc59" d="M24.2089634,95.8203583c-1.5833473-2.5997086-0.6593456-6.4055176,1.9398136-7.9897614
			c-2.6347961,0.4730759-5.3233185-1.6444397-5.8736095-4.2641983s0.7892056-5.4162369,2.9387932-7.0116119
			c-2.3384495,0.9181213-5.1048527-0.9745407-5.726532-3.408638c-0.6216793-2.4340897,0.4574127-5.0374451,2.1118507-6.9279785
			c-2.5429306,0.0956497-4.8765326-1.982132-5.4428043-4.4630547c-0.5662708-2.4809265,0.4450426-5.1596832,2.2404671-6.9630432
			c2.2744579-2.2845039,6.2047386-3.1677742,8.7722797-1.2184525c1.5104198,1.14674,2.3041,3.0648308,2.4080429,4.9583893
			c0.103941,1.8935623-0.412962,3.7718468-1.1249332,5.5295372c2.2201462,0.5654984,4.0552197,2.4357605,4.5784512,4.6662445
			c0.5232334,2.2304916-0.2887173,4.7216949-2.0257893,6.2154922c2.5270729-0.1365967,5.0552597,1.4724731,6.0015106,3.8196793
			s0.2409439,5.2598267-1.6742935,6.9141083c2.7605553,1.0735931,4.5587196,4.2002029,4.0983963,7.1261826
			C36.5273933,98.5444336,27.4125576,101.0803452,24.2089634,95.8203583z"></path>
    <path fill="#fca22b" d="M30.6293907,82.3175278c-0.3090019,1.2256165-1.1382446,2.3347778-1.1169586,3.5985641
			c0.0402622,2.3906174,2.6920395,3.6104584,3.4733925,5.7556992c0.3902054,1.0713196,0.1458702,2.4853745-0.8697662,3.0035172
			c-0.5243263,0.2674866-1.1585121,0.2545929-1.6790867,0.5293198c-0.8531876,0.4502563-0.8659401,1.94561,0.6214981,1.3836899
			c4.3158817-1.6304398,4.8894901-5.5292053,3.0282803-7.3414459c-0.9184494-0.8942871-2.793354-1.4104919-2.8757057-2.89991
			c-0.0434494-0.7858124,0.5182762-1.4539948,0.8872337-2.1491623c0.7370491-1.3887024,0.712738-3.1528168-0.0622902-4.5206833
			c-0.6504803-1.1480331-2.0407391-2.2797699-3.4128323-2.293663
			C30.1024475,78.5864563,31.1290436,80.3357239,30.6293907,82.3175278z"></path>
    <path fill="#146ff4" d="M43.5106697,108.2954559c-1.8492317,1.8109512-2.0600586,1.928833-2.0239143,2.246788
			c0.029686,0.2611542,0.3131409,0.4047318,0.5622025,0.4887009c0.5526047,0.1862946,1.126091,0.3104782,1.7062035,0.369957
			c0.2829285,0.0290146,0.5266762-0.2249527,0.4898758-0.5069733c-0.1058769-0.8113556-0.3146973-1.6092911-0.620533-2.368248
			c-0.2329445-0.578064-0.5712357-0.2240219-0.4710579-0.0897369"></path>
    <g>
      <path fill="#4689ff" d="M38.5999374,103.7013092c-0.2780495-3.0311966,2.226181-6.042305,5.2572861-6.3214035
			c-2.5742149-0.7344208-4.0568733-3.8188629-3.398407-6.4135437c0.6584702-2.5946808,3.0917358-4.5165939,5.7240143-5.0034866
			c-2.5039024-0.2043839-4.155426-3.12117-3.6427536-5.5805283c0.5126724-2.4593658,2.6271248-4.3224182,4.9446182-5.2922211
			c-2.3256569-1.0329437-3.5070801-3.9255371-2.9240456-6.4025726c0.5830345-2.4770432,2.669796-4.4376373,5.0755424-5.2671204
			c3.0476112-1.0507965,6.9656563-0.1147423,8.4136734,2.7654266c0.8518333,1.6943283,0.7206497,3.7659912-0.0191345,5.5121613
			c-0.7397842,1.7461624-2.0303688,3.205452-3.4430695,4.4706268c1.7449036,1.4846344,2.5699425,3.9715424,2.058445,6.2047424
			c-0.5114937,2.2332077-2.3367081,4.1130981-4.5538483,4.6902618c2.3294296,0.9891968,3.8918076,3.5465012,3.7088356,6.0706406
			c-0.1829758,2.5241394-2.0978394,4.8293762-4.5455818,5.4722748c2.0066452,2.1786804,2.2457733,5.7775574,0.5450363,8.2025833
			C48.4634628,111.5673828,39.1625137,109.8343353,38.5999374,103.7013092z"></path>
    </g>
    <g>
      <path fill="#a9ccff" d="M50.3064766,94.4004974c-0.8167305,0.964653-2.0494041,1.5958405-2.5863266,2.740097
			c-1.0156631,2.1645126,0.8289566,4.4266586,0.5867615,6.6968842c-0.1209488,1.1337357-0.9625168,2.2960663-2.1025352,2.3145065
			c-0.5885429,0.0095215-1.1523743-0.2810898-1.7407265-0.2634201c-0.9642715,0.0289459-1.6336479,1.3661804-0.0506821,1.5160065
			c4.5930595,0.4347382,6.8235321-2.8140106,5.9494934-5.2603073c-0.4313087-1.2071762-1.8878708-2.4956436-1.3065147-3.8693924
			c0.3067207-0.7247849,1.1051407-1.0776672,1.7423286-1.5396042c1.2728691-0.9227753,2.0272141-2.5176697,1.9330559-4.0870132
			c-0.0790253-1.3171463-0.8295479-2.945137-2.0555878-3.5613022C51.474865,90.8181152,51.6271172,92.8406525,50.3064766,94.4004974
			z"></path>
    </g>
    <g>
      <path fill="#70e474" d="M41.3619652,130.0918274c-1.3600349-0.9163666,0.6251335-2.986351,2.5239372-2.2698898
				c0.5158844,0.1937027,0.7757721,0.768959,0.5811005,1.2838669c-0.1946754,0.5139313-0.7699318,0.7767487-1.2838707,0.5811005
				c-0.1382179-0.05159-0.355278,0.0146027-0.438015,0.1372375
				C42.4370651,130.2823181,41.8143539,130.3994446,41.3619652,130.0918274z"></path>
    </g>
  </g>
</svg>
