<svg width="1000" height="1000" viewBox="0 0 1000 1000" fill="none" xmlns="http://www.w3.org/2000/svg">
<path d="M925 903.58H75C71.287 903.58 67.726 902.105 65.1005 899.479C62.475 896.854 61 893.293 61 889.58V322.92C61 319.207 62.475 315.646 65.1005 313.021C67.726 310.395 71.287 308.92 75 308.92H925C928.713 308.92 932.274 310.395 934.899 313.021C937.525 315.646 939 319.207 939 322.92V889.58C939 893.293 937.525 896.854 934.899 899.479C932.274 902.105 928.713 903.58 925 903.58ZM89 875.58H911V336.92H89V875.58ZM551 195.25H449C445.287 195.25 441.726 193.775 439.1 191.149C436.475 188.524 435 184.963 435 181.25C435 177.537 436.475 173.976 439.1 171.351C441.726 168.725 445.287 167.25 449 167.25H551C554.713 167.25 558.274 168.725 560.899 171.351C563.525 173.976 565 177.537 565 181.25C565 184.963 563.525 188.524 560.899 191.149C558.274 193.775 554.713 195.25 551 195.25Z" fill="black"/>
<path d="M925 336.92H75C71.287 336.92 67.726 335.445 65.1005 332.819C62.475 330.194 61 326.633 61 322.92V181.25C61 177.537 62.475 173.976 65.1005 171.351C67.726 168.725 71.287 167.25 75 167.25H177C180.713 167.25 184.274 168.725 186.899 171.351C189.525 173.976 191 177.537 191 181.25C191 184.963 189.525 188.524 186.899 191.149C184.274 193.775 180.713 195.25 177 195.25H89V308.92H911V195.25H823C819.287 195.25 815.726 193.775 813.101 191.149C810.475 188.524 809 184.963 809 181.25C809 177.537 810.475 173.976 813.101 171.351C815.726 168.725 819.287 167.25 823 167.25H925C928.713 167.25 932.274 168.725 934.899 171.351C937.525 173.976 939 177.537 939 181.25V322.92C939 326.633 937.525 330.194 934.899 332.819C932.274 335.445 928.713 336.92 925 336.92Z" fill="black"/>
<path d="M364 195.25H262C258.287 195.25 254.726 193.775 252.101 191.149C249.475 188.524 248 184.963 248 181.25C248 177.537 249.475 173.976 252.101 171.351C254.726 168.725 258.287 167.25 262 167.25H364C367.713 167.25 371.274 168.725 373.9 171.351C376.525 173.976 378 177.537 378 181.25C378 184.963 376.525 188.524 373.9 191.149C371.274 193.775 367.713 195.25 364 195.25ZM738 195.25H636C632.287 195.25 628.726 193.775 626.101 191.149C623.475 188.524 622 184.963 622 181.25C622 177.537 623.475 173.976 626.101 171.351C628.726 168.725 632.287 167.25 636 167.25H738C741.713 167.25 745.274 168.725 747.899 171.351C750.525 173.976 752 177.537 752 181.25C752 184.963 750.525 188.524 747.899 191.149C745.274 193.775 741.713 195.25 738 195.25Z" fill="black"/>
<path d="M219.5 266.08C204.52 266.064 190.158 260.106 179.566 249.514C168.974 238.922 163.016 224.56 163 209.58V152.92C163 137.935 168.953 123.564 179.548 112.968C190.144 102.373 204.515 96.42 219.5 96.42C234.485 96.42 248.856 102.373 259.452 112.968C270.047 123.564 276 137.935 276 152.92V209.58C275.984 224.56 270.026 238.922 259.434 249.514C248.842 260.106 234.48 266.064 219.5 266.08ZM219.5 124.42C211.944 124.428 204.699 127.433 199.356 132.776C194.013 138.119 191.008 145.364 191 152.92V209.58C191 213.323 191.737 217.029 193.169 220.486C194.602 223.944 196.701 227.086 199.347 229.733C201.994 232.379 205.136 234.478 208.594 235.911C212.051 237.343 215.757 238.08 219.5 238.08C223.243 238.08 226.949 237.343 230.406 235.911C233.864 234.478 237.006 232.379 239.653 229.733C242.299 227.086 244.398 223.944 245.831 220.486C247.263 217.029 248 213.323 248 209.58V152.92C247.992 145.364 244.987 138.119 239.644 132.776C234.301 127.433 227.056 124.428 219.5 124.42ZM406.5 266.08C391.52 266.064 377.158 260.106 366.566 249.514C355.974 238.922 350.016 224.56 350 209.58V152.92C350 137.935 355.953 123.564 366.548 112.968C377.144 102.373 391.515 96.42 406.5 96.42C421.485 96.42 435.856 102.373 446.452 112.968C457.047 123.564 463 137.935 463 152.92V209.58C462.984 224.56 457.026 238.922 446.434 249.514C435.842 260.106 421.48 266.064 406.5 266.08ZM406.5 124.42C398.944 124.428 391.699 127.433 386.356 132.776C381.013 138.119 378.008 145.364 378 152.92V209.58C378 217.139 381.003 224.388 386.347 229.733C391.692 235.077 398.941 238.08 406.5 238.08C414.059 238.08 421.308 235.077 426.653 229.733C431.997 224.388 435 217.139 435 209.58V152.92C434.992 145.364 431.987 138.119 426.644 132.776C421.301 127.433 414.056 124.428 406.5 124.42ZM593.5 266.08C578.52 266.064 564.158 260.106 553.566 249.514C542.974 238.922 537.016 224.56 537 209.58V152.92C537 137.935 542.953 123.564 553.548 112.968C564.144 102.373 578.515 96.42 593.5 96.42C608.485 96.42 622.856 102.373 633.452 112.968C644.047 123.564 650 137.935 650 152.92V209.58C649.984 224.56 644.026 238.922 633.434 249.514C622.842 260.106 608.48 266.064 593.5 266.08ZM593.5 124.42C585.944 124.428 578.699 127.433 573.356 132.776C568.013 138.119 565.008 145.364 565 152.92V209.58C565 217.139 568.003 224.388 573.347 229.733C578.692 235.077 585.941 238.08 593.5 238.08C601.059 238.08 608.308 235.077 613.653 229.733C618.997 224.388 622 217.139 622 209.58V152.92C621.992 145.364 618.987 138.119 613.644 132.776C608.301 127.433 601.056 124.428 593.5 124.42ZM780.5 266.08C765.52 266.064 751.158 260.106 740.566 249.514C729.974 238.922 724.016 224.56 724 209.58V152.92C724 137.935 729.953 123.564 740.548 112.968C751.144 102.373 765.515 96.42 780.5 96.42C795.485 96.42 809.856 102.373 820.452 112.968C831.047 123.564 837 137.935 837 152.92V209.58C836.984 224.56 831.026 238.922 820.434 249.514C809.842 260.106 795.48 266.064 780.5 266.08ZM780.5 124.42C772.944 124.428 765.699 127.433 760.356 132.776C755.013 138.119 752.008 145.364 752 152.92V209.58C752 217.139 755.003 224.388 760.347 229.733C765.692 235.077 772.941 238.08 780.5 238.08C788.059 238.08 795.308 235.077 800.653 229.733C805.997 224.388 809 217.139 809 209.58V152.92C808.992 145.364 805.987 138.119 800.644 132.776C795.301 127.433 788.056 124.428 780.5 124.42ZM675.81 551.15C672.509 551.152 669.314 549.987 666.789 547.862C664.263 545.736 662.57 542.787 662.008 539.535C661.445 536.282 662.05 532.936 663.716 530.086C665.381 527.236 668 525.066 671.11 523.96L727.68 503.79L639.9 453.11L650.72 512.19C651.277 515.796 650.403 519.477 648.286 522.449C646.169 525.421 642.975 527.449 639.385 528.101C635.794 528.752 632.092 527.977 629.065 525.939C626.038 523.901 623.927 520.762 623.18 517.19L607 428.71C606.443 426.063 606.665 423.311 607.639 420.788C608.613 418.264 610.297 416.077 612.488 414.49C614.679 412.904 617.282 411.986 619.984 411.847C622.685 411.709 625.369 412.356 627.71 413.71L767.95 494.71C770.294 496.062 772.197 498.065 773.427 500.475C774.657 502.886 775.161 505.602 774.88 508.294C774.599 510.985 773.543 513.538 771.841 515.642C770.139 517.746 767.863 519.312 765.29 520.15L680.55 550.35C679.029 550.891 677.425 551.162 675.81 551.15Z" fill="#E65402"/>
<path d="M760.9 520.82C758.442 520.819 756.028 520.17 753.9 518.94L613.66 438C611.694 436.864 610.034 435.267 608.822 433.347C607.611 431.426 606.885 429.24 606.707 426.976C606.528 424.712 606.904 422.439 607.8 420.353C608.696 418.267 610.086 416.429 611.85 415L661.05 375.12C663.25 373.337 665.938 372.264 668.761 372.04C671.583 371.817 674.407 372.455 676.86 373.87L777.86 432.17C780.313 433.586 782.28 435.712 783.499 438.269C784.719 440.826 785.134 443.692 784.69 446.49L774.73 509C774.208 512.293 772.529 515.291 769.994 517.456C767.459 519.621 764.234 520.811 760.9 520.81V520.82ZM645.29 423.9L750.29 484.51L755.52 451.58L671.22 402.91L645.29 423.9ZM576 840.47C545.226 840.506 514.988 832.409 488.35 817C485.2 815.18 482.16 813.3 479.28 811.4C476.177 809.353 474.014 806.156 473.268 802.514C472.522 798.872 473.253 795.083 475.3 791.98C477.347 788.877 480.544 786.714 484.186 785.968C487.828 785.222 491.617 785.953 494.72 788C497.13 789.59 499.72 791.19 502.37 792.72C572.92 833.46 663.5 809.19 704.25 738.62C740.93 675.07 725.01 593.21 667.25 548.21C656.405 539.771 644.449 532.866 631.72 527.69C608.281 518.28 582.83 514.999 557.771 518.157C532.712 521.316 508.871 530.809 488.5 545.74C487.02 546.831 485.34 547.62 483.555 548.062C481.77 548.504 479.915 548.59 478.097 548.315C474.425 547.76 471.124 545.769 468.92 542.78C466.716 539.791 465.79 536.049 466.345 532.377C466.9 528.705 468.891 525.404 471.88 523.2C499.403 502.881 532.261 491.041 566.418 489.135C600.576 487.229 634.547 495.339 664.16 512.47C671.216 516.55 677.985 521.107 684.42 526.11C713.298 548.645 734.415 579.638 744.82 614.759C755.225 649.88 754.398 687.374 742.455 722.002C730.512 756.631 708.05 786.663 678.206 807.903C648.363 829.142 612.63 840.528 576 840.47Z" fill="#E65402"/>
<path d="M576 789.14C555.429 789.134 535.184 783.995 517.1 774.19C513.833 772.424 511.401 769.432 510.339 765.872C509.278 762.313 509.674 758.477 511.44 755.21C513.206 751.943 516.198 749.511 519.758 748.449C523.317 747.388 527.153 747.784 530.42 749.55C575.88 774.13 633.9 757.69 659.76 712.92C670.47 694.373 674.701 672.788 671.784 651.57C668.867 630.352 658.968 610.709 643.65 595.741C628.332 580.772 608.466 571.33 587.186 568.903C565.907 566.477 544.425 571.204 526.13 582.34C524.557 583.338 522.801 584.013 520.964 584.324C519.127 584.635 517.247 584.576 515.433 584.151C513.62 583.726 511.909 582.944 510.401 581.849C508.894 580.754 507.62 579.37 506.654 577.777C505.689 576.184 505.051 574.414 504.778 572.571C504.505 570.728 504.603 568.85 505.065 567.045C505.528 565.24 506.346 563.546 507.471 562.062C508.597 560.577 510.007 559.332 511.62 558.4C528.033 548.456 546.525 542.445 565.648 540.837C584.771 539.23 604.007 542.069 621.85 549.134C639.693 556.198 655.659 567.296 668.498 581.558C681.338 595.821 690.703 612.861 695.861 631.346C701.018 649.83 701.828 669.257 698.227 688.107C694.626 706.957 686.712 724.717 675.104 739.999C663.496 755.281 648.509 767.669 631.316 776.194C614.123 784.719 595.191 789.15 576 789.14ZM413.39 523.2C410.718 523.199 408.101 522.433 405.85 520.993C403.599 519.553 401.807 517.498 400.686 515.072C399.565 512.646 399.162 509.95 399.524 507.302C399.886 504.655 400.999 502.166 402.73 500.13L441.65 454.38H340.28L379.19 500.13C380.381 501.531 381.285 503.152 381.849 504.902C382.414 506.651 382.628 508.495 382.48 510.328C382.332 512.16 381.824 513.946 380.986 515.582C380.148 517.219 378.996 518.674 377.595 519.865C376.194 521.056 374.573 521.96 372.823 522.524C371.074 523.089 369.23 523.303 367.397 523.155C365.565 523.007 363.779 522.499 362.143 521.661C360.506 520.823 359.051 519.671 357.86 518.27L299.56 449.73C297.753 447.716 296.568 445.221 296.149 442.547C295.73 439.874 296.095 437.136 297.199 434.666C298.304 432.195 300.101 430.098 302.373 428.627C304.645 427.157 307.294 426.376 310 426.38H471.93C474.632 426.38 477.277 427.161 479.545 428.631C481.813 430.1 483.607 432.195 484.711 434.662C485.815 437.128 486.181 439.862 485.766 442.532C485.35 445.202 484.171 447.695 482.37 449.71L424.06 518.27C422.745 519.816 421.11 521.058 419.267 521.909C417.425 522.76 415.42 523.201 413.39 523.2Z" fill="#E65402"/>
<path d="M471.93 454.39H310C307.731 454.389 305.496 453.836 303.488 452.78C301.48 451.723 299.758 450.194 298.472 448.324C297.186 446.455 296.374 444.301 296.105 442.048C295.837 439.794 296.12 437.51 296.93 435.39L319.6 376.25C320.612 373.603 322.403 371.326 324.737 369.719C327.07 368.112 329.837 367.251 332.67 367.25H449.27C452.103 367.251 454.87 368.112 457.203 369.719C459.537 371.326 461.328 373.603 462.34 376.25L485 435.38C485.81 437.5 486.093 439.784 485.825 442.038C485.556 444.291 484.744 446.445 483.458 448.314C482.172 450.184 480.45 451.713 478.442 452.77C476.434 453.826 474.199 454.379 471.93 454.38V454.39ZM330.35 426.39H451.57L439.63 395.25H342.29L330.35 426.39ZM391 845.25C294.06 845.25 215.2 766.39 215.2 669.45C215.2 572.51 294 493.66 391 493.66C488 493.66 566.79 572.52 566.79 669.45C566.79 766.38 487.89 845.25 391 845.25ZM391 521.66C309.5 521.66 243.2 587.96 243.2 669.45C243.2 750.94 309.5 817.25 391 817.25C472.5 817.25 538.75 751 538.75 669.45C538.75 587.9 472.45 521.66 391 521.66Z" fill="#E65402"/>
<path d="M391 793.89C366.386 793.9 342.322 786.61 321.851 772.942C301.381 759.275 285.423 739.843 275.997 717.106C266.571 694.368 264.099 669.346 268.895 645.204C273.691 621.061 285.539 598.884 302.94 581.475C320.341 564.067 342.514 552.21 366.655 547.405C390.795 542.599 415.818 545.061 438.56 554.478C461.301 563.895 480.739 579.845 494.415 600.31C508.09 620.775 515.39 644.836 515.39 669.45C515.356 702.434 502.241 734.059 478.922 757.387C455.603 780.715 423.984 793.842 391 793.89ZM391 573C371.925 572.998 353.278 578.653 337.417 589.249C321.556 599.845 309.194 614.907 301.893 632.529C294.592 650.152 292.682 669.544 296.403 688.252C300.123 706.961 309.309 724.145 322.797 737.633C336.285 751.121 353.469 760.307 372.178 764.027C390.886 767.748 410.278 765.838 427.901 758.537C445.523 751.237 460.585 738.874 471.181 723.013C481.777 707.152 487.432 688.505 487.43 669.43C487.404 643.863 477.235 619.351 459.157 601.273C441.079 583.195 416.567 573.026 391 573Z" fill="#E65402"/>
</svg>
