<svg width="148" height="158" viewBox="0 0 148 158" fill="none" xmlns="http://www.w3.org/2000/svg">
<g clip-path="url(#clip0_41_279)">
<path d="M51.6276 66.4838C50.2082 66.5231 48.9143 65.4674 48.6136 63.9155L38.3373 11.0036C38.178 10.0127 37.4408 9.3654 36.6024 9.38863L30.6734 9.55288C29.8349 9.57611 29.1347 10.2633 29.0455 11.1518L21.6993 64.6611C21.4602 66.4141 19.9177 67.6319 18.3037 67.3556C16.6601 67.0865 15.53 65.4548 15.7691 63.7017L23.1003 10.302C23.5069 6.37405 26.6927 3.24232 30.4956 3.13697L36.4247 2.97272C40.2276 2.86737 43.5818 5.81792 44.2265 9.83235L54.4818 62.6357C54.8174 64.3664 53.7794 66.0582 52.1532 66.4178C51.9804 66.4547 51.8012 66.479 51.6276 66.4838Z" fill="black"/>
<path d="M35.6052 99.3079L23.6273 99.6397C21.9744 99.6855 20.593 98.2855 20.544 96.5147L20.1885 83.6829C20.1395 81.9121 21.4412 80.4378 23.0941 80.392L35.072 80.0602C36.7249 80.0144 38.1062 81.4144 38.1553 83.1852L38.5108 96.017C38.5598 97.7878 37.2581 99.2621 35.6052 99.3079ZM26.444 93.1409L32.433 92.975L32.2552 86.5591L26.2663 86.725L26.444 93.1409Z" fill="black"/>
<path d="M65.5498 98.4784L53.572 98.8102C51.919 98.856 50.5377 97.456 50.4886 95.6852L50.1331 82.8534C50.0841 81.0826 51.3858 79.6083 53.0387 79.5625L65.0166 79.2307C66.6695 79.1849 68.0509 80.5849 68.0999 82.3557L68.4554 95.1875C68.5045 96.9583 67.2028 98.4326 65.5498 98.4784ZM56.3887 92.3114L62.3776 92.1454L62.1999 85.7295L56.2109 85.8954L56.3887 92.3114Z" fill="black"/>
<path d="M54.5225 124.467L6.37147 125.801C4.71852 125.847 3.33719 124.447 3.28814 122.676L2.04397 77.7647C1.79905 68.9236 8.31322 61.539 16.5719 61.3102L88.4391 59.3193C93.35 59.1832 98.0397 61.6602 100.981 65.9384C101.962 67.3688 101.682 69.3799 100.35 70.4248C99.0187 71.4698 97.1461 71.1621 96.1595 69.7319C94.3798 67.1486 91.5634 65.6536 88.6168 65.7352L16.7497 67.7261C11.7968 67.8633 7.88591 72.2929 8.0329 77.5988L9.1882 119.302L54.3447 118.051C55.9977 118.005 57.379 119.405 57.4281 121.176C57.4771 122.947 56.1754 124.421 54.5225 124.467Z" fill="black"/>
<path d="M88.6097 65.4786C86.9568 65.5244 85.5755 64.1244 85.5264 62.3536L85.3558 56.1943C85.3067 54.4235 83.9194 53.0237 82.2724 53.0693L49.2136 53.9851C47.5606 54.0309 46.1793 52.6309 46.1302 50.8601C46.0812 49.0893 47.3829 47.615 49.0358 47.5692L82.0947 46.6534C87.0476 46.5162 91.1977 50.7224 91.3447 56.0284L91.5153 62.1877C91.5644 63.9584 90.2627 65.4328 88.6097 65.4786Z" fill="black"/>
<path d="M91.1052 155.558C79.5466 155.878 69.8649 146.066 69.5219 133.683C69.3557 127.684 71.3794 121.984 75.2206 117.634L110.088 78.1426C113.935 73.7919 119.129 71.3108 124.728 71.1557C136.287 70.8355 145.968 80.648 146.312 93.0307C146.478 99.0295 144.454 104.73 140.613 109.08L105.746 148.571C101.898 152.922 96.7048 155.403 91.1052 155.558ZM124.906 77.5716C120.911 77.6822 117.196 79.4546 114.448 82.5614L79.5804 122.052C76.8377 125.165 75.3921 129.231 75.5108 133.517C75.7557 142.358 82.6687 149.371 90.9275 149.142C94.9221 149.031 98.6369 147.259 101.386 144.152L136.253 104.661C138.996 101.548 140.441 97.4824 140.323 93.1966C140.078 84.3555 133.165 77.3428 124.906 77.5716Z" fill="#E65402"/>
<path d="M92.759 102.428L96.8681 97.7738L123.027 124.286L118.918 128.94L92.759 102.428Z" fill="#E65402"/>
</g>
<defs>
<clipPath id="clip0_41_279">
<rect width="143.789" height="154.041" fill="white" transform="translate(0 3.98181) rotate(-1.58684)"/>
</clipPath>
</defs>
</svg>
