<svg xmlns="http://www.w3.org/2000/svg" xml:space="preserve" id="photography" x="0" y="0" enable-background="new 0 0 68 68" version="1.1" viewBox="0 0 68 68">
  <g>
    <g>
      <path fill="#c9eaf5" d="M65.2443,21.74592v36.04794c0,1.59717-1.29476,2.89193-2.89193,2.89193H5.64193
			c-1.59717,0-2.89193-1.29476-2.89193-2.89193V21.74592c0-1.59717,1.29476-2.89193,2.89193-2.89193h56.71045
			C63.94954,18.85399,65.2443,20.14875,65.2443,21.74592z"></path>
    </g>
    <g>
      <path fill="#a9dcea" d="M65.25,21.74943v36.04785c0,1.59061-1.30122,2.89193-2.89193,2.89193H5.64745
			c-1.605,0-2.89193-1.30132-2.89193-2.89193v-1.22903h46.50204c6.56473,0,11.87148-5.30666,11.87148-11.85691V18.8575h1.22903
			C63.94878,18.8575,65.25,20.14443,65.25,21.74943z"></path>
    </g>
    <g>
      <rect width="62.494" height="26.979" x="2.75" y="26.28" fill="#96c"></rect>
    </g>
    <g>
      <path fill="#ffeb33" d="M12.01233,33.08142c0,1.10562-0.89438,2-1.99985,2c-1.10577,0-2.00015-0.89438-2.00015-2s0.89438-2,2.00015-2
			C11.11795,31.08142,12.01233,31.97581,12.01233,33.08142z"></path>
    </g>
    <g>
      <path fill="#8d5fc4" d="M65.25,26.2753v26.98163h-7.76481c2.24131-2.15447,3.64385-5.19096,3.64385-8.5456V26.2753H65.25z"></path>
    </g>
    <g>
      <path fill="#666" d="M19.6958,16.05476v2.80275H8.45181v-2.80275c0-0.91054,0.73814-1.64868,1.64868-1.64868h7.94663
			C18.95766,14.40607,19.6958,15.14421,19.6958,16.05476z"></path>
    </g>
    <g>
      <path fill="#595857" d="M19.69554,16.04985v2.80766h-4.14045v-2.80766c0-0.90572-0.75038-1.64323-1.65618-1.64323h4.1534
			C18.95795,14.40662,19.69554,15.14413,19.69554,16.04985z"></path>
    </g>
    <g>
      <path fill="#6cf" d="M56.86081,25.01518v2.53044c0,0.79858-0.64738,1.44596-1.44596,1.44596h-4.06306
			c-0.79858,0-1.44596-0.64738-1.44596-1.44596v-2.53044c0-0.79858,0.64738-1.44596,1.44596-1.44596h4.06306
			C56.21343,23.56921,56.86081,24.21659,56.86081,25.01518z"></path>
    </g>
    <g>
      <path fill="#42c1f4" d="M56.86334,25.01732v0.4193h-3.64368c-0.79535,0-1.44596,0.6507-1.44596,1.44596v2.11114h-0.41938
			c-0.79517,0-1.44596-0.6507-1.44596-1.44596v-2.53044c0-0.79526,0.65079-1.44596,1.44596-1.44596h4.06306
			C56.21273,23.57136,56.86334,24.22206,56.86334,25.01732z"></path>
    </g>
    <g>
      <circle cx="33.997" cy="39.77" r="15.472" fill="#fff" transform="rotate(-84.345 33.997 39.77)"></circle>
    </g>
    <g>
      <path fill="#c9eaf5" d="M49.47467,39.76616c0,8.5456-6.92622,15.47182-15.47191,15.47182
			c-4.85842,0-9.21078-2.24131-12.04481-5.75499c2.64605,2.11114,5.98613,3.36912,9.64446,3.36912
			c8.54569,0,15.47191-6.92613,15.47191-15.47182c0-3.67271-1.28693-7.0563-3.42693-9.71683
			C47.20441,30.49749,49.47467,34.86432,49.47467,39.76616z"></path>
    </g>
    <g>
      <circle cx="33.997" cy="39.77" r="10.007" fill="#666" transform="rotate(-84.345 33.997 39.77)"></circle>
    </g>
    <g>
      <circle cx="33.997" cy="39.77" r="10.007" fill="#666" transform="rotate(-84.345 33.997 39.77)"></circle>
    </g>
    <g>
      <path fill="#595857" d="M43.45942,36.52721c-1.63395-2.42929-4.42473-4.01982-7.57701-4.01982
			c-5.0464,0-9.15271,4.0921-9.15271,9.15297c0,3.12324,1.57587,5.89947,3.9764,7.54789
			c-3.91868-1.34473-6.70947-5.06087-6.70947-9.44209c0-5.52359,4.46815-10.00613,10.00613-10.00613
			C38.39854,29.76003,42.12907,32.59415,43.45942,36.52721z"></path>
    </g>
    <g opacity=".2">
      <path fill="#fff" d="M38.02612,30.6151l-7.82007,18.40997c-1.38-0.56-2.62-1.42999-3.60999-2.51996l7.10999-16.73004
			c0.09998-0.01001,0.18994-0.01001,0.29004-0.01001C35.43603,29.76507,36.79601,30.06512,38.02612,30.6151z"></path>
    </g>
    <g opacity=".2">
      <path fill="#fff" d="M42.18603,34.01507l-6.64001,15.64001c-0.50989,0.08002-1.0199,0.12-1.54993,0.12
			c-0.48999,0-0.96997-0.03998-1.45007-0.10999l7.56006-17.82001C40.906,32.45507,41.60607,33.18511,42.18603,34.01507z"></path>
    </g>
    <g>
      <circle cx="30.591" cy="35.005" r="1.658" fill="#fff" transform="rotate(-84.345 30.591 35.005)"></circle>
    </g>
    <g>
      <circle cx="32.249" cy="38.825" r="1.143" fill="#fff" transform="rotate(-84.345 32.25 38.825)"></circle>
    </g>
    <g>
      <path fill="#ff4848" d="M55.99761,16.41759v2.4375h-5.91308v-2.4375c0-0.55228,0.44772-1,1-1h3.91308
			C55.54989,15.41759,55.99761,15.86531,55.99761,16.41759z"></path>
    </g>
    <g>
      <path fill="#f91c1c" d="M55.99609,16.41509v2.44H53.656v-2.44c0-0.54999-0.43994-1-1-1h2.34009
			C55.54601,15.41509,55.99609,15.8651,55.99609,16.41509z"></path>
    </g>
    <g>
      <g>
        <path fill="#666" d="M50.10566,12.86646c-0.25732,0-0.50781-0.13232-0.64746-0.37061l-1.90625-3.24805
				c-0.20947-0.35693-0.08984-0.81641,0.26758-1.02637c0.35645-0.2085,0.81641-0.09082,1.02637,0.26758l1.90625,3.24805
				c0.20947,0.35693,0.08984,0.81641-0.26758,1.02637C50.36543,12.83326,50.23506,12.86646,50.10566,12.86646z"></path>
      </g>
      <g>
        <path fill="#666" d="M53.04121,12.17701c-0.41406,0-0.75-0.33594-0.75-0.75V8.0608c0-0.41406,0.33594-0.75,0.75-0.75
				s0.75,0.33594,0.75,0.75v3.36621C53.79121,11.84107,53.45527,12.17701,53.04121,12.17701z"></path>
      </g>
      <g>
        <path fill="#666" d="M55.97676,12.86646c-0.12939,0-0.25977-0.0332-0.37891-0.10303
				c-0.35742-0.20996-0.47705-0.66943-0.26758-1.02637l1.90625-3.24805c0.20947-0.3584,0.67041-0.47705,1.02637-0.26758
				c0.35742,0.20996,0.47705,0.66943,0.26758,1.02637l-1.90625,3.24805C56.48457,12.73414,56.23408,12.86646,55.97676,12.86646z"></path>
      </g>
    </g>
  </g>
</svg>
