<svg id="Glyph" enable-background="new 0 0 512 512" height="512" viewBox="0 0 512 512" width="512" xmlns="http://www.w3.org/2000/svg"><path d="m119.151 317.818 107.219-48.443c7.37 31.748 24.73 87.842 25.659 90.838.54 1.74 2.149 2.926 3.972 2.926s3.432-1.186 3.972-2.926c.929-2.996 18.289-59.09 25.659-90.838l107.219 48.443-136.851 51.096zm129.487 57.225-139.061-51.922-35.38 43.281 134.477 50.5zm3.204 8.687-39.05 40.902c-.8.838-1.893 1.287-3.009 1.287-.49 0-.985-.086-1.461-.266l-95.922-36.02v59.367l139.441 63v-128.27zm51.836 41.924c-.476.18-.972.266-1.461.266-1.116 0-2.209-.449-3.009-1.287l-39.05-40.902v128.269l139.442-63v-59.367zm-40.316-50.611 39.964 41.859 134.477-50.5-35.38-43.281zm-7.362-30.279c9.318-30.818 24.58-83.559 24.58-94.314 0-13.561-11.026-24.594-24.58-24.594s-24.58 11.033-24.58 24.594c0 10.757 15.262 63.495 24.58 94.314zm-48.255-148.082c-6.217-15.908-10.226-32.775-11.963-50.268-9.651 6.324-13.856 19.424-15.576 27.375-3.908 18.07-1.896 39.551 4.117 51.996 2.693-9.213 8.976-22.416 23.422-29.103zm108.472-50.266c-1.737 17.492-5.746 34.357-11.962 50.266 14.446 6.688 20.729 19.891 23.422 29.104 6.013-12.445 8.025-33.926 4.117-51.996-1.72-7.95-5.926-21.052-15.577-27.374zm-7.777-6.662c.292-4.342.44-8.74.44-13.074 0-7.74-.493-15.461-1.411-23.023h-18.845c-2.052 16.182-15.895 28.738-32.625 28.738s-30.573-12.557-32.625-28.738h-18.844c-.918 7.563-1.411 15.283-1.411 23.023 0 4.334.148 8.732.44 13.078 1.384 20.207 5.904 39.596 13.433 57.621 1.059 2.541 2.164 5.025 3.3 7.424 11.596-2.797 23.591-4.213 35.707-4.213s24.111 1.416 35.707 4.213c1.136-2.398 2.24-4.883 3.299-7.422 7.531-18.027 12.051-37.416 13.435-57.627zm-85.065-44.414c2.052-16.182 15.895-28.738 32.625-28.738s30.573 12.557 32.625 28.738h17.665c-6.358-37.83-24.461-72.172-50.29-95.34-25.829 23.168-43.932 57.512-50.29 95.34z"/></svg>