<svg width="512" height="512" viewBox="0 0 512 512" fill="none" xmlns="http://www.w3.org/2000/svg">
<path d="M500.964 488.334H233.017C229.831 488.334 227.328 485.831 227.328 482.645C227.328 479.46 229.831 476.956 233.017 476.956H495.275V369.664C495.275 323.129 457.5 285.355 410.965 285.355H386.162L344.178 328.249C343.154 329.387 341.675 329.956 340.082 329.956C338.489 329.956 337.124 329.387 335.986 328.249L294.002 285.355H269.198C242.688 285.355 217.429 298.098 201.5 319.602C199.68 322.105 196.039 322.674 193.536 320.74C191.033 318.919 190.464 315.278 192.398 312.775C210.489 288.427 239.161 273.977 269.198 273.977H296.391C297.87 273.977 299.349 274.546 300.487 275.684L340.082 316.188L379.676 275.684C380.7 274.546 382.18 273.977 383.772 273.977H410.965C463.758 273.977 506.652 316.871 506.652 369.664V482.645C506.652 485.831 504.149 488.334 500.964 488.334Z" fill="black"/>
<path d="M296.391 285.355C293.205 285.355 290.702 282.852 290.702 279.666V240.299C290.702 237.113 293.205 234.61 296.391 234.61C299.577 234.61 302.08 237.113 302.08 240.299V279.666C302.08 282.852 299.577 285.355 296.391 285.355Z" fill="black"/>
<path d="M383.772 285.355C380.587 285.355 378.084 282.852 378.084 279.666V242.233C378.084 239.047 380.587 236.544 383.772 236.544C386.958 236.544 389.461 239.047 389.461 242.233V279.666C389.461 282.852 386.958 285.355 383.772 285.355Z" fill="black"/>
<path d="M341.22 262.827C302.421 262.713 260.21 231.652 258.731 163.612C258.617 160.427 261.12 157.924 264.306 157.81H264.42C267.492 157.81 269.995 160.313 270.108 163.385C271.36 223.801 307.769 251.449 341.106 251.449H341.22C374.443 251.449 410.852 224.028 412.331 163.84C412.444 160.768 414.948 158.265 418.02 158.265H418.133C421.319 158.379 423.708 160.996 423.708 164.068C422.116 231.993 379.904 262.827 341.22 262.827Z" fill="black"/>
<path d="M418.02 169.87C417.564 169.87 417.109 169.87 416.654 169.756C414.151 169.188 412.331 166.912 412.331 164.409C411.079 122.994 400.839 106.951 396.174 101.717C358.514 123.563 328.021 111.957 307.541 104.22C292.978 98.7591 287.744 97.3938 284.444 100.921C284.444 134.827 270.108 164.75 269.426 166.002C268.516 167.822 266.809 168.96 264.761 169.188C262.827 169.415 260.779 168.505 259.641 166.912C236.999 135.737 235.292 101.035 254.976 69.2907C278.187 31.8578 326.77 7.62313 365.682 13.9947C392.875 18.5458 411.762 37.2054 419.157 66.56C435.996 79.7582 441.913 101.262 436.338 128.796C432.242 149.39 423.253 166.116 422.798 166.912C422.002 168.732 420.068 169.87 418.02 169.87ZM352.597 24.3485C320.284 24.3485 283.534 45.056 264.875 75.3209C249.628 99.8969 249.173 126.521 263.396 151.438C267.605 140.06 273.522 120.149 273.18 99.2142C273.18 98.0765 273.522 96.9387 274.091 96.0285C282.738 82.7165 296.732 88.064 311.637 93.6391C331.776 101.262 359.31 111.616 393.785 89.8845C395.492 88.7467 397.767 88.7467 399.588 89.7707C401.522 90.9085 416.313 100.352 421.774 140.174C428.26 119.922 432.697 90.3396 410.852 74.6382C409.714 73.8418 408.917 72.5902 408.576 71.3387C400.953 38.2294 380.018 28.1031 363.748 25.3725C360.22 24.576 356.466 24.3485 352.597 24.3485Z" fill="black"/>
<path d="M436.338 488.334C433.152 488.334 430.649 485.831 430.649 482.645V368.754C430.649 365.568 433.152 363.065 436.338 363.065C439.524 363.065 442.027 365.568 442.027 368.754V482.645C442.027 485.831 439.524 488.334 436.338 488.334Z" fill="black"/>
<path d="M311.068 358.4C310.841 358.4 310.727 358.4 310.5 358.4C308.793 358.286 307.314 357.376 306.404 355.897L256.683 283.193C254.862 280.576 255.545 277.049 258.162 275.342C260.779 273.522 264.306 274.204 266.012 276.821L311.979 343.95L336.213 320.284C338.489 318.123 342.016 318.123 344.292 320.398C346.453 322.674 346.453 326.201 344.178 328.476L315.051 356.921C313.913 357.831 312.548 358.4 311.068 358.4Z" fill="black"/>
<path d="M369.209 358.4C367.73 358.4 366.251 357.831 365.227 356.807L336.1 328.363C333.824 326.201 333.824 322.56 335.986 320.284C338.148 318.009 341.788 318.009 344.064 320.171L368.299 343.836L414.265 276.708C416.085 274.091 419.612 273.408 422.116 275.228C424.619 277.049 425.415 280.576 423.595 283.079L373.874 355.783C372.964 357.148 371.371 358.059 369.778 358.286C369.55 358.4 369.436 358.4 369.209 358.4Z" fill="black"/>
<path d="M348.16 367.616H332.117C330.069 367.616 328.135 366.478 327.111 364.658L316.644 345.088C315.164 342.357 316.188 338.83 318.919 337.351C321.65 335.872 325.177 336.896 326.656 339.627L335.531 356.124H344.86L353.735 339.627C355.214 336.896 358.628 335.872 361.472 337.351C364.203 338.83 365.227 342.244 363.748 345.088L353.28 364.658C352.142 366.478 350.208 367.616 348.16 367.616Z" fill="black"/>
<path d="M315.961 488.334C315.733 488.334 315.506 488.334 315.164 488.334C312.092 487.879 309.817 485.035 310.272 481.963L326.315 361.244C326.77 358.172 329.614 355.897 332.686 356.352C335.758 356.807 338.034 359.652 337.579 362.724L321.536 483.442C321.308 486.286 318.805 488.334 315.961 488.334Z" fill="black"/>
<path d="M364.203 488.334C361.358 488.334 358.969 486.286 358.514 483.442L342.471 362.724C342.016 359.652 344.292 356.693 347.364 356.352C350.436 355.897 353.394 358.172 353.735 361.244L369.778 481.963C370.233 485.035 367.957 487.993 364.885 488.334C364.772 488.334 364.43 488.334 364.203 488.334Z" fill="black"/>
<path d="M202.524 500.736H55.6373C28.2169 500.736 5.91644 478.436 5.91644 451.015V360.22C5.91644 332.8 28.2169 310.5 55.6373 310.5H202.524C229.945 310.5 252.245 332.8 252.245 360.22V451.015C252.245 478.436 229.945 500.736 202.524 500.736ZM55.6373 321.877C34.4747 321.877 17.2942 339.058 17.2942 360.22V451.015C17.2942 472.178 34.4747 489.358 55.6373 489.358H202.524C223.687 489.358 240.868 472.178 240.868 451.015V360.22C240.868 339.058 223.687 321.877 202.524 321.877H55.6373Z" fill="#E65402"/>
<path d="M64.1707 500.736C60.9849 500.736 58.4818 498.233 58.4818 495.047V438.158H11.6053C8.41955 438.158 5.91644 435.655 5.91644 432.469C5.91644 429.284 8.41955 426.78 11.6053 426.78H64.1707C67.3564 426.78 69.8596 429.284 69.8596 432.469V495.047C69.8596 498.233 67.2427 500.736 64.1707 500.736Z" fill="#E65402"/>
<path d="M193.991 500.736C190.805 500.736 188.302 498.233 188.302 495.047V432.469C188.302 429.284 190.805 426.78 193.991 426.78H246.556C249.742 426.78 252.245 429.284 252.245 432.469C252.245 435.655 249.742 438.158 246.556 438.158H199.68V495.047C199.68 498.233 197.177 500.736 193.991 500.736Z" fill="#E65402"/>
<path d="M246.556 396.402H151.324C148.139 396.402 145.636 393.899 145.636 390.713C145.636 387.527 148.139 385.024 151.324 385.024H246.556C249.742 385.024 252.245 387.527 252.245 390.713C252.245 393.899 249.628 396.402 246.556 396.402ZM106.951 396.402H11.6053C8.41955 396.402 5.91644 393.899 5.91644 390.713C5.91644 387.527 8.41955 385.024 11.6053 385.024H106.951C110.137 385.024 112.64 387.527 112.64 390.713C112.64 393.899 110.023 396.402 106.951 396.402Z" fill="#E65402"/>
<path d="M180.224 321.877C177.038 321.877 174.535 319.374 174.535 316.188V292.864C174.535 283.193 166.571 275.228 156.9 275.228H101.262C91.5911 275.228 83.6267 283.193 83.6267 292.864V316.188C83.6267 319.374 81.1236 321.877 77.9378 321.877C74.752 321.877 72.2489 319.374 72.2489 316.188V292.864C72.2489 276.821 85.2196 263.851 101.262 263.851H156.786C172.828 263.851 185.799 276.821 185.799 292.864V316.188C185.913 319.374 183.296 321.877 180.224 321.877Z" fill="#E65402"/>
<path d="M129.024 418.588C113.664 418.588 101.148 406.073 101.148 390.713C101.148 375.353 113.664 362.837 129.024 362.837C144.384 362.837 156.9 375.353 156.9 390.713C156.9 406.073 144.498 418.588 129.024 418.588ZM129.024 374.215C119.922 374.215 112.526 381.611 112.526 390.713C112.526 399.815 119.922 407.211 129.024 407.211C138.126 407.211 145.522 399.815 145.522 390.713C145.522 381.611 138.126 374.215 129.024 374.215Z" fill="#E65402"/>
</svg>
