<svg id="Layer_1" enable-background="new 0 0 500 500" height="512" viewBox="0 0 500 500" width="512" xmlns="http://www.w3.org/2000/svg"><g><g><path d="m450.037 27.045v-21.943c0-2.818 2.286-5.102 5.105-5.102s5.105 2.284 5.105 5.102v21.943"/><path d="m341.853 27.045v-21.943c0-2.818 2.285-5.102 5.105-5.102s5.105 2.284 5.105 5.102v21.943"/><g><path d="m476.684 27.045h-124.62-10.211-16.436c-8.446 0-15.316 6.866-15.316 15.306v13.102h181.899v-13.102c0-8.44-6.87-15.306-15.316-15.306zm-124.62 14.519c0 2.818-2.286 5.102-5.105 5.102s-5.105-2.284-5.105-5.102v-14.519h10.211v14.519zm108.184 0c0 2.818-2.285 5.102-5.105 5.102s-5.105-2.284-5.105-5.102v-14.519h10.211v14.519z"/><path d="m352.064 27.045h-10.211"/><path d="m310.1 65.657v123.379c0 8.44 6.87 15.306 15.316 15.306h151.267c8.446 0 15.316-6.866 15.316-15.306v-123.379zm134.236 44.557c-24.668 9.831-45.326 26.793-59.742 49.05-2.005 3.096-6.786 3.015-8.675-.167l-15.16-25.508c-1.44-2.422-.642-5.552 1.783-6.991 2.423-1.439 5.557-.641 6.996 1.782l11.091 18.662c15.234-20.766 35.805-36.692 59.924-46.304 2.62-1.043 5.589.232 6.634 2.849 1.043 2.616-.233 5.583-2.851 6.627-24.668 9.832 2.618-1.044 0 0z"/></g></g><g><path d="m238.038 34.344h-114.133l57.067 46.183z"/><path d="m184.185 91.057c-1.853 1.5-4.574 1.5-6.427 0l-68.269-55.25v84.386h142.964v-84.386z"/></g><g><path d="m81.352 79.82h-68.247c-2.819 0-5.105-2.283-5.105-5.101s2.286-5.102 5.105-5.102h68.246c2.819 0 5.105 2.284 5.105 5.102.001 2.818-2.285 5.101-5.104 5.101z"/><path d="m70.537 110.78h-45.384c-2.819 0-5.105-2.284-5.105-5.102s2.286-5.102 5.105-5.102h45.384c2.819 0 5.105 2.284 5.105 5.102.001 2.819-2.285 5.102-5.105 5.102z"/><path d="m70.537 49.558h-45.384c-2.819 0-5.105-2.284-5.105-5.102s2.286-5.102 5.105-5.102h45.384c2.819 0 5.105 2.284 5.105 5.102s-2.285 5.102-5.105 5.102z"/></g><g><path d="m33.006 375.594c-7.34 21.883 1.296 45.541 20.893 57.534l31.469-11.468-20.912-57.527z"/><path d="m74.049 360.637 20.912 57.526 30.35-11.06-20.912-57.527z"/><path d="m92.375 498.692c17.583 4.344 35.803-2.341 46.389-16.964-13.692-16.985-23.719-36.868-29.264-58.003l-31.797 11.588c9.284 19.804 14.318 41.531 14.672 63.379z"/><path d="m135.585 405.474 109.867 13.697-56.762-156.15-75.297 81.286z"/><g><path d="m390.405 357.805v-143.259s-68.472-.234-69.087-.333c-.029-.005-.058-.01-.087-.015-9.498-1.573-17.241-8.4-20.125-17.386h-170.477v113.867l56.254-60.728c2.551-2.753 7.265-1.798 8.546 1.724l19.033 52.359 2.546-.928c18.302-6.666 39.104 3.112 45.73 21.346 4.173 11.48 2.098 23.966-4.773 33.354h132.44z"/><g><path d="m220.506 312.691-2.558.932 17.219 47.368c14.095-4.8 23.559-17.69 17.973-33.057-2.329-6.408-13.011-20.121-32.634-15.243z"/><path d="m400.616 214.546v148.361c0 2.818-2.286 5.102-5.105 5.102h-157.793l7.418 20.406h175.841v-173.869z"/></g><path d="m120.418 191.709c0-2.818 2.286-5.102 5.105-5.102h174.365v-20.406h-184.514c-8.445 0-15.316 6.866-15.316 15.306v158.791l4.732-1.724 15.629-16.872v-129.993z"/></g><g><path d="m125.81 440.158h289.971c14.076 0 25.527-11.443 25.527-25.509v-16.031h-192.464l9.053 24.908c1.281 3.522-1.72 7.262-5.431 6.805l-120.026-14.965-13.307 4.849c1.738 6.782 3.974 13.463 6.677 19.943z"/></g></g></g></svg>