<svg id="Layer_1" viewBox="0 0 512 512" xmlns="http://www.w3.org/2000/svg" data-name="Layer 1"><path d="m309.731 155.967c6.152 3.013 13.807 6.764 25.432 7.4a84.8 84.8 0 0 0 14.163-.343l64.694 101.407a10.232 10.232 0 0 1 -3.777 3.061c-.593-.4-1.189-.794-1.807-1.185-5.564-3.465-13.934-9.426-23.627-16.332-50.885-36.252-88.139-60.871-104.12-47.388-38.391 32.385-61.78 40.1-70.141 36.87-1.341-.519-2.768-1.481-3.2-4.694-1.606-12.04 13.356-41.639 51.617-69.861 31.7-18.272 39.7-14.351 50.763-8.935zm-233.92 113.733a5.628 5.628 0 0 1 -7.762 1.716l-39.723-25.338a5.628 5.628 0 0 1 -1.716-7.762l80.913-126.838a5.626 5.626 0 0 1 7.761-1.715l39.725 25.34a5.659 5.659 0 0 1 1.715 7.762zm22.389 45.21c3.358 2.47 9.124 3.009 16.747 1.61 16.7-19.913 23.025-33.721 25.414-41.071a17.375 17.375 0 0 0 -12.261-11.195 13.671 13.671 0 0 0 -13.629 4.317c-1.689 1.9-3.485 3.807-5.223 5.653-8.766 9.316-17.046 18.115-16.129 28.766.5 5.81 2.21 9.819 5.083 11.92zm27.616 10.44c.416 6.72 2.3 11.719 5.634 14.87 3.561 3.35 9.2 5.069 16.794 5.13l41.418-58.381c-.037-7.749-3.017-12.852-8.887-15.165-8.324-3.283-19.983-.218-26.738 6.818-2.512 8.226-9.414 24.238-28.221 46.728zm39.25 38.62c-2.877-1.99-4.767-5.29-5.76-10.02l41.377-58.32c9.405-1.552 16.758-.079 20.389 4.17 3.885 4.549 4.028 12.73.447 22.55q-15.471 18.763-24.471 29.71c-5.2 6.32-9.121 11.08-11.084 13.46-9.439 1.919-16.637 1.4-20.9-1.55zm50.9 21.009c3.571-.119 11.421-5.649 18.934-15.689 8-10.69 11.234-20.6 10.22-24.51-1.228-4.71-6.231-8.4-14.887-10.99q-13.992 16.98-22.375 27.17c-5.322 6.47-8.446 10.259-10.284 12.49 2.961 8.34 8.615 11.85 18.392 11.529zm196.209-71.39c4.154-6.439 5.642-12.11 4.546-17.3-1.319-6.255-6.611-12.356-15.726-18.13-5.889-3.664-14.423-9.745-24.306-16.786-16.486-11.745-37-26.363-54.787-36.533-27.031-15.459-32.134-11.6-32.182-11.557-38.171 32.2-67.291 45.769-84.215 39.228-6.736-2.6-11.008-8.251-12.028-15.9-2.787-20.9 18.511-52.9 52.288-79.253-5.632-6.13-14.689-4.706-32.86-.191-15.593 3.872-33.062 8.207-50.186 2.332l-62.127 97.39a25.619 25.619 0 0 0 2.844 3c.188-.209.388-.424.574-.631a27.675 27.675 0 0 1 27.21-8.659 30.987 30.987 0 0 1 18.78 13.178c10.56-7.235 24.58-9.462 35.907-5 9.639 3.8 15.694 11.768 17.316 22.423 12.331-1.037 22.278 2.233 28.489 9.5 6.358 7.444 8 18.064 4.841 30.424 12.3 4.2 19.725 10.96 22.111 20.13 3.3 12.69-7.288 29.139-11.768 35.34 16.743 11.32 30.16 15.71 38.983 12.67 5.047-1.74 9.011-6.271 11.827-13.451l-31.1-22.1a7 7 0 1 1 8.111-11.411l34.726 24.681c8.708 3.8 15.618 4.5 20.538 2.06 4.509-2.24 8.028-7.42 10.494-15.4l-55.758-36.373 7.65-11.73 58.839 38.4c7.84 1.48 13.712.85 17.412-1.96 3.194-2.42 5.259-6.81 6.169-13.071l-73.987-50.009a7 7 0 0 1 7.839-11.6l76.316 51.58c11.412 2.32 20.342.589 27.221-5.291zm9.224-36.743c.119-.1.237-.2.353-.3l1.726 2.7c-.649-.812-1.347-1.613-2.079-2.408zm64.738-30.833a5.583 5.583 0 0 0 -.735-4.233l-80.916-126.836a5.659 5.659 0 0 0 -7.762-1.715l-39.724 25.34a5.627 5.627 0 0 0 -1.716 7.762l80.916 126.837a5.626 5.626 0 0 0 7.762 1.714l39.723-25.339a5.585 5.585 0 0 0 2.451-3.53zm-338.709-208.913a7 7 0 0 1 12.124-7l31.4 54.388a7 7 0 1 1 -12.124 7zm115.092 41.7v-62.8a7 7 0 0 1 14 0v62.8a7 7 0 1 1 -14 0zm84.307-1.188 31.4-54.392a7 7 0 0 1 12.124 7l-31.4 54.389a7 7 0 1 1 -12.124-7zm43.526 397.273a7 7 0 1 1 -12.125 7l-31.4-54.39a7 7 0 0 1 12.124-7l31.4 54.389zm-115.092-41.685v62.8a7 7 0 0 1 -14 0v-62.8a7 7 0 0 1 14 0zm-84.307 1.18-31.4 54.391a7 7 0 1 1 -12.124-7l31.4-54.391a7 7 0 0 1 12.124 7z" fill-rule="evenodd"/></svg>