<svg width="200" height="200" viewBox="0 0 200 200" fill="none" xmlns="http://www.w3.org/2000/svg">
<path d="M11.5938 69.375C12.0621 70.0587 12.7828 70.5284 13.5974 70.6808C14.412 70.8331 15.2537 70.6557 15.9375 70.1875L17.1875 69.3281V109.375C17.1875 110.204 17.5167 110.999 18.1028 111.585C18.6888 112.171 19.4837 112.5 20.3125 112.5H85.9375C86.7663 112.5 87.5612 112.171 88.1472 111.585C88.7333 110.999 89.0625 110.204 89.0625 109.375V69.2344L90.3906 70.1719C91.0702 70.6484 91.9113 70.8355 92.7289 70.6919C93.5464 70.5483 94.2734 70.0859 94.75 69.4062C95.2266 68.7266 95.4136 67.8855 95.2701 67.068C95.1265 66.2505 94.664 65.5234 93.9844 65.0469L55.4219 38.0625C54.8988 37.6996 54.2773 37.5051 53.6406 37.5051C53.004 37.5051 52.3825 37.6996 51.8594 38.0625L12.4063 65.0313C11.7225 65.4996 11.2528 66.2203 11.1005 67.0349C10.9481 67.8495 11.1255 68.6912 11.5938 69.375ZM44.1406 75C44.153 73.2258 44.6904 71.4949 45.6851 70.0257C46.6797 68.5565 48.0872 67.4146 49.7299 66.7442C51.3726 66.0738 53.1771 65.9048 54.9158 66.2584C56.6544 66.6121 58.2494 67.4727 59.4997 68.7317C60.7499 69.9906 61.5994 71.5915 61.941 73.3326C62.2827 75.0737 62.1011 76.8769 61.4193 78.515C60.7375 80.153 59.586 81.5525 58.1099 82.537C56.6338 83.5215 54.8993 84.0468 53.125 84.0469C51.9405 84.0448 50.768 83.809 49.6748 83.3528C48.5816 82.8967 47.5892 82.2293 46.7545 81.3888C45.9198 80.5483 45.2593 79.5513 44.8107 78.4549C44.3622 77.3586 44.1345 76.1845 44.1406 75ZM34.6094 106.25C35.3124 101.845 37.5628 97.8353 40.9564 94.9404C44.35 92.0456 48.6644 90.4554 53.125 90.4554C57.5856 90.4554 61.9 92.0456 65.2936 94.9404C68.6872 97.8353 70.9376 101.845 71.6406 106.25H34.6094ZM53.6094 44.4219L82.8125 64.8594V106.25H77.9531C77.4643 101.945 75.8649 97.8409 73.312 94.3403C70.7591 90.8396 67.3402 88.0625 63.3906 86.2813C65.661 84.2107 67.2522 81.5019 67.9553 78.5107C68.6583 75.5194 68.4404 72.3854 67.3301 69.5203C66.2198 66.6551 64.269 64.1927 61.7339 62.4562C59.1987 60.7198 56.1978 59.7906 53.125 59.7906C50.0522 59.7906 47.0513 60.7198 44.5161 62.4562C41.981 64.1927 40.0302 66.6551 38.9199 69.5203C37.8096 72.3854 37.5917 75.5194 38.2948 78.5107C38.9978 81.5019 40.589 84.2107 42.8594 86.2813C38.9098 88.0625 35.4909 90.8396 32.938 94.3403C30.3851 97.8409 28.7858 101.945 28.2969 106.25H23.4375V65.0625L53.6094 44.4219Z" fill="#E65402"/>
<path d="M61.625 121.875C61.625 124.129 60.7295 126.291 59.1354 127.885C57.5413 129.479 55.3793 130.375 53.125 130.375C50.8707 130.375 48.7087 129.479 47.1146 127.885C45.5205 126.291 44.625 124.129 44.625 121.875C44.625 121.046 44.2958 120.251 43.7097 119.665C43.1237 119.079 42.3288 118.75 41.5 118.75C40.6712 118.75 39.8763 119.079 39.2903 119.665C38.7042 120.251 38.375 121.046 38.375 121.875C38.375 125.787 39.929 129.539 42.6952 132.305C45.4613 135.071 49.2131 136.625 53.125 136.625C57.0369 136.625 60.7887 135.071 63.5548 132.305C66.321 129.539 67.875 125.787 67.875 121.875C67.875 121.046 67.5458 120.251 66.9597 119.665C66.3737 119.079 65.5788 118.75 64.75 118.75C63.9212 118.75 63.1263 119.079 62.5403 119.665C61.9542 120.251 61.625 121.046 61.625 121.875Z" fill="#E65402"/>
<path d="M19.7656 129.688L26.2812 131.687C27.2388 134.693 28.8382 137.455 30.9687 139.781L29.5469 146.031C29.4217 146.605 29.4609 147.203 29.6598 147.756C29.8588 148.308 30.2096 148.794 30.6719 149.156C33.5177 151.368 36.6775 153.142 40.0469 154.422C40.5732 154.612 41.1409 154.657 41.6906 154.552C42.2403 154.448 42.7518 154.198 43.1719 153.828L48.4375 149.375C51.5924 149.906 54.8139 149.906 57.9687 149.375L63.0469 153.891C63.4669 154.26 63.9785 154.51 64.5282 154.615C65.0779 154.719 65.6455 154.674 66.1719 154.484C69.5413 153.205 72.701 151.43 75.5469 149.219C76.0092 148.856 76.3599 148.371 76.5589 147.818C76.7579 147.265 76.797 146.668 76.6719 146.094L75.2187 139.672C77.2053 137.301 78.7889 134.619 79.9062 131.734L86.4844 129.688C87.0442 129.516 87.5447 129.191 87.9287 128.749C88.3127 128.307 88.5648 127.766 88.6563 127.188C88.9249 125.429 89.0607 123.654 89.0625 121.875C89.0625 121.046 88.7333 120.251 88.1472 119.665C87.5612 119.079 86.7663 118.75 85.9375 118.75C85.1087 118.75 84.3138 119.079 83.7278 119.665C83.1417 120.251 82.8125 121.046 82.8125 121.875C82.8125 122.672 82.8125 123.438 82.7031 124.297L76.5625 126.172C76.0786 126.321 75.6381 126.584 75.2789 126.941C74.9196 127.298 74.6523 127.736 74.5 128.219C73.4953 131.348 71.7907 134.207 69.5156 136.578C69.1614 136.951 68.9047 137.406 68.7684 137.902C68.6322 138.398 68.6205 138.92 68.7344 139.422L70.0938 145.438C68.6769 146.39 67.182 147.221 65.625 147.922L60.9375 143.75C60.5686 143.421 60.127 143.185 59.6489 143.06C59.1709 142.935 58.6701 142.925 58.1875 143.031C54.8841 143.766 51.4597 143.766 48.1562 143.031C47.6596 142.909 47.1406 142.911 46.6448 143.036C46.149 143.162 45.6915 143.407 45.3125 143.75L40.625 147.922C39.0734 147.22 37.5837 146.389 36.1719 145.438L37.5 139.422C37.623 138.875 37.5965 138.305 37.4233 137.771C37.2501 137.238 36.9366 136.761 36.5156 136.391C34.1483 134.2 32.4843 131.356 31.7344 128.219C31.5836 127.738 31.3187 127.3 30.9622 126.944C30.6058 126.588 30.1685 126.323 29.6875 126.172L23.5781 124.297C23.4375 123.438 23.4375 122.672 23.4375 121.875C23.4375 121.046 23.1083 120.251 22.5222 119.665C21.9362 119.079 21.1413 118.75 20.3125 118.75C19.4837 118.75 18.6888 119.079 18.1028 119.665C17.5167 120.251 17.1875 121.046 17.1875 121.875C17.1901 123.648 17.3259 125.419 17.5938 127.172C17.6825 127.753 17.9334 128.297 18.3175 128.742C18.7017 129.187 19.2036 129.515 19.7656 129.688Z" fill="#E65402"/>
<path d="M178.125 75C178.954 75 179.749 74.6708 180.335 74.0847C180.921 73.4987 181.25 72.7038 181.25 71.875V21.875C181.25 21.0462 180.921 20.2513 180.335 19.6653C179.749 19.0792 178.954 18.75 178.125 18.75H109.375C108.546 18.75 107.751 19.0792 107.165 19.6653C106.579 20.2513 106.25 21.0462 106.25 21.875V71.875C106.25 72.7038 106.579 73.4987 107.165 74.0847C107.751 74.6708 108.546 75 109.375 75H140.625V87.5H120.828C119.999 87.5 119.204 87.8292 118.618 88.4153C118.032 89.0013 117.703 89.7962 117.703 90.625C117.703 91.4538 118.032 92.2487 118.618 92.8347C119.204 93.4208 119.999 93.75 120.828 93.75H166.672C167.501 93.75 168.296 93.4208 168.882 92.8347C169.468 92.2487 169.797 91.4538 169.797 90.625C169.797 89.7962 169.468 89.0013 168.882 88.4153C168.296 87.8292 167.501 87.5 166.672 87.5H146.875V75H178.125ZM129.516 68.75C130.157 65.4454 131.928 62.467 134.525 60.3255C137.122 58.1839 140.384 57.0127 143.75 57.0127C147.116 57.0127 150.378 58.1839 152.975 60.3255C155.572 62.467 157.343 65.4454 157.984 68.75H129.516ZM137.109 44.1406C137.109 42.8272 137.499 41.5433 138.229 40.4513C138.958 39.3592 139.995 38.5081 141.209 38.0055C142.422 37.5029 143.757 37.3714 145.046 37.6276C146.334 37.8838 147.517 38.5163 148.446 39.445C149.374 40.3737 150.007 41.5569 150.263 42.8451C150.519 44.1333 150.388 45.4685 149.885 46.6819C149.383 47.8953 148.531 48.9324 147.439 49.6621C146.347 50.3918 145.063 50.7812 143.75 50.7812C141.99 50.7771 140.303 50.0762 139.059 48.8317C137.814 47.5872 137.114 45.9006 137.109 44.1406ZM112.5 25H175V68.75H164.297C163.847 65.419 162.596 62.2469 160.65 59.5063C158.704 56.7656 156.122 54.5383 153.125 53.0156C154.867 51.1895 156.034 48.8923 156.482 46.4089C156.931 43.9255 156.64 41.3651 155.647 39.0452C154.654 36.7253 153.002 34.748 150.895 33.3584C148.788 31.9688 146.32 31.2281 143.797 31.2281C141.273 31.2281 138.805 31.9688 136.699 33.3584C134.592 34.748 132.94 36.7253 131.947 39.0452C130.953 41.3651 130.663 43.9255 131.111 46.4089C131.56 48.8923 132.727 51.1895 134.469 53.0156C131.455 54.5267 128.854 56.7489 126.891 59.4903C124.928 62.2317 123.662 65.4098 123.203 68.75H112.5V25Z" fill="black"/>
<path d="M106.25 159.375C106.25 160.204 106.579 160.999 107.165 161.585C107.751 162.171 108.546 162.5 109.375 162.5H140.625V175H120.828C119.999 175 119.204 175.329 118.618 175.915C118.032 176.501 117.703 177.296 117.703 178.125C117.703 178.954 118.032 179.749 118.618 180.335C119.204 180.921 119.999 181.25 120.828 181.25H166.672C167.501 181.25 168.296 180.921 168.882 180.335C169.468 179.749 169.797 178.954 169.797 178.125C169.797 177.296 169.468 176.501 168.882 175.915C168.296 175.329 167.501 175 166.672 175H146.875V162.5H178.125C178.954 162.5 179.749 162.171 180.335 161.585C180.921 160.999 181.25 160.204 181.25 159.375V109.375C181.25 108.546 180.921 107.751 180.335 107.165C179.749 106.579 178.954 106.25 178.125 106.25H109.375C108.546 106.25 107.751 106.579 107.165 107.165C106.579 107.751 106.25 108.546 106.25 109.375V159.375ZM137.109 131.641C137.109 130.327 137.499 129.043 138.229 127.951C138.958 126.859 139.995 126.008 141.209 125.505C142.422 125.003 143.757 124.871 145.046 125.128C146.334 125.384 147.517 126.016 148.446 126.945C149.374 127.874 150.007 129.057 150.263 130.345C150.519 131.633 150.388 132.968 149.885 134.182C149.383 135.395 148.531 136.432 147.439 137.162C146.347 137.892 145.063 138.281 143.75 138.281C141.99 138.277 140.303 137.576 139.059 136.332C137.814 135.087 137.114 133.401 137.109 131.641ZM143.75 144.531C147.113 144.533 150.371 145.703 152.967 147.84C155.563 149.978 157.336 152.95 157.984 156.25H129.516C130.164 152.95 131.937 149.978 134.533 147.84C137.129 145.703 140.387 144.533 143.75 144.531ZM112.5 112.5H175V156.25H164.297C163.847 152.919 162.596 149.747 160.65 147.006C158.704 144.266 156.122 142.038 153.125 140.516C154.867 138.689 156.034 136.392 156.482 133.909C156.931 131.425 156.64 128.865 155.647 126.545C154.654 124.225 153.002 122.248 150.895 120.858C148.788 119.469 146.32 118.728 143.797 118.728C141.273 118.728 138.805 119.469 136.699 120.858C134.592 122.248 132.94 124.225 131.947 126.545C130.953 128.865 130.663 131.425 131.111 133.909C131.56 136.392 132.727 138.689 134.469 140.516C131.455 142.027 128.854 144.249 126.891 146.99C124.928 149.732 123.662 152.91 123.203 156.25H112.5V112.5Z" fill="black"/>
<path d="M98.9531 27.3281L92.4063 21.4063C92.0985 21.1313 91.7395 20.9197 91.35 20.7834C90.9604 20.6472 90.5478 20.589 90.1357 20.6122C89.7237 20.6354 89.3202 20.7396 88.9484 20.9187C88.5766 21.0979 88.2437 21.3485 87.9688 21.6563C87.6938 21.964 87.4822 22.323 87.3459 22.7125C87.2097 23.1021 87.1515 23.5147 87.1747 23.9268C87.1979 24.3388 87.3021 24.7423 87.4812 25.1141C87.6604 25.4859 87.911 25.8188 88.2188 26.0938L89.25 27.0313C81.5845 27.8743 74.1213 30.0308 67.1875 33.4062C66.8161 33.5868 66.4839 33.8388 66.2099 34.1477C65.9359 34.4567 65.7254 34.8166 65.5904 35.2069C65.4555 35.5972 65.3988 36.0102 65.4235 36.4224C65.4482 36.8347 65.5538 37.238 65.7344 37.6094C65.9149 37.9808 66.1669 38.313 66.4758 38.587C66.7848 38.861 67.1447 39.0715 67.535 39.2064C67.9253 39.3414 68.3383 39.3981 68.7506 39.3734C69.1628 39.3487 69.5661 39.2431 69.9375 39.0625C76.0502 36.0541 82.6271 34.0996 89.3906 33.2813L88.625 34.125C88.0697 34.7466 87.7841 35.5633 87.831 36.3955C87.8542 36.8076 87.9583 37.211 88.1375 37.5829C88.3166 37.9547 88.5672 38.2875 88.875 38.5625C89.1828 38.8375 89.5417 39.0491 89.9313 39.1853C90.3209 39.3216 90.7335 39.3798 91.1455 39.3565C91.9777 39.3097 92.7572 38.9341 93.3125 38.3125L99 32.0625C99.3242 31.7578 99.5817 31.3893 99.7563 30.9801C99.9309 30.5709 100.019 30.1299 100.014 29.685C100.01 29.2402 99.9134 28.801 99.7307 28.3954C99.5481 27.9897 99.2833 27.6263 98.9531 27.3281Z" fill="#E65402"/>
<path d="M87.5 177.922C88.0227 178.563 88.7785 178.971 89.6016 179.056C90.4247 179.141 91.2479 178.896 91.8906 178.375L98.75 172.797C99.3982 172.163 99.7713 171.3 99.7888 170.394C99.8064 169.488 99.4669 168.611 98.8437 167.953L93.75 161.547C93.2139 160.951 92.469 160.583 91.6695 160.521C90.8701 160.458 90.0772 160.706 89.455 161.211C88.8328 161.717 88.4288 162.443 88.3266 163.238C88.2245 164.034 88.432 164.838 88.9063 165.484L89.9375 166.766C81.8653 165.834 74.0554 163.323 66.9531 159.375C66.2279 158.973 65.3727 158.876 64.5757 159.104C63.7787 159.333 63.1051 159.869 62.7031 160.594C62.3012 161.319 62.2037 162.174 62.4323 162.971C62.6609 163.768 63.1967 164.442 63.9219 164.844C71.5991 169.095 80.0235 171.827 88.7344 172.891L88.0156 173.469C87.6843 173.724 87.4075 174.042 87.2015 174.406C86.9956 174.77 86.8647 175.171 86.8166 175.586C86.7685 176.002 86.8042 176.422 86.9216 176.823C87.039 177.225 87.2357 177.598 87.5 177.922Z" fill="#E65402"/>
</svg>
