<svg width="200" height="200" viewBox="0 0 200 200" fill="none" xmlns="http://www.w3.org/2000/svg">
<path d="M143.75 90.625C136.785 90.6209 129.887 91.9909 123.453 94.6565C117.018 97.322 111.172 101.231 106.25 106.159V18.75C106.245 14.6075 104.597 10.636 101.668 7.70683C98.739 4.77763 94.7675 3.12986 90.625 3.125H18.75C14.6075 3.12986 10.636 4.77763 7.70683 7.70683C4.77763 10.636 3.12986 14.6075 3.125 18.75V153.125C3.12986 157.268 4.77763 161.239 7.70683 164.168C10.636 167.097 14.6075 168.745 18.75 168.75H90.625C92.5882 168.736 94.5306 168.347 96.348 167.605C100.598 176.046 107.024 183.2 114.962 188.328C122.901 193.456 132.064 196.372 141.506 196.776C150.948 197.18 160.327 195.056 168.674 190.625C177.022 186.193 184.035 179.614 188.99 171.567C193.946 163.52 196.663 154.296 196.863 144.847C197.063 135.398 194.737 126.068 190.126 117.818C185.516 109.569 178.786 102.699 170.634 97.9187C162.481 93.1384 153.201 90.6205 143.75 90.625ZM90.7833 146.875H9.375V25H100V113.68C93.8885 122.516 90.6179 133.006 90.625 143.75C90.625 144.805 90.7223 145.835 90.7833 146.875ZM18.75 9.375H90.625C93.1106 9.37771 95.4936 10.3663 97.2511 12.1239C99.0087 13.8814 99.9973 16.2644 100 18.75H9.375C9.37771 16.2644 10.3663 13.8814 12.1239 12.1239C13.8814 10.3663 16.2644 9.37771 18.75 9.375ZM90.625 162.5H18.75C16.2644 162.497 13.8814 161.509 12.1239 159.751C10.3663 157.994 9.37771 155.611 9.375 153.125H91.5045C92.0421 156.106 92.8364 159.035 93.8786 161.879C92.8405 162.281 91.7382 162.492 90.625 162.5ZM143.75 190.625C134.479 190.625 125.416 187.876 117.708 182.725C109.999 177.574 103.991 170.254 100.443 161.688C96.8953 153.123 95.967 143.698 97.7757 134.605C99.5844 125.512 104.049 117.16 110.604 110.604C117.16 104.049 125.512 99.5844 134.605 97.7757C143.698 95.967 153.123 96.8953 161.688 100.443C170.254 103.991 177.574 109.999 182.725 117.708C187.876 125.416 190.625 134.479 190.625 143.75C190.611 156.178 185.668 168.093 176.88 176.88C168.093 185.668 156.178 190.611 143.75 190.625Z" fill="black"/>
<path d="M124.649 125L121.646 117.578C121.413 117.001 121.013 116.507 120.497 116.159C119.981 115.811 119.372 115.625 118.75 115.625H109.375V121.875H116.644L133.081 162.494C133.728 164.322 134.926 165.905 136.509 167.025C138.092 168.145 139.983 168.748 141.922 168.75H165.625V162.5H141.922C141.253 162.492 140.604 162.273 140.066 161.875C139.528 161.477 139.129 160.92 138.925 160.283L138.558 159.375H165.625C166.281 159.375 166.92 159.169 167.452 158.786C167.984 158.402 168.381 157.861 168.588 157.239L177.963 129.114C178.12 128.644 178.163 128.144 178.089 127.654C178.015 127.165 177.825 126.7 177.535 126.298C177.246 125.896 176.865 125.569 176.424 125.343C175.983 125.117 175.495 125 175 125H124.649ZM163.373 153.125H136.029L127.178 131.25H170.663L163.373 153.125Z" fill="black"/>
<path d="M143.75 175C143.75 173.274 142.351 171.875 140.625 171.875C138.899 171.875 137.5 173.274 137.5 175C137.5 176.726 138.899 178.125 140.625 178.125C142.351 178.125 143.75 176.726 143.75 175Z" fill="black"/>
<path d="M165.625 175C165.625 173.274 164.226 171.875 162.5 171.875C160.774 171.875 159.375 173.274 159.375 175C159.375 176.726 160.774 178.125 162.5 178.125C164.226 178.125 165.625 176.726 165.625 175Z" fill="black"/>
<path d="M93.4235 63.1989L90.0116 48.5809C89.696 47.2047 88.9216 45.9767 87.8158 45.0988C86.7099 44.2209 85.3384 43.7453 83.9264 43.75H26.3855C24.9735 43.7453 23.602 44.221 22.4961 45.0989C21.3903 45.9768 20.6159 47.2047 20.3003 48.5809L16.9281 63.0493C16.3556 64.9571 16.4223 66.9998 17.1181 68.8662C17.8139 70.7326 19.1007 72.3204 20.7825 73.3877V118.75C20.7824 119.16 20.8631 119.567 21.0202 119.946C21.1772 120.325 21.4073 120.67 21.6976 120.96C21.9878 121.25 22.3323 121.48 22.7115 121.637C23.0907 121.794 23.4971 121.875 23.9075 121.875H86.4075C86.8179 121.875 87.2243 121.794 87.6035 121.637C87.9827 121.48 88.3272 121.25 88.6174 120.96C88.9076 120.67 89.1378 120.325 89.2948 119.946C89.4518 119.567 89.5326 119.16 89.5325 118.75V73.3875C90.4219 72.8181 91.2082 72.1019 91.8579 71.2694C92.7259 70.1372 93.3191 68.8189 93.5908 67.4184C93.8625 66.0179 93.8052 64.5734 93.4235 63.1989ZM87.3749 64.7676C87.5076 65.2325 87.5306 65.7218 87.4421 66.1971C87.3537 66.6723 87.1561 67.1206 86.8651 67.5066C86.574 67.8926 86.1973 68.2058 85.7647 68.4216C85.3321 68.6373 84.8553 68.7497 84.3719 68.75H76.6659L74.3221 50H83.9264L87.3749 64.7676ZM39.9471 68.75L42.2909 50H52.0325V68.75H39.9471ZM58.2825 50H68.0241L70.3678 68.75H58.2825V50ZM22.9767 64.6179L26.3855 50H35.9928L33.6491 68.75H25.943C25.4587 68.7516 24.9808 68.64 24.5474 68.4241C24.1139 68.2081 23.737 67.8938 23.4467 67.5063C23.1439 67.0971 22.9433 66.6215 22.8615 66.1191C22.7798 65.6166 22.8193 65.102 22.9767 64.6179ZM64.5325 115.625H45.7825V100H64.5325V115.625ZM70.7825 115.625V96.875C70.7826 96.4646 70.7018 96.0582 70.5448 95.679C70.3878 95.2998 70.1576 94.9553 69.8674 94.6651C69.5772 94.3749 69.2327 94.1447 68.8535 93.9877C68.4743 93.8307 68.0679 93.7499 67.6575 93.75H42.6575C42.2471 93.7499 41.8406 93.8307 41.4615 93.9877C41.0823 94.1447 40.7377 94.3749 40.4475 94.6651C40.1573 94.9553 39.9271 95.2998 39.7701 95.679C39.6131 96.0582 39.5324 96.4646 39.5325 96.875V115.625H27.0325V75H83.2825V115.625H70.7825Z" fill="#E65402"/>
</svg>
