<svg width="128" height="128" viewBox="0 0 128 128" fill="none" xmlns="http://www.w3.org/2000/svg">
<g clip-path="url(#clip0_11_149)">
<path d="M28.7 59.7C29.849 58.916 31.052 58.2142 32.3 57.6C30.3801 55.6694 28.6084 53.5968 27 51.4C21.9 44.3 19.9 36.5 21.6 29.9C22.6803 25.9596 25.0084 22.4754 28.2355 19.9694C31.4626 17.4635 35.4148 16.0708 39.5 16H40.5C49.4 16.6 59 23.5 61.8 31.4C61.9442 31.786 62.2041 32.1181 62.5442 32.3508C62.8843 32.5835 63.288 32.7054 63.7 32.7C64.112 32.7054 64.5157 32.5835 64.8558 32.3508C65.1959 32.1181 65.4558 31.786 65.6 31.4C68.8 23.1 77.6 16.9 86.5 16.5C95.4 16.1 104.3 22.4 106.4 30.8C108.1 37.4 106 45.2 100.6 52.2C96.7 57.2 91.6 61.4 86.7 65.4L82.8 68.6C80.5333 70.5333 78.3 72.5333 76.1 74.6L80.6 75.1H81.3L85.3 71.6L89.1 68.4C94.2 64.2 99.5 59.9 103.6 54.6C109.8 46.7 112.1 37.6 110.1 29.8C107.5 19.7 97 12.1 86.1 12.5C81.5456 12.8367 77.1373 14.2553 73.2414 16.6381C69.3455 19.0209 66.0744 22.299 63.7 26.2C59.1 18.5 49.8 12.6 40.7 12.1C35.5325 11.8917 30.4466 13.4387 26.2704 16.4892C22.0941 19.5397 19.0734 23.914 17.7 28.9C15.7 36.6 17.9 45.7 23.7 53.8C25.2295 55.8789 26.9001 57.8503 28.7 59.7ZM64.2 93.2L60.2 91.9L60.6 92.5C60.6859 92.8638 60.8721 93.1963 61.1373 93.4597C61.4026 93.7231 61.7364 93.9068 62.1008 93.9901C62.4653 94.0734 62.8457 94.0529 63.1991 93.9309C63.5525 93.8089 63.8646 93.5904 64.1 93.3L64.2 93.2Z" fill="#E65402"/>
<path d="M2.40001 116L15.6 113.3C16.7 113.2 21 112.5 27 106.6C33 100.7 34.8 100.4 35.2 100.2L51.9 97.9C52.2486 97.858 52.5799 97.725 52.8608 97.5144C53.1416 97.3037 53.3621 97.0228 53.5 96.7C54.9 93.4 54.2 91.2 53.5 89.9C52.7026 88.6832 51.5506 87.7406 50.2 87.2C51.521 85.04 52.1491 82.5275 52 80C52.0825 77.7505 51.6013 75.5161 50.6 73.5L58 73H58.3C61.1 72.3 62.7 70 62.7 66.6C62.701 65.7862 62.5365 64.9806 62.2164 64.2324C61.8962 63.4842 61.4273 62.8089 60.8379 62.2477C60.2486 61.6864 59.5513 61.2509 58.7883 60.9676C58.0254 60.6844 57.2128 60.5593 56.4 60.6C54 60.7 50.5 60.5 47.2 60.4C43.9 60.3 38.3 59.9 36.3 60.5C26.2 63 9.50001 84.6 6.10001 89.1L1.50001 90.4C1.05006 90.5478 0.667149 90.8504 0.419443 91.2541C0.171737 91.6577 0.0753078 92.1362 0.147321 92.6043C0.219334 93.0723 0.455117 93.4997 0.812696 93.8102C1.17028 94.1207 1.62645 94.2943 2.1 94.3H2.70001L8 92.7C8.39814 92.5766 8.74776 92.3318 9 92C14.2 85 29.5 66.3 37.4 64.2C38.8 63.8 43.2 64.1 47.1 64.3C51 64.5 54.1 64.7 56.7 64.5C56.9709 64.4864 57.2418 64.5281 57.4961 64.6225C57.7504 64.717 57.9829 64.8621 58.1793 65.0492C58.3758 65.2363 58.5321 65.4614 58.6388 65.7108C58.7455 65.9602 58.8003 66.2287 58.8 66.5C58.8 68.5 58.1 68.9 57.6 69L50.1 69.5V68.7C50.1 68.1696 49.8893 67.6609 49.5142 67.2858C49.1391 66.9107 48.6304 66.7 48.1 66.7C47.5696 66.7 47.0609 66.9107 46.6858 67.2858C46.3107 67.6609 46.1 68.1696 46.1 68.7V69.7L36.3 70.3C36.0373 70.3128 35.7796 70.3773 35.5418 70.4899C35.304 70.6024 35.0908 70.7607 34.9143 70.9558C34.7378 71.1509 34.6015 71.3788 34.5133 71.6267C34.425 71.8745 34.3865 72.1373 34.4 72.4C34.4119 72.5702 34.4455 72.7383 34.5 72.9L31 77C30.1851 77.9517 29.5992 79.0775 29.2872 80.291C28.9751 81.5044 28.9453 82.7732 29.2 84C29.608 85.7899 30.6119 87.3882 32.0472 88.5328C33.4826 89.6775 35.2641 90.3006 37.1 90.3H46.6C47.3 90.4 49.3 90.8 50 92C50.1563 92.3256 50.2456 92.6792 50.2628 93.0399C50.28 93.4006 50.2246 93.7611 50.1 94.1L34.5 96.3H34.3C33.7 96.5 30.5 97.5 24.2 103.7C17.9 109.9 15.3 109.3 15.3 109.3H14.9L1.60001 112C1.06957 112.053 0.581936 112.315 0.24437 112.727C-0.0931952 113.14 -0.253038 113.67 -0.199995 114.2C-0.146952 114.73 0.114633 115.218 0.527213 115.556C0.939793 115.893 1.46957 116.053 2.00001 116H2.40001ZM47.8 77.7C47.9337 78.4593 48.0006 79.229 48 80C48.0749 81.6265 47.7306 83.2449 47 84.7C46.2694 83.2449 45.9251 81.6265 46 80C45.9251 78.3735 46.2694 76.7551 47 75.3C47.4082 76.0457 47.6792 76.8586 47.8 77.7ZM33.1 83.2C32.9564 82.5714 32.963 81.9179 33.1194 81.2923C33.2758 80.6668 33.5775 80.087 34 79.6L38.7 74.2L43.2 73.9C42.3543 75.8197 41.9445 77.903 42 80C41.9111 82.2069 42.3571 84.4026 43.3 86.4H37.1C36.169 86.4 35.2657 86.0831 34.5388 85.5016C33.8118 84.92 33.3044 84.1083 33.1 83.2Z" fill="black"/>
<path d="M80.2 79.1L55.3 76.4C54.921 76.3688 54.541 76.4463 54.2044 76.6234C53.8679 76.8005 53.5889 77.0699 53.4 77.4C52.9781 78.1545 52.7159 78.9878 52.6299 79.848C52.5439 80.7082 52.6358 81.5769 52.9 82.4C53.6 84.4 55.3 85.9 58.1 87C60.9 88.1 66.8 89.9 70.2 90.9L63.2 95.7C62.9192 95.8849 62.6895 96.1376 62.5322 96.4347C62.3749 96.7318 62.295 97.0638 62.3 97.4C62.3217 98.1722 62.512 98.9303 62.8574 99.6213C63.2029 100.312 63.6953 100.919 64.3 101.4C65.3408 102.164 66.6101 102.552 67.9 102.5C68.8467 102.488 69.7878 102.353 70.7 102.1C74.1412 101.191 77.4156 99.7395 80.4 97.8H90C87.0847 99.1736 84.0774 100.343 81 101.3C80.1168 101.587 79.276 101.99 78.5 102.5C76.2 104 75.7 105.7 75.6 106.8C75.5 107.9 76.5 110.1 78.4 111.5C78.7733 111.781 79.2332 111.923 79.7 111.9L95.2 111.1C98.3211 112.003 101.551 112.474 104.8 112.5C108.532 112.581 112.221 111.685 115.5 109.9H116C118.2 109.4 122.8 110.9 125.2 111.9L126 112.1C126.447 112.085 126.875 111.92 127.218 111.632C127.56 111.345 127.796 110.951 127.888 110.513C127.98 110.076 127.923 109.62 127.726 109.219C127.528 108.818 127.203 108.494 126.8 108.3C124.519 107.315 122.139 106.577 119.7 106.1C119.79 105.675 119.74 105.231 119.556 104.837C119.371 104.443 119.064 104.12 118.68 103.916C118.295 103.713 117.855 103.64 117.425 103.71C116.996 103.779 116.601 103.986 116.3 104.3C109.7 111.6 96.2 107.3 96.1 107.3H95.4L80.4 108C79.9 107.5 79.7 107.2 79.7 107C79.7 106.8 80 106.4 80.8 105.9L82.4 105.2C85.2 104.3 90.3 102.5 92.5 101.2C92.9696 100.989 93.3899 100.682 93.7341 100.299C94.0783 99.9156 94.3387 99.465 94.4987 98.9755C94.6587 98.4861 94.7148 97.9686 94.6634 97.4562C94.6119 96.9439 94.4541 96.4479 94.2 96C93.8545 95.2921 93.3124 94.6987 92.6385 94.2908C91.9646 93.8829 91.1874 93.6778 90.4 93.7H81.9C81.0616 93.7385 80.2216 93.6713 79.4 93.5C79.1326 93.1967 78.7796 92.9816 78.3874 92.8831C77.9953 92.7845 77.5825 92.8071 77.2035 92.9479C76.8245 93.0886 76.497 93.341 76.2643 93.6716C76.0316 94.0023 75.9046 94.3957 75.9 94.8C75.9179 95.0765 75.9857 95.3475 76.1 95.6C74.0302 96.6412 71.8498 97.4462 69.6 98C67.7 98.5 66.9 98.2 66.7 98L79.4 89.3L93.4 86.3L114.4 91.4H126C126.53 91.4 127.039 91.1893 127.414 90.8142C127.789 90.4391 128 89.9304 128 89.4C128 88.8696 127.789 88.3608 127.414 87.9858C127.039 87.6107 126.53 87.4 126 87.4H115.1L80.5 79.2L80.2 79.1ZM78.1 85.5L77.4 85.8L74.5 87.8C72.5 87.3 64.7 85.1 59.5 83.2C58 82.6 57 81.9 56.7 81.1C56.6431 80.9389 56.6094 80.7706 56.6 80.6L79.7 83.1L84.4 84.2L78.1 85.5Z" fill="black"/>
</g>
<defs>
<clipPath id="clip0_11_149">
<rect width="128" height="128" fill="white"/>
</clipPath>
</defs>
</svg>
