<svg id="Layer_1" enable-background="new 0 0 512 512" viewBox="0 0 512 512" xmlns="http://www.w3.org/2000/svg"><path d="m127.891 445.988h-111.817c-4.14 0-7.363-3.474-7.054-7.602 3.92-52.252 47.9-93.793 101.111-93.793 25.659 0 49.169 9.662 67.079 25.523-24.389 18.36-42.297 45.017-49.319 75.872zm375.088-7.602c-3.92-52.252-47.899-93.793-101.11-93.793-25.659 0-49.169 9.662-67.078 25.523 24.388 18.359 42.296 45.016 49.318 75.871h111.817c4.139.001 7.363-3.473 7.053-7.601zm-155.911-153.885c0 30.266 24.535 54.8 54.801 54.8s54.8-24.535 54.8-54.8-24.535-54.801-54.8-54.801-54.801 24.536-54.801 54.801zm-236.937 54.801c30.266 0 54.801-24.535 54.801-54.8s-24.535-54.801-54.801-54.801c-30.265 0-54.8 24.535-54.8 54.801 0 30.265 24.535 54.8 54.8 54.8zm77.212-96.288 4.544 3.266c3.959-5.625 8.64-10.705 13.908-15.107l-6.56-4.715c-20.973-15.074-32.196-36.906-32.196-62.741l.018-71.687c.003-2.752 1.43-5.428 3.982-6.906 25.575-14.892 54.871-27.833 84.961-27.833 29.908 0 59.031 12.786 84.479 27.552 2.654 1.302 4.481 4.031 4.481 7.186v71.687c0 25.835-11.223 47.667-32.196 62.741l-6.56 4.715c5.268 4.402 9.949 9.482 13.909 15.107l4.543-3.266c26.346-18.937 40.659-46.851 40.659-79.297v-87.633c-41.431-26.098-75.373-39.147-109.315-39.147s-67.884 13.048-109.315 39.146v87.634c0 32.447 14.312 60.36 40.658 79.298zm68.657 116.681c-60.544 0-110.585 47.265-115.046 106.719-.352 4.697 3.315 8.65 8.026 8.65h214.04c4.71 0 8.378-3.953 8.026-8.65-4.461-59.454-54.502-106.719-115.046-106.719zm0-6.021c34.437 0 62.353-27.916 62.353-62.353s-27.917-62.353-62.353-62.353-62.353 27.917-62.353 62.353 27.916 62.353 62.353 62.353zm-36.028-131.944-11.424-8.211c-16.886-12.137-25.508-29.015-25.508-49.803v-67.074c22.073-12.46 47.208-23.351 72.96-23.351s50.888 10.891 72.96 23.351v67.075c0 20.788-8.623 37.667-25.509 49.803l-11.424 8.211c-10.787-5.597-23.038-8.763-36.028-8.763s-25.24 3.165-36.027 8.762zm12.72-23.376c5.959 5.799 15.492 5.734 21.371-.177l51.706-52.191c5.918-5.951 5.892-15.573-.059-21.492-5.951-5.918-15.573-5.891-21.492.06l-41.117 41.502-15.498-15.107c-6.017-5.852-15.639-5.719-21.492.297-5.853 6.017-5.719 15.639.298 21.491z"/></svg>