<svg width="350" height="350" viewBox="0 0 350 350" fill="none" xmlns="http://www.w3.org/2000/svg">
<path d="M265.682 292.727L255.076 293.788C256.667 304.394 263.03 310.227 272.045 311.288V318.712H277.879V311.288C295.379 308.636 304.924 283.182 277.879 275.758V259.848C280.53 260.909 282.121 263.03 282.652 266.212L292.727 265.151C291.136 257.197 286.364 252.424 277.879 251.364V247.651H272.045V251.364C254.015 252.955 249.242 278.939 272.045 285.303V302.273C269.394 300.151 266.742 296.97 265.682 292.727ZM277.879 286.364C287.955 289.545 285.833 300.682 277.879 301.742V286.364ZM272.045 259.848V273.636C264.091 270.455 265.682 261.97 272.045 259.848Z" fill="#E65402"/>
<path d="M339.394 332.5H309.167C325.606 321.364 335.682 302.803 335.682 282.651C335.682 259.848 322.955 238.636 302.273 228.561V147.424C302.273 144.242 300.151 142.121 296.97 142.121H252.955C249.773 142.121 247.652 144.242 247.652 147.424V228.561C227.5 238.636 214.242 259.848 214.242 282.651C214.242 302.803 224.318 321.364 240.758 332.5H202.576V195.682C202.576 192.5 200.455 190.379 197.273 190.379H153.258C150.076 190.379 147.955 192.5 147.955 195.682V332.5H97.5758V256.136C97.5758 252.955 95.4545 250.833 92.2727 250.833H48.2576C45.0758 250.833 42.9545 252.955 42.9545 256.136V332.5H15.9091V12.197C15.9091 9.01513 13.7879 6.89392 10.6061 6.89392C7.42424 6.89392 5.30303 9.01513 5.30303 12.197V338.333C5.30303 341.515 7.42424 343.636 10.6061 343.636H339.394C342.576 343.636 344.697 341.515 344.697 338.333C344.697 335.151 342.576 332.5 339.394 332.5ZM291.667 152.727V224.318C280.53 221.136 268.864 221.136 258.258 224.318V152.727H291.667ZM224.848 282.651C224.848 254.545 247.651 232.803 274.697 232.803C302.273 232.803 324.545 255.076 324.545 282.651C324.545 348.939 224.848 348.409 224.848 282.651ZM158.03 200.985H191.439V332.5H158.03V200.985ZM53.5606 261.439H86.9697V332.5H53.5606V261.439Z" fill="black"/>
<path d="M263.561 57.803L266.212 68.4091C266.742 71.0606 269.924 73.1818 272.576 72.1212C275.227 71.5909 277.348 68.4091 276.288 65.7575L270.985 42.4242C270.455 40.8333 269.924 39.7727 268.333 39.2424C267.273 38.7121 265.682 38.1818 264.091 38.7121L241.288 44.5454C238.636 45.0757 236.515 48.2575 237.576 50.9091C238.106 53.5606 241.288 55.1515 243.939 54.6212L253.485 51.9697C205.227 128.333 142.121 171.818 65.7576 180.303C63.1061 180.833 60.9848 182.955 60.9848 186.136C61.5152 189.318 64.1667 191.439 66.8182 190.909C147.424 182.424 213.182 137.348 263.561 57.803Z" fill="#E65402"/>
</svg>
