<svg id="Layer_1" enable-background="new 0 0 68 68" height="512" viewBox="0 0 68 68" width="512" xmlns="http://www.w3.org/2000/svg"><g id="Schedule_Planning"><g><path d="m30.5093994 22.1595459h-7.001709c-.8613281 0-1.5686035.7073364-1.5686035 1.5786743v5.4230347c0 .861145.7072754 1.5685425 1.5686035 1.5685425h7.001709c.8713379 0 1.5787354-.7073975 1.5787354-1.5685425v-5.4230347c0-.8713379-.7073975-1.5786743-1.5787354-1.5786743zm-1.3121338 4.2440796-2.8397217 1.8760376c-.3266506.2449894-.8651371.1505375-1.0969238-.2665405l-.861084-1.5787354c-.2050781-.3792725-.0717773-.8406372.307373-1.0456543.3691406-.2050781.8408203-.0717773 1.0354004.3074951l.4614258.8406372 2.1425781-1.4146729c.3588867-.2357788.8303223-.1332397 1.0661621.215271.2358399.3587647.1331788.8406373-.2152099 1.0661622z"/><path d="m37.1422119 30.7297974h7.001709c.861084 0 1.5683594-.7073975 1.5683594-1.5685425v-5.4230347c0-.8713379-.7072754-1.5786743-1.5683594-1.5786743h-7.001709c-.871582 0-1.5788574.7073364-1.5788574 1.5786743v5.4230347c0 .861145.7072754 1.5685425 1.5788574 1.5685425zm1.2813721-5.3410645c.3688965-.2050781.8405762-.0717773 1.0354004.3074951l.4613037.8406372 2.1425781-1.4146729c.3586426-.2357788.8302002-.1332397 1.065918.215271.2359619.3587646.1335449.8406372-.2150879 1.0661621l-2.8398438 1.8760376c-.3228912.2426491-.8631172.1539536-1.0968018-.2665405l-.861084-1.5787354c-.204956-.3792724-.0718993-.8406371.3076173-1.0456542z"/><path d="m50.7662354 30.7297974h7.001709c.8613281 0 1.5686035-.7073975 1.5686035-1.5685425v-5.4230347c0-.8713379-.7072754-1.5786743-1.5686035-1.5786743h-7.001709c-.8713379 0-1.5683594.7073364-1.5683594 1.5786743v5.4230347c0 .861145.6970215 1.5685425 1.5683594 1.5685425zm1.6197509-5.3410645c.3795166-.2050781.8406982-.0717773 1.0456543.3074951l.4613037.8406372 2.1425781-1.4146729c.3486328-.2357788.8305664-.1332397 1.0559082.215271.2358398.3587646.1435547.8406372-.2150879 1.0661621l-2.8398438 1.8760376c-.3334465.2500839-.8700981.1411247-1.0969238-.2665405l-.861084-1.5787354c-.205078-.3792724-.0614013-.8406371.3074952-1.0456542z"/><path d="m16.8851318 34.1127319h-7.001709c-.861084 0-1.5686035.6971436-1.5686035 1.5685425v5.4229736c0 .8612061.7075195 1.5685425 1.5686035 1.5685425h7.001709c.8713379 0 1.5686035-.7073364 1.5686035-1.5685425v-5.4229736c.0000001-.8713989-.6972656-1.5685425-1.5686035-1.5685425zm-1.8862304 4.9822388c.3074951.2973022.3074951.7893677 0 1.0866699-.2660694.2849617-.768939.3174744-1.086792 0l-.7789307-.7791138-.7791748.7791138c-.3190527.3189278-.8237696.2819176-1.0865479 0-.2973633-.2973022-.2973633-.7893677 0-1.0866699l.7790527-.7790527-.7790527-.7791138c-.2973633-.3076172-.2973633-.7894287 0-1.0866699.2971191-.3076172.7891846-.3076172 1.0865479 0l.7791748.7790527.7789307-.7790527c.3076172-.3076172.7894287-.3076172 1.086792 0 .3074951.2972412.3074951.7790527 0 1.0866699l-.7791748.7791138z"/><path d="m30.5093994 34.1127319h-7.001709c-.8613281 0-1.5686035.6971436-1.5686035 1.5685425v5.4229736c0 .8612061.7072754 1.5685425 1.5686035 1.5685425h7.001709c.8713379 0 1.5787354-.7073364 1.5787354-1.5685425v-5.4229736c0-.8713989-.7073975-1.5685425-1.5787354-1.5685425z"/><path d="m16.8851318 46.0557861h-7.001709c-.861084 0-1.5686035.6970825-1.5686035 1.5684204v5.4230957c0 .861084.7075195 1.5684204 1.5686035 1.5684204h7.001709c.8713379 0 1.5686035-.7073364 1.5686035-1.5684204v-5.4230957c.0000001-.8713378-.6972656-1.5684204-1.5686035-1.5684204z"/><path d="m30.5093994 46.0557861h-7.001709c-.8613281 0-1.5686035.6970825-1.5686035 1.5684204v5.4230957c0 .861084.7072754 1.5684204 1.5686035 1.5684204h7.001709c.8713379 0 1.5787354-.7073364 1.5787354-1.5684204v-5.4230957c0-.8713378-.7073975-1.5684204-1.5787354-1.5684204z"/><path d="m66 50.2896118c0-1.1276855-.1229248-2.2246094-.3485107-3.2804565v-36.9361573c0-4.4081421-3.5880127-7.9961548-8.0063477-7.9961548h-47.6387939c-4.418335.0000001-8.0063477 3.5880128-8.0063477 7.9961548v42.031128c0 4.4082031 3.5880127 8.0064087 8.0063477 8.0064087h28.2121582c2.4197731 2.9962425 7.0034523 5.8126221 12.1479492 5.8126221 8.6698112-.0000001 15.6335449-7.0400582 15.6335449-15.633545zm-8.395874 11.4816284-.3588867-.6253052c-.2869873-.4920654-.9123535-.6663208-1.4042969-.3792725-.4921875.2870483-.65625.9123535-.3795166 1.4044189l.328125.5638428c-1.506958.6663208-3.1678467 1.0661621-4.9002686 1.1276855v-.7381592c0-.5740967-.4509277-1.0251465-1.0251465-1.0251465-.5638428 0-1.0251465.4510498-1.0251465 1.0251465v.6561279c-1.7119141-.1845093-3.3317871-.7073364-4.7976074-1.4761963l.3688965-.6356201c.2768555-.4920654.112915-1.1174316-.3791504-1.4044189-.4920654-.2871094-1.1174316-.112793-1.404541.3690186l-.328125.5740967c-1.3218613-.9913063-2.5806274-2.327549-3.4135742-3.6905518l.635498-.3588257c.4921875-.2869873.65625-.9123535.3691406-1.4044189-.2768555-.4920654-.9124756-.6560669-1.3942871-.3690796l-.5739746.328064c-.65625-1.506958-1.0559082-3.1677246-1.1071777-4.9002075h.7277832c.5638428 0 1.0251465-.4613037 1.0251465-1.0252075 0-.5637817-.4613037-1.0251465-1.0251465-1.0251465h-.6560059c.1844482-1.722229.6970215-3.3419189 1.4760742-4.7976685l.6357422.3588257c.4941673.2777863 1.1157532.1072159 1.4042969-.3792725.2768555-.4818726.112793-1.1174316-.3791504-1.3942871l-.5740967-.3279419c1.0046387-1.3532104 2.255249-2.5219116 3.6903076-3.4240723l.3590088.6356201c.2879257.4851379.9094124.6577148 1.4044189.3792725.4920654-.2869873.6561279-.9123535.3793945-1.4044189l-.328125-.5740967c1.5068359-.6663818 3.1677246-1.0558472 4.9001465-1.1174316v.7381592c0 .5637817.4510498 1.0251465 1.0251465 1.0251465.5639648 0 1.0251465-.4613647 1.0251465-1.0251465v-.6561279c1.7224121.1845093 3.342041.6970825 4.7978516 1.4761963l-.3691406.6356201c-.2768555.4920654-.112793 1.1174316.3791504 1.4044189.4954224.2782593 1.116581.1062317 1.404541-.3792725l.328125-.5740967c1.3530273 1.0148926 2.5117188 2.265625 3.4135742 3.6905518l-.635376.3690796c-.4920654.2767944-.65625.9123535-.3691406 1.394165.2731895.4855804.8998718.6574402 1.3942871.3793335l.5740967-.328064c.6847153 1.584198 1.0586929 3.2657738 1.1173096 4.9002075-.1006927 0-.8388519 0-.7381592 0-.5638428 0-1.0251465.4613647-1.0251465 1.0251465 0 .5638428.4613037 1.0251465 1.0251465 1.0251465.1006927 0 .7569427 0 .65625 0-.1845703 1.7119751-.6972656 3.3317871-1.4763184 4.7977295-.1004715-.0567207-.7359695-.4154854-.635498-.3587646-.4920654-.2871094-1.1174316-.1231079-1.3942871.3690186-.2884178.4809685-.1120338 1.132576.3691406 1.4044189.1001663.057251.6741409.3853149.5739746.328064-1.1117172 1.461731-2.3580169 2.5845757-3.6904296 3.4136963zm-47.5977783-3.7109985c-3.2803955 0-5.9560547-2.6756592-5.9560547-5.9561157v-33.9529419h59.5509033v23.8347168c-2.7948532-4.4948349-7.8041878-7.3297729-13.2347412-7.3297729-8.8939552 0-15.6231689 7.4589806-15.6231689 15.1311035 0 2.828064.4805641 5.6294403 2.0708008 8.2730103h-26.8077393zm46.0599365-47.9257202c0 1.3428955-1.0969238 2.4398193-2.4499512 2.4398193-1.3430176 0-2.4399414-1.0969238-2.4399414-2.4398193 0-1.3532104 1.0969238-2.4500732 2.4399414-2.4500732 1.3530274-.0000001 2.4499512 1.0968627 2.4499512 2.4500732zm-9.6158447 0c0 .8713989-.6971436 1.5684814-1.5684814 1.5684814h-22.1124268c-.87146 0-1.5684814-.6970825-1.5684814-1.5684814s.6970215-1.5787354 1.5684814-1.5787354h22.1124267c.8713379 0 1.5684815.7073365 1.5684815 1.5787354zm-29.9754639 0c0 1.3428955-1.0966797 2.4398193-2.4396973 2.4398193-1.3532715 0-2.4501953-1.0969238-2.4501953-2.4398193 0-1.3532104 1.0969238-2.4500732 2.4501953-2.4500732 1.3430176-.0000001 2.4396973 1.0968627 2.4396973 2.4500732z"/><path d="m50.376709 40.7659302c-5.2589111 0-9.5339355 4.2647095-9.5339355 9.5236816 0 5.3112793 4.3426094 9.5236206 9.5339355 9.5236206 5.2283859 0 9.5236816-4.2536163 9.5236816-9.5236206 0-5.2589722-4.2749023-9.5236816-9.5236816-9.5236816zm-1.0354004 4.633728c0-.5638428.4613037-1.0251465 1.0251465-1.0251465.5740967 0 1.0251465.4613037 1.0251465 1.0251465v3.8648071h2.0811768c.5637207 0 1.0251465.4511108 1.0251465 1.0251465 0 .5638428-.4614258 1.0251465-1.0251465 1.0251465h-3.1063232c-.5638428 0-1.0251465-.4613037-1.0251465-1.0251465v-4.8899536z"/></g></g></svg>