<svg id="Layer_1" enable-background="new 0 0 512 512" viewBox="0 0 512 512" xmlns="http://www.w3.org/2000/svg"><path clip-rule="evenodd" d="m21.348 495.134h105.586l-11.256-12.445c-3.858-4.265-5.442-10.081-4.28-15.713l4.025-19.515c-3.213-1.583-5.92-4.114-7.729-7.339l-24.536-43.724c-.497-.886-.915-1.805-1.252-2.744-34.519 19.886-59.315 54.756-65.506 95.729-.46 3.044 1.871 5.751 4.948 5.751zm205.458-371.646c4.196-4.196 11.062-4.196 15.258 0l10.932 10.932 29.578-29.578c4.196-4.196 11.062-4.196 15.258 0 4.196 4.196 4.196 11.062 0 15.258l-36.996 36.996c-5.349 5.349-12.505 3.175-17.249-1.569l-16.781-16.781c-4.196-4.196-4.196-11.062 0-15.258zm131.766-14.404c-2.419-10.169-6.45-19.883-11.931-28.782l8.302-18.693-22.038-22.037-18.698 8.304c-8.899-5.479-18.609-9.51-28.775-11.929l-7.344-19.081h-31.165l-7.345 19.081c-10.166 2.419-19.876 6.45-28.775 11.929l-18.698-8.304-22.039 22.038 8.304 18.697c-5.48 8.898-9.51 18.61-11.93 28.777l-19.079 7.344v31.166l19.077 7.343c2.42 10.168 6.45 19.883 11.931 28.783l-8.302 18.692 22.038 22.037 18.699-8.304c8.898 5.479 18.608 9.51 28.775 11.929l7.344 19.081h31.166l7.343-19.077c10.169-2.419 19.883-6.45 28.783-11.931l18.692 8.302 22.038-22.038-8.304-18.698c5.479-8.898 9.51-18.608 11.929-28.775l19.081-7.345v-31.166zm-96.253 83.031c-33.776 0-61.157-27.381-61.157-61.156 0-33.776 27.381-61.157 61.157-61.157s61.157 27.381 61.157 61.157c0 33.775-27.381 61.156-61.157 61.156zm96.453 138.252c-.468-.654-.509-1.471-.106-2.168l84.152-145.756c.402-.697 1.13-1.07 1.93-.992 17.547 1.725 35.306-6.693 44.695-22.956 8.41-14.567 8.011-31.802.459-45.539-.75-1.364-2.712-1.384-3.49-.036l-21.018 36.403c-.368.637-.999 1.001-1.734 1.001l-21.855.001c-.735 0-1.367-.365-1.734-1.001l-10.927-18.927c-.368-.637-.368-1.366 0-2.003l21.018-36.403c.782-1.355-.212-3.037-1.776-3.004-15.673.327-30.798 8.599-39.208 23.167-9.39 16.263-7.8 35.851 2.467 50.185.468.654.508 1.471.106 2.168l-84.152 145.756c-.402.697-1.13 1.07-1.93.991-17.547-1.725-35.306 6.693-44.695 22.956-8.41 14.567-8.011 31.802-.459 45.539.75 1.364 2.711 1.384 3.49.037l21.018-36.404c.368-.637.999-1.001 1.734-1.001l21.855-.001c.735 0 1.367.365 1.734 1.001l10.927 18.927c.368.637.368 1.366 0 2.002l-21.017 36.404c-.782 1.355.212 3.036 1.776 3.004 15.672-.328 30.798-8.6 39.208-23.166 9.388-16.263 7.798-35.851-2.468-50.185zm-177.215 49.65c5.956 1.516 11.752 3.432 17.359 5.717 1.122.458 1.583 1.778.99 2.835l-24.535 43.724c-.688 1.225-2.372 1.385-3.277.311l-22.239-26.369c-.738-.876-.601-2.173.305-2.874l29.677-22.986c.504-.391 1.102-.515 1.72-.358zm-66.097 0c.618-.157 1.216-.033 1.72.358l29.677 22.986c.906.702 1.043 1.998.305 2.874l-22.238 26.369c-.906 1.074-2.59.914-3.278-.311l-24.535-43.724c-.593-1.057-.131-2.377.991-2.835 5.606-2.285 11.403-4.2 17.358-5.717zm49.751 67.218 4.739 22.973c.133.645-.034 1.259-.476 1.748l-19.479 21.536c-.795.88-2.175.88-2.971 0l-19.479-21.536c-.442-.489-.61-1.103-.476-1.748l4.739-22.973c2.012-1.065 3.832-2.519 5.349-4.317l11.353-13.462 11.354 13.462c1.515 1.799 3.335 3.253 5.347 4.317zm-16.701-206.462c37.312 0 67.559 30.247 67.559 67.559s-30.247 67.559-67.559 67.559-67.559-30.247-67.559-67.559c-.001-37.311 30.247-67.559 67.559-67.559zm21.573 254.361 11.256-12.445c3.858-4.265 5.442-10.081 4.28-15.713l-4.025-19.515c3.213-1.583 5.92-4.114 7.729-7.339l24.535-43.724c.497-.886.915-1.804 1.252-2.744 34.517 19.888 59.314 54.756 65.506 95.728.46 3.043-1.871 5.751-4.948 5.751z" fill-rule="evenodd"/></svg>