<svg id="Layer_1" enable-background="new 0 0 128 128" viewBox="0 0 128 128" xmlns="http://www.w3.org/2000/svg"><g><ellipse cx="102.6" cy="100.5" rx="9" ry="9" transform="matrix(1 -.004 .004 1 -.434 .445)"/><ellipse cx="77.6" cy="116.5" rx="7.6" ry="7.6" transform="matrix(.502 -.865 .865 .502 -62.077 125.132)"/><ellipse cx="48" cy="117.6" rx="6.8" ry="6.8" transform="matrix(.87 -.492 .492 .87 -51.69 38.873)"/><ellipse cx="23.4" cy="105.2" rx="4.2" ry="4.2" transform="matrix(.015 -1 1 .015 -82.106 126.986)"/><path d="m116.5 30.8c-3.3-5.3-7.5-10.1-12.2-14.2-10.8-9.3-24.9-15-40.3-15-34.2 0-61.9 27.7-61.9 61.9 0 3.6.3 7.2.9 10.6.3 1.3.6 2.4.8 3.2s.4 1.4.5 1.8.2.6.2.6l5.6-1.6s-.1-.2-.2-.6-.2-.9-.4-1.6c-.3-1.4-.7-3.5-.9-6.2-.1-1.3-.2-2.8-.2-4.4 0-.4 0-.8 0-1.2 0-.2 0-.4 0-.6v-.3-.2c.1-.9.1-1.9.2-2.8s.2-1.8.3-2.8c.1-.5.2-1 .2-1.5 0-.3.1-.5.1-.8.1-.2.1-.5.2-.7.1-.5.2-1 .3-1.5s.3-1 .4-1.6c.3-1.1.6-2.1 1-3.2.7-2.1 1.6-4.3 2.7-6.5.3-.5.5-1.1.8-1.6s.6-1.1.9-1.6c.7-1.1 1.3-2.1 2.1-3.2 2.9-4.2 6.7-8.2 11.1-11.5s9.5-6 15-7.8c5.4-1.7 11.2-2.5 16.9-2.3h.1.1.1.3.6l1.2.1c.4 0 .7.1 1.1.1l1 .1c.6.1 1.4.2 2.1.3l1.1.2 1.1.2c2.8.6 5.5 1.4 8.1 2.5 4 1.7 7.8 3.8 11.1 6.3.2.2.4.3.7.5 7.5 5.8 13.2 13.7 16.2 22.9 0 .1-.1.1-.1.2.3.8.5 1.7.7 2.5 1 4 1.4 7.7 1.5 11 0 3.3-.3 6.2-.6 8.5-.4 2.3-.9 4.1-1.2 5.3-.4 1.2-.6 1.8-.6 1.8l.3.1 17.7 5.2c1.7-5.7 2.6-11.7 2.6-17.9.1-12-3.4-23.2-9.3-32.7z"/><path d="m38.9 71h-6.4c1.6-1.9 5.2-6.3 5.8-7 .9-1 1.5-1.9 1.9-2.8s.6-1.8.6-2.8c0-1.8-.7-3.4-2-4.7-2.7-2.6-7.7-2.7-10.6-.1-1 .9-1.7 2-2 3.5-.1.5 0 1.1.3 1.5s.8.7 1.3.8h.1c.9.1 1.8-.5 2-1.5.1-.7.4-1.3.9-1.7 1.3-1.3 3.8-1.3 5.2-.1 1.3 1.2.9 3.2.2 4.5-.6 1.1-1.5 2.1-2.4 3.1-.3.3-.6.7-.9 1-.7.8-3.9 4.8-6 7.4-.8 1-.1 2.5 1.2 2.5h11c1.1 0 2-1 1.8-2.2-.4-.8-1.2-1.4-2-1.4z"/><path d="m58.2 66.3h-1.2v-12.8c0-1.2-.9-2.1-2.1-2.1-.7 0-1.3.3-1.7.9l-9.7 13.8c-.3.4-.5.9-.5 1.5 0 1.4 1.1 2.5 2.5 2.5h7.5v3c0 1 .8 1.9 1.9 1.9h.2c1 0 1.9-.8 1.9-1.9v-3h1.2c1 0 1.9-.8 1.9-1.9-.1-1-.9-1.9-1.9-1.9zm-5.3 0h-4.9l4.9-6.8z"/><path d="m70.8 51.8c-.3-.4-.8-.6-1.3-.6-.7 0-1.4.5-1.6 1.2l-5.8 20.7c-.1.5 0 1 .3 1.4s.8.6 1.3.6c.7 0 1.4-.5 1.6-1.2l5.8-20.7c.1-.4 0-1-.3-1.4z"/><path d="m87.7 51.4h-11.3c-1.2 0-2.1.9-2.1 2.1v.2c0 1.2.9 2.1 2.1 2.1h8.4l-6.6 16.3c-.3.6-.2 1.4.2 2s1 .9 1.7.9c.9 0 1.6-.5 1.9-1.3l7-17.5c.3-.8.5-1.7.5-2.7.2-1.2-.7-2.1-1.8-2.1z"/></g></svg>