<svg width="512" height="512" viewBox="0 0 512 512" fill="none" xmlns="http://www.w3.org/2000/svg">
<path d="M487.799 173.364L353.27 253.553C343.338 259.473 339.36 271.653 343.366 282.11C337.368 284.626 330.655 284.744 324.506 282.368L307.103 275.531C300.16 272.802 292.665 272.327 285.431 274.159L258.767 280.907C257.733 281.168 256.72 281.474 255.729 281.821C239.439 272.521 229.735 269.741 212.545 276.388L197.112 282.354C189.819 285.173 181.778 284.504 175.035 280.51L169.88 277.471C171.359 268.248 167.219 258.614 158.73 253.554L24.201 173.364C13.534 167.008 0 174.68 0 187.113V337.285C0 347.655 5.533 357.394 14.44 362.703L73.178 397.716C84.104 404.227 98.149 400.851 104.95 390.233L107.461 391.715L99.845 402.324C91.338 414.171 94.043 430.644 105.892 439.152C111.749 443.357 118.887 444.943 125.881 443.701C126.952 450.778 130.764 457.008 136.583 461.186C142.424 465.379 149.607 466.957 156.582 465.72C157.609 472.514 161.264 478.905 167.274 483.219C175.372 489.032 185.413 489.506 193.564 485.827C195.357 490.797 198.602 495.108 202.986 498.256C214.376 506.432 230.17 504.225 238.904 493.403L258.633 505.091C262.844 507.586 267.472 508.772 272.043 508.772C281.068 508.772 289.873 504.148 294.797 495.836C296.876 492.327 298.047 488.526 298.379 484.711L299.147 485.166C305.214 488.76 312.318 489.778 319.146 488.028C325.977 486.28 331.718 481.976 335.311 475.911C337.533 472.161 338.769 468.015 338.977 463.783C343.373 465.011 348.035 465.068 352.576 463.907C359.407 462.159 365.148 457.855 368.741 451.79C370.832 448.262 372.051 444.383 372.359 440.41C384.33 445.477 398.537 441.03 405.34 429.548C411.314 419.464 409.783 406.979 402.42 398.626L410.152 394.109C417.483 401.51 429.283 403.4 438.823 397.715L453.023 389.25C456.582 387.129 457.747 382.525 455.626 378.968C453.504 375.408 448.897 374.245 445.344 376.365L431.144 384.83C427.796 386.827 423.72 386.218 421.093 383.815C421.044 383.393 357.999 278.034 357.999 278.034C355.624 274.025 356.948 268.823 360.95 266.437L495.479 186.248C496.165 185.844 497 186.326 497 187.112V337.284C497 342.397 494.271 347.2 489.88 349.817L475.701 358.269C472.142 360.39 470.977 364.994 473.098 368.551C475.218 372.11 479.825 373.271 483.38 371.154L497.559 362.702C506.466 357.393 511.999 347.654 511.999 337.284V187.113C512 174.697 498.479 166.997 487.799 173.364ZM289.11 288.7C293.285 287.644 297.61 287.918 301.618 289.492L319.059 296.344C329.469 300.369 340.838 299.927 350.756 295.242L401.895 381.562L393.608 386.404C392.102 387.296 390.658 388.284 389.284 389.362L279.913 324.593C277.594 323.22 274.717 323.197 272.378 324.531C270.037 325.865 268.592 328.352 268.592 331.047V332.554C268.592 337.889 266.514 342.905 262.74 346.676C258.969 350.445 253.957 352.519 248.628 352.519C247.762 352.487 246.999 351.792 246.998 350.889V315.294C246.998 307.539 251.339 300.617 257.982 297.15C258.312 297.017 258.634 296.86 258.944 296.68C260.056 296.172 261.227 295.758 262.446 295.449L289.11 288.7ZM87.287 385.764C85.09 386.32 82.806 385.993 80.858 384.83L22.12 349.818C17.728 347.2 15 342.398 15 337.285V187.113C15 186.953 15 186.528 15.509 186.239C15.699 186.131 15.87 186.093 16.016 186.093C16.26 186.093 16.435 186.197 16.521 186.248L151.051 266.437C155.053 268.823 156.378 274.025 154.002 278.035L92.486 381.872C91.331 383.822 89.484 385.205 87.287 385.764ZM123.128 428.954C120.126 429.448 117.112 428.741 114.639 426.967C112.168 425.193 110.535 422.563 110.042 419.561C109.549 416.558 110.254 413.544 112.029 411.073L122.729 396.168C122.99 395.804 123.27 395.461 123.564 395.138C123.786 394.939 123.997 394.724 124.197 394.496C128.084 390.855 134.139 390.338 138.625 393.558C143.727 397.221 144.898 404.352 141.235 409.454C141.229 409.462 141.223 409.471 141.217 409.479L130.534 424.359C128.761 426.829 126.13 428.461 123.128 428.954ZM145.33 449C142.859 447.226 141.226 444.596 140.733 441.594C140.24 438.591 140.945 435.577 142.72 433.106L153.42 418.201C153.42 418.201 153.42 418.2 153.421 418.2L165.229 401.752C167.003 399.28 169.633 397.648 172.636 397.154C173.261 397.051 173.885 397.001 174.506 397.001C176.869 397.001 179.167 397.736 181.125 399.142C186.227 402.804 187.398 409.935 183.735 415.038L161.225 446.392C157.562 451.493 150.431 452.66 145.33 449ZM184.509 473.02C181.508 473.513 178.493 472.807 176.021 471.033C170.919 467.371 169.748 460.24 173.411 455.138C173.417 455.129 173.423 455.121 173.429 455.112L195.921 423.783C199.583 418.68 206.714 417.512 211.817 421.173C214.288 422.947 215.921 425.577 216.414 428.58C216.907 431.582 216.201 434.597 214.427 437.068L191.917 468.422C190.142 470.894 187.511 472.527 184.509 473.02ZM211.733 486.07C209.262 484.296 207.629 481.666 207.136 478.663C206.643 475.661 207.348 472.647 209.123 470.176C209.131 470.165 209.138 470.155 209.145 470.144L216.616 459.738C220.282 454.646 227.405 453.479 232.503 457.139C237.605 460.802 238.776 467.933 235.113 473.035L230.833 478.997C230.788 479.057 230.744 479.119 230.701 479.181L227.628 483.462C223.967 488.562 216.837 489.734 211.733 486.07ZM392.435 421.903C389.232 427.308 382.225 429.101 376.824 425.898L359.485 415.627C359.477 415.623 359.47 415.618 359.462 415.614L305.762 383.8C302.197 381.689 297.597 382.866 295.487 386.429C293.376 389.993 294.552 394.594 298.116 396.704L351.84 428.532C351.84 428.532 351.84 428.532 351.841 428.533L351.848 428.537C357.248 431.742 359.037 438.742 355.837 444.145C354.285 446.764 351.807 448.622 348.858 449.376C345.909 450.13 342.842 449.693 340.223 448.14L326.09 439.768C326.078 439.761 326.068 439.754 326.056 439.747C326.049 439.743 326.041 439.738 326.034 439.734L286.473 416.297C282.908 414.185 278.309 415.363 276.198 418.926C274.087 422.49 275.263 427.091 278.827 429.201L318.389 452.639C318.397 452.644 318.405 452.649 318.412 452.653C321.03 454.204 322.889 456.682 323.643 459.631C324.398 462.58 323.958 465.647 322.407 468.266C320.856 470.885 318.378 472.743 315.428 473.497C312.48 474.252 309.412 473.813 306.794 472.262L285.583 459.696C285.569 459.688 285.556 459.679 285.543 459.671L270.031 450.482C266.469 448.373 261.868 449.548 259.756 453.113C257.646 456.676 258.822 461.277 262.387 463.388L277.898 472.577L277.919 472.589C283.31 475.797 285.094 482.79 281.896 488.19C278.691 493.596 271.687 495.387 266.283 492.187L247.717 481.188C255.696 469.413 252.879 453.299 241.255 444.953C237.702 442.403 233.725 440.865 229.669 440.281C231.463 435.846 232.013 430.992 231.218 426.151C230.076 419.195 226.293 413.1 220.567 408.989C214.558 404.676 207.334 403.256 200.568 404.455C199.541 397.661 195.886 391.27 189.876 386.956C184.149 382.845 177.167 381.211 170.209 382.352C164.399 383.306 159.191 386.102 155.237 390.334C153.395 386.888 150.758 383.801 147.376 381.372C138.413 374.938 126.747 374.942 117.929 380.475L112.611 377.336L163.639 291.203L167.407 293.424C173.744 297.179 180.813 299.084 187.935 299.084C192.848 299.084 197.786 298.177 202.525 296.345L217.957 290.379C227.182 286.815 232.136 286.646 241.45 291.177C235.529 297.566 232.001 306.091 232.001 315.294V350.889C232.001 360.052 239.45 367.512 248.607 367.519H248.63C257.965 367.519 266.742 363.885 273.346 357.286C277.354 353.281 280.27 348.474 281.945 343.228L386.409 405.09C386.754 405.295 387.11 405.468 387.474 405.612C387.774 405.86 388.096 406.088 388.442 406.293C393.844 409.495 395.637 416.498 392.435 421.903Z" fill="black"/>
<path d="M170.027 198.651H341.972C357.54 198.651 370.205 185.986 370.205 170.418V68.116C370.205 52.548 357.54 39.883 341.972 39.883H300.58V27.999C300.58 14.341 289.47 3.228 275.813 3.228H236.184C222.528 3.228 211.417 14.34 211.417 27.999V39.883H170.025C154.457 39.883 141.792 52.548 141.792 68.116V124.471C141.792 128.614 145.15 131.971 149.292 131.971C153.434 131.971 156.792 128.614 156.792 124.471V110.532C164.774 117.695 175.318 122.058 186.861 122.058H192.731V130.308C192.731 134.451 196.089 137.808 200.231 137.808C204.373 137.808 207.731 134.451 207.731 130.308V122.058H304.264V130.308C304.264 134.451 307.621 137.808 311.764 137.808C315.907 137.808 319.264 134.451 319.264 130.308V122.058H325.133C336.677 122.058 347.221 117.695 355.203 110.532V170.417C355.203 177.714 349.266 183.65 341.97 183.65H170.027C162.73 183.65 156.794 177.713 156.794 170.417V159.533C156.794 155.39 153.436 152.033 149.294 152.033C145.152 152.033 141.794 155.39 141.794 159.533V170.417C141.794 185.986 154.459 198.651 170.027 198.651ZM226.419 27.999C226.419 22.611 230.8 18.228 236.186 18.228H275.815C281.201 18.228 285.582 22.611 285.582 27.999V39.883H226.42L226.419 27.999ZM325.136 107.058H319.267V98.808C319.267 94.665 315.91 91.308 311.767 91.308C307.624 91.308 304.267 94.665 304.267 98.808V107.058H207.734V98.808C207.734 94.665 204.376 91.308 200.234 91.308C196.092 91.308 192.734 94.665 192.734 98.808V107.058H186.864C170.284 107.058 156.795 93.569 156.795 76.989V68.116C156.795 60.819 162.731 54.883 170.028 54.883H341.973C349.27 54.883 355.206 60.82 355.206 68.116V76.989C355.206 93.569 341.717 107.058 325.136 107.058Z" fill="#E65402"/>
</svg>
