<svg id="Layer_1" enable-background="new 0 0 512 512" viewBox="0 0 512 512" xmlns="http://www.w3.org/2000/svg"><path d="m190.985 319.297c-9.454-16.917-14.532-37.016-14.532-58.117 0-47.641 0-101.637 81.325-101.637 81.303 0 81.303 53.997 81.303 101.637 0 21.122-5.078 41.221-14.51 58.117h-20.142c9.188-12.711 15.021-28.489 16.938-45.586-7.846 1.959-15.937 2.949-24.177 2.949-30.181 0-58.106-13.371-76.896-36.303-7.335 9.677-16.395 17.949-26.753 24.411.639 20.504 6.792 39.603 17.577 54.529zm-53.337 71.744c-16.863 18.492-26.466 43.542-26.466 69.284v17.353h17.023 98.071v-10.444h-80.122c-4.695 0-8.506-3.811-8.506-8.517v-37.953zm134.619 58.297h-28.968v45.352h-137.578v16.81h304.124v-16.81h-137.578zm-45.991-8.517c0-4.695 3.812-8.506 8.506-8.506h45.99c4.706 0 8.517 3.811 8.517 8.506v9.39h71.605v-113.891h-206.223v113.891h71.605zm63.014 36.857h98.05 17.012v-17.353c0-25.763-9.581-50.813-26.434-69.284v29.755 37.921c0 4.705-3.811 8.517-8.506 8.517h-80.122zm-95.495-404.612c-.33-2.683-.5-5.398-.5-8.102 0-2.693.17-5.398.5-8.08l8.655-1.969c2.949-.671 5.323-2.864 6.239-5.749.83-2.661 1.906-5.259 3.194-7.729 1.405-2.683 1.267-5.909-.341-8.474l-4.727-7.484c3.311-4.269 7.176-8.134 11.445-11.466l7.484 4.727c2.555 1.618 5.77 1.757 8.453.373 2.491-1.288 5.142-2.385 7.857-3.268 2.864-.926 5.025-3.29 5.685-6.228l1.938-8.613c5.376-.671 10.849-.671 16.193 0l1.959 8.634c.671 2.928 2.832 5.28 5.685 6.207 2.725.884 5.355 1.98 7.803 3.258 2.683 1.395 5.909 1.267 8.474-.362l7.484-4.727c4.301 3.332 8.134 7.165 11.466 11.455l-4.737 7.484c-1.618 2.566-1.757 5.791-.352 8.485 1.278 2.449 2.364 5.068 3.258 7.804.916 2.853 3.279 5.004 6.207 5.674l8.634 1.969c.351 2.715.522 5.419.522 8.08 0 2.672-.17 5.376-.522 8.102l-8.623 1.948c-2.927.66-5.302 2.821-6.217 5.674-.905 2.789-2.001 5.419-3.258 7.835-1.405 2.683-1.267 5.919.352 8.474l4.727 7.484c-3.322 4.269-7.197 8.133-11.455 11.444l-7.452-4.716c-2.555-1.608-5.77-1.746-8.442-.362-2.502 1.288-5.153 2.385-7.867 3.268-2.853.926-5.014 3.279-5.685 6.207l-1.959 8.623c-5.344.671-10.816.671-16.193 0l-1.938-8.613c-.66-2.928-2.821-5.291-5.685-6.217-2.715-.884-5.366-1.98-7.857-3.268-2.683-1.384-5.887-1.246-8.442.362l-7.495 4.716c-4.259-3.311-8.123-7.175-11.445-11.444l4.727-7.495c1.608-2.555 1.746-5.781.341-8.464-1.267-2.449-2.342-5.057-3.194-7.761-.915-2.896-3.3-5.089-6.26-5.759zm38.86-8.104c0 13.852 11.272 25.124 25.124 25.124 13.839 0 25.1-11.272 25.1-25.124 0-13.84-11.26-25.087-25.1-25.087-13.852 0-25.124 11.247-25.124 25.087zm-132.853 238.877c-1.49 12.264-12.467 21.803-25.742 21.803-13.286 0-24.284-9.539-25.774-21.803-8.198-1.384-14.447-8.304-14.447-16.586v-9.379c-4.578-2.715-7.644-7.665-7.644-13.318 0-6.643-2.736-10.22-7.995-16.48-6.92-8.24-16.384-19.514-16.384-43.446 0-39.071 32.406-70.86 72.244-70.86 39.816 0 72.212 31.789 72.212 70.86 0 23.932-9.465 35.206-16.385 43.446-5.248 6.26-7.995 9.837-7.995 16.48 0 5.653-3.066 10.614-7.633 13.329v9.368c0 8.293-6.249 15.202-14.457 16.586zm5.099-40.763c.458-12.243 6.558-19.514 11.956-25.944 6.377-7.591 12.403-14.766 12.403-32.502 0-29.692-24.762-53.837-55.199-53.837-30.448 0-55.221 24.145-55.221 53.837 0 17.736 6.015 24.912 12.392 32.502 5.408 6.43 11.508 13.701 11.966 25.944zm405.283-85.403v122.163c0 4.695-3.801 8.506-8.506 8.506h-120.47c-4.695 0-8.506-3.811-8.506-8.506v-140.261c0-4.706 3.811-8.517 8.506-8.517h102.329c2.257 0 4.418.894 6.015 2.491l18.141 18.109c1.597 1.597 2.491 3.758 2.491 6.015zm-32.811 19.153c-3.492-3.151-8.868-2.864-12.019.628l-36.952 41.051-10.476-13.478c-2.885-3.715-8.229-4.386-11.945-1.501-3.705 2.885-4.375 8.229-1.49 11.945l16.714 21.516c1.544 1.991 3.896 3.194 6.409 3.279.106.011.213.011.309.011 2.406 0 4.706-1.022 6.324-2.821l43.766-48.61c3.139-3.504 2.852-8.88-.64-12.02z"/></svg>