<svg width="512" height="512" viewBox="0 0 512 512" fill="none" xmlns="http://www.w3.org/2000/svg">
<g clip-path="url(#clip0_0_1)">
<path d="M512.005 168.155C512.005 132.852 485.205 103.701 450.884 99.952V77.093C450.876 75.148 450.103 73.239 448.742 71.846L380.598 2.25501C379.197 0.827014 377.238 0.00801416 375.24 0.00201416H193.78C189.637 0.00201416 186.28 3.35901 186.28 7.50201C186.28 11.645 189.637 15.002 193.78 15.002H367.739V56.688C367.739 72.075 380.258 84.593 395.644 84.593H435.883V99.951C401.561 103.7 374.761 132.852 374.761 168.154C374.761 176.662 376.657 186.154 380.396 196.367C381.821 200.255 386.123 202.257 390.018 200.831C393.907 199.406 395.906 195.099 394.482 191.21C391.349 182.654 389.761 174.898 389.761 168.154C389.761 138.592 413.809 114.54 443.37 114.533C443.374 114.533 443.379 114.534 443.383 114.534C443.387 114.534 443.392 114.533 443.396 114.533C472.956 114.54 497.004 138.592 497.004 168.154C497.004 196.721 474.927 225.877 467.94 234.388H461.125L480.726 176.753C482.019 172.95 480.087 168.805 476.345 167.349C472.602 165.891 468.375 167.643 466.76 171.32C465.577 174.008 463.698 176.005 461.856 176.53C461.404 176.657 460.033 177.048 457.774 175.497C453.045 172.252 450.08 166.631 450.065 166.602C448.79 164.101 446.216 162.538 443.409 162.525C443.398 162.525 443.388 162.525 443.376 162.525C440.582 162.525 438.01 164.093 436.718 166.573C436.688 166.63 433.723 172.252 428.991 175.498C427.549 176.488 426.379 176.894 425.516 176.703C424.904 176.567 422.668 175.722 419.598 170.524C417.643 167.214 413.5 165.92 410.01 167.523C406.517 169.128 404.803 173.114 406.04 176.753L425.64 234.388H419.015C416.866 231.56 413.327 226.711 409.456 220.627C407.232 217.132 402.597 216.1 399.102 218.324C395.607 220.547 394.576 225.182 396.799 228.678C401.455 235.998 405.625 241.606 407.856 244.492V262.246C407.856 270.044 414.2 276.388 421.998 276.388H435.883V484.096C435.883 491.212 430.094 497.001 422.978 497.001H104.148V487.906C109.763 485.637 115.076 482.563 119.864 478.814L129.314 484.27C135.617 487.909 143.707 485.742 147.346 479.439L158.272 460.514C161.911 454.211 159.743 446.122 153.44 442.484L143.998 437.032C144.428 434.013 144.644 430.976 144.644 427.954C144.644 424.932 144.427 421.895 143.998 418.877L153.44 413.425C159.742 409.786 161.911 401.698 158.272 395.393L147.346 376.47C143.706 370.167 135.617 368.001 129.314 371.638L119.863 377.095C115.076 373.346 109.763 370.272 104.148 368.003V357.11C104.148 349.832 98.226 343.91 90.948 343.91H70.897V27.908C70.897 20.792 76.686 15.003 83.802 15.003H155.811C159.954 15.003 163.311 11.646 163.311 7.50301C163.311 3.36001 159.954 0.00301416 155.811 0.00301416H83.803C68.416 0.00301416 55.898 12.522 55.898 27.908V368.005C50.283 370.275 44.97 373.348 40.183 377.097L30.73 371.639C24.427 368.001 16.338 370.17 12.7 376.472L1.774 395.394C0.0110005 398.448 -0.456999 402.004 0.455001 405.411C1.367 408.816 3.552 411.664 6.605 413.427L16.047 418.879C15.617 421.898 15.401 424.934 15.401 427.956C15.401 430.978 15.618 434.016 16.047 437.034L6.605 442.486C3.551 444.249 1.367 447.095 0.455001 450.502C-0.456999 453.909 0.0120006 457.466 1.774 460.518L12.699 479.442C16.338 485.746 24.426 487.915 30.731 484.273L40.181 478.817C44.969 482.566 50.282 485.639 55.897 487.909V498.804C55.897 506.082 61.819 512.004 69.097 512.004H422.978C438.365 512.004 450.883 499.485 450.883 484.099V276.389H464.767C472.565 276.389 478.909 270.045 478.909 262.247V244.679C486.328 235.847 512.005 202.77 512.005 168.155ZM382.739 56.688V25.881L425.542 69.593H395.644C388.528 69.593 382.739 63.804 382.739 56.688ZM70.897 497.002V482.611C70.897 479.308 68.737 476.395 65.578 475.435C58.393 473.251 51.674 469.365 46.144 464.193C43.734 461.938 40.13 461.525 37.271 463.175L24.79 470.381L15.665 454.574L28.138 447.373C30.994 445.724 32.439 442.401 31.695 439.187C30.838 435.477 30.402 431.698 30.402 427.954C30.402 424.211 30.838 420.432 31.695 416.722C32.439 413.508 30.995 410.186 28.138 408.536L15.664 401.334L24.79 385.528L37.271 392.734C40.129 394.384 43.733 393.971 46.144 391.716C51.673 386.544 58.393 382.657 65.578 380.474C68.737 379.514 70.897 376.601 70.897 373.298V358.91H89.148V373.3C89.148 376.603 91.308 379.516 94.467 380.476C101.651 382.659 108.37 386.546 113.901 391.718C116.313 393.973 119.915 394.387 122.774 392.736L135.255 385.53L144.381 401.336L131.907 408.538C129.051 410.187 127.606 413.51 128.35 416.724C129.207 420.434 129.643 424.213 129.643 427.956C129.643 431.7 129.207 435.479 128.35 439.189C127.606 442.403 129.05 445.725 131.907 447.375L144.381 454.577L135.255 470.383L122.774 463.177C119.912 461.526 116.311 461.939 113.901 464.195C108.371 469.367 101.651 473.255 94.467 475.437C91.308 476.397 89.148 479.31 89.148 482.613V497.004H70.897V497.002ZM426.973 191.715C429.979 191.535 433.58 190.542 437.479 187.866C439.744 186.311 441.715 184.519 443.384 182.735C445.052 184.519 447.024 186.311 449.288 187.865C452.603 190.141 456.21 191.413 459.824 191.628L445.282 234.389H441.485L426.973 191.715ZM463.909 261.389H422.857V249.389H463.909V261.389Z" fill="black"/>
<path d="M104.148 427.956C104.148 414.653 93.326 403.831 80.023 403.831C66.72 403.831 55.897 414.653 55.897 427.956C55.897 441.259 66.72 452.082 80.023 452.082C93.326 452.082 104.148 441.258 104.148 427.956ZM80.023 437.082C74.991 437.082 70.897 432.988 70.897 427.956C70.897 422.925 74.991 418.831 80.023 418.831C85.054 418.831 89.148 422.925 89.148 427.956C89.148 432.988 85.055 437.082 80.023 437.082Z" fill="black"/>
<path d="M184.586 214.36C176.389 214.36 169.72 221.029 169.72 229.226V253.193H132.359C123.926 253.193 117.066 260.053 117.066 268.485V312.188C117.066 320.621 123.926 327.481 132.359 327.481H222.082C230.515 327.481 237.375 320.621 237.375 312.188V268.485C237.375 260.053 230.515 253.193 222.082 253.193H184.72V229.36H322.062V253.193H284.7C276.268 253.193 269.408 260.053 269.408 268.485V312.188C269.408 320.621 276.268 327.481 284.7 327.481H374.424C382.856 327.481 389.716 320.621 389.716 312.188V268.485C389.716 260.053 382.856 253.193 374.424 253.193H337.063V229.226C337.063 221.029 330.394 214.36 322.196 214.36H260.892V185.428H276.372C280.515 185.428 283.872 182.071 283.872 177.928C283.872 173.785 280.515 170.428 276.372 170.428H185.013C184.852 170.428 184.721 170.296 184.721 170.135V106.526C184.721 106.365 184.852 106.233 185.013 106.233H321.77C321.931 106.233 322.063 106.365 322.063 106.526V170.135C322.063 170.296 321.931 170.428 321.77 170.428H311.287C307.144 170.428 303.787 173.785 303.787 177.928C303.787 182.071 307.144 185.428 311.287 185.428H321.77C330.203 185.428 337.063 178.568 337.063 170.135V106.526C337.063 98.093 330.203 91.233 321.77 91.233H185.012C176.58 91.233 169.72 98.093 169.72 106.526V170.135C169.72 178.568 176.58 185.428 185.012 185.428H245.891V214.36H184.586ZM222.374 268.485V312.188C222.374 312.349 222.242 312.481 222.081 312.481H132.358C132.197 312.481 132.065 312.349 132.065 312.188V268.485C132.065 268.324 132.197 268.193 132.358 268.193H222.081C222.242 268.193 222.374 268.324 222.374 268.485ZM374.715 268.485V312.188C374.715 312.349 374.584 312.481 374.423 312.481H284.699C284.538 312.481 284.407 312.349 284.407 312.188V268.485C284.407 268.324 284.538 268.193 284.699 268.193H374.423C374.584 268.193 374.715 268.324 374.715 268.485Z" fill="#E65402"/>
<path d="M377.157 372.85H198.764C194.621 372.85 191.264 376.207 191.264 380.35C191.264 384.493 194.621 387.85 198.764 387.85H377.158C381.301 387.85 384.658 384.493 384.658 380.35C384.658 376.207 381.3 372.85 377.157 372.85Z" fill="#E65402"/>
<path d="M384.657 415.182C384.657 411.039 381.3 407.682 377.157 407.682H276.186C272.043 407.682 268.686 411.039 268.686 415.182C268.686 419.325 272.043 422.682 276.186 422.682H377.158C381.3 422.682 384.657 419.325 384.657 415.182Z" fill="#E65402"/>
<path d="M198.764 422.682H240.246C244.389 422.682 247.746 419.325 247.746 415.182C247.746 411.039 244.389 407.682 240.246 407.682H198.764C194.621 407.682 191.264 411.039 191.264 415.182C191.264 419.325 194.621 422.682 198.764 422.682Z" fill="#E65402"/>
<path d="M198.764 457.514H317.667C321.81 457.514 325.167 454.157 325.167 450.014C325.167 445.871 321.81 442.514 317.667 442.514H198.764C194.621 442.514 191.264 445.871 191.264 450.014C191.264 454.157 194.621 457.514 198.764 457.514Z" fill="#E65402"/>
</g>
<defs>
<clipPath id="clip0_0_1">
<rect width="512.005" height="512.005" fill="white"/>
</clipPath>
</defs>
</svg>
