<svg xmlns="http://www.w3.org/2000/svg" xml:space="preserve" id="sound" x="0" y="0" enable-background="new 0 0 48 48" version="1.1" viewBox="0 0 48 48">
  <g>
    <g>
      <path fill="#e8aa3d" d="M23.46,32.98l-0.87-1.22c0.28-0.2,0.45-0.43,0.53-0.75c0.17-0.66-0.17-1.11-0.8-1.85
			c-0.66-0.78-1.49-1.74-1.11-3.2c0.37-1.45,1.56-1.91,2.52-2.29c0.91-0.36,1.44-0.59,1.61-1.27c0.11-0.41,0.03-0.74-0.26-1.17
			l1.24-0.84c0.53,0.79,0.69,1.57,0.48,2.39c-0.37,1.45-1.56,1.91-2.52,2.29c-0.91,0.36-1.44,0.59-1.61,1.26
			c-0.17,0.66,0.17,1.11,0.8,1.85c0.66,0.78,1.49,1.74,1.11,3.2C24.4,32.05,24.04,32.58,23.46,32.98z"></path>
    </g>
    <g>
      <path fill="#b3c7e5" d="M1.41,10.99L1.09,9.53C1.42,9.45,1.66,9.3,1.86,9.04C2.28,8.5,2.13,7.95,1.84,7.03
			C1.53,6.05,1.15,4.84,2.05,3.65c0.9-1.19,2.18-1.16,3.21-1.13c0.99,0.03,1.56,0.01,1.98-0.54c0.25-0.33,0.31-0.67,0.21-1.19
			L8.92,0.5c0.12,0.59,0.2,1.49-0.49,2.39c-0.9,1.19-2.18,1.15-3.21,1.13C4.25,3.99,3.67,4.01,3.25,4.56
			C2.83,5.11,2.98,5.65,3.27,6.57c0.31,0.97,0.69,2.18-0.21,3.38C2.64,10.5,2.1,10.84,1.41,10.99z"></path>
    </g>
    <g>
      <path fill="#f277c6" d="M20.67,10.99l-0.33-1.46c0.34-0.07,0.58-0.22,0.78-0.49c0.42-0.54,0.27-1.09-0.02-2.01
			c-0.31-0.97-0.69-2.18,0.21-3.38c0.9-1.19,2.18-1.16,3.21-1.13c0.98,0.03,1.56,0.01,1.98-0.54c0.25-0.33,0.31-0.67,0.21-1.18
			l1.47-0.29c0.19,0.93,0.03,1.71-0.49,2.39c-0.9,1.19-2.18,1.15-3.21,1.13c-0.98-0.03-1.56-0.01-1.98,0.54
			c-0.42,0.55-0.27,1.09,0.02,2.01c0.31,0.97,0.69,2.19-0.21,3.38C21.89,10.5,21.35,10.84,20.67,10.99z"></path>
    </g>
    <g>
      <path fill="#f43858" d="M40.63,9.53c-0.52-0.84-0.71-1.72-0.57-2.69c0.31-2.13,1.94-2.97,3.37-3.71c1.27-0.66,2.37-1.23,2.57-2.6
			l1.48,0.22c-0.31,2.13-1.94,2.97-3.37,3.71c-1.27,0.66-2.37,1.23-2.57,2.6c-0.09,0.61,0.02,1.14,0.35,1.67L40.63,9.53z"></path>
    </g>
    <g>
      <rect width="3.58" height="1.5" x="10.76" y="7.75" fill="#e8aa3d" transform="rotate(-68.309 12.549 8.505)"></rect>
    </g>
    <g>
      <rect width="3.58" height="1.5" x="24.23" y="11.87" fill="#ef7959" transform="rotate(-68.309 26.02 12.616)"></rect>
    </g>
    <g>
      <rect width="3.58" height="1.5" x="32.3" y="5.17" fill="#049e79" transform="rotate(-68.309 34.093 5.916)"></rect>
    </g>
    <g>
      <rect width="3.58" height="1.5" x="21.09" y="38.77" fill="#049e79" transform="rotate(-68.309 22.881 39.515)"></rect>
    </g>
    <g>
      <g>
        <path fill="#434851" d="M45.86,13.82H30.33c-0.9,0-1.64,0.73-1.64,1.64v30.4c0,0.9,0.73,1.64,1.64,1.64h15.53
				c0.9,0,1.64-0.73,1.64-1.64v-30.4C47.5,14.56,46.77,13.82,45.86,13.82z"></path>
      </g>
      <g>
        <circle cx="38.1" cy="35.91" r="6.31" fill="#f4906e"></circle>
      </g>
      <g>
        <path fill="#434851" d="M38.1,33.49c-1.34,0-2.42,1.08-2.42,2.42c0,1.34,1.08,2.42,2.42,2.42c1.34,0,2.42-1.08,2.42-2.42
				C40.52,34.57,39.43,33.49,38.1,33.49z"></path>
      </g>
      <g>
        <circle cx="38.1" cy="22.82" r="3.72" fill="#f4906e"></circle>
      </g>
      <g>
        <rect width="1.57" height="1.5" x="31.14" y="16.16" fill="#353b44"></rect>
      </g>
      <g>
        <rect width="1.57" height="1.5" x="43.48" y="16.16" fill="#353b44"></rect>
      </g>
      <g>
        <rect width="1.57" height="1.5" x="31.14" y="43.66" fill="#353b44"></rect>
      </g>
      <g>
        <rect width="1.57" height="1.5" x="43.48" y="43.66" fill="#353b44"></rect>
      </g>
    </g>
    <g>
      <g>
        <path fill="#434851" d="M17.67,13.82H2.14c-0.9,0-1.64,0.73-1.64,1.64v30.4c0,0.9,0.73,1.64,1.64,1.64h15.53
				c0.9,0,1.64-0.73,1.64-1.64v-30.4C19.31,14.56,18.57,13.82,17.67,13.82z"></path>
      </g>
      <g>
        <circle cx="9.9" cy="35.91" r="6.31" fill="#f4906e"></circle>
      </g>
      <g>
        <path fill="#434851" d="M9.9,33.49c-1.34,0-2.42,1.08-2.42,2.42c0,1.34,1.08,2.42,2.42,2.42c1.34,0,2.42-1.08,2.42-2.42
				C12.33,34.57,11.24,33.49,9.9,33.49z"></path>
      </g>
      <g>
        <circle cx="9.9" cy="22.82" r="3.72" fill="#f4906e"></circle>
      </g>
      <g>
        <rect width="1.57" height="1.5" x="2.95" y="16.16" fill="#353b44"></rect>
      </g>
      <g>
        <rect width="1.57" height="1.5" x="15.29" y="16.16" fill="#353b44"></rect>
      </g>
      <g>
        <rect width="1.57" height="1.5" x="2.95" y="43.66" fill="#353b44"></rect>
      </g>
      <g>
        <rect width="1.57" height="1.5" x="15.29" y="43.66" fill="#353b44"></rect>
      </g>
    </g>
  </g>
</svg>
