<svg width="50" height="50" viewBox="0 0 50 50" fill="none" xmlns="http://www.w3.org/2000/svg">
<g clip-path="url(#clip0_2_2)">
<path d="M35.9375 2.34375H37.5C37.9688 2.34375 38.2812 2.03125 38.2812 1.5625C38.2812 1.09375 37.9688 0.78125 37.5 0.78125H35.9375C35.4687 0.78125 35.1562 1.09375 35.1562 1.5625C35.1562 2.03125 35.4687 2.34375 35.9375 2.34375Z" fill="black"/>
<path d="M31.25 28.9062C31.7188 28.9062 32.0312 28.5938 32.0312 28.125C32.0312 27.6562 31.7188 27.3438 31.25 27.3438H29.6875C29.2187 27.3438 28.9062 27.6562 28.9062 28.125C28.9062 28.5938 29.2187 28.9062 29.6875 28.9062H31.25Z" fill="#E65402"/>
<path d="M27.5781 36.4844C27.9688 36.875 28.5156 36.6406 28.6719 36.4844L31.7969 33.3594C32.1094 33.0469 32.1094 32.5781 31.7969 32.2656C31.4844 31.9531 31.0156 31.9531 30.7031 32.2656L27.5781 35.3906C27.2656 35.7031 27.2656 36.1719 27.5781 36.4844Z" fill="#E65402"/>
<path d="M27.5781 41.1719C27.8906 41.5625 28.5156 41.3281 28.6719 41.1719L36.4844 33.3594C36.7969 33.0469 36.7969 32.5781 36.4844 32.2656C36.1719 31.9531 35.7031 31.9531 35.3906 32.2656L27.5781 40.0781C27.2656 40.3906 27.2656 40.8594 27.5781 41.1719Z" fill="#E65402"/>
<path d="M10.9375 27.3438C10.4687 27.3438 10.1562 27.6562 10.1562 28.125V29.6875C10.1562 30.1563 10.4687 30.4688 10.9375 30.4688C11.4063 30.4688 11.7188 30.1563 11.7188 29.6875V28.9062H12.5C12.9688 28.9062 13.2812 28.5938 13.2812 28.125C13.2812 27.6562 12.9688 27.3438 12.5 27.3438H10.9375Z" fill="#E65402"/>
<path d="M15.625 27.3438C15.1562 27.3438 14.8438 27.6562 14.8438 28.125C14.8438 28.5938 15.1562 28.9062 15.625 28.9062H17.1875C17.6563 28.9062 17.9688 28.5938 17.9688 28.125C17.9688 27.6562 17.6563 27.3438 17.1875 27.3438H15.625Z" fill="#E65402"/>
<path d="M9.375 3.90625C8.90625 3.90625 8.59375 4.21875 8.59375 4.6875V6.25C8.59375 6.71875 8.90625 7.03125 9.375 7.03125C9.84375 7.03125 10.1562 6.71875 10.1562 6.25V5.46875H10.9375C11.4063 5.46875 11.7188 5.15625 11.7188 4.6875C11.7188 4.21875 11.4063 3.90625 10.9375 3.90625H9.375Z" fill="#E65402"/>
<path d="M39.0625 8.59375H40.625C41.0938 8.59375 41.4062 8.28125 41.4062 7.8125V6.25C41.4062 5.78125 41.0938 5.46875 40.625 5.46875C40.1562 5.46875 39.8438 5.78125 39.8438 6.25V7.03125H39.0625C38.5937 7.03125 38.2812 7.34375 38.2812 7.8125C38.2812 8.28125 38.5937 8.59375 39.0625 8.59375Z" fill="#E65402"/>
<path d="M34.375 8.59375H35.9375C36.4063 8.59375 36.7188 8.28125 36.7188 7.8125C36.7188 7.34375 36.4063 7.03125 35.9375 7.03125H34.375C33.9062 7.03125 33.5938 7.34375 33.5938 7.8125C33.5938 8.28125 33.9062 8.59375 34.375 8.59375Z" fill="#E65402"/>
<path d="M14.0625 3.90625C13.5937 3.90625 13.2812 4.21875 13.2812 4.6875C13.2812 5.15625 13.5937 5.46875 14.0625 5.46875H15.625C16.0938 5.46875 16.4062 5.15625 16.4062 4.6875C16.4062 4.21875 16.0938 3.90625 15.625 3.90625H14.0625Z" fill="#E65402"/>
<path d="M47.7344 44.5312L47.6562 42.7344C49.1406 41.6406 49.2188 37.3438 49.2188 36.7188C49.2188 36.25 48.9063 35.9375 48.4375 35.9375C47.9687 35.9375 47.6562 36.25 47.6562 36.7188C47.6562 39.1406 47.1875 40.7812 46.875 41.25C46.5625 40.7031 46.0938 39.1406 46.0938 36.7188C46.0938 34.2969 46.5625 32.7344 46.875 32.1875C47.0313 32.5 47.3437 33.2031 47.5 34.5313C47.5781 34.9219 47.9688 35.2344 48.3594 35.2344C48.75 35.1562 49.0625 34.7656 49.0625 34.375C48.8281 32.6562 48.2812 30.5469 46.875 30.5469C44.6094 30.5469 44.5312 36.1719 44.5312 36.7969C44.5312 37.3437 44.6094 41.6406 46.0938 42.8125V44.5312H46.0156C45.2344 44.5312 44.5312 45.2344 44.5312 46.0156V47.6562H42.9688V25.7812H45.3125C46.6406 25.7812 47.6562 24.7656 47.6562 23.4375V21.0938C47.6562 20.625 47.5781 19.8437 47.2656 19.375L46.0156 16.875C45.8594 16.4844 45.3906 16.3281 45 16.5625C44.6094 16.7969 44.4531 17.1875 44.6875 17.5781L45.9375 20.1562C46.0156 20.3125 46.0938 20.7031 46.0938 21.0938V23.4375C46.0938 23.9063 45.7813 24.2188 45.3125 24.2188H42.1875C41.7187 24.2188 41.4062 23.9063 41.4062 23.4375V21.1719C41.4062 20.5469 41.25 19.8438 40.9375 19.2969L38.8281 14.9219H42.8125C43.125 14.9219 43.3594 15.0781 43.5156 15.3125C43.6719 15.7031 44.1406 15.8594 44.5312 15.7031C44.9219 15.5469 45.0781 15.0781 44.9219 14.6875C44.5312 13.8281 43.75 13.3594 42.8125 13.3594H39.8438V11.7188H42.1875C43.5156 11.7188 44.5312 10.7031 44.5312 9.375V3.125C44.5312 1.79687 43.5156 0.78125 42.1875 0.78125H40.625C40.1562 0.78125 39.8438 1.09375 39.8438 1.5625C39.8438 2.03125 40.1562 2.34375 40.625 2.34375H42.1875C42.6563 2.34375 42.9688 2.65625 42.9688 3.125V9.375C42.9688 9.84375 42.6563 10.1562 42.1875 10.1562H7.8125C7.34375 10.1562 7.03125 9.84375 7.03125 9.375V3.125C7.03125 2.65625 7.34375 2.34375 7.8125 2.34375H32.3438C32.8125 2.34375 33.125 2.03125 33.125 1.5625C33.125 1.09375 32.8125 0.78125 32.3438 0.78125H7.8125C6.48437 0.78125 5.46875 1.79687 5.46875 3.125V9.375C5.46875 10.7031 6.48437 11.7188 7.8125 11.7188H10.1562V13.3594H7.1875C6.32812 13.3594 5.54688 13.8281 5.07812 14.6875L2.73438 19.2969C2.5 19.7656 2.34375 20.3125 2.34375 21.0938V23.4375C2.34375 24.7656 3.35937 25.7812 4.6875 25.7812H7.03125V47.6562H5.46875V46.0938C5.46875 45.2344 4.76563 44.5312 3.90625 44.5312V42.7344C5.39062 41.6406 5.46875 37.3438 5.46875 36.7188C5.46875 36.0937 5.39063 30.4688 3.125 30.4688C0.859375 30.4688 0.78125 36.0937 0.78125 36.7188C0.78125 37.1875 1.09375 37.5 1.5625 37.5C2.03125 37.5 2.34375 37.1875 2.34375 36.7188C2.34375 34.2969 2.8125 32.6563 3.125 32.1875C3.4375 32.7344 3.90625 34.2969 3.90625 36.7188C3.90625 39.1406 3.4375 40.7031 3.125 41.25C2.96875 40.9375 2.65625 40.3125 2.5 39.1406C2.42188 38.75 2.03125 38.4375 1.64062 38.5156C1.25 38.5937 0.9375 38.9844 1.01562 39.375C1.17187 40.7031 1.5625 42.1094 2.34375 42.7344V44.5312C1.48437 44.5312 0.78125 45.2344 0.78125 46.0938V48.4375C0.78125 48.9063 1.09375 49.2188 1.5625 49.2188H23.4375C23.9063 49.2188 24.2188 48.9063 24.2188 48.4375C24.2188 47.9687 23.9063 47.6562 23.4375 47.6562H19.5312V35.8594C19.5312 34.6094 18.5156 33.5938 17.2656 33.5938H12.4219C11.1719 33.5938 10.1562 34.6094 10.1562 35.8594V47.6562H8.59375V25.625C8.90625 25.5469 9.14062 25.3906 9.375 25.1563C9.76562 25.5469 10.3125 25.7812 10.9375 25.7812H14.0625C14.6875 25.7812 15.2344 25.5469 15.625 25.1563C16.0156 25.5469 16.5625 25.7812 17.1875 25.7812H20.3125C20.9375 25.7812 21.4844 25.5469 21.875 25.1563C22.2656 25.5469 22.8125 25.7812 23.4375 25.7812H26.5625C27.1875 25.7812 27.7344 25.5469 28.125 25.1563C28.5156 25.5469 29.0625 25.7812 29.6875 25.7812H32.8125C33.4375 25.7812 33.9844 25.5469 34.375 25.1563C34.7656 25.5469 35.3125 25.7812 35.9375 25.7812H39.0625C39.6875 25.7812 40.2344 25.5469 40.625 25.1563C40.8594 25.3906 41.0937 25.5469 41.4062 25.625V27.3438H34.375C33.9062 27.3438 33.5938 27.6562 33.5938 28.125C33.5938 28.5938 33.9062 28.9062 34.375 28.9062H41.4062V44.5312H23.3594C23.0469 44.5312 22.6562 44.2969 22.6562 43.8281V29.6094C22.6562 29.2969 22.8906 28.9062 23.3594 28.9062H26.5625C27.0313 28.9062 27.3438 28.5938 27.3438 28.125C27.3438 27.6562 27.0313 27.3438 26.5625 27.3438H23.3594C22.1094 27.3438 21.0938 28.3594 21.0938 29.6094V43.8281C21.0938 45.0781 22.1094 46.0938 23.3594 46.0938H41.4062V47.6562H26.6406C26.1719 47.6562 25.8594 47.9687 25.8594 48.4375C25.8594 48.9063 26.1719 49.2188 26.6406 49.2188H48.4375C48.9063 49.2188 49.2188 48.9063 49.2188 48.4375V46.0156C49.2188 45.2344 48.5156 44.5312 47.7344 44.5312ZM3.90625 47.6562H2.34375V46.0938H3.90625V47.6562ZM11.7188 35.8594C11.7188 35.3906 12.1094 35.1562 12.4219 35.1562H17.2656C17.7344 35.1562 17.9688 35.5469 17.9688 35.8594V47.6562H11.7188V35.8594ZM36.7188 13.3594V11.7188H38.2812V13.3594M14.8438 13.3594V11.7188H35.1562V13.3594M11.7188 13.3594V11.7188H13.2812V13.3594M15.3125 19.2969C15 19.9219 14.8438 20.5469 14.8438 21.1719V23.4375C14.8438 23.9063 14.5313 24.2188 14.0625 24.2188H10.9375C10.4687 24.2188 10.1562 23.9063 10.1562 23.4375V21.1719C10.1562 20.7813 10.2344 20.3906 10.4687 19.9219L10.8594 19.1406C11.0156 18.75 10.8594 18.2813 10.4687 18.125C10.0781 17.9688 9.60938 18.125 9.45313 18.5156L9.0625 19.2969C8.75 19.9219 8.59375 20.5469 8.59375 21.1719V23.4375C8.59375 23.9063 8.28125 24.2188 7.8125 24.2188H4.6875C4.21875 24.2188 3.90625 23.9063 3.90625 23.4375V21.0938C3.90625 20.625 3.98438 20.3125 4.14063 20L6.48438 15.3125C6.71875 14.9219 7.03125 14.8438 7.1875 14.8438H11.1719L10.625 16.0156C10.4688 16.4062 10.625 16.875 11.0156 17.0312C11.4844 17.2656 11.9531 16.9531 12.0312 16.6406L12.9688 14.7656H17.5L15.3125 19.2969ZM21.1719 19.7656C21.0938 20.1562 21.0938 20.4688 21.0938 20.7813V23.4375C21.0938 23.9063 20.7813 24.2188 20.3125 24.2188H17.1875C16.7187 24.2188 16.4062 23.9063 16.4062 23.4375V21.1719C16.4062 20.7813 16.4844 20.3906 16.7187 19.9219L19.2188 14.9219H22.4219L21.1719 19.7656ZM27.3438 23.4375C27.3438 23.9063 27.0313 24.2188 26.5625 24.2188H23.4375C22.9687 24.2188 22.6562 23.9063 22.6562 23.4375V20.7813C22.6562 20.4688 22.6563 20.3125 22.7344 20.0781L24.0625 14.9219H26.0156L27.3438 20.0781V20.7813V23.4375ZM33.5938 23.4375C33.5938 23.9063 33.2813 24.2188 32.8125 24.2188H29.6875C29.2187 24.2188 28.9062 23.9063 28.9062 23.4375V20.7813C28.9062 20.4688 28.9063 20.1562 28.8281 19.7656L27.5781 14.9219H30.7813L33.2812 19.9219C33.5156 20.3125 33.5938 20.7813 33.5938 21.1719V23.4375ZM39.8438 23.4375C39.8438 23.9063 39.5313 24.2188 39.0625 24.2188H35.9375C35.4687 24.2188 35.1562 23.9063 35.1562 23.4375V21.1719C35.1562 20.5469 35 19.8438 34.6875 19.2969L32.5781 14.9219H37.1094L39.6094 19.9219C39.8438 20.3125 39.9219 20.7813 39.9219 21.1719V23.4375H39.8438ZM47.6562 47.6562H46.0938V46.0938H47.6562V47.6562Z" fill="black"/>
<path d="M15.625 42.9688C16.0565 42.9688 16.4062 42.619 16.4062 42.1875C16.4062 41.756 16.0565 41.4062 15.625 41.4062C15.1935 41.4062 14.8438 41.756 14.8438 42.1875C14.8438 42.619 15.1935 42.9688 15.625 42.9688Z" fill="#E65402"/>
</g>
<defs>
<clipPath id="clip0_2_2">
<rect width="50" height="50" fill="white"/>
</clipPath>
</defs>
</svg>
