<svg width="151" height="150" viewBox="0 0 151 150" fill="none" xmlns="http://www.w3.org/2000/svg">
<path d="M88.2821 150H15.0057C13.7809 150 12.6477 149.521 12.0223 148.74C11.396 147.958 11.3717 146.99 11.9559 146.192C14.7844 142.331 17.1074 137.605 18.8593 132.148C23.9075 116.421 20.0347 98.7903 7.95416 82.5093C1.01664 73.1607 -1.40108 57.87 2.20327 46.1497C8.00714 27.281 26.9533 18.327 37.7296 14.6707C39.4774 14.0787 41.5333 14.6483 42.3293 15.943C43.1267 17.2377 42.3594 18.766 40.6156 19.358C31.004 22.62 14.1123 30.5873 8.97288 47.2973C5.76183 57.7373 7.938 71.8057 14.0346 80.0207C26.952 97.4293 31.0637 116.367 25.6127 133.344C24.2528 137.581 22.5561 141.433 20.5532 144.845H84.8106V123.263C84.8106 121.839 86.3645 120.686 88.2821 120.686H110.926C120.22 120.686 128.189 115.879 128.324 110.189C128.419 106.263 128.891 102.339 129.728 98.5273C130.639 94.3853 132.243 90.1753 134.497 86.0153C135.015 85.059 136.254 84.4227 137.643 84.4007L142.01 84.332C142.95 84.332 143.332 83.9273 143.456 83.7523C143.613 83.5326 143.728 83.1887 143.38 82.808L133.836 72.4C131.246 69.577 130.053 66.2407 130.476 63.009C130.643 61.7443 130.727 60.49 130.727 59.284C130.727 44.0077 119.756 30.1223 101.38 22.143C99.7242 21.4243 99.167 19.8457 100.135 18.6173C101.103 17.389 103.231 16.9743 104.884 17.6933C125.414 26.6073 137.67 42.1553 137.67 59.2843C137.67 60.6577 137.575 62.079 137.387 63.5087C137.121 65.5423 137.898 67.6707 139.575 69.501L149.119 79.909C150.83 81.7753 151.012 84.1737 149.593 86.163C148.131 88.2147 145.254 89.4873 142.084 89.4873L140.118 89.5173C138.483 92.8073 137.295 96.1117 136.582 99.3573C135.798 102.925 135.356 106.602 135.268 110.283C135.061 118.862 124.143 125.841 110.927 125.841H91.7544V147.424C91.7536 148.846 90.1997 150 88.2821 150Z" fill="black"/>
<path d="M88.2821 125.84H54.9324C53.0148 125.84 51.461 124.686 51.461 123.263C51.461 121.839 53.0148 120.686 54.9324 120.686H88.2821C90.1996 120.686 91.7535 121.839 91.7535 123.263C91.7535 124.686 90.1996 125.84 88.2821 125.84Z" fill="black"/>
<path d="M56.9636 80.3733C55.8492 80.3733 54.756 79.9747 54.0861 79.2417C23.4837 45.6767 54.2585 11.6747 64.4192 2.052C65.7953 0.749 67.8601 0 70.083 0C72.3081 0 74.3734 0.749 75.7499 2.05367C85.9093 11.6743 116.684 45.6763 86.083 79.2413C85.0378 80.3873 82.9573 80.7173 81.3751 79.9843C74.4106 76.7667 65.7594 76.7667 58.7949 79.9843C58.2247 80.2483 57.5903 80.3733 56.9636 80.3733ZM70.0843 72.4117C74.1606 72.4117 78.2363 73.074 82.0387 74.397C107.094 44.3473 79.5128 13.9717 70.2837 5.233C70.2837 5.231 70.0341 5.233 69.9294 5.233C60.6546 13.9717 33.0733 44.3473 58.1295 74.397C61.9319 73.074 66.0081 72.4117 70.0843 72.4117Z" fill="#E65402"/>
<path d="M70.0843 49.9674C63.8144 49.9674 58.7128 46.18 58.7128 41.5247C58.7128 36.8694 63.8144 33.082 70.0843 33.082C76.3542 33.082 81.4546 36.8694 81.4546 41.5247C81.4546 46.1797 76.3547 49.9674 70.0843 49.9674ZM70.0843 38.2367C67.6424 38.2367 65.6557 39.7124 65.6557 41.5247C65.6557 43.337 67.6424 44.8127 70.0843 44.8127C72.525 44.8127 74.5117 43.337 74.5117 41.5247C74.5117 39.7124 72.525 38.2367 70.0843 38.2367Z" fill="#E65402"/>
<path d="M70.0843 65.008C68.1668 65.008 66.6129 63.8544 66.6129 62.4307V47.39C66.6129 45.9663 68.1668 44.8127 70.0843 44.8127C72.0019 44.8127 73.5558 45.9663 73.5558 47.39V62.4307C73.5558 63.8544 72.0019 65.008 70.0843 65.008Z" fill="#E65402"/>
<path d="M87.3195 24.416H52.8483C50.9312 24.416 49.3773 23.2623 49.3773 21.8386C49.3773 20.415 50.9312 19.2613 52.8483 19.2613H87.3195C89.2366 19.2613 90.7905 20.415 90.7905 21.8386C90.7905 23.2623 89.2366 24.416 87.3195 24.416Z" fill="#E65402"/>
<path d="M107.604 80.506C106.43 80.506 105.308 80.063 104.662 79.3C104.597 79.2236 98.0216 71.554 89.8167 69.8586C87.9696 69.478 86.8894 68.0566 87.403 66.6853C87.9171 65.314 89.8346 64.5106 91.6772 64.8933C96.91 65.9743 101.419 68.6483 104.717 71.1673L105.38 63.5803C106.067 55.738 101.485 48.175 93.1256 43.3546C91.6121 42.481 91.3382 40.862 92.5141 39.7386C93.6895 38.611 95.8715 38.4116 97.3864 39.2833C107.566 45.1546 113.144 54.3626 112.309 63.9146L111.069 78.0976C110.971 79.213 109.914 80.1533 108.455 80.4273C108.172 80.4797 107.886 80.506 107.604 80.506Z" fill="#E65402"/>
<path d="M32.5633 80.506C32.28 80.506 31.9949 80.4796 31.712 80.4276C30.2528 80.1536 29.1964 79.2133 29.099 78.098L27.858 63.915C27.0243 54.363 32.6028 45.155 42.781 39.2836C44.2927 38.412 46.4747 38.6113 47.6532 39.739C48.8286 40.8623 48.5552 42.4813 47.0417 43.355C38.6832 48.1753 34.1014 55.738 34.7875 63.5806L35.4506 71.1676C38.7483 68.6486 43.2573 65.9746 48.4888 64.8936C50.3358 64.509 52.2489 65.3143 52.7643 66.6856C53.278 68.057 52.1986 69.4783 50.352 69.859C42.147 71.5543 35.57 79.2236 35.5049 79.3003C34.858 80.063 33.7378 80.506 32.5633 80.506Z" fill="#E65402"/>
<path d="M70.0843 104.283C68.1668 104.283 66.6129 103.13 66.6129 101.706V86.4676C66.6129 85.0443 68.1668 83.8906 70.0843 83.8906C72.0019 83.8906 73.5558 85.0443 73.5558 86.4676V101.706C73.5558 103.13 72.0019 104.283 70.0843 104.283Z" fill="#E65402"/>
<path d="M93.7519 104.283C91.8344 104.283 90.2805 103.13 90.2805 101.706V83.1293C90.2805 81.706 91.8344 80.5523 93.7519 80.5523C95.6695 80.5523 97.2234 81.706 97.2234 83.1293V101.706C97.2234 103.13 95.6695 104.283 93.7519 104.283Z" fill="#E65402"/>
<path d="M46.415 104.283C44.4974 104.283 42.9435 103.13 42.9435 101.706V83.1293C42.9435 81.706 44.4974 80.5523 46.415 80.5523C48.3325 80.5523 49.8864 81.706 49.8864 83.1293V101.706C49.8864 103.13 48.3325 104.283 46.415 104.283Z" fill="#E65402"/>
</svg>
