<svg xmlns="http://www.w3.org/2000/svg" id="Capa_1" enable-background="new 0 0 512 512" height="512" viewBox="0 0 512 512" width="512"><g><g><path d="m511.146 457.41c-.124-4.145-3.555-7.423-7.732-7.283-4.145.124-7.406 3.586-7.283 7.731l.844 28.202c.115 3.825-2.951 6.974-6.762 6.974-.004 0-.008 0-.012 0l-48.926-.123v-55.044c0-1.818-.264-3.572-.717-5.248 2.323-.012 3.934-.021 4.046-.021 7.536 0 13.113-5.335 14.947-7.088l29.052-27.79c1.997-1.91 3.836-3.96 5.546-6.107l.93 31.06c.122 4.07 3.459 7.286 7.504 7.286.075 0 .153-.001.229-.003 4.145-.124 7.406-3.586 7.283-7.732-2.522-84.257-2.367-82.46-2.467-82.432-.038-9.501-4.582-26.209-16.404-34.686l-1.331-13.866c5.856-5.555 19.65-21.816 15.073-48.221l-3.415-19.706c-4.499-25.96-29.16-43.351-55.134-38.843l-41.265 7.153c-7.029 1.22-11.706 7.997-10.274 15.043 1.104 5.433 3.485 10.258 6.764 14.231-8.337 17.606-3.6 30.927-4.645 32.517l-6.878 10.325c-5.571 8.366.09 19.658 10.136 20.188l4.014.212 1.31 13.635c.873 9.07 8.931 15.656 17.937 14.773l10.057-.975c.044-.002.161-.015.284.087.124.102.136.219.143.287l.59 5.937c-28.051 26.225-30.922 61.419-31.088 61.957l-45.289 1.702c-9.525.277-18.033 4.185-24.243 10.38-4.364-6.009-11.44-9.927-19.419-9.927-13.227 0-23.989 10.761-23.989 23.989v11.717h-70.702v-11.717c0-13.228-10.761-23.989-23.989-23.989-7.976 0-15.05 3.916-19.415 9.922-6.202-6.192-14.692-10.098-24.182-10.373l-45.355-1.704c-.342-1.112-2.221-34.97-31.086-61.956l.593-5.962c.019-.214.21-.371.424-.35l10.052.974c9.026.889 17.071-5.719 17.942-14.773l1.31-13.635c1.465-.364 10.66 1.184 14.949-7.362 2.09-4.164 1.784-9.161-.799-13.039l-6.848-10.28c-.281-.428-.343-.623-.086-2.652.993-7.837.376-15.211-1.699-22.247 1.912-3.133 3.194-6.728 3.648-10.631 1.695-14.566-8.932-27.633-23.535-28.943l-36.724-3.295c-25.416-2.444-47.974 16.153-50.416 41.582l-1.843 19.179c-2.424 25.245 11.355 39.828 17.696 45.117l-1.286 13.392c-13.228 9.426-16.392 28.34-16.418 34.873l-2.789 146.003c-.233 12.199 9.568 22.209 21.791 22.209h.039c.155 0 458.322.011 468.336.012h.038c12.291 0 22.15-10.135 21.782-22.444zm-425.242-19.542c0-2.836 2.307-5.144 5.144-5.144h330.063c2.836 0 5.144 2.307 5.144 5.144v8.148h-340.351zm363.077-238.597c17.792-3.082 34.684 8.817 37.768 26.609l3.415 19.706c2.861 16.503-3.699 27.196-8.328 32.447-4.011-4.033-9.586-11.284-11.046-21.446-1.15-7.986-8.63-13.668-16.723-12.261l-.279.048c-1.153.201-2.258-.576-2.461-1.73l-2.009-11.441c-1.631-9.294-10.517-15.544-19.82-13.932-8.418 1.453-16.51-3.377-19.268-11.283zm-16.858 97.352-10.061.975c-.781.07-1.457-.489-1.531-1.261l-1.509-15.697c-.593-6.168-5.706-11.066-11.894-11.392l-2.542-.134 4.94-7.416c5.617-8.563-.937-17.207 4.518-31.609 5.579 2.323 11.775 3.066 18.02 1.982 1.166-.198 2.258.577 2.46 1.729l2.009 11.441c1.61 9.173 10.288 15.376 19.464 13.991 2.671 17.346 13.485 28.291 18.877 32.778l1.148 11.953-26.991 7.364-.083-.84c-.817-8.493-8.36-14.69-16.825-13.864zm13.969 31.075 36.852-10.054c7.313 5.581 9.661 17.954 9.661 22.268 0 .075.001.15.003.224l.3 10.033v.002c.42 13.99-4.934 27.364-14.688 36.693l-29.053 27.79c-2.834 2.711-4.209 2.922-4.563 2.922-.156 0-63.838.126-63.838.126v-21.976l44.99-1.691c3.094-.091 6.073-1.447 8.169-3.716l25.463-27.536c2.815-3.045 2.63-7.797-.416-10.613-3.044-2.817-7.797-2.632-10.613.415l-24.496 26.49-5.119.192c2.739-19.919 12.409-38.151 27.348-51.569zm-87.381 68.858 7.033-.264v21.412h-27.204v-.445c0-11.281 8.832-20.373 20.171-20.703zm-53.13 9.43c0-4.945 4.024-8.968 8.969-8.968s8.968 4.023 8.968 8.968v11.272.445h-17.938v-11.717zm-118.68 0c0-4.945 4.023-8.968 8.968-8.968s8.968 4.023 8.968 8.968v11.717h-17.937c.001-3.586.001-6.365.001-11.717zm-15.021 11.272v.445h-27.205v-21.412l7.097.267c11.275.328 20.108 9.42 20.108 20.7zm-68.587-148.009c-6.188.326-11.301 5.223-11.895 11.392l-1.508 15.697c-.072.759-.738 1.334-1.536 1.261l-10.057-.975c-8.516-.829-16.015 5.43-16.823 13.839l-.083.834-26.982-7.459 1.166-12.146c4.799-4.608 14.568-15.943 15.968-32.935 8.953.438 16.826-6.26 17.75-15.263.045-.1-.112-4.216 3.576-3.853l14.375 1.224c3.984.339 7.826-.223 11.327-1.519.346 3.196.263 6.666-.106 9.574-.337 2.659-.965 7.608 2.458 12.825l4.911 7.372zm-85.54-21.364 1.841-19.175c1.643-17.114 16.809-29.724 34.074-28.061l36.77 3.299c6.179.554 10.675 6.083 9.958 12.246-.682 5.855-5.845 10.225-11.877 9.703l-14.294-1.217c-9.874-.946-18.747 6.313-19.761 16.187-.097.241.113 3.107-2.296 2.878-7.865-.754-15.036 5.072-15.547 13.127-.614 9.677-5.27 16.947-8.792 21.134-4.778-4.742-11.585-14.409-10.076-30.121zm.061 92.027c0-4.347 2.35-16.802 9.666-22.406l36.838 10.184c14.94 13.415 24.614 31.646 27.359 51.578l-5.12-.192-24.495-26.49c-2.817-3.045-7.569-3.232-10.613-.415-3.046 2.816-3.232 7.568-.416 10.613l25.463 27.536c2.1 2.271 5.077 3.625 8.108 3.714l45.051 1.693v21.977c-2.836-.006 15.602.031-63.838-.126-.354 0-1.729-.211-4.564-2.922l-29.053-27.79c-19.041-18.213-13.689-41.253-14.386-46.809-.001-.049 0-.097 0-.145zm3.99 153.111c-.004 0-.008 0-.012 0-3.797 0-6.843-3.111-6.77-6.901l1.792-93.823c4.214 5.139 4.884 5.103 34.055 33.212 1.833 1.753 7.41 7.088 14.909 7.088l5.82.029c-.452 1.674-.715 3.425-.715 5.241v55.042zm64.1-31.987h340.35v31.857h-340.35z"/><path d="m171.221 306.903c6.015 1.756 12.398-.571 15.887-5.779 6.748-10.075 14.493-17.701 23.088-22.765 2.184 4.395 4.386 7.893 9.453 10.611-6.696 18.682-3.157 39.681 9.39 55.139l16.12 19.859c2.683 3.305 6.663 5.201 10.919 5.201 4.257 0 8.236-1.895 10.919-5.201l16.12-19.859c12.548-15.457 16.087-36.458 9.391-55.139 5.037-2.702 7.194-6.107 9.444-10.615 8.598 5.064 16.347 12.691 23.097 22.769 3.487 5.207 9.869 7.536 15.886 5.779 5.991-1.748 10.11-7.119 10.249-13.366l1.004-44.939c.629-28.191-24.628-36.857-30.386-42.306 2.02-16.655 2.537-31.727 2.537-42.74 0-51.368-22.534-106.032-50.107-149.611-8.441-13.343-27.887-13.313-36.31 0-16.39 25.905-30.688 55.423-39.633 84.649-1.214 3.966 1.018 8.166 4.984 9.38 3.967 1.212 8.165-1.018 9.379-4.984 1.398-4.571 2.961-9.228 4.661-13.901h77.521c9.609 26.393 14.483 51.423 14.483 74.468 0 61.485-15.213 97.402-21.755 109.99-.903 1.736-2.681 2.815-4.643 2.815h-53.686c-1.962 0-3.741-1.079-4.643-2.815-6.541-12.589-21.754-48.506-21.754-109.99 0-8.6.689-17.594 2.047-26.732.61-4.103-2.221-7.924-6.324-8.533-4.108-.611-7.923 2.222-8.533 6.324-1.467 9.867-2.211 19.604-2.211 28.941 0 15.833.947 30.062 2.498 42.767-5.724 5.419-30.975 14.16-30.347 42.279l1.004 44.939c.142 6.246 4.261 11.617 10.251 13.365zm79.396-284.931c2.536-4.009 8.387-4.009 10.923 0 7.647 12.086 18.155 30.337 27.375 52.091h-65.674c9.222-21.756 19.73-40.006 27.376-52.091zm20.839 312.671-15.377 18.944-15.377-18.944c-16.82-20.721-5.944-42.902-5.903-43.266h42.56c.039.342 10.841 22.639-5.903 43.266zm65.717-86.38-.952 42.589c-8.126-11.615-17.579-20.43-28.184-26.318 5.248-13.586 8.852-27.9 11.306-41.723 2.866 2.748 18.211 8.408 17.83 25.452zm-144.373-25.443c3.123 17.339 7.308 31.155 11.356 41.694-10.617 5.888-20.082 14.71-28.218 26.337l-.952-42.589c-.38-17.017 14.955-22.699 17.814-25.442z" style="&#10;    fill: #e65402;&#10;"/><path d="m256.079 201.173c20.504 0 37.184-16.681 37.184-37.185 0-20.503-16.68-37.184-37.184-37.184-20.503 0-37.184 16.681-37.184 37.184 0 20.504 16.68 37.185 37.184 37.185zm0-59.349c12.221 0 22.164 9.942 22.164 22.163s-9.943 22.164-22.164 22.164-22.164-9.943-22.164-22.164c0-12.22 9.943-22.163 22.164-22.163z" style="&#10;    fill: #e65402;&#10;"/></g></g></svg>