<svg id="Piece_Of_Mind" viewBox="0 0 24 24" xmlns="http://www.w3.org/2000/svg"><path d="m16.83 6.12c-.29.29-.77.29-1.06 0-.15-.15-.34-.22-.54-.22s-.39.07-.54.22c-.3.3-.3.78 0 1.08l1.61 1.61 1.61-1.61c.3-.3.3-.78 0-1.08s-.78-.3-1.08 0z"/><path d="m16.3 1.25c-3.45 0-6.25 2.8-6.25 6.25s2.8 6.25 6.25 6.25 6.25-2.8 6.25-6.25-2.8-6.25-6.25-6.25zm2.66 7-2.14 2.14c-.14.14-.33.22-.53.22s-.39-.08-.53-.22l-2.14-2.14c-.88-.88-.88-2.31 0-3.2.72-.72 1.81-.85 2.67-.39.86-.46 1.95-.33 2.67.39.88.88.88 2.32 0 3.2z"/><path d="m16.3 14.84c-4.05 0-7.34-3.29-7.34-7.34 0-2.05.85-3.91 2.21-5.24-1.98.04-3.88.76-5.36 2.08-1.71 1.53-2.71 3.7-2.75 5.99l-1.53 3.34c-.11.23-.09.5.05.72.14.21.38.34.63.34h1.01l.68 2.75c.19.75.85 1.27 1.62 1.27h2.4s.88 0 .88 0c.88 0 2.05-.27 3.48-.81.26-.09.55.03.64.29.1.26-.04.55-.29.64-1.54.58-2.83.87-3.83.87h-.88v2.24c0 .41.34.75.75.75h7.17c.2 0 .39-.08.53-.22s.22-.34.22-.54c-.04-3.41.65-5.04 1.67-7.06.09-.14.17-.29.25-.43-.7.22-1.44.34-2.21.34z"/></svg>