<svg width="300" height="300" viewBox="0 0 300 300" fill="none" xmlns="http://www.w3.org/2000/svg">
<path d="M195.375 284.375C190.25 284.375 186 280.25 186 275.125C185.5 235.125 192.625 212.125 204.125 187.875C206.375 183.25 211.875 181.25 216.625 183.5C221.25 185.75 223.25 191.375 221 196C210.625 217.75 204.25 238.625 204.625 275C204.625 280.125 200.5 284.375 195.375 284.5V284.375Z" fill="black"/>
<path d="M107.5 234.375H66.5C56.875 234.375 48.5 227.875 46.25 218.5L37.75 184.125H25.125C21.875 184.125 19 182.5 17.25 179.875C15.5 177.25 15.25 173.75 16.625 170.875L35.75 129.125C36.625 84 67.375 44.125 110.875 31.875C115.875 30.5 121 33.375 122.375 38.375C123.75 43.375 120.875 48.5 115.875 49.875C79.625 60 54.375 93.5 54.375 131.125C54.375 132.5 54.125 133.75 53.5 135L39.625 165.25H45C49.25 165.25 53 168.125 54.125 172.375L64.5 213.75C64.75 214.75 65.625 215.375 66.625 215.375H107.625C139.75 215.375 151.125 205.5 151.125 205.5C154.875 202.125 160.75 202.25 164.25 205.875C167.75 209.5 167.75 215.25 164.25 218.875C162.75 220.375 147.875 234.125 107.625 234.125L107.5 234.375Z" fill="black"/>
<path d="M53.125 207.625C51.125 207.625 49.875 207.5 49.75 207.5C44.625 206.875 40.875 202.25 41.5 197.125C42.125 192 46.75 188.25 51.875 188.875C52.625 188.875 65.625 190 74.75 179.375C78.125 175.5 84 175 88 178.375C91.875 181.75 92.375 187.625 89 191.625C76.625 206 60.25 207.625 53.125 207.625Z" fill="black"/>
<path d="M105.75 284.375C100.625 284.375 96.375 280.125 96.375 275V225C96.375 219.875 100.625 215.625 105.75 215.625C110.875 215.625 115.125 219.875 115.125 225V275C115.125 280.125 110.875 284.375 105.75 284.375Z" fill="black"/>
<path d="M201.25 171.875C158.125 171.875 123.125 136.875 123.125 93.75C123.125 50.625 158.125 15.625 201.25 15.625C244.375 15.625 279.375 50.625 279.375 93.75C279.375 136.875 244.375 171.875 201.25 171.875ZM201.25 34.375C168.5 34.375 141.875 61 141.875 93.75C141.875 126.5 168.5 153.125 201.25 153.125C234 153.125 260.625 126.5 260.625 93.75C260.625 61 234 34.375 201.25 34.375Z" fill="black"/>
<path d="M201.25 132.625C198.875 132.625 196.5 131.75 194.625 129.875L167.875 103.125C156.875 92.125 156.875 74.25 167.875 63.125C176.875 54.125 190.5 52.5 201.25 58.25C212 52.5 225.625 54.125 234.625 63.125C245.625 74.125 245.625 92.125 234.625 103.125L207.875 129.875C206 131.75 203.625 132.625 201.25 132.625ZM187.875 73.625C185.5 73.625 183 74.5 181.125 76.375C177.375 80.125 177.375 86.125 181.125 89.875L201.25 110L221.375 89.875C223.125 88.125 224.125 85.75 224.125 83.125C224.125 80.5 223.125 78.25 221.375 76.375C217.625 72.625 211.625 72.625 207.875 76.375C204.25 80 198.25 80 194.625 76.375C192.75 74.5 190.375 73.625 187.875 73.625Z" fill="#E65402"/>
</svg>
