<svg id="Layer_1" viewBox="0 0 512 512" xmlns="http://www.w3.org/2000/svg" data-name="Layer 1"><path d="m159.641 281.97h8.353v26.775a160.62 160.62 0 0 1 -26.461-21.916q7.158-2.748 14.967-5.148a17.2 17.2 0 0 0 3.141.289zm-16.032-10.762-17.122-29.574a17.011 17.011 0 0 1 14.713-25.517h30.078a293.4 293.4 0 0 1 -2.695-33.7h-72.178a159.009 159.009 0 0 0 35.27 93.3q5.75-2.363 11.934-4.509zm37.848-180.808a270.661 270.661 0 0 1 -50.157-14.822 159 159 0 0 0 -34.9 92.838h72.177c.659-28.557 5.293-55.216 12.88-78.016zm242.626 303.565a71.92 71.92 0 0 0 -71.92 71.916c0 39.718 143.837 39.718 143.837 0a71.917 71.917 0 0 0 -71.917-71.916zm-33.239-52.395a33.24 33.24 0 1 0 33.239-33.235 33.238 33.238 0 0 0 -33.239 33.235zm24.756-159.154h-72.182a293.4 293.4 0 0 1 -2.695 33.7h30.077a17.011 17.011 0 0 1 14.712 25.517l-17.122 29.577q6.177 2.142 11.933 4.51a159.008 159.008 0 0 0 35.277-93.304zm-232.822 5.625q1.778-2.89 3.774-5.625h-3.962q.062 2.827.183 5.625zm187.7 98.784q-7.154-2.746-14.961-5.146a17.228 17.228 0 0 1 -3.151.291h-8.353v26.775a160.681 160.681 0 0 0 26.458-21.92zm-184.4-70.708h139.844a71.933 71.933 0 0 0 -139.844 0zm143.337-33.7h-3.961q1.993 2.733 3.773 5.623.12-2.797.188-5.624zm-50.7-32.306a85.733 85.733 0 0 1 33.951 18.306h16.751c-.663-27.907-5.264-53.757-12.755-75.538q-7.583 1.194-15.444 2.094a47.285 47.285 0 0 1 -22.5 55.138zm-55.952-41.43a33.24 33.24 0 1 0 33.237-33.235 33.239 33.239 0 0 0 -33.238 33.234zm-22.263-29.135q8.213 1.213 16.784 2.071a47.242 47.242 0 0 1 31.716-19.653v-33.124c-23.272 4.589-39.611 30.26-48.5 50.706zm142.915 88.87h72.185a159 159 0 0 0 -34.9-92.838 270.661 270.661 0 0 1 -50.157 14.822c7.587 22.8 12.221 49.459 12.875 78.016zm-17.8-91.267a265.6 265.6 0 0 0 45.294-12.685 159.275 159.275 0 0 0 -100.277-48.133c26.754 8.078 44.795 36.109 54.99 60.818zm-237.7 297.66a33.237 33.237 0 1 0 -33.24-33.239 33.238 33.238 0 0 0 33.246 33.239zm0 19.156a71.92 71.92 0 0 0 -71.915 71.916c0 39.718 143.837 39.718 143.837 0a71.917 71.917 0 0 0 -71.916-71.916zm107.424-301.087c-7.491 21.781-12.092 47.631-12.755 75.538h16.754a85.722 85.722 0 0 1 33.953-18.306 47.288 47.288 0 0 1 -22.5-55.137q-7.861-.898-15.452-2.095zm93.9 248.692a33.24 33.24 0 1 0 -33.239 33.239 33.238 33.238 0 0 0 33.242-33.239zm5.475-259.954q8.563-.852 16.78-2.07c-8.884-20.446-25.223-46.116-48.494-50.706v33.123a47.242 47.242 0 0 1 31.717 19.653zm-53.346-65.285a159.27 159.27 0 0 0 -100.284 48.133 265.579 265.579 0 0 0 45.294 12.685c10.195-24.709 28.236-52.74 54.99-60.818zm-59.374 355.478a3.006 3.006 0 0 0 3 3h37.447a47.24 47.24 0 1 1 67.122 0h37.443a3.006 3.006 0 0 0 3-3v-89.839h-148.012zm-43.394-137.189 18.441 31.853a2.931 2.931 0 0 0 2.6 1.5h192.718a2.93 2.93 0 0 0 2.6-1.5l18.441-31.853a3 3 0 0 0 -2.6-4.5h-229.6a3 3 0 0 0 -2.6 4.5zm117.4 159.345a71.92 71.92 0 0 0 -71.92 71.916c0 39.718 143.836 39.718 143.836 0a71.916 71.916 0 0 0 -71.916-71.916z" fill="rgb(0,0,0)"/></svg>