<svg id="Layer_1" enable-background="new 0 0 512 512" viewBox="0 0 512 512" xmlns="http://www.w3.org/2000/svg"><path clip-rule="evenodd" d="m369.87 68.18c0-2.06 1.06-3.97 2.78-5.07l46.56-29.53c1.88-1.17 4.21-1.25 6.13-.19s3.1 3.07 3.1 5.26v63.83c0 9.78-7.96 17.74-17.72 17.74-9.8 0-17.72-7.96-17.72-17.74s7.92-17.74 17.72-17.74c2 0 3.92.36 5.72.97v-17.67l-34.55 21.92v36.15c0 9.78-7.96 17.74-17.76 17.74-9.76 0-17.72-7.96-17.72-17.74s7.96-17.74 17.72-17.74c2.04 0 3.96.35 5.76.97v-41.16zm-5.8 362.7c-13.84 0-27.04 4.73-37.73 13.41 8.17 11.81 13.31 25.85 14.38 41h83.27c-2.91-30.49-28.68-54.41-59.92-54.41zm0-75.07c-17.44 0-31.65 14.2-31.65 31.65 0 16.41 12.25 29.89 28.51 31.49 1.02-.04 2.08-.07 3.14-.07s2.08.03 3.1.08c16.29-1.59 28.55-15.08 28.55-31.5 0-17.45-14.21-31.65-31.65-31.65zm-208.03 63.13c16.25-1.6 28.51-15.08 28.51-31.49 0-17.45-14.21-31.65-31.65-31.65s-31.65 14.2-31.65 31.65c0 16.42 12.25 29.91 28.55 31.5 1.02-.05 2.04-.08 3.1-.08 1.06.01 2.08.03 3.14.07zm20.26 66.35c1.02-15.15 6.17-29.19 14.33-41-10.7-8.68-23.89-13.41-37.73-13.41-31.24 0-57.01 23.92-59.91 54.41zm152.41 0h-140.41c2.9-36.16 33.28-64.68 70.2-64.68 36.88 0 67.27 28.51 70.21 64.68zm-32.76-113.88c0-20.66-16.83-37.47-37.45-37.47-20.66 0-37.49 16.81-37.49 37.47 0 19.14 14.82 35.46 33.81 37.28 1.23-.05 2.45-.09 3.68-.09 1.18 0 2.41.04 3.59.09 19-1.81 33.86-18.14 33.86-37.28zm85.93-295.66 34.55-21.92v-4.27l-34.55 21.91zm23.07 26.73c0 3.16 2.57 5.74 5.76 5.74 3.14 0 5.72-2.58 5.72-5.74s-2.57-5.73-5.72-5.73c-3.19-.01-5.76 2.56-5.76 5.73zm-40.84 29.36c3.19 0 5.76-2.57 5.76-5.73s-2.57-5.74-5.76-5.74c-3.14 0-5.72 2.58-5.72 5.74.01 3.16 2.58 5.73 5.72 5.73zm32.92 42.74 4.86 18.02 16.05-4.3-4.86-18.02zm-72.53 19.43 4.82 18.01 60.97-16.33-4.82-18.02zm-10.7 6.5-10.25 8.77 13.27 2.46zm-132.28-25.36c-4.08 4.19-6.45 9.86-6.45 15.81s2.37 11.62 6.45 15.81c2.41-4.76 3.76-10.12 3.76-15.81s-1.35-11.05-3.76-15.81zm-56.48 15.81c0-5.95-2.37-11.62-6.41-15.81-2.41 4.76-3.8 10.12-3.8 15.81 0 5.68 1.39 11.05 3.8 15.81 4.05-4.19 6.41-9.87 6.41-15.81zm49.26-25.52c-6.29-6.01-14.82-9.7-24.22-9.7s-17.93 3.7-24.26 9.7c7.07 6.5 11.23 15.76 11.23 25.51s-4.17 19.01-11.23 25.51c6.33 6.01 14.87 9.71 24.26 9.71s17.93-3.7 24.22-9.71c-7.02-6.5-11.23-15.76-11.23-25.51 0-9.74 4.2-19 11.23-25.51zm-36.31-58.77c11.39-8.53 26.99-20.21 27.2-32.65.04-4.02-1.47-7.82-4.29-10.7-2.9-2.93-6.78-4.55-10.9-4.55h-.04c-4.61 0-9.47 3.6-11.56 8.58-.94 2.22-3.14 3.67-5.55 3.67s-4.57-1.45-5.51-3.67c-2.12-4.98-6.94-8.58-11.52-8.58h-.04c-4.21 0-8.05 1.62-10.94 4.55-2.82 2.87-4.37 6.68-4.29 10.7.2 12.44 15.8 24.12 27.2 32.65 1.76 1.34 3.51 2.63 5.1 3.89 1.63-1.26 3.34-2.56 5.14-3.89zm145.71-6.04-14.91.03s0 0-.04 0c-2.57 0-4.9-1.68-5.68-4.15l-4.57-14.19-4.61 14.19c-.78 2.47-3.1 4.15-5.68 4.15-.04 0-.04 0-.04 0l-14.91-.03 12.09 8.74c2.12 1.53 2.98 4.24 2.16 6.72l-4.61 14.17 12.05-8.78c1.06-.77 2.29-1.15 3.55-1.15 1.23 0 2.45.38 3.51 1.15l12.05 8.78-4.66-14.17c-.78-2.48.08-5.19 2.21-6.72zm173.16 142.9v-216.24h-396.79v216.24h170.62c2.21 0 4.21 1.18 5.27 3.08l22.54 40.36 22.5-40.36c1.06-1.9 3.06-3.08 5.27-3.08zm-141.26-59.56 94.58-25.34c3.06-.81 6.25-.4 8.94 1.18 2.74 1.58 4.7 4.12 5.51 7.15l4.94 18.43c.82 3.03.41 6.21-1.18 8.94s-4.12 4.68-7.15 5.5l-94.62 25.35c-.49.14-1.02.2-1.55.2-.37 0-.74-.04-1.1-.11v.01l-34.96-6.5c-2.29-.42-4.08-2.12-4.7-4.35-.61-2.23.12-4.61 1.88-6.11l27.08-23.11v.02c.69-.58 1.47-1.02 2.33-1.26zm-42.48-95.32 29.12-.06h.04c2.57 0 4.9 1.67 5.68 4.15.82 2.47-.08 5.19-2.16 6.71l-23.6 17.07 9.07 27.68c.82 2.47-.08 5.19-2.21 6.72-1.02.76-2.29 1.15-3.51 1.15-1.23 0-2.49-.39-3.55-1.16l-23.48-17.16-23.56 17.16c-2.08 1.54-4.94 1.54-7.02.01-2.12-1.53-3.02-4.24-2.2-6.72l9.07-27.68-23.6-17.07c-2.12-1.53-2.98-4.24-2.21-6.71.82-2.47 3.14-4.15 5.72-4.15h.04l29.12.06 8.94-27.71c.78-2.48 3.1-4.16 5.72-4.16 2.57 0 4.9 1.68 5.68 4.16zm-123.04 55.09c26.01 0 47.21 21.18 47.21 47.21s-21.2 47.22-47.21 47.22c-26.06 0-47.25-21.18-47.25-47.22 0-26.03 21.19-47.21 47.25-47.21zm19.36-88.84c5.1 5.19 7.88 12.04 7.76 19.31-.33 18.32-18.62 32.05-32.02 42.06-3.14 2.37-6.17 4.61-8.41 6.55-1.1.97-2.53 1.45-3.92 1.45s-2.78-.48-3.88-1.45c-2.29-1.94-5.27-4.17-8.45-6.55-13.35-10.02-31.69-23.74-31.98-42.06-.12-7.27 2.61-14.12 7.76-19.31 5.19-5.28 12.13-8.16 19.56-8.13 6.29 0 12.41 2.83 16.99 7.55 4.57-4.72 10.74-7.55 17.07-7.55h.12c7.35 0 14.25 2.89 19.4 8.13z" fill-rule="evenodd"/></svg>