<svg width="202" height="202" viewBox="0 0 202 202" fill="none" xmlns="http://www.w3.org/2000/svg">
<path d="M135.719 70.0108C135.719 69.1737 135.386 68.3709 134.794 67.779C134.202 67.1871 133.4 66.8546 132.562 66.8546H128.565C128.086 65.3742 127.488 63.9352 126.777 62.5517L129.608 59.7205C129.901 59.4275 130.134 59.0797 130.293 58.6968C130.451 58.3138 130.533 57.9034 130.533 57.489C130.533 57.0745 130.451 56.6641 130.293 56.2812C130.134 55.8983 129.901 55.5504 129.608 55.2574L121.493 47.1417C121.2 46.8486 120.852 46.616 120.469 46.4574C120.086 46.2987 119.675 46.2171 119.261 46.2171C118.846 46.2171 118.436 46.2987 118.053 46.4574C117.67 46.616 117.322 46.8486 117.029 47.1417L114.198 49.9729C112.815 49.2617 111.376 48.6638 109.895 48.1852V44.1875C109.895 43.3504 109.563 42.5476 108.971 41.9557C108.379 41.3638 107.576 41.0312 106.739 41.0312H95.2608C94.4237 41.0312 93.6209 41.3638 93.029 41.9557C92.4371 42.5476 92.1046 43.3504 92.1046 44.1875V48.1852C90.6242 48.6636 89.1852 49.2615 87.8017 49.9729L84.9705 47.1418C84.6775 46.8486 84.3297 46.6161 83.9468 46.4574C83.5638 46.2988 83.1534 46.2171 82.739 46.2171C82.3245 46.2171 81.9141 46.2988 81.5312 46.4574C81.1483 46.6161 80.8004 46.8486 80.5074 47.1418L72.3918 55.2575C72.0986 55.5505 71.866 55.8984 71.7074 56.2813C71.5487 56.6642 71.4671 57.0746 71.4671 57.4891C71.4671 57.9035 71.5487 58.3139 71.7074 58.6968C71.866 59.0797 72.0986 59.4276 72.3918 59.7206L75.2229 62.5518C74.5117 63.9354 73.9138 65.3744 73.4352 66.8546H69.4375C68.6004 66.8546 67.7976 67.1872 67.2057 67.7791C66.6138 68.371 66.2812 69.1738 66.2812 70.0109V81.4893C66.2812 82.3264 66.6138 83.1292 67.2057 83.7211C67.7976 84.313 68.6004 84.6455 69.4375 84.6455H73.4352C73.9136 86.1259 74.5115 87.5649 75.2229 88.9484L72.3918 91.7796C72.0986 92.0726 71.8661 92.4204 71.7074 92.8033C71.5488 93.1862 71.4671 93.5967 71.4671 94.0111C71.4671 94.4256 71.5488 94.836 71.7074 95.2189C71.8661 95.6018 72.0986 95.9497 72.3918 96.2427L80.5075 104.358C80.8005 104.651 81.1484 104.884 81.5313 105.043C81.9142 105.201 82.3246 105.283 82.7391 105.283C83.1535 105.283 83.5639 105.201 83.9468 105.043C84.3297 104.884 84.6776 104.651 84.9706 104.358L87.8018 101.527C89.1854 102.238 90.6244 102.836 92.1046 103.315V107.312C92.1046 108.15 92.4372 108.952 93.0291 109.544C93.621 110.136 94.4238 110.469 95.2609 110.469H106.739C107.576 110.469 108.379 110.136 108.971 109.544C109.563 108.952 109.896 108.15 109.896 107.312V103.315C111.376 102.836 112.815 102.238 114.198 101.527L117.03 104.358C117.323 104.651 117.67 104.884 118.053 105.043C118.436 105.201 118.847 105.283 119.261 105.283C119.676 105.283 120.086 105.201 120.469 105.043C120.852 104.884 121.2 104.651 121.493 104.358L129.608 96.2425C129.901 95.9495 130.134 95.6016 130.293 95.2187C130.451 94.8358 130.533 94.4254 130.533 94.0109C130.533 93.5965 130.451 93.1861 130.293 92.8032C130.134 92.4203 129.901 92.0724 129.608 91.7794L126.777 88.9482C127.488 87.5646 128.086 86.1256 128.565 84.6454H132.562C133.4 84.6454 134.202 84.3128 134.794 83.7209C135.386 83.129 135.719 82.3262 135.719 81.4891V70.0108ZM129.406 78.3329H128.309C127.025 78.3426 125.777 78.7623 124.749 79.5308C123.72 80.2993 122.963 81.3764 122.59 82.605C122.2 83.8284 121.707 85.0163 121.115 86.1558C120.507 87.2894 120.278 88.5877 120.462 89.8608C120.645 91.1339 121.231 92.3149 122.134 93.2311L122.913 94.0109L119.261 97.6634L118.481 96.8836C117.565 95.9806 116.385 95.3944 115.112 95.2111C113.839 95.0278 112.541 95.2569 111.407 95.8649C110.267 96.4565 109.079 96.9499 107.855 97.3398C106.626 97.7134 105.549 98.4697 104.781 99.4986C104.012 100.527 103.593 101.775 103.583 103.059V104.156H98.4171V103.059C98.4074 101.775 97.9877 100.527 97.2192 99.4986C96.4507 98.4698 95.3736 97.7134 94.145 97.3398C92.9216 96.9502 91.7337 96.4567 90.5942 95.865C89.4605 95.2575 88.1622 95.0286 86.8892 95.2119C85.6161 95.3952 84.4351 95.981 83.5189 96.8837L82.7391 97.6635L79.0866 94.011L79.8664 93.2311C80.769 92.3152 81.3549 91.1345 81.5382 89.8616C81.7215 88.5888 81.4926 87.2907 80.8851 86.1573C80.2935 85.0172 79.8001 83.8288 79.4102 82.605C79.0366 81.3764 78.2803 80.2993 77.2514 79.5308C76.2226 78.7623 74.9752 78.3426 73.6911 78.333H72.5938V73.1671H73.6911C74.9752 73.1574 76.2226 72.7377 77.2514 71.9692C78.2802 71.2007 79.0366 70.1236 79.4102 68.895C79.7998 67.6716 80.2933 66.4837 80.885 65.3442C81.4926 64.2106 81.7216 62.9123 81.5383 61.6392C81.355 60.3661 80.7691 59.1851 79.8663 58.2689L79.0865 57.4891L82.739 53.8366L83.5189 54.6164C84.4344 55.5196 85.6152 56.1058 86.8882 56.2891C88.1612 56.4725 89.4594 56.2432 90.5927 55.6351C91.7328 55.0435 92.9212 54.5501 94.145 54.1602C95.3736 53.7866 96.4507 53.0303 97.2192 52.0014C97.9877 50.9726 98.4074 49.7252 98.417 48.4411V47.3438H103.583V48.4411C103.593 49.7252 104.012 50.9726 104.781 52.0014C105.549 53.0302 106.626 53.7866 107.855 54.1602C109.078 54.5498 110.266 55.0433 111.406 55.635C112.539 56.2429 113.838 56.4719 115.111 56.2886C116.384 56.1053 117.565 55.5193 118.481 54.6163L119.261 53.8365L122.913 57.489L122.134 58.2689C121.231 59.1848 120.645 60.3655 120.462 61.6384C120.278 62.9112 120.507 64.2093 121.115 65.3427C121.706 66.4828 122.2 67.6712 122.59 68.895C122.963 70.1236 123.72 71.2007 124.749 71.9692C125.777 72.7377 127.025 73.1574 128.309 73.167H129.406V78.3329Z" fill="black"/>
<path d="M101 56.8125C97.2545 56.8125 93.5932 57.9232 90.4789 60.004C87.3646 62.0849 84.9374 65.0426 83.504 68.5029C82.0707 71.9633 81.6957 75.771 82.4264 79.4445C83.1571 83.118 84.9607 86.4924 87.6092 89.1408C90.2576 91.7893 93.632 93.5929 97.3055 94.3236C100.979 95.0543 104.787 94.6793 108.247 93.246C111.707 91.8126 114.665 89.3854 116.746 86.2711C118.827 83.1569 119.938 79.4955 119.938 75.75C119.932 70.7291 117.935 65.9155 114.385 62.3652C110.834 58.8149 106.021 56.818 101 56.8125ZM101 88.375C98.503 88.375 96.0621 87.6346 93.9859 86.2473C91.9098 84.8601 90.2916 82.8883 89.336 80.5814C88.3805 78.2745 88.1305 75.736 88.6176 73.287C89.1047 70.838 90.3072 68.5884 92.0728 66.8228C93.8384 65.0571 96.088 63.8547 98.537 63.3676C100.986 62.8804 103.524 63.1305 105.831 64.086C108.138 65.0416 110.11 66.6598 111.497 68.7359C112.885 70.8121 113.625 73.253 113.625 75.75C113.621 79.0972 112.29 82.3062 109.923 84.673C107.556 87.0398 104.347 88.3712 101 88.375Z" fill="#E65402"/>
<path d="M9.46875 198.844H192.531C193.054 198.844 193.568 198.714 194.028 198.467C194.488 198.219 194.879 197.861 195.166 197.425C195.454 196.989 195.629 196.488 195.675 195.968C195.721 195.448 195.638 194.924 195.432 194.444L176.494 150.256C176.251 149.689 175.847 149.205 175.331 148.865C174.816 148.525 174.211 148.344 173.594 148.344H135.719V154.656H171.513L187.744 192.531H14.2555L30.4868 154.656H66.2812V148.344H28.4063C27.7886 148.344 27.1845 148.525 26.6689 148.865C26.1532 149.205 25.7488 149.689 25.5057 150.256L6.56816 194.444C6.36226 194.924 6.27874 195.448 6.32508 195.968C6.37143 196.488 6.54618 196.989 6.83368 197.425C7.12118 197.861 7.51243 198.219 7.97233 198.467C8.43224 198.714 8.94642 198.844 9.46875 198.844Z" fill="black"/>
<path d="M91.5312 119.938H97.8438V138.875H91.5312V119.938Z" fill="black"/>
<path d="M91.5312 145.188H97.8438V151.5H91.5312V145.188Z" fill="black"/>
<path d="M91.5312 157.812H97.8438V173.594H91.5312V157.812Z" fill="black"/>
<path d="M104.156 119.938H110.469V142.031H104.156V119.938Z" fill="black"/>
<path d="M104.156 148.344H110.469V173.594H104.156V148.344Z" fill="black"/>
<path d="M116.781 126.25H123.094V154.656H116.781V126.25Z" fill="black"/>
<path d="M78.9062 160.969H85.2188V167.281H78.9062V160.969Z" fill="black"/>
<path d="M78.9062 123.094H85.2188V154.656H78.9062V123.094Z" fill="black"/>
<path d="M116.781 160.969H123.094V167.281H116.781V160.969Z" fill="black"/>
<path d="M151.5 12.625C150.663 12.625 149.86 12.9575 149.268 13.5494C148.676 14.1414 148.344 14.9442 148.344 15.7812V34.7188C148.344 35.5558 148.676 36.3586 149.268 36.9506C149.86 37.5425 150.663 37.875 151.5 37.875H160.969V44.1875H154.656C153.819 44.1875 153.016 44.52 152.424 45.1119C151.833 45.7039 151.5 46.5067 151.5 47.3438V63.125C151.5 63.9621 151.833 64.7649 152.424 65.3568C153.016 65.9487 153.819 66.2812 154.656 66.2812H170.438C171.275 66.2812 172.077 65.9487 172.669 65.3568C173.261 64.7649 173.594 63.9621 173.594 63.125V56.8125H189.375C190.212 56.8125 191.015 56.48 191.607 55.8881C192.199 55.2961 192.531 54.4933 192.531 53.6562V28.4062C192.531 27.5692 192.199 26.7664 191.607 26.1744C191.015 25.5825 190.212 25.25 189.375 25.25H173.594V15.7812C173.594 14.9442 173.261 14.1414 172.669 13.5494C172.077 12.9575 171.275 12.625 170.438 12.625H151.5ZM154.656 31.5625V18.9375H167.281V25.25H164.125C163.288 25.25 162.485 25.5825 161.893 26.1744C161.301 26.7664 160.969 27.5692 160.969 28.4062V31.5625H154.656ZM167.281 59.9688H157.812V50.5H160.969V53.6562C160.969 54.4933 161.301 55.2961 161.893 55.8881C162.485 56.48 163.288 56.8125 164.125 56.8125H167.281V59.9688ZM186.219 31.5625V50.5H167.281V31.5625H186.219Z" fill="black"/>
<path d="M110.469 28.4062C111.306 28.4062 112.109 28.0737 112.701 27.4818C113.292 26.8899 113.625 26.0871 113.625 25.25V6.3125C113.625 5.47541 113.292 4.67261 112.701 4.08069C112.109 3.48878 111.306 3.15625 110.469 3.15625H91.5312C90.6942 3.15625 89.8914 3.48878 89.2994 4.08069C88.7075 4.67261 88.375 5.47541 88.375 6.3125V25.25C88.375 26.0871 88.7075 26.8899 89.2994 27.4818C89.8914 28.0737 90.6942 28.4062 91.5312 28.4062H110.469ZM94.6875 9.46875H107.312V22.0938H94.6875V9.46875Z" fill="black"/>
<path d="M12.625 97.8438H31.5625C32.3996 97.8438 33.2024 97.5112 33.7943 96.9193C34.3862 96.3274 34.7188 95.5246 34.7188 94.6875V85.2188H50.5C51.3371 85.2188 52.1399 84.8862 52.7318 84.2943C53.3237 83.7024 53.6562 82.8996 53.6562 82.0625V56.8125C53.6562 55.9754 53.3237 55.1726 52.7318 54.5807C52.1399 53.9888 51.3371 53.6562 50.5 53.6562H25.25C24.4129 53.6562 23.6101 53.9888 23.0182 54.5807C22.4263 55.1726 22.0938 55.9754 22.0938 56.8125V72.5938H12.625C11.7879 72.5938 10.9851 72.9263 10.3932 73.5182C9.80128 74.1101 9.46875 74.9129 9.46875 75.75V94.6875C9.46875 95.5246 9.80128 96.3274 10.3932 96.9193C10.9851 97.5112 11.7879 97.8438 12.625 97.8438ZM28.4062 59.9688H47.3438V78.9062H28.4062V59.9688ZM15.7812 78.9062H22.0938V82.0625C22.0938 82.8996 22.4263 83.7024 23.0182 84.2943C23.6101 84.8862 24.4129 85.2188 25.25 85.2188H28.4062V91.5312H15.7812V78.9062Z" fill="black"/>
<path d="M31.5625 44.1875H47.3438C48.1808 44.1875 48.9836 43.855 49.5756 43.2631C50.1675 42.6711 50.5 41.8683 50.5 41.0312V25.25C50.5 24.4129 50.1675 23.6101 49.5756 23.0182C48.9836 22.4263 48.1808 22.0938 47.3438 22.0938H31.5625C30.7254 22.0938 29.9226 22.4263 29.3307 23.0182C28.7388 23.6101 28.4062 24.4129 28.4062 25.25V41.0312C28.4062 41.8683 28.7388 42.6711 29.3307 43.2631C29.9226 43.855 30.7254 44.1875 31.5625 44.1875ZM34.7188 28.4062H44.1875V37.875H34.7188V28.4062Z" fill="#E65402"/>
<path d="M148.344 97.8438C147.507 97.8438 146.704 98.1763 146.112 98.7682C145.52 99.3601 145.188 100.163 145.188 101V113.625C145.188 114.462 145.52 115.265 146.112 115.857C146.704 116.449 147.507 116.781 148.344 116.781H160.969C161.806 116.781 162.609 116.449 163.201 115.857C163.792 115.265 164.125 114.462 164.125 113.625V101C164.125 100.163 163.792 99.3601 163.201 98.7682C162.609 98.1763 161.806 97.8438 160.969 97.8438H148.344ZM157.812 110.469H151.5V104.156H157.812V110.469Z" fill="#E65402"/>
<path d="M36.9056 164.125H59.9687V157.812H34.7187C34.0762 157.813 33.4489 158.009 32.9208 158.375C32.3926 158.741 31.9887 159.259 31.7629 159.861L22.2941 185.111C22.1152 185.588 22.0546 186.102 22.1176 186.608C22.1806 187.114 22.3653 187.597 22.6558 188.017C22.9463 188.436 23.3341 188.778 23.7859 189.015C24.2376 189.251 24.74 189.375 25.25 189.375H176.75C177.26 189.375 177.762 189.251 178.214 189.015C178.666 188.778 179.054 188.436 179.344 188.017C179.635 187.597 179.819 187.114 179.882 186.608C179.945 186.102 179.885 185.588 179.706 185.111L170.237 159.861C170.011 159.259 169.607 158.741 169.079 158.375C168.551 158.009 167.924 157.813 167.281 157.812H142.031V164.125H165.094L172.196 183.062H29.8041L36.9056 164.125Z" fill="black"/>
</svg>
