<svg width="300" height="300" viewBox="0 0 300 300" fill="none" xmlns="http://www.w3.org/2000/svg">
<path d="M133.591 166.956C129.804 158.917 131.067 151.942 134.789 147.289C136.249 145.431 138.176 143.968 140.301 142.972C142.43 141.976 144.755 141.444 147.143 141.444C153.192 141.512 159.567 144.899 163.352 152.87L182.751 193.661C184.078 193.396 186.206 192.927 188.266 192.531C196.305 190.806 203.079 189.346 214.371 188.15C218.693 187.747 223.54 188.746 227.728 190.937C231.78 192.997 235.296 196.253 237.159 200.169C237.223 200.237 237.223 200.371 237.293 200.439L263.599 255.712C265.591 259.896 265.659 264.548 264.199 268.666C262.802 272.786 259.746 276.307 255.494 278.367L214.706 297.766C205.741 302.016 197.304 299.158 192.982 297.698C192.387 297.501 191.852 297.368 191.655 297.3C191.391 297.237 191.055 297.098 190.791 296.965L143.163 274.443C135.389 270.923 131.339 265.211 130.472 259.56C130.073 256.905 130.275 254.315 131.137 251.922C132.068 249.464 133.528 247.34 135.588 245.615C139.772 242.09 146.217 240.567 154.256 242.955L172.188 248.003L167.006 237.11L161.231 224.95L133.591 166.956ZM142.094 153.137C140.433 155.197 140.034 158.654 142.094 162.969L169.664 220.968L175.446 233.062L185.013 253.188C185.545 254.249 185.676 255.45 185.344 256.575C184.68 259.101 182.088 260.561 179.562 259.83L151.727 251.927H151.594C147.009 250.535 143.557 251.13 141.565 252.789C140.833 253.453 140.238 254.249 139.971 255.114C139.636 256.042 139.505 257.041 139.706 258.103C140.105 260.894 142.43 263.885 147.012 265.945H147.08L194.442 288.398C194.908 288.532 195.375 288.663 195.97 288.865C199.029 289.926 205.139 291.987 210.654 289.326H210.717L251.505 269.932C253.369 268.999 254.766 267.405 255.429 265.546C256.092 263.683 256.024 261.623 255.094 259.696L228.853 204.426C228.79 204.362 228.719 204.292 228.719 204.229C227.726 202.169 225.799 200.444 223.404 199.244C220.814 197.847 217.823 197.183 215.301 197.448C204.675 198.578 198.028 199.975 190.191 201.7C188.726 201.965 187.202 202.3 184.078 202.963C182.151 203.362 180.159 203.097 178.498 202.23C176.836 201.433 175.444 200.036 174.511 198.177L154.847 156.854C152.855 152.603 149.866 150.807 147.077 150.807C146.147 150.807 145.151 151.006 144.286 151.405C143.423 151.808 142.694 152.406 142.094 153.137Z" fill="#E65402"/>
<path d="M115.322 239.972C117.912 239.972 120.042 242.032 120.042 244.622C120.042 247.211 117.914 249.337 115.322 249.337H13.7484C9.96328 249.337 6.50859 247.814 4.05 245.285C3.91641 245.222 3.85313 245.088 3.78516 244.95C1.46016 242.493 0 239.175 0 235.586V13.7532C0 9.96571 1.52813 6.57662 4.05 4.05238C6.57656 1.52814 9.96328 0 13.7484 0H286.179C289.969 0 293.421 1.52814 295.948 4.05238C298.406 6.57896 300 9.96571 300 13.7532V235.584C300 239.369 298.406 242.826 295.948 245.285C293.421 247.811 289.969 249.337 286.179 249.337H272.96C270.37 249.337 268.245 247.214 268.245 244.622C268.245 242.029 270.368 239.972 272.96 239.972H286.179C287.442 239.972 288.504 239.44 289.305 238.645C290.102 237.848 290.632 236.782 290.632 235.586V51.0918H9.36797V235.586C9.36797 236.716 9.83203 237.715 10.4953 238.511L10.6969 238.645C11.4938 239.442 12.5531 239.972 13.7484 239.972H115.322ZM290.634 41.7238V13.7532C290.634 12.5579 290.102 11.4938 289.308 10.697C288.506 9.90008 287.445 9.36805 286.181 9.36805H13.7484C12.5531 9.36805 11.4938 9.90008 10.6969 10.697C9.89766 11.4938 9.36797 12.5579 9.36797 13.7532V41.7238H290.634Z" fill="black"/>
<path fill-rule="evenodd" clip-rule="evenodd" d="M27.9023 20.9956C30.4241 20.9956 32.4187 23.0558 32.4187 25.5144C32.4187 28.0386 30.4241 30.0988 27.9023 30.0988C25.3757 30.0988 23.3859 28.0386 23.3859 25.5144C23.3859 23.0534 25.3757 20.9956 27.9023 20.9956ZM67.4952 20.9956C70.0171 20.9956 72.0116 23.0558 72.0116 25.5144C72.0116 28.0386 70.0171 30.0988 67.4952 30.0988C64.9687 30.0988 62.9085 28.0386 62.9085 25.5144C62.9085 23.0534 64.9687 20.9956 67.4952 20.9956ZM47.6999 20.9956C50.2218 20.9956 52.214 23.0558 52.214 25.5144C52.214 28.0386 50.2195 30.0988 47.6999 30.0988C45.1734 30.0988 43.1132 28.0386 43.1132 25.5144C43.1132 23.0534 45.171 20.9956 47.6999 20.9956Z" fill="black"/>
<path d="M266.187 20.8616C268.777 20.8616 270.837 22.9217 270.837 25.5116C270.837 28.1015 268.777 30.2296 266.187 30.2296H106.688C104.098 30.2296 101.97 28.1038 101.97 25.5116C101.97 22.9194 104.095 20.8616 106.688 20.8616H266.187Z" fill="black"/>
<path d="M45.1711 151.942C46.9664 153.803 46.8328 156.725 44.9719 158.521C43.111 160.246 40.1907 160.178 38.3953 158.319L28.6969 148.089C27.0352 146.293 27.0352 143.439 28.6969 141.711L38.3953 131.478C40.1907 129.552 43.111 129.486 44.9719 131.279C46.8328 133.007 46.9664 135.997 45.1711 137.858L38.5289 144.899L45.1711 151.942Z" fill="#E65402"/>
<path d="M261.6 158.319C259.809 160.178 256.887 160.246 254.96 158.521C253.101 156.725 253.033 153.803 254.826 151.942L261.466 144.899L254.826 137.858C253.031 135.997 253.101 133.009 254.96 131.279C256.887 129.486 259.809 129.552 261.6 131.478L271.235 141.711C272.96 143.439 272.96 146.296 271.235 148.089L261.6 158.319Z" fill="#E65402"/>
<path d="M195.837 173.001C195.837 175.527 193.777 177.651 191.187 177.651C188.597 177.651 186.471 175.527 186.471 173.001V134.535C186.471 131.945 188.594 129.817 191.187 129.817C192.584 129.817 193.91 130.482 194.775 131.544L203.414 140.514L222.945 124.569L201.949 97.8619C199.894 95.3376 197.7 93.1462 195.244 91.3509C192.785 89.5579 190.125 88.0954 187.003 86.9L176.972 83.0445C176.909 82.9789 176.838 83.0445 176.775 83.0445C176.707 83.0445 176.641 83.1102 176.641 83.1781V83.2438C176.573 83.3094 176.573 83.3774 176.508 83.443C174.712 89.1571 171.192 94.0064 166.474 97.4611C161.892 100.853 156.18 102.845 150 102.845C143.824 102.845 138.108 100.853 133.46 97.4658C128.745 93.9454 125.156 89.0282 123.363 83.2485C123.363 83.1828 123.363 83.1828 123.363 83.2485V83.1805C123.363 83.1125 123.298 83.0469 123.227 83.0469C123.164 83.0469 123.094 82.9813 123.03 83.0469H122.962L112.934 86.9024C109.875 88.0977 107.154 89.5602 104.763 91.3532C102.305 93.1485 100.113 95.34 98.0531 97.8642L76.9922 124.569L96.5883 140.514L105.49 131.279C107.22 129.421 110.208 129.353 112.066 131.146C112.995 132.076 113.529 133.272 113.529 134.535V206.751H133.922C136.512 206.751 138.64 208.811 138.64 211.401C138.64 213.991 136.514 216.121 133.922 216.121H108.813C106.223 216.121 104.163 213.993 104.163 211.401V146.162L100.378 150.081C98.7164 151.808 95.925 152.008 94.0664 150.48L67.5586 128.886C65.5664 127.293 65.2336 124.37 66.8273 122.375L90.7406 92.0821C93.3304 88.8266 96.1219 86.1032 99.1781 83.8438C102.302 81.5187 105.689 79.7258 109.608 78.1976L119.641 74.3421C119.705 74.2765 119.838 74.2085 119.972 74.2085C120.103 74.1429 120.171 74.1429 120.237 74.0749C122.695 73.3437 125.154 73.6109 127.282 74.607C129.405 75.6687 131.135 77.464 132.066 79.8547C132.199 80.1195 132.262 80.3187 132.33 80.4523C133.458 84.3055 135.851 87.561 139.038 89.886C142.095 92.1454 145.88 93.4743 149.998 93.4743C154.118 93.4743 157.905 92.1454 160.962 89.886C164.081 87.6266 166.406 84.3711 167.602 80.6516C167.67 80.5859 167.67 80.518 167.67 80.4523C167.733 80.3187 167.803 80.1195 167.934 79.8547C168.795 77.4617 170.59 75.6687 172.718 74.607C174.841 73.6109 177.3 73.3437 179.691 74.0749C179.96 74.2085 180.157 74.2742 180.359 74.3398L190.385 78.1953C194.241 79.7234 197.695 81.5164 200.749 83.8414C203.871 86.1008 206.662 88.8243 209.255 92.0798L233.037 122.242L233.1 122.307C234.759 124.368 234.429 127.29 232.437 128.884L206.062 150.344C204.204 151.937 201.347 151.872 199.622 150.076L195.832 146.158V173.001H195.837ZM176.97 83.0469C177.037 83.0469 177.037 83.0469 176.97 83.0469ZM176.508 83.4477C175.711 85.7727 173.121 87.036 170.726 86.3047Z" fill="#E65402"/>
</svg>
