<svg width="144" height="144" viewBox="0 0 144 144" fill="none" xmlns="http://www.w3.org/2000/svg">
<g clip-path="url(#clip0_9_99)">
<path d="M71.9993 128.508C70.8343 128.508 69.8899 129.453 69.8899 130.618V132.872C69.8899 134.037 70.8343 134.982 71.9993 134.982C73.1642 134.982 74.1087 134.037 74.1087 132.872V130.618C74.1087 129.453 73.1642 128.508 71.9993 128.508Z" fill="black"/>
<path d="M142.118 74.0404C140.991 72.8352 139.398 72.1439 137.747 72.1439C134.735 72.1439 132.182 74.3975 131.809 77.3862L128.742 101.908L128.188 102.781C127.983 99.8462 126.638 97.2213 124.591 95.3501C124.752 94.7215 124.836 94.0746 124.836 93.4171C124.836 89.1459 121.362 85.671 117.09 85.671C112.819 85.671 109.344 89.1457 109.344 93.4171C109.344 94.0763 109.427 94.7235 109.588 95.3518C107.542 97.223 106.198 99.8471 105.993 102.781L105.439 101.908L102.372 77.3864C101.998 74.3978 99.4452 72.1441 96.4332 72.1441C95.7894 72.1441 95.1496 72.2507 94.5421 72.4524C93.9382 72.2513 93.3017 72.1441 92.6557 72.1441C89.6438 72.1441 87.0905 74.3978 86.717 77.3864L83.65 101.908L83.0959 102.781C82.8908 99.8465 81.5462 97.2216 79.4989 95.3504C79.6609 94.7218 79.7445 94.0749 79.7445 93.4173C79.7445 89.1462 76.2699 85.6713 71.9987 85.6713C67.7276 85.6713 64.2527 89.1459 64.2527 93.4173C64.2527 94.0766 64.3348 94.7238 64.4966 95.3521C62.4502 97.2233 61.1061 99.8474 60.9013 102.781L60.3472 101.908L57.2802 77.3864C56.9064 74.3978 54.3534 72.1441 51.3415 72.1441C50.6966 72.1441 50.0609 72.251 49.4579 72.4515C48.8515 72.2488 48.2182 72.1441 47.5654 72.1441C44.5534 72.1441 42.0002 74.3978 41.6267 77.3864L38.5596 101.908L38.0056 102.781C37.8005 99.8465 36.4558 97.2216 34.4086 95.3504C34.5706 94.7218 34.6541 94.0749 34.6541 93.4173C34.6541 89.1462 31.1795 85.6713 26.9084 85.6713C22.6373 85.6713 19.1624 89.1459 19.1624 93.4173C19.1624 94.0766 19.2445 94.7238 19.4062 95.3521C17.3598 97.2233 16.0157 99.8474 15.811 102.781L15.2569 101.908L12.1898 77.3864C11.816 74.3978 9.2631 72.1441 6.25115 72.1441C4.60075 72.1441 3.00773 72.8355 1.88018 74.0406C0.752637 75.2458 0.169316 76.8816 0.279287 78.5283L1.83153 101.762C2.00225 104.322 2.70369 106.765 3.91618 109.026L14.4247 128.62C15.3115 130.273 15.7803 132.14 15.7803 134.016V141.891C15.7803 143.056 16.7248 144 17.8897 144C19.0547 144 19.9991 143.056 19.9991 141.891V134.016C19.9991 131.446 19.357 128.891 18.1423 126.626L13.8534 118.629L18.6125 115.061L20.3242 117.756C20.6592 121.094 23.4847 123.709 26.9095 123.709C30.3344 123.709 33.1595 121.094 33.4945 117.756L35.206 115.061L39.9636 118.629L35.6748 126.626C34.4601 128.89 33.818 131.446 33.818 134.016V141.89C33.818 143.055 34.7624 144 35.9274 144C37.0923 144 38.0368 143.055 38.0368 141.89V134.016C38.0368 132.14 38.5056 130.273 39.3924 128.619L49.454 109.859L59.5156 128.619C60.4024 130.273 60.8712 132.14 60.8712 134.016V141.89C60.8712 143.055 61.8157 144 62.9806 144C64.1456 144 65.09 143.055 65.09 141.89V134.016C65.09 131.446 64.4479 128.89 63.2332 126.626L58.9443 118.629L63.702 115.061L65.4137 117.756C65.7487 121.094 68.5742 123.709 71.9987 123.709C75.4233 123.709 78.2488 121.094 78.5837 117.756L80.2954 115.061L85.0531 118.629L80.7643 126.626C79.5496 128.891 78.9075 131.447 78.9075 134.017V141.891C78.9075 143.056 79.8519 144 81.0169 144C82.1818 144 83.1263 143.056 83.1263 141.891V134.017C83.1263 132.14 83.5951 130.274 84.4819 128.62L94.9904 109.026C96.2029 106.765 96.9043 104.322 97.075 101.763L98.5002 80.4279L101.311 102.902C101.35 103.211 101.456 103.508 101.623 103.771L106.525 111.489L102.018 114.869L101.078 113.116C100.527 112.089 99.2489 111.703 98.222 112.254C97.1954 112.804 96.8095 114.083 97.3602 115.11L104.606 128.62C105.493 130.274 105.962 132.14 105.962 134.017V141.891C105.962 143.056 106.907 144 108.072 144C109.236 144 110.181 143.056 110.181 141.891V134.017C110.181 131.447 109.539 128.891 108.324 126.626L104.035 118.63L108.793 115.062L110.505 117.757C110.84 121.095 113.665 123.709 117.09 123.709C120.514 123.709 123.34 121.095 123.675 117.757L125.387 115.062L130.144 118.63L125.855 126.626C124.641 128.891 123.999 131.447 123.999 134.017V141.891C123.999 143.056 124.943 144.001 126.108 144.001C127.273 144.001 128.217 143.056 128.217 141.891V134.017C128.217 132.14 128.686 130.274 129.573 128.62L140.082 109.027C141.294 106.766 141.995 104.322 142.166 101.763L143.718 78.5286C143.83 76.8813 143.246 75.2458 142.118 74.0404ZM65.0903 103.563C65.0903 99.7531 68.1897 96.654 71.9993 96.654C75.8089 96.654 78.908 99.7534 78.908 103.563C78.908 107.372 75.8086 110.472 71.9993 110.472C68.19 110.472 65.0903 107.372 65.0903 103.563ZM71.9993 89.8901C73.8035 89.8901 75.2933 91.2525 75.4995 93.0022C74.3981 92.636 73.2219 92.4349 71.9993 92.4349C70.7764 92.4349 69.6005 92.636 68.4988 93.0022C68.7053 91.2525 70.1951 89.8901 71.9993 89.8901ZM20.0002 103.563C20.0002 99.7531 23.0997 96.654 26.9092 96.654C30.7188 96.654 33.818 99.7534 33.818 103.563C33.818 107.372 30.7185 110.472 26.9092 110.472C23.0999 110.472 20.0002 107.372 20.0002 103.563ZM26.9092 89.8901C28.7135 89.8901 30.2033 91.2525 30.4094 93.0022C29.3081 92.636 28.1319 92.4349 26.9092 92.4349C25.6864 92.4349 24.5104 92.636 23.4088 93.0022C23.6152 91.2525 25.105 89.8901 26.9092 89.8901ZM11.8377 114.869L7.63492 107.033C6.70847 105.305 6.1724 103.437 6.0419 101.481L4.48966 78.2471C4.45675 77.754 4.62438 77.2835 4.96216 76.9226C5.29995 76.5618 5.75783 76.363 6.25199 76.363C7.14076 76.363 7.89423 77.0281 8.00449 77.9098L11.1301 102.901C11.1686 103.211 11.2755 103.507 11.4423 103.77L16.3437 111.489L11.8377 114.869ZM26.9092 119.49C25.5859 119.49 24.5096 118.413 24.5096 117.09V114.427C25.283 114.598 26.0855 114.691 26.9095 114.691C27.7336 114.691 28.5357 114.598 29.3092 114.427V117.09C29.3089 118.413 28.2325 119.49 26.9092 119.49ZM41.9805 114.869L37.4743 111.489L42.3757 103.771C42.5427 103.508 42.6493 103.211 42.6879 102.902L45.4979 80.4344L46.9227 101.763C46.9804 102.625 47.1033 103.472 47.2802 104.305C47.0116 105.25 46.6474 106.167 46.1833 107.033L41.9805 114.869ZM56.928 114.869L52.7253 107.033C51.7988 105.305 51.2627 103.437 51.1322 101.481L49.58 78.2471C49.5071 77.2422 50.336 76.363 51.3423 76.363C52.2311 76.363 52.9846 77.0281 53.0948 77.9098L56.2204 102.901C56.2589 103.211 56.3658 103.507 56.5329 103.77L61.4343 111.488L56.928 114.869ZM71.9993 119.49C70.676 119.49 69.5996 118.413 69.5996 117.09V114.427C70.3731 114.598 71.1755 114.691 71.9993 114.691C72.8231 114.691 73.6255 114.598 74.399 114.427V117.09C74.3992 118.413 73.3226 119.49 71.9993 119.49ZM94.4186 78.2468L92.8664 101.481C92.7359 103.437 92.1998 105.304 91.2733 107.032L87.0706 114.868L82.5643 111.488L87.4657 103.77C87.6328 103.507 87.7394 103.21 87.7779 102.901L90.9035 77.9096C91.0137 77.0276 91.7672 76.3627 92.656 76.3627C93.6603 76.3629 94.492 77.2421 94.4186 78.2468ZM110.182 103.563C110.182 99.7531 113.281 96.654 117.09 96.654C120.9 96.654 123.999 99.7534 123.999 103.563C123.999 107.372 120.9 110.472 117.09 110.472C113.281 110.472 110.182 107.372 110.182 103.563ZM117.091 89.8901C118.895 89.8901 120.385 91.2525 120.591 93.0022C119.49 92.636 118.314 92.4349 117.091 92.4349C115.868 92.4349 114.692 92.636 113.591 93.0022C113.797 91.2525 115.287 89.8901 117.091 89.8901ZM117.091 119.49C115.767 119.49 114.691 118.413 114.691 117.09V114.427C115.465 114.598 116.267 114.691 117.091 114.691C117.915 114.691 118.717 114.598 119.491 114.427V117.09C119.49 118.413 118.414 119.49 117.091 119.49ZM139.51 78.2468L137.958 101.481C137.827 103.437 137.291 105.304 136.365 107.032L132.162 114.868L127.656 111.488L132.557 103.77C132.724 103.507 132.831 103.21 132.869 102.901L135.995 77.9096C136.105 77.0276 136.859 76.3627 137.747 76.3627C138.242 76.3627 138.7 76.5615 139.037 76.9224C139.375 77.2835 139.543 77.7538 139.51 78.2468Z" fill="black"/>
<path d="M117.091 128.508C115.926 128.508 114.981 129.453 114.981 130.618V132.872C114.981 134.037 115.926 134.982 117.091 134.982C118.256 134.982 119.2 134.037 119.2 132.872V130.618C119.2 129.453 118.256 128.508 117.091 128.508Z" fill="black"/>
<path d="M26.9092 128.508C25.7443 128.508 24.7998 129.453 24.7998 130.618V132.872C24.7998 134.037 25.7443 134.982 26.9092 134.982C28.0742 134.982 29.0186 134.037 29.0186 132.872V130.618C29.0186 129.453 28.0742 128.508 26.9092 128.508Z" fill="black"/>
<path d="M103.928 42.3439C100.436 47.7355 101.26 50.4243 102.566 51.7307C103.182 52.3464 104.105 52.8552 105.473 52.8552C107.008 52.8552 109.103 52.2151 111.953 50.3686C112.699 49.8854 113.625 49.8857 114.371 50.3686C119.763 53.8615 122.452 53.0374 123.758 51.731C125.064 50.4246 125.889 47.7355 122.395 42.3442C121.912 41.5983 121.912 40.6718 122.395 39.9259C125.888 34.5343 125.064 31.8452 123.758 30.5391C122.451 29.2324 119.763 28.4089 114.371 31.9012C113.625 32.3841 112.698 32.3844 111.953 31.9012C106.561 28.4086 103.872 29.2327 102.566 30.5391C101.259 31.8455 100.435 34.5343 103.928 39.9262C104.412 40.6715 104.412 41.598 103.928 42.3439C103.928 42.3436 103.928 42.3436 103.928 42.3439ZM107.469 37.632C106.137 35.5764 105.749 34.2615 105.681 33.6537C106.289 33.7223 107.604 34.1102 109.659 35.4414C111.787 36.8201 114.537 36.8198 116.665 35.4414C118.721 34.1096 120.035 33.722 120.643 33.6534C120.574 34.2609 120.187 35.5761 118.855 37.6315C117.477 39.7594 117.477 42.5093 118.855 44.6372C120.187 46.6926 120.574 48.0075 120.643 48.6153C120.035 48.5467 118.72 48.1588 116.665 46.8274C114.537 45.4489 111.787 45.4492 109.659 46.8274C107.604 48.1591 106.289 48.5469 105.681 48.6153C105.749 48.0078 106.137 46.6929 107.469 44.6372C108.848 42.5095 108.848 39.7597 107.469 37.632Z" fill="#E65402"/>
<path d="M70.3318 55.9195C69.4492 56.802 68.9629 57.9754 68.9629 59.2236C68.9629 60.4718 69.4492 61.6452 70.3315 62.5275L73.9563 66.1523C74.8388 67.0349 76.0122 67.5212 77.2604 67.5212C78.5087 67.5212 79.682 67.0349 80.5643 66.1526L84.1891 62.5278C85.0717 61.6452 85.558 60.4718 85.558 59.2236C85.558 57.9754 85.0717 56.802 84.1894 55.9197L80.5646 52.295C79.682 51.4124 78.5087 50.9261 77.2604 50.9261C76.0122 50.9261 74.8388 51.4124 73.9566 52.2947L70.3318 55.9195ZM77.2604 55.1449C77.3462 55.1449 77.4714 55.168 77.5814 55.2779L81.2064 58.903C81.3161 59.0127 81.3392 59.1379 81.3392 59.2236C81.3392 59.3094 81.3161 59.4346 81.2062 59.5445L77.5811 63.1696C77.4714 63.2793 77.3462 63.3024 77.2604 63.3024C77.1747 63.3024 77.0495 63.2793 76.9398 63.1696L73.3147 59.5445C73.205 59.4349 73.182 59.3097 73.182 59.2239C73.182 59.1381 73.205 59.013 73.315 58.903L76.9401 55.2779C77.0495 55.168 77.1747 55.1449 77.2604 55.1449Z" fill="#E65402"/>
<path d="M16.785 38.3512C17.6357 39.202 18.7529 39.6273 19.8706 39.6273C20.988 39.6273 22.1057 39.2017 22.9565 38.3512L26.1448 35.1627C27.8461 33.4613 27.8461 30.6927 26.1448 28.9911L22.9565 25.8028C21.2549 24.1015 18.4863 24.1015 16.7852 25.8028L13.5967 28.9914C11.8954 30.693 11.8954 33.4613 13.5967 35.1627L16.785 38.3512ZM16.5796 31.9744L19.7682 28.7861C19.7966 28.7577 19.8337 28.7436 19.8709 28.7436C19.908 28.7436 19.9454 28.7577 19.9735 28.7861L23.1618 31.9744C23.2186 32.0312 23.2186 32.1231 23.1618 32.1797L19.9735 35.368C19.9167 35.4245 19.8247 35.4248 19.7682 35.368L16.5796 32.1794C16.5231 32.1231 16.5231 32.0309 16.5796 31.9744Z" fill="#E65402"/>
<path d="M91.5158 12.07C92.3666 12.9208 93.484 13.3461 94.6017 13.3461C95.7191 13.3461 96.8368 12.9205 97.6876 12.07L99.9987 9.75895C101.7 8.05737 101.7 5.28898 99.9987 3.5874L97.6873 1.27605C95.986 -0.42525 93.2174 -0.42525 91.5158 1.27605L89.2047 3.5874C87.5031 5.28898 87.5031 8.05737 89.2047 9.75895L91.5158 12.07ZM92.188 6.57038L94.4988 4.25931C94.5556 4.2025 94.6478 4.2025 94.7044 4.25931L97.0154 6.57066C97.0258 6.58135 97.0579 6.61313 97.0579 6.67332C97.0579 6.73322 97.0258 6.76529 97.0154 6.77597L94.7044 9.08704C94.6475 9.14357 94.5556 9.14357 94.4988 9.08704L92.1877 6.77597C92.1773 6.76529 92.1452 6.7335 92.1452 6.67332C92.1452 6.61313 92.1773 6.58106 92.188 6.57038Z" fill="#E65402"/>
<path d="M48.6808 31.796C49.9496 32.1608 50.9643 33.1756 51.3291 34.4443C53.3553 41.4923 56.6741 42.5447 58.4718 42.5447C60.2699 42.5447 63.5887 41.4923 65.6148 34.4443C65.9796 33.1756 66.9944 32.1608 68.2631 31.796C75.3111 29.7699 76.3635 26.4511 76.3635 24.653C76.3635 22.855 75.3111 19.5362 68.2634 17.5103C66.9947 17.1455 65.9799 16.1308 65.6151 14.862C63.589 7.81409 60.2702 6.76192 58.4721 6.76192C57.3072 6.76192 56.3627 7.70637 56.3627 8.87132C56.3627 10.0363 57.3072 10.9807 58.4721 10.9807C59.0062 10.9807 60.4642 12.2143 61.5606 16.0278C62.323 18.6806 64.4448 20.8024 67.0979 21.5652C70.9114 22.6612 72.145 24.1192 72.145 24.6533C72.145 25.1877 70.9114 26.6454 67.0979 27.7418C64.4451 28.5042 62.3233 30.626 61.5608 33.2788C60.4648 37.0923 59.0068 38.3259 58.4724 38.3259C57.9383 38.3259 56.4803 37.0923 55.3842 33.2788C54.6218 30.626 52.5 28.5042 49.8469 27.7418C46.0334 26.6457 44.7998 25.1877 44.7998 24.6533C44.7998 24.1192 46.0334 22.6612 49.8469 21.5652C52.1982 20.889 54.1599 19.1298 55.0945 16.8592C55.5381 15.782 55.0239 14.5493 53.9465 14.1057C52.8698 13.6628 51.6365 14.1763 51.193 15.2538C50.7444 16.3437 49.8053 17.1874 48.6811 17.5106C41.6332 19.5367 40.581 22.8555 40.581 24.6533C40.5804 26.4511 41.6329 29.7699 48.6808 31.796Z" fill="#E65402"/>
<path d="M32.1802 14.8716C32.592 15.2833 33.132 15.4895 33.6717 15.4895C34.2115 15.4895 34.7515 15.2836 35.1632 14.8716C35.987 14.0478 35.987 12.7121 35.1632 11.8886L32.9087 9.63408C32.0849 8.81029 30.7492 8.81029 29.9257 9.63408C29.1019 10.4579 29.1019 11.7935 29.9257 12.6171L32.1802 14.8716Z" fill="black"/>
<path d="M110.327 17.744C110.867 17.744 111.407 17.5382 111.818 17.1261L114.073 14.8716C114.897 14.0478 114.897 12.7121 114.073 11.8886C113.249 11.0648 111.913 11.0648 111.09 11.8886L108.835 14.1431C108.012 14.9669 108.012 16.3026 108.835 17.1261C109.247 17.5382 109.787 17.744 110.327 17.744Z" fill="black"/>
<path d="M32.1802 41.1981C31.3564 42.0219 31.3564 43.3575 32.1802 44.1811L34.4348 46.4356C34.8465 46.8473 35.3865 47.0535 35.9262 47.0535C36.466 47.0535 37.006 46.8476 37.4177 46.4356C38.2415 45.6118 38.2415 44.2761 37.4177 43.4526L35.1632 41.1981C34.3394 40.3743 33.0037 40.3743 32.1802 41.1981Z" fill="black"/>
<path d="M84.0353 37.4175C84.447 37.8292 84.987 38.0354 85.5268 38.0354C86.0665 38.0354 86.6065 37.8295 87.0183 37.4175C87.8421 36.5937 87.8421 35.258 87.0183 34.4345L84.7637 32.1799C83.9399 31.3562 82.6043 31.3562 81.7807 32.1799C80.957 33.0037 80.957 34.3394 81.7807 35.1629L84.0353 37.4175Z" fill="black"/>
<path d="M135.89 57.7085C136.302 58.1203 136.842 58.3264 137.382 58.3264C137.922 58.3264 138.462 58.1205 138.873 57.7085C139.697 56.8847 139.697 55.549 138.873 54.7255L136.619 52.471C135.795 51.6472 134.459 51.6472 133.636 52.471C132.812 53.2948 132.812 54.6305 133.636 55.454L135.89 57.7085Z" fill="black"/>
<path d="M52.4713 52.4707L50.2168 54.7253C49.393 55.549 49.393 56.8847 50.2168 57.7082C50.6285 58.12 51.1685 58.3261 51.7082 58.3261C52.248 58.3261 52.788 58.1203 53.1997 57.7082L55.4543 55.4537C56.2781 54.6299 56.2781 53.2942 55.4543 52.4707C54.6305 51.6472 53.2948 51.6472 52.4713 52.4707Z" fill="black"/>
<path d="M115.599 65.9982L113.344 68.2527C112.521 69.0765 112.521 70.4122 113.344 71.2357C113.756 71.6475 114.296 71.8536 114.836 71.8536C115.376 71.8536 115.916 71.6477 116.327 71.2357L118.582 68.9812C119.406 68.1574 119.406 66.8217 118.582 65.9982C117.758 65.1744 116.423 65.1744 115.599 65.9982Z" fill="black"/>
<path d="M23.1618 63.7437L20.9073 65.9982C20.0835 66.822 20.0835 68.1577 20.9073 68.9812C21.319 69.3929 21.859 69.5991 22.3988 69.5991C22.9385 69.5991 23.4785 69.3932 23.8903 68.9812L26.1448 66.7266C26.9686 65.9029 26.9686 64.5672 26.1448 63.7437C25.3213 62.9199 23.9856 62.9199 23.1618 63.7437Z" fill="black"/>
</g>
<defs>
<clipPath id="clip0_9_99">
<rect width="144" height="144" fill="white"/>
</clipPath>
</defs>
</svg>
