<svg width="164" height="164" viewBox="0 0 164 164" fill="none" xmlns="http://www.w3.org/2000/svg">
<g clip-path="url(#clip0_47_137)">
<path fill-rule="evenodd" clip-rule="evenodd" d="M158.44 163.839H66.7227C66.189 163.839 65.5227 163.572 65.1224 163.173C64.7221 162.772 64.4562 162.24 64.4562 161.572L64.5896 134.244C64.7231 119.714 76.4542 107.982 90.9848 107.982H92.5841C93.7841 107.982 94.8507 109.049 94.8507 110.249C94.8507 111.449 93.7841 112.516 92.5841 112.516H90.9848C78.9867 112.516 69.2552 122.381 69.1218 134.379L68.9883 159.441H156.173L156.04 134.379C155.907 122.381 146.175 112.516 134.177 112.516H132.578C131.378 112.516 130.311 111.449 130.311 110.249C130.311 109.049 131.378 107.982 132.578 107.982H134.178C148.576 107.982 160.441 119.847 160.441 134.245L160.574 161.573C160.574 162.107 160.307 162.773 159.908 163.174C159.641 163.574 158.975 163.84 158.441 163.84L158.44 163.839Z" fill="black"/>
<path fill-rule="evenodd" clip-rule="evenodd" d="M142.576 146.508H134.178C130.845 146.508 128.045 143.709 128.045 140.376V136.51C128.045 135.31 129.112 134.243 130.312 134.243H146.443C147.643 134.243 148.709 135.31 148.709 136.51V140.376C148.709 143.709 145.91 146.508 142.577 146.508H142.576ZM132.578 138.643V140.243C132.578 141.176 133.377 141.976 134.178 141.976H142.576C143.509 141.976 144.176 141.176 144.176 140.243V138.643H132.579H132.578ZM124.579 108.115C123.379 108.115 122.312 107.048 122.312 105.848V95.3172C122.312 94.1172 123.379 93.0507 124.579 93.0507C125.779 93.0507 126.845 94.1172 126.845 95.3172V105.848C126.845 107.182 125.912 108.115 124.579 108.115ZM100.449 108.115C99.2494 108.115 98.1828 107.048 98.1828 105.848V95.9835C98.1828 94.7835 99.2494 93.7169 100.449 93.7169C101.649 93.7169 102.716 94.65 102.716 95.9835V105.982C102.716 107.182 101.783 108.115 100.449 108.115ZM131.645 79.1864C131.511 79.1864 131.378 79.1864 131.244 79.1864C130.311 79.0529 129.644 78.3867 129.511 77.4536C127.911 70.2546 126.445 66.2552 125.512 65.7224C125.245 65.589 124.179 65.8559 123.245 66.1227C120.179 67.0559 115.647 68.5227 108.315 65.4565C107.248 65.0562 106.182 64.3899 104.982 63.5903C103.648 62.7906 101.116 61.0568 100.182 61.4571C100.049 61.4571 99.3828 61.8575 98.8491 64.7903C97.5156 72.9224 95.1166 77.588 94.9831 77.7214C94.5828 78.5211 93.6497 78.9214 92.85 78.9214C91.9169 78.788 91.2497 78.2552 90.9838 77.3211C90.1841 74.5218 89.3835 72.6555 88.5838 70.9218C86.851 66.789 85.7844 63.9896 86.1838 55.4581C86.4507 49.726 90.0497 43.9929 95.6484 40.2604C101.647 36.261 108.713 35.1945 114.846 37.3276C120.178 39.1938 122.31 38.3942 122.978 37.9938C123.644 37.5935 123.777 36.9273 123.777 36.9273C123.777 35.9942 124.444 35.327 125.244 34.9276C126.044 34.6607 126.977 34.7942 127.644 35.4614C138.042 45.8591 142.975 54.525 137.776 68.3893C137.776 68.5227 134.71 76.6549 133.777 78.1208C133.11 78.787 132.311 79.1873 131.644 79.1873L131.645 79.1864ZM108.315 40.7932C104.848 40.7932 101.249 41.8598 98.0494 44.1263C93.6497 47.0591 90.7169 51.5912 90.451 55.8575C90.0507 63.4559 90.9848 65.589 92.5841 69.4549C92.7176 69.7218 92.851 70.1211 92.9844 70.388C93.5182 68.6552 93.9175 66.6555 94.3179 64.2555C94.8516 60.6565 96.1841 58.5234 98.1838 57.5903C101.25 56.2568 104.583 58.2565 107.116 59.9903C108.049 60.6565 109.115 61.1903 109.782 61.4571C115.647 63.8571 119.113 62.7906 121.78 61.9909C123.646 61.4571 125.645 60.7909 127.645 61.9909C129.378 63.0575 130.711 65.1906 132.177 70.1231C132.578 68.9231 133.11 67.8565 133.377 67.0568C137.377 56.3922 134.31 49.5935 126.312 41.061C126.045 41.3279 125.645 41.7273 125.245 41.9942C122.579 43.7269 118.446 43.7269 113.114 41.8607C111.647 41.061 109.914 40.7942 108.315 40.7942V40.7932Z" fill="black"/>
<path fill-rule="evenodd" clip-rule="evenodd" d="M112.314 102.782C102.316 102.782 91.4801 94.65 90.9464 76.7874C90.9464 75.5874 91.8795 74.5208 93.0795 74.5208C94.2795 74.5208 95.346 75.4539 95.346 76.6539C95.8798 91.5848 104.449 98.25 112.314 98.25C120.179 98.25 129.136 91.4724 129.669 76.675C129.669 75.475 130.735 74.4085 131.935 74.5419C133.135 74.5419 134.202 75.6085 134.069 76.8085C133.535 94.8046 122.179 102.782 112.314 102.782ZM100.85 125.712C100.716 125.712 100.583 125.712 100.449 125.712C99.7831 125.578 99.2494 125.178 98.9825 124.645L90.7169 111.314C90.1832 110.514 90.3166 109.581 90.8504 108.78L95.7828 102.381C96.4491 101.448 97.916 101.181 98.8491 101.847L114.047 112.378C114.581 112.779 114.98 113.445 114.98 114.111C114.98 114.777 114.713 115.445 114.18 115.977L102.182 125.309C101.782 125.576 101.383 125.71 100.849 125.71L100.85 125.712ZM95.251 110.382L101.383 120.246L108.716 114.381L97.7844 106.782L95.251 110.382V110.382Z" fill="black"/>
<path fill-rule="evenodd" clip-rule="evenodd" d="M124.312 125.712C123.778 125.712 123.379 125.578 122.979 125.178L111.114 115.98C110.58 115.58 110.181 114.914 110.314 114.114C110.314 113.448 110.715 112.781 111.247 112.381L126.445 101.85C127.378 101.184 128.845 101.316 129.511 102.384L134.444 108.783C134.978 109.583 135.11 110.516 134.577 111.317L126.312 124.648C125.911 125.182 125.379 125.581 124.845 125.715C124.578 125.714 124.445 125.714 124.311 125.714L124.312 125.712ZM116.313 114.38L123.646 120.246L129.778 110.381L127.112 106.914L116.314 114.379L116.313 114.38Z" fill="black"/>
<path fill-rule="evenodd" clip-rule="evenodd" d="M108.448 131.045C107.648 131.045 106.981 130.644 106.582 129.978L101.783 122.38C101.117 121.446 101.445 120.117 102.378 119.451L111.115 112.515C111.915 111.848 113.115 111.848 113.914 112.515L122.18 119.046C122.98 119.713 123.246 120.913 122.714 121.846L118.447 129.711C118.047 130.377 117.381 130.778 116.581 130.911L108.449 131.045H108.448ZM106.714 121.713L109.647 126.512L115.112 126.379L117.912 121.313L112.579 117.047L106.713 121.712L106.714 121.713Z" fill="black"/>
<path fill-rule="evenodd" clip-rule="evenodd" d="M120.046 163.839H105.115C104.449 163.839 103.915 163.572 103.515 163.039C103.114 162.506 102.848 161.973 102.981 161.307L106.314 128.645C106.447 127.579 107.381 126.646 108.447 126.646L116.446 126.379C117.646 126.379 118.579 127.179 118.712 128.379L122.311 161.307C122.445 161.973 122.178 162.507 121.778 163.039C121.245 163.572 120.579 163.839 120.046 163.839ZM107.647 159.307H117.512L114.446 130.912L110.447 131.045L107.647 159.307ZM47.3922 70.9218H32.1945C30.9945 70.9218 30.0614 69.9886 29.9279 68.7887L29.5276 62.5227C26.5948 61.4562 23.7955 59.8568 21.3955 57.8572L15.7968 60.6565C14.7302 61.1903 13.3968 60.7899 12.864 59.7234L5.26558 46.6588C4.73182 45.5922 4.9987 44.2588 5.93182 43.726L11.1312 40.2594C10.8643 38.6591 10.7308 37.0598 10.7308 35.5938C10.7308 33.9935 10.8643 32.3942 11.1312 30.9283L5.93182 27.4617C4.9987 26.7955 4.59838 25.462 5.26558 24.5289L12.864 11.4643C13.3977 10.3977 14.7302 9.99742 15.7968 10.5312L21.3955 13.0637C23.7955 11.064 26.5948 9.46462 29.5276 8.39806L29.9279 2.13215C30.0614 0.932157 30.9945 -0.000961304 32.1945 -0.000961304H47.3922C48.5922 -0.000961304 49.5253 0.932157 49.6588 2.13215L50.0591 8.39806C52.9919 9.46462 55.7912 11.064 58.1912 13.0637L63.7899 10.2643C64.8565 9.73054 66.1899 10.1309 66.7227 11.1974L74.3211 24.262C74.8549 25.3286 74.588 26.662 73.6549 27.1948L68.323 30.6604C68.5899 32.2607 68.7234 33.8601 68.7234 35.326C68.7234 36.9263 68.5899 38.5257 68.323 39.9916L73.5224 43.4581C74.4555 44.1244 74.8558 45.4578 74.1886 46.3909L66.7237 59.7224C66.1899 60.789 64.8574 61.1893 63.7909 60.6555L58.1922 57.8562C55.7922 59.8559 52.9928 61.4552 50.06 62.5218L49.6597 68.7877C49.5263 69.9877 48.5932 70.9208 47.3932 70.9208L47.3922 70.9218ZM34.3276 66.3887H45.2591L45.6594 60.7899C45.6594 59.8568 46.3256 59.0572 47.2597 58.7903C50.5928 57.7237 53.7915 55.8575 56.4584 53.4575C57.1247 52.7912 58.1912 52.6578 58.9919 53.0572L64.0578 55.5906L69.523 46.126L64.724 43.0597C63.9243 42.526 63.524 41.5929 63.7909 40.6598C64.1912 38.927 64.3246 37.1932 64.3246 35.327C64.3246 33.4607 64.1912 31.7279 63.7909 29.9942C63.6575 29.0611 63.9243 28.1279 64.724 27.5942L69.523 24.5279L64.0578 15.0633L58.9919 17.5968C58.1922 17.9971 57.1256 17.8636 56.4584 17.1964C53.7925 14.7964 50.7263 12.9302 47.2597 11.8637C46.3266 11.5968 45.7929 10.7971 45.6594 9.86398L45.2591 4.26527H34.3276L33.9273 9.86398C33.9273 10.7971 33.261 11.5968 32.327 11.8637C28.9938 12.9302 25.7951 14.7964 23.1283 17.1964C22.462 17.8627 21.3955 17.9961 20.5948 17.5968L15.5289 15.0633L10.0636 24.5279L14.8627 27.5942C15.6624 28.1279 16.0627 29.0611 15.7958 29.9942C15.3955 31.727 15.262 33.4607 15.262 35.327C15.262 37.0598 15.3955 38.926 15.7958 40.6598C15.9292 41.5929 15.6624 42.526 14.8627 43.0597L10.0636 46.126L15.5289 55.5906L20.5948 53.0572C21.3945 52.6568 22.4611 52.7903 23.1283 53.4575C25.7942 55.8575 28.8604 57.7237 32.327 58.7903C33.2601 59.0572 33.7938 59.8568 33.9273 60.7899L34.3276 66.3887Z" fill="#E65402"/>
<path fill-rule="evenodd" clip-rule="evenodd" d="M39.7938 54.1247C29.5286 54.1247 21.1305 45.7266 21.1305 35.4614C21.1305 25.1961 29.5286 16.798 39.7938 16.798C50.0591 16.798 58.4571 25.1961 58.4571 35.4614C58.4571 45.7266 50.0591 54.1247 39.7938 54.1247ZM39.7938 21.1967C31.9286 21.1967 25.6627 27.5961 25.6627 35.3279C25.6627 43.1932 32.062 49.4591 39.7938 49.4591C47.6591 49.4591 53.925 43.0597 53.925 35.3279C53.925 27.5961 47.6601 21.1967 39.7938 21.1967Z" fill="#E65402"/>
<path fill-rule="evenodd" clip-rule="evenodd" d="M56.7244 113.181H22.8633C21.7967 113.181 20.8636 112.381 20.5968 111.315C19.2633 102.249 15.9312 98.9163 12.3312 95.3172C7.79902 90.6507 3.26591 86.1185 3.26591 71.9874C3.26591 63.8552 4.72414 56.9567 8.85694 51.0911C9.52317 50.0245 10.9901 49.7576 11.9232 50.5573C12.9897 51.2236 13.2566 52.6904 12.4569 53.6236C8.99037 58.8229 7.66558 64.7883 7.66558 71.9874C7.66558 84.1179 11.2646 87.7179 15.3974 91.9841C18.9964 95.5831 22.8623 99.4491 24.5961 108.648H54.7237C56.4565 99.5825 60.4559 95.5831 63.9224 91.9841C68.0552 87.8513 71.6542 84.2523 71.6542 71.9874C71.6542 64.9218 70.1211 58.7816 66.6555 53.7157C65.9893 52.6492 66.2552 51.3157 67.1893 50.6495C68.2559 49.9832 69.5893 50.2492 70.2555 51.1832C74.3883 57.0488 76.0549 63.9896 76.0549 71.9883C76.0549 85.986 71.3893 90.6516 66.9896 95.1838C63.3906 98.7828 60.0575 102.249 58.724 111.181C58.8575 112.381 57.9244 113.181 56.7244 113.181ZM56.7244 121.18H22.8633C21.6633 121.18 20.5968 120.113 20.5968 118.913C20.5968 117.713 21.6633 116.646 22.8633 116.646H56.7244C57.9244 116.646 58.9909 117.713 58.9909 118.913C58.9909 120.113 58.0578 121.18 56.7244 121.18ZM56.7244 128.778H22.8633C21.6633 128.778 20.5968 127.711 20.5968 126.511C20.5968 125.311 21.6633 124.245 22.8633 124.245H56.7244C57.9244 124.245 58.9909 125.311 58.9909 126.511C58.9909 127.711 58.0578 128.778 56.7244 128.778Z" fill="#E65402"/>
<path fill-rule="evenodd" clip-rule="evenodd" d="M39.7938 140.643C33.1286 140.643 26.3289 135.71 26.3289 126.511C26.3289 125.311 27.3955 124.245 28.5954 124.245C29.7954 124.245 30.862 125.311 30.862 126.511C30.862 133.177 35.3942 136.243 39.7938 136.243C44.1935 136.243 48.7256 133.31 48.7256 126.511C48.7256 125.311 49.7922 124.245 50.9922 124.245C52.1922 124.245 53.2588 125.311 53.2588 126.511C53.2597 135.843 46.461 140.643 39.7948 140.643H39.7938ZM39.7938 113.181C38.5938 113.181 37.5273 112.114 37.5273 110.914V83.5851C37.5273 82.3851 38.5938 81.3185 39.7938 81.3185C40.9938 81.3185 42.0604 82.3851 42.0604 83.5851V110.913C42.0604 112.113 40.9938 113.18 39.7938 113.18V113.181Z" fill="#E65402"/>
<path fill-rule="evenodd" clip-rule="evenodd" d="M48.0584 85.8516H31.5282C30.3282 85.8516 29.2617 84.7851 29.2617 83.5851C29.2617 82.3851 30.3282 81.3185 31.5282 81.3185H48.0584C49.2584 81.3185 50.325 82.3851 50.325 83.5851C50.325 84.7851 49.2584 85.8516 48.0584 85.8516Z" fill="#E65402"/>
</g>
<defs>
<clipPath id="clip0_47_137">
<rect width="163.839" height="163.839" fill="white"/>
</clipPath>
</defs>
</svg>
