<svg width="854" height="938" viewBox="0 0 854 938" fill="none" xmlns="http://www.w3.org/2000/svg">
<g clip-path="url(#clip0_25_71)">
<path d="M853.92 706.461C849.557 661.51 795.368 629.94 764.997 615.636C775.712 599.045 782.171 578.145 782.171 555.399C782.171 501.683 746.423 457.964 702.482 457.964C658.541 457.964 622.793 501.669 622.793 555.399C622.793 578.145 629.251 599.045 639.966 615.636C618.016 625.968 583.789 645.373 564.748 672.312C545.693 645.388 511.479 625.983 489.529 615.636C500.244 599.045 506.702 578.145 506.702 555.399C506.702 501.683 470.954 457.964 427.013 457.964C383.072 457.964 347.324 501.669 347.324 555.399C347.324 578.145 353.783 599.045 364.498 615.636C342.547 625.968 308.321 645.373 289.279 672.312C270.224 645.388 236.011 625.983 214.06 615.636C224.775 599.045 231.234 578.145 231.234 555.399C231.234 501.683 195.486 457.964 151.545 457.964C107.604 457.964 71.8561 501.669 71.8561 555.399C71.8561 578.145 78.3145 599.045 89.0295 615.636C58.6591 629.94 4.48348 661.51 0.106735 706.461C0.0533599 706.988 0.0266724 707.531 0.0266724 708.058V798.898C0.0266724 807.252 6.19149 814.023 13.7974 814.023H840.243C847.849 814.023 854.013 807.252 854.013 798.898V708.058C854.013 707.516 853.973 706.988 853.92 706.461ZM702.482 488.229C731.238 488.229 754.629 518.362 754.629 555.399C754.629 578.394 745.595 598.679 731.891 610.799C731.664 611.034 731.371 611.166 731.157 611.415C722.924 618.435 713.077 622.583 702.495 622.583C691.913 622.583 682.039 618.435 673.806 611.4C673.606 611.166 673.326 611.048 673.112 610.814C659.395 598.693 650.361 578.394 650.361 555.399C650.361 518.362 673.753 488.229 702.508 488.229H702.482ZM427 488.229C455.756 488.229 479.147 518.362 479.147 555.399C479.147 578.38 470.127 598.679 456.423 610.799C456.183 611.034 455.876 611.166 455.662 611.429C447.429 618.45 437.595 622.583 427.013 622.583C416.432 622.583 406.571 618.435 398.338 611.415C398.124 611.166 397.831 611.048 397.617 610.814C383.9 598.693 374.879 578.394 374.879 555.399C374.879 518.362 398.271 488.229 427.027 488.229H427ZM151.518 488.229C180.274 488.229 203.666 518.362 203.666 555.399C203.666 578.38 194.632 598.679 180.941 610.799C180.701 611.034 180.407 611.166 180.181 611.429C171.948 618.45 162.113 622.583 151.518 622.583C140.923 622.583 131.089 618.435 122.843 611.415C122.629 611.166 122.335 611.034 122.109 610.799C108.391 598.679 99.3709 578.38 99.3709 555.399C99.3709 518.362 122.762 488.229 151.518 488.229ZM27.5548 708.952C31.0109 680.944 77.4871 652.423 110.406 638.705C122.429 647.601 136.467 652.833 151.518 652.833C166.57 652.833 180.608 647.616 192.63 638.705C225.549 652.423 272.039 680.944 275.482 708.952V783.758H27.5548V708.952ZM303.037 708.952C306.493 680.944 352.969 652.423 385.888 638.705C397.911 647.601 411.948 652.833 427 652.833C442.052 652.833 456.089 647.616 468.112 638.705C501.031 652.423 547.521 680.944 550.963 708.952V783.758H303.023L303.037 708.952ZM826.445 783.772H578.505V708.967C581.961 680.959 628.437 652.438 661.356 638.719C673.379 647.616 687.417 652.848 702.468 652.848C717.52 652.848 731.558 647.63 743.58 638.719C776.499 652.438 822.989 680.959 826.432 708.967V783.772H826.445Z" fill="black"/>
<path d="M263.165 488.229C270.771 488.229 276.936 481.458 276.936 473.104V209.35L337.77 157.54L396.963 198.446V417.879C396.963 426.233 403.128 433.004 410.734 433.004C418.34 433.004 424.505 426.233 424.505 417.879V302.314H577.037V479.904C577.037 488.258 583.202 495.029 590.808 495.029C598.414 495.029 604.579 488.258 604.579 479.904V287.174C604.579 285.328 604.178 283.598 603.618 281.928C603.458 281.459 603.271 281.034 603.071 280.594C602.51 279.333 601.803 278.176 600.949 277.135C600.722 276.871 600.562 276.563 600.322 276.314C599.308 275.244 598.174 274.292 596.879 273.603L417.446 176.842L344.269 126.278C339.358 122.878 333.073 123.215 328.496 127.114L254.705 189.945C251.343 192.818 249.368 197.229 249.368 201.904V473.06C249.368 481.414 255.533 488.185 263.139 488.185L263.165 488.229ZM424.518 214.377L531.508 272.079H424.518V214.377Z" fill="#E65402"/>
<path d="M373.638 265.908C373.638 255.429 365.886 246.914 356.345 246.914H317.568C308.027 246.914 300.274 255.429 300.274 265.908V308.499C300.274 318.979 308.027 327.494 317.568 327.494H356.345C365.886 327.494 373.638 318.979 373.638 308.499V265.908ZM346.097 297.229H327.843V277.164H346.097V297.229ZM356.345 352.439H317.568C308.027 352.439 300.274 360.954 300.274 371.433V414.024C300.274 424.504 308.027 433.019 317.568 433.019H356.345C365.886 433.019 373.638 424.504 373.638 414.024V371.433C373.638 360.954 365.886 352.439 356.345 352.439ZM346.097 402.754H327.843V382.704H346.097V402.754Z" fill="#E65402"/>
</g>
<defs>
<clipPath id="clip0_25_71">
<rect width="854" height="938" fill="white"/>
</clipPath>
</defs>
</svg>
