<svg width="512" height="512" viewBox="0 0 512 512" fill="none" xmlns="http://www.w3.org/2000/svg">
<path d="M376.507 208.311C372.26 209.53 369.807 213.962 371.027 218.208C373.713 227.562 375.649 237.221 376.779 246.919C377.254 250.993 380.712 253.994 384.715 253.994C385.024 253.994 385.337 253.976 385.651 253.939C390.039 253.427 393.182 249.455 392.671 245.066C391.439 234.504 389.331 223.981 386.404 213.79C385.185 209.545 380.755 207.091 376.507 208.311Z" fill="#E65402"/>
<path d="M339.663 156.939C341.241 158.95 343.589 159.999 345.961 159.999C347.689 159.999 349.431 159.442 350.896 158.291C354.371 155.562 354.976 150.533 352.248 147.059C314.797 99.358 258.576 72 198 72C194.442 72 190.845 72.097 187.307 72.287C182.895 72.525 179.511 76.295 179.749 80.707C179.987 85.118 183.762 88.493 188.167 88.265C188.774 88.232 189.389 88.218 189.999 88.191V152C189.999 156.418 193.581 160 197.999 160C202.417 160 205.999 156.418 205.999 152V88.634C231.79 92.721 255.692 116.466 272.509 155.187C273.818 158.203 276.761 160.003 279.85 160.003C280.914 160.003 281.995 159.79 283.033 159.339C287.085 157.579 288.944 152.867 287.184 148.814C277.687 126.948 265.917 109.274 252.632 96.407C286.627 107.174 316.916 127.966 339.663 156.939Z" fill="#E65402"/>
<path d="M198 464C214.139 464 230.19 462.032 245.705 458.152C249.991 457.079 252.597 452.736 251.525 448.45C250.452 444.163 246.111 441.554 241.823 442.63C230.142 445.552 218.125 447.272 206.001 447.804V360H226.001C230.419 360 234.001 356.418 234.001 352C234.001 347.582 230.419 344 226.001 344H206.001V216C206.001 211.582 202.419 208 198.001 208C193.583 208 190.001 211.582 190.001 216V344H111.06C105.13 320.492 102.001 294.704 102.001 268C102.001 250.741 103.323 233.667 105.931 217.256C106.625 212.892 103.649 208.793 99.286 208.1C94.922 207.405 90.823 210.382 90.13 214.745C87.389 231.986 86 249.903 86 268C86 294.526 88.966 320.262 94.603 344H34.857C24.051 320.898 18 295.144 18 268C18 234.339 27.346 201.517 45.029 173.083C47.362 169.332 46.212 164.399 42.46 162.065C38.706 159.729 33.775 160.882 31.442 164.634C12.181 195.606 2 231.349 2 268C2 376.075 89.925 464 198 464ZM190 360V447.354C168.204 443.892 147.662 426.35 131.461 397.064C125.252 385.841 119.962 373.384 115.644 360H190ZM98.897 360C103.788 376.247 110.006 391.334 117.46 404.808C125.146 418.703 133.828 430.312 143.244 439.475C101.09 425.983 65.65 397.35 43.347 360H98.897Z" fill="#E65402"/>
<path d="M296.715 208.099C292.352 208.792 289.376 212.891 290.07 217.255C292.677 233.671 294 250.743 294 268C294 272.418 297.582 276 302 276C306.418 276 310 272.418 310 268C310 249.905 308.611 231.988 305.871 214.744C305.179 210.381 301.082 207.398 296.715 208.099Z" fill="#E65402"/>
<path d="M484 308H442V280C442 268.972 433.028 260 422 260H338C326.972 260 318 268.972 318 280V308H276C261.663 308 250 319.664 250 334V388C250 396.183 254.945 403.225 262 406.319V488C262 501.233 272.766 512 286 512H474C487.234 512 498 501.233 498 488V406.319C505.055 403.225 510 396.184 510 388V334C510 319.664 498.337 308 484 308ZM334 280C334 277.795 335.795 276 338 276H422C424.205 276 426 277.795 426 280V308H334V280ZM266 334C266 328.486 270.486 324 276 324H484C489.514 324 494 328.486 494 334V388C494 390.205 492.205 392 490 392H270C267.795 392 266 390.205 266 388V334ZM354 408H406V424H354V408ZM474 496H286C281.589 496 278 492.411 278 488V408H338V424C338 432.823 345.177 440 354 440H406C414.823 440 422 432.823 422 424V408H482V488C482 492.411 478.411 496 474 496Z" fill="black"/>
<path d="M94 0C54.299 0 22 32.299 22 72C22 99.478 39.38 129.913 53.96 150.607C63.369 163.962 72.067 173.913 76.415 178.656C88.647 192 91.247 192 94 192C96.753 192 99.353 192 111.585 178.656C115.933 173.913 124.631 163.962 134.04 150.607C148.62 129.913 166 99.478 166 72C166 32.299 133.701 0 94 0ZM94 173.865C80.516 160.733 38 110.444 38 72C38 41.122 63.122 16 94 16C124.878 16 150 41.122 150 72C150 110.444 107.484 160.733 94 173.865Z" fill="#E65402"/>
<path d="M94 36C74.15 36 58 52.15 58 72C58 91.85 74.15 108 94 108C113.85 108 130 91.85 130 72C130 52.15 113.85 36 94 36ZM94 92C82.972 92 74 83.028 74 72C74 60.972 82.972 52 94 52C105.028 52 114 60.972 114 72C114 83.028 105.028 92 94 92Z" fill="#E65402"/>
<path d="M474 292C478.418 292 482 288.418 482 284V224C482 197.532 460.467 176 434 176H142C137.582 176 134 179.582 134 184C134 188.418 137.582 192 142 192H434C451.645 192 466 206.355 466 224V284C466 288.418 469.582 292 474 292Z" fill="#E65402"/>
</svg>
