<svg width="421" height="384" viewBox="0 0 421 384" fill="none" xmlns="http://www.w3.org/2000/svg">
<path d="M364.749 384.25H53.3158C51.5588 384.25 49.8737 384.948 48.6312 386.19C47.3888 387.433 46.6908 389.118 46.6908 390.875C46.6908 392.632 47.3888 394.317 48.6312 395.56C49.8737 396.802 51.5588 397.5 53.3158 397.5H364.749C366.506 397.5 368.191 396.802 369.434 395.56C370.676 394.317 371.374 392.632 371.374 390.875C371.374 389.118 370.676 387.433 369.434 386.19C368.191 384.948 366.506 384.25 364.749 384.25ZM318.364 410.75H99.6988C97.9418 410.75 96.2567 411.448 95.0142 412.69C93.7718 413.933 93.0738 415.618 93.0738 417.375C93.0738 419.132 93.7718 420.817 95.0142 422.06C96.2567 423.302 97.9418 424 99.6988 424H318.364C320.121 424 321.806 423.302 323.049 422.06C324.291 420.817 324.989 419.132 324.989 417.375C324.989 415.618 324.291 413.933 323.049 412.69C321.806 411.448 320.121 410.75 318.364 410.75ZM159.346 142.438C159.606 146.204 161.245 149.742 163.95 152.375C164.414 152.905 165.076 153.733 165.374 154.164C165.316 154.976 165.205 155.784 165.043 156.582C164.034 160.145 164.376 163.955 166.004 167.281C168.089 170.371 171.236 172.587 174.848 173.509C175.606 173.76 176.347 174.059 177.067 174.403C177.412 175.124 177.71 175.865 177.962 176.622C178.891 180.222 181.091 183.364 184.156 185.467C185.977 186.482 188.034 186.996 190.119 186.957C191.722 186.929 193.319 186.751 194.889 186.427C195.687 186.265 196.495 186.155 197.307 186.096C197.93 186.536 198.527 187.012 199.096 187.521C201.729 190.225 205.267 191.865 209.033 192.125C212.797 191.857 216.333 190.219 218.971 187.521C219.6 186.991 220.561 186.163 220.693 186.096C221.528 186.148 222.358 186.259 223.177 186.427C224.748 186.751 226.344 186.929 227.947 186.957C230.022 187 232.069 186.485 233.877 185.467C236.969 183.369 239.184 180.211 240.104 176.589C240.361 175.845 240.66 175.115 240.999 174.403C241.719 174.059 242.46 173.76 243.218 173.509C246.826 172.579 249.971 170.365 252.062 167.281C253.69 163.955 254.032 160.145 253.023 156.582C252.861 155.784 252.75 154.976 252.692 154.164C252.99 153.733 253.652 152.905 254.116 152.375C256.821 149.742 258.46 146.204 258.721 142.438C258.46 138.671 256.821 135.133 254.116 132.5C253.652 131.97 252.99 131.142 252.692 130.711C252.75 129.899 252.861 129.091 253.023 128.293C254.032 124.73 253.69 120.92 252.062 117.594C249.971 114.51 246.826 112.296 243.218 111.366C242.46 111.115 241.719 110.816 240.999 110.472C240.66 109.76 240.361 109.03 240.104 108.286C239.186 104.673 236.984 101.517 233.91 99.4081C232.089 98.3934 230.032 97.879 227.947 97.9175C226.345 97.9464 224.748 98.1238 223.178 98.4475C222.38 98.6096 221.572 98.7203 220.76 98.7787C220.136 98.3389 219.539 97.8634 218.971 97.3544C216.333 94.6557 212.798 93.0176 209.033 92.75C205.267 93.0103 201.729 94.6495 199.096 97.3544C198.466 97.8844 197.506 98.7125 197.373 98.7787C196.538 98.7267 195.708 98.616 194.889 98.4475C193.319 98.1238 191.722 97.9464 190.119 97.9175C188.035 97.879 185.977 98.3934 184.156 99.4081C181.091 101.511 178.891 104.653 177.962 108.253C177.71 109.01 177.412 109.751 177.068 110.472C176.347 110.816 175.606 111.115 174.848 111.366C171.236 112.288 168.089 114.504 166.004 117.594C164.376 120.92 164.034 124.73 165.043 128.293C165.206 129.091 165.316 129.899 165.375 130.711C165.076 131.142 164.414 131.97 163.95 132.5C161.245 135.133 159.606 138.671 159.346 142.438ZM174.075 141.056C175.949 139.102 177.358 136.75 178.198 134.176C178.772 131.471 178.734 128.673 178.086 125.985C178.002 125.519 177.898 124.921 177.826 124.409C178.321 124.206 178.913 123.992 179.37 123.827C182.001 123.059 184.426 121.711 186.466 119.881C188.3 117.839 189.652 115.411 190.422 112.777C190.587 112.317 190.801 111.729 191.003 111.237C191.481 111.302 192.036 111.399 192.582 111.496C195.275 112.094 198.062 112.133 200.77 111.609C203.341 110.768 205.691 109.361 207.646 107.491C208.05 107.148 208.584 106.699 209.032 106.359C209.482 106.699 210.012 107.148 210.42 107.491C212.377 109.361 214.728 110.768 217.301 111.609C220.008 112.132 222.793 112.094 225.485 111.496C226.022 111.399 226.572 111.305 227.067 111.24C227.267 111.732 227.481 112.324 227.646 112.784C228.417 115.415 229.767 117.84 231.599 119.881C233.638 121.711 236.062 123.06 238.693 123.827C239.152 123.992 239.744 124.206 240.239 124.409C240.168 124.924 240.064 125.522 239.977 125.988C239.332 128.675 239.295 131.472 239.867 134.176C240.708 136.747 242.117 139.096 243.988 141.05C244.328 141.457 244.777 141.988 245.12 142.438C244.777 142.887 244.328 143.418 243.988 143.825C242.116 145.779 240.708 148.13 239.867 150.702C239.295 153.404 239.332 156.199 239.977 158.883C240.064 159.352 240.168 159.951 240.239 160.465C239.744 160.669 239.152 160.883 238.693 161.048C236.006 161.678 233.548 163.045 231.596 164.996C229.644 166.947 228.276 169.405 227.645 172.091C227.48 172.551 227.267 173.143 227.063 173.638C226.584 173.573 226.028 173.476 225.485 173.379C222.794 172.783 220.01 172.744 217.303 173.263C214.727 174.103 212.374 175.513 210.416 177.387C210.011 177.726 209.48 178.176 209.032 178.516C208.584 178.176 208.052 177.726 207.649 177.387C205.693 175.513 203.339 174.103 200.764 173.263C199.657 172.975 198.518 172.833 197.375 172.842C195.764 172.879 194.16 173.059 192.581 173.378C192.043 173.476 191.494 173.569 191.001 173.634C190.801 173.142 190.587 172.554 190.422 172.098C189.791 169.409 188.423 166.951 186.47 164.998C184.517 163.046 182.058 161.678 179.37 161.047C178.912 160.882 178.32 160.669 177.825 160.465C177.898 159.951 178.002 159.355 178.086 158.89C178.733 156.206 178.772 153.412 178.2 150.712C177.362 148.132 175.952 145.776 174.074 143.818C173.735 143.414 173.288 142.884 172.947 142.437C173.289 141.991 173.735 141.461 174.075 141.056Z" fill="#E65402"/>
<path d="M209.033 162.316C220.01 162.316 228.908 153.417 228.908 142.441C228.908 131.464 220.01 122.566 209.033 122.566C198.056 122.566 189.158 131.464 189.158 142.441C189.158 153.417 198.056 162.316 209.033 162.316Z" fill="black"/>
<path d="M381.846 120.476C381.647 120.343 212.809 1.22562 212.809 1.22562C211.697 0.433836 210.365 0.00836182 209 0.00836182C207.635 0.00836182 206.303 0.433836 205.191 1.22562C205.191 1.22562 36.1869 120.542 36.1537 120.575C35.3495 121.174 34.6907 121.947 34.2262 122.836C33.7617 123.725 33.5034 124.707 33.4706 125.709C33.4706 125.742 33.4375 152.375 33.4375 152.375C33.4373 153.245 33.6085 154.107 33.9413 154.911C34.2742 155.714 34.7622 156.445 35.3774 157.06C35.9926 157.675 36.7231 158.163 37.5269 158.496C38.3308 158.829 39.1924 159 40.0625 159H46.9856V225.482C46.9866 227.101 47.5857 228.663 48.6678 229.867C49.75 231.072 51.2389 231.834 52.8488 232.007C52.8488 232.007 43.4081 350.562 43.4081 350.595C43.3626 351.591 43.5331 352.586 43.9082 353.51C44.2832 354.434 44.8537 355.266 45.5807 355.949C46.3076 356.632 47.1737 357.149 48.1195 357.466C49.0653 357.783 50.0684 357.891 51.06 357.783C57.8506 357.783 89.3194 356.557 97.8325 334.728C98.1306 333.966 97.9981 333.436 98.9256 333.403C100.284 333.304 101.708 333.602 103.066 333.602C113.076 333.382 122.736 329.879 130.56 323.631C131.439 322.876 132.103 321.903 132.487 320.81C132.871 319.717 132.96 318.542 132.746 317.404L113.766 213.689C128.904 202.924 142.452 185.931 148.182 159H151.329C151.362 158.636 151.396 158.271 151.429 157.94C151.176 157.59 150.921 157.18 150.666 156.791C150.576 156.656 150.487 156.525 150.397 156.386C150.248 156.151 150.104 155.917 149.957 155.669C148.214 152.858 147.026 149.74 146.457 146.482C146.411 146.24 146.356 146.005 146.327 145.75H46.6875V132.5H148.23C149.102 130.539 150.18 128.676 151.445 126.943C150.657 121.411 151.75 115.774 154.548 110.938C157.346 106.101 161.688 102.345 166.877 100.271C169.007 95.1246 172.738 90.8009 177.517 87.9397C181.352 85.7488 185.701 84.6188 190.118 84.6661C191.259 84.6672 192.399 84.7288 193.534 84.8504C197.956 81.3839 203.413 79.5 209.032 79.5C214.651 79.5 220.108 81.3839 224.531 84.8504C225.665 84.7289 226.805 84.6673 227.947 84.6661C232.354 84.6338 236.694 85.7593 240.53 87.93C245.318 90.7904 249.054 95.1198 251.183 100.274C256.358 102.416 260.7 106.179 263.556 110.998C266.292 115.841 267.369 121.446 266.623 126.959C267.884 128.688 268.96 130.545 269.831 132.5H371.312V145.75H271.719C271.058 150.17 269.306 154.356 266.623 157.929C266.66 158.27 266.684 158.638 266.712 159H269.817C275.548 185.931 289.096 202.924 304.267 213.689L285.254 317.404C285.04 318.542 285.129 319.717 285.513 320.81C285.897 321.903 286.561 322.876 287.44 323.631C295.272 329.864 304.927 333.366 314.934 333.602C318.014 333.635 320.002 334.264 320.167 334.728C328.714 356.557 360.149 357.783 366.973 357.783C367.962 357.887 368.963 357.777 369.905 357.458C370.848 357.14 371.71 356.622 372.434 355.939C373.157 355.256 373.725 354.425 374.097 353.503C374.47 352.581 374.639 351.589 374.592 350.595L365.151 232.007C366.759 231.828 368.245 231.065 369.326 229.861C370.407 228.658 371.008 227.099 371.014 225.482V159H377.937C378.808 159 379.669 158.829 380.473 158.496C381.277 158.163 382.007 157.675 382.623 157.06C383.238 156.445 383.726 155.714 384.059 154.911C384.392 154.107 384.563 153.245 384.562 152.375V126.537C384.625 125.384 384.411 124.232 383.939 123.177C383.466 122.123 382.749 121.197 381.846 120.476ZM101.612 220.935L118.958 315.613C112.643 319.589 105.069 321.059 97.7256 319.734L93.407 224.558C96.1178 223.506 98.8627 222.3 101.612 220.935ZM66.1873 231.318C70.9515 230.728 75.6755 229.849 80.3331 228.686L84.9754 331.069C80.4643 340.114 66.7892 343.355 57.2024 344.245L66.1873 231.318ZM152.621 92.75H145.963C144.206 92.75 142.521 92.052 141.279 90.8096C140.036 89.5671 139.338 87.882 139.338 86.125C139.338 84.3679 140.036 82.6828 141.279 81.4404C142.521 80.198 144.206 79.5 145.963 79.5H152.621C154.378 79.5 156.063 80.198 157.306 81.4404C158.548 82.6828 159.246 84.3679 159.246 86.125C159.246 87.882 158.548 89.5671 157.306 90.8096C156.063 92.052 154.378 92.75 152.621 92.75ZM272.004 92.75H265.379C263.622 92.75 261.937 92.052 260.694 90.8096C259.452 89.5671 258.754 87.882 258.754 86.125C258.754 84.3679 259.452 82.6828 260.694 81.4404C261.937 80.198 263.622 79.5 265.379 79.5H272.004C273.761 79.5 275.446 80.198 276.688 81.4404C277.931 82.6828 278.629 84.3679 278.629 86.125C278.629 87.882 277.931 89.5671 276.688 90.8096C275.446 92.052 273.761 92.75 272.004 92.75ZM320.282 319.734C312.941 321.072 305.364 319.602 299.055 315.616L316.394 220.935C319.144 222.297 321.887 223.506 324.595 224.558L320.282 319.734ZM333.034 331.065L337.67 228.685C342.329 229.849 347.054 230.728 351.819 231.318L360.802 344.245C351.214 343.351 337.541 340.114 333.034 331.065Z" fill="black"/>
<path d="M164.705 314.464L203.667 368.247C204.282 369.095 205.088 369.786 206.021 370.262C206.955 370.739 207.987 370.987 209.035 370.987C210.082 370.987 211.115 370.739 212.048 370.262C212.981 369.786 213.788 369.095 214.402 368.247C214.402 368.247 252.839 315.176 253.353 314.461C259.218 305.871 262.256 295.665 262.042 285.266C262.094 278.272 260.761 271.336 258.12 264.859C255.48 258.383 251.583 252.492 246.656 247.528C241.728 242.564 235.867 238.624 229.41 235.935C222.952 233.246 216.027 231.862 209.032 231.862C202.038 231.862 195.112 233.246 188.655 235.935C182.198 238.624 176.336 242.564 171.409 247.528C166.481 252.492 162.585 258.383 159.944 264.859C157.303 271.336 155.971 278.272 156.022 285.266C155.898 295.653 158.925 305.833 164.705 314.464ZM208.997 271.644C211.617 271.644 214.179 272.42 216.359 273.876C218.538 275.331 220.237 277.4 221.24 279.821C222.244 282.242 222.507 284.906 221.996 287.476C221.485 290.047 220.224 292.408 218.371 294.261C216.519 296.115 214.158 297.377 211.588 297.889C209.018 298.401 206.354 298.139 203.932 297.137C201.511 296.135 199.441 294.437 197.985 292.258C196.528 290.08 195.751 287.518 195.75 284.897C195.75 283.157 196.092 281.434 196.757 279.827C197.423 278.219 198.398 276.758 199.629 275.527C200.859 274.297 202.319 273.32 203.926 272.654C205.534 271.988 207.257 271.645 208.997 271.644Z" fill="#E65402"/>
</svg>
