<svg id="Layer_1" enable-background="new 0 0 500 500" viewBox="0 0 500 500" xmlns="http://www.w3.org/2000/svg"><path d="m293.211 335.273c16.361-25.213 28.151-51.78 30.806-80.633.017-.183.075-.336.186-.483l26.651-35.524c.186-.247.451-.38.76-.38s.575.133.76.38l87.439 116.587c.221.295.255.665.09.995s-.481.526-.85.526h-145.045c-.358 0-.665-.183-.835-.497-.171-.315-.157-.671.038-.971zm-44.873-250.355c3.153 1.818 7.229.78 9.088-2.439l16.277-28.194c1.834-3.175.753-7.247-2.433-9.088s-7.253-.742-9.087 2.433l-16.289 28.194c-1.835 3.187-.742 7.259 2.444 9.094zm228.844 390.678c0 3.938-3.193 7.131-7.131 7.131h-437.611c-3.938 0-7.131-3.193-7.131-7.131s3.193-7.13 7.131-7.13h132.404c.365 0 .678-.191.845-.516.167-.324.141-.69-.071-.987-15.35-21.512-34.122-42.72-52.356-63.325-44.466-50.246-90.444-102.206-90.444-161.31 0-79.528 64.706-144.227 144.233-144.227s144.227 64.7 144.227 144.227c0 60.329-46.283 111.972-91.037 161.925-18.258 20.376-37.06 41.36-52.425 62.707-.214.297-.241.663-.074.989.167.325.48.517.846.517h115.725c.524 0 .951-.427.951-.95v-116.51c0-.524.427-.95.95-.95h130.789c.524 0 .95.427.95.95v116.509c0 .524.427.95.951.95h51.147c3.939.001 7.131 3.194 7.131 7.131zm-310.132-159.104c37.39 0 67.804-30.423 67.804-67.813 0-37.391-30.414-67.805-67.804-67.805s-67.813 30.414-67.813 67.805c-.001 37.39 30.422 67.813 67.813 67.813zm218.591 86.22c0-3.675-2.973-6.655-6.655-6.655h-54.755c-3.669 0-6.655 2.979-6.655 6.655v64.804c0 .524.427.95.95.95h11.414c.524 0 .95-.427.95-.95v-57.199c0-.524.427-.951.951-.951h39.539c.524 0 .95.427.95.951v57.199c0 .524.427.95.951.95h11.408c.524 0 .95-.427.95-.95v-64.804zm-218.59-339.576c3.669 0 6.655-2.974 6.655-6.655v-32.553c0-3.681-2.985-6.655-6.655-6.655-3.681 0-6.655 2.974-6.655 6.655v32.554c0 3.681 2.974 6.654 6.655 6.654zm-90.375 19.343c1.237 2.14 3.469 3.33 5.769 3.33 5.04 0 8.347-5.496 5.751-9.985l-16.271-28.194c-1.834-3.175-5.907-4.274-9.093-2.433-3.181 1.84-4.28 5.913-2.433 9.088z"/></svg>