<svg id="Layer_1" enable-background="new 0 0 512 512" viewBox="0 0 512 512" xmlns="http://www.w3.org/2000/svg"><path d="m445.2 487.1v-37.4c3.5 1 7.2 1.5 10.8 2.2v35.1h-10.8zm26.4-221.9c-42.4-21.7-71.1-67-72.6-114.7h-46.5c1.5 46.2 31.4 89.9 73.7 108.2 14.3 6.4 29.7 9.9 45.3 10.8v-4.3zm0-114.6h-61.4c1.5 41.5 25.5 81.2 61.4 101.9zm-15 128.7c-9.2-1.5-18.2-3.8-27-7v158.9c12.1 7.2 27.4 10.9 41.5 10.6zm-38.2-11.8c-2.3-1.1-4.7-2.2-6.8-3.5-6.6-3.6-12.8-7.8-18.6-12.3 0 0 0-.1-.1-.1-2.7 30.6-7.8 89.2-10.5 119.7 10.5 9.4 22.6 16.5 36 20.9zm-65.8 14.1c3.1 11.9 13.9 24.2 23.8 29.1l5.6-64.3.4-4c-6.4-6.1-11.9-13.1-17.2-20.2.1 0-12.6 59.4-12.6 59.4zm-92.6 45.2c-2 2.2-5.9 2.2-8 0 0 0-6.5-6.5-6.5-6.5-19.8-20.5-55.9-5.4-55.4 23 0 8.7 3.4 16.8 9.5 23l56.4 56.4 56.4-56.4c20.5-19.6 5.3-56-23-55.4-11.9-.6-21.9 7.3-29.4 15.9zm-241.1 171.6v12.6h474.2v-12.6zm47.8-11.3v-37.4c-3.5 1-7.2 1.5-10.8 2.2v35.1h10.8zm68.8-176.4c10.1-5.1 20.6-17.3 23.8-29.1l-12.6-59.4c-5.3 7.1-10.7 14.1-17.2 20.2 1.3 14.7 4.7 53.2 6 68.3zm-41.9-43.2v124.6c13.4-4.5 25.5-11.4 35.9-20.9-2.9-33.8-7.6-86-10.4-119.7-8 6.2-16.4 11.8-25.5 16zm-11.2 132.1c-.1-.1-.1-127.3-.1-127.3-8.8 3.2-17.8 5.6-27 7l-14.4 162.4c14.6.2 28.9-3.2 41.5-10.6zm-42.1-249v101.9c36.1-20.8 59.9-60.3 61.4-101.9zm72.6 0c-1.5 47.7-30.1 92.9-72.6 114.7v4.3c62.7-1.8 117.5-56.1 119-119zm361.4-43.5h-436.7l218.4-106.1zm-119.6-33.1-96.3-46.8c-1.5-.7-3.4-.7-4.9 0l-96.3 46.8c-5.3 2.4-3.3 10.8 2.5 10.7h192.6c5.8.1 7.7-8.4 2.4-10.7zm138.4 44.3h-474.2v21h474.2zm-309.1-44.9h143.8l-71.9-35z"/></svg>