<svg id="Layer_1" enable-background="new 0 0 64 64" height="512" viewBox="0 0 64 64" width="512" xmlns="http://www.w3.org/2000/svg"><g><circle cx="47.788" cy="14.808" r="4.407"/><path d="m53.1786804 20.6593666h-12.9731293c-.8150902 0-1.5816193.3105087-2.1735573.863596l-2.765377 2.6295795c-.3978043.3687248-.9897423.3978024-1.4166832.0776405l-2.0352726-1.5796661c-.6651974-.5162506-1.6255054-.3805103-2.1215611.2998486-.4817238.6608162-.3421936 1.5861816.3129959 2.0755444l3.3781052 2.5227394c.7859535.5918789 1.8436241.6598091 2.697506.1940765 0 0 3.7489281-1.8793163 3.7744064-1.8920898.2689552-.1348.5840111-.1270771.8621407-.0294247.7191429.2524929.7098465.9291553.7098465 1.5468483v18.6929417c0 1.2063217.8678627 2.3074036 2.0683784 2.4253769 1.3752861.1351471 2.5309715-.9511261 2.5309715-2.2882729v-9.6255226c0-.5918808.4851608-1.0770378 1.08675-1.0770378.601593 0 1.08675.485157 1.08675 1.0770378v9.4883614c0 1.2063217.8678017 2.3074036 2.0683212 2.4254341 1.3752861.1352081 2.5309715-.9510689 2.5309715-2.2882729v-19.3771935c0-.5918789.485157-1.0770359 1.08675-1.0770359.591877 0 1.077034.485157 1.077034 1.0770359v4.6090031c0 .7471638.6113052 1.3487568 1.3584671 1.3487568.7471046 0 1.3584099-.601593 1.3584099-1.3487568v-6.2683239c.0000002-2.486496-2.0157278-4.502224-4.5022238-4.502224z"/><path d="m11.0912018 26.2177219h17.3589172c-1.1546803-1.1741047-1.3196163-3.0468082-.3201618-4.4149284.6403828-.8830223 1.6786289-1.406971 2.7750912-1.406971.756815 0 1.5039787.2522926 2.0958557.7180252l.7665901.6015911v-10.5376234c0-.5336618-.436657-.9703159-.9703178-.9703159h-21.7059746c-.5337219 0-.9703169.4366541-.9703169.9703159v14.0695887c0 .5336628.436595.9703178.9703169.9703178zm4.9097996-11.9058027h11.8863754c.5336628 0 .9703178.4366541.9703178.9703159 0 .5337219-.436655.9703169-.9703178.9703169h-11.8863754c-.5337219 0-.9703169-.436595-.9703169-.9703169 0-.5336618.4365949-.9703159.9703169-.9703159zm0 3.7357531h11.8863754c.5336628 0 .9703178.436655.9703178.9703178 0 .543375-.436655.9703159-.9703178.9703159h-11.8863754c-.5337219 0-.9703169-.4269409-.9703169-.9703159 0-.5336628.4365949-.9703178.9703169-.9703178z"/><circle cx="14.263" cy="39.574" r="4.743"/><path d="m17.3708973 45.2875443h-6.2152014c-2.671154 0-4.8365993 2.1654434-4.8365993 4.8365974v3.6683578h15.8884001v-3.6683578c-.0000001-2.671154-2.1653863-4.8365974-4.8365994-4.8365974z"/><circle cx="31.122" cy="39.574" r="4.743"/><path d="m34.2296143 45.2875443h-6.2151432c-2.6712132 0-4.8366585 2.1654434-4.8366585 4.8365974v3.6683578h15.8883991v-3.6683578c0-2.671154-2.1653862-4.8365974-4.8365974-4.8365974z"/></g></svg>